<svg width="1280" height="653" viewBox="0 0 1280 653" fill="none" xmlns="http://www.w3.org/2000/svg" preserveAspectRatio="none">
<path d="M1224.43 0.75026C1358.27 -3.60849 1431.02 45.1825 1468.19 61.0559L1547.61 749.096L229.912 792.009L91.5459 54.6363C170.178 29.439 241.913 7.36732 341.765 4.11547C502.692 -1.1254 602.3 22.0295 757.563 32.9463C907.019 43.4548 1057.13 6.1987 1224.43 0.75026Z" fill="#C7F95D"/>
<path d="M168 28.9999C29.1748 28.9999 -84.7428 100.228 -120 119.92L-68.7669 916H1298V60.8419C1212.06 34.749 1133.84 12 1030.27 12C863.345 12 765.135 42.4297 607.179 60.8419C455.133 78.5654 341.531 28.9999 168 28.9999Z" fill="#83D587"/>
</svg>
