<svg width="274" height="345" viewBox="0 0 274 345" fill="none" xmlns="http://www.w3.org/2000/svg">
<mask id="mask0_195_8532" style="mask-type:luminance" maskUnits="userSpaceOnUse" x="-71" y="0" width="345" height="345">
<path d="M273.995 0H-71V344.995H273.995V0Z" fill="white"/>
</mask>
<g mask="url(#mask0_195_8532)">
<mask id="mask1_195_8532" style="mask-type:luminance" maskUnits="userSpaceOnUse" x="-71" y="-1" width="345" height="346">
<path d="M273.996 -0.000488281H-70.9992V344.995H273.996V-0.000488281Z" fill="white"/>
</mask>
<g mask="url(#mask1_195_8532)">
<mask id="mask2_195_8532" style="mask-type:luminance" maskUnits="userSpaceOnUse" x="-71" y="-1" width="345" height="346">
<path d="M273.997 -0.000732422H-70.9984V344.995H273.997V-0.000732422Z" fill="white"/>
</mask>
<g mask="url(#mask2_195_8532)">
<path d="M77.5111 282.221C68.4709 282.221 58.6513 278.347 58.1243 278.136L59.2774 275.248C59.4339 275.309 74.9044 281.41 83.7752 278.171L84.8422 281.094C82.6189 281.905 80.0985 282.221 77.5111 282.221Z" fill="#144B5F"/>
<path d="M60.0263 277.672C60.0263 277.672 60.5087 292.942 63.3708 302.106C66.233 311.268 74.8292 314.21 80.6558 307.751C86.4824 301.292 86.5207 283.087 86.5398 279.094C75.3978 278.503 60.0263 277.675 60.0263 277.675" fill="#FDCB9B"/>
<path d="M72.8615 312.492C67.4566 312.492 62.6394 308.495 60.5918 302.308C60.5024 302.043 60.4161 301.771 60.3363 301.496C60.2915 301.362 60.2436 301.196 60.1989 301.024C60.1574 300.902 60.1222 300.781 60.0903 300.659L60.0679 300.564C60.0615 300.532 60.0488 300.497 60.0392 300.458L60.0264 300.407C60.0328 300.423 60.0487 300.471 60.0679 300.522L59.9912 300.299L59.9114 299.992C59.8667 299.819 59.8188 299.644 59.7772 299.468C59.7357 299.311 59.6878 299.126 59.6463 298.944C59.5952 298.746 59.5472 298.548 59.5025 298.347C59.4929 298.315 59.4866 298.28 59.477 298.238C59.4674 298.206 59.461 298.171 59.4514 298.133C59.3811 297.842 59.3172 297.542 59.2565 297.232L59.1671 296.801C58.9978 295.999 58.8572 295.261 58.7327 294.549C58.6272 293.951 58.525 293.341 58.4324 292.734C58.3813 292.443 58.3302 292.127 58.2887 291.801L58.2823 291.769C58.2376 291.482 58.196 291.201 58.1609 290.92C57.8734 288.824 57.621 286.578 57.3974 284.071L57.3272 283.228C57.3016 282.927 57.2792 282.662 57.2632 282.407L57.2505 282.257C57.2441 282.177 57.2377 282.097 57.2313 282.017C57.1514 280.966 57.0907 279.976 57.0492 279.177L57.0332 278.867C57.0268 278.749 57.0205 278.637 57.0141 278.535C57.0077 278.442 57.0045 278.369 57.0013 278.295V278.184C56.9694 277.685 56.963 277.433 56.963 277.433L58.5953 275.833C58.5953 275.833 74.8868 276.654 86.6933 277.248L88.169 278.81V278.979C88.1531 281.582 88.1115 288.495 86.8977 295.274C86.8146 295.766 86.7124 296.273 86.6102 296.769L86.6006 296.785C86.5751 296.919 86.5527 297.053 86.5207 297.181L86.4345 297.609C86.3994 297.768 86.3642 297.915 86.3291 298.059C86.3003 298.187 86.2684 298.312 86.2397 298.439C86.1822 298.672 86.1343 298.877 86.0736 299.081L86.0448 299.193C85.9969 299.388 85.9522 299.561 85.8979 299.733C85.7956 300.094 85.687 300.477 85.572 300.861L85.5336 300.976C85.4602 301.202 85.3803 301.445 85.3005 301.685C85.2845 301.739 85.2685 301.79 85.2494 301.838L85.1759 302.049C85.1376 302.158 85.0992 302.266 85.0577 302.372C85.0385 302.429 85.0194 302.48 85.0002 302.528L84.9874 302.56C84.9651 302.621 84.9427 302.681 84.9203 302.739L84.8373 302.953C84.7127 303.269 84.5913 303.57 84.454 303.867C84.3965 304.001 84.3294 304.151 84.2591 304.295C84.2176 304.394 84.1729 304.489 84.1249 304.589C84.0483 304.748 83.9684 304.908 83.8854 305.068L83.863 305.112C83.8374 305.16 83.8119 305.211 83.7831 305.259C83.7512 305.326 83.7161 305.393 83.6778 305.461C83.6554 305.505 83.6234 305.566 83.5755 305.636C83.5148 305.751 83.4509 305.87 83.3806 305.978C83.3455 306.045 83.3072 306.106 83.2689 306.167C83.1539 306.358 83.0356 306.547 82.9079 306.729C82.9174 306.71 82.9303 306.69 82.9398 306.671L82.8888 306.754C82.8888 306.754 82.8856 306.758 82.8824 306.761L82.844 306.821C82.844 306.821 82.8536 306.809 82.8568 306.802L82.8504 306.812C82.7482 306.962 82.6459 307.115 82.5373 307.259C82.4958 307.32 82.4606 307.371 82.4223 307.416C82.3265 307.543 82.2275 307.674 82.1252 307.802C82.0518 307.895 81.9687 307.991 81.8889 308.083C81.7739 308.224 81.6301 308.374 81.4896 308.524C81.2244 308.802 80.9273 309.09 80.5983 309.383C80.3204 309.629 80.017 309.879 79.6976 310.121C79.5346 310.24 79.4004 310.329 79.2695 310.418C79.1609 310.498 79.0458 310.572 78.9308 310.645C78.7807 310.738 78.6274 310.837 78.4741 310.923C77.3528 311.581 76.1261 312.044 74.8388 312.297L74.382 312.37C74.2063 312.396 74.0339 312.415 73.8646 312.431C73.7272 312.447 73.5802 312.456 73.4237 312.466H73.3758C73.1937 312.476 73.0212 312.482 72.8391 312.482M63.0707 299.851C63.0867 299.912 63.1058 299.976 63.1282 300.036L63.1601 300.139C63.2049 300.295 63.24 300.433 63.2847 300.57C63.3677 300.848 63.4444 301.087 63.5211 301.321C65.1406 306.214 68.7982 309.374 72.8391 309.374C72.9765 309.374 73.1074 309.367 73.2448 309.361C73.3438 309.355 73.4365 309.351 73.5387 309.339C73.6761 309.326 73.7911 309.313 73.9093 309.297L74.2702 309.24C75.203 309.057 76.091 308.719 76.9088 308.24C77.0365 308.166 77.1548 308.09 77.2762 308.016C77.3273 307.984 77.3752 307.955 77.4199 307.92L77.5062 307.856C77.618 307.783 77.733 307.706 77.8448 307.626C78.0684 307.457 78.3079 307.259 78.5284 307.061C78.7935 306.828 79.0267 306.601 79.2279 306.39C79.3269 306.288 79.426 306.183 79.5218 306.071C79.5921 305.988 79.6464 305.924 79.7007 305.857C79.7933 305.742 79.8732 305.636 79.9498 305.531L80.0425 305.403C80.1224 305.301 80.1926 305.192 80.2661 305.08C80.2501 305.106 80.2342 305.132 80.2214 305.157L80.2661 305.08L80.3236 305.119H80.33L80.3236 305.055L80.3715 305.09L81.579 304.355C81.0679 304.355 80.6047 304.601 80.3172 305.004V304.994C80.4227 304.847 80.5153 304.697 80.6079 304.544C80.6207 304.522 80.6335 304.502 80.6495 304.477L80.7102 304.371C80.7645 304.282 80.8156 304.186 80.8635 304.093L81.0552 303.809C81.0168 303.854 80.9849 303.899 80.9625 303.934L81.0935 303.684L81.0679 303.726L81.1126 303.64C81.1733 303.515 81.2468 303.378 81.3171 303.231C81.3394 303.189 81.3554 303.151 81.3714 303.116L81.4193 303.001C81.48 302.876 81.5407 302.742 81.6014 302.602C81.726 302.324 81.8313 302.065 81.9368 301.797L81.9591 301.742C81.9783 301.688 81.9974 301.637 82.0198 301.583L82.1157 301.33C82.1061 301.349 82.0965 301.372 82.0902 301.394C82.1125 301.33 82.1285 301.282 82.1476 301.234C82.1732 301.171 82.1987 301.097 82.2243 301.02C82.253 300.941 82.2786 300.861 82.3106 300.781C82.3074 300.794 82.301 300.806 82.2978 300.822L82.3265 300.733C82.3265 300.733 82.3201 300.752 82.3169 300.762L82.3233 300.739C82.4064 300.493 82.4863 300.247 82.5693 299.995L82.5852 299.947C82.697 299.589 82.7992 299.228 82.9015 298.861C82.9494 298.705 82.9814 298.577 83.0101 298.452C83.0229 298.395 83.042 298.321 83.0612 298.251C83.1155 298.059 83.1571 297.893 83.1954 297.727C83.221 297.615 83.2529 297.478 83.2849 297.337C83.3168 297.206 83.3455 297.075 83.3774 296.941L83.4797 296.459C83.502 296.373 83.5149 296.283 83.5308 296.19L83.5563 296.143H83.5435C83.6394 295.679 83.7352 295.203 83.8151 294.734C84.8181 289.134 84.9907 283.394 85.029 280.276C75.7652 279.81 64.3931 279.238 60.135 279.024C60.1733 279.81 60.2372 280.765 60.3139 281.809L60.3267 281.982C60.3331 282.062 60.3395 282.141 60.3458 282.221C60.3586 282.448 60.381 282.684 60.4001 282.921L60.4736 283.809C60.6908 286.253 60.9368 288.447 61.2211 290.508C61.2563 290.779 61.2945 291.038 61.3361 291.303L61.3457 291.373C61.3872 291.686 61.4288 291.955 61.4767 292.229C61.5725 292.846 61.6683 293.43 61.7705 294.009C61.8887 294.695 62.0229 295.395 62.1858 296.162L62.2753 296.593C62.3328 296.88 62.3902 297.149 62.4541 297.42L62.5021 297.628C62.5468 297.826 62.5883 298.002 62.633 298.174L62.649 298.238C62.6809 298.388 62.7225 298.548 62.764 298.698C62.8088 298.88 62.8503 299.037 62.8918 299.19L62.9588 299.452C62.978 299.509 62.994 299.564 63.0068 299.615C63.0292 299.688 63.0515 299.775 63.0707 299.858M80.0138 305.454C80.001 305.47 79.985 305.486 79.9754 305.505L80.0138 305.454ZM80.183 305.24C80.1671 305.272 80.1543 305.304 80.1415 305.339L80.3619 305.429L80.3523 305.33L80.183 305.243V305.24ZM80.2949 305.045V305.039H80.2981C80.2981 305.039 80.2981 305.042 80.2949 305.045ZM80.9082 304.029L80.9721 303.911C80.9721 303.911 80.9593 303.937 80.9529 303.95C80.9306 303.985 80.9146 304.014 80.9082 304.029Z" fill="#144B5F"/>
<path d="M57.0528 279.196L57.0432 279.065C57.0304 278.851 57.0177 278.656 57.0113 278.481L60.1162 278.308C60.1258 278.433 60.1322 278.57 60.1385 278.714L60.1545 279.008L57.0496 279.196H57.0528Z" fill="#144B5F"/>
<path d="M59.6702 299.04C59.6447 298.963 59.6223 298.883 59.6032 298.807C59.568 298.647 59.5233 298.462 59.4818 298.276C59.4754 298.254 59.469 298.229 59.4658 298.203L62.5069 297.545L62.5133 297.58L62.5324 297.66C62.5707 297.832 62.6123 298.008 62.657 298.181C62.657 298.184 62.657 298.187 62.657 298.19L61.047 298.612L59.667 299.043L59.6702 299.04Z" fill="#144B5F"/>
<path d="M60.0624 300.564L60.0145 300.391C60.0145 300.391 60.0209 300.407 60.0241 300.417L60.0145 300.379C60.0177 300.395 60.0241 300.414 60.0305 300.433L62.9278 299.305C62.9725 299.411 63.0045 299.516 63.03 299.609C63.062 299.714 63.0907 299.819 63.1099 299.918L60.0656 300.564H60.0624Z" fill="#144B5F"/>
<path d="M81.6053 307.473L81.0973 306.454L80.5383 307.045L80.3818 305.435L80.3402 305.004C80.4041 304.918 80.4616 304.828 80.5159 304.739L80.6309 304.55L81.6021 305.145L82.062 305.426L82.6689 304.78L82.9341 305.956L83.2887 306.173C83.2632 306.218 83.2344 306.263 83.2088 306.307L82.9533 306.71C82.9149 306.767 82.883 306.815 82.8478 306.86L82.6913 306.742L81.6084 307.476L81.6053 307.473Z" fill="#144B5F"/>
<path d="M83.3422 306.071L80.7356 304.375C80.7899 304.285 80.8378 304.192 80.8889 304.097L80.9592 303.979C80.9592 303.979 80.9592 303.982 80.9592 303.985H80.9656H80.9688L83.7127 305.432C83.6967 305.464 83.6744 305.512 83.6393 305.566L83.5754 305.684C83.5019 305.825 83.4284 305.946 83.3454 306.071" fill="#144B5F"/>
<path d="M83.661 305.518L80.9618 303.976L81.0959 303.723V303.73L81.1343 303.643L83.891 305.084L83.7601 305.34C83.7281 305.397 83.6962 305.458 83.661 305.515M81.0033 303.899C80.9905 303.921 80.9778 303.947 80.9682 303.969L81.0033 303.899Z" fill="#144B5F"/>
<path d="M84.5354 303.397L82.1333 301.89L81.9543 301.838C81.9607 301.822 81.9639 301.803 81.9703 301.787H81.9671C81.9863 301.73 82.0054 301.675 82.0278 301.624C82.0406 301.589 82.0566 301.551 82.0694 301.516L82.9829 301.848L82.9765 301.841L85.0018 302.563C84.9795 302.624 84.9571 302.682 84.9347 302.742L84.9092 302.809L84.8837 302.873H84.89L84.8229 303.014L84.8038 303.004L84.5418 303.397H84.5354Z" fill="#144B5F"/>
<path d="M86.124 297.618L86.0474 297.532L83.3864 297.021C83.396 296.97 83.4056 296.912 83.4216 296.852L83.5014 296.465C83.5238 296.379 83.5366 296.289 83.5525 296.197L84.0573 295.296L86.6256 296.698C86.6192 296.749 86.6064 296.804 86.5968 296.858L86.4371 297.612H86.4339C86.4403 297.589 86.4435 297.57 86.4499 297.548L86.4307 297.612L86.0442 297.538L86.1208 297.625L86.124 297.618Z" fill="#144B5F"/>
<path d="M59.6695 299.04C59.6439 298.963 59.6216 298.883 59.6024 298.807C59.5673 298.657 59.529 298.487 59.4907 298.312L62.5253 297.631L62.5317 297.657C62.57 297.829 62.6116 298.005 62.6563 298.178C62.6563 298.181 62.6563 298.184 62.6563 298.187L61.0463 298.609L59.6663 299.04H59.6695Z" fill="#144B5F"/>
<path d="M60.0649 300.564L60.0362 300.462L59.9723 300.037L63.0101 299.567C63.0101 299.567 63.0133 299.58 63.0165 299.586C63.0165 299.593 63.0165 299.596 63.0197 299.602H63.0261C63.058 299.708 63.0868 299.816 63.1091 299.915L62.6651 300.008L63.0804 300.03H62.5629L60.0649 300.561V300.564Z" fill="#144B5F"/>
<path d="M82.8454 306.847L80.3442 305.001C80.4081 304.914 80.4656 304.825 80.5199 304.736L80.6349 304.547L83.2895 306.17C83.2639 306.215 83.2352 306.259 83.2096 306.301L82.8486 306.847H82.8454Z" fill="#144B5F"/>
<path d="M83.3422 306.071L80.7356 304.375C80.7899 304.285 80.8378 304.193 80.8889 304.097L83.7319 305.339C83.6968 305.442 83.6393 305.56 83.5818 305.668C83.4987 305.822 83.4285 305.943 83.3454 306.068" fill="#144B5F"/>
<path d="M82.4208 306.102L81.2389 303.921L81.0472 303.818L81.0919 303.726V303.732L81.1303 303.646L82.4113 304.317L82.4176 302.991V304.32L83.887 305.087L83.7848 305.278C83.7592 305.32 83.7369 305.361 83.7081 305.4L83.6474 305.358L82.4176 306.099L82.4208 306.102Z" fill="#144B5F"/>
<path d="M84.1323 304.608L81.3436 303.231C81.3628 303.196 81.3787 303.158 81.3947 303.119L81.4427 303.004C81.5034 302.877 81.564 302.746 81.6247 302.605L84.4933 303.809C84.4485 303.915 84.407 304.023 84.3623 304.122L84.2761 304.305C84.2281 304.407 84.1802 304.509 84.1323 304.608Z" fill="#144B5F"/>
<path d="M84.5354 303.397L82.1333 301.89L81.9543 301.838C81.9607 301.822 81.9639 301.803 81.9703 301.787H81.9671C81.9863 301.73 82.0054 301.675 82.0278 301.624C82.0406 301.589 82.0566 301.551 82.0694 301.516L82.9829 301.848L82.9765 301.841L85.0018 302.563C84.9795 302.624 84.9571 302.682 84.9347 302.742L84.9092 302.809L84.8837 302.873H84.89L84.8229 303.014L84.8038 303.004L84.5418 303.397H84.5354Z" fill="#144B5F"/>
<path d="M82.2499 303.675C82.3138 303.531 82.3776 303.381 82.4415 303.224C82.4064 303.317 82.3712 303.41 82.3361 303.496C82.3073 303.553 82.2786 303.617 82.2499 303.675Z" fill="#59595B"/>
<path d="M84.2068 297.286C84.2355 297.142 84.2643 296.992 84.293 296.842C84.2707 296.951 84.2515 297.05 84.2356 297.155C84.2228 297.197 84.2132 297.241 84.2068 297.283" fill="#59595B"/>
<path d="M84.3709 296.459C84.3645 296.51 84.3485 296.567 84.3422 296.615C84.3262 296.692 84.307 296.765 84.2911 296.842C84.3198 296.721 84.3422 296.593 84.3613 296.465L84.3677 296.459H84.3709Z" fill="#59595B"/>
<path d="M79.9451 306.441C82.1556 303.991 83.5325 299.851 84.3918 295.44C75.8915 305.422 65.9025 299.267 61.3505 295.465C61.7179 297.356 62.1524 299.171 62.6603 300.797C65.5224 309.958 74.1185 312.897 79.9451 306.441Z" fill="#424142"/>
<path d="M71.2282 306.895C68.219 305.192 66.4493 301.024 65.6028 298.426C63.9225 297.481 62.4691 296.401 61.3478 295.462C61.7152 297.353 62.1497 299.168 62.6576 300.794C65.3984 309.569 73.4035 312.635 79.1918 307.205C76.7577 307.863 73.6144 308.243 71.2282 306.895Z" fill="#424142"/>
<path d="M80.2329 301.752C80.2329 301.752 74.6906 305.41 68.2443 302.448C69.6658 306.007 71.8188 307.313 74.8471 307.163C77.8754 307.013 79.4599 304.208 80.2329 301.752Z" fill="#FFE4C6"/>
<path d="M73.2866 302.768C72.9608 302.768 72.6349 302.755 72.3059 302.733C64.7831 302.183 59.8765 295.481 59.672 295.194C59.1705 294.497 59.3303 293.523 60.0267 293.022C60.723 292.52 61.6941 292.677 62.1957 293.373C62.2372 293.431 66.4889 299.196 72.5551 299.628C76.235 299.89 79.9341 298.133 83.5406 294.408C84.1379 293.791 85.1219 293.775 85.7384 294.373C86.3549 294.97 86.3708 295.954 85.7735 296.571C81.7901 300.682 77.5959 302.761 73.2898 302.761" fill="#144B5F"/>
<path d="M93.976 268.869C95.8224 264.199 95.7872 258.059 96.2185 253.066C96.9851 244.224 95.2346 233.443 83.8753 235.059C76.263 236.142 68.4623 235.89 60.9363 234.318C59.863 234.094 58.5501 233.772 57.464 234.101C55.7039 234.634 56.1128 235.724 56.1224 237.35C56.1383 240.86 56.1511 244.371 56.1671 247.881C56.1958 254.778 56.2246 261.672 56.2533 268.569C56.2757 273.702 56.3332 278.973 57.8345 283.927C58.4159 285.841 59.1954 288.562 60.8916 289.773C62.7763 291.118 65.6097 291.856 67.8234 292.408C72.0081 293.456 76.4579 294.021 80.6074 292.843C82.4793 292.309 84.61 291.239 85.9548 289.792C87.3604 288.278 87.6575 285.758 88.2995 283.783C89.9447 278.698 92.0178 273.82 93.9696 268.875" fill="black"/>
<path d="M75.624 294.166C73.2569 294.166 70.6407 293.795 67.6699 293.051C65.6382 292.543 62.5653 291.776 60.5145 290.313C58.6841 289.01 57.863 286.291 57.2625 284.304L57.205 284.116C55.6398 278.951 55.6174 273.434 55.595 268.569L55.4641 237.353C55.4641 237.091 55.4513 236.845 55.4385 236.615C55.381 235.417 55.3139 234.057 57.2817 233.463C58.454 233.108 59.7766 233.389 60.8435 233.616L61.0799 233.667C68.5707 235.229 76.2117 235.475 83.7888 234.398C87.6508 233.849 90.743 234.644 92.9823 236.765C97.2628 240.819 97.266 248.754 96.889 253.124C96.7964 254.188 96.7261 255.293 96.6527 256.462C96.3875 260.628 96.0905 265.349 94.6019 269.115C94.1738 270.204 93.7362 271.287 93.3017 272.373C91.7876 276.143 90.2224 280.04 88.9446 283.985C88.7849 284.48 88.6475 285.014 88.5006 285.576C88.0629 287.259 87.6093 289 86.4562 290.243C85.1688 291.633 83.0541 292.843 80.8021 293.482C79.1985 293.939 77.4894 294.169 75.6303 294.169M58.5244 234.632C58.2209 234.632 57.9333 234.664 57.6682 234.743C56.6971 235.037 56.7131 235.357 56.7738 236.555C56.7866 236.804 56.7993 237.069 56.7993 237.35L56.9304 268.566C56.9495 273.341 56.9718 278.756 58.4828 283.733L58.5403 283.921C59.0865 285.723 59.8308 288.189 61.2907 289.23C63.137 290.546 66.0631 291.278 67.9989 291.76C73.0748 293.029 77.0263 293.169 80.4379 292.201C82.4663 291.623 84.351 290.553 85.4787 289.336C86.405 288.339 86.8139 286.764 87.21 285.241C87.3538 284.685 87.504 284.11 87.6764 283.576C88.967 279.586 90.5418 275.667 92.0624 271.878C92.4968 270.795 92.9312 269.713 93.3592 268.63C94.768 265.061 95.0491 260.65 95.3206 256.382C95.3941 255.207 95.4644 254.095 95.5602 253.015C95.918 248.885 95.9404 241.407 92.0656 237.74C90.1361 235.916 87.4177 235.235 83.9773 235.724C76.2469 236.823 68.4525 236.571 60.8083 234.977L60.5655 234.925C59.9043 234.785 59.1824 234.632 58.5212 234.632" fill="#144B5F"/>
<path d="M140.118 275.574L137.451 273.974C142.313 265.879 139.259 249.53 139.227 249.367L142.281 248.779C142.418 249.498 145.59 266.457 140.118 275.574Z" fill="#144B5F"/>
<path d="M137.502 248.07C137.502 248.07 152.759 247.252 162.131 249.326C171.504 251.399 175.164 259.714 169.223 266.071C163.284 272.424 145.147 274.009 141.17 274.37C139.633 263.317 137.502 248.073 137.502 248.073" fill="#FDCB9B"/>
<path d="M141.033 276.018L139.349 274.679C137.755 262.969 135.551 246.805 135.551 246.805L137.008 245.042C137.008 245.042 137.26 245.029 137.73 245.013L137.874 245.007C137.944 245.003 138.017 245 138.091 244.997C138.209 244.997 138.321 244.991 138.439 244.987L138.765 244.978C139.531 244.952 140.522 244.93 141.617 244.917C141.672 244.917 141.748 244.914 141.831 244.917H141.978C142.25 244.908 142.528 244.908 142.812 244.911H143.636C146.179 244.917 148.434 244.975 150.555 245.086C150.817 245.096 151.095 245.115 151.376 245.134L151.469 245.141C151.756 245.15 152.076 245.173 152.405 245.202C152.983 245.24 153.6 245.288 154.213 245.345C154.925 245.406 155.673 245.486 156.487 245.585L156.931 245.639C157.232 245.674 157.529 245.713 157.826 245.757C157.867 245.764 157.909 245.767 157.944 245.773C157.982 245.78 158.017 245.783 158.053 245.789C158.273 245.821 158.468 245.847 158.66 245.882C158.845 245.908 159.036 245.939 159.222 245.971C159.381 245.997 159.573 246.029 159.755 246.061L160.266 246.166C160.212 246.147 160.161 246.134 160.113 246.128L160.158 246.134C160.231 246.147 160.273 246.157 160.311 246.163L160.407 246.179C160.531 246.201 160.653 246.227 160.777 246.259C160.95 246.291 161.122 246.323 161.295 246.364C161.538 246.412 161.819 246.479 162.094 246.543C168.428 248.057 172.82 252.517 173.28 257.902C173.296 258.088 173.306 258.267 173.312 258.452C173.319 258.634 173.322 258.784 173.319 258.941C173.319 259.097 173.312 259.266 173.303 259.436L173.268 259.908C173.127 261.212 172.769 262.474 172.204 263.659C172.134 263.809 172.05 263.969 171.967 264.128C171.907 264.247 171.843 264.368 171.773 264.483C171.696 264.62 171.619 264.761 171.536 264.901C171.3 265.275 171.076 265.598 170.856 265.898C170.587 266.256 170.332 266.569 170.08 266.856C169.939 267.013 169.798 267.166 169.651 267.313C169.584 267.383 169.495 267.476 169.396 267.566C169.287 267.668 169.169 267.776 169.051 267.882C169.006 267.927 168.958 267.965 168.907 268.006C168.792 268.112 168.642 268.233 168.495 268.351L168.482 268.361C168.45 268.387 168.418 268.412 168.383 268.438C168.217 268.575 168.045 268.703 167.872 268.827C167.802 268.878 167.748 268.917 167.69 268.955C167.585 269.032 167.476 269.105 167.367 269.175C167.297 269.23 167.237 269.268 167.198 269.294C167.137 269.335 167.074 269.377 167.01 269.412C166.968 269.441 166.923 269.469 166.879 269.498L166.824 269.533C166.674 269.626 166.521 269.719 166.364 269.814C166.269 269.872 166.179 269.923 166.09 269.971C165.949 270.051 165.805 270.134 165.652 270.214C165.393 270.361 165.103 270.504 164.799 270.658L164.595 270.757C164.534 270.786 164.473 270.817 164.413 270.843C164.362 270.869 164.304 270.894 164.247 270.92C164.132 270.974 164.026 271.022 163.921 271.07L163.723 271.159C163.672 271.182 163.62 271.207 163.566 271.226C163.336 271.325 163.103 271.424 162.863 271.527L162.803 271.552C162.397 271.715 162.026 271.856 161.646 271.999C161.512 272.054 161.346 272.111 161.18 272.169L161.017 272.226C160.851 272.29 160.659 272.354 160.464 272.421L160.413 272.437C160.289 272.475 160.161 272.517 160.036 272.558C159.896 272.603 159.758 272.651 159.618 272.692L159.187 272.82C159.062 272.862 158.928 272.9 158.797 272.935L158.784 272.945C158.299 273.089 157.8 273.232 157.305 273.36C150.667 275.143 143.783 275.772 141.189 276.008L141.023 276.024L141.033 276.018ZM138.867 248.086C139.442 252.309 140.978 263.592 142.231 272.782C145.332 272.479 151.038 271.82 156.519 270.348C156.992 270.226 157.455 270.089 157.909 269.955V269.965L157.954 269.936C158.056 269.907 158.142 269.888 158.225 269.859L158.714 269.712C158.822 269.677 158.947 269.636 159.072 269.594C159.212 269.549 159.35 269.501 159.49 269.46C159.634 269.412 159.79 269.358 159.947 269.3C160.043 269.265 160.113 269.239 160.193 269.214C160.292 269.179 160.413 269.137 160.535 269.089C160.924 268.942 161.273 268.811 161.621 268.671L161.665 268.652C161.911 268.549 162.148 268.444 162.387 268.342L162.407 268.335C162.426 268.326 162.445 268.316 162.464 268.31C162.528 268.278 162.595 268.249 162.659 268.22C162.732 268.188 162.806 268.153 162.879 268.121C162.914 268.102 162.959 268.083 163.007 268.064C163.001 268.067 162.978 268.08 162.956 268.093L163.071 268.035L163.777 269.425L163.122 268.013L163.208 267.971C163.256 267.946 163.304 267.923 163.355 267.901L163.41 267.875C163.668 267.744 163.918 267.62 164.16 267.486C164.317 267.399 164.445 267.329 164.566 267.259L164.671 267.201C164.707 267.182 164.742 267.16 164.78 267.141C164.927 267.054 165.061 266.971 165.195 266.888L165.227 266.869H165.234C165.234 266.869 165.224 266.879 165.214 266.885L165.457 266.732C165.425 266.757 165.384 266.792 165.342 266.834L165.611 266.617C165.7 266.559 165.793 266.502 165.876 266.438L166.026 266.333C166.179 266.221 166.326 266.115 166.463 265.997H166.518L166.499 265.975C166.524 265.952 166.55 265.933 166.575 265.914C166.671 265.837 166.761 265.767 166.844 265.69L166.933 265.614C166.933 265.614 166.908 265.636 166.892 265.655L166.965 265.585C167.064 265.499 167.16 265.409 167.259 265.317C167.332 265.246 167.39 265.189 167.444 265.131C167.569 265.01 167.665 264.898 167.76 264.79C167.952 264.572 168.153 264.326 168.367 264.039C168.543 263.806 168.719 263.547 168.891 263.275C168.942 263.192 169.006 263.071 169.07 262.953L169.128 262.857C169.156 262.812 169.182 262.761 169.207 262.71C169.275 262.582 169.338 262.458 169.399 262.333C169.814 261.467 170.073 260.554 170.179 259.608L170.207 259.238C170.214 259.126 170.217 259.008 170.217 258.886C170.217 258.771 170.217 258.679 170.217 258.58C170.21 258.449 170.207 258.315 170.194 258.174C169.849 254.146 166.39 250.773 161.381 249.575C161.138 249.517 160.892 249.46 160.65 249.409C160.468 249.367 160.321 249.341 160.174 249.313L160.065 249.29C160.001 249.274 159.941 249.262 159.877 249.249C159.784 249.236 159.688 249.217 159.589 249.198C159.557 249.195 159.512 249.185 159.458 249.172L159.225 249.131C159.059 249.102 158.893 249.073 158.72 249.044C158.538 249.012 158.378 248.987 158.225 248.968L158.158 248.958C157.986 248.926 157.813 248.904 157.641 248.882L157.395 248.846C157.12 248.805 156.845 248.77 156.564 248.738L156.117 248.683C155.341 248.588 154.628 248.514 153.945 248.453C153.35 248.399 152.756 248.351 152.172 248.313C151.862 248.284 151.59 248.268 151.312 248.255L151.178 248.246C150.923 248.23 150.667 248.211 150.415 248.201C148.332 248.092 146.122 248.035 143.646 248.025H142.815C142.56 248.025 142.307 248.025 142.065 248.035C141.988 248.035 141.908 248.038 141.828 248.035H141.678C140.586 248.048 139.621 248.067 138.864 248.096M162.429 268.339C162.429 268.339 162.413 268.345 162.407 268.348L162.429 268.342V268.339ZM165.435 266.738L165.537 266.671C165.537 266.671 165.502 266.693 165.467 266.719C165.454 266.725 165.444 266.732 165.432 266.738" fill="#144B5F"/>
<path d="M138.145 248.108L138.056 245C138.231 244.991 138.429 244.987 138.643 244.981H138.771L138.848 248.089L138.557 248.099C138.413 248.105 138.276 248.108 138.148 248.112" fill="#144B5F"/>
<path d="M158.159 248.949C157.987 248.917 157.815 248.894 157.642 248.872L157.511 248.853L157.91 245.767C157.939 245.77 157.965 245.773 157.99 245.777C158.179 245.802 158.367 245.831 158.552 245.856C158.597 245.86 158.683 245.879 158.763 245.898L158.52 246.907L158.156 248.949H158.159Z" fill="#144B5F"/>
<path d="M159.927 249.245C159.828 249.233 159.716 249.214 159.607 249.191C159.511 249.175 159.406 249.153 159.3 249.118L160.169 246.134C160.15 246.131 160.134 246.128 160.118 246.125L160.16 246.131C160.16 246.131 160.144 246.128 160.134 246.125L160.345 246.163L159.927 249.245Z" fill="#144B5F"/>
<path d="M167.875 268.824L167.622 268.479L166.44 268.332L167.028 267.671L166.725 267.259L165.936 267.352L166.721 267.259L166.028 266.32L166.194 266.198C166.284 266.131 166.373 266.064 166.456 265.991H166.859L166.757 265.796L166.859 265.994L168.501 266.01L167.974 266.601L169.018 266.991L168.386 268.189L168.513 268.329C168.472 268.367 168.43 268.403 168.389 268.435L167.967 268.757C167.935 268.779 167.903 268.802 167.875 268.824Z" fill="#144B5F"/>
<path d="M167.182 269.303L165.502 266.694H165.508L165.505 266.684C165.505 266.684 165.502 266.684 165.499 266.684L165.607 266.604C165.697 266.547 165.789 266.489 165.872 266.425L167.779 268.882C167.661 268.978 167.546 269.061 167.415 269.144L167.307 269.217C167.252 269.255 167.208 269.284 167.179 269.3L167.182 269.303Z" fill="#144B5F"/>
<path d="M166.859 269.511L165.169 266.901L165.23 266.863H165.233L165.492 266.693L167.249 269.258C167.197 269.294 167.149 269.329 167.098 269.361L166.856 269.514L166.859 269.511ZM165.492 266.7C165.469 266.713 165.447 266.722 165.428 266.738L165.492 266.7Z" fill="#144B5F"/>
<path d="M164.418 270.84L163.523 268.917L162.808 268.339L163.517 268.898L163.108 268.019L163.15 268C163.178 267.987 163.204 267.975 163.233 267.962C163.287 267.936 163.338 267.911 163.392 267.885H163.396C163.415 267.882 163.431 267.876 163.45 267.866L163.52 268.048L165.252 270.268L164.862 270.588L164.875 270.607L164.734 270.69V270.68L164.664 270.712L164.597 270.751C164.536 270.779 164.475 270.811 164.415 270.837" fill="#144B5F"/>
<path d="M158.714 272.961L157.126 270.495L157.976 269.936C158.062 269.913 158.149 269.891 158.229 269.862L158.602 269.75C158.666 269.728 158.724 269.712 158.778 269.699L159.516 272.338L159.589 272.396L159.583 272.402L159.519 272.354L159.612 272.689L159.554 272.712C159.573 272.705 159.593 272.699 159.615 272.692L158.871 272.919C158.826 272.935 158.768 272.951 158.717 272.964" fill="#144B5F"/>
<path d="M158.159 248.948C157.987 248.916 157.815 248.894 157.642 248.871C157.632 248.871 157.626 248.872 157.616 248.868L158.025 245.786C158.204 245.808 158.377 245.834 158.549 245.859C158.6 245.865 158.687 245.882 158.766 245.901L158.524 246.91L158.159 248.948Z" fill="#144B5F"/>
<path d="M159.928 249.246C159.819 249.233 159.701 249.211 159.583 249.188L159.781 246.112L160.19 246.141C160.19 246.141 160.199 246.141 160.206 246.141L160.34 246.166L159.992 248.731L160.03 249.214L159.985 248.76L159.918 249.249L159.928 249.246Z" fill="#144B5F"/>
<path d="M167.876 268.824L166.029 266.32L166.195 266.198C166.285 266.131 166.374 266.064 166.461 265.99L168.511 268.329L168.182 268.6L167.972 268.757C167.94 268.779 167.911 268.802 167.879 268.827" fill="#144B5F"/>
<path d="M167.091 269.335L165.608 266.61C165.698 266.553 165.79 266.495 165.873 266.431L167.784 268.888C167.666 268.981 167.551 269.067 167.42 269.15C167.301 269.226 167.19 269.293 167.091 269.338" fill="#144B5F"/>
<path d="M166.857 269.511L165.96 268.125L164.637 268.271L165.956 268.118L165.167 266.901L165.228 266.863H165.231L165.343 266.792L165.465 266.984L167.726 267.933L167.097 269.249L167.148 269.313C167.106 269.345 167.065 269.377 167.023 269.406V269.415L166.857 269.517V269.511Z" fill="#144B5F"/>
<path d="M165.627 270.223L164.183 267.466C164.317 267.396 164.445 267.323 164.563 267.252L164.668 267.195C164.703 267.176 164.739 267.153 164.777 267.134L166.384 269.798C166.288 269.856 166.192 269.913 166.093 269.968L165.962 270.044C165.831 270.118 165.729 270.169 165.623 270.223" fill="#144B5F"/>
<path d="M164.418 270.84L163.523 268.917L162.808 268.339L163.517 268.898L163.108 268.019L163.15 268C163.178 267.987 163.204 267.975 163.233 267.962C163.287 267.936 163.338 267.911 163.392 267.885H163.396C163.415 267.882 163.431 267.876 163.45 267.866L163.52 268.048L165.252 270.268L164.862 270.588L164.875 270.607L164.734 270.69V270.68L164.664 270.712L164.597 270.751C164.536 270.779 164.475 270.811 164.415 270.837" fill="#144B5F"/>
<path d="M165.299 268.003C165.162 268.08 165.018 268.157 164.868 268.233C164.957 268.188 165.047 268.147 165.13 268.102C165.184 268.07 165.245 268.035 165.299 268" fill="#59595B"/>
<path d="M159.1 270.495C158.959 270.536 158.812 270.578 158.665 270.616C158.771 270.584 158.867 270.555 158.972 270.533C159.013 270.514 159.055 270.504 159.096 270.495" fill="#59595B"/>
<path d="M158.29 270.728C158.338 270.715 158.396 270.696 158.444 270.686C158.52 270.664 158.591 270.638 158.667 270.616C158.549 270.654 158.421 270.686 158.297 270.718L158.29 270.725V270.728Z" fill="#59595B"/>
<path d="M167.859 265.47C165.607 267.879 161.598 269.604 157.276 270.837C166.498 261.522 159.515 252.089 155.343 247.875C157.256 248.083 159.103 248.358 160.767 248.725C170.139 250.798 173.8 259.113 167.859 265.47Z" fill="#424142"/>
<path d="M167.574 256.749C165.623 253.894 161.317 252.488 158.659 251.865C157.573 250.271 156.372 248.917 155.343 247.875C157.256 248.083 159.103 248.358 160.767 248.725C169.743 250.709 173.481 258.423 168.561 264.656C169.012 262.173 169.12 259.011 167.574 256.746" fill="#424142"/>
<path d="M157.356 272.648C156.995 272.648 156.631 272.523 156.337 272.265C155.689 271.702 155.622 270.718 156.184 270.07C159.586 266.16 161.023 262.327 160.448 258.682C159.503 252.676 153.395 248.929 153.334 248.894C152.6 248.45 152.36 247.495 152.804 246.761C153.245 246.026 154.197 245.786 154.935 246.227C155.235 246.406 162.333 250.725 163.518 258.174C164.253 262.78 162.573 267.47 158.532 272.115C158.225 272.469 157.791 272.648 157.359 272.648" fill="#144B5F"/>
<path d="M127.226 275.842C128.577 275.829 129.929 275.804 131.28 275.759C136.908 275.58 142.524 275.133 148.108 274.421C150.785 274.079 151.59 273.83 152.475 271.089C153.155 268.98 153.248 266.709 153.299 264.512C153.442 258.381 153.254 251.427 148.705 247.313C145.875 244.754 141.048 245.256 137.41 244.885L123.923 243.508C114.934 242.592 105.942 241.675 96.9527 240.758C95.9049 240.653 94.8125 240.55 93.8286 240.918C91.1102 241.93 92.6339 245.09 92.9469 247.144C93.4325 250.303 93.3366 253.302 93.228 256.529C93.1098 260.008 93.1003 263.457 92.5987 266.895C92.4103 268.191 92.2633 269.498 92.193 270.805C92.0972 272.606 92.1132 272.657 93.8669 272.961C99.6615 273.957 105.463 274.807 111.324 275.277C116.611 275.702 121.92 275.89 127.226 275.842Z" fill="black"/>
<path d="M125.614 276.516C120.838 276.516 116.021 276.321 111.271 275.941C106.144 275.529 100.576 274.791 93.7527 273.615C91.6828 273.261 91.4112 272.913 91.5262 270.769C91.5901 269.552 91.7242 268.255 91.9383 266.799C92.3439 264.007 92.427 261.132 92.5037 258.353C92.5196 257.739 92.5388 257.123 92.558 256.506C92.6634 253.356 92.7656 250.379 92.2833 247.246C92.2258 246.862 92.1171 246.421 92.0021 245.955C91.5485 244.106 90.865 241.31 93.5898 240.295C94.743 239.867 96.0048 239.994 97.0174 240.097L137.474 244.224C138.283 244.307 139.148 244.345 140.062 244.383C143.212 244.521 146.783 244.68 149.15 246.817C153.878 251.088 154.114 258.199 153.964 264.524C153.91 266.862 153.801 269.14 153.108 271.29C152.13 274.318 151.044 274.714 148.192 275.078C142.605 275.791 136.922 276.244 131.3 276.423C129.952 276.468 128.581 276.497 127.233 276.506C126.697 276.51 126.157 276.513 125.617 276.513M95.4777 241.323C94.9857 241.323 94.5002 241.374 94.0626 241.537C92.558 242.096 92.772 243.457 93.3055 245.629C93.4269 246.124 93.5418 246.594 93.6089 247.035C94.1073 250.293 94.0051 253.328 93.8965 256.545C93.8741 257.158 93.8581 257.771 93.8421 258.385C93.7623 261.202 93.6793 264.118 93.264 266.987C93.0563 268.402 92.9286 269.664 92.8647 270.836C92.8391 271.315 92.8072 271.913 92.8743 272.041C92.9733 272.124 93.5834 272.229 93.9859 272.299C100.768 273.465 106.297 274.2 111.386 274.609C116.634 275.03 121.962 275.219 127.227 275.171C128.568 275.158 129.926 275.133 131.265 275.088C136.845 274.909 142.486 274.462 148.032 273.753C150.568 273.43 151.07 273.293 151.849 270.878C152.488 268.897 152.59 266.725 152.641 264.489C152.785 258.458 152.574 251.695 148.268 247.801C146.259 245.984 143.084 245.846 140.017 245.709C139.081 245.668 138.196 245.629 137.353 245.543L96.896 241.416C96.4424 241.371 95.9632 241.32 95.4873 241.32" fill="#144B5F"/>
<path d="M95.7425 260.1C95.7521 262.825 95.752 265.588 94.9566 268.214C94.1612 270.837 92.449 273.348 89.8137 274.59C90.1395 274.437 88.6222 265.611 88.5455 264.739C88.2325 261.273 88.0599 257.794 88.028 254.318C88.028 252.629 87.7852 250.936 87.913 249.243C88.1111 246.636 88.6605 246.457 91.1937 246.272C92.3788 246.186 94.8544 245.687 95.8798 246.47C96.7519 247.137 95.9853 250.083 95.9693 251.153C95.9214 254.136 95.7329 257.117 95.7425 260.1Z" fill="black"/>
<path d="M115.355 243.262C88.7294 254.98 63.0432 242.234 56.2551 239.263C56.8972 236.149 57.5808 231.338 58.6317 228.169C67.5601 201.128 69.6173 193.772 69.6173 193.772C69.6173 193.772 87.6017 195.564 105.979 196.985C112.723 205.019 114 213.746 115.278 231.625C115.665 234.098 115.067 240.828 115.355 243.262Z" fill="white"/>
<path d="M91.8408 249.677C75.7282 249.677 62.3788 243.703 56.7886 241.202C56.3574 241.011 55.9741 240.838 55.6355 240.688L54.4823 240.183L54.7379 238.95C54.9168 238.078 55.1052 237.056 55.3001 235.973C55.8048 233.194 56.3798 230.044 57.1624 227.68C65.963 201.023 68.1064 193.427 68.1256 193.353L68.477 192.095L69.7771 192.222C69.956 192.242 87.9565 194.027 106.104 195.433L106.756 195.484L107.177 195.985C114.218 204.371 115.531 213.238 116.831 231.453C117.045 232.916 116.974 235.35 116.901 237.925C116.843 239.953 116.783 242.052 116.904 243.08L117.038 244.224L115.984 244.687C107.672 248.345 99.4467 249.677 91.8408 249.677ZM58.0249 238.346C58.0249 238.346 58.0504 238.356 58.06 238.362C65.8735 241.86 89.4322 252.398 113.735 242.266C113.697 241.049 113.742 239.477 113.79 237.835C113.853 235.586 113.927 233.034 113.745 231.862L113.729 231.734C112.502 214.555 111.301 206.048 105.2 198.484C90.036 197.302 75.1278 195.874 70.7482 195.446C69.8346 198.519 67.014 207.75 60.1077 228.658C59.3921 230.817 58.8395 233.852 58.354 236.529C58.239 237.158 58.1271 237.768 58.0185 238.346" fill="#144B5F"/>
<path d="M91.1909 275.849L92.5038 267.572L96.2988 273.367L93.0564 272.801L91.1909 275.849Z" fill="#144B5F"/>
<path d="M91.1911 276.516C91.1144 276.516 91.0377 276.504 90.961 276.475C90.664 276.366 90.4819 276.059 90.533 275.746L91.8459 267.47C91.8874 267.198 92.0951 266.981 92.3634 266.924C92.6349 266.866 92.9096 266.981 93.0598 267.211L96.8516 273.006C96.9953 273.229 96.9953 273.517 96.8516 273.737C96.7046 273.958 96.4459 274.076 96.1807 274.028L93.3856 273.542L91.7565 276.203C91.6319 276.405 91.4147 276.523 91.1879 276.523M92.8873 269.39L92.3698 272.645L92.4816 272.463C92.6253 272.229 92.8905 272.105 93.1652 272.153L94.8934 272.453L92.8873 269.386V269.39Z" fill="#144B5F"/>
<path d="M135.989 228.364C135.484 230.52 134.535 232.664 132.743 233.948C126.348 238.525 122.147 227.751 120.627 223.582C120.54 223.346 120.451 223.109 120.352 222.873C119.892 221.774 119.304 220.634 118.617 219.493C118.288 218.937 117.931 218.375 117.56 217.826C117.292 217.417 117.011 217.014 116.72 216.612C116.42 216.187 116.113 215.762 115.794 215.347C115.589 215.075 115.385 214.807 115.171 214.539C114.755 214.005 114.33 213.475 113.902 212.964C113.481 212.446 113.05 211.945 112.628 211.456C109.021 207.297 105.674 204.221 105.674 204.221C102.997 201.553 101.895 199.943 101.952 198.579C101.959 198.426 101.971 198.273 102.013 198.129C102.128 197.64 102.85 196.624 102.85 196.624C104.466 194.721 107.031 194.535 113.736 196.947C126.281 201.454 139.157 213.315 136.068 227.987C136.043 228.115 136.014 228.243 135.982 228.37" fill="#FDCB9B"/>
<path d="M129.686 236.171C129.159 236.171 128.632 236.091 128.108 235.928C123.904 234.628 121.227 228.476 119.582 223.962C119.502 223.745 119.419 223.524 119.326 223.301C118.898 222.275 118.339 221.189 117.665 220.065C117.343 219.525 117.001 218.982 116.637 218.445C116.368 218.033 116.084 217.631 115.816 217.257C115.519 216.839 115.218 216.423 114.912 216.017C114.71 215.752 114.506 215.484 114.298 215.222C113.883 214.689 113.465 214.168 113.052 213.673C112.637 213.162 112.222 212.679 111.813 212.207C108.267 208.118 104.958 205.064 104.923 205.035L104.891 205.003C101.872 201.994 100.773 200.24 100.843 198.531C100.853 198.33 100.872 198.097 100.939 197.848C101.099 197.215 101.693 196.334 101.946 195.979L102.003 195.906C104.095 193.439 107.264 193.436 114.113 195.899C127.9 200.854 140.243 213.545 137.157 228.214C137.129 228.351 137.1 228.485 137.068 228.619C136.397 231.488 135.158 233.583 133.388 234.852C132.158 235.733 130.919 236.174 129.686 236.174M106.446 203.416C106.737 203.684 109.957 206.674 113.471 210.727C113.918 211.248 114.346 211.747 114.768 212.261C115.189 212.766 115.624 213.305 116.052 213.855C116.263 214.123 116.474 214.398 116.681 214.673C117.004 215.097 117.32 215.532 117.627 215.966C117.908 216.356 118.208 216.781 118.489 217.215C118.863 217.771 119.23 218.353 119.572 218.924C120.301 220.135 120.911 221.32 121.377 222.441C121.483 222.691 121.575 222.943 121.668 223.192C123.965 229.488 126.354 233.056 128.766 233.801C129.829 234.13 130.919 233.881 132.094 233.037C133.414 232.092 134.359 230.434 134.905 228.105C134.934 227.984 134.96 227.866 134.985 227.747C137.812 214.324 126.249 202.614 113.366 197.982C106.22 195.414 104.664 196.222 103.731 197.298C103.444 197.71 103.143 198.218 103.096 198.381C103.083 198.432 103.073 198.483 103.067 198.618C103.028 199.557 104.073 201.036 106.45 203.406" fill="#144B5F"/>
<path d="M135.888 218.212C137.916 222.787 137.322 228.415 134.39 232.469C130.627 237.669 125.487 237.918 119.708 238.541C108.589 239.749 104.41 233.989 104.41 233.992C104.394 233.97 103.018 232.063 102.919 231.846C102.909 231.833 102.906 231.823 102.899 231.811C102.797 231.584 102.72 231.357 102.644 231.127C102.628 231.079 102.612 231.028 102.602 230.98C102.535 230.753 102.487 230.52 102.446 230.287C102.446 230.255 102.443 230.22 102.433 230.185C102.407 229.971 102.385 229.757 102.382 229.543C102.379 229.498 102.375 229.463 102.375 229.418C102.375 229.185 102.388 228.955 102.414 228.725C102.423 228.674 102.427 228.619 102.436 228.575C102.471 228.335 102.513 228.099 102.58 227.859C103.117 225.882 103.944 224.55 105.247 223.691C107.416 222.259 110.895 222.135 116.504 222.483C117.673 222.557 118.938 222.512 120.258 222.374C120.523 222.346 120.791 222.317 121.06 222.282C121.698 222.202 122.353 222.1 123.011 221.981C123.494 221.895 125.88 221.825 126.365 221.723" fill="#FDCB9B"/>
<path d="M136.902 217.761C138.713 221.723 138.649 226.393 136.918 230.357C136.474 231.344 135.931 232.29 135.292 233.168L134.787 233.801L134.535 234.117L134.257 234.414L133.695 235.005L133.085 235.551C131.433 237.001 129.373 237.921 127.335 238.442C125.284 238.963 123.236 239.158 121.24 239.346L119.745 239.48L118.196 239.573C117.681 239.621 117.161 239.586 116.643 239.589L115.867 239.579L115.091 239.515C113.021 239.356 110.951 238.912 109.012 238.1C108.52 237.915 108.056 237.659 107.584 237.426C107.127 237.161 106.664 236.909 106.236 236.596C106.015 236.449 105.801 236.295 105.594 236.126C105.383 235.963 105.175 235.797 104.98 235.615C104.779 235.443 104.587 235.251 104.396 235.059C104.3 234.963 104.21 234.858 104.118 234.756C104.073 234.708 104.025 234.65 103.98 234.596L103.913 234.513L103.904 234.503C103.904 234.503 103.933 234.539 103.958 234.561C104.016 234.609 104.118 234.708 104.357 234.737C104.472 234.749 104.613 234.724 104.725 234.666C104.837 234.612 104.913 234.535 104.961 234.471C105.057 234.34 105.073 234.254 105.086 234.197L103.834 234.411L103.08 233.325L102.709 232.778L102.524 232.497L102.428 232.347L102.377 232.261C102.361 232.232 102.323 232.165 102.3 232.117L102.323 232.159C102.243 231.986 102.208 231.865 102.15 231.715C102.099 231.568 102.045 231.437 101.997 231.274C101.942 231.089 101.927 230.974 101.891 230.82L101.802 230.389L101.796 230.335C101.796 230.335 101.796 230.335 101.802 230.335L101.786 230.255L101.741 229.543V229.606L101.738 229.434C101.738 229.38 101.741 229.348 101.744 229.303L101.76 229.054C101.773 228.891 101.78 228.715 101.802 228.562C101.856 228.258 101.926 227.932 102 227.629C102.172 227.044 102.38 226.457 102.655 225.888C103.188 224.754 104.07 223.694 105.204 223.074C106.322 222.429 107.555 222.16 108.753 222.01C109.954 221.863 111.149 221.85 112.334 221.879C113.519 221.908 114.698 221.981 115.87 222.068C117.042 222.176 118.176 222.208 119.342 222.141C119.921 222.112 120.499 222.055 121.08 221.994L122.815 221.761C123.434 221.675 124.009 221.678 124.597 221.649C125.175 221.62 125.785 221.614 126.325 221.544L126.399 221.889C125.779 221.991 125.21 222.013 124.619 222.064C124.038 222.116 123.438 222.138 122.895 222.237L121.15 222.537C120.566 222.62 119.978 222.7 119.387 222.751C118.212 222.866 116.994 222.876 115.825 222.809C114.656 222.764 113.487 222.735 112.327 222.751C111.168 222.77 110.008 222.822 108.884 222.988C107.763 223.16 106.664 223.444 105.757 224.007C104.837 224.55 104.169 225.396 103.725 226.39C103.501 226.885 103.329 227.412 103.185 227.958C103.131 228.226 103.083 228.479 103.041 228.75C103.025 228.888 103.032 229.009 103.022 229.137L103.013 229.328V229.418C103.013 229.418 103.013 229.45 103.013 229.463V229.482L103.016 229.526L103.07 230.095L103.054 230.015C103.067 230.082 103.076 230.149 103.086 230.217L103.08 230.162L103.169 230.53C103.198 230.641 103.23 230.795 103.255 230.871C103.287 230.97 103.342 231.089 103.38 231.197C103.421 231.299 103.469 231.44 103.504 231.513L103.52 231.552V231.558L103.83 231.996L104.207 232.52L104.974 233.561L103.722 233.778C103.744 233.73 103.77 233.657 103.875 233.539C103.929 233.481 104.012 233.414 104.127 233.363C104.242 233.312 104.386 233.296 104.508 233.312C104.757 233.35 104.868 233.462 104.936 233.523C104.968 233.551 105 233.593 105.006 233.599L105.012 233.606L105.067 233.666C105.102 233.708 105.137 233.746 105.175 233.788C105.255 233.868 105.329 233.951 105.412 234.031C105.581 234.19 105.747 234.35 105.929 234.497C106.105 234.65 106.29 234.794 106.482 234.931C106.667 235.075 106.862 235.206 107.063 235.334C107.45 235.602 107.874 235.816 108.29 236.043C108.724 236.238 109.143 236.461 109.596 236.615C111.372 237.298 113.276 237.656 115.196 237.752L115.915 237.79L116.64 237.778C117.122 237.762 117.605 237.784 118.087 237.723L119.534 237.596L121.026 237.42C123.006 237.18 124.958 236.931 126.776 236.414C128.597 235.899 130.251 235.066 131.602 233.852L132.104 233.392L132.567 232.887L132.797 232.635L133.008 232.36L133.433 231.814C133.96 231.063 134.407 230.261 134.771 229.418C136.225 226.038 136.282 222.042 134.858 218.653L136.889 217.752L136.902 217.761Z" fill="#144B5F"/>
<path d="M35.5024 227.031C36.0071 229.188 36.9558 231.331 38.7479 232.615C45.1431 237.193 49.3438 226.418 50.8643 222.25C50.9505 222.013 51.0399 221.78 51.139 221.54C51.599 220.441 52.1867 219.301 52.8735 218.161C53.2025 217.605 53.5603 217.043 53.9309 216.493C54.1992 216.084 54.4804 215.682 54.771 215.279C55.0713 214.854 55.3779 214.43 55.6942 214.014C55.8986 213.743 56.1063 213.475 56.3171 213.206C56.7324 212.673 57.1572 212.142 57.5853 211.631C58.0069 211.114 58.4382 210.612 58.8598 210.124C62.4663 205.965 65.814 202.888 65.814 202.888C68.4909 200.221 69.5931 198.611 69.5356 197.247C69.5292 197.094 69.5164 196.94 69.4749 196.797C69.3599 196.308 68.6379 195.295 68.6379 195.295C67.0215 193.391 64.4564 193.206 57.7514 195.615C45.207 200.122 32.3304 211.983 35.4193 226.655C35.4449 226.782 35.4737 226.91 35.5056 227.038" fill="#FDCB9B"/>
<path d="M41.8017 234.839C40.5687 234.839 39.3292 234.398 38.0994 233.517C36.3297 232.248 35.0903 230.153 34.4194 227.284C34.3875 227.15 34.3556 227.013 34.3301 226.879C31.2411 212.21 43.5842 199.519 57.3744 194.564C64.2232 192.104 67.392 192.104 69.4844 194.571L69.5419 194.644C69.7943 194.999 70.3916 195.88 70.5481 196.513C70.6152 196.762 70.6344 196.995 70.6408 197.19C70.7111 198.905 69.6122 200.659 66.5935 203.668L66.5615 203.7C66.5296 203.732 63.2138 206.789 59.6936 210.849C59.2655 211.348 58.8503 211.83 58.4414 212.331C58.0197 212.836 57.6012 213.357 57.1891 213.887C56.9815 214.149 56.7835 214.411 56.5886 214.67C56.266 215.095 55.9657 215.507 55.6718 215.922C55.4035 216.296 55.1256 216.692 54.8573 217.101C54.4867 217.65 54.1417 218.196 53.8254 218.73C53.145 219.861 52.586 220.947 52.1611 221.969C52.0653 222.196 51.9855 222.416 51.9025 222.637C50.2573 227.147 47.5804 233.299 43.3765 234.599C42.8527 234.762 42.3256 234.842 41.7985 234.842M65.1975 194.951C63.7952 194.951 61.6358 195.398 58.1219 196.66C45.2389 201.288 33.6751 213.002 36.5022 226.425C36.5277 226.543 36.5533 226.661 36.582 226.783C37.1283 229.112 38.0738 230.773 39.3899 231.715C40.5687 232.558 41.658 232.808 42.7186 232.478C45.1303 231.734 47.5197 228.166 49.8133 221.873C49.9091 221.617 50.0018 221.368 50.1072 221.113C50.5736 219.995 51.1805 218.81 51.9152 217.593C52.2506 217.027 52.618 216.449 53.0013 215.877C53.2824 215.446 53.5795 215.024 53.8606 214.634C54.1641 214.203 54.4803 213.769 54.8029 213.344C55.0201 213.057 55.2246 212.788 55.4354 212.52C55.8603 211.974 56.2947 211.434 56.7228 210.919C57.1348 210.412 57.5629 209.916 57.9813 209.428C61.5239 205.345 64.7439 202.355 65.0346 202.084C67.4112 199.714 68.4558 198.234 68.4175 197.289C68.4111 197.161 68.4015 197.11 68.3983 197.094L68.3855 197.049C68.3376 196.893 68.0405 196.385 67.753 195.973C67.2803 195.423 66.6446 194.947 65.1943 194.947" fill="#144B5F"/>
<path d="M35.6039 216.876C33.5755 221.451 34.1696 227.079 37.1021 231.133C40.8651 236.334 46.0049 236.583 51.7835 237.206C62.9033 238.413 67.0815 232.654 67.0815 232.657C67.1007 232.635 68.4775 230.727 68.5733 230.51C68.5797 230.497 68.5861 230.488 68.5925 230.475C68.6947 230.248 68.7713 230.021 68.848 229.791C68.864 229.744 68.88 229.692 68.8896 229.645C68.9535 229.418 69.0046 229.185 69.0461 228.951C69.0461 228.919 69.0493 228.884 69.0589 228.849C69.0844 228.635 69.1068 228.421 69.11 228.207C69.1164 228.162 69.1164 228.127 69.1164 228.082C69.1164 227.849 69.1035 227.619 69.078 227.389C69.0684 227.338 69.0653 227.284 69.0557 227.239C69.0205 227 68.979 226.763 68.912 226.524C68.3753 224.546 67.5479 223.214 66.2446 222.355C64.0756 220.924 60.5969 220.799 54.9875 221.147C53.8184 221.221 52.5534 221.176 51.2341 221.039C50.969 221.01 50.7006 220.981 50.4323 220.946C49.7934 220.866 49.1386 220.764 48.4805 220.646C47.9982 220.56 45.6119 220.489 45.1264 220.387" fill="#FDCB9B"/>
<path d="M36.6206 217.327C35.1959 220.713 35.2534 224.713 36.7069 228.092C37.071 228.936 37.5214 229.741 38.0485 230.491L38.4734 231.038L38.6842 231.312L38.9174 231.565L39.3806 232.073L39.8821 232.533C41.2365 233.746 42.8913 234.58 44.7089 235.095C46.5297 235.615 48.4783 235.864 50.4588 236.101L51.9505 236.276L53.3976 236.404C53.88 236.465 54.3623 236.443 54.8447 236.459L55.5698 236.471L56.2886 236.433C58.2084 236.337 60.1155 235.983 61.8884 235.296C62.342 235.142 62.7604 234.919 63.1948 234.724C63.6101 234.497 64.0318 234.28 64.4215 234.015C64.6227 233.89 64.8176 233.759 65.0029 233.612C65.1946 233.475 65.3798 233.331 65.5555 233.178C65.7376 233.031 65.9037 232.871 66.073 232.712C66.156 232.632 66.2295 232.549 66.3094 232.469C66.3509 232.427 66.3829 232.386 66.418 232.347L66.4723 232.287L66.4787 232.28C66.4787 232.28 66.517 232.232 66.5489 232.203C66.616 232.143 66.7279 232.031 66.977 231.993C67.0984 231.974 67.2421 231.993 67.3571 232.044C67.4721 232.092 67.5552 232.162 67.6095 232.22C67.7149 232.338 67.7405 232.411 67.7628 232.459L66.5107 232.245L67.2773 231.204L67.6542 230.68L67.9577 230.242V230.236L67.98 230.197C68.0152 230.124 68.0631 229.987 68.1015 229.881C68.143 229.773 68.1941 229.651 68.226 229.555C68.2516 229.479 68.2835 229.329 68.3123 229.214L68.4017 228.846L68.3953 228.901C68.4017 228.833 68.4145 228.766 68.4273 228.699L68.4113 228.779L68.4656 228.21V228.166L68.4688 228.147C68.4688 228.131 68.4688 228.115 68.4688 228.099V228.009L68.456 227.818C68.4496 227.69 68.456 227.568 68.4369 227.431C68.3954 227.156 68.3474 226.907 68.2931 226.639C68.1493 226.096 67.9768 225.569 67.7564 225.071C67.3156 224.077 66.6447 223.231 65.7248 222.688C64.8176 222.125 63.7187 221.838 62.5975 221.668C61.4731 221.502 60.3135 221.451 59.1539 221.432C57.9912 221.416 56.8252 221.445 55.6561 221.49C54.4901 221.557 53.2698 221.547 52.0975 221.432C51.5065 221.381 50.9155 221.301 50.3342 221.218L48.59 220.918C48.047 220.819 47.4465 220.796 46.8651 220.745C46.2741 220.694 45.7055 220.672 45.0858 220.57L45.1593 220.224C45.7023 220.295 46.3092 220.301 46.8874 220.327C47.4784 220.359 48.0534 220.352 48.6699 220.439L50.4044 220.672C50.9858 220.733 51.5609 220.79 52.1422 220.819C53.3082 220.886 54.4422 220.854 55.6145 220.745C56.7901 220.659 57.9656 220.585 59.1507 220.557C60.3359 220.531 61.5306 220.544 62.7316 220.688C63.9264 220.838 65.1594 221.106 66.2807 221.752C67.4115 222.371 68.2963 223.432 68.8298 224.566C69.1045 225.131 69.3121 225.719 69.4846 226.307C69.558 226.61 69.6284 226.936 69.6827 227.24C69.705 227.393 69.7114 227.568 69.7242 227.731L69.7401 227.981C69.7401 228.025 69.7465 228.057 69.7465 228.112L69.7401 228.284V228.22L69.6987 228.933L69.6827 229.012H69.6891L69.6827 229.067L69.5932 229.498C69.5581 229.651 69.5421 229.766 69.4878 229.952C69.4399 230.114 69.3856 230.245 69.3344 230.392C69.277 230.542 69.245 230.664 69.1619 230.836L69.1843 230.795C69.162 230.843 69.1268 230.91 69.1077 230.939L69.0566 231.022L68.9607 231.172L68.7754 231.453L68.4049 231.999L67.651 233.085L66.3988 232.868C66.4116 232.929 66.4275 233.015 66.5234 233.143C66.5713 233.207 66.6512 233.28 66.7598 233.338C66.8684 233.395 67.0089 233.417 67.124 233.408C67.3635 233.382 67.4658 233.28 67.5233 233.232C67.5488 233.21 67.5775 233.175 67.5775 233.175L67.5679 233.184L67.5009 233.267C67.4561 233.322 67.4114 233.379 67.3635 233.427C67.2709 233.526 67.1814 233.635 67.0856 233.731C66.8939 233.922 66.7055 234.114 66.5011 234.286C66.303 234.468 66.0985 234.634 65.8877 234.797C65.6832 234.967 65.466 235.12 65.2456 235.267C64.8144 235.58 64.3544 235.832 63.8976 236.098C63.4248 236.328 62.9616 236.586 62.4697 236.772C60.5307 237.583 58.4607 238.027 56.3907 238.187L55.6145 238.251L54.8383 238.26C54.3208 238.26 53.8001 238.292 53.2858 238.244L51.7365 238.152L50.2415 238.017C48.245 237.832 46.1975 237.637 44.1467 237.113C42.1086 236.596 40.045 235.673 38.3935 234.222L37.7834 233.676L37.2211 233.085L36.9433 232.788L36.6909 232.472L36.1862 231.839C35.5473 230.961 35.0043 230.015 34.5603 229.028C32.8257 225.067 32.765 220.397 34.5762 216.433L36.6078 217.334L36.6206 217.327Z" fill="#144B5F"/>
<path d="M157.377 145.096C157.377 145.096 168.541 140.016 177.844 150.366C178.716 151.337 179.463 152.369 180.096 153.452C180.942 154.896 181.587 156.426 182.07 158.011C182.191 158.407 182.3 158.806 182.402 159.208C182.603 160.013 182.766 160.831 182.891 161.655C182.955 162.067 183.009 162.483 183.057 162.898C183.568 167.472 183.082 172.219 182.306 176.468C182.236 176.854 182.162 177.238 182.089 177.615C182.015 177.992 181.936 178.365 181.859 178.733C181.702 179.467 181.539 180.183 181.377 180.876C181.293 181.221 181.214 181.56 181.131 181.892C180.722 183.556 180.316 185.054 179.984 186.322C179.85 186.83 179.741 187.319 179.658 187.792C179.236 190.153 179.415 192.066 180.006 193.516C180.361 194.388 180.865 195.091 181.479 195.628C182.293 196.34 183.3 196.752 184.408 196.861C184.967 196.915 185.552 196.893 186.152 196.794C186.449 196.743 186.75 196.672 187.05 196.583C187.654 196.404 188.2 196.136 188.692 195.797C192.139 193.427 191.73 184.933 191.73 184.933C191.73 184.933 201.076 191.782 195.365 201.86C186.443 217.599 145.325 216.982 134.975 182.297L157.383 145.096H157.377Z" fill="#623A16"/>
<path d="M173.546 213.321C172.016 213.321 170.457 213.235 168.876 213.056C151.799 211.12 138.567 199.79 133.482 182.741L133.284 182.083L156.296 143.878L156.737 143.68C156.858 143.626 169.055 138.259 179.005 149.328C179.922 150.347 180.743 151.471 181.443 152.666C182.315 154.154 183.03 155.803 183.564 157.556C183.691 157.972 183.81 158.403 183.915 158.831C184.123 159.658 184.295 160.53 184.433 161.418C184.5 161.853 184.557 162.287 184.605 162.725C185.062 166.836 184.813 171.423 183.838 176.748C183.765 177.145 183.691 177.531 183.615 177.917C183.538 178.304 183.461 178.684 183.382 179.058C183.222 179.805 183.059 180.531 182.893 181.233C182.81 181.582 182.727 181.926 182.644 182.262C182.315 183.594 181.992 184.821 181.704 185.9L181.487 186.718C181.366 187.175 181.267 187.628 181.19 188.066C180.845 189.992 180.935 191.676 181.446 192.931C181.698 193.554 182.056 194.068 182.5 194.458C183.059 194.947 183.752 195.234 184.557 195.314C184.982 195.356 185.429 195.34 185.886 195.26C186.122 195.218 186.365 195.164 186.605 195.094C187.033 194.969 187.435 194.774 187.809 194.519C189.793 193.155 190.313 187.964 190.176 185.009L190.122 183.869L191.192 183.476C191.716 183.284 192.508 182.993 195.108 186.057C197.571 188.961 201.053 194.976 196.715 202.629C192.942 209.283 183.953 213.324 173.546 213.324M136.663 182.508C141.522 197.956 153.648 208.2 169.23 209.967C180.155 211.206 190.349 207.558 194.013 201.096C197.175 195.515 195.156 191.104 193.182 188.568C192.907 191.513 192.054 195.375 189.576 197.081C188.933 197.522 188.231 197.857 187.493 198.074C187.135 198.18 186.771 198.266 186.413 198.327C185.682 198.451 184.956 198.48 184.257 198.41C182.816 198.269 181.503 197.71 180.459 196.8C179.644 196.087 179.008 195.18 178.568 194.103C177.823 192.276 177.676 190.063 178.13 187.52C178.223 187.002 178.341 186.466 178.481 185.926L178.699 185.105C178.983 184.035 179.302 182.824 179.625 181.521C179.705 181.195 179.788 180.86 179.868 180.518C180.027 179.837 180.187 179.135 180.344 178.409C180.42 178.048 180.497 177.681 180.57 177.311C180.644 176.94 180.717 176.566 180.785 176.186C181.705 171.165 181.944 166.875 181.519 163.067C181.475 162.674 181.423 162.281 181.363 161.888C181.241 161.096 181.085 160.32 180.903 159.582C180.807 159.202 180.705 158.825 180.593 158.46C180.13 156.937 179.513 155.515 178.766 154.237C178.171 153.222 177.475 152.27 176.699 151.404C169.179 143.038 160.484 145.584 158.456 146.341L136.673 182.505L136.663 182.508Z" fill="#144B5F"/>
<path d="M141.247 182.518C141.247 182.518 141.918 182.032 142.988 181.061C143.026 181.029 143.068 180.991 143.106 180.956C143.17 180.895 143.237 180.834 143.304 180.77C143.429 180.655 143.556 180.531 143.691 180.403C143.764 180.333 143.834 180.266 143.911 180.192C144.064 180.045 144.221 179.885 144.384 179.723C144.445 179.662 144.502 179.604 144.566 179.54C144.793 179.31 145.023 179.068 145.265 178.809C145.317 178.758 145.368 178.697 145.419 178.643C145.611 178.435 145.809 178.221 146.007 177.994C146.093 177.895 146.182 177.793 146.272 177.691C146.444 177.496 146.617 177.295 146.789 177.087C146.888 176.972 146.984 176.854 147.086 176.733C147.265 176.518 147.444 176.295 147.626 176.068C147.722 175.95 147.815 175.832 147.91 175.71C148.134 175.423 148.361 175.126 148.588 174.822C148.642 174.749 148.693 174.682 148.747 174.608C149.028 174.228 149.31 173.835 149.591 173.426C149.671 173.311 149.747 173.193 149.827 173.078C150.032 172.775 150.239 172.468 150.447 172.152C150.549 171.995 150.648 171.835 150.75 171.676C150.939 171.382 151.124 171.079 151.312 170.772C151.418 170.599 151.52 170.427 151.626 170.251C151.82 169.922 152.012 169.584 152.207 169.242C152.296 169.082 152.386 168.929 152.475 168.766C152.753 168.258 153.031 167.737 153.303 167.197C153.309 167.188 153.312 167.175 153.319 167.165C153.584 166.642 153.842 166.098 154.098 165.546C154.181 165.364 154.261 165.178 154.344 164.996C154.523 164.6 154.699 164.201 154.871 163.789C154.964 163.572 155.053 163.351 155.143 163.128C155.305 162.728 155.462 162.323 155.619 161.907C155.705 161.681 155.791 161.457 155.874 161.227C156.043 160.761 156.206 160.288 156.366 159.805C156.427 159.623 156.491 159.445 156.551 159.259C156.765 158.592 156.973 157.908 157.171 157.208C157.209 157.071 157.244 156.93 157.28 156.793C157.436 156.224 157.586 155.65 157.727 155.062C157.787 154.813 157.842 154.56 157.899 154.308C158.011 153.813 158.12 153.311 158.222 152.803C158.276 152.522 158.331 152.241 158.385 151.957C158.481 151.439 158.57 150.915 158.653 150.385C158.698 150.114 158.743 149.842 158.781 149.567C158.877 148.916 158.96 148.251 159.037 147.577C159.056 147.418 159.078 147.264 159.094 147.104C159.183 146.271 159.254 145.418 159.314 144.552C159.33 144.316 159.34 144.073 159.353 143.833C159.388 143.195 159.42 142.549 159.439 141.891C159.449 141.572 159.452 141.246 159.455 140.923C159.465 140.323 159.465 139.716 159.458 139.099C159.455 138.757 159.449 138.419 159.442 138.074C159.426 137.422 159.398 136.764 159.362 136.097C159.346 135.79 159.334 135.483 159.314 135.173C159.251 134.196 159.174 133.206 159.072 132.193C158.516 126.724 157.51 121.767 156.171 117.301C155.101 113.726 153.817 110.468 152.376 107.51C151.657 106.031 150.9 104.629 150.108 103.303C144.978 94.6716 138.525 89.1932 132.779 86.5099C131.894 86.0978 131.028 85.7496 130.185 85.4685C129.763 85.328 129.348 85.2034 128.939 85.0948C126.894 84.5518 125.023 84.408 123.441 84.6444C123.441 84.6444 119.139 80.8399 112.041 77.4985C111.779 77.3739 111.51 77.2526 111.239 77.128C110.252 76.6808 109.21 76.2463 108.127 75.8342C107.658 75.6554 107.179 75.4796 106.69 75.3103C105.534 74.9046 104.329 74.5277 103.08 74.1923C102.748 74.1028 102.413 74.0166 102.074 73.9336C101.106 73.694 100.113 73.48 99.1001 73.2979C98.6592 73.218 98.2119 73.1413 97.7615 73.0742C97.1099 72.9752 96.4519 72.889 95.7842 72.8155C94.6406 72.691 93.4715 72.6079 92.2832 72.5728C91.8967 72.56 91.5101 72.5536 91.1204 72.5536C87.9994 72.5408 84.738 72.8635 81.3743 73.6269C78.0106 74.3904 74.5414 75.5979 71.0084 77.358C70.4398 77.6423 69.8713 77.9394 69.3027 78.2428C69.1493 78.3227 68.9992 78.4058 68.849 78.4888C68.3539 78.7571 67.8588 79.035 67.3637 79.3193C67.2838 79.364 67.2039 79.4088 67.1241 79.4567C66.5619 79.7825 66.006 80.1211 65.447 80.4661C65.3033 80.5556 65.1627 80.645 65.0189 80.7345C64.5557 81.0252 64.0926 81.3222 63.6326 81.6288C63.5176 81.7055 63.4026 81.7791 63.2876 81.8557C62.735 82.2231 62.1888 82.6031 61.6425 82.9897C61.5179 83.0791 61.3933 83.1686 61.2687 83.258C60.8183 83.5807 60.3711 83.9129 59.9239 84.2483C59.7929 84.3473 59.6588 84.4464 59.5278 84.5486C58.9879 84.9607 58.4513 85.3823 57.9178 85.8103C57.8252 85.887 57.7326 85.9637 57.6367 86.0403C57.1831 86.4109 56.7327 86.7878 56.2823 87.1712C56.1449 87.2894 56.0076 87.4076 55.8702 87.5258C55.3431 87.9826 54.8193 88.4457 54.3018 88.9217C54.2603 88.96 54.2155 89.0016 54.174 89.0431C53.6948 89.4839 53.222 89.9343 52.7493 90.3943C52.6151 90.5253 52.4809 90.6563 52.3468 90.7872C51.874 91.2536 51.4013 91.7264 50.9381 92.2087C50.9029 92.2471 50.8646 92.2822 50.8294 92.3205C50.3343 92.838 49.8455 93.3651 49.36 93.9018C49.2354 94.0391 49.1108 94.1796 48.9863 94.317C48.5742 94.777 48.1685 95.2434 47.766 95.7194C47.6861 95.8152 47.6031 95.9046 47.5232 96.0005C47.0568 96.5563 46.5969 97.1185 46.1433 97.6903C46.0347 97.8277 45.9261 97.9682 45.8174 98.1056C45.4437 98.5816 45.0764 99.0639 44.7122 99.5527C44.6132 99.6836 44.5141 99.8146 44.4183 99.9488C43.9838 100.543 43.5558 101.143 43.1341 101.754C43.1085 101.792 43.0798 101.827 43.0574 101.862C43.0638 101.856 43.067 101.849 43.0734 101.846C29.6889 121.342 23.9837 149.449 38.6619 183.926L134.769 185.316C134.769 185.316 137.915 185.501 141.234 182.524" fill="#623A16"/>
<path d="M134.868 186.868C134.817 186.868 134.772 186.868 134.743 186.868L37.6396 185.466L37.2435 184.537C30.2638 168.14 27.4272 152.19 28.8103 137.128C30.021 123.936 34.3909 111.775 41.7956 100.984L41.853 100.901C42.2971 100.259 42.7379 99.6389 43.1819 99.0288L43.4854 98.6232C43.856 98.1249 44.2297 97.6329 44.6098 97.1473L44.6833 97.0547C44.7696 96.9429 44.8558 96.8343 44.9421 96.7225C45.4212 96.1187 45.894 95.5374 46.3476 94.9975L46.5967 94.7069C47.0056 94.2245 47.4209 93.7485 47.8393 93.2789L48.2195 92.8541C48.7658 92.2503 49.2577 91.7233 49.7177 91.2409L49.8231 91.1323C50.3023 90.6339 50.7814 90.1516 51.2638 89.6757L51.6758 89.2732C52.1582 88.8068 52.6405 88.3468 53.1293 87.8964L53.2635 87.7717C53.749 87.3245 54.2729 86.8614 54.8607 86.3503L55.2823 85.9893C55.7391 85.5964 56.2023 85.213 56.6655 84.8329L56.9498 84.5997C57.4928 84.1589 58.0423 83.7308 58.5917 83.3092L58.9942 83.0057C59.4542 82.6607 59.911 82.3221 60.371 81.9931L60.7512 81.7184C61.307 81.3223 61.8692 80.9358 62.4314 80.562L62.7827 80.3321C63.2555 80.019 63.7252 79.7155 64.1979 79.4184L64.6323 79.1469C65.2009 78.7955 65.7728 78.4505 66.3446 78.1183L66.5873 77.9777C67.092 77.6871 67.6 77.4028 68.1047 77.1281L68.5678 76.8757C69.1492 76.5658 69.7306 76.2623 70.312 75.9717C73.7907 74.2371 77.3972 72.9401 81.026 72.116C84.3322 71.3653 87.7374 70.982 91.1235 71.0043C91.526 71.0043 91.9285 71.0139 92.3278 71.0235C93.5161 71.0587 94.7364 71.1449 95.9502 71.2759C96.6274 71.3494 97.3142 71.4388 97.9946 71.5443C98.461 71.6145 98.921 71.6912 99.3778 71.7742C100.41 71.9627 101.445 72.1831 102.448 72.4291C102.796 72.5154 103.141 72.6048 103.483 72.6974C104.703 73.0264 105.955 73.413 107.201 73.8474C107.702 74.0231 108.194 74.202 108.68 74.3872C109.766 74.7993 110.839 75.2465 111.878 75.7161C112.155 75.8439 112.43 75.9685 112.702 76.0963C118.554 78.8498 122.534 81.8877 123.927 83.0249C125.572 82.8844 127.386 83.076 129.338 83.5935C129.779 83.7117 130.229 83.8459 130.677 83.996C131.584 84.2995 132.513 84.6732 133.437 85.1045C140.276 88.2989 146.671 94.48 151.447 102.511C152.268 103.894 153.053 105.347 153.775 106.833C155.299 109.96 156.605 113.333 157.66 116.857C159.078 121.591 160.075 126.702 160.618 132.04C160.713 132.982 160.793 133.976 160.864 135.078C160.876 135.295 160.886 135.509 160.896 135.723L160.908 136.023C160.944 136.7 160.972 137.378 160.988 138.042C160.998 138.393 161.001 138.742 161.007 139.09C161.014 139.719 161.014 140.339 161.007 140.955V141.137C161.001 141.409 160.998 141.681 160.988 141.949C160.969 142.62 160.937 143.281 160.902 143.933L160.889 144.207C160.883 144.361 160.873 144.517 160.864 144.67C160.803 145.568 160.726 146.447 160.64 147.28C160.63 147.383 160.618 147.482 160.605 147.581L160.583 147.766C160.5 148.497 160.413 149.165 160.321 149.804C160.292 150.008 160.257 150.21 160.225 150.411L160.186 150.644C160.1 151.187 160.008 151.727 159.912 152.257C159.857 152.548 159.803 152.839 159.746 153.123C159.64 153.647 159.528 154.161 159.413 154.669L159.369 154.867C159.324 155.062 159.282 155.254 159.235 155.445C159.091 156.046 158.934 156.64 158.774 157.221L158.733 157.381C158.711 157.47 158.688 157.557 158.663 157.643C158.468 158.343 158.251 159.048 158.027 159.748C157.989 159.869 157.947 159.988 157.906 160.103L157.835 160.307C157.669 160.799 157.503 161.288 157.331 161.767C157.26 161.965 157.187 162.157 157.113 162.351L157.069 162.467C156.909 162.891 156.746 163.31 156.58 163.719C156.487 163.949 156.395 164.175 156.299 164.399C156.12 164.821 155.941 165.233 155.756 165.642L155.673 165.83C155.615 165.958 155.561 166.086 155.5 166.21C155.222 166.811 154.96 167.357 154.698 167.875C154.424 168.418 154.146 168.945 153.83 169.52C153.766 169.635 153.705 169.747 153.641 169.855L153.555 170.008C153.357 170.36 153.159 170.708 152.957 171.047C152.852 171.229 152.743 171.404 152.635 171.58C152.443 171.896 152.248 172.206 152.057 172.513L152.031 172.551C151.935 172.705 151.839 172.855 151.74 173.005C151.53 173.331 151.316 173.647 151.105 173.96L150.862 174.318C150.571 174.739 150.281 175.145 149.993 175.535L149.827 175.752C149.591 176.068 149.357 176.375 149.127 176.672L148.837 177.039C148.648 177.276 148.46 177.506 148.278 177.729C148.176 177.851 148.073 177.972 147.974 178.093C147.789 178.311 147.613 178.518 147.438 178.72L147.163 179.033C146.955 179.266 146.754 179.489 146.553 179.703L146.396 179.876C146.147 180.144 145.904 180.393 145.671 180.633L145.479 180.825C145.313 180.991 145.147 181.157 144.987 181.313L144.77 181.524C144.623 181.668 144.486 181.793 144.358 181.914L140.212 185.725L140.362 185.124C137.762 186.744 135.507 186.872 134.861 186.872M39.7064 182.387L134.868 183.764C134.954 183.764 137.461 183.827 140.205 181.368L140.33 181.265C140.33 181.265 140.959 180.806 141.94 179.917L142.247 179.636C142.362 179.528 142.486 179.41 142.614 179.288L142.825 179.084C142.972 178.94 143.125 178.79 143.278 178.633L143.457 178.454C143.675 178.234 143.898 178.001 144.128 177.752L144.278 177.589C144.46 177.391 144.649 177.186 144.844 176.966L145.103 176.672C145.269 176.483 145.435 176.289 145.604 176.087L145.888 175.746C146.064 175.535 146.236 175.321 146.412 175.1L146.687 174.755C146.904 174.477 147.121 174.19 147.342 173.896L147.498 173.688C147.767 173.321 148.041 172.941 148.316 172.545L148.543 172.209C148.744 171.916 148.942 171.618 149.143 171.309C149.233 171.171 149.322 171.027 149.412 170.887L149.437 170.849C149.619 170.561 149.801 170.267 149.983 169.97C150.086 169.804 150.185 169.638 150.287 169.465C150.475 169.146 150.664 168.817 150.849 168.485L150.942 168.319C150.996 168.22 151.054 168.12 151.108 168.021C151.376 167.53 151.645 167.025 151.91 166.501C152.172 165.984 152.418 165.469 152.683 164.897C152.734 164.789 152.782 164.677 152.833 164.565L152.922 164.361C153.095 163.974 153.267 163.588 153.433 163.188C153.523 162.978 153.609 162.764 153.699 162.549C153.855 162.16 154.012 161.764 154.162 161.364L154.207 161.246C154.274 161.064 154.344 160.885 154.411 160.7C154.574 160.25 154.734 159.786 154.89 159.32L154.967 159.093C155.002 158.994 155.037 158.892 155.069 158.79C155.283 158.128 155.484 157.458 155.673 156.796L155.778 156.394C155.932 155.838 156.075 155.279 156.213 154.707C156.254 154.532 156.296 154.353 156.334 154.177L156.382 153.972C156.49 153.49 156.596 153.001 156.698 152.503C156.752 152.232 156.807 151.957 156.858 151.679C156.95 151.177 157.037 150.663 157.12 150.146L157.158 149.903C157.187 149.718 157.219 149.532 157.244 149.344C157.334 148.74 157.414 148.104 157.494 147.402L157.522 147.168C157.532 147.092 157.542 147.018 157.551 146.942C157.634 146.146 157.708 145.306 157.765 144.447C157.775 144.316 157.781 144.182 157.787 144.048L157.803 143.744C157.839 143.118 157.867 142.489 157.886 141.847C157.893 141.594 157.896 141.339 157.902 141.083V140.901C157.912 140.313 157.915 139.719 157.909 139.115C157.906 138.783 157.899 138.451 157.893 138.112C157.877 137.473 157.848 136.828 157.816 136.176L157.8 135.863C157.791 135.669 157.784 135.474 157.768 135.272C157.701 134.209 157.621 133.254 157.532 132.35C157.008 127.207 156.053 122.294 154.692 117.745C153.686 114.381 152.44 111.168 150.99 108.19C150.303 106.782 149.562 105.405 148.782 104.095C142.767 93.9753 135.768 89.615 132.13 87.9156C131.312 87.5322 130.494 87.2064 129.699 86.9381C129.313 86.8071 128.923 86.6921 128.546 86.593C126.744 86.1139 125.061 85.9701 123.678 86.1777L122.959 86.2864L122.416 85.8072C122.374 85.7721 118.171 82.0985 111.382 78.9041C111.127 78.7827 110.868 78.6645 110.603 78.5432C109.622 78.1023 108.606 77.6775 107.578 77.2878C107.121 77.1153 106.655 76.9428 106.182 76.7798C105.006 76.371 103.828 76.0068 102.678 75.697C102.355 75.6107 102.032 75.5277 101.703 75.4446C100.761 75.2114 99.7931 75.0038 98.822 74.8281C98.3939 74.7514 97.9627 74.6779 97.5282 74.6108C96.8926 74.515 96.2473 74.4287 95.618 74.3617C94.484 74.2403 93.3468 74.1604 92.2383 74.1253C91.8677 74.1157 91.4909 74.1094 91.1171 74.1062C91.066 74.1062 91.0149 74.1062 90.9669 74.1062C87.8588 74.1062 84.7475 74.4544 81.7192 75.1412C78.3299 75.911 74.9631 77.1248 71.7048 78.7476C71.1489 79.0255 70.593 79.3162 70.0404 79.6133L69.5964 79.8529C69.1109 80.118 68.6253 80.3863 68.143 80.6642L67.9098 80.7952C67.3603 81.1147 66.8141 81.4436 66.2679 81.7822L65.8526 82.0442C65.399 82.3285 64.9454 82.6224 64.495 82.9195L64.1564 83.1431C63.6165 83.504 63.0798 83.8746 62.5432 84.2547L62.179 84.5167C61.7382 84.8329 61.2973 85.1588 60.8597 85.4878L60.4732 85.7784C59.9429 86.1841 59.4191 86.5931 58.8952 87.0179L58.6204 87.2415C58.1764 87.6057 57.7324 87.9762 57.2948 88.35L56.8923 88.695C56.3237 89.1869 55.8221 89.6341 55.3558 90.0622L55.2344 90.1771C54.7616 90.6116 54.2952 91.0556 53.8352 91.5029L53.4391 91.8894C52.9759 92.3462 52.516 92.8093 52.0592 93.2821L51.9474 93.3939C51.5129 93.8475 51.0402 94.3555 50.5131 94.9368L50.149 95.3457C49.7465 95.7961 49.3471 96.2529 48.9542 96.7161L48.7178 96.9908C48.277 97.5147 47.833 98.0577 47.3666 98.6487L47.0503 99.0544C46.683 99.524 46.322 99.9967 45.9675 100.476L45.6768 100.866C45.2487 101.447 44.827 102.044 44.4181 102.635L44.3607 102.718L44.3 102.68L44.3575 102.725C29.1649 124.856 27.523 153.11 39.7 182.383" fill="#144B5F"/>
<path d="M151.862 153.021C149.221 147.152 143.368 151.312 143.368 151.312C143.752 139.959 141.059 129.232 138.714 123.597C131.878 107.191 115.833 98.4443 98.123 95.8983C79.4645 93.215 60.0202 98.1312 48.1466 112.758C40.1414 122.623 35.9759 152.551 35.9759 152.551C35.9759 152.551 30.0279 148.529 27.5235 154.458C25.0191 160.384 27.4724 168.197 31.9414 170.015C36.4136 171.836 39.9082 169.922 39.9082 169.922C39.9082 169.922 48.9931 185.932 62.0933 192.644C79.9021 201.764 104.732 200.85 121.506 190.51C129.061 185.853 134.83 179.026 138.714 171.238C139.126 170.414 139.839 168.766 139.839 168.766C139.839 168.766 143.378 170.596 147.805 168.673C152.233 166.75 154.504 158.886 151.862 153.017" fill="#FDCB9B"/>
<path d="M89.7499 200.477C79.547 200.477 69.5612 198.218 61.3868 194.03C49.9476 188.172 41.6422 175.733 39.2496 171.852C37.6172 172.356 34.7199 172.826 31.3562 171.459C29.1617 170.564 27.3185 168.533 26.1621 165.738C24.5873 161.927 24.5617 157.483 26.095 153.854C27.1939 151.254 28.8901 150.274 30.1231 149.909C31.8098 149.408 33.4964 149.75 34.7614 150.216C35.8858 143.105 39.9364 120.419 46.9449 111.781C58.2371 97.8694 77.4514 91.3592 98.3492 94.362C107.776 95.7164 116.417 98.7894 123.342 103.246C131.121 108.251 136.778 114.899 140.154 123.003C142.419 128.437 144.914 138.221 144.965 148.795C146.16 148.382 147.658 148.124 149.172 148.536C150.412 148.871 152.13 149.814 153.29 152.385C154.906 155.976 154.983 160.419 153.497 164.265C152.405 167.089 150.61 169.162 148.434 170.104C145.195 171.51 142.352 171.168 140.688 170.718C140.493 171.149 140.282 171.603 140.116 171.938C135.903 180.381 129.753 187.261 122.333 191.839C113.992 196.982 103.31 200.036 92.2542 200.435C91.4205 200.464 90.59 200.48 89.7595 200.48M40.5145 167.855L41.2684 169.159C41.3579 169.315 50.2862 184.85 62.8115 191.264C80.0676 200.103 104.415 199.231 120.7 189.191C127.626 184.92 133.379 178.474 137.334 170.548C137.723 169.769 138.417 168.169 138.423 168.153L139.084 166.626L140.563 167.389C140.675 167.443 143.55 168.836 147.195 167.252C148.578 166.651 149.817 165.153 150.594 163.141C151.769 160.1 151.715 156.467 150.453 153.66C149.916 152.471 149.236 151.778 148.367 151.538C146.837 151.117 144.892 152.152 144.272 152.586L141.723 154.369L141.822 151.261C142.196 140.221 139.611 129.781 137.286 124.198C129.153 104.673 109.124 99.0545 97.9083 97.4413C78.103 94.5951 59.9556 100.69 49.363 113.742C41.7252 123.156 37.5661 152.474 37.5246 152.768L37.1796 155.241L35.1128 153.842C34.4867 153.426 32.5157 152.436 31.0016 152.896C30.1391 153.155 29.4715 153.864 28.9636 155.065C27.7657 157.902 27.7945 161.534 29.0403 164.546C29.8644 166.539 31.1358 168.006 32.5349 168.577C36.2181 170.076 39.0579 168.619 39.1793 168.555L40.5113 167.852L40.5145 167.855Z" fill="#144B5F"/>
<path d="M34.6519 125.948C42.6411 100.431 59.2999 87.5706 77.1342 82.811C94.2115 78.2526 116.448 91.6051 118.307 92.7455C118.39 92.7966 118.476 92.819 118.575 92.8126C120.469 92.6912 140.779 92.0587 149.622 119.719C151.807 126.558 146.073 126.13 146.44 131.593C147.932 134.468 146.951 143.588 146.951 143.588C146.951 143.588 142.527 167.887 138.678 179.33C138.46 179.911 137.585 179.611 137.77 179.017C138.735 175.937 139.853 179.461 140.923 175.423C141.092 172.529 140.741 162.617 139.227 161.518C135.02 158.464 140.272 143.383 140.275 143.38C140.275 143.38 124.018 132.775 120.939 135.71L122.706 128.05C122.706 128.05 122.645 114.752 120.361 111.612C120.361 111.612 116.109 132.148 109.247 131.286C102.386 130.423 94.5948 128.96 94.5948 128.96C94.5948 128.96 93.8537 116.058 97.8212 111.976C97.8212 111.976 86.909 121.026 84.8135 129.293C84.8135 129.293 82.9096 112.838 85.1329 109.452C85.1329 109.452 77.6198 113.273 77.8594 120.62C78.0989 127.964 56.3419 130.59 52.4607 129.577C52.4607 129.577 51.0519 123.68 56.5782 115.365C56.5782 115.365 52.2722 115.154 46.4456 128.354C40.619 141.55 39.223 149.989 39.223 149.989C39.223 150.021 35.8274 158.199 35.4952 164.482C36.035 168.734 36.9902 173.113 38.5139 177.423L36.9838 177.848C36.9838 177.848 26.6595 151.459 34.6519 125.942" fill="#623A16"/>
<path d="M39.075 179.771C38.7428 179.771 38.3882 179.713 38.0176 179.579C36.1521 178.902 33.4337 176.362 31.3733 162.211C28.5367 142.738 30.5811 136.94 30.8207 136.343C31.1434 135.547 32.0505 135.164 32.8459 135.487C33.6349 135.806 34.0183 136.701 33.7116 137.493C33.6605 137.633 31.7566 143.265 34.4527 161.764C34.4655 161.86 34.4815 161.959 34.4943 162.055C35.2929 156.298 37.5385 149.44 40.6211 140.013C41.4229 137.566 42.2822 134.94 43.1862 132.113C48.6071 115.196 58.1009 112.73 58.5034 112.631C59.2604 112.449 60.0335 112.851 60.3178 113.576C60.6021 114.301 60.305 115.122 59.6278 115.502C54.702 118.256 53.8811 125.437 53.9737 128.663C56.5708 128.983 65.9367 127.763 71.4439 125.092C76.2642 122.757 76.3249 121.799 76.4879 119.237C76.5166 118.777 76.5517 118.253 76.6124 117.684C77.0884 113.282 83.5187 108.692 84.2534 108.184C84.806 107.801 85.544 107.814 86.0774 108.219C86.6141 108.625 86.8281 109.331 86.6109 109.967C85.4002 113.49 85.496 119.272 85.7995 123.556C89.4539 117.959 95.8076 111.771 96.7499 110.867C97.3441 110.296 98.2832 110.289 98.8869 110.848C99.4907 111.41 99.5514 112.346 99.0244 112.979C95.5169 117.208 95.814 125.047 96.044 127.785C98.1363 128.392 103.426 129.74 109.007 129.74C109.087 129.74 109.167 129.74 109.246 129.74C113.846 129.708 117.571 118.441 118.839 111.35C118.964 110.657 119.536 110.136 120.238 110.075C120.932 110.014 121.593 110.433 121.832 111.094C123.998 117.045 124.183 124.849 124.005 127.018C123.886 128.453 123.279 131.813 122.864 134.001C128.889 134.416 138.919 140.668 141.123 142.083C141.762 142.492 142.011 143.303 141.714 144.003C137.935 152.861 138.587 158.902 140.258 160.361C141.002 161.01 141.532 161.956 141.906 163.019C143.225 158.343 144.618 152.439 144.41 148.919C144.359 148.063 145.014 147.325 145.87 147.274C146.733 147.226 147.464 147.878 147.515 148.734C147.934 155.816 142.877 170.453 142.66 171.072C142.404 171.804 141.65 172.238 140.89 172.088C140.13 171.938 139.596 171.251 139.638 170.475C139.775 167.964 139.418 163.757 138.21 162.703C135.476 160.317 134.527 153.656 138.344 144.009C132.534 140.419 124.084 136.253 121.468 137.186C120.941 137.375 120.353 137.263 119.932 136.899C119.507 136.534 119.312 135.969 119.421 135.42C119.433 135.352 120.74 128.753 120.903 126.763C121.005 125.527 120.96 122.029 120.385 118.253C118.568 124.45 115.047 132.813 109.269 132.854C109.179 132.854 109.093 132.854 109.004 132.854C101.321 132.854 94.402 130.548 94.1081 130.446C93.5491 130.257 93.1466 129.769 93.0636 129.184C93.022 128.874 92.3864 124.073 93.2744 119.029C90.0193 122.728 86.7514 127.015 86.3585 129.545C86.2403 130.302 85.5886 130.861 84.822 130.861H84.8156C84.0457 130.858 83.3941 130.289 83.2855 129.529C83.2217 129.079 81.9854 120.393 82.7456 113.477C81.1931 114.991 79.8515 116.7 79.7109 118.023C79.6566 118.524 79.6279 118.991 79.5992 119.441C79.3788 122.843 78.9571 124.913 72.8079 127.897C66.7449 130.836 54.6797 132.797 51.9836 131.283C51.3735 130.941 50.9901 130.379 50.9295 129.74C50.9231 129.673 50.6004 125.958 51.6801 121.856C49.7507 124.431 47.7702 128.04 46.157 133.068C45.2498 135.902 44.3873 138.534 43.5855 140.987C39.8353 152.458 37.3565 160.036 37.2926 166.166C37.2255 173.053 40.8191 176.691 40.9725 176.845C41.2759 177.148 41.4485 177.563 41.4357 177.991C41.4229 178.419 41.2408 178.828 40.9182 179.116C40.5253 179.467 39.8672 179.783 39.0814 179.783" fill="#144B5F"/>
<path d="M118.266 139.655C116.921 138.981 115.733 138.425 114.557 138.042C113.392 137.662 112.286 137.47 111.184 137.496C110.082 137.512 108.954 137.722 107.757 138.099C106.549 138.457 105.313 138.988 103.875 139.473C104.441 138.064 105.412 136.895 106.658 135.985C107.897 135.081 109.485 134.48 111.146 134.467C112.807 134.432 114.446 135.017 115.695 135.959C116.321 136.432 116.864 136.991 117.305 137.607C117.739 138.23 118.097 138.904 118.266 139.655Z" fill="#144B5F"/>
<path d="M91.1044 167.178C91.0788 167.178 91.0533 167.178 91.0309 167.175C90.0279 167.092 87.6321 166.744 87.0954 165.345C86.9165 164.881 86.8718 164.15 87.6736 163.294C88.9737 161.911 87.7407 160.205 87.597 160.016C87.2999 159.627 87.3734 159.071 87.7599 158.771C88.1464 158.474 88.7022 158.541 89.0025 158.927C89.817 159.978 90.8616 162.495 88.9705 164.511C88.8715 164.616 88.8172 164.693 88.7917 164.741C89.076 165.006 90.178 165.319 91.1811 165.405C91.6698 165.447 92.034 165.878 91.9925 166.367C91.9541 166.83 91.5644 167.181 91.1076 167.181" fill="#144B5F"/>
<path d="M77.9804 140.071C76.6387 139.397 75.4472 138.841 74.2716 138.458C73.1057 138.077 72.0005 137.886 70.8952 137.911C69.7931 137.927 68.6655 138.138 67.4676 138.515C66.2569 138.873 65.0238 139.403 63.5864 139.889C64.1518 138.48 65.1261 137.311 66.3687 136.4C67.6081 135.496 69.1957 134.896 70.8568 134.883C72.5179 134.848 74.1598 135.433 75.4056 136.375C76.0317 136.848 76.5748 137.407 77.0156 138.023C77.4501 138.646 77.811 139.32 77.9772 140.071" fill="#144B5F"/>
<path d="M110.377 172.57C110.313 167.025 114.756 162.476 120.302 162.412C125.847 162.348 130.396 166.792 130.46 172.337C130.524 177.883 126.08 182.431 120.535 182.495C114.989 182.559 110.441 178.116 110.377 172.57Z" fill="#F7A199"/>
<path d="M50.0144 173.59C49.9505 168.044 54.394 163.495 59.9394 163.432C65.4849 163.368 70.0338 167.811 70.0976 173.357C70.1615 178.902 65.7181 183.451 60.1726 183.515C54.6271 183.579 50.0783 179.135 50.0144 173.59Z" fill="#F7A199"/>
<path d="M69.4929 145.15C72.4765 145.083 76.9071 147.271 78.2743 152.666C79.9386 159.231 76.856 165.693 69.8635 165.508C62.363 165.31 59.6062 159.726 60.3154 154.484C61.0725 148.868 64.2636 145.265 69.4929 145.147" fill="white"/>
<path d="M78.421 153.829C76.9292 148.536 72.0673 145.341 67.8124 146.507C66.0874 146.98 64.2442 148.219 63.1294 149.967C61.8836 151.918 61.7494 154.426 60.5803 156.371C60.395 156.678 59.9031 156.873 59.7178 156.445C58.5486 153.704 60.2289 150.072 61.7526 148.05C63.3402 145.945 65.7488 144.511 68.0296 144.134C70.3552 143.75 72.949 144.357 74.9711 145.926C77.402 147.814 78.1335 150.321 78.6126 153.733C78.6414 153.924 78.4849 154.046 78.421 153.825" fill="#144B5F"/>
<path d="M77.4019 155.535C77.3157 150.839 74.2331 147.085 70.5212 147.152C66.8061 147.22 63.8641 151.085 63.9503 155.781C64.0366 160.48 67.1191 164.23 70.8342 164.163C74.5493 164.096 77.4914 160.234 77.4051 155.535" fill="#144B5F"/>
<path d="M76.2499 155.672C76.2211 154.171 75.2372 152.97 74.0489 152.992C72.8606 153.014 71.9215 154.247 71.947 155.752C71.9758 157.253 72.9596 158.451 74.1479 158.429C75.3363 158.407 76.2754 157.174 76.2499 155.672Z" fill="white"/>
<path d="M106.322 145.15C103.339 145.083 98.908 147.271 97.5408 152.666C95.8765 159.231 98.9591 165.693 105.952 165.508C113.452 165.31 116.209 159.726 115.5 154.484C114.743 148.868 111.551 145.265 106.322 145.146" fill="white"/>
<path d="M97.4015 153.829C98.8933 148.536 103.755 145.341 108.01 146.507C109.735 146.98 111.578 148.219 112.693 149.967C113.939 151.918 114.073 154.426 115.242 156.371C115.427 156.678 115.919 156.873 116.105 156.445C117.274 153.704 115.594 150.072 114.07 148.05C112.482 145.945 110.074 144.511 107.796 144.134C105.471 143.75 102.877 144.357 100.855 145.926C98.4237 147.814 97.6922 150.321 97.213 153.733C97.1843 153.924 97.3408 154.046 97.4047 153.825" fill="#144B5F"/>
<path d="M97.5246 155.535C97.6108 150.839 100.69 147.085 104.405 147.152C108.12 147.22 111.062 151.085 110.976 155.781C110.89 160.48 107.811 164.23 104.095 164.163C100.38 164.096 97.4383 160.234 97.5246 155.535Z" fill="#144B5F"/>
<path d="M98.6775 155.672C98.7063 154.171 99.6901 152.969 100.878 152.992C102.067 153.014 103.006 154.247 102.98 155.752C102.952 157.253 101.968 158.451 100.779 158.429C99.5911 158.406 98.652 157.173 98.6775 155.672Z" fill="white"/>
<path d="M91.5696 184.179C84.8997 184.179 80.5522 180.429 80.4883 180.371C79.8462 179.802 79.7855 178.819 80.3541 178.177C80.9227 177.534 81.9034 177.474 82.5455 178.039C82.8841 178.333 90.6018 184.859 101.258 177.905C101.977 177.435 102.942 177.637 103.411 178.359C103.881 179.077 103.68 180.042 102.961 180.512C98.7506 183.259 94.8758 184.179 91.5696 184.179Z" fill="#144B5F"/>
</g>
</g>
</g>
</svg>
