<svg width="285" height="285" viewBox="0 0 285 285" fill="none" xmlns="http://www.w3.org/2000/svg">
<mask id="mask0_195_8376" style="mask-type:luminance" maskUnits="userSpaceOnUse" x="0" y="0" width="285" height="285">
<path d="M284.621 0H0V284.621H284.621V0Z" fill="white"/>
</mask>
<g mask="url(#mask0_195_8376)">
<mask id="mask1_195_8376" style="mask-type:luminance" maskUnits="userSpaceOnUse" x="-1" y="0" width="286" height="285">
<path d="M284.619 0H-0.00231934V284.621H284.619V0Z" fill="white"/>
</mask>
<g mask="url(#mask1_195_8376)">
<mask id="mask2_195_8376" style="mask-type:luminance" maskUnits="userSpaceOnUse" x="-1" y="0" width="286" height="285">
<path d="M284.617 0H-0.00402832V284.621H284.617V0Z" fill="white"/>
</mask>
<g mask="url(#mask2_195_8376)">
<path d="M87.3078 164.073C87.321 164.537 87.3843 164.993 87.487 165.446C87.7005 166.353 88.101 167.241 88.6887 168.09C88.831 168.293 88.9759 168.485 89.1262 168.664C89.1789 168.725 89.2289 168.775 89.2816 168.83C89.3818 168.946 89.4846 169.062 89.5901 169.17C89.6533 169.231 89.7192 169.286 89.7824 169.347C89.8826 169.436 89.98 169.526 90.0775 169.608C90.1513 169.668 90.2225 169.718 90.291 169.771C90.3911 169.847 90.4939 169.921 90.5915 169.984C90.6679 170.037 90.7469 170.085 90.8233 170.129C90.9261 170.19 91.0289 170.251 91.1317 170.301C91.2133 170.343 91.2898 170.382 91.3715 170.422C91.4796 170.475 91.585 170.519 91.6931 170.564C91.7801 170.599 91.8617 170.633 91.9461 170.664C92.0541 170.704 92.1701 170.741 92.2808 170.772C92.3651 170.799 92.4521 170.828 92.539 170.849C92.655 170.878 92.7761 170.904 92.8947 170.931C92.9817 170.946 93.0661 170.965 93.1531 170.981C93.2822 171.002 93.4114 171.02 93.5431 171.036C93.6248 171.044 93.7012 171.057 93.7829 171.065C93.9383 171.078 94.0886 171.086 94.2415 171.094C94.3047 171.094 94.3706 171.102 94.4339 171.102C94.6579 171.11 94.8792 171.11 95.1033 171.102C95.1454 171.102 95.1928 171.097 95.2376 171.094C95.4221 171.086 95.6066 171.076 95.7963 171.06C95.8833 171.054 95.9676 171.041 96.0546 171.033C96.2048 171.02 96.355 171.004 96.5052 170.981C96.6027 170.967 96.7029 170.954 96.8004 170.939C96.9454 170.917 97.0876 170.896 97.23 170.875C97.338 170.854 97.446 170.833 97.5488 170.815C97.6384 170.796 97.7281 170.786 97.8203 170.762C102.306 169.861 107.598 167.423 112.942 166.237C119.836 164.708 128.499 165.984 133.079 166.885C134.096 167.088 135.825 173.882 135.324 177.875C142.938 177.556 171.316 176.394 172.755 176.381C173.213 171.144 176.202 161.817 177.501 160.4C180.655 156.96 186.886 150.807 193.34 147.955C198.344 145.742 204.058 144.569 208.206 142.637V142.642C208.29 142.603 208.369 142.566 208.451 142.526C208.551 142.479 208.649 142.432 208.743 142.384C208.878 142.316 209.002 142.25 209.131 142.181C209.22 142.134 209.31 142.086 209.397 142.039C209.531 141.965 209.658 141.889 209.787 141.815C209.863 141.767 209.937 141.728 210.011 141.681C210.174 141.58 210.33 141.478 210.483 141.375C210.517 141.354 210.557 141.327 210.593 141.306C210.778 141.177 210.96 141.045 211.134 140.906C211.186 140.866 211.231 140.824 211.279 140.784C211.4 140.687 211.518 140.587 211.634 140.489C211.695 140.434 211.75 140.379 211.811 140.321C211.906 140.226 212.001 140.136 212.096 140.041C212.156 139.981 212.212 139.912 212.267 139.849C212.349 139.759 212.43 139.67 212.507 139.575C212.562 139.506 212.617 139.433 212.67 139.361C212.744 139.266 212.812 139.172 212.876 139.074C212.928 139 212.973 138.924 213.021 138.847C213.081 138.75 213.142 138.65 213.197 138.547C213.239 138.465 213.279 138.389 213.321 138.307C213.374 138.199 213.421 138.094 213.466 137.98C213.5 137.899 213.535 137.812 213.566 137.727C213.608 137.617 213.643 137.496 213.682 137.38C213.708 137.293 213.735 137.208 213.759 137.119C213.788 136.995 213.814 136.866 213.84 136.731C213.856 136.644 213.88 136.563 213.893 136.473C213.914 136.328 213.927 136.173 213.946 136.017C213.951 135.941 213.961 135.867 213.967 135.79C213.98 135.553 213.988 135.319 213.98 135.068C213.951 134.035 213.748 133.087 213.384 132.227C213.2 131.798 212.976 131.395 212.72 131.013C212.33 130.446 211.853 129.932 211.3 129.476C210.746 129.02 210.119 128.63 209.421 128.303C208.952 128.085 208.456 127.895 207.932 127.737C206.353 127.265 204.514 127.067 202.476 127.183C200.777 127.281 198.945 127.6 197.003 128.158C196.618 128.274 196.223 128.396 195.827 128.525C195.432 128.656 195.034 128.799 194.628 128.949C194.62 128.954 194.61 128.957 194.602 128.962C193.803 129.257 192.989 129.597 192.164 129.979C191.748 130.172 191.331 130.375 190.907 130.586C190.066 131.015 189.207 131.484 188.346 131.993C177.048 138.684 160.698 151.7 154.088 152.198C147.242 152.712 140.74 153.255 136.094 154.069C136.073 154.997 129.867 152.839 129.616 152.717C127.521 151.719 120.593 149.115 107.526 150.417C106.525 150.514 105.56 150.643 104.63 150.799C104.161 150.881 103.702 150.968 103.257 151.057C102.369 151.236 101.51 151.447 100.69 151.679C100.682 151.679 100.672 151.684 100.664 151.684C100.248 151.806 99.8442 151.924 99.4437 152.053C99.0483 152.182 98.6637 152.32 98.2815 152.457C96.3893 153.155 94.7237 153.99 93.298 154.913C91.585 156.025 90.2199 157.274 89.229 158.592C88.8969 159.029 88.6097 159.477 88.3619 159.928C87.993 160.605 87.7189 161.296 87.5424 161.989C87.3658 162.679 87.284 163.38 87.3104 164.065" fill="#FDCC9C"/>
<path d="M135.328 178.528C135.149 178.528 134.977 178.452 134.854 178.32C134.724 178.181 134.664 177.991 134.687 177.804C135.157 174.085 133.589 168.214 132.877 167.513C128.344 166.625 119.824 165.383 113.085 166.877C110.439 167.465 107.796 168.366 105.242 169.236C102.662 170.116 100.227 170.947 97.9502 171.405C97.9002 171.418 97.829 171.431 97.7579 171.442L97.6762 171.458C97.5628 171.476 97.4627 171.497 97.3626 171.518L96.8988 171.59C96.8092 171.605 96.7011 171.619 96.5931 171.634C96.4402 171.655 96.2769 171.674 96.1135 171.687L96.0502 171.695C95.979 171.703 95.9053 171.711 95.8341 171.716C95.6707 171.732 95.4836 171.74 95.2965 171.75C95.249 171.756 95.1778 171.761 95.1119 171.761C94.8985 171.771 94.656 171.769 94.4162 171.761C94.3951 171.761 94.3477 171.761 94.3002 171.756C94.2712 171.756 94.2423 171.756 94.2107 171.75C94.042 171.74 93.8918 171.732 93.7336 171.719C93.6704 171.713 93.6256 171.706 93.5808 171.7L93.4781 171.687C93.3226 171.669 93.1855 171.65 93.0484 171.626L92.7691 171.571C92.632 171.542 92.5029 171.513 92.379 171.481C92.3158 171.466 92.2446 171.445 92.1761 171.421L92.0998 171.397C91.9891 171.368 91.8546 171.323 91.7307 171.279C91.6569 171.252 91.5805 171.223 91.5041 171.192L91.4566 171.173C91.3354 171.126 91.2169 171.073 91.0957 171.015C91.0087 170.975 90.9243 170.931 90.8347 170.886C90.7293 170.833 90.6133 170.765 90.5 170.699C90.4052 170.641 90.3208 170.588 90.2365 170.533C90.1284 170.462 90.0073 170.377 89.8939 170.288L89.857 170.261C89.7938 170.217 89.7305 170.166 89.6672 170.116C89.5592 170.027 89.4512 169.929 89.3458 169.832L89.1481 169.653C89.0137 169.518 88.8977 169.389 88.787 169.26L88.7554 169.228C88.7132 169.186 88.6737 169.141 88.6342 169.094C88.476 168.904 88.318 168.696 88.1598 168.469C87.53 167.56 87.0925 166.596 86.858 165.602C86.7394 165.072 86.6735 164.585 86.6603 164.102C86.634 163.367 86.7182 162.606 86.9106 161.844C87.1004 161.103 87.3955 160.36 87.7882 159.635C88.0597 159.145 88.3681 158.671 88.708 158.22C89.7648 156.816 91.1906 155.527 92.9405 154.388C94.4426 153.416 96.1634 152.567 98.0504 151.869C98.443 151.727 98.8357 151.587 99.2363 151.458C99.6448 151.326 100.053 151.205 100.478 151.084C100.499 151.078 100.52 151.073 100.541 151.068C101.387 150.831 102.254 150.62 103.121 150.443C103.574 150.351 104.038 150.264 104.512 150.182C105.482 150.022 106.47 149.89 107.459 149.792C120.517 148.493 127.495 151.01 129.888 152.154C130.632 152.47 134.595 153.716 135.589 153.679C135.684 153.564 135.821 153.479 135.976 153.453C140.767 152.612 147.524 152.064 154.034 151.574C158.3 151.252 167.155 145.259 175.72 139.462C179.929 136.613 184.28 133.669 188.012 131.458C188.837 130.97 189.712 130.488 190.61 130.03C191.048 129.813 191.469 129.611 191.888 129.413C192.705 129.036 193.53 128.691 194.347 128.385C194.366 128.377 194.387 128.367 194.397 128.364C194.806 128.211 195.212 128.066 195.615 127.932C196.021 127.8 196.421 127.679 196.811 127.56C198.761 126.999 200.651 126.664 202.433 126.559C204.517 126.44 206.425 126.635 208.109 127.139C208.665 127.307 209.198 127.51 209.688 127.739C210.431 128.085 211.111 128.509 211.704 128.997C212.302 129.489 212.821 130.051 213.246 130.665C213.533 131.092 213.775 131.534 213.973 131.99C214.371 132.929 214.59 133.962 214.621 135.068C214.632 135.35 214.621 135.619 214.608 135.843C214.605 135.896 214.6 135.946 214.595 135.996C214.592 136.02 214.59 136.046 214.587 136.073C214.587 136.083 214.587 136.096 214.584 136.109L214.571 136.244C214.561 136.36 214.547 136.476 214.532 136.586C214.521 136.66 214.505 136.734 214.489 136.808L214.474 136.879C214.447 137.016 214.418 137.153 214.387 137.287L214.26 137.706C214.231 137.799 214.202 137.891 214.168 137.978C214.142 138.057 214.102 138.155 214.062 138.249C214.01 138.371 213.96 138.487 213.904 138.602L213.767 138.866C213.704 138.985 213.638 139.093 213.572 139.201C213.517 139.29 213.462 139.38 213.401 139.467C213.343 139.559 213.264 139.667 213.18 139.775C213.138 139.839 213.072 139.923 213.006 140.002C212.921 140.105 212.832 140.205 212.745 140.302L212.718 140.334C212.666 140.397 212.608 140.46 212.55 140.518L212.073 140.982C211.936 141.101 211.812 141.204 211.688 141.304L211.651 141.335C211.609 141.372 211.567 141.407 211.519 141.441C211.345 141.575 211.156 141.718 210.963 141.852C210.945 141.865 210.924 141.878 210.905 141.889L210.858 141.918C210.858 141.918 210.826 141.939 210.824 141.939C210.666 142.044 210.507 142.15 210.344 142.247C210.31 142.271 210.257 142.3 210.204 142.332L209.959 142.474C209.875 142.521 209.791 142.571 209.706 142.619C209.617 142.666 209.524 142.716 209.43 142.766C209.306 142.832 209.179 142.898 209.045 142.967C208.934 143.022 208.831 143.072 208.728 143.12L208.657 143.154C208.597 143.183 208.536 143.212 208.47 143.241C208.452 143.249 208.433 143.257 208.412 143.265C206.325 144.229 203.898 144.996 201.328 145.805C198.751 146.619 196.084 147.46 193.601 148.556C187.242 151.363 181.083 157.461 177.976 160.848C176.832 162.094 173.849 171.289 173.396 176.449C173.367 176.779 173.093 177.034 172.761 177.037C171.369 177.05 143.592 178.186 135.352 178.528C135.344 178.528 135.333 178.528 135.325 178.528M120.285 164.896C125.269 164.896 130.152 165.665 133.206 166.266C134.901 166.603 136.221 173.453 136.029 177.213C143.092 176.921 167.877 175.904 172.173 175.764C172.787 170.417 175.652 161.475 177.03 159.975C180.203 156.518 186.51 150.28 193.082 147.378C195.631 146.25 198.329 145.399 200.941 144.574C203.497 143.768 205.909 143.006 207.935 142.065C207.956 142.055 207.98 142.047 208.004 142.039C208.035 142.023 208.067 142.007 208.099 141.994L208.175 141.957C208.27 141.913 208.365 141.868 208.457 141.82C208.583 141.754 208.702 141.694 208.829 141.625C208.921 141.578 209.005 141.533 209.087 141.488C209.166 141.446 209.24 141.401 209.313 141.359L209.559 141.217C209.593 141.196 209.627 141.177 209.661 141.156C209.827 141.056 209.967 140.964 210.107 140.869C210.112 140.866 210.138 140.848 210.144 140.845C210.186 140.819 210.22 140.798 210.249 140.779C210.415 140.661 210.578 140.542 210.739 140.416C210.773 140.389 210.795 140.371 210.816 140.352L210.871 140.305C210.99 140.207 211.106 140.113 211.219 140.015L211.641 139.604C211.675 139.57 211.706 139.53 211.738 139.493L211.78 139.443C211.865 139.351 211.938 139.267 212.01 139.182C212.054 139.127 212.102 139.066 212.144 139.006C212.223 138.903 212.281 138.821 212.336 138.74C212.394 138.655 212.434 138.592 212.473 138.529C212.529 138.439 212.581 138.352 212.631 138.257L212.753 138.023C212.79 137.946 212.832 137.849 212.874 137.746C212.903 137.677 212.932 137.604 212.958 137.533C212.99 137.448 213.011 137.382 213.032 137.316L213.14 136.958C213.161 136.871 213.185 136.752 213.209 136.629L213.23 136.528C213.238 136.486 213.248 136.447 213.253 136.402C213.267 136.307 213.277 136.21 213.288 136.112L213.301 135.983C213.304 135.938 213.309 135.893 213.314 135.849C213.317 135.825 213.319 135.798 213.322 135.775C213.333 135.569 213.343 135.345 213.335 135.111C213.306 134.162 213.124 133.284 212.79 132.499C212.626 132.119 212.421 131.748 212.183 131.392C211.83 130.881 211.393 130.409 210.887 129.993C210.376 129.574 209.791 129.207 209.145 128.907C208.707 128.704 208.236 128.525 207.74 128.372C206.204 127.913 204.443 127.734 202.509 127.845C200.825 127.942 199.03 128.261 197.178 128.796C196.803 128.91 196.413 129.028 196.023 129.155C195.649 129.281 195.264 129.418 194.874 129.561C194.856 129.568 194.835 129.579 194.824 129.584C194.031 129.879 193.227 130.214 192.431 130.583C192.02 130.773 191.609 130.973 191.19 131.181C190.323 131.624 189.472 132.09 188.671 132.565C184.973 134.755 180.638 137.691 176.445 140.529C167.34 146.69 158.741 152.512 154.134 152.86C147.785 153.337 141.202 153.872 136.485 154.676C136.44 154.718 136.39 154.757 136.332 154.792C135.135 155.524 129.385 153.342 129.332 153.318C127.543 152.465 120.68 149.777 107.588 151.078C106.629 151.173 105.667 151.3 104.731 151.455C104.275 151.534 103.822 151.619 103.379 151.708C102.533 151.88 101.687 152.085 100.86 152.32C100.841 152.325 100.82 152.33 100.802 152.333C100.404 152.449 100.019 152.562 99.6369 152.686C99.2495 152.813 98.87 152.947 98.4932 153.084C96.6985 153.748 95.0645 154.552 93.6414 155.474C92.018 156.528 90.703 157.714 89.7358 159C89.4327 159.401 89.156 159.825 88.9188 160.26C88.5788 160.887 88.3206 161.53 88.1598 162.168C87.9964 162.811 87.9253 163.449 87.9464 164.063V164.068C87.9569 164.469 88.0123 164.877 88.1098 165.317C88.3074 166.148 88.679 166.964 89.214 167.737C89.3484 167.929 89.4854 168.108 89.6171 168.266C89.6382 168.29 89.6647 168.319 89.691 168.345L89.7516 168.411C89.8544 168.533 89.9467 168.635 90.0415 168.73L90.2181 168.891C90.3024 168.967 90.3946 169.052 90.4842 169.125C90.529 169.162 90.5764 169.197 90.6212 169.228L90.6766 169.268C90.7714 169.342 90.8585 169.405 90.9428 169.458C91.0192 169.508 91.0877 169.55 91.1589 169.595C91.2406 169.642 91.3302 169.695 91.4224 169.742C91.5041 169.784 91.5752 169.821 91.649 169.855C91.7465 169.903 91.8415 169.945 91.9364 169.982L91.989 170.003C92.047 170.027 92.1051 170.051 92.1657 170.072C92.2605 170.106 92.3606 170.14 92.4555 170.164L92.5661 170.198C92.6109 170.211 92.6531 170.227 92.6979 170.238C92.8138 170.267 92.9246 170.29 93.0353 170.314L93.283 170.364C93.3858 170.38 93.5043 170.396 93.6308 170.414C93.6651 170.417 93.7099 170.425 93.7547 170.43L93.8576 170.443C93.9867 170.454 94.129 170.462 94.274 170.47C94.2951 170.472 94.3425 170.47 94.3899 170.475C94.4084 170.475 94.4267 170.477 94.4425 170.477C94.6745 170.485 94.8801 170.485 95.0883 170.477C95.1357 170.477 95.1567 170.475 95.1778 170.472C95.191 170.472 95.2016 170.472 95.2148 170.47C95.4045 170.462 95.5731 170.454 95.7444 170.438C95.8156 170.433 95.8578 170.427 95.9026 170.422L95.9974 170.412C96.145 170.398 96.2821 170.383 96.4218 170.364C96.5193 170.351 96.6088 170.34 96.6984 170.325L97.1412 170.259C97.2256 170.24 97.3415 170.219 97.4496 170.201L97.5365 170.185C97.5813 170.177 97.6287 170.169 97.6762 170.159C99.8925 169.713 102.291 168.896 104.829 168.029C107.417 167.146 110.091 166.234 112.808 165.631C115.175 165.107 117.745 164.906 120.288 164.906" fill="#144B5F"/>
<path d="M150.175 210.166C147.392 209.781 143.133 207.966 138.292 207.684C126.781 207.014 112.112 208.071 107.176 207.581C107.057 206.874 106.557 193.497 106.818 191.724C110.913 191.724 118.766 192.751 127.063 191.51C135.359 190.269 144.095 186.759 150.188 186.071L150.177 210.166H150.175Z" fill="#FFF7CD"/>
<path d="M150.62 210.675L150.116 210.606C149.041 210.459 147.786 210.111 146.337 209.71C143.947 209.049 141.24 208.301 138.267 208.127C131.911 207.758 124.455 207.918 118.465 208.048C113.582 208.153 109.363 208.243 107.133 208.024L106.796 207.99L106.74 207.655C106.638 207.049 106.097 193.592 106.379 191.658L106.435 191.279H106.819C107.913 191.279 109.257 191.352 110.815 191.434C115.087 191.663 120.937 191.977 126.999 191.07C131.184 190.443 135.419 189.255 139.517 188.103C143.42 187.007 147.104 185.971 150.14 185.628L150.633 185.573L150.622 210.675H150.62ZM129.03 207.012C132.19 207.012 135.369 207.07 138.318 207.241C141.385 207.42 144.26 208.216 146.574 208.854C147.765 209.183 148.822 209.476 149.734 209.645L149.742 186.574C146.872 186.959 143.409 187.932 139.754 188.959C135.629 190.116 131.365 191.316 127.128 191.951C120.979 192.87 115.074 192.554 110.765 192.325C109.41 192.254 108.216 192.188 107.22 192.175C107.062 194.755 107.452 205.122 107.584 207.175C109.845 207.349 113.848 207.262 118.444 207.165C121.68 207.096 125.341 207.017 129.03 207.017" fill="#144B5F"/>
<path d="M98.5016 191.761C97.3104 194.209 96.2747 205.262 97.5081 207.623C98.7414 209.985 106.695 208.227 109.014 207.734C109.135 206.696 109.027 193.69 108.935 191.75C107.046 191.655 99.6902 189.315 98.499 191.761" fill="#FFF7CD"/>
<path d="M101.198 209.262C99.2343 209.262 97.669 208.891 97.1156 207.829C95.7926 205.299 96.902 194.032 98.1011 191.568C99.15 189.413 103.583 190.298 106.822 190.944C107.739 191.128 108.529 191.286 108.959 191.308L109.362 191.329L109.381 191.732C109.47 193.653 109.584 206.696 109.457 207.787L109.42 208.103L108.946 208.206C106.495 208.73 103.559 209.265 101.2 209.265M101.366 191.091C100.17 191.091 99.2159 191.313 98.9023 191.958C97.7137 194.401 96.8045 205.317 97.9035 207.42C98.3778 208.329 100.623 209.057 108.595 207.373C108.672 205.283 108.595 194.902 108.511 192.156C108.034 192.093 107.401 191.966 106.65 191.816C105.132 191.513 103.019 191.091 101.366 191.091Z" fill="#144B5F"/>
<path d="M115.122 214.86L116.472 215.068C116.282 212.746 116.145 209.618 116.772 207.251L116.174 206.738C114.956 210.061 115.114 214.14 115.122 214.862" fill="#EE9CB0"/>
<path d="M116.96 215.592L114.684 215.242L114.676 214.701C114.615 211.436 114.979 208.706 115.759 206.584L115.98 205.984L117.274 207.096L117.203 207.365C116.576 209.723 116.739 212.87 116.916 215.033L116.96 215.592ZM115.561 214.48L115.985 214.546C115.867 212.92 115.788 210.888 116.001 209.012C115.68 210.59 115.532 212.419 115.558 214.483" fill="#144B5F"/>
<path d="M117.354 213.186L118.382 211.536C117.9 210.846 117.167 208.817 117.033 207.246L116.361 207.265C116.303 209.03 116.666 211.695 117.354 213.186Z" fill="#EE9CB0"/>
<path d="M117.295 214.12L116.95 213.374C116.201 211.753 115.856 209.01 115.914 207.252L115.927 206.833L117.435 206.791L117.472 207.207C117.606 208.754 118.325 210.683 118.744 211.281L118.913 211.521L117.295 214.117V214.12ZM116.839 208.751C116.923 209.906 117.132 211.181 117.451 212.193L117.859 211.537C117.503 210.907 117.1 209.827 116.842 208.751" fill="#144B5F"/>
<path d="M104.018 191.257L105.189 191.136C106.348 194.356 111.092 204.943 113.643 207.765C113.632 207.879 113.553 208.06 113.466 208.063C113.074 208.079 112.481 207.979 112.272 207.976C109.6 204.416 104.633 193.463 104.016 191.26" fill="#EE9CB0"/>
<path d="M113.381 208.506C113.122 208.506 112.827 208.474 112.585 208.445C112.45 208.43 112.337 208.416 112.268 208.416H112.05L111.918 208.24C109.222 204.648 104.217 193.616 103.59 191.379L103.448 190.873L105.488 190.659L105.606 190.986C106.855 194.451 111.544 204.782 113.973 207.468L114.103 207.613L114.084 207.805C114.06 208.069 113.876 208.49 113.483 208.506C113.449 208.506 113.412 208.506 113.375 208.506M112.506 207.547C112.558 207.552 112.616 207.557 112.677 207.565C112.753 207.573 112.835 207.584 112.917 207.591C110.281 204.218 106.11 194.86 104.887 191.613L104.602 191.642C105.64 194.604 109.999 204.092 112.506 207.547Z" fill="#144B5F"/>
<path d="M104.171 208.308L105.343 208.348C106.445 205.046 110.996 194.133 113.495 191.131C113.481 191.02 113.4 190.844 113.313 190.846C112.92 190.86 112.327 191.002 112.122 191.018C109.515 194.765 104.748 206.061 104.171 208.308Z" fill="#EE9CB0"/>
<path d="M105.661 208.804L103.606 208.735L103.743 208.2C104.328 205.92 109.129 194.549 111.759 190.767L111.878 190.596L112.086 190.58C112.155 190.575 112.268 190.551 112.405 190.527C112.679 190.477 113.022 190.414 113.301 190.406C113.712 190.382 113.907 190.817 113.936 191.086L113.957 191.273L113.836 191.418C111.454 194.275 106.95 204.937 105.764 208.49L105.659 208.804H105.661ZM104.762 207.886L105.031 207.894C106.183 204.59 110.181 194.939 112.758 191.363C112.692 191.373 112.626 191.386 112.563 191.397C112.497 191.407 112.434 191.421 112.379 191.429C109.941 195.047 105.759 204.824 104.762 207.881" fill="#144B5F"/>
<path d="M97.0631 209.858C93.3788 208.601 92.106 206.585 90.1743 203.185C89.6235 202.218 89.6578 196.597 90.0531 195.711C91.0941 193.374 93.5528 189.821 97.0895 188.872C99.7117 188.169 104.482 190.643 108.229 191.415C108.3 191.431 108.538 191.521 108.653 191.663C106.456 191.945 101.161 190.957 99.9331 191.84C96.5677 194.267 96.992 205.589 99.9331 207.502C101.061 208.237 107.41 207.85 108.59 207.873C108.435 207.929 108.124 208.216 107.773 208.321C105.541 208.993 99.0212 210.522 97.0658 209.853" fill="#EE9CB0"/>
<path d="M98.431 210.462C97.817 210.462 97.2952 210.406 96.9184 210.277C93.105 208.978 91.7873 206.922 89.7844 203.404C89.1282 202.252 89.2309 196.457 89.6447 195.529C90.8965 192.717 93.4792 189.381 96.9711 188.443C98.7922 187.955 101.38 188.822 104.118 189.742C105.539 190.219 107.007 190.712 108.316 190.981C108.435 191.007 108.788 191.126 108.996 191.387L109.489 192.003L108.706 192.103C107.787 192.222 106.416 192.132 104.962 192.038C103.106 191.916 100.795 191.763 100.189 192.201C98.779 193.218 97.9224 196.288 98.012 200.025C98.0937 203.436 98.9818 206.358 100.17 207.133C100.943 207.634 105.336 207.512 107.212 207.46C107.837 207.441 108.332 207.431 108.593 207.433L111.044 207.481L108.73 208.295C108.701 208.311 108.648 208.348 108.59 208.387C108.414 208.506 108.174 208.664 107.895 208.751C106.092 209.294 101.261 210.462 98.4284 210.462M98.1332 189.194C97.7933 189.194 97.4796 189.228 97.2003 189.302C94.0062 190.161 91.5712 193.39 90.4538 195.893C90.0928 196.702 90.0875 202.142 90.5539 202.966C92.5041 206.395 93.6848 208.24 97.203 209.439C98.6287 209.924 102.988 209.094 105.858 208.382C103.046 208.44 100.481 208.398 99.6855 207.879C97.904 206.719 97.1924 202.935 97.1239 200.049C97.0474 196.85 97.6773 192.92 99.6697 191.484C100.537 190.86 102.713 191.002 105.019 191.155C105.246 191.171 105.473 191.184 105.697 191.199C105.078 191.004 104.45 190.796 103.834 190.588C101.786 189.9 99.6829 189.197 98.1307 189.197" fill="#144B5F"/>
<path d="M118.151 208.735L117.263 208.619C116.936 204.184 116.87 195.714 117.271 190.793L118.135 190.685C117.745 195.453 117.835 204.421 118.154 208.735" fill="#EE9CB0"/>
<path d="M118.635 209.247L116.848 209.012L116.821 208.651C116.497 204.226 116.418 195.79 116.829 190.757L116.858 190.398L118.621 190.177L118.577 190.722C118.194 195.382 118.273 204.368 118.595 208.704L118.635 209.247Z" fill="#144B5F"/>
<path d="M140.826 225.702L140.67 224.344C142.8 224.55 145.672 224.711 147.862 224.097L148.318 224.7C145.235 225.899 141.49 225.715 140.826 225.699" fill="#EE9CB0"/>
<path d="M141.83 226.147C141.545 226.147 141.261 226.142 140.968 226.134L140.444 226.123L140.183 223.868L140.713 223.918C142.692 224.11 145.572 224.294 147.749 223.683L148.031 223.604L149.006 224.895L148.476 225.101C146.692 225.794 144.46 226.147 141.833 226.147M141.213 225.283C143.227 225.325 145.006 225.164 146.524 224.808C144.718 225.056 142.731 224.961 141.161 224.824L141.213 225.285V225.283Z" fill="#144B5F"/>
<path d="M142.42 223.475L143.962 222.455C144.583 222.945 146.431 223.693 147.87 223.841L147.836 224.516C146.212 224.56 143.772 224.178 142.417 223.475" fill="#EE9CB0"/>
<path d="M147.576 224.948C145.952 224.948 143.623 224.582 142.223 223.857L141.575 223.52L143.984 221.928L144.226 222.12C144.761 222.539 146.506 223.272 147.913 223.417L148.319 223.459L148.245 224.938L147.847 224.948C147.758 224.948 147.665 224.951 147.573 224.951M143.317 223.398C144.289 223.746 145.547 223.973 146.653 224.057C145.618 223.796 144.571 223.367 143.955 222.977L143.317 223.398Z" fill="#144B5F"/>
<path d="M162.479 228.809C160.32 228.068 154.014 227.283 152.259 227.067C149.863 227.844 145.636 228.556 142.461 229.684C140.249 230.469 140.94 231.918 141.831 233.17C145.267 238.009 154.085 250.229 157.469 249.589C161.944 248.74 161.193 243.888 162.065 236.623C162.247 235.107 162.384 229.815 162.481 228.809" fill="#FFF7CD"/>
<path d="M157.207 250.042C154.532 250.042 149.509 244.729 141.479 233.418C140.931 232.646 140.338 231.639 140.631 230.714C140.828 230.089 141.395 229.605 142.317 229.278C144.154 228.624 146.357 228.105 148.302 227.649C149.749 227.309 151.117 226.985 152.129 226.658L152.218 226.629L152.313 226.64C155.984 227.09 160.754 227.76 162.623 228.403L162.944 228.513L162.913 228.851C162.876 229.243 162.831 230.337 162.778 231.602C162.699 233.547 162.607 235.753 162.496 236.675C162.317 238.159 162.206 239.569 162.106 240.815C161.716 245.728 161.432 249.278 157.555 250.013C157.447 250.034 157.334 250.045 157.215 250.045M152.305 227.507C151.275 227.834 149.926 228.152 148.502 228.487C146.581 228.94 144.402 229.452 142.61 230.089C141.956 230.321 141.566 230.619 141.456 230.975C141.274 231.547 141.785 232.361 142.186 232.922C152.081 246.856 155.916 249.441 157.394 249.17C160.628 248.558 160.862 245.617 161.25 240.747C161.35 239.492 161.463 238.072 161.643 236.572C161.748 235.684 161.843 233.399 161.919 231.565C161.961 230.556 161.998 229.655 162.03 229.114C160.459 228.653 157.041 228.087 152.303 227.504" fill="#144B5F"/>
<path d="M148.152 228.097C147.764 228.219 147.145 228.292 147.148 228.424C147.177 229.868 147.49 235.302 152.142 240.204C154.337 242.518 161.276 243.741 161.682 240.821C162.08 240.892 162.088 241.39 162.104 241.559C162.467 245.493 159.555 250.171 158.005 250.809C157.025 251.21 153.027 251.344 151.733 250.651C148.747 249.051 146.816 245.443 144.518 240.457C142.449 235.967 139.611 233.16 140.08 230.875C140.48 228.922 143.577 228.501 146.571 227.855C147.309 227.697 148.02 227.892 148.149 228.097" fill="#EE9CB0"/>
<path d="M155.023 251.563C153.663 251.563 152.253 251.413 151.533 251.028C148.326 249.309 146.284 245.304 144.131 240.634C143.364 238.971 142.486 237.535 141.714 236.27C140.386 234.095 139.334 232.38 139.664 230.785C140.08 228.761 142.734 228.211 145.543 227.631C145.854 227.568 146.17 227.502 146.484 227.433C147.232 227.27 148.229 227.407 148.516 227.865L148.814 228.337L148.281 228.506C148.139 228.551 147.97 228.59 147.807 228.627C147.741 228.643 147.659 228.661 147.586 228.68C147.67 230.788 148.35 235.579 152.456 239.909C153.968 241.503 158.048 242.568 160.114 241.904C160.81 241.68 161.184 241.308 161.261 240.763L161.321 240.32L161.761 240.399C162.222 240.484 162.481 240.85 162.531 241.488C162.918 245.686 159.882 250.503 158.172 251.207C157.655 251.418 156.367 251.565 155.025 251.565M146.748 228.261C146.721 228.266 146.695 228.271 146.666 228.276C146.35 228.345 146.033 228.411 145.72 228.474C143.195 228.996 140.81 229.491 140.507 230.962C140.249 232.224 141.219 233.813 142.449 235.824C143.235 237.11 144.128 238.568 144.916 240.278C147.001 244.806 148.972 248.68 151.942 250.274C153.115 250.901 156.991 250.764 157.848 250.414C159.081 249.908 161.909 245.683 161.701 241.867C161.437 242.204 161.023 242.515 160.378 242.721C157.98 243.491 153.586 242.349 151.834 240.499C147.34 235.761 146.761 230.482 146.721 228.432C146.721 228.366 146.729 228.311 146.745 228.258" fill="#144B5F"/>
<path d="M147.663 229.043C147.858 229.937 162.513 229.974 162.503 229.07C162.394 221.222 169.001 189.252 169.644 177.883L142.052 194.465C143.981 203.011 146.305 222.848 147.663 229.043Z" fill="#FFF7CD"/>
<path d="M155.357 230.161C154.574 230.161 153.775 230.15 152.987 230.129C147.427 229.979 147.321 229.491 147.242 229.136C146.628 226.337 145.811 220.708 144.944 214.749C143.887 207.483 142.691 199.248 141.632 194.559L141.563 194.256L170.117 177.097L170.073 177.909C169.759 183.436 168.041 193.824 166.381 203.873C164.578 214.768 162.875 225.056 162.931 229.067C162.939 229.607 162.28 229.784 161.065 229.926C159.739 230.079 157.61 230.163 155.357 230.163M148.054 228.825C149.409 229.418 160.538 229.457 162.072 228.885C162.072 224.671 163.753 214.496 165.532 203.733C167.11 194.185 168.742 184.329 169.161 178.676L142.536 194.675C143.585 199.44 144.757 207.499 145.793 214.628C146.644 220.478 147.448 226.01 148.051 228.822" fill="#144B5F"/>
<path d="M148.381 235.45L147.68 234.664C149.807 234.085 159.845 230.126 162.596 227.504C162.699 227.517 162.857 227.602 162.854 227.689C162.833 228.084 162.688 228.677 162.667 228.885C159.157 231.476 150.463 234.888 148.383 235.452" fill="#EE9CB0"/>
<path d="M148.233 235.935L146.895 234.433L147.564 234.251C149.548 233.71 159.61 229.755 162.296 227.193L162.443 227.053L162.646 227.08C162.92 227.114 163.3 227.335 163.279 227.712C163.266 227.989 163.2 228.329 163.147 228.603C163.121 228.74 163.097 228.856 163.089 228.927L163.07 229.117L162.918 229.23C159.378 231.845 150.7 235.265 148.492 235.866L148.236 235.935H148.233ZM148.441 234.878L148.518 234.962C150.95 234.23 158.901 231.049 162.264 228.64C162.275 228.579 162.288 228.511 162.301 228.44C162.309 228.392 162.319 228.342 162.33 228.289C159.204 230.735 151.28 233.937 148.441 234.875" fill="#144B5F"/>
<path d="M162.357 233.64C159.814 232.169 152.042 228.646 147.154 227.101L147.025 226.094C151.27 227.056 159.021 230.662 162.481 232.659C162.513 232.883 162.426 233.268 162.452 233.529C162.452 233.529 162.407 233.616 162.36 233.637" fill="#EE9CB0"/>
<path d="M162.332 234.119L162.142 234.011C159.544 232.509 151.738 229.002 147.023 227.51L146.762 227.428L146.517 225.541L147.116 225.678C151.327 226.632 159.027 230.174 162.693 232.29L162.875 232.396L162.904 232.604C162.928 232.767 162.909 232.949 162.893 233.126C162.88 233.26 162.867 233.4 162.875 233.49L162.888 233.616L162.83 233.729C162.778 233.829 162.683 233.967 162.53 234.035L162.33 234.122L162.332 234.119ZM147.545 226.775C152.178 228.271 159.088 231.368 162.048 232.973C162.048 232.952 162.05 232.931 162.053 232.907C158.603 230.949 151.638 227.744 147.529 226.659L147.545 226.772V226.775Z" fill="#144B5F"/>
<path d="M146.515 222.74L146.599 223.633C150.665 223.991 158.45 224.118 162.981 223.749L163.102 222.882C158.709 223.24 150.468 223.087 146.512 222.74" fill="#EE9CB0"/>
<path d="M156.077 224.403C152.548 224.403 148.925 224.268 146.558 224.06L146.202 224.028L146.036 222.265L146.55 222.31C150.524 222.661 158.778 222.803 163.066 222.453L163.601 222.408L163.359 224.144L163.016 224.173C161.082 224.332 158.604 224.4 156.08 224.4M146.993 223.233C150.841 223.544 157.669 223.657 162.081 223.38C157.764 223.628 150.828 223.504 146.99 223.206V223.233H146.993Z" fill="#144B5F"/>
<path d="M145.354 163.275C152.472 162.721 166.195 161.543 170.569 161.322C170.912 163.855 172.525 166.949 173.199 167.47C172.907 177.171 171.067 194.059 164.629 204.403C160.405 203.899 150.952 208.862 147.014 210.469C146.371 210.73 138.779 208.15 138.291 207.686C137.392 206.832 132.678 196.296 127.059 191.513C128.888 189.131 134.125 185.301 134.538 183.702C135.203 181.127 134.96 176.099 135.716 168.593C135.769 168.071 136.338 170.214 138.001 170.38C141.13 170.693 144.208 167.465 145.354 163.278" fill="#EE9CB0"/>
<path d="M146.935 210.896C145.346 210.896 138.455 208.43 137.996 207.992C137.714 207.723 137.269 206.933 136.373 205.315C134.425 201.799 130.799 195.255 126.783 191.835L126.472 191.571L126.719 191.247C127.536 190.182 128.994 188.857 130.404 187.573C132.053 186.074 133.922 184.371 134.122 183.591C134.467 182.255 134.56 180.231 134.689 177.43C134.799 175.032 134.937 172.046 135.29 168.548C135.324 168.203 135.553 168.114 135.651 168.093C135.985 168.014 136.157 168.288 136.323 168.551C136.61 169.01 137.14 169.861 138.044 169.951C140.837 170.235 143.805 167.313 144.94 163.162L145.019 162.869L145.32 162.845C147.489 162.677 150.269 162.45 153.21 162.21C159.907 161.665 167.497 161.046 170.546 160.893L170.938 160.872L170.991 161.262C171.331 163.773 172.918 166.709 173.458 167.128L173.632 167.262L173.624 167.481C173.453 173.218 172.319 192.849 164.988 204.627L164.843 204.859L164.571 204.827C161.377 204.448 154.768 207.452 150.393 209.439C149.123 210.016 148.026 210.514 147.17 210.865C147.115 210.889 147.033 210.899 146.927 210.899M127.647 191.458C131.653 195.039 135.192 201.427 137.116 204.901C137.767 206.074 138.381 207.183 138.579 207.373C139.143 207.802 145.984 210.114 146.875 210.058C147.71 209.716 148.791 209.226 150.037 208.659C154.641 206.566 160.906 203.718 164.395 203.952C171.41 192.462 172.567 173.532 172.757 167.652C171.953 166.804 170.614 164.074 170.198 161.773C166.943 161.955 159.696 162.545 153.273 163.07C150.462 163.299 147.8 163.515 145.676 163.681C144.368 168.074 141.087 171.123 137.949 170.807C137.053 170.717 136.441 170.172 136.036 169.663C135.756 172.702 135.638 175.324 135.537 177.472C135.406 180.323 135.311 182.387 134.944 183.807C134.678 184.835 132.963 186.398 130.973 188.208C129.732 189.339 128.451 190.504 127.644 191.458" fill="#144B5F"/>
<path d="M170.198 164.919C170.54 164.919 170.827 164.656 170.849 164.311C171.099 160.476 169.225 152.354 168.145 150.659C167.955 150.351 167.552 150.267 167.246 150.456C166.94 150.651 166.853 151.055 167.046 151.358C167.997 152.857 169.773 160.75 169.544 164.226C169.523 164.585 169.795 164.896 170.153 164.919H170.198Z" fill="#EE9CB0"/>
<path d="M170.197 165.349H170.153C169.533 165.309 169.08 164.793 169.117 164.2C169.336 160.869 167.588 153.013 166.684 151.587C166.365 151.084 166.513 150.414 167.016 150.093C167.272 149.935 167.565 149.887 167.849 149.953C168.129 150.019 168.363 150.188 168.513 150.43C169.641 152.204 171.539 160.35 171.278 164.334C171.244 164.901 170.769 165.346 170.197 165.346M167.599 150.783C167.557 150.783 167.512 150.796 167.472 150.82C167.372 150.883 167.343 151.023 167.409 151.126C168.411 152.704 170.213 160.634 169.973 164.253C169.965 164.374 170.06 164.482 170.181 164.49H170.197C170.316 164.49 170.413 164.398 170.421 164.282C170.664 160.595 168.811 152.502 167.786 150.889C167.746 150.823 167.691 150.799 167.654 150.791C167.636 150.786 167.62 150.786 167.601 150.786" fill="#144B5F"/>
<path d="M145.75 166.696C146.082 166.696 146.367 166.445 146.399 166.111C146.791 162.284 145.218 154.101 144.206 152.37C144.016 152.056 143.623 151.953 143.31 152.138C143.001 152.32 142.893 152.718 143.078 153.029C143.974 154.56 145.46 162.508 145.102 165.974C145.065 166.332 145.323 166.654 145.684 166.691C145.705 166.691 145.729 166.691 145.75 166.691" fill="#EE9CB0"/>
<path d="M145.749 167.125C145.718 167.125 145.683 167.125 145.649 167.122C145.046 167.059 144.613 166.527 144.674 165.934C145.017 162.611 143.557 154.702 142.705 153.247C142.405 152.733 142.579 152.069 143.09 151.769C143.609 151.463 144.258 151.632 144.571 152.148C145.639 153.972 147.23 162.181 146.825 166.155C146.772 166.709 146.308 167.125 145.749 167.125ZM143.641 152.478C143.601 152.478 143.562 152.488 143.525 152.509C143.42 152.573 143.383 152.71 143.446 152.815C144.389 154.425 145.9 162.413 145.528 166.021C145.515 166.145 145.604 166.255 145.728 166.269H145.749C145.865 166.269 145.96 166.184 145.971 166.071C146.347 162.395 144.8 154.238 143.836 152.588C143.794 152.517 143.72 152.478 143.644 152.478" fill="#144B5F"/>
<g opacity="0.4">
<mask id="mask3_195_8376" style="mask-type:luminance" maskUnits="userSpaceOnUse" x="159" y="190" width="24" height="15">
<path d="M182.004 190.003H159.382V204.39H182.004V190.003Z" fill="white"/>
</mask>
<g mask="url(#mask3_195_8376)">
<path d="M159.382 197.575C165.531 191.316 170.859 188.754 176.678 190.578C172.391 195.469 185.952 195.013 180.834 203.278C174.836 206.548 163.797 201.976 159.382 197.575Z" fill="#EE9CB0"/>
</g>
</g>
<g opacity="0.55">
<mask id="mask4_195_8376" style="mask-type:luminance" maskUnits="userSpaceOnUse" x="149" y="197" width="22" height="29">
<path d="M170.816 197.042H149.367V225.789H170.816V197.042Z" fill="white"/>
</mask>
<g mask="url(#mask4_195_8376)">
<path d="M164.661 200.368C163.175 199.622 158.07 197.385 157.306 197.042C156.95 207.36 148.454 219.583 149.45 220.753C157.72 230.459 167.199 222.827 170.612 224.577C171.455 220.869 169.776 210.638 164.664 200.368" fill="#EE9CB0"/>
</g>
</g>
<g opacity="0.55">
<mask id="mask5_195_8376" style="mask-type:luminance" maskUnits="userSpaceOnUse" x="135" y="195" width="26" height="31">
<path d="M160.687 195.812H135.722V225.674H160.687V195.812Z" fill="white"/>
</mask>
<g mask="url(#mask5_195_8376)">
<path d="M154.547 195.813C146.432 204.71 134.46 216.775 135.83 217.75C141.299 221.647 145.536 221.668 149.65 220.417C155.127 218.751 159.343 219.887 160.186 225.672C161.03 221.964 161.673 204.747 154.547 195.81" fill="#EE9CB0"/>
</g>
</g>
<g opacity="0.55">
<mask id="mask6_195_8376" style="mask-type:luminance" maskUnits="userSpaceOnUse" x="121" y="191" width="30" height="30">
<path d="M150.052 191.439H121.564V220.919H150.052V191.439Z" fill="white"/>
</mask>
<g mask="url(#mask6_195_8376)">
<path d="M145.23 191.439C134.665 198.571 125.568 203.805 121.562 206.095C124.424 204.846 126.948 204.74 128.88 206.751C130.385 208.316 130.757 211.371 131.695 213.498C132.997 216.452 139.203 220.671 143.111 220.921C148.15 215.139 154.702 201.122 145.23 191.442" fill="#EE9CB0"/>
</g>
</g>
<g opacity="0.55">
<mask id="mask7_195_8376" style="mask-type:luminance" maskUnits="userSpaceOnUse" x="110" y="168" width="25" height="19">
<path d="M134.619 168.44H110.489V186.071H134.619V168.44Z" fill="white"/>
</mask>
<g mask="url(#mask7_195_8376)">
<path d="M134.621 183.118C123.613 171.683 119.309 170.049 114.292 168.438C107.558 178.097 118.598 181.998 110.491 183.484C117.807 185.79 129.023 188.075 134.621 183.118Z" fill="#EE9CB0"/>
</g>
</g>
<g opacity="0.55">
<mask id="mask8_195_8376" style="mask-type:luminance" maskUnits="userSpaceOnUse" x="110" y="180" width="27" height="19">
<path d="M136.129 180.782H110.489V198.932H136.129V180.782Z" fill="white"/>
</mask>
<g mask="url(#mask8_195_8376)">
<path d="M136.129 184.419C122.67 177.855 115.499 181.855 110.489 183.484C110.937 192.773 121.748 192.984 116.039 198.93C123.321 196.521 134.49 191.714 136.126 184.419" fill="#EE9CB0"/>
</g>
</g>
<g opacity="0.4">
<mask id="mask9_195_8376" style="mask-type:luminance" maskUnits="userSpaceOnUse" x="114" y="188" width="27" height="25">
<path d="M140.943 188.243H114.043V212.388H140.943V188.243Z" fill="white"/>
</mask>
<g mask="url(#mask9_195_8376)">
<path d="M140.701 188.533C124.665 187.37 118.711 189.908 114.113 192.475C113.172 197.448 121.987 208.873 130.599 212.388C137.278 208.617 142.095 199.92 140.704 188.533" fill="#EE9CB0"/>
</g>
</g>
<g opacity="0.4">
<mask id="mask10_195_8376" style="mask-type:luminance" maskUnits="userSpaceOnUse" x="162" y="199" width="24" height="22">
<path d="M185.55 199.003H162.261V220.479H185.55V199.003Z" fill="white"/>
</mask>
<g mask="url(#mask10_195_8376)">
<path d="M179.262 217.912C178.237 217.891 176.851 218.745 175.752 220.02C174.12 213.511 167.369 202.023 162.261 199.127C163.073 198.898 164.744 199.064 165.16 199.043C170.352 198.792 181.257 199.715 184.659 201.781C182.187 205.394 189.877 213.951 181.592 220.481C181.494 219.322 180.543 217.938 179.265 217.915" fill="#EE9CB0"/>
</g>
</g>
<g opacity="0.55">
<mask id="mask11_195_8376" style="mask-type:luminance" maskUnits="userSpaceOnUse" x="162" y="199" width="20" height="26">
<path d="M181.751 199.999H162.653V224.576H181.751V199.999Z" fill="white"/>
</mask>
<g mask="url(#mask11_195_8376)">
<path d="M162.653 199.999C165.652 201.379 166.319 224.518 167.995 224.384C169.144 224.291 170.222 224.297 170.609 224.579C173.671 222.349 177.047 217.99 179.437 217.951C180.281 217.938 181.361 219.031 181.746 220.526C181.981 216.731 172.029 203.414 162.653 200.001" fill="#EE9CB0"/>
</g>
</g>
<g opacity="0.4">
<mask id="mask12_195_8376" style="mask-type:luminance" maskUnits="userSpaceOnUse" x="115" y="168" width="66" height="51">
<path d="M180.83 168.551H115.288V218.422H180.83V168.551Z" fill="white"/>
</mask>
<g mask="url(#mask12_195_8376)">
<path d="M180.809 207.483C181.225 213.023 174.719 209.307 174.308 210.922C170.634 217.874 164.633 219.508 160.559 217.787C160.453 216.438 159.792 214.983 157.193 213.913C154.218 212.69 150.067 216.446 147.661 216.124C143.363 215.55 137.802 212.559 133.865 209.114C130.718 206.36 126.098 204.292 124.681 199.735C123.347 195.452 121.046 192.857 118.82 190.54C115.304 186.882 120.522 180.199 115.325 175.118C114.745 171.065 121.418 169.399 125.429 168.551C129.751 171.455 133.575 179.443 134.764 182.341C138.985 192.659 159.426 199.69 166.046 201.369C170.307 201.398 178.171 205.517 180.814 207.483" fill="#EE9CB0"/>
</g>
</g>
<path d="M155.47 252.113C153.965 252.113 152.394 251.932 151.525 251.465C148.059 249.607 145.932 245.459 143.708 240.631C142.965 239.018 142.103 237.608 141.341 236.364C139.903 234.011 138.767 232.153 139.17 230.192C139.618 228.008 141.816 227.193 144.254 226.627C142.936 226.727 141.871 226.698 141.373 226.682H141.236C140.546 226.664 139.971 226.142 139.892 225.457L139.737 224.099C139.689 223.686 139.831 223.272 140.124 222.974C140.416 222.676 140.828 222.526 141.241 222.568C141.344 222.579 141.452 222.589 141.563 222.6C141.663 222.326 141.847 222.086 142.098 221.923L143.639 220.903C144.135 220.576 144.786 220.602 145.255 220.969C145.289 220.998 145.345 221.032 145.413 221.071C145.105 219.032 144.781 216.799 144.441 214.464C144.259 213.21 144.074 211.935 143.885 210.659C142.461 210.216 139.636 209.302 138.348 208.643C132.455 208.319 125.64 208.437 119.953 208.559C119.905 208.854 119.76 209.128 119.539 209.336C119.526 209.349 119.513 209.36 119.499 209.37C119.676 209.834 119.845 210.187 119.953 210.343C120.269 210.796 120.285 211.394 119.992 211.863L118.964 213.513C118.796 213.785 118.543 213.982 118.253 214.085C118.266 214.248 118.277 214.404 118.29 214.551C118.324 214.973 118.163 215.387 117.855 215.674C117.547 215.961 117.12 216.093 116.703 216.027L115.354 215.819C114.687 215.716 114.192 215.144 114.184 214.47V214.32C114.144 212.325 114.266 210.506 114.54 208.891C114.368 208.972 114.176 209.022 113.962 209.033C113.612 209.049 113.227 209.004 112.919 208.97C112.821 208.959 112.737 208.949 112.679 208.946C112.394 208.943 112.126 208.851 111.904 208.688C111.103 208.688 110.399 208.682 109.78 208.669C109.767 208.672 109.754 208.675 109.743 208.677L109.669 208.693C109.651 208.703 109.633 208.711 109.612 208.722C109.593 208.735 109.575 208.748 109.553 208.761C109.343 208.904 109.021 209.117 108.607 209.244C108.52 209.27 99.9238 211.739 97.0565 210.762C92.9322 209.354 91.4642 207.072 89.4112 203.467C88.5969 202.036 88.6944 195.954 89.2294 194.749C90.5682 191.74 93.3591 188.161 97.1672 187.138C99.2597 186.574 101.979 187.489 104.857 188.453C106.251 188.92 107.693 189.405 108.945 189.663C109 189.673 109.377 189.76 109.754 190.019C110.228 190.042 110.726 190.069 111.248 190.095C111.309 190.003 111.369 189.913 111.43 189.829C111.667 189.492 112.041 189.276 112.452 189.241C112.495 189.236 112.579 189.218 112.676 189.202C112.982 189.146 113.362 189.075 113.712 189.065C113.725 189.065 113.739 189.065 113.752 189.065C114.537 189.065 115.069 189.644 115.251 190.28C115.62 190.293 115.981 190.303 116.334 190.311C116.334 190.301 116.334 190.29 116.337 190.28C116.39 189.629 116.893 189.104 117.541 189.023L118.406 188.914C118.819 188.862 119.233 188.999 119.534 189.286C119.818 189.557 119.971 189.937 119.958 190.327C122.406 190.28 124.654 190.111 126.776 189.818C127.661 188.785 128.955 187.61 130.21 186.469C131.49 185.304 133.425 183.541 133.654 182.932C133.968 181.712 134.063 179.622 134.186 176.976C134.231 175.975 134.281 174.886 134.35 173.706C134.031 170.854 133.285 168.511 132.885 167.776C128.344 166.906 120.156 165.763 113.694 167.196C111.087 167.773 108.465 168.669 105.93 169.534C103.334 170.419 100.883 171.255 98.5666 171.724C98.4902 171.742 98.4111 171.756 98.3347 171.769L98.2636 171.782L98.2293 171.787C98.1424 171.803 98.05 171.821 97.9578 171.84C97.9367 171.845 97.9157 171.848 97.8946 171.85L97.4782 171.914C97.3649 171.932 97.2541 171.948 97.1408 171.964C96.9827 171.987 96.8061 172.006 96.6296 172.022L96.5901 172.027C96.511 172.037 96.4345 172.045 96.3555 172.048C96.1657 172.064 95.9787 172.074 95.7942 172.082C95.7309 172.088 95.665 172.093 95.6018 172.093C95.3567 172.101 95.109 172.101 94.8612 172.093C94.8085 172.093 94.7585 172.09 94.7058 172.085C94.6794 172.085 94.6504 172.085 94.6241 172.082C94.4501 172.072 94.2921 172.064 94.1287 172.051C94.0417 172.043 93.9916 172.035 93.9389 172.027L93.8571 172.016C93.6779 171.993 93.5303 171.974 93.3854 171.951C93.3722 171.951 93.3591 171.945 93.3459 171.943L93.0824 171.89C92.9269 171.858 92.7872 171.827 92.6528 171.792C92.5843 171.777 92.4999 171.75 92.413 171.724L92.3471 171.703C92.2338 171.674 92.0809 171.624 91.9412 171.571C91.8622 171.545 91.7778 171.51 91.6935 171.476L91.6409 171.455C91.5065 171.402 91.3694 171.342 91.2323 171.276C91.1427 171.234 91.0505 171.186 90.9504 171.136C90.845 171.084 90.7184 171.012 90.5946 170.939C90.5867 170.933 90.5709 170.923 90.5603 170.917C90.4628 170.857 90.3732 170.804 90.2863 170.743C90.165 170.664 90.0306 170.567 89.9015 170.467L89.8724 170.446C89.8013 170.393 89.7302 170.34 89.6564 170.28C89.5378 170.182 89.4219 170.077 89.3085 169.971L89.1029 169.784C89.1029 169.784 89.0819 169.763 89.0687 169.753C88.9422 169.626 88.8236 169.494 88.705 169.357L88.6761 169.328C88.6286 169.278 88.5812 169.226 88.5338 169.17C88.3519 168.951 88.1806 168.727 88.012 168.488C87.3268 167.499 86.8524 166.453 86.5967 165.367C86.465 164.788 86.3964 164.253 86.3805 163.72C86.3515 162.914 86.4438 162.084 86.6546 161.256C86.8576 160.452 87.1765 159.654 87.6008 158.876C87.8933 158.349 88.2201 157.846 88.5785 157.369C89.688 155.896 91.1744 154.549 92.9981 153.363C94.5503 152.359 96.3186 151.487 98.2556 150.77C98.6614 150.625 99.0621 150.483 99.4706 150.348C99.887 150.214 100.303 150.09 100.736 149.966C100.767 149.956 100.799 149.948 100.83 149.942C101.684 149.703 102.559 149.492 103.434 149.313C103.895 149.22 104.364 149.131 104.847 149.049C105.838 148.886 106.842 148.751 107.846 148.654C121.038 147.339 128.162 149.892 130.637 151.068C131.377 151.366 134.621 152.404 135.797 152.52C135.949 152.422 136.121 152.351 136.308 152.32C138.387 151.879 176.816 137.095 188.093 130.417C188.931 129.919 189.819 129.431 190.731 128.968C191.182 128.744 191.609 128.538 192.036 128.34C192.86 127.958 193.699 127.608 194.526 127.299C194.552 127.289 194.576 127.276 194.597 127.27C195.014 127.115 195.427 126.967 195.836 126.83C196.255 126.693 196.658 126.569 197.056 126.451C199.07 125.871 201.012 125.526 202.846 125.42C205.015 125.296 207.01 125.502 208.776 126.029C209.371 126.211 209.935 126.424 210.454 126.669C211.253 127.041 211.985 127.5 212.626 128.024C213.277 128.559 213.843 129.17 214.307 129.842C214.626 130.317 214.892 130.802 215.103 131.297C215.541 132.322 215.778 133.448 215.812 134.644C215.823 134.95 215.812 135.24 215.799 135.48C215.796 135.545 215.788 135.609 215.783 135.675L215.778 135.714C215.778 135.74 215.775 135.761 215.772 135.788L215.759 135.922C215.746 136.046 215.733 136.17 215.717 136.289C215.704 136.376 215.685 136.465 215.667 136.555L215.654 136.613C215.625 136.763 215.593 136.913 215.559 137.058C215.554 137.077 215.551 137.092 215.546 137.111C215.519 137.208 215.49 137.301 215.464 137.39C215.459 137.403 215.456 137.419 215.451 137.432L215.419 137.532C215.388 137.627 215.359 137.725 215.322 137.817C215.285 137.922 215.243 138.028 215.201 138.125C215.143 138.265 215.085 138.392 215.024 138.521C215.019 138.534 215.011 138.547 215.003 138.56L214.879 138.8C214.803 138.942 214.731 139.061 214.658 139.18C214.6 139.277 214.539 139.372 214.476 139.462C214.399 139.578 214.32 139.688 214.236 139.796C214.173 139.886 214.104 139.975 214.036 140.06C213.938 140.178 213.843 140.284 213.746 140.392L213.735 140.405C213.669 140.484 213.601 140.561 213.53 140.632L213.248 140.911C213.248 140.911 213.221 140.935 213.208 140.948L213.032 141.117C213.018 141.13 213.003 141.143 212.99 141.154C212.868 141.256 212.742 141.362 212.615 141.464L212.584 141.491C212.531 141.536 212.478 141.58 212.423 141.62C212.249 141.757 212.049 141.905 211.843 142.047C211.806 142.073 211.767 142.097 211.727 142.121C211.727 142.121 211.711 142.131 211.698 142.139C211.535 142.247 211.371 142.355 211.2 142.461C211.145 142.495 211.089 142.529 211.034 142.561L210.968 142.6C210.955 142.608 210.942 142.616 210.926 142.624L210.786 142.706C210.699 142.756 210.61 142.809 210.52 142.856C210.428 142.906 210.328 142.959 210.23 143.011C210.106 143.077 209.977 143.146 209.838 143.217C209.719 143.278 209.611 143.328 209.506 143.378L209.442 143.409C209.374 143.441 209.308 143.475 209.234 143.507C209.208 143.517 209.181 143.531 209.155 143.538C207.034 144.516 204.593 145.286 202.013 146.1C199.454 146.907 196.808 147.742 194.363 148.822C188.127 151.576 182.05 157.596 178.983 160.937C178.026 161.989 175.051 170.891 174.592 176.104C174.571 176.352 174.484 176.578 174.352 176.768C173.575 183.778 171.878 193.466 168.178 201.203L167.78 203.612C166.631 210.564 165.542 217.142 164.902 222.141C164.944 222.313 164.954 222.492 164.931 222.671L164.809 223.538C164.788 223.686 164.746 223.825 164.683 223.952C164.578 224.89 164.496 225.728 164.438 226.458C164.612 226.711 164.709 227.017 164.691 227.362C164.673 227.702 164.601 228.079 164.543 228.385C164.525 228.485 164.506 228.572 164.499 228.632C164.475 228.862 164.396 229.075 164.272 229.257C164.245 229.781 164.216 230.49 164.185 231.233L164.169 231.623C164.24 231.763 164.29 231.913 164.311 232.071C164.348 232.343 164.325 232.593 164.304 232.812C164.298 232.883 164.288 232.954 164.288 233.02C164.314 233.286 164.261 233.526 164.138 233.763C164.116 233.803 164.093 233.845 164.066 233.887C164.006 235.128 163.95 235.911 163.895 236.386C163.75 237.598 163.65 238.726 163.563 239.814C163.755 240.099 163.9 240.484 163.942 241.011C164.361 245.536 161.199 250.78 158.993 251.684C158.374 251.94 156.964 252.113 155.491 252.113M146.731 228.927C146.61 228.954 146.491 228.977 146.37 229.001C144.457 229.397 142.071 229.892 141.895 230.748C141.71 231.642 142.641 233.162 143.719 234.923C144.52 236.23 145.424 237.714 146.235 239.474C148.249 243.841 150.136 247.575 152.848 249.03C153.672 249.473 157.193 249.418 157.944 249.128C158.851 248.735 161.355 244.919 161.21 241.58C160.891 241.301 160.704 240.882 160.74 240.428L160.754 240.252C160.854 238.995 160.967 237.569 161.149 236.053C161.233 235.36 161.31 233.671 161.333 233.115C161.341 232.938 161.383 232.767 161.455 232.609C161.397 232.446 161.37 232.272 161.378 232.095L161.42 231.117C161.463 230.098 161.499 229.215 161.531 228.669C161.539 228.524 161.571 228.385 161.623 228.25C161.663 228.1 161.726 227.958 161.81 227.828C161.676 227.602 161.608 227.338 161.623 227.064C161.684 226.021 161.805 224.716 161.987 223.188C162.005 223.032 162.05 222.884 162.113 222.75C162.082 222.608 162.074 222.46 162.092 222.313C162.73 217.203 163.858 210.382 165.052 203.161L165.482 200.558C165.503 200.426 165.542 200.299 165.6 200.181C169.303 192.538 170.945 182.727 171.669 175.843C171.693 175.608 171.777 175.39 171.904 175.205C172.531 169.953 175.359 160.792 176.94 159.069C180.153 155.566 186.543 149.252 193.24 146.295C195.823 145.151 198.545 144.295 201.175 143.465C203.708 142.666 206.098 141.912 208.08 140.99C208.111 140.974 208.143 140.961 208.177 140.951C208.198 140.94 208.217 140.932 208.238 140.922L208.314 140.885C208.407 140.84 208.496 140.798 208.583 140.756C208.694 140.698 208.815 140.634 208.936 140.568C209.026 140.521 209.108 140.479 209.187 140.437C209.26 140.397 209.329 140.355 209.397 140.315L209.537 140.234C209.574 140.213 209.608 140.192 209.645 140.171C209.669 140.157 209.69 140.144 209.714 140.131C209.727 140.123 209.738 140.115 209.751 140.107C209.896 140.02 210.033 139.928 210.17 139.836C210.18 139.828 210.193 139.82 210.204 139.815C210.238 139.791 210.27 139.773 210.299 139.754C210.449 139.649 210.594 139.541 210.739 139.427L210.863 139.325C210.966 139.24 211.068 139.153 211.171 139.069L211.574 138.676C211.593 138.655 211.614 138.631 211.632 138.61L211.677 138.558C211.764 138.46 211.833 138.386 211.896 138.31C211.927 138.27 211.964 138.223 211.999 138.173C212.009 138.157 212.02 138.144 212.033 138.128C212.083 138.062 212.13 137.999 212.175 137.93C212.183 137.917 212.194 137.904 212.204 137.888C212.238 137.841 212.267 137.788 212.299 137.738C212.347 137.659 212.394 137.583 212.439 137.498L212.542 137.301C212.581 137.219 212.615 137.137 212.652 137.05C212.673 137 212.697 136.937 212.721 136.876C212.726 136.866 212.729 136.853 212.734 136.842C212.752 136.795 212.768 136.742 212.784 136.692L212.881 136.373C212.903 136.278 212.924 136.181 212.942 136.08L212.968 135.959C212.974 135.935 212.979 135.914 212.982 135.891C212.995 135.804 213.003 135.722 213.011 135.638L213.024 135.514C213.026 135.464 213.032 135.414 213.04 135.364L213.045 135.324C213.055 135.14 213.063 134.937 213.055 134.731C213.032 133.872 212.866 133.084 212.568 132.383C212.426 132.051 212.244 131.716 212.028 131.4C211.719 130.952 211.329 130.53 210.876 130.159C210.415 129.779 209.88 129.447 209.289 129.17C208.886 128.981 208.446 128.815 207.982 128.672C206.53 128.237 204.854 128.071 203.007 128.177C201.378 128.272 199.639 128.583 197.836 129.099C197.475 129.207 197.09 129.326 196.706 129.45C196.352 129.568 195.981 129.7 195.607 129.84C195.58 129.85 195.554 129.864 195.533 129.871C194.758 130.159 193.97 130.488 193.195 130.847C192.789 131.034 192.383 131.231 191.97 131.437C191.124 131.869 190.288 132.328 189.498 132.797C178.485 139.322 142.651 153.224 137.349 154.889C137.294 154.934 137.233 154.979 137.17 155.016C136.513 155.419 135.602 155.477 132.671 154.633C131.311 154.243 129.735 153.706 129.466 153.577C127.724 152.744 121.017 150.122 108.115 151.408C107.171 151.5 106.225 151.626 105.305 151.777C104.86 151.853 104.412 151.937 103.98 152.024C103.152 152.193 102.322 152.393 101.516 152.623C101.489 152.631 101.46 152.636 101.434 152.644C101.054 152.754 100.685 152.865 100.319 152.981C99.9422 153.105 99.568 153.237 99.1991 153.368C97.465 154.009 95.8785 154.789 94.4976 155.685C92.948 156.692 91.6962 157.82 90.7817 159.035C90.4997 159.409 90.244 159.801 90.02 160.207C89.7117 160.774 89.4772 161.362 89.3296 161.941C89.1847 162.516 89.1188 163.083 89.1398 163.625C89.1398 163.631 89.1398 163.636 89.1398 163.639C89.1504 163.992 89.1978 164.353 89.2874 164.745C89.4614 165.481 89.796 166.213 90.2783 166.909C90.3995 167.08 90.5235 167.244 90.6421 167.386C90.6473 167.391 90.6657 167.41 90.6841 167.431L90.7527 167.502C90.7527 167.502 90.7764 167.528 90.787 167.542C90.8555 167.623 90.9292 167.705 91.003 167.781L91.1823 167.945C91.2508 168.008 91.3324 168.084 91.4141 168.15C91.4458 168.177 91.4801 168.2 91.5117 168.224L91.5776 168.274C91.6645 168.343 91.7384 168.393 91.8069 168.438C91.8728 168.482 91.9333 168.517 91.9913 168.554C92.0598 168.593 92.1336 168.638 92.21 168.675C92.2944 168.72 92.3577 168.751 92.4209 168.78C92.5079 168.822 92.5869 168.857 92.6634 168.888L92.7293 168.915C92.7741 168.933 92.8189 168.951 92.8663 168.967C92.948 168.996 93.027 169.023 93.1035 169.044L93.2458 169.086C93.2748 169.094 93.3011 169.104 93.3301 169.112C93.4434 169.141 93.5435 169.162 93.6437 169.183L93.8598 169.226C93.9653 169.241 94.0707 169.257 94.1787 169.27C94.2051 169.27 94.2578 169.281 94.3105 169.286L94.3922 169.297C94.495 169.305 94.6214 169.313 94.7558 169.32C94.8033 169.32 94.848 169.323 94.8955 169.328C94.9139 169.328 94.9351 169.328 94.9535 169.328C95.1406 169.336 95.3303 169.336 95.5148 169.328C95.5333 169.328 95.5518 169.328 95.5676 169.328C95.5913 169.328 95.6123 169.323 95.636 169.32C95.8152 169.313 95.9707 169.305 96.1314 169.289C96.1525 169.289 96.171 169.286 96.1921 169.284C96.2184 169.284 96.2474 169.278 96.2738 169.276L96.3793 169.265C96.5242 169.252 96.648 169.239 96.7719 169.22C96.8668 169.207 96.9458 169.199 97.0249 169.183C97.0381 169.183 97.0486 169.178 97.0618 169.178L97.4544 169.12C97.5625 169.099 97.6732 169.078 97.776 169.06L97.863 169.044C97.8946 169.038 97.9263 169.033 97.9605 169.025C97.9763 169.023 97.9921 169.017 98.0079 169.015C100.153 168.583 102.53 167.773 105.044 166.914C107.651 166.026 110.347 165.106 113.103 164.495C120.24 162.914 129.137 164.218 133.804 165.135C136.15 165.599 136.975 172.198 137.117 173.519C137.125 173.595 137.127 173.671 137.122 173.745C137.051 174.958 137.001 176.078 136.954 177.1C136.819 180.015 136.722 182.123 136.332 183.641C136.01 184.885 134.579 186.232 132.078 188.509C130.726 189.739 129.329 191.01 128.61 191.948C128.391 192.232 128.072 192.42 127.719 192.472C124.894 192.897 121.879 193.102 118.501 193.102C118.356 193.097 118.195 193.078 118.053 193.031C117.916 193.073 117.773 193.092 117.62 193.094C116.268 193.081 114.84 193.036 113.256 192.962C113.019 192.952 112.792 192.878 112.597 192.759C112.392 192.86 112.16 192.91 111.923 192.897L111.317 192.865C110.61 192.828 109.949 192.794 109.329 192.765C109.203 192.759 109.082 192.736 108.966 192.699C108.866 192.686 108.76 192.673 108.639 192.654C108.328 192.607 108.057 192.459 107.854 192.248C106.599 191.948 105.276 191.505 103.993 191.075C101.74 190.319 99.186 189.465 97.8999 189.81C95.0379 190.58 92.8188 193.534 91.7831 195.845C91.5274 196.72 91.5195 201.238 91.849 202.141C93.7227 205.433 94.7743 207.067 97.9658 208.155C99.2281 208.588 104.591 207.565 107.696 206.648C107.891 206.39 108.175 206.2 108.512 206.129L108.855 206.055C109.055 205.955 109.285 205.897 109.519 205.907C110.339 205.931 111.324 205.939 112.531 205.931C112.811 205.923 113.066 206.008 113.288 206.15C113.501 206.005 113.754 205.918 114.023 205.915C114.753 205.905 115.515 205.892 116.311 205.876C116.519 205.868 116.724 205.915 116.909 206C117.091 205.907 117.288 205.857 117.497 205.852H117.62C117.773 205.842 117.926 205.868 118.068 205.913C118.208 205.863 118.356 205.834 118.506 205.831L118.867 205.823C124.894 205.691 132.394 205.531 138.827 205.905C139.101 205.921 139.365 206.018 139.581 206.184C140.134 206.487 143.131 207.581 145.521 208.271C146.04 208.422 146.425 208.862 146.504 209.397C146.736 210.962 146.963 212.533 147.187 214.072C147.608 216.979 148.009 219.725 148.383 222.136C148.407 222.289 148.404 222.444 148.378 222.592L148.423 223.064C148.444 223.29 148.41 223.514 148.325 223.717C148.557 223.925 148.71 224.207 148.763 224.518C148.818 224.85 148.871 225.177 148.923 225.486C148.952 225.662 148.95 225.841 148.913 226.01C149.005 226.158 149.071 226.324 149.105 226.503C149.147 226.73 149.187 226.951 149.227 227.159C149.24 227.233 149.248 227.304 149.25 227.378C149.274 227.441 149.292 227.507 149.308 227.575C149.308 227.581 149.313 227.594 149.313 227.599C149.458 228.329 149.003 229.054 148.28 229.225L148.014 229.288C147.54 229.402 147.058 229.254 146.728 228.933M161.929 227.22C161.929 227.22 161.929 227.222 161.929 227.225C161.929 227.225 161.929 227.225 161.929 227.22ZM91.828 202.107C91.828 202.107 91.8279 202.112 91.8306 202.112C91.8306 202.112 91.8306 202.107 91.828 202.107Z" fill="#144B5F"/>
<path d="M87.4874 57.5643C78.0633 54.8551 77.6705 62.4028 81.7211 66.5957C84.7359 69.7187 81.4839 71.0048 81.0939 74.3517C80.58 78.7739 85.2236 83.5913 95.0641 82.1656C95.0641 82.1656 94.6108 79.9861 93.9994 79.4749C86.7099 81.6886 82.9702 78.5762 83.7635 74.1488C84.3169 71.0707 85.603 69.5817 82.7199 66.1003C79.6049 62.3423 80.7461 58.6105 87.4874 57.5669" fill="#623A16"/>
<path d="M93.2974 81.4989C92.0192 80.7241 90.786 79.1192 91.7953 76.3152C90.0691 76.8396 87.8791 76.3995 86.5246 75.0607C83.3779 71.9536 81.6966 65.0621 86.1662 57.6935C90.0138 51.3502 96.4968 49.4369 102.329 51.1236C104.793 49.1338 106.585 47.4736 110.617 48.0243C115.846 48.7359 121.962 55.9068 119.129 65.7631C117.662 70.8731 112.607 74.0619 107.924 75.1293C107.671 75.7591 107.555 76.4074 107.189 77.0135C104.026 82.2263 97.804 84.2345 93.2948 81.4989" fill="#623A16"/>
<path d="M99.0567 51.0604C103.574 44.9305 111.04 43.7841 115.884 45.9767C122.111 48.7966 124.831 57.7332 117.863 68.4381C122.588 58.052 120.733 51.569 116.482 48.678C111.733 45.447 104.138 46.6751 102.29 51.5189C102.29 51.5189 99.0726 52.3702 99.0541 51.063" fill="#623A16"/>
<g opacity="0.35">
<mask id="mask13_195_8376" style="mask-type:luminance" maskUnits="userSpaceOnUse" x="102" y="50" width="11" height="17">
<path d="M112.272 50.0278H102.803V66.6281H112.272V50.0278Z" fill="white"/>
</mask>
<g mask="url(#mask13_195_8376)">
<path d="M102.803 50.0278C109.331 51.0714 116.881 57.5123 108.699 66.6281C114.436 56.1366 104.933 51.559 102.803 50.0278Z" fill="#623A16"/>
</g>
</g>
<path d="M117.24 66.538C124.179 67.3102 131.279 60.2659 122.611 51.1606C128.204 59.2434 123.173 65.555 116.824 65.0675C117.032 65.4523 117.03 66.1559 117.24 66.538Z" fill="#623A16"/>
<g opacity="0.45">
<mask id="mask14_195_8376" style="mask-type:luminance" maskUnits="userSpaceOnUse" x="92" y="63" width="28" height="21">
<path d="M119.639 63.3997H92.7477V83.1334H119.639V63.3997Z" fill="white"/>
</mask>
<g mask="url(#mask14_195_8376)">
<path d="M95.6861 82.0921C94.9561 82.1844 93.3512 82.3978 92.7477 82.382C97.0618 75.7251 110.104 62.9461 119.568 63.4126C119.889 63.3151 119.054 66.604 117.86 68.4382C117.934 68.2748 117.968 68.1325 118.039 67.9717C115.928 71.7509 111.859 74.2308 107.922 75.1295C107.843 75.3218 107.761 75.5089 107.698 75.704C107.949 75.4852 108.18 75.3244 108.433 75.0925C108.154 75.4114 107.877 75.6565 107.601 75.9569C107.485 76.3127 107.392 76.6738 107.187 77.0137C105.342 80.055 102.449 81.8339 99.4679 82.3873C96.034 84.1451 94.3394 82.2687 95.6834 82.0921" fill="#623A16"/>
</g>
</g>
<path d="M97.4301 84.2031C96.5894 84.2031 95.9754 83.9606 95.6222 83.647C95.501 83.5389 95.406 83.4177 95.3402 83.2886L95.0766 83.3202C94.9475 83.336 94.8158 83.3492 94.684 83.3624C94.2281 83.4098 93.8775 83.4388 93.6219 83.4467C89.0416 83.7155 85.2704 82.5559 83.0225 80.1735C81.5519 78.6187 80.8694 76.6738 81.0987 74.7025C81.2515 73.398 81.7839 72.4018 82.253 71.5242C83.0726 69.9931 83.5231 69.1498 81.8997 67.471C79.4356 64.92 78.5844 61.3965 79.8731 59.0905C80.5241 57.9283 82.274 56.1495 86.7621 57.006C89.8507 52.4546 94.547 50.0485 99.7677 50.3516C104.609 44.5063 111.956 43.6288 116.787 45.8161C119.393 46.9942 121.399 49.1868 122.435 51.9882C123.713 55.4379 123.476 59.636 121.786 63.9475C123.133 63.1885 124.145 62.0079 124.648 60.5637C125.518 58.0706 124.833 55.011 122.717 51.9513C122.524 51.6746 122.579 51.2977 122.84 51.0843C123.101 50.8708 123.481 50.8971 123.713 51.1396C128.68 56.3576 128.159 60.4161 127.405 62.3689C126.311 65.2046 123.436 67.2286 120.023 67.5975C119.915 67.7873 119.805 67.977 119.691 68.1667C117.952 71.7693 114.16 74.6841 109.534 75.9675C109.366 76.1572 109.202 76.3206 109.044 76.4787C108.984 76.5394 108.923 76.6 108.862 76.6632C108.765 76.9505 108.665 77.1956 108.557 77.4222C108.507 77.5408 108.446 77.6594 108.377 77.7701C108.259 77.9651 108.135 78.1549 108.009 78.342C108.009 78.3472 107.987 78.3736 107.985 78.3788C105.969 81.3305 102.959 83.2649 99.7149 83.6997C98.8347 84.0608 98.0626 84.2031 97.4248 84.2031M96.5182 82.7219C96.7923 82.9064 97.7701 83.1225 99.2959 82.4795C99.3513 82.4558 99.4066 82.44 99.4672 82.4347C102.379 82.0684 105.096 80.329 106.917 77.662L107.473 77.9888L106.941 77.6252C107.057 77.4539 107.168 77.2826 107.276 77.106C107.318 77.0375 107.352 76.9637 107.384 76.8899C107.495 76.658 107.587 76.4234 107.682 76.1256C107.695 76.0887 107.708 76.0544 107.726 76.0202C107.732 75.9833 107.74 75.9464 107.753 75.9095C107.816 75.7092 107.885 75.5116 107.964 75.3166C108.043 75.1215 108.211 74.9766 108.417 74.9292C108.667 74.8712 108.918 74.8079 109.165 74.7368C113.459 73.5509 116.964 70.8759 118.539 67.587C118.547 67.5685 118.558 67.5501 118.568 67.5316C118.74 67.2444 118.903 66.9598 119.061 66.6751C119.167 66.4854 119.359 66.3642 119.575 66.3484C122.648 66.1191 125.247 64.3771 126.198 61.9077C126.714 60.5689 126.728 59.0984 126.266 57.5567C126.367 58.7584 126.235 59.9127 125.858 60.988C125.054 63.2939 123.188 65.0386 120.745 65.7765C120.506 65.8503 120.239 65.7739 120.073 65.5815C119.907 65.3891 119.868 65.1176 119.976 64.8883C119.981 64.8778 119.984 64.8673 119.989 64.8594C119.728 64.7461 119.567 64.4693 119.607 64.1768C119.625 64.0477 119.623 64.0003 119.623 63.9976C119.612 63.9317 119.615 63.8843 119.625 63.8184C120.255 59.8284 119.399 56.0124 117.211 53.0687C115.575 50.8682 113.313 49.3765 111.163 49.084C107.953 48.6465 106.335 49.6875 104.551 51.0922C104.511 51.1238 104.467 51.1501 104.422 51.1712C104.39 51.2107 104.356 51.245 104.316 51.2766C104.084 51.4611 103.85 51.6508 103.61 51.8459C103.376 52.0382 103.022 52.0488 102.785 51.859C102.548 51.6667 102.464 51.3504 102.601 51.079C102.754 50.7786 102.927 50.4913 103.115 50.2225C103.128 50.2014 103.144 50.183 103.159 50.1645C103.17 50.1487 103.18 50.1328 103.191 50.117C106.035 46.2588 112.976 45.5051 117.47 48.5648C120.387 50.5493 121.894 53.8408 121.897 57.9784C122.058 55.9834 121.834 54.1044 121.214 52.4309C120.297 49.9536 118.532 48.0193 116.244 46.9836C111.904 45.0202 104.928 45.9031 100.548 51.411C100.416 51.5797 100.208 51.6693 99.9917 51.6508C94.9871 51.2476 90.4674 53.5852 87.5869 58.0627C87.5263 58.1576 87.4446 58.2314 87.3497 58.2814C87.3471 58.3895 87.3155 58.4949 87.2602 58.5898C85.5366 61.4808 84.6564 64.551 84.7171 67.471C84.7223 67.7557 84.5404 68.0113 84.2663 68.0982C84.1556 68.1325 84.0423 68.1378 83.9343 68.114C84.6801 69.6847 84.0187 70.9207 83.373 72.1251C82.9355 72.9394 82.4848 73.7828 82.3609 74.8448C82.1764 76.4313 82.7378 78.0099 83.9421 79.2828C85.924 81.3806 89.3369 82.4031 93.5456 82.1527C93.7854 82.1448 94.1122 82.1185 94.5339 82.0736C94.6603 82.0605 94.7842 82.0473 94.9081 82.0315L95.3245 81.9814C95.4246 81.9709 95.5274 81.9814 95.6222 82.0157C95.7619 82.0658 95.9042 82.1132 96.0492 82.1554C96.3075 82.2318 96.4813 82.4585 96.5077 82.7115M85.3838 59.3382C83.8262 59.9391 82.8327 60.7903 82.4848 61.8392C82.1212 62.9329 82.4848 64.2769 83.5021 65.6658C83.7129 63.5575 84.3481 61.4123 85.3838 59.3382ZM84.5562 58.0575C82.83 58.0575 81.594 58.6188 80.9826 59.7072C80.221 61.0723 80.4925 63.1042 81.5677 64.9331C81.0064 63.7077 80.9009 62.5218 81.262 61.4334C81.6151 60.3713 82.5771 59.0009 85.086 58.0759C84.9041 58.0654 84.7275 58.0601 84.5562 58.0601M112.354 48.014C114.513 48.6149 116.655 50.1566 118.242 52.2939C119.356 53.7934 120.155 55.4932 120.624 57.3222C120.49 53.9252 119.182 51.2819 116.747 49.6269C115.443 48.7388 113.909 48.209 112.354 48.0166M90.2355 81.262C88.0719 81.262 86.3009 80.6506 85.1255 79.4699C83.8895 78.2287 83.4045 76.4471 83.7603 74.4522C83.8736 73.8276 84.016 73.2583 84.1425 72.755C84.2137 72.473 84.2822 72.2015 84.3402 71.9354C84.4008 71.6586 84.6353 71.4557 84.9173 71.432C85.194 71.4083 85.4628 71.5743 85.5656 71.8352C86.0637 73.0949 86.77 74.1939 87.6054 75.0187C88.7465 76.1467 90.6519 76.5974 92.2357 76.1151C92.4677 76.0439 92.7206 76.1098 92.8893 76.2864C93.058 76.4629 93.1106 76.7186 93.0289 76.9478C92.5809 78.1891 92.5862 79.2512 93.0395 80.1077C93.137 80.2895 93.1396 80.5082 93.05 80.6927C92.9604 80.8772 92.7865 81.009 92.5836 81.0432C91.7613 81.1882 90.976 81.2594 90.2381 81.2594M85.0307 74.6788C84.7487 76.2469 85.1071 77.6252 86.04 78.5607C87.1917 79.715 89.1366 80.1788 91.5743 79.8942C91.3714 79.18 91.3555 78.4026 91.5241 77.5646C89.7769 77.7332 87.911 77.1297 86.704 75.9385C86.1348 75.3771 85.621 74.7078 85.1783 73.9593C85.1255 74.1912 85.0755 74.4285 85.0307 74.6788Z" fill="#144B5F"/>
<path d="M112.536 148.97C112.536 148.97 111.969 148.704 111.036 148.132C111.004 148.114 110.965 148.09 110.933 148.069C110.875 148.032 110.817 147.998 110.759 147.958C110.651 147.889 110.538 147.816 110.419 147.739C110.356 147.697 110.293 147.658 110.224 147.613C110.09 147.523 109.95 147.428 109.805 147.328C109.75 147.291 109.7 147.257 109.645 147.218C109.444 147.078 109.236 146.93 109.02 146.772C108.975 146.74 108.928 146.704 108.883 146.669C108.709 146.54 108.535 146.408 108.353 146.269C108.274 146.208 108.193 146.142 108.114 146.079C107.958 145.958 107.803 145.834 107.642 145.702C107.552 145.628 107.463 145.555 107.37 145.481C107.207 145.346 107.041 145.204 106.875 145.062C106.788 144.985 106.701 144.912 106.611 144.835C106.403 144.653 106.195 144.464 105.982 144.268C105.931 144.224 105.881 144.179 105.831 144.131C105.57 143.889 105.304 143.633 105.038 143.37C104.964 143.296 104.888 143.22 104.814 143.143C104.619 142.948 104.421 142.748 104.224 142.54C104.126 142.437 104.029 142.331 103.931 142.229C103.749 142.036 103.57 141.839 103.386 141.636C103.283 141.522 103.183 141.409 103.08 141.293C102.888 141.074 102.698 140.85 102.505 140.621C102.416 140.516 102.329 140.413 102.239 140.305C101.96 139.965 101.681 139.617 101.404 139.253C101.399 139.245 101.393 139.24 101.388 139.232C101.117 138.879 100.848 138.513 100.579 138.136C100.492 138.012 100.405 137.886 100.318 137.762C100.131 137.493 99.9412 137.219 99.7567 136.937C99.6566 136.787 99.559 136.636 99.4615 136.484C99.285 136.209 99.1084 135.928 98.9345 135.643C98.8396 135.487 98.7421 135.332 98.6498 135.171C98.4574 134.85 98.2703 134.518 98.0832 134.183C98.0121 134.056 97.9409 133.933 97.8698 133.801C97.6168 133.334 97.3638 132.855 97.1213 132.362C97.0739 132.267 97.029 132.164 96.9816 132.069C96.7866 131.669 96.5942 131.26 96.4045 130.841C96.3254 130.665 96.2491 130.483 96.17 130.304C96.0172 129.95 95.8642 129.592 95.7167 129.228C95.635 129.028 95.5559 128.825 95.4768 128.622C95.3319 128.251 95.1923 127.871 95.0552 127.489C94.9841 127.291 94.9129 127.096 94.8443 126.896C94.6809 126.424 94.5255 125.939 94.3753 125.449C94.3384 125.333 94.3015 125.223 94.2646 125.104C94.0802 124.495 93.9089 123.871 93.7428 123.233C93.698 123.059 93.6584 122.88 93.6136 122.703C93.4977 122.231 93.3844 121.754 93.2789 121.27C93.2262 121.032 93.1788 120.79 93.1288 120.55C93.0365 120.105 92.9522 119.651 92.8705 119.193C92.8257 118.94 92.7809 118.684 92.7387 118.426C92.6597 117.938 92.5885 117.443 92.52 116.942C92.4884 116.71 92.4541 116.484 92.4251 116.247C92.3329 115.509 92.2511 114.76 92.1879 113.993C91.8347 109.843 91.8848 106.011 92.2537 102.495C92.5489 99.6831 93.047 97.0767 93.7032 94.6733C94.03 93.4715 94.399 92.3199 94.7996 91.2209C97.4086 84.0738 101.443 79.0876 105.346 76.281C105.947 75.8487 106.545 75.4693 107.133 75.1399C107.428 74.9765 107.721 74.8236 108.008 74.6865C109.455 73.9934 110.828 73.6245 112.04 73.5797C112.04 73.5797 114.71 70.1431 119.527 66.6592C119.707 66.53 119.886 66.4009 120.07 66.2718C120.742 65.8 121.456 65.3309 122.205 64.8724C122.532 64.6721 122.861 64.4744 123.201 64.2794C124.007 63.8156 124.851 63.365 125.734 62.9407C125.968 62.8274 126.205 62.7167 126.445 62.606C127.133 62.2924 127.842 61.9945 128.572 61.7126C128.891 61.5913 129.212 61.4728 129.539 61.3568C130.011 61.1908 130.488 61.0353 130.975 60.8877C131.811 60.6347 132.667 60.4081 133.548 60.213C133.832 60.1498 134.122 60.0918 134.412 60.0365C136.734 59.5885 139.208 59.3697 141.82 59.4672C144.434 59.5647 147.186 59.9758 150.064 60.7902C150.527 60.9219 150.991 61.0643 151.458 61.2092C151.582 61.2488 151.705 61.2883 151.829 61.3278C152.235 61.4596 152.644 61.5966 153.052 61.7389C153.118 61.7627 153.184 61.7837 153.25 61.8075C153.713 61.9709 154.177 62.1448 154.639 62.324C154.757 62.3688 154.876 62.4162 154.994 62.4637C155.379 62.6165 155.766 62.772 156.151 62.9354C156.249 62.9749 156.344 63.0145 156.441 63.0566C156.902 63.2543 157.366 63.4572 157.825 63.6707C157.93 63.7181 158.036 63.7682 158.141 63.8182C158.523 63.9948 158.903 64.1793 159.282 64.3664C159.395 64.4217 159.506 64.4771 159.619 64.5325C160.078 64.7644 160.539 65.0016 160.995 65.2466C161.074 65.2888 161.156 65.3362 161.235 65.3784C161.625 65.5892 162.015 65.808 162.402 66.032C162.521 66.1005 162.64 66.169 162.758 66.2376C163.214 66.5037 163.67 66.7751 164.121 67.0571C164.158 67.0808 164.194 67.1046 164.231 67.1283C164.65 67.3892 165.067 67.658 165.481 67.9321C165.599 68.0111 165.718 68.0902 165.836 68.1692C166.255 68.4512 166.672 68.7359 167.085 69.031C167.117 69.0547 167.151 69.0758 167.183 69.0995C167.626 69.4158 168.063 69.74 168.498 70.0694C168.611 70.1537 168.722 70.2407 168.835 70.3277C169.207 70.6123 169.573 70.9021 169.94 71.1999C170.013 71.2579 170.087 71.3159 170.158 71.3765C170.583 71.7244 171.004 72.0802 171.423 72.4412C171.523 72.5282 171.624 72.6178 171.724 72.7048C172.069 73.0079 172.409 73.3162 172.749 73.6272C172.841 73.7115 172.933 73.7958 173.026 73.8802C173.434 74.2596 173.837 74.6497 174.235 75.045C174.259 75.0687 174.285 75.0924 174.309 75.1161C174.304 75.1135 174.298 75.1082 174.296 75.1056C187.001 87.7449 195.197 107.871 189.109 135.603L117.74 150.137C117.74 150.137 115.424 150.717 112.533 148.967" fill="#623A16"/>
<path d="M116.734 151.669C115.956 151.669 114.899 151.553 113.679 151.107L113.845 151.548L109.995 149.17C109.879 149.097 109.76 149.02 109.636 148.938L109.434 148.807C109.291 148.712 109.144 148.612 108.996 148.509L108.827 148.393C108.617 148.245 108.401 148.09 108.174 147.927L108.037 147.824C107.852 147.689 107.67 147.55 107.483 147.405L107.233 147.21C107.07 147.081 106.906 146.951 106.74 146.817C106.648 146.741 106.553 146.664 106.458 146.585C106.29 146.445 106.118 146.298 105.944 146.15L105.67 145.916C105.454 145.729 105.238 145.531 105.017 145.328L104.861 145.186C104.592 144.935 104.316 144.672 104.039 144.398C103.992 144.35 103.939 144.3 103.889 144.248L103.807 144.163C103.604 143.96 103.399 143.752 103.193 143.536L102.89 143.214C102.703 143.014 102.513 142.809 102.326 142.598C102.221 142.479 102.115 142.363 102.01 142.242C101.812 142.015 101.614 141.783 101.414 141.546L101.33 141.446C101.266 141.37 101.201 141.296 101.137 141.217C100.821 140.832 100.539 140.476 100.27 140.128L100.241 140.092C99.9646 139.73 99.6906 139.356 99.4165 138.971C99.3559 138.885 99.2926 138.795 99.232 138.705L99.1451 138.581C98.9501 138.302 98.7576 138.017 98.5626 137.728C98.4625 137.575 98.3597 137.417 98.2596 137.258C98.0751 136.974 97.8959 136.684 97.7141 136.389L97.6798 136.331C97.5929 136.189 97.5059 136.046 97.4216 135.901C97.2239 135.567 97.0289 135.224 96.8339 134.876L96.7548 134.734C96.7073 134.649 96.6599 134.568 96.6124 134.481C96.341 133.98 96.0802 133.479 95.8404 132.994C95.8087 132.934 95.7797 132.868 95.7481 132.802L95.6953 132.691C95.4924 132.278 95.2948 131.856 95.0998 131.424C95.0418 131.292 94.9838 131.158 94.9258 131.026L94.8599 130.87C94.7018 130.504 94.5463 130.135 94.3935 129.761C94.3091 129.553 94.2275 129.344 94.1458 129.134C93.9982 128.754 93.8533 128.364 93.7109 127.969L93.6476 127.795C93.5949 127.65 93.5449 127.505 93.4922 127.36C93.3314 126.896 93.1734 126.409 93.0073 125.871L92.9677 125.742C92.944 125.668 92.9202 125.594 92.8965 125.518C92.7121 124.901 92.5303 124.256 92.359 123.594C92.33 123.483 92.3036 123.37 92.2746 123.257L92.2246 123.051C92.1033 122.566 91.9874 122.076 91.8793 121.578C91.8345 121.372 91.7923 121.167 91.7528 120.961L91.7264 120.837C91.6342 120.379 91.5447 119.915 91.4603 119.446C91.4155 119.185 91.368 118.924 91.3259 118.658C91.2442 118.16 91.1705 117.651 91.1019 117.137L91.0703 116.913C91.0466 116.753 91.0255 116.592 91.0044 116.426C90.9016 115.59 90.8226 114.837 90.762 114.12C90.4141 110.053 90.4378 106.095 90.8304 102.353C91.123 99.5673 91.6264 96.8581 92.3221 94.3018C92.6542 93.0869 93.0362 91.8878 93.4553 90.7361C95.8983 84.037 99.825 78.4948 104.511 75.1268C105.148 74.6708 105.794 74.2571 106.435 73.8986C106.753 73.7221 107.075 73.5561 107.389 73.4032C108.759 72.747 110.077 72.3464 111.321 72.2067C112.264 71.0973 114.791 68.3249 118.686 65.5076C118.871 65.3732 119.058 65.2415 119.248 65.107C119.951 64.6142 120.695 64.1267 121.456 63.6602C121.793 63.4547 122.136 63.2491 122.489 63.0462C123.356 62.5481 124.239 62.079 125.111 61.6573C125.357 61.5387 125.602 61.4227 125.849 61.3094C126.566 60.9826 127.309 60.6717 128.058 60.3818C128.387 60.2553 128.725 60.1314 129.065 60.0128C129.56 59.8389 130.063 59.6755 130.559 59.5253C131.45 59.2539 132.351 59.0193 133.239 58.8243C133.537 58.7584 133.837 58.6978 134.14 58.6398C136.686 58.1496 139.287 57.952 141.873 58.0442C144.708 58.147 147.597 58.6108 150.451 59.4199C150.928 59.5543 151.405 59.6993 151.884 59.8521C152.011 59.8916 152.14 59.9338 152.269 59.976C152.685 60.1104 153.102 60.25 153.521 60.395L153.721 60.4635C154.198 60.6321 154.675 60.8087 155.15 60.9932L155.513 61.1355C155.908 61.291 156.306 61.4518 156.702 61.6178L156.997 61.7417C157.474 61.9446 157.946 62.1554 158.42 62.3715L158.747 62.5244C159.134 62.7036 159.524 62.8934 159.914 63.0857L160.262 63.257C160.734 63.4942 161.203 63.7367 161.672 63.9897L161.92 64.1267C162.318 64.3428 162.716 64.5668 163.114 64.7935L163.477 65.0042C163.946 65.2783 164.413 65.5577 164.877 65.845L164.993 65.9188C165.42 66.1849 165.847 66.4616 166.273 66.7436L166.635 66.9834C167.067 67.2733 167.494 67.5659 167.918 67.8689L168.013 67.9348C168.469 68.259 168.917 68.5937 169.362 68.931L169.707 69.1972C170.087 69.4897 170.464 69.7875 170.841 70.0905L171.062 70.2697C171.484 70.615 171.921 70.9813 172.359 71.3634L172.67 71.6349C173.02 71.9432 173.371 72.2594 173.718 72.5783L174 72.8392C174.425 73.2372 174.844 73.6404 175.242 74.033L175.318 74.1068C182.376 81.1354 187.356 89.6108 190.124 99.3037C193.281 110.367 193.41 122.682 190.506 135.914L190.305 136.824L118.046 151.54C117.88 151.576 117.414 151.669 116.728 151.669M111.663 146.841L111.776 146.912C112.617 147.428 113.134 147.676 113.139 147.679L113.268 147.747C115.558 149.134 117.332 148.765 117.406 148.749L117.448 148.738L187.899 134.391C192.777 111.036 187.602 90.3724 173.278 76.1229L173.223 76.0676C172.843 75.6907 172.445 75.3086 172.04 74.9291L171.771 74.6814C171.441 74.3783 171.107 74.0779 170.772 73.7827L170.48 73.5271C170.071 73.1739 169.66 72.8261 169.246 72.4861L169.03 72.3121C168.677 72.0249 168.316 71.7429 167.955 71.4636L167.625 71.2106C167.204 70.8917 166.777 70.5755 166.345 70.2671L166.25 70.2013C165.847 69.914 165.438 69.6346 165.032 69.3605L164.69 69.1313C164.281 68.8625 163.875 68.5989 163.467 68.3433L163.359 68.2748C162.916 68.0007 162.473 67.7345 162.028 67.4763L161.677 67.276C161.301 67.0599 160.921 66.8491 160.542 66.6409L160.307 66.5117C159.862 66.2719 159.414 66.04 158.966 65.816L158.634 65.6526C158.267 65.4707 157.896 65.2942 157.527 65.1202L157.221 64.9753C156.77 64.7697 156.32 64.5694 155.872 64.377L155.587 64.2585C155.215 64.103 154.839 63.9501 154.464 63.8025L154.119 63.6681C153.666 63.4942 153.215 63.3255 152.765 63.1647L152.575 63.1015C152.177 62.9618 151.779 62.83 151.384 62.7009C151.262 62.6614 151.144 62.6245 151.022 62.585C150.569 62.4427 150.116 62.3056 149.665 62.1765C147.03 61.4307 144.371 61.0038 141.762 60.9063C139.39 60.8219 137.008 61.0011 134.675 61.4517C134.399 61.5045 134.122 61.5625 133.85 61.6231C133.033 61.8023 132.203 62.021 131.384 62.2687C130.925 62.4084 130.464 62.5586 130.005 62.7194C129.692 62.8301 129.383 62.9434 129.078 63.0594C128.382 63.3255 127.694 63.6154 127.033 63.9185C126.801 64.0239 126.574 64.1319 126.347 64.24C125.538 64.63 124.716 65.0648 123.91 65.5313C123.583 65.7211 123.261 65.9108 122.948 66.1032C122.236 66.5407 121.543 66.994 120.884 67.4551C120.705 67.579 120.531 67.7056 120.36 67.8294C115.788 71.1368 113.189 74.4363 113.163 74.4706L112.754 74.995L112.087 75.0213C111.062 75.0608 109.863 75.3956 108.619 75.9885C108.358 76.115 108.09 76.2547 107.823 76.4023C107.278 76.7053 106.724 77.0611 106.174 77.4538C103.728 79.2116 99.1741 83.4045 96.1381 91.7217C95.7455 92.797 95.387 93.9196 95.076 95.0608C94.4198 97.4669 93.9455 100.023 93.6687 102.656C93.2945 106.219 93.2735 109.995 93.6056 113.883C93.6635 114.563 93.7399 115.282 93.8374 116.081C93.8559 116.228 93.8769 116.373 93.8953 116.518L93.9297 116.758C93.9956 117.245 94.0668 117.73 94.1432 118.205C94.1827 118.455 94.2275 118.705 94.2723 118.953C94.3513 119.399 94.4356 119.839 94.5252 120.273L94.5516 120.397C94.5911 120.59 94.6307 120.782 94.6703 120.974C94.773 121.446 94.8837 121.91 94.997 122.369L95.0523 122.6C95.076 122.695 95.0972 122.79 95.1209 122.885C95.2843 123.512 95.4529 124.124 95.6269 124.704C95.6427 124.759 95.6611 124.812 95.6795 124.867L95.7323 125.036C95.8904 125.549 96.0406 126.008 96.1882 126.443C96.233 126.575 96.2804 126.706 96.3278 126.836L96.3937 127.017C96.5255 127.386 96.6626 127.755 96.8022 128.114C96.8787 128.314 96.9578 128.509 97.0368 128.704C97.1791 129.057 97.3266 129.402 97.4742 129.745L97.5454 129.906C97.5981 130.027 97.6482 130.148 97.7035 130.264C97.8854 130.67 98.0725 131.063 98.2623 131.453L98.3966 131.735C98.6232 132.188 98.8657 132.657 99.1213 133.129C99.1582 133.2 99.1978 133.266 99.2347 133.332L99.327 133.498C99.5062 133.822 99.688 134.143 99.8751 134.454C99.9542 134.586 100.033 134.721 100.115 134.852L100.149 134.91C100.318 135.187 100.486 135.456 100.658 135.722C100.753 135.87 100.848 136.015 100.942 136.157C101.124 136.431 101.303 136.694 101.485 136.955L101.58 137.09C101.633 137.166 101.683 137.24 101.738 137.314C101.999 137.678 102.257 138.033 102.518 138.373L102.547 138.413C102.803 138.745 103.072 139.082 103.341 139.409C103.396 139.477 103.451 139.543 103.507 139.607L103.596 139.715C103.781 139.936 103.965 140.152 104.15 140.363C104.247 140.474 104.345 140.584 104.445 140.692C104.621 140.887 104.795 141.077 104.969 141.264L105.254 141.567C105.444 141.765 105.631 141.957 105.82 142.145L106.037 142.361C106.295 142.616 106.55 142.861 106.801 143.093L106.943 143.222C107.149 143.412 107.349 143.594 107.549 143.768L107.802 143.987C107.963 144.126 108.121 144.261 108.279 144.39C108.366 144.464 108.453 144.532 108.538 144.603C108.693 144.73 108.843 144.848 108.991 144.967L109.223 145.149C109.391 145.281 109.563 145.407 109.729 145.531L109.855 145.626C110.066 145.781 110.266 145.924 110.456 146.055L110.609 146.161C110.746 146.253 110.88 146.345 111.007 146.432L111.191 146.553C111.299 146.625 111.408 146.693 111.51 146.759L111.658 146.851L111.663 146.841Z" fill="#144B5F"/>
<path d="M192.172 124.311C190.596 125.325 189.07 125.573 187.961 125.573C186.909 125.578 186.226 125.36 186.226 125.36C186.226 125.36 184.305 130.97 180.521 136.776C178.51 139.87 175.964 143.019 172.897 145.399C160.916 154.691 142.3 157.495 128.359 152.153C122.076 149.747 116.824 145.475 112.839 140.223C112.412 139.662 111.65 138.539 111.65 138.539C111.65 138.539 109.273 140.4 105.71 139.591C102.142 138.779 99.3459 133.242 100.487 128.501C101.633 123.76 106.575 126.034 106.575 126.034C104.696 117.638 105.191 109.271 106.15 104.748C108.933 91.566 119.654 82.8034 132.48 78.4208C145.997 73.7983 161.169 74.7286 172.064 83.9525C179.406 90.1746 186.714 111.874 186.714 111.874C186.714 111.874 190.58 108.045 193.273 112.106C195.975 116.17 195.245 122.329 192.172 124.313" fill="#FDCC9C"/>
<path d="M143.653 156.059C138.146 156.059 132.746 155.168 127.912 153.316C121.732 150.949 116.174 146.682 111.845 140.974C111.681 140.758 111.473 140.471 111.275 140.189C110.079 140.755 108.021 141.388 105.433 140.803C103.662 140.4 102.017 139.095 100.797 137.129C99.1394 134.459 98.5701 131.123 99.2737 128.206C99.7823 126.1 100.95 125.143 101.841 124.714C102.89 124.208 104.012 124.171 104.95 124.297C103.522 116.439 104.007 108.838 104.929 104.487C107.567 91.9955 117.208 82.3184 132.076 77.2401C147.238 72.0563 162.486 74.2093 172.869 82.9983C179.281 88.4298 185.459 104.635 187.332 109.861C188.213 109.344 189.404 108.88 190.716 109.012C191.699 109.112 193.12 109.61 194.316 111.413C195.979 113.914 196.588 117.245 195.947 120.321C195.476 122.584 194.377 124.371 192.853 125.357C190.98 126.564 189.169 126.819 187.978 126.819H187.917C187.593 126.819 187.298 126.801 187.04 126.775C186.305 128.677 184.486 132.986 181.574 137.456C179.144 141.195 176.482 144.2 173.668 146.382C165.577 152.657 154.419 156.059 143.661 156.059M111.939 136.731L112.688 137.835C112.688 137.835 113.436 138.937 113.837 139.464C117.887 144.801 123.066 148.785 128.811 150.986C142.325 156.167 160.549 153.4 172.137 144.411C174.73 142.4 177.202 139.601 179.479 136.093C183.126 130.498 185.032 125.009 185.05 124.954L185.448 123.797L186.613 124.171C186.613 124.171 187.132 124.326 187.923 124.326H187.965C188.829 124.326 190.134 124.142 191.499 123.264C192.445 122.653 193.175 121.396 193.504 119.815C194.005 117.414 193.518 114.723 192.237 112.794C191.702 111.988 191.119 111.563 190.461 111.495C189.285 111.374 187.962 112.393 187.593 112.76L186.173 114.167L185.535 112.272C185.464 112.059 178.253 90.828 171.259 84.9037C161.553 76.6866 147.206 74.7048 132.885 79.6014C124.774 82.3711 110.674 89.3575 107.372 105.006C106.423 109.481 105.968 117.601 107.794 125.763L108.345 128.221L106.055 127.167C105.543 126.938 103.978 126.448 102.924 126.964C102.328 127.254 101.93 127.855 101.701 128.793C101.161 131.041 101.627 133.735 102.918 135.819C103.77 137.192 104.89 138.125 105.989 138.376C108.888 139.032 110.864 137.572 110.882 137.559L111.934 136.736L111.939 136.731Z" fill="#144B5F"/>
<path d="M133.176 112.196C134.08 111.506 134.891 110.923 135.711 110.475C136.525 110.027 137.321 109.732 138.146 109.592C138.968 109.447 139.838 109.447 140.784 109.561C141.733 109.656 142.729 109.88 143.867 110.038C143.248 109.068 142.36 108.335 141.306 107.832C140.257 107.331 138.989 107.107 137.751 107.334C136.509 107.542 135.368 108.206 134.572 109.084C134.172 109.524 133.848 110.017 133.605 110.538C133.368 111.063 133.197 111.616 133.178 112.196" fill="#144B5F"/>
<path d="M157.799 128.638C157.559 128.638 157.337 128.48 157.271 128.235C157.19 127.943 157.361 127.642 157.654 127.56C158.602 127.297 159.411 126.823 159.451 126.604C159.451 126.604 159.422 126.514 159.214 126.364C157.59 125.178 157.999 123.233 158.444 122.369C158.584 122.1 158.913 121.994 159.182 122.132C159.451 122.271 159.556 122.601 159.419 122.869C159.383 122.941 158.595 124.554 159.859 125.479C160.524 125.963 160.59 126.464 160.529 126.801C160.331 127.879 158.502 128.464 157.946 128.62C157.899 128.633 157.849 128.641 157.799 128.641" fill="#144B5F"/>
<path d="M163.233 106.849C164.137 106.158 164.948 105.576 165.765 105.128C166.58 104.68 167.378 104.385 168.201 104.245C169.023 104.1 169.892 104.1 170.836 104.214C171.787 104.308 172.781 104.532 173.919 104.691C173.3 103.721 172.412 102.988 171.358 102.485C170.309 101.984 169.041 101.76 167.803 101.987C166.561 102.195 165.42 102.859 164.624 103.737C164.224 104.177 163.9 104.669 163.657 105.191C163.42 105.716 163.249 106.269 163.23 106.852" fill="#144B5F"/>
<path d="M166.126 135.854C160.392 152.52 151.289 138.476 151.289 138.476L166.126 135.854Z" fill="#144B5F"/>
<path d="M158.965 144.922C154.432 144.922 150.685 139.227 150.522 138.974C150.355 138.716 150.329 138.392 150.45 138.112C150.574 137.83 150.827 137.63 151.13 137.577L165.967 134.955C166.286 134.9 166.611 135.016 166.821 135.261C167.032 135.506 167.095 135.846 166.99 136.151C165.124 141.575 162.642 144.511 159.614 144.882C159.395 144.909 159.179 144.922 158.965 144.922ZM152.904 139.119C154.193 140.716 156.775 143.393 159.395 143.067C161.387 142.822 163.214 140.742 164.713 137.032L152.904 139.119Z" fill="#144B5F"/>
<path d="M164.01 141.757C164.01 141.757 159.071 148.063 155.118 142.561C155.118 142.561 158.175 137.801 164.01 141.757Z" fill="#F05C87"/>
<path d="M143.675 135.596C142.942 131.455 138.994 128.693 134.857 129.426C130.717 130.156 127.955 134.107 128.687 138.244C129.417 142.384 133.368 145.146 137.505 144.413C141.645 143.683 144.407 139.733 143.675 135.596Z" fill="#F7A29A"/>
<path d="M187.554 124.456C186.503 124.424 185.828 124.182 185.828 124.182C185.828 124.182 183.709 129.721 179.724 135.39C176.428 134.95 173.692 132.367 173.207 128.907C172.622 124.748 175.524 120.901 179.682 120.316C183.013 119.849 186.142 121.61 187.554 124.458" fill="#F7A29A"/>
<path d="M183.962 91.8746C174.427 73.9962 160.217 66.7595 146.268 65.7211C132.912 64.7276 118.231 77.7911 117.005 78.9032C116.95 78.9533 116.889 78.9823 116.815 78.9902C115.387 79.1668 100.175 81.5465 97.4769 103.386C96.8101 108.786 101.021 107.66 101.514 111.78C100.808 114.13 102.819 120.785 102.819 120.785C102.819 120.785 109.528 138.257 113.998 146.237C114.241 146.64 114.852 146.293 114.631 145.879C113.479 143.72 113.142 146.501 111.779 143.647C111.247 141.515 110.116 134.086 111.089 133.055C113.792 130.19 107.763 119.699 107.76 119.694C107.76 119.694 118.375 109.513 121.079 111.266L118.689 105.81C118.689 105.81 116.868 95.8988 118.125 93.2397C118.125 93.2397 124.173 107.935 129.162 106.327C134.151 104.719 139.746 102.537 139.746 102.537C139.746 102.537 138.486 92.826 134.96 90.3434C134.96 90.3434 144.358 95.5483 147.077 101.409C147.077 101.409 146.184 88.8913 144.052 86.6802C144.052 86.6802 150.182 88.4697 151.036 93.9724C151.89 99.475 168.458 98.3735 171.207 97.0742C171.207 97.0742 171.428 92.486 166.144 87.0703C166.144 87.0703 169.32 86.3087 175.516 95.319C181.706 104.327 183.933 110.414 183.933 110.414C183.938 110.438 187.615 116.052 188.745 120.682C188.94 123.923 188.843 127.32 188.316 130.741L189.515 130.841C189.515 130.841 193.494 109.742 183.962 91.8641" fill="#623A16"/>
<path d="M110.902 140.629C110.702 140.629 110.509 140.524 110.404 140.342C110.159 139.915 104.398 129.827 103.728 124.614C103.689 124.3 103.91 124.013 104.224 123.973C104.535 123.934 104.825 124.155 104.864 124.469C105.291 127.808 108.045 133.482 109.84 136.903C109.742 135.377 109.864 133.69 110.641 132.702C111.985 130.991 111.268 125.963 107.286 120.015C107.131 119.783 107.165 119.472 107.368 119.28C108.293 118.405 115.98 111.239 120.239 110.702C119.67 109.263 118.494 106.245 118.168 105.057C117.741 103.499 116.8 97.7883 117.562 93.1527C117.604 92.897 117.812 92.702 118.07 92.6756C118.328 92.6466 118.571 92.7995 118.663 93.042C120.107 96.8448 124.796 106.546 129.062 105.771C133.774 104.917 137.986 102.827 139.151 102.216C139.011 100.584 138.223 93.7957 134.597 90.7914C134.362 90.599 134.32 90.2538 134.502 90.0113C134.681 89.7662 135.024 89.7056 135.277 89.8716C135.648 90.1167 143.117 95.0264 146.34 99.0902C146.047 95.8408 145.302 90.0324 143.557 86.9701C143.433 86.754 143.465 86.4851 143.631 86.3007C143.797 86.1162 144.063 86.0608 144.29 86.1636C144.527 86.269 150.072 88.7832 150.981 91.7875C151.102 92.1881 151.2 92.5676 151.284 92.8997C151.785 94.8525 152.035 95.8302 156.291 96.9871C161.34 98.3575 169.521 97.7092 170.62 96.9871C170.467 95.8618 169.307 88.7727 164.092 87.028C163.82 86.9384 163.657 86.6591 163.71 86.3797C163.762 86.0978 164.021 85.8948 164.303 85.9133C164.6 85.9291 171.69 86.4113 177.941 97.9517C179.013 99.9308 180.023 101.768 180.964 103.478C185.446 111.635 188.408 117.024 189.368 121.844C190.127 125.663 189.312 128.585 188.614 130.211C189.275 129.123 190.074 126.219 189.75 118.492C189.141 103.937 186.825 100.06 186.801 100.023C186.635 99.7569 186.714 99.4038 186.98 99.2351C187.246 99.0665 187.597 99.1429 187.768 99.4064C187.871 99.5645 190.269 103.452 190.894 118.444C191.218 126.219 190.475 130.702 188.68 131.764C188.008 132.162 187.36 131.985 187.08 131.819C186.943 131.737 186.848 131.603 186.814 131.447C186.782 131.292 186.814 131.129 186.906 130.999C186.93 130.965 189.315 127.468 188.24 122.071C187.315 117.425 184.387 112.096 179.957 104.034C179.016 102.321 178.007 100.484 176.931 98.5025C173.953 93.0051 170.772 90.143 168.343 88.6593C170.707 91.4344 171.618 95.3031 171.777 97.0398C171.792 97.2059 171.766 97.53 171.421 97.8173C169.929 99.0717 160.914 99.438 155.988 98.0993C151.305 96.829 150.773 95.543 150.172 93.1922C150.085 92.8549 149.995 92.5044 149.882 92.1275C149.408 90.5647 147.051 88.9492 145.286 87.9636C147.27 92.9497 147.636 101.022 147.652 101.399C147.665 101.683 147.468 101.931 147.188 101.986C146.912 102.042 146.635 101.884 146.54 101.615C145.66 99.1324 141.035 95.4112 137.82 93.0552C140.026 97.1005 140.307 102.242 140.321 102.521C140.331 102.738 140.218 102.943 140.028 103.049C139.825 103.162 134.973 105.866 129.265 106.901C124.548 107.758 120.247 99.5276 118.46 95.5324C118.249 99.4249 118.94 103.557 119.269 104.759C119.68 106.251 121.591 111.015 121.609 111.063C121.686 111.255 121.654 111.471 121.525 111.632C121.399 111.793 121.19 111.872 120.988 111.84C118.223 111.408 111.355 117.148 108.501 119.788C112.776 126.361 113.087 131.442 111.534 133.413C110.48 134.755 111.118 138.566 111.453 139.923C111.521 140.199 111.376 140.487 111.11 140.592C111.042 140.621 110.968 140.634 110.897 140.634" fill="#144B5F"/>
<path d="M170.719 109.376C168.477 109.656 165.396 111.788 164.969 115.986C164.45 121.091 167.475 125.594 172.696 124.68C178.299 123.702 179.743 119.209 178.633 115.359C177.442 111.234 174.654 108.883 170.719 109.376Z" fill="white"/>
<path d="M164.993 116.868C165.525 112.736 168.814 109.803 172.135 110.206C173.479 110.37 175 111.094 176.027 112.28C177.176 113.606 177.556 115.472 178.647 116.8C178.821 117.011 179.211 117.1 179.301 116.758C179.872 114.573 178.212 112.035 176.844 110.691C175.421 109.289 173.455 108.48 171.705 108.451C169.921 108.422 168.042 109.165 166.701 110.565C165.088 112.249 164.816 114.209 164.835 116.821C164.835 116.969 164.967 117.042 164.988 116.868" fill="#144B5F"/>
<path d="M167.829 118.049C167.373 114.52 169.268 111.366 172.059 111.005C174.852 110.643 177.485 113.213 177.941 116.744C178.397 120.276 176.502 123.428 173.711 123.789C170.92 124.15 168.285 121.58 167.829 118.049Z" fill="#144B5F"/>
<path d="M173.944 116.484C173.799 115.356 174.403 114.347 175.296 114.231C176.19 114.115 177.03 114.937 177.178 116.065C177.323 117.193 176.719 118.2 175.826 118.315C174.933 118.431 174.092 117.609 173.947 116.481" fill="white"/>
<path d="M140.146 114.23C142.402 114.085 145.828 115.601 147.035 119.641C148.506 124.558 146.376 129.547 141.079 129.632C135.392 129.721 133.131 125.584 133.497 121.591C133.893 117.316 136.191 114.483 140.146 114.23Z" fill="white"/>
<path d="M147.181 120.516C145.884 116.557 142.1 114.294 138.916 115.313C137.627 115.727 136.27 116.723 135.482 118.081C134.602 119.599 134.578 121.501 133.756 123.011C133.627 123.251 133.258 123.412 133.105 123.093C132.133 121.053 133.287 118.252 134.378 116.673C135.511 115.029 137.29 113.867 139.003 113.508C140.75 113.144 142.735 113.521 144.316 114.644C146.216 115.996 146.851 117.87 147.323 120.439C147.349 120.584 147.236 120.682 147.181 120.516Z" fill="#144B5F"/>
<path d="M146.647 120.395C145.58 117 142.536 114.931 139.851 115.777C137.165 116.623 135.853 120.06 136.923 123.454C137.99 126.849 141.034 128.917 143.719 128.071C146.405 127.226 147.715 123.789 146.647 120.395Z" fill="#144B5F"/>
<path d="M146.028 120.827C145.517 119.809 144.45 119.314 143.646 119.717C142.842 120.123 142.605 121.275 143.116 122.289C143.628 123.307 144.695 123.802 145.499 123.396C146.302 122.993 146.54 121.841 146.028 120.824" fill="white"/>
<path d="M102.81 71.4503C102.81 71.4503 102.628 78.0203 106.096 76.7342C109.564 75.4481 111.428 71.8482 110.258 68.691C109.087 65.5338 105.329 64.0159 101.861 65.2993C98.393 66.5828 102.81 71.4503 102.81 71.4503Z" fill="#F89522"/>
<path d="M121.431 64.5511C121.431 64.5511 125.848 69.416 122.379 70.7021C118.911 71.9855 115.153 70.4675 113.983 67.3103C112.813 64.1531 114.676 60.5505 118.142 59.2671C121.61 57.9837 121.428 64.5511 121.428 64.5511" fill="#F89522"/>
<path d="M114.447 67.2285C115.003 68.7307 114.384 70.3409 113.063 70.8311C111.743 71.3212 110.222 70.5017 109.666 68.9995C109.11 67.4973 109.73 65.8871 111.05 65.3969C112.37 64.9067 113.891 65.729 114.447 67.2285Z" fill="#F89522"/>
</g>
</g>
</g>
</svg>
