<svg width="287" height="360" viewBox="0 0 287 360" fill="none" xmlns="http://www.w3.org/2000/svg">
<mask id="mask0_195_8637" style="mask-type:luminance" maskUnits="userSpaceOnUse" x="0" y="0" width="360" height="360">
<path d="M359.37 0H0V359.37H359.37V0Z" fill="white"/>
</mask>
<g mask="url(#mask0_195_8637)">
<mask id="mask1_195_8637" style="mask-type:luminance" maskUnits="userSpaceOnUse" x="-1" y="0" width="361" height="360">
<path d="M359.369 0H-0.000976562V359.37H359.369V0Z" fill="white"/>
</mask>
<g mask="url(#mask1_195_8637)">
<mask id="mask2_195_8637" style="mask-type:luminance" maskUnits="userSpaceOnUse" x="-1" y="0" width="361" height="360">
<path d="M359.367 0H-0.00299072V359.37H359.367V0Z" fill="white"/>
</mask>
<g mask="url(#mask2_195_8637)">
<path d="M247.493 258.071C247.493 258.071 259.253 270.137 264.34 279.42C269.428 288.704 265.186 297.781 255.599 297.469C246.013 297.156 231.524 283.254 228.337 280.216C236.393 270.912 247.496 258.071 247.496 258.071" fill="#FDCC9C"/>
<path d="M155.403 265.681C155.403 265.681 147.343 280.475 144.954 290.79C142.565 301.102 149.104 308.696 158.248 305.804C167.395 302.913 177.587 285.613 179.833 281.826C169.564 275.045 155.403 265.684 155.403 265.684" fill="#FDCC9C"/>
<path d="M254.022 299.402C253.982 299.402 253.942 299.402 253.906 299.402C253.666 299.402 253.433 299.395 253.197 299.378C253.097 299.375 252.954 299.365 252.804 299.352C252.638 299.338 252.458 299.315 252.279 299.295C252.209 299.288 252.142 299.278 252.072 299.269C251.893 299.249 251.673 299.209 251.457 299.172L251.384 299.155C251.124 299.115 250.871 299.059 250.618 299.006C250.538 298.989 250.459 298.969 250.375 298.946C250.236 298.912 250.096 298.876 249.956 298.839C249.86 298.819 249.783 298.799 249.733 298.783C249.65 298.763 249.567 298.736 249.487 298.709C249.43 298.696 249.374 298.68 249.321 298.663L249.257 298.643C249.068 298.583 248.878 298.526 248.682 298.46C248.572 298.423 248.459 298.387 248.352 298.343C248.182 298.287 248.009 298.224 247.83 298.157C247.517 298.047 247.181 297.911 246.831 297.768L246.598 297.671C246.529 297.641 246.459 297.611 246.389 297.581L246.362 297.568C246.309 297.545 246.256 297.522 246.203 297.498C246.076 297.445 245.956 297.388 245.836 297.332L245.627 297.239C245.567 297.212 245.507 297.185 245.447 297.152C245.198 297.032 244.945 296.913 244.689 296.789L244.612 296.75L244.662 296.773L244.585 296.736C244.189 296.537 243.8 296.327 243.404 296.114C243.261 296.044 243.085 295.941 242.908 295.841L242.772 295.765C242.589 295.668 242.393 295.555 242.2 295.442L242.14 295.405C242.02 295.332 241.897 295.259 241.777 295.189C241.634 295.102 241.491 295.019 241.348 294.933C241.201 294.843 241.065 294.753 240.928 294.667C240.802 294.593 240.676 294.51 240.552 294.427H240.536C240.063 294.124 239.577 293.811 239.112 293.495C232.803 289.276 227.269 284.012 225.183 282.029L225.04 281.892L224.913 279.174C233.475 269.344 245.288 255.775 245.288 255.775L248.183 255.695C248.183 255.695 248.379 255.894 248.731 256.274L248.841 256.39C248.894 256.444 248.951 256.5 249.004 256.56C249.104 256.67 249.187 256.76 249.277 256.856L249.514 257.109C250.096 257.731 250.815 258.517 251.636 259.435C251.68 259.482 251.736 259.548 251.796 259.615L251.899 259.734C252.102 259.951 252.305 260.187 252.512 260.423L253.114 261.105C254.954 263.225 256.548 265.145 257.999 266.988C258.175 267.211 258.358 267.451 258.544 267.694L258.617 267.79C258.817 268.037 259.037 268.323 259.253 268.619C259.636 269.121 260.048 269.67 260.448 270.223C260.917 270.865 261.396 271.54 261.905 272.289L262.185 272.698C262.374 272.978 262.567 273.261 262.754 273.55C262.77 273.574 262.79 273.607 262.81 273.637C262.837 273.673 262.857 273.707 262.877 273.743C263 273.933 263.123 274.123 263.243 274.316C263.359 274.489 263.472 274.672 263.582 274.851C263.672 274.994 263.778 275.167 263.885 275.34L264.198 275.896C264.168 275.826 264.135 275.76 264.101 275.7L264.128 275.74C264.171 275.816 264.191 275.853 264.214 275.886L264.274 275.983C264.344 276.106 264.417 276.229 264.484 276.355C264.587 276.532 264.683 276.695 264.773 276.861C264.91 277.097 265.059 277.383 265.206 277.66C268.6 284.112 268.074 291.109 263.862 295.485C263.719 295.635 263.575 295.771 263.426 295.914C263.263 296.064 263.14 296.177 263.003 296.294C262.877 296.4 262.73 296.523 262.577 296.643L262.151 296.962C260.943 297.811 259.612 298.443 258.188 298.843C258.015 298.892 257.812 298.942 257.613 298.992C257.47 299.029 257.32 299.062 257.17 299.089C256.997 299.125 256.824 299.162 256.648 299.195C256.158 299.272 255.723 299.325 255.3 299.355C254.844 299.392 254.428 299.408 254.036 299.408M252.638 295.379L252.745 295.389C252.884 295.405 253.024 295.425 253.167 295.435C253.277 295.445 253.363 295.448 253.446 295.455C253.646 295.468 253.799 295.468 253.952 295.472C254.269 295.472 254.608 295.462 254.994 295.432C255.313 295.409 255.646 295.369 255.989 295.315C256.089 295.295 256.232 295.265 256.375 295.232L256.505 295.209C256.558 295.199 256.611 295.186 256.664 295.172C256.817 295.136 256.96 295.099 257.1 295.059C258.098 294.78 259.02 294.344 259.855 293.761L260.178 293.519C260.268 293.449 260.368 293.365 260.464 293.282C260.564 293.199 260.637 293.133 260.714 293.059C260.813 292.963 260.92 292.866 261.023 292.757C264.038 289.629 264.308 284.421 261.715 279.493C261.589 279.25 261.459 279.011 261.326 278.774C261.23 278.595 261.15 278.462 261.07 278.325L260.997 278.192C260.967 278.136 260.937 278.079 260.903 278.026C260.847 277.939 260.794 277.846 260.74 277.753C260.717 277.72 260.691 277.673 260.661 277.616L260.517 277.384C260.428 277.234 260.335 277.077 260.235 276.924C260.128 276.748 260.035 276.602 259.945 276.462L259.899 276.392C259.792 276.219 259.682 276.049 259.569 275.879L259.466 275.713C259.276 275.424 259.107 275.174 258.934 274.918L258.651 274.502C258.172 273.796 257.719 273.154 257.27 272.542C256.884 272.01 256.491 271.487 256.102 270.975C255.896 270.695 255.719 270.459 255.53 270.226L255.426 270.093C255.257 269.87 255.09 269.654 254.921 269.441C253.5 267.634 251.946 265.764 250.159 263.707L249.554 263.022C249.371 262.812 249.191 262.606 249.011 262.41C248.948 262.34 248.888 262.273 248.828 262.207L248.725 262.087C248.006 261.285 247.361 260.576 246.825 260.004C243.631 263.671 235.678 272.808 229.119 280.338C231.655 282.714 236.243 286.847 241.308 290.238C241.75 290.537 242.196 290.823 242.636 291.103L242.629 291.116L242.695 291.136C242.775 291.189 242.855 291.246 242.935 291.289L243.417 291.592C243.527 291.658 243.657 291.735 243.783 291.808C243.92 291.888 244.056 291.971 244.19 292.051C244.333 292.134 244.486 292.221 244.639 292.304L244.695 292.334C244.758 292.371 244.825 292.407 244.895 292.447C244.992 292.504 245.111 292.574 245.234 292.633C245.644 292.853 246.006 293.046 246.372 293.232C246.682 293.382 246.938 293.505 247.198 293.628L247.224 293.642C247.224 293.642 247.194 293.628 247.181 293.622L247.291 293.675C247.291 293.675 247.261 293.658 247.244 293.652L247.49 293.765C247.57 293.801 247.65 293.838 247.73 293.871C247.767 293.885 247.823 293.911 247.88 293.938C247.863 293.931 247.833 293.918 247.8 293.908L248.093 294.031C248.149 294.054 248.206 294.078 248.262 294.101L248.322 294.124C248.615 294.244 248.895 294.36 249.181 294.46C249.364 294.527 249.51 294.58 249.657 294.63L249.796 294.683C249.836 294.7 249.879 294.71 249.923 294.726C250.092 294.783 250.259 294.833 250.422 294.883L250.495 294.903C250.472 294.896 250.448 294.893 250.425 294.886L250.721 294.973C250.668 294.963 250.605 294.953 250.535 294.949L250.805 294.999C250.805 294.999 250.805 294.999 250.801 294.999L250.938 295.023C251.047 295.053 251.157 295.086 251.267 295.109L251.48 295.162C251.663 295.202 251.846 295.246 252.039 295.272L252.079 295.322L252.086 295.285C252.125 295.292 252.165 295.299 252.209 295.309C252.329 295.329 252.448 295.352 252.568 295.365L252.708 295.385C252.708 295.385 252.668 295.382 252.638 295.379ZM250.845 295.003C250.845 295.003 250.798 294.989 250.761 294.983C250.748 294.976 250.731 294.973 250.718 294.969L250.848 295.003H250.845Z" fill="#144B5F"/>
<path d="M246.606 259.771L246.4 259.548C246.284 259.425 246.174 259.309 246.077 259.199L248.966 256.527C249.095 256.66 249.235 256.813 249.388 256.979L249.505 257.106L246.61 259.771H246.606Z" fill="#144B5F"/>
<path d="M259.889 276.382C259.783 276.209 259.673 276.039 259.563 275.87L259.506 275.78L262.774 273.584C262.797 273.617 262.817 273.647 262.834 273.677V273.684C262.95 273.857 263.064 274.026 263.173 274.196C263.207 274.246 263.257 274.332 263.3 274.416L262.079 275.058L259.892 276.379L259.889 276.382Z" fill="#144B5F"/>
<path d="M260.933 278.079C260.87 277.983 260.803 277.876 260.74 277.763C260.677 277.66 260.613 277.547 260.56 277.417L264.134 275.773C264.121 275.747 264.104 275.72 264.091 275.694L264.121 275.743C264.121 275.743 264.114 275.73 264.111 275.72L264.211 275.887L264.2 275.873C264.2 275.873 264.2 275.873 264.204 275.877L264.19 275.883C264.19 275.883 264.19 275.88 264.19 275.877L264.164 275.893L264.194 275.88L260.94 278.066L260.933 278.079Z" fill="#144B5F"/>
<path d="M251.52 299.176C251.454 299.169 251.391 299.159 251.324 299.146L250.738 299.026C250.699 299.016 250.655 299.006 250.615 298.999L250.695 298.637L249.783 297.126L251.018 297.182L251.154 296.567L251.467 295.156L251.7 295.206C251.81 295.229 251.916 295.249 252.03 295.266L252.435 295.758L253.717 297.302L252.628 297.252L253.088 298.67L251.554 298.906L251.52 299.172V299.176Z" fill="#144B5F"/>
<path d="M250.512 298.969C250.339 298.939 250.179 298.899 250.006 298.853L249.863 298.813C249.797 298.796 249.744 298.78 249.707 298.77L250.778 294.979L250.928 295.013C251.038 295.043 251.148 295.076 251.257 295.099L250.515 298.966L250.512 298.969Z" fill="#144B5F"/>
<path d="M249.797 298.793C249.724 298.776 249.654 298.756 249.585 298.736L249.285 298.65L250.373 294.866L250.446 294.886L250.782 294.983V294.99C250.749 294.976 250.713 294.966 250.683 294.956L250.782 294.99L249.794 298.793H249.797Z" fill="#144B5F"/>
<path d="M247.568 297.871L246.883 297.755L246.876 297.778L246.73 297.728V297.722L246.663 297.692L246.596 297.668C246.526 297.638 246.457 297.612 246.387 297.579L247.435 295.176L247.392 293.942L247.448 295.153L247.961 293.975C248.017 293.998 248.071 294.021 248.117 294.041C248.177 294.065 248.237 294.091 248.297 294.118V294.125C248.32 294.135 248.343 294.148 248.367 294.161L248.247 294.387L247.571 297.875L247.568 297.871Z" fill="#144B5F"/>
<path d="M241.324 294.92C241.297 294.903 241.271 294.887 241.247 294.87L240.582 294.454C240.549 294.434 240.489 294.394 240.436 294.358L241.487 290.787L242.688 291.12C242.768 291.173 242.848 291.23 242.928 291.273L243.324 291.523C243.367 291.549 243.407 291.576 243.45 291.602L241.663 294.391L241.677 294.717H241.667L241.654 294.407L241.331 294.91L241.284 294.883C241.284 294.883 241.311 294.903 241.331 294.913L241.324 294.92Z" fill="#144B5F"/>
<path d="M259.888 276.382C259.782 276.209 259.672 276.04 259.562 275.87L262.846 273.7C262.956 273.867 263.062 274.03 263.166 274.19C263.202 274.246 263.252 274.333 263.296 274.416L262.074 275.058L259.888 276.379V276.382Z" fill="#144B5F"/>
<path d="M261.077 278.186L261.603 277.63L260.931 278.083C260.864 277.983 260.794 277.866 260.728 277.75L263.799 275.347L263.816 275.364L264.132 275.78L264.135 275.787C264.135 275.793 264.142 275.797 264.142 275.803L264.202 275.9L264.192 275.89C264.192 275.89 264.192 275.89 264.192 275.893L261.633 277.613L261.067 278.196L261.077 278.186Z" fill="#144B5F"/>
<path d="M251.514 299.169L250.742 299.026C250.699 299.016 250.659 299.009 250.616 298.999L251.468 295.156L251.701 295.206C251.81 295.229 251.92 295.253 252.03 295.266L251.518 299.169H251.514Z" fill="#144B5F"/>
<path d="M250.512 298.969C250.342 298.939 250.179 298.9 250.006 298.853C249.836 298.806 249.686 298.756 249.566 298.7L250.924 295.016C251.034 295.046 251.144 295.08 251.254 295.103L250.512 298.969ZM251.174 295.106L251.157 295.199L251.194 295.116C251.194 295.116 251.18 295.11 251.17 295.106" fill="#144B5F"/>
<path d="M249.684 298.75C249.624 298.74 249.564 298.723 249.504 298.71H249.494L249.288 298.65L249.87 296.633L248.716 295.372L249.874 296.623L250.379 294.866L250.453 294.886L250.592 294.93L250.509 295.213L251.378 298.264L251.371 298.271L249.697 298.663L249.681 298.75H249.684Z" fill="#144B5F"/>
<path d="M248.708 298.467C248.589 298.431 248.472 298.391 248.356 298.351L248.129 298.274C248.02 298.234 247.9 298.188 247.783 298.141L249.201 294.468C249.354 294.524 249.503 294.577 249.647 294.627L249.783 294.677C249.823 294.694 249.866 294.707 249.909 294.72L248.708 298.467Z" fill="#144B5F"/>
<path d="M247.568 297.871L246.883 297.755L246.876 297.778L246.73 297.728V297.722L246.663 297.692L246.596 297.668C246.526 297.638 246.457 297.612 246.387 297.579L247.435 295.176L247.392 293.942L247.448 295.153L247.961 293.975C248.017 293.998 248.071 294.021 248.117 294.041C248.177 294.065 248.237 294.091 248.297 294.118V294.125C248.32 294.135 248.343 294.148 248.367 294.161L248.247 294.387L247.571 297.875L247.568 297.871Z" fill="#144B5F"/>
<path d="M253.439 296.304C249.802 296.184 245.463 294.111 241.3 291.42C255.732 292.308 258.484 279.664 258.949 273.142C260.167 274.879 261.279 276.612 262.184 278.259C267.272 287.543 263.029 296.62 253.439 296.308" fill="#231F20"/>
<path d="M241.145 292.654C240.603 292.654 240.164 292.214 240.16 291.672C240.16 291.13 240.596 290.687 241.142 290.687C247.092 290.671 251.504 288.987 254.256 285.686C258.774 280.265 257.38 272.163 257.364 272.083C257.267 271.547 257.623 271.035 258.155 270.938C258.695 270.839 259.203 271.195 259.3 271.73C259.367 272.1 260.881 280.798 255.776 286.934C252.632 290.714 247.71 292.637 241.145 292.654Z" fill="#144B5F"/>
<path d="M149.362 285.097C149.449 285.38 149.535 285.663 149.615 285.939C149.599 285.869 149.575 285.806 149.552 285.733C149.419 285.267 149.269 284.794 149.096 284.315C149.096 284.308 149.103 284.308 149.103 284.298C149.189 284.565 149.282 284.834 149.362 285.094" fill="#59595B"/>
<path d="M150.301 288.664C150.261 288.451 150.215 288.248 150.168 288.035C150.191 288.139 150.215 288.232 150.238 288.335C150.261 288.445 150.285 288.554 150.301 288.664Z" fill="#59595B"/>
<path d="M154.48 307.877C154.45 307.877 154.423 307.877 154.397 307.877C152.946 307.877 151.495 307.631 150.108 307.141L149.619 306.952C149.429 306.875 149.256 306.795 149.083 306.716C148.94 306.652 148.79 306.576 148.634 306.496L148.577 306.466C148.404 306.373 148.234 306.283 148.061 306.183C142.821 303.109 140.421 296.513 141.949 289.376C142.012 289.073 142.082 288.76 142.158 288.451C142.192 288.301 142.238 288.115 142.288 287.925C142.318 287.785 142.351 287.652 142.388 287.516L142.464 287.24C142.458 287.263 142.448 287.323 142.438 287.389L142.584 286.791C142.637 286.594 142.694 286.395 142.754 286.195C142.804 286.022 142.86 285.819 142.924 285.623C142.987 285.403 143.053 285.19 143.12 284.974C143.13 284.937 143.14 284.9 143.157 284.857C143.17 284.817 143.183 284.774 143.197 284.731C143.29 284.425 143.396 284.102 143.509 283.769L143.666 283.31C143.952 282.458 144.228 281.676 144.511 280.921C144.744 280.292 144.99 279.65 145.24 279.021C145.353 278.718 145.483 278.385 145.629 278.049L145.649 278.003C145.765 277.71 145.878 277.424 145.998 277.144C146.89 274.998 147.905 272.722 149.099 270.193L149.505 269.351C149.642 269.062 149.775 268.789 149.908 268.526L149.978 268.383C150.015 268.303 150.054 268.223 150.094 268.147C150.614 267.092 151.106 266.11 151.509 265.338L151.665 265.039C151.725 264.922 151.781 264.816 151.831 264.716C151.878 264.619 151.918 264.549 151.958 264.48L152.011 264.38C152.271 263.877 152.407 263.631 152.407 263.631L155.215 262.929C155.215 262.929 170.256 272.802 181.153 279.952L181.765 282.605L181.669 282.768C180.198 285.24 176.292 291.805 171.347 297.588C170.991 298.008 170.609 298.44 170.236 298.856L170.219 298.866C170.122 298.982 170.02 299.096 169.92 299.202C169.81 299.322 169.703 299.445 169.6 299.558C169.474 299.695 169.357 299.818 169.238 299.941L168.951 300.244C168.762 300.44 168.599 300.61 168.426 300.773L168.309 300.892C168.176 301.029 168.04 301.165 167.897 301.298C167.6 301.581 167.284 301.887 166.958 302.187L166.888 302.247C166.888 302.247 166.878 302.257 166.865 302.27C166.656 302.456 166.449 302.639 166.243 302.819C166.193 302.866 166.143 302.909 166.093 302.949L165.913 303.102C165.814 303.188 165.714 303.272 165.614 303.351C165.567 303.391 165.521 303.431 165.474 303.468L165.447 303.491C165.391 303.538 165.334 303.584 165.278 303.628L165.081 303.781C164.782 304.014 164.492 304.237 164.196 304.446C164.067 304.543 163.917 304.646 163.77 304.746C163.68 304.812 163.584 304.879 163.488 304.945C163.308 305.065 163.142 305.175 162.975 305.281L162.922 305.315C162.872 305.345 162.822 305.378 162.769 305.408C162.699 305.458 162.626 305.501 162.549 305.544C162.503 305.574 162.436 305.614 162.35 305.657C162.227 305.734 162.1 305.807 161.973 305.874C161.9 305.917 161.834 305.954 161.764 305.99C161.541 306.11 161.325 306.226 161.098 306.33C161.115 306.32 161.132 306.31 161.148 306.3L161.072 306.34C161.072 306.34 161.058 306.346 161.052 306.35L160.972 306.393C160.972 306.393 160.992 306.383 161.005 306.376L160.995 306.383C160.812 306.473 160.626 306.559 160.44 306.639C160.363 306.676 160.3 306.702 160.237 306.729C160.064 306.802 159.897 306.869 159.727 306.935C159.611 306.982 159.478 307.025 159.342 307.072C159.149 307.142 158.926 307.208 158.703 307.271C158.287 307.391 157.847 307.497 157.355 307.594C156.946 307.674 156.513 307.744 156.067 307.797C155.841 307.82 155.661 307.83 155.485 307.84C155.342 307.854 155.196 307.864 155.049 307.867H154.989C154.823 307.874 154.656 307.877 154.493 307.877M158.982 303.032C158.353 303.521 158.08 304.33 158.29 305.098L159.165 303.265L158.985 303.032H158.982ZM154.437 303.94C154.593 303.94 154.733 303.937 154.873 303.934C154.966 303.934 155.019 303.934 155.072 303.924L155.202 303.91C155.372 303.901 155.508 303.894 155.645 303.881C155.941 303.844 156.277 303.791 156.586 303.731C156.969 303.654 157.302 303.574 157.605 303.488C157.751 303.445 157.901 303.401 158.051 303.348C158.16 303.311 158.243 303.282 158.33 303.248C158.483 303.192 158.609 303.139 158.733 303.085L158.906 303.009C159.032 302.956 159.158 302.896 159.282 302.836L159.342 302.806L159.358 302.842L159.388 302.776C159.561 302.699 159.727 302.609 159.894 302.52L160.084 302.413C160.183 302.36 160.277 302.3 160.376 302.24L160.759 302.057C160.686 302.084 160.623 302.11 160.573 302.137L160.842 301.967C160.819 301.977 160.799 301.991 160.776 302.004L160.866 301.947C160.985 301.871 161.128 301.778 161.278 301.678C161.315 301.654 161.351 301.631 161.385 301.604L161.501 301.521C161.627 301.435 161.757 301.345 161.89 301.245C162.166 301.049 162.406 300.863 162.659 300.666L162.706 300.633C162.752 300.593 162.802 300.553 162.852 300.516L163.108 300.313C163.078 300.333 163.048 300.357 163.018 300.38C163.078 300.33 163.125 300.29 163.175 300.25C163.225 300.21 163.291 300.154 163.358 300.097L163.564 299.924C163.547 299.941 163.531 299.957 163.511 299.974L163.611 299.884C163.611 299.884 163.591 299.901 163.577 299.911L163.597 299.891C163.81 299.705 164.023 299.518 164.243 299.325L164.283 299.292C164.586 299.012 164.885 298.726 165.185 298.437C165.311 298.317 165.408 298.224 165.501 298.127C165.554 298.071 165.617 298.011 165.677 297.951C165.837 297.798 165.963 297.668 166.093 297.535C166.176 297.445 166.283 297.335 166.389 297.222C166.492 297.112 166.599 297.006 166.699 296.896L167.071 296.483C167.134 296.42 167.194 296.347 167.258 296.274L167.317 296.237L167.307 296.227C167.653 295.845 168.006 295.445 168.342 295.049C172.312 290.407 175.613 285.19 177.413 282.215C169.064 276.738 158.936 270.09 154.869 267.421C154.503 268.133 154.074 268.985 153.618 269.917L153.538 270.083C153.498 270.166 153.458 270.246 153.419 270.329C153.299 270.562 153.186 270.802 153.072 271.041L152.653 271.91C151.495 274.359 150.504 276.582 149.632 278.685C149.515 278.958 149.412 279.217 149.306 279.48L149.269 279.573C149.133 279.896 149.023 280.169 148.92 280.452C148.664 281.094 148.431 281.703 148.204 282.312C147.935 283.034 147.672 283.772 147.399 284.584L147.243 285.047C147.139 285.35 147.043 285.636 146.957 285.925L146.887 286.158C146.827 286.351 146.764 286.544 146.71 286.741L146.687 286.82C146.634 286.98 146.587 287.15 146.541 287.313C146.481 287.516 146.431 287.692 146.384 287.865L146.311 288.128C146.298 288.195 146.281 288.255 146.264 288.311C146.244 288.394 146.218 288.491 146.191 288.581C146.175 288.644 146.158 288.707 146.145 288.77L146.115 288.9C146.071 289.063 146.031 289.216 145.995 289.373C145.918 289.682 145.858 289.952 145.805 290.211C144.637 295.662 146.308 300.6 150.054 302.799C150.178 302.872 150.301 302.936 150.427 303.005C150.524 303.055 150.614 303.102 150.71 303.145C150.846 303.208 150.963 303.262 151.079 303.308L151.445 303.451C152.404 303.784 153.405 303.954 154.42 303.954H154.427L154.437 303.94ZM158.859 303.039C158.832 303.049 158.806 303.059 158.779 303.069L158.859 303.039ZM160.463 302.203L160.586 302.13C160.586 302.13 160.559 302.147 160.546 302.157C160.51 302.177 160.48 302.193 160.463 302.203Z" fill="#144B5F"/>
<path d="M155.005 267.138L151.495 265.355L151.558 265.232C151.664 265.019 151.764 264.826 151.857 264.653L155.358 266.45C155.295 266.579 155.225 266.716 155.148 266.859L155.005 267.138Z" fill="#144B5F"/>
<path d="M146.707 286.724L144.807 286.195L142.893 285.762C142.913 285.659 142.94 285.556 142.973 285.453L143.15 284.887C143.15 284.887 143.159 284.854 143.166 284.837L146.916 286.035L146.883 286.142C146.823 286.335 146.76 286.528 146.707 286.724Z" fill="#144B5F"/>
<path d="M146.163 288.641L142.43 287.396L142.413 287.456L142.473 287.223C142.473 287.223 142.47 287.243 142.466 287.257L142.48 287.207C142.473 287.233 142.466 287.263 142.46 287.293L146.343 287.922C146.326 288.055 146.296 288.178 146.266 288.288C146.233 288.411 146.203 288.531 146.166 288.641" fill="#144B5F"/>
<path d="M160.926 306.406L160.833 306.183L159.196 306.297L159.289 304.826L158.277 305.099L159.152 303.265L159.385 302.779C159.482 302.736 159.578 302.686 159.675 302.64L159.898 302.52L160.603 303.838L160.896 304.383L162.077 304.06L161.558 305.621L161.755 305.99C161.708 306.014 161.661 306.04 161.615 306.064L161.112 306.32C161.049 306.35 160.993 306.376 160.929 306.403" fill="#144B5F"/>
<path d="M161.848 305.93L160.081 302.413C160.181 302.36 160.274 302.3 160.374 302.24L160.507 302.167V302.174L162.563 305.521C162.53 305.541 162.483 305.574 162.417 305.611L162.3 305.681C162.15 305.774 162.004 305.854 161.848 305.93ZM160.45 302.2C160.45 302.2 160.45 302.2 160.447 302.2H160.45Z" fill="#144B5F"/>
<path d="M162.47 305.574L160.49 302.174L160.783 301.994C160.783 301.994 160.773 302.001 160.766 302.004L160.856 301.947L162.933 305.291L162.673 305.454C162.606 305.498 162.537 305.538 162.467 305.574M160.593 302.114C160.56 302.13 160.527 302.154 160.494 302.18L160.593 302.117V302.114Z" fill="#144B5F"/>
<path d="M164.365 304.084L162.771 300.889L162.608 300.716C162.625 300.7 162.645 300.683 162.662 300.667C162.708 300.623 162.758 300.583 162.808 300.543C162.841 300.517 162.875 300.49 162.911 300.46L163.783 301.515V301.502L165.43 303.482C165.373 303.528 165.317 303.575 165.26 303.618L165.201 303.665L165.161 303.695H165.164L165.041 303.788L165.027 303.764L164.369 304.077L164.365 304.084Z" fill="#144B5F"/>
<path d="M169.59 299.552C169.607 299.532 169.624 299.515 169.64 299.498L169.587 299.548L169.131 299.146L169.201 299.455L169.128 299.146L166.642 296.946C166.669 296.913 166.709 296.866 166.762 296.813L167.068 296.477C167.131 296.414 167.191 296.337 167.255 296.267L168.329 295.618L170.296 298.776C170.256 298.826 170.213 298.876 170.166 298.926L170.189 298.896L169.654 299.485C169.634 299.508 169.614 299.532 169.594 299.552" fill="#144B5F"/>
<path d="M146.707 286.724L144.807 286.195L142.893 285.762C142.913 285.659 142.94 285.556 142.973 285.453C143.026 285.287 143.08 285.114 143.136 284.937L146.883 286.142C146.823 286.335 146.76 286.528 146.707 286.724Z" fill="#144B5F"/>
<path d="M146.045 288.788L145.323 288.362L142.424 287.397L142.408 287.457L142.451 287.303L142.654 286.791L146.078 288.182L146.271 288.225C146.271 288.225 146.268 288.245 146.264 288.258C146.264 288.265 146.264 288.272 146.261 288.278H146.268C146.234 288.405 146.201 288.528 146.165 288.638L145.436 288.395L146.061 288.764L146.048 288.784L146.045 288.788ZM144.927 287.919L145.123 287.962L144.361 287.766L144.927 287.916V287.919Z" fill="#144B5F"/>
<path d="M160.916 306.403L159.382 302.779C159.479 302.736 159.575 302.686 159.672 302.64L159.895 302.52L161.751 305.99C161.705 306.014 161.658 306.04 161.612 306.067L160.916 306.406V306.403Z" fill="#144B5F"/>
<path d="M161.848 305.93L160.081 302.413C160.181 302.36 160.277 302.3 160.374 302.24L162.683 305.415C162.53 305.544 162.387 305.631 162.31 305.674C162.15 305.774 162.004 305.854 161.848 305.93ZM160.151 302.4C160.151 302.4 160.137 302.41 160.134 302.413L160.191 302.48L160.151 302.397V302.4Z" fill="#144B5F"/>
<path d="M162.577 305.501L162.534 305.415H160.68L160.82 302.29L160.68 302.06L160.787 301.994C160.787 301.994 160.777 302.001 160.77 302.004L160.86 301.947L161.838 303.521L162.74 302.06H162.747L161.845 303.531L162.94 305.295L162.737 305.418C162.683 305.448 162.63 305.478 162.577 305.504" fill="#144B5F"/>
<path d="M163.441 304.962L161.268 301.681C161.308 301.651 161.348 301.631 161.381 301.605L161.497 301.521C161.624 301.435 161.754 301.345 161.887 301.245L164.249 304.393C164.143 304.473 164.036 304.556 163.936 304.629L163.763 304.749C163.657 304.822 163.554 304.896 163.444 304.965" fill="#144B5F"/>
<path d="M164.365 304.084L162.771 300.889L162.608 300.716C162.625 300.7 162.645 300.683 162.662 300.667C162.708 300.623 162.758 300.583 162.808 300.543C162.841 300.517 162.875 300.49 162.911 300.46L163.783 301.515V301.502L165.43 303.482C165.373 303.528 165.317 303.575 165.26 303.618L165.201 303.665L165.161 303.695H165.164L165.041 303.788L165.027 303.764L164.369 304.077L164.365 304.084Z" fill="#144B5F"/>
<path d="M162.034 302.816C162.174 302.716 162.32 302.609 162.466 302.496C162.38 302.566 162.297 302.633 162.214 302.696C162.154 302.733 162.091 302.779 162.034 302.819" fill="#59595B"/>
<path d="M167.461 297.828C167.567 297.708 167.677 297.582 167.79 297.455C167.71 297.545 167.634 297.628 167.561 297.721C167.524 297.755 167.494 297.791 167.461 297.828Z" fill="#59595B"/>
<path d="M168.08 297.133C168.047 297.176 168 297.223 167.964 297.266C167.907 297.333 167.847 297.389 167.787 297.456C167.884 297.356 167.974 297.246 168.067 297.136H168.077L168.08 297.133Z" fill="#59595B"/>
<path d="M158.301 304.16C161.769 303.062 165.389 299.895 168.67 296.174C155.017 300.929 148.948 289.496 146.738 283.344C146.036 285.347 145.434 287.317 145.008 289.143C142.619 299.455 149.157 307.049 158.301 304.157" fill="#231F20"/>
<path d="M162.312 298.34C158.945 298.34 156 297.482 153.514 295.768C146.942 291.24 146.047 282.455 146.014 282.082C145.964 281.54 146.36 281.061 146.903 281.011C147.445 280.961 147.924 281.357 147.974 281.899C147.984 282.006 148.839 290.165 154.642 294.154C158.186 296.59 162.891 297.019 168.621 295.426C169.143 295.283 169.686 295.585 169.832 296.111C169.979 296.633 169.673 297.176 169.147 297.322C166.708 298.001 164.425 298.337 162.312 298.337" fill="#144B5F"/>
<path d="M246.054 256.713L246.23 256.5L243.056 253.695C235.546 246.348 225.223 237.54 218.482 231.924L213.125 226.27L212.037 226.623C211.757 226.397 211.594 226.263 211.594 226.263L193.173 232.732L172.669 239.37L156.391 264.463C161.123 271.228 169.807 276.219 174.902 278.731C174.928 278.745 174.948 278.755 174.975 278.768C175.55 279.051 176.076 279.3 176.546 279.52C176.546 279.52 176.546 279.52 176.549 279.52C176.788 279.63 177.015 279.733 177.224 279.826C177.231 279.826 177.238 279.833 177.244 279.833C177.877 280.116 178.352 280.319 178.632 280.435C178.635 280.435 178.639 280.435 178.642 280.438C178.822 280.512 178.925 280.555 178.925 280.555C178.925 280.555 195.256 262.606 202.174 263.079C204.047 263.209 224.521 278.658 224.521 278.658C236.793 276.006 246.739 257.435 246.739 257.435C246.516 257.199 246.28 256.956 246.05 256.717" fill="#9456A2"/>
<path d="M179.821 284.395L177.731 283.569C177.731 283.569 177.628 283.53 177.451 283.456L177.392 283.433C177.099 283.313 176.609 283.104 175.957 282.811L175.844 282.761C175.638 282.668 175.422 282.568 175.189 282.461L175.142 282.441C174.663 282.219 174.127 281.966 173.545 281.679L170.537 280.205L170.57 280.139C164.76 276.981 157.942 272.336 153.733 266.32L152.479 264.526L170.573 236.632L192.136 229.651L212.227 222.596L212.713 222.989L214.077 222.55L220.709 229.551C227.856 235.51 237.859 244.072 245.269 251.316L250.736 256.148L250.394 256.564L250.716 256.906L249.612 258.969C249.176 259.781 238.797 278.898 225.218 281.833L223.763 282.149L222.576 281.25C213.987 274.768 204.135 267.667 201.622 266.34C200.624 266.493 197.42 267.531 190.129 274.056C185.361 278.325 181.374 282.694 181.335 282.738L179.824 284.398L179.821 284.395ZM177.961 276.585C178.011 276.608 178.06 276.632 178.11 276.655C183.341 271.111 194.871 259.818 201.965 259.818C202.111 259.818 202.254 259.821 202.398 259.831C203.436 259.901 205.166 260.021 225.204 275.094C232.498 272.612 239.446 263.268 242.714 257.918L241.709 256.873L241.729 256.85L240.784 256.008C233.47 248.854 223.487 240.312 216.403 234.409L216.124 234.146L212.177 229.98L211.365 230.243L210.963 229.917L194.175 235.81L174.77 242.092L160.371 264.29C164.94 269.684 172.187 273.757 176.343 275.806L176.533 275.9C177.039 276.149 177.501 276.365 177.917 276.558L177.967 276.582L177.961 276.585Z" fill="#144B5F"/>
<path d="M211.916 225.934C211.916 225.934 235.791 245.167 247.068 257.106C247.068 257.106 237.119 275.677 224.85 278.329C224.85 278.329 204.376 262.876 202.499 262.75C195.581 262.277 179.25 280.226 179.25 280.226C179.25 280.226 163.687 274.103 156.713 264.13L175.587 238.688L211.916 225.934Z" fill="white"/>
<path d="M201.805 262.892C198.478 262.892 190.571 259.592 189.68 259.216C189.017 258.936 188.711 258.174 188.987 257.512C189.267 256.85 190.029 256.54 190.691 256.82C192.977 257.785 199.429 260.294 201.805 260.294C203.679 260.294 209.389 256.557 212.842 253.905C213.411 253.469 214.227 253.575 214.663 254.144C215.098 254.713 214.992 255.529 214.423 255.965C212.916 257.119 205.229 262.886 201.805 262.889V262.892Z" fill="#144B5F"/>
<path d="M143.882 207.653C138.825 198.296 148.837 180.883 161.422 182.534C177.62 184.66 206.689 207.11 218.495 228.633C209.274 237.853 189.519 246.631 171.138 241.187C160.543 216.338 151.622 221.964 143.886 207.653" fill="#00A64F"/>
<path d="M182.963 244.831C179.043 244.831 174.854 244.338 170.578 243.074L169.689 242.811L169.327 241.959C163.347 227.934 158.096 224.091 153.019 220.374C149.362 217.695 145.578 214.93 142.154 208.591C139.353 203.41 140.407 195.66 144.78 189.315C149.109 183.029 155.424 179.762 161.684 180.587C169.912 181.665 181.266 187.565 192.836 196.775C204.602 206.135 214.584 217.406 220.224 227.691L220.936 228.985L219.891 230.03C214.7 235.224 207.031 239.693 198.852 242.292C194.686 243.616 189.159 244.841 182.969 244.841M172.578 239.557C188.467 243.833 206.362 237.151 216.035 228.277C203.607 206.818 175.845 186.42 161.171 184.493C156.413 183.868 151.495 186.506 148.024 191.551C144.47 196.712 143.505 202.811 145.622 206.724C148.626 212.281 151.741 214.564 155.351 217.203C160.499 220.973 166.322 225.232 172.581 239.553" fill="#144B5F"/>
<path d="M181.295 190.24C181.295 190.24 181.295 190.24 181.295 190.243C181.271 190.22 181.245 190.197 181.222 190.173C180.606 189.574 180.173 188.985 179.944 188.347C179.874 188.154 179.83 187.954 179.801 187.751C179.518 185.924 180.762 183.598 183.967 179.612C183.967 179.612 188.013 174.97 192.235 168.847C192.731 168.129 193.231 167.387 193.726 166.631C194.222 165.876 194.715 165.104 195.194 164.322C195.433 163.929 195.673 163.537 195.909 163.141C196.272 162.532 196.621 161.916 196.964 161.301C197.29 160.718 197.61 160.133 197.912 159.547C198.328 158.745 198.721 157.943 199.087 157.145C199.998 155.151 200.727 153.192 201.176 151.345C202.977 143.958 204.531 139.512 207.252 137.286C208.883 135.948 210.936 135.413 213.711 135.516C214.044 135.529 214.37 135.569 214.693 135.619C214.759 135.629 214.829 135.639 214.896 135.652C215.209 135.712 215.515 135.785 215.814 135.879C215.864 135.895 215.914 135.915 215.967 135.932C216.243 136.025 216.513 136.135 216.776 136.258C216.819 136.278 216.862 136.294 216.906 136.318C217.189 136.457 217.465 136.617 217.731 136.794C217.791 136.83 217.847 136.87 217.904 136.91C218.174 137.096 218.436 137.293 218.686 137.512C218.699 137.522 218.712 137.539 218.726 137.549C218.965 137.762 220.879 140.311 220.895 140.341C220.895 140.341 226.649 148.047 220.626 161.929C213.884 177.466 204.627 183.911 195.889 188.187C187.234 192.423 183.754 192.556 181.298 190.237" fill="#FDCC9C"/>
<path d="M185.194 193.714C184.063 193.714 183.025 193.517 182.067 193.098L181.86 193.511L179.86 191.597C178.985 190.749 178.41 189.904 178.09 189.009C177.984 188.716 177.907 188.403 177.854 188.047C177.428 185.272 179.288 182.29 182.429 178.381L182.479 178.321C182.519 178.274 186.505 173.685 190.611 167.733C191.101 167.024 191.59 166.295 192.076 165.553C192.568 164.801 193.054 164.039 193.517 163.29C193.753 162.908 193.986 162.525 194.212 162.139C194.565 161.543 194.907 160.945 195.243 160.346C195.559 159.78 195.869 159.214 196.162 158.645C196.568 157.86 196.95 157.081 197.293 156.329C198.205 154.336 198.867 152.503 199.263 150.882C201.16 143.106 202.793 138.394 206.004 135.765C208.001 134.131 210.47 133.429 213.784 133.549C214.164 133.562 214.549 133.602 215.002 133.676L215.252 133.716C215.651 133.792 216.037 133.885 216.403 134.002C216.459 134.018 216.523 134.042 216.583 134.062C216.945 134.185 217.288 134.325 217.611 134.474C217.671 134.501 217.727 134.524 217.784 134.554C218.113 134.717 218.453 134.91 218.802 135.14L218.985 135.263C219.385 135.539 219.701 135.782 219.983 136.031L220.086 136.128C220.542 136.587 221.977 138.474 222.466 139.166H222.469C222.732 139.515 228.831 147.954 222.429 162.711C215.305 179.129 205.449 185.698 196.751 189.954C192.056 192.253 188.282 193.71 185.194 193.71M182.493 188.659L182.649 188.806C183.943 190.03 185.966 190.852 195.024 186.42C203.08 182.477 212.204 176.391 218.822 161.144C224.326 148.456 219.371 141.585 219.318 141.519L219.228 141.395C218.892 140.943 217.657 139.312 217.351 138.956C217.178 138.807 217.002 138.677 216.789 138.53L216.656 138.441C216.44 138.298 216.233 138.181 216.034 138.081L215.937 138.038C215.744 137.948 215.541 137.865 215.331 137.795L215.235 137.762C215.009 137.689 214.776 137.632 214.536 137.585L214.426 137.565C214.097 137.512 213.857 137.486 213.641 137.479C211.312 137.386 209.731 137.802 208.504 138.807C206.174 140.717 204.707 145.199 203.093 151.81C202.64 153.671 201.895 155.74 200.88 157.96C200.511 158.772 200.098 159.607 199.662 160.449C199.35 161.051 199.024 161.653 198.687 162.252C198.335 162.884 197.975 163.517 197.602 164.139C197.363 164.541 197.12 164.944 196.874 165.343C196.391 166.125 195.889 166.921 195.377 167.699C194.874 168.468 194.365 169.223 193.859 169.955C189.753 175.908 185.873 180.414 185.48 180.863C183.763 182.999 181.527 185.991 181.75 187.438C181.767 187.541 181.784 187.618 181.804 187.671C181.907 187.964 182.133 188.283 182.496 188.649M217.405 138.996C217.405 138.996 217.415 139.006 217.421 139.01L217.405 138.996Z" fill="#144B5F"/>
<path d="M193.726 166.631C193.726 166.631 206.34 160.389 212.929 174.98C212.929 174.98 201.984 190.989 183.59 192.446C183.59 192.446 177.351 190.32 180.522 181.678C183.693 173.037 193.726 166.631 193.726 166.631Z" fill="#00A64F"/>
<path d="M183.337 194.439L182.951 194.31C182.648 194.206 179.963 193.218 178.515 190.187C177.311 187.661 177.361 184.57 178.672 181.003C182.032 171.842 192.231 165.251 192.664 164.974L192.85 164.868C193.09 164.751 198.796 161.986 204.935 164.182C209.108 165.676 212.402 169.037 214.722 174.172L215.178 175.18L214.552 176.092C214.083 176.777 202.856 192.895 183.743 194.406L183.337 194.439ZM194.68 168.358C193.642 169.051 185.104 174.907 182.365 182.357C181.433 184.893 181.334 186.956 182.066 188.49C182.598 189.604 183.467 190.193 183.923 190.44C198.407 189.062 208.09 177.998 210.632 174.754C208.835 171.233 206.486 168.931 203.644 167.903C199.458 166.385 195.339 168.066 194.677 168.355" fill="#144B5F"/>
<path d="M144.898 212.198C144.898 212.198 144.898 212.198 144.898 212.195C144.868 212.208 144.835 212.218 144.805 212.232C144.006 212.541 143.377 212.917 142.918 213.419C142.778 213.569 142.662 213.736 142.552 213.912C141.58 215.486 141.82 218.111 143.221 223.029C143.221 223.029 145.137 228.879 146.645 236.163C146.821 237.018 146.994 237.897 147.157 238.785C147.32 239.673 147.47 240.575 147.61 241.484C147.679 241.936 147.746 242.392 147.809 242.848C147.906 243.55 147.989 244.252 148.065 244.954C148.139 245.616 148.205 246.282 148.255 246.937C148.325 247.839 148.375 248.731 148.402 249.606C148.465 251.796 148.375 253.885 148.069 255.762C146.851 263.269 146.555 267.967 148.192 271.078C149.174 272.945 150.854 274.24 153.449 275.224C153.759 275.341 154.075 275.434 154.394 275.511C154.461 275.527 154.528 275.544 154.594 275.557C154.904 275.624 155.213 275.674 155.526 275.704C155.579 275.707 155.632 275.71 155.685 275.714C155.975 275.734 156.264 275.74 156.557 275.73C156.604 275.73 156.654 275.73 156.7 275.727C157.017 275.71 157.333 275.667 157.645 275.61C157.715 275.597 157.782 275.584 157.852 275.57C158.171 275.504 158.49 275.424 158.807 275.321C158.823 275.314 158.84 275.308 158.857 275.301C159.163 275.198 161.915 273.594 161.941 273.574C161.941 273.574 170.243 268.716 170.097 253.586C169.934 236.649 163.918 227.112 157.536 219.768C151.213 212.498 148.059 211.02 144.894 212.202" fill="#FDCC9C"/>
<path d="M156.264 277.704C156.027 277.704 155.785 277.694 155.542 277.677C155.462 277.674 155.398 277.67 155.335 277.664C154.966 277.63 154.573 277.567 154.174 277.481C154.094 277.464 154.011 277.444 153.928 277.421C153.479 277.311 153.106 277.198 152.753 277.061C149.655 275.887 147.652 274.276 146.451 271.994C144.517 268.323 144.847 263.349 146.128 255.446C146.394 253.799 146.497 251.852 146.434 249.663C146.411 248.851 146.364 247.986 146.294 247.091C146.245 246.455 146.178 245.81 146.111 245.167C146.035 244.485 145.955 243.8 145.862 243.118C145.802 242.672 145.735 242.226 145.669 241.783C145.539 240.928 145.389 240.04 145.223 239.138C145.063 238.263 144.894 237.401 144.721 236.559C143.253 229.465 141.373 223.698 141.353 223.642L141.33 223.569C139.959 218.744 139.403 215.273 140.881 212.881C141.067 212.578 141.26 212.318 141.47 212.089C142.115 211.387 142.974 210.834 144.095 210.398L144.158 210.375L146.823 209.367L146.83 209.869C150.7 209.879 154.384 213.14 159.025 218.481C165.381 225.791 171.9 235.674 172.069 253.573C172.222 269.658 163.318 275.058 162.939 275.281C162.22 275.724 160.13 276.918 159.554 277.151L159.398 277.208C159.072 277.314 158.686 277.417 158.253 277.507C158.167 277.524 158.084 277.541 158.004 277.557C157.585 277.634 157.199 277.68 156.819 277.7C156.756 277.704 156.699 277.704 156.643 277.707C156.52 277.714 156.397 277.714 156.27 277.714M145.106 222.46C145.289 223.026 147.11 228.69 148.577 235.77C148.757 236.642 148.933 237.534 149.096 238.439C149.266 239.377 149.422 240.303 149.559 241.194C149.629 241.66 149.698 242.123 149.762 242.588C149.862 243.307 149.948 244.029 150.025 244.748C150.098 245.433 150.168 246.116 150.221 246.791C150.297 247.753 150.347 248.681 150.374 249.56C150.444 251.999 150.324 254.195 150.018 256.088C148.93 262.806 148.534 267.505 149.938 270.17C150.677 271.571 151.974 272.566 154.154 273.391C154.357 273.468 154.583 273.538 154.869 273.607L155.016 273.644C155.262 273.697 155.495 273.734 155.715 273.754L155.828 273.76C156.057 273.777 156.277 273.78 156.487 273.774H156.606C156.816 273.76 157.049 273.731 157.308 273.684L157.468 273.651C157.731 273.597 157.951 273.541 158.15 273.478C158.576 273.265 160.35 272.243 160.832 271.96L160.959 271.884C161.245 271.711 168.273 267.278 168.143 253.612C167.983 236.995 161.947 227.834 156.064 221.07C149.449 213.46 147.266 213.43 145.596 214.055L145.416 214.122C144.917 214.328 144.584 214.534 144.374 214.761C144.338 214.8 144.291 214.867 144.238 214.954C143.466 216.201 144.364 219.828 145.113 222.464" fill="#144B5F"/>
<path d="M145.04 240.352C145.04 240.352 160.946 246.352 171.138 241.188C171.138 241.188 169.777 215.639 155.083 212.644C140.392 209.65 140.405 221.828 140.405 221.828C140.405 221.828 146.538 234.449 145.04 240.356" fill="#00A64F"/>
<path d="M160.939 245.253C152.597 245.253 144.814 242.368 144.345 242.192L142.698 241.57L143.13 239.866C144.212 235.604 140.252 226.017 138.632 222.683L138.435 222.277V221.824C138.435 221.595 138.475 216.184 142.631 212.787C145.683 210.295 150.002 209.592 155.476 210.711C171.474 213.971 173.045 239.973 173.101 241.077L173.171 242.358L172.027 242.937C168.639 244.654 164.729 245.25 160.939 245.25M147.213 239.001C151.05 240.205 161.528 242.961 169.055 239.959C168.536 234.878 165.917 216.853 154.687 214.564C150.431 213.695 147.21 214.121 145.124 215.832C142.954 217.605 142.492 220.404 142.395 221.425C143.52 223.814 147.566 232.888 147.213 239.001Z" fill="#144B5F"/>
<path d="M174.21 125.39C167.871 123.221 166.863 130.631 166.863 130.631C158.511 122.256 148.439 116.662 142.489 114.436C125.153 107.948 107.081 113.914 92.5366 125.56C77.2135 137.829 67.1011 156.107 69.7665 175.543C71.5633 188.65 91.3387 213.127 91.3387 213.127C91.3387 213.127 84.048 214.784 86.7666 220.906C89.4885 227.029 97.1685 230.729 101.734 228.626C106.299 226.523 107.337 222.507 107.337 222.507C107.337 222.507 125.975 227.006 140.403 221.825C160.015 214.784 176.998 195.265 181.085 175.153C182.925 166.099 181.843 156.852 178.692 148.354C178.359 147.452 177.614 145.738 177.614 145.738C177.614 145.738 181.524 144.351 183.214 139.619C184.905 134.887 180.546 127.56 174.203 125.387" fill="#FDCC9C"/>
<path d="M98.8176 230.935C97.3968 230.935 95.8761 230.643 94.3322 230.06C90.2893 228.536 86.8786 225.372 85.2015 221.602C83.9937 218.883 84.4662 216.867 85.0751 215.652C85.8837 214.038 87.3045 212.997 88.5523 212.358C83.8738 206.332 69.6387 187.219 68.0682 175.775C65.5293 157.255 74.2774 137.985 91.4673 124.222C108.324 110.726 126.659 106.68 143.09 112.832C148.817 114.979 157.994 120.023 166.05 127.47C166.599 126.286 167.467 125.008 168.828 124.169C169.986 123.457 171.953 122.812 174.764 123.773C178.668 125.111 182.118 128.232 183.995 132.122C185.376 134.984 185.672 137.852 184.834 140.201C183.606 143.638 181.353 145.562 179.812 146.53C179.992 146.966 180.175 147.415 180.302 147.761C183.726 156.992 184.577 166.585 182.764 175.499C178.581 196.09 161.009 216.251 140.98 223.442C128.426 227.951 113.129 225.448 108.384 224.49C107.582 226.107 105.862 228.616 102.455 230.187C101.367 230.689 100.135 230.939 98.8176 230.939M127.65 113.448C113.026 113.448 100.614 121.288 93.6067 126.901C77.3685 139.902 69.0898 158 71.4623 175.313C73.1726 187.794 92.4754 211.809 92.6717 212.052L94.3988 214.191L91.7168 214.8C90.9681 214.977 88.8485 215.755 88.1331 217.203C87.7305 218.018 87.7937 219.003 88.3328 220.214C89.6238 223.122 92.3856 225.668 95.54 226.856C97.6164 227.641 99.613 227.721 101.02 227.072C104.737 225.362 105.646 222.201 105.682 222.068L106.122 220.47L107.739 220.843C107.918 220.886 126.06 225.156 139.822 220.214C158.799 213.403 175.443 194.31 179.403 174.817C181.087 166.528 180.285 157.587 177.084 148.956C176.771 148.111 176.049 146.44 176.039 146.424L175.31 144.74L177.04 144.128C177.157 144.084 180.225 142.9 181.602 139.046C182.121 137.592 181.869 135.609 180.904 133.609C179.44 130.571 176.661 128.046 173.653 127.014C172.399 126.585 171.41 126.605 170.635 127.081C169.257 127.923 168.669 130.102 168.559 130.871L168.069 134.265L165.647 131.846C157.535 123.713 147.775 118.253 141.886 116.043C136.991 114.21 132.212 113.448 127.65 113.448Z" fill="#144B5F"/>
<path d="M140.449 141.066C138.978 141.605 137.707 142.114 136.582 142.737C135.461 143.352 134.529 144.058 133.764 144.91C132.989 145.758 132.346 146.766 131.781 147.944C131.192 149.119 130.716 150.433 130.06 151.871C129.392 150.437 129.199 148.866 129.392 147.272C129.585 145.685 130.26 144.051 131.435 142.78C132.589 141.492 134.203 140.664 135.807 140.387C136.612 140.248 137.421 140.234 138.206 140.341C138.988 140.454 139.757 140.66 140.446 141.07" fill="#144B5F"/>
<path d="M137.83 183.672C137.613 183.672 137.407 183.638 137.211 183.559C136.778 183.382 136.246 182.936 136.169 181.808C136.03 179.652 133.574 179.383 133.467 179.373C133.055 179.333 132.752 178.963 132.792 178.551C132.832 178.138 133.201 177.829 133.61 177.872C134.938 177.995 137.497 178.953 137.673 181.712C137.697 182.075 137.783 182.168 137.783 182.171C138.063 182.284 139.207 181.692 140.212 180.787C140.522 180.507 140.998 180.534 141.277 180.843C141.557 181.153 141.53 181.629 141.22 181.908C140.715 182.364 139.141 183.678 137.826 183.678" fill="#144B5F"/>
<path d="M112.079 171.979C110.608 172.518 109.337 173.027 108.212 173.646C107.091 174.261 106.159 174.967 105.394 175.822C104.619 176.67 103.976 177.679 103.411 178.857C102.822 180.031 102.346 181.346 101.69 182.783C101.021 181.349 100.828 179.778 101.021 178.184C101.214 176.597 101.89 174.963 103.065 173.692C104.223 172.405 105.833 171.576 107.437 171.3C108.242 171.16 109.051 171.147 109.836 171.253C110.618 171.366 111.387 171.573 112.075 171.982" fill="#144B5F"/>
<path d="M143.583 196.725C167.138 202.365 157.565 181.452 157.565 181.452L143.583 196.725Z" fill="#144B5F"/>
<path d="M150.631 198.941C148.505 198.941 146.056 198.612 143.291 197.95C142.858 197.847 142.512 197.521 142.382 197.095C142.252 196.669 142.356 196.206 142.658 195.877L156.641 180.604C156.927 180.294 157.343 180.144 157.762 180.211C158.178 180.277 158.534 180.547 158.71 180.93C158.893 181.326 163.096 190.679 158.857 195.833C157.153 197.903 154.398 198.941 150.631 198.941ZM145.993 195.957C151.406 196.955 155.16 196.369 156.917 194.236C159.083 191.604 158.131 186.779 157.13 183.791L145.993 195.957Z" fill="#144B5F"/>
<path d="M151.989 198.625C151.989 198.625 162.943 197.547 159.479 188.906C159.479 188.906 151.706 188.939 151.989 198.625Z" fill="#F05C87"/>
<path d="M109.896 182.041C111.969 179.728 116.787 177.915 121.862 180.72C128.034 184.131 130.753 191.075 125.632 196.256C120.141 201.816 113.936 199.933 110.455 195.664C106.728 191.092 106.259 186.097 109.892 182.041" fill="white"/>
<path d="M122.846 181.439C117.765 178.803 111.872 180.221 109.729 184.287C108.861 185.934 108.492 188.217 109.024 190.306C109.62 192.642 111.43 194.532 112.075 196.805C112.178 197.164 111.972 197.677 111.516 197.51C108.598 196.446 107.034 192.586 106.585 189.987C106.116 187.282 106.741 184.43 108.079 182.43C109.443 180.39 111.752 178.85 114.384 178.434C117.549 177.931 119.975 179.159 122.913 181.226C123.079 181.342 123.059 181.545 122.846 181.439Z" fill="#144B5F"/>
<path d="M124.746 184.038C121.115 180.76 116.071 180.427 113.479 183.299C110.883 186.17 111.725 191.158 115.355 194.436C118.986 197.717 124.03 198.046 126.626 195.171C129.218 192.3 128.379 187.315 124.749 184.038" fill="#144B5F"/>
<path d="M125.937 188.104C124.776 187.056 123.162 186.949 122.333 187.868C121.505 188.786 121.774 190.38 122.932 191.428C124.094 192.476 125.704 192.583 126.536 191.664C127.365 190.746 127.098 189.152 125.937 188.104Z" fill="white"/>
<path d="M137.668 150.649C135.834 153.158 135.065 158.249 138.862 162.628C143.481 167.959 150.838 169.17 154.841 163.087C159.14 156.562 156.009 150.882 151.107 148.367C145.86 145.671 140.879 146.25 137.668 150.649Z" fill="white"/>
<path d="M139.766 163.44C136.132 159.018 136.295 152.959 139.826 150.017C141.257 148.826 143.413 147.991 145.569 148.077C147.978 148.174 150.204 149.551 152.56 149.711C152.933 149.737 153.392 149.431 153.136 149.019C151.489 146.387 147.386 145.658 144.75 145.758C142.005 145.861 139.347 147.065 137.67 148.789C135.959 150.546 134.931 153.128 135.071 155.787C135.237 158.988 136.944 161.104 139.573 163.55C139.723 163.69 139.916 163.626 139.766 163.443" fill="#144B5F"/>
<path d="M144.564 162.625C140.605 159.757 139.23 154.889 141.5 151.757C143.769 148.623 148.824 148.41 152.783 151.278C156.746 154.147 158.117 159.015 155.848 162.149C153.578 165.284 148.527 165.497 144.564 162.625Z" fill="#144B5F"/>
<path d="M151.771 159.317C150.503 158.399 150.067 156.845 150.793 155.844C151.518 154.842 153.135 154.775 154.4 155.69C155.667 156.609 156.103 158.163 155.378 159.164C154.653 160.166 153.039 160.236 151.771 159.317Z" fill="white"/>
<path d="M146.009 98.2848C144.062 98.1916 142.209 98.5742 140.252 98.3779C137.923 98.1416 135.594 97.4861 133.308 96.9304C128.513 95.7691 123.578 95.2001 118.716 95.3066C115.269 95.3831 111.799 95.6926 108.821 97.4495C108.538 97.6159 106.877 98.9868 105.633 100.421C105.583 100.434 105.533 100.448 105.483 100.464C104.997 100.341 104.495 100.238 103.962 100.138C100.026 99.4227 96.2059 101.436 93.0049 103.263C84.1238 108.34 76.3009 115.128 69.393 122.585C65.1537 127.164 61.8661 132.195 59.0644 137.592C57.0446 142.038 55.4409 146.68 54.4493 151.568C53.4843 156.333 52.6757 161.328 51.0253 165.88C50.1468 168.302 48.716 171.363 46.45 172.924C46.5298 173.017 46.633 173.084 46.776 173.094C48.9922 173.21 50.7491 171.483 51.8971 169.477C51.8905 174.787 53.3777 180.371 55.9233 184.886C56.3558 185.306 57.1511 186.054 57.6835 186.617C58.0163 186.324 58.226 185.625 58.186 185.176C58.1062 184.307 58.0562 183.459 58.0429 182.62C58.1694 183.209 58.3091 183.801 58.4788 184.4C58.8981 185.904 59.3174 188.011 60.1692 189.691C60.8414 190.333 61.4901 190.999 62.149 191.654C62.3919 191.441 62.5417 190.946 62.5484 190.743C62.5617 190.16 62.5484 189.585 62.5384 189.012C63.1341 192.233 64.7945 194.782 66.9973 197.012C75.1496 205.254 104.508 215.639 104.508 215.639L93.97 198.902C93.6239 198.572 93.2845 198.239 92.9451 197.907C91.7139 195.341 90.3064 192.832 89.1451 190.38C87.7076 187.342 86.0072 184.467 84.2835 181.605C87.6576 179.749 90.7789 177.28 93.4143 175.13C99.9196 169.829 106.155 163.966 111.516 157.491C118.257 149.349 124.327 137.772 124.516 126.262C124.846 126.222 134.432 132.395 137.86 134.202C142.884 136.85 148.654 139.323 154.391 140.943C159.785 145.788 177.83 149.282 177.833 149.285C177.251 148.833 177.014 148.846 176.948 148.191C175.69 135.639 166.077 122.313 161.435 116.333C159.332 113.628 155.935 111.415 153.169 109.212C151.15 107.602 149.077 106.916 146.877 106.437C147.576 106.347 148.281 106.261 148.987 106.104C149.559 105.978 149.476 104.923 149.193 104.56C147.919 102.93 145.762 102.298 143.676 101.935C144.688 101.363 145.629 100.667 146.308 99.7821C146.538 99.4827 146.644 98.3114 146.022 98.2814" fill="#623A16"/>
<g style="mix-blend-mode:multiply" opacity="0.5">
<mask id="mask3_195_8637" style="mask-type:luminance" maskUnits="userSpaceOnUse" x="52" y="118" width="126" height="98">
<path d="M177.822 118.353H52.9447V215.646H177.822V118.353Z" fill="white"/>
</mask>
<g mask="url(#mask3_195_8637)">
<path d="M173.491 138.291C173.518 138.74 164.956 140.667 164.75 140.351C163.961 139.14 163.076 138.008 162.158 136.9C163.033 139.223 163.682 141.622 163.991 144.124C164.028 144.424 163.701 144.803 163.389 144.537C159.026 140.833 154.391 138.321 149.047 136.504C144.059 134.807 139.045 133.123 134.403 130.491C128.696 127.254 123.193 123.234 118.677 118.346C119.303 119.93 119.802 121.554 120.128 123.211C121.735 131.333 118.84 139.126 115.097 145.958C112.648 150.43 109.61 154.466 106.462 158.442C103.48 162.212 100.379 165.916 96.8887 169.223C92.7393 173.153 87.9443 177.216 82.597 179.841C84.5636 188.523 88.5765 196.462 93.3448 204.172C93.5444 204.495 93.1984 204.831 92.879 204.735C87.2888 203.048 80.9765 199.041 77.4194 193.8C78.5375 196.795 80.0349 199.61 81.9915 202.292C82.2044 202.585 82.0115 203.141 81.5889 202.944C75.6726 200.232 70.3951 194.606 69.1839 188.14C68.7945 190.529 68.8845 193.125 70.282 195.171C70.5782 195.627 69.866 195.96 69.5665 195.521C67.733 192.699 66.0028 189.694 65.2108 186.43C64.9413 185.325 64.7749 184.221 64.6784 183.119C63.8865 184.996 63.1711 186.916 62.2361 188.733C62.083 189.029 61.6903 188.922 61.5306 188.679C59.5474 185.691 58.3828 182.161 58.0501 178.624C57.6075 180.001 57.2481 181.412 57.0052 182.863C56.9386 183.259 56.4362 183.166 56.2565 182.906C55.0786 181.192 53.8807 179.359 52.949 177.429C53.6378 180.068 54.6494 182.61 55.9272 184.879C56.3597 185.299 57.155 186.047 57.6874 186.61C58.0202 186.317 58.2298 185.618 58.1865 185.169C58.1067 184.3 58.0567 183.452 58.0434 182.613C58.1698 183.202 58.3097 183.795 58.4761 184.397C58.8953 185.901 59.3145 188.007 60.1697 189.688C60.8419 190.33 61.4907 190.995 62.1462 191.651C62.3891 191.438 62.5389 190.942 62.5456 190.739C62.5589 190.157 62.5455 189.581 62.5355 189.009C63.1311 192.23 64.7915 194.779 66.9943 197.008C75.1467 205.25 104.505 215.639 104.505 215.639L93.9671 198.901C93.621 198.572 93.2783 198.239 92.9389 197.907C91.7078 195.341 90.3002 192.832 89.1389 190.38C87.7015 187.342 86.001 184.467 84.2774 181.605C87.6514 179.748 90.7728 177.279 93.4082 175.13C99.9134 169.829 106.149 163.966 111.51 157.491C118.251 149.348 124.321 137.769 124.51 126.262C124.84 126.222 134.426 132.395 137.854 134.202C142.878 136.85 148.648 139.323 154.385 140.943C159.778 145.788 177.823 149.282 177.827 149.285C177.244 148.832 177.015 148.846 176.942 148.19C175.81 137.942 165.518 132.691 163.309 127.337C164.517 131.566 173.228 133.992 173.494 138.288" fill="#604023"/>
</g>
</g>
<path d="M104.175 216.92C104.009 216.92 103.839 216.893 103.676 216.833C102.465 216.404 73.8984 206.235 65.5996 197.847C64.039 196.269 62.8478 194.639 62.0093 192.922C61.5667 192.982 61.1009 192.835 60.7614 192.493L60.289 192.02C59.7965 191.528 59.3074 191.032 58.8049 190.553C58.6818 190.436 58.582 190.3 58.5055 190.15C58.1395 189.428 57.8466 188.646 57.6037 187.874C57.1312 187.954 56.6254 187.801 56.2693 187.425C55.8567 186.989 55.2577 186.417 54.8218 185.997L54.5557 185.741C54.4525 185.641 54.3628 185.525 54.2896 185.398C53.9635 184.819 53.6472 184.214 53.3511 183.592C53.055 182.969 52.7821 182.351 52.5259 181.718L53.8936 181.106L52.4926 181.642C52.253 181.043 52.0269 180.421 51.8139 179.778L51.7639 179.632C51.5676 179.036 51.3846 178.414 51.2149 177.778C50.7956 176.208 50.4895 174.634 50.2998 173.07C49.0986 173.992 47.771 174.441 46.3668 174.368C45.8443 174.341 45.3586 174.105 44.9992 173.699C44.713 173.376 44.5799 172.95 44.6331 172.524C44.6864 172.098 44.916 171.716 45.272 171.473C46.796 170.425 48.1469 168.295 49.2882 165.151C50.6059 161.52 51.3879 157.511 52.1433 153.631C52.313 152.769 52.4794 151.907 52.6525 151.055C53.6141 146.317 55.158 141.639 57.3742 136.76C57.3841 136.737 57.3973 136.714 57.4073 136.691C57.7767 135.978 58.1793 135.23 58.6385 134.408L58.9014 133.949C59.2541 133.323 59.6168 132.704 59.9861 132.089L60.2258 131.699C60.6217 131.05 61.0377 130.392 61.4603 129.743L61.6167 129.506C62.0992 128.774 62.5916 128.056 63.0808 127.377C63.0874 127.37 63.094 127.36 63.0974 127.354C64.6613 125.171 66.2552 123.211 67.9689 121.361C75.7885 112.916 83.628 106.5 91.9368 101.755C95.4506 99.7453 99.5635 97.6689 103.906 98.4575C104.195 98.5107 104.468 98.5641 104.734 98.6206C105.929 97.3628 107.303 96.2082 107.732 95.952C111.01 94.0154 114.777 93.6759 118.361 93.5994C123.295 93.4896 128.333 94.0519 133.334 95.2632C133.76 95.3663 134.193 95.4728 134.625 95.5793C135.031 95.6791 135.441 95.7789 135.85 95.8787C137.207 96.2081 138.658 96.5309 140.076 96.674C141.028 96.7705 141.983 96.7073 142.994 96.644C143.879 96.5875 144.794 96.5309 145.756 96.5742C146.581 96.6141 147.48 97.2164 147.626 98.4808C147.663 98.7969 147.649 99.1297 147.593 99.4458C147.593 99.4558 147.589 99.4658 147.586 99.4757C147.559 99.6055 147.529 99.7187 147.493 99.8285C147.486 99.8484 147.479 99.8684 147.476 99.885C147.469 99.9083 147.46 99.9317 147.453 99.9516C147.373 100.155 147.28 100.328 147.163 100.477C147.014 100.674 146.851 100.867 146.678 101.053C147.932 101.539 149.137 102.271 150.038 103.426C150.564 104.098 150.727 105.202 150.424 106.044C150.414 106.071 150.404 106.094 150.394 106.121C150.641 106.247 150.887 106.377 151.136 106.507C151.862 106.886 152.611 107.275 153.422 107.625C165.618 112.856 175.094 138.005 178.212 146.267C178.582 147.245 178.931 148.17 179.064 148.463C179.413 148.982 179.414 149.684 179.014 150.21C178.608 150.743 177.916 150.929 177.317 150.713L177.26 150.693C174.792 149.874 162.084 145.631 153.569 142.154C148.228 140.637 142.442 138.274 136.828 135.32C134.975 134.341 131.491 132.198 128.42 130.308C127.448 129.713 126.416 129.074 125.558 128.555C124.423 142.251 116.045 153.761 112.334 158.243C107.333 164.285 101.344 170.122 94.0265 176.088C91.6806 177.998 88.9786 180.144 86.0171 181.935C87.4946 184.407 88.9121 186.883 90.1666 189.535C91.0883 191.481 101.51 208.318 105.446 214.644C105.783 215.183 105.743 215.878 105.343 216.374C105.054 216.737 104.621 216.933 104.175 216.933M62.2089 187.308C62.9244 187.308 63.5466 187.818 63.6797 188.533C64.1655 191.152 65.4499 193.448 67.7292 195.75C73.7586 201.85 92.3028 209.35 100.595 212.508C96.5021 205.906 88.3597 192.719 87.458 190.816C86.0405 187.824 84.3834 185.019 82.6664 182.174C82.4568 181.825 82.397 181.405 82.5034 181.013C82.6099 180.62 82.8694 180.287 83.2287 180.088C86.503 178.288 89.541 175.878 92.1365 173.766C99.3039 167.926 105.154 162.222 110.032 156.333C113.762 151.827 122.463 139.855 122.69 126.033C122.703 125.284 123.269 124.658 124.011 124.568C124.459 124.515 126.453 125.578 129.993 127.756C132.875 129.53 136.462 131.736 138.226 132.668C143.683 135.543 149.3 137.835 154.464 139.293C154.517 139.309 154.574 139.326 154.624 139.349C161.189 142.034 170.346 145.199 175.234 146.853C167.238 125.763 159.505 113.491 152.244 110.377C151.329 109.984 150.527 109.568 149.756 109.165C148.504 108.513 147.426 107.951 146.222 107.688C145.51 107.532 145.014 106.886 145.044 106.161C145.077 105.432 145.626 104.833 146.348 104.74L146.528 104.717C146.704 104.693 146.874 104.67 147.044 104.647C145.962 103.798 144.398 103.429 143.081 103.199C142.458 103.089 141.969 102.604 141.859 101.978C141.75 101.356 142.049 100.73 142.598 100.417C143.077 100.148 143.49 99.8717 143.846 99.5889C143.629 99.6022 143.407 99.6155 143.184 99.6288C142.096 99.6987 140.974 99.7686 139.773 99.6488C138.172 99.4857 136.602 99.1364 135.141 98.7837C134.729 98.6839 134.313 98.5806 133.903 98.4808C133.477 98.3743 133.051 98.2712 132.626 98.1681C127.874 97.0167 123.096 96.4843 118.42 96.5842C114.75 96.664 111.785 97.0267 109.253 98.5208C109.073 98.6439 107.596 99.8485 106.435 101.186C106.242 101.406 105.992 101.565 105.709 101.645L105.58 101.682C105.323 101.758 105.054 101.765 104.794 101.699C104.355 101.589 103.889 101.489 103.367 101.396C100.019 100.787 96.6186 102.52 93.4208 104.347C85.3816 108.943 77.775 115.168 70.165 123.387C68.5379 125.144 67.0205 127.011 65.5298 129.09C65.5231 129.1 65.5165 129.107 65.5098 129.117C65.4998 129.13 65.4898 129.147 65.4832 129.154C65.0439 129.766 64.5748 130.451 64.1089 131.157L63.9593 131.383C63.5567 131.999 63.1573 132.631 62.7747 133.26L62.5484 133.633C62.1923 134.225 61.8462 134.824 61.5035 135.426L61.2539 135.865C60.818 136.651 60.4353 137.359 60.0826 138.038C57.9697 142.697 56.499 147.152 55.5873 151.654C55.4176 152.499 55.2478 153.351 55.0815 154.21C54.3028 158.203 53.4976 162.332 52.1 166.179C51.8971 166.734 51.6908 167.267 51.4745 167.769C51.6276 167.759 51.7905 167.776 51.9502 167.816C52.6058 167.992 53.0651 168.585 53.0617 169.267C53.0617 171.799 53.411 174.404 54.1065 177.013C54.2628 177.599 54.4293 178.164 54.6023 178.697L54.649 178.837C54.8453 179.429 55.0515 179.995 55.2644 180.527L55.3044 180.62C55.534 181.186 55.7769 181.748 56.0331 182.281C56.093 182.407 56.1529 182.527 56.2128 182.65C56.2128 182.58 56.2095 182.507 56.2095 182.437C56.1962 181.665 56.7685 181.009 57.5371 180.923C58.2991 180.833 59.0113 181.342 59.171 182.098C59.3007 182.707 59.4371 183.259 59.5835 183.791C59.6767 184.127 59.77 184.493 59.8698 184.876C60.1393 185.931 60.4388 187.102 60.8614 188.134C61.0843 187.694 61.5202 187.375 62.0426 187.322C62.0958 187.318 62.1491 187.315 62.199 187.315M60.7116 190.48C60.7116 190.48 60.7116 190.5 60.7116 190.506C60.7116 190.496 60.7116 190.49 60.7116 190.48Z" fill="#144B5F"/>
<path d="M106.099 101.772C108.119 103.056 109.959 104.583 111.709 106.207C113.46 107.831 115.097 109.581 116.594 111.458C118.058 113.355 119.466 115.318 120.524 117.494C121.595 119.647 122.441 121.966 122.64 124.355C121.795 122.116 120.684 120.073 119.453 118.1C119.126 117.617 118.81 117.128 118.501 116.639L117.483 115.218C117.156 114.739 116.79 114.28 116.441 113.814C116.088 113.348 115.739 112.882 115.36 112.436C114.994 111.98 114.638 111.515 114.268 111.065C113.892 110.616 113.506 110.177 113.137 109.721C112.385 108.823 111.606 107.944 110.831 107.059L106.096 101.768L106.099 101.772Z" fill="#3B2416"/>
</g>
</g>
</g>
</svg>
