<svg width="260" height="259" viewBox="0 0 260 259" fill="none" xmlns="http://www.w3.org/2000/svg">
<mask id="mask0_195_7826" style="mask-type:luminance" maskUnits="userSpaceOnUse" x="0" y="0" width="260" height="259">
<path d="M259.582 0.133301H0.835938V258.88H259.582V0.133301Z" fill="white"/>
</mask>
<g mask="url(#mask0_195_7826)">
<mask id="mask1_195_7826" style="mask-type:luminance" maskUnits="userSpaceOnUse" x="0" y="0" width="260" height="259">
<path d="M259.584 0.133301H0.837891V258.88H259.584V0.133301Z" fill="white"/>
</mask>
<g mask="url(#mask1_195_7826)">
<path d="M139.125 203.321C139.125 203.321 139.371 218.518 140.878 223.944C142.385 229.371 147.409 231.223 150.984 227.512C154.558 223.8 155.895 203.74 153.722 201.807C148.825 197.454 139.125 203.324 139.125 203.324" fill="#FCCD9B"/>
<path d="M146.83 230.305C146.358 230.305 145.886 230.248 145.416 230.128C142.917 229.496 140.912 227.27 140.052 224.172C138.533 218.702 138.277 203.959 138.267 203.333L138.26 202.84L138.681 202.586C139.098 202.332 148.986 196.443 154.293 201.163C154.779 201.594 155.445 202.639 155.601 206.68C155.864 213.451 154.436 225.164 151.602 228.106C150.217 229.541 148.535 230.305 146.83 230.305ZM139.994 203.815C140.054 206.491 140.399 219.007 141.707 223.714C142.4 226.211 143.945 227.986 145.838 228.465C147.412 228.865 149.022 228.314 150.368 226.915C152.546 224.654 154.06 214.577 153.907 207.418C153.816 203.127 153.159 202.452 153.152 202.447C149.321 199.04 141.849 202.794 139.994 203.815Z" fill="#164B5F"/>
<path d="M138.135 211.946C138.162 207.916 138.025 203.848 137.58 199.842C137.316 197.473 136.509 195.295 136.109 193.01C135.522 189.646 137.194 186.574 139.767 184.095C141.866 182.07 144.408 180.573 146.923 179.097C147.934 178.503 149.206 177.906 150.208 178.515C150.757 178.848 151.056 179.464 151.315 180.053C153.77 185.674 154.072 192.751 155.294 198.731C155.74 200.911 157.747 211.004 155.321 212.404C155.321 212.404 147.359 217.051 138.135 211.946Z" fill="#666766"/>
<path d="M147.191 215.214C144.415 215.214 141.159 214.598 137.721 212.696L137.275 212.449V211.939C137.309 207.468 137.129 203.542 136.726 199.936C136.58 198.633 136.252 197.341 135.933 196.096C135.689 195.144 135.44 194.16 135.265 193.156C134.688 189.845 136.039 186.498 139.173 183.477C141.358 181.371 143.967 179.838 146.489 178.357C147.268 177.9 149.089 176.831 150.656 177.78C151.415 178.24 151.801 179.016 152.103 179.708C153.835 183.669 154.515 188.276 155.172 192.73C155.474 194.773 155.759 196.704 156.137 198.558C157.881 207.088 157.75 211.994 155.749 213.147C155.534 213.273 152.119 215.214 147.191 215.214ZM138.998 211.434C147.464 215.849 154.587 211.838 154.891 211.661C155.831 211.12 156.092 206.898 154.455 198.901C154.067 197.001 153.765 194.958 153.473 192.981C152.831 188.637 152.17 184.148 150.529 180.396C150.323 179.924 150.095 179.447 149.764 179.248C149.146 178.872 148.095 179.404 147.359 179.838C144.923 181.268 142.402 182.749 140.363 184.713C138.478 186.532 136.355 189.421 136.954 192.864C137.117 193.8 137.349 194.711 137.596 195.674C137.929 196.977 138.274 198.326 138.432 199.749C138.825 203.283 139.01 207.109 138.998 211.436" fill="#164B5F"/>
<path d="M165.471 229.311C165.933 228.12 164.977 227.013 163.794 226.182C161.482 224.557 158.281 223.537 155.138 222.545C154.592 222.373 154.033 222.2 153.398 222.164C152.766 222.131 152.107 222.241 151.465 222.351C147.696 222.991 143.928 223.63 140.162 224.27C140.313 227.416 140.255 230.583 139.992 233.76C144.505 234.042 149.148 233.983 153.789 233.585C157.129 233.297 160.672 232.773 163.341 231.299C164.323 230.758 165.174 230.075 165.471 229.311Z" fill="#FDEFF1"/>
<path d="M145.656 234.452C143.741 234.452 141.839 234.395 139.961 234.275L139.436 234.241L139.479 233.717C139.74 230.573 139.796 227.404 139.647 224.294L139.625 223.839L151.379 221.843C152.014 221.735 152.73 221.611 153.428 221.651C154.134 221.687 154.75 221.884 155.294 222.054C158.437 223.046 161.691 224.071 164.091 225.76C166.243 227.272 166.291 228.626 165.95 229.495C165.637 230.3 164.844 231.057 163.591 231.75C160.718 233.336 156.868 233.837 153.833 234.098C151.099 234.332 148.365 234.45 145.653 234.45M140.543 233.278C144.87 233.523 149.309 233.453 153.742 233.072C156.674 232.821 160.387 232.339 163.09 230.849C164.096 230.293 164.772 229.682 164.987 229.124C165.359 228.17 164.381 227.226 163.495 226.604C161.224 225.008 158.049 224.007 154.98 223.039C154.472 222.878 153.945 222.713 153.368 222.682C152.786 222.651 152.156 222.758 151.547 222.861L140.692 224.704C140.809 227.538 140.759 230.418 140.543 233.281" fill="#164B5F"/>
<path d="M151.178 226.774C152.416 225.013 154.841 223.88 157.541 223.322C156.745 223.056 155.94 222.799 155.138 222.548C154.592 222.375 154.033 222.203 153.398 222.167C152.766 222.133 152.107 222.243 151.465 222.354C147.696 222.993 143.928 223.633 140.162 224.273C140.313 227.418 140.255 230.586 139.992 233.762C143.808 234.002 147.716 233.992 151.64 233.746C149.587 232.028 149.338 229.467 151.18 226.774" fill="#E9E9E9"/>
<path d="M145.624 234.45C143.714 234.45 141.824 234.392 139.96 234.275L139.435 234.241L139.478 233.716C139.739 230.573 139.795 227.404 139.646 224.294L139.624 223.839L151.378 221.843C152.008 221.735 152.725 221.613 153.427 221.651C154.133 221.687 154.749 221.884 155.293 222.054C155.997 222.277 156.874 222.552 157.706 222.83L159.514 223.436L157.646 223.822C154.809 224.409 152.662 225.559 151.601 227.063C149.95 229.478 150.085 231.769 151.97 233.345L152.957 234.172L151.671 234.253C149.646 234.383 147.624 234.445 145.621 234.445M140.544 233.273C143.793 233.455 147.126 233.463 150.477 233.29C148.985 231.419 149.062 228.949 150.753 226.476L150.758 226.472C151.733 225.087 153.458 223.975 155.707 223.261C155.453 223.18 155.209 223.103 154.984 223.034C154.476 222.873 153.949 222.708 153.372 222.677C152.782 222.646 152.128 222.756 151.551 222.856L140.693 224.699C140.81 227.533 140.76 230.413 140.544 233.276" fill="#164B5F"/>
<path d="M165.498 227.909C161.99 228.724 158.847 229.347 155.277 229.95C150.179 230.815 144.863 231.465 140.004 230.832C139.609 231.814 139.491 232.818 139.664 233.776C146.154 234.431 153.174 234.598 159.659 232.821C161.329 232.363 162.973 231.764 164.209 230.897C165.445 230.029 165.814 228.944 165.5 227.909" fill="#DBCFD4"/>
<path d="M147.872 234.747C144.796 234.747 141.95 234.522 139.614 234.287L139.228 234.249L139.161 233.865C138.97 232.804 139.094 231.719 139.53 230.638L139.679 230.269L140.074 230.319C145.029 230.964 150.498 230.236 155.196 229.44C158.84 228.822 161.984 228.194 165.388 227.404L165.858 227.296L165.997 227.756C166.397 229.074 165.855 230.372 164.509 231.316C163.392 232.099 161.854 232.754 159.801 233.314C155.829 234.402 151.677 234.744 147.877 234.744M140.124 233.3C145.256 233.8 152.686 234.196 159.528 232.32C161.464 231.79 162.901 231.184 163.917 230.47C164.504 230.058 165.134 229.407 165.093 228.527C161.866 229.265 158.843 229.864 155.367 230.454C150.721 231.242 145.328 231.961 140.35 231.388C140.141 232.03 140.065 232.672 140.122 233.3" fill="#164B5F"/>
<path d="M152.369 228.369C152.194 228.458 151.967 228.499 151.751 228.47C151.396 228.42 151.212 228.197 151.336 227.965C151.389 227.869 152.685 225.6 158.002 224.385C158.371 224.301 158.74 224.412 158.823 224.632C158.907 224.852 158.677 225.102 158.308 225.185C153.766 226.225 152.671 228.063 152.628 228.139C152.575 228.231 152.482 228.31 152.367 228.367" fill="#2C2D30"/>
<path d="M154.902 229.318C154.727 229.407 154.497 229.447 154.284 229.419C153.929 229.368 153.745 229.145 153.872 228.913C153.925 228.817 155.221 226.548 160.537 225.334C160.906 225.25 161.275 225.36 161.359 225.581C161.445 225.803 161.21 226.05 160.844 226.134C156.301 227.174 155.206 229.011 155.163 229.09C155.11 229.181 155.019 229.26 154.902 229.318Z" fill="#2C2D30"/>
<path d="M117.679 204.162C117.679 204.162 117.106 219.349 118.318 224.85C119.531 230.351 124.447 232.471 128.218 228.956C131.986 225.442 134.404 205.485 132.336 203.436C127.681 198.824 117.679 204.164 117.679 204.164" fill="#FCCD9B"/>
<path d="M124.23 231.529C123.655 231.529 123.082 231.443 122.519 231.268C120.058 230.501 118.175 228.17 117.483 225.032C116.261 219.49 116.8 204.754 116.824 204.128L116.843 203.635L117.279 203.403C117.711 203.173 127.897 197.823 132.943 202.823C133.405 203.28 134.014 204.356 133.952 208.4C133.849 215.176 131.793 226.795 128.805 229.579C127.435 230.856 125.832 231.527 124.23 231.527M118.523 204.696C118.439 207.372 118.108 219.888 119.16 224.658C119.718 227.188 121.165 229.045 123.029 229.627C124.579 230.109 126.216 229.646 127.636 228.324C129.934 226.182 131.987 216.201 132.219 209.045C132.358 204.756 131.74 204.047 131.733 204.04C128.092 200.434 120.43 203.779 118.52 204.696" fill="#164B5F"/>
<path d="M116.228 212.72C116.422 209.512 116.487 206.285 116.412 203.072C116.288 197.667 113.985 192.524 114.364 187.226C114.527 184.936 115.293 182.612 116.918 180.99C123.523 174.395 130.358 186.745 132.342 191.599C134.613 197.157 134.41 207.286 133.363 214.105C133.363 214.105 125.162 218.317 116.228 212.723" fill="#666766"/>
<path d="M126.106 216.498C123.119 216.498 119.516 215.791 115.771 213.446L115.34 213.175L115.371 212.667C115.565 209.454 115.627 206.235 115.555 203.091C115.5 200.731 115.002 198.352 114.52 196.052C113.917 193.17 113.294 190.19 113.509 187.162C113.708 184.397 114.702 181.987 116.312 180.379C118.076 178.618 120.009 177.935 122.057 178.347C128.306 179.608 132.944 190.794 133.138 191.27C135.436 196.893 135.306 207.114 134.211 214.232L134.144 214.665L133.754 214.867C133.543 214.974 130.491 216.501 126.106 216.501M117.115 212.258C124.369 216.551 130.929 214.234 132.582 213.52C133.579 206.659 133.675 197.128 131.547 191.924C130.021 188.189 126.003 180.899 121.717 180.034C120.246 179.737 118.876 180.25 117.525 181.599C116.207 182.914 115.388 184.936 115.22 187.291C115.021 190.08 115.594 192.813 116.2 195.707C116.698 198.084 117.211 200.54 117.271 203.058C117.34 206.079 117.29 209.172 117.115 212.26" fill="#164B5F"/>
<path d="M142.588 231.532C143.115 230.368 142.219 229.213 141.084 228.319C138.863 226.573 135.719 225.382 132.636 224.222C132.102 224.021 131.551 223.817 130.918 223.75C130.288 223.683 129.625 223.758 128.978 223.832C125.18 224.268 121.383 224.704 117.586 225.138C117.566 228.286 117.339 231.446 116.905 234.606C121.397 235.13 126.036 235.322 130.693 235.174C134.045 235.068 137.61 234.733 140.355 233.405C141.364 232.919 142.25 232.279 142.588 231.534" fill="#FDEFF1"/>
<path d="M127.637 235.734C123.993 235.734 120.375 235.526 116.846 235.113L116.324 235.054L116.396 234.534C116.825 231.41 117.052 228.247 117.071 225.133V224.677L128.919 223.319C129.558 223.247 130.282 223.163 130.974 223.237C131.679 223.314 132.282 223.539 132.817 223.741C135.902 224.9 139.094 226.098 141.401 227.914C143.466 229.541 143.442 230.894 143.056 231.745C142.699 232.533 141.866 233.247 140.579 233.868C137.625 235.295 133.753 235.59 130.711 235.686C129.685 235.72 128.66 235.736 127.639 235.736M117.488 234.153C121.796 234.629 126.231 234.8 130.68 234.658C133.622 234.565 137.354 234.284 140.133 232.94C141.168 232.442 141.875 231.865 142.122 231.321C142.544 230.389 141.619 229.395 140.766 228.724C138.583 227.006 135.469 225.837 132.457 224.704C131.959 224.517 131.442 224.323 130.867 224.26C130.289 224.198 129.652 224.272 129.039 224.342L118.099 225.597C118.063 228.434 117.86 231.309 117.488 234.153Z" fill="#164B5F"/>
<path d="M128.453 228.228C129.785 226.536 132.267 225.535 134.991 225.123C134.213 224.814 133.422 224.517 132.634 224.22C132.1 224.018 131.549 223.815 130.916 223.748C130.286 223.681 129.622 223.755 128.976 223.829C125.178 224.265 121.381 224.699 117.584 225.135C117.564 228.285 117.337 231.443 116.903 234.603C120.703 235.046 124.606 235.25 128.535 235.212C126.577 233.386 126.467 230.815 128.451 228.225" fill="#E9E9E9"/>
<path d="M127.63 235.732C123.976 235.732 120.354 235.525 116.846 235.113L116.324 235.054L116.396 234.534C116.825 231.409 117.052 228.247 117.071 225.132V224.677L128.919 223.319C129.554 223.245 130.275 223.161 130.974 223.237C131.679 223.314 132.282 223.539 132.817 223.741C133.547 224.016 134.376 224.327 135.184 224.646L136.957 225.348L135.071 225.633C132.208 226.064 130.002 227.099 128.861 228.544C127.084 230.868 127.093 233.161 128.89 234.838L129.832 235.717L128.543 235.729C128.238 235.732 127.934 235.734 127.63 235.734M117.484 234.153C120.718 234.51 124.046 234.697 127.402 234.704C126.013 232.756 126.223 230.293 128.044 227.916L128.049 227.912C129.096 226.582 130.879 225.566 133.164 224.972C132.92 224.881 132.683 224.79 132.455 224.704C131.957 224.517 131.439 224.323 130.864 224.26C130.28 224.198 129.618 224.275 129.036 224.342L118.097 225.597C118.061 228.434 117.857 231.309 117.486 234.153" fill="#164B5F"/>
<path d="M142.692 230.133C139.146 230.758 135.974 231.208 132.376 231.62C127.237 232.21 121.894 232.571 117.076 231.678C116.628 232.636 116.458 233.633 116.578 234.598C123.022 235.602 130.025 236.146 136.595 234.72C138.286 234.354 139.961 233.846 141.24 233.046C142.522 232.246 142.948 231.182 142.689 230.13" fill="#DBCFD4"/>
<path d="M127.845 236.101C123.58 236.101 119.587 235.59 116.498 235.109L116.115 235.049L116.067 234.663C115.935 233.592 116.117 232.517 116.609 231.46L116.776 231.098L117.169 231.17C122.083 232.081 127.584 231.649 132.316 231.108C135.986 230.689 139.16 230.231 142.601 229.625L143.075 229.541L143.19 230.008C143.518 231.345 142.907 232.612 141.513 233.482C140.356 234.203 138.784 234.773 136.702 235.224C133.758 235.864 130.739 236.098 127.845 236.098M117.057 234.153C122.153 234.929 129.551 235.722 136.487 234.22C138.449 233.796 139.915 233.269 140.969 232.61C141.578 232.231 142.241 231.613 142.248 230.732C138.988 231.295 135.936 231.731 132.433 232.131C127.752 232.668 122.327 233.094 117.387 232.255C117.143 232.886 117.033 233.52 117.057 234.151" fill="#164B5F"/>
<path d="M129.555 229.886C129.375 229.965 129.145 229.994 128.934 229.953C128.582 229.884 128.41 229.651 128.549 229.426C128.606 229.333 130.022 227.138 135.396 226.211C135.769 226.146 136.131 226.278 136.203 226.503C136.275 226.728 136.031 226.963 135.659 227.028C131.069 227.821 129.876 229.596 129.828 229.673C129.77 229.761 129.675 229.836 129.555 229.886Z" fill="#2C2D30"/>
<path d="M132.035 230.971C131.855 231.05 131.625 231.079 131.412 231.038C131.062 230.971 130.89 230.736 131.026 230.511C131.084 230.418 132.5 228.223 137.874 227.296C138.247 227.231 138.609 227.363 138.681 227.588C138.755 227.813 138.509 228.048 138.137 228.113C133.547 228.906 132.354 230.684 132.306 230.758C132.248 230.847 132.152 230.918 132.033 230.971" fill="#2C2D30"/>
<path d="M155.168 161.673L154.51 160.003C154.589 159.972 154.668 159.94 154.747 159.907L154.809 159.881C154.85 159.861 154.89 159.845 154.934 159.828L155.545 161.517L155.559 161.512C155.521 161.529 155.489 161.543 155.461 161.555C155.365 161.598 155.267 161.637 155.171 161.675" fill="#164B5F"/>
<path d="M157.418 177.097C157.418 177.097 157.421 177.116 157.423 177.125C158.041 180.566 158.23 184.406 156.208 187.257C154.481 189.694 151.501 190.875 148.628 191.694C138.705 194.519 123.645 195.782 114.603 189.689C108.518 185.59 110.547 177.157 110.949 171.141C111.143 168.239 111.553 165.185 112.042 162.283C112.09 161.996 112.138 161.706 112.188 161.414C112.753 158.199 113.405 155.225 113.944 152.937C114.591 150.192 115.08 148.436 115.08 148.436C115.655 147.952 116.158 147.456 116.594 146.962C116.594 146.962 116.594 146.958 116.599 146.953C119.188 143.953 119.268 140.841 118.827 138.668C118.472 136.922 117.782 135.779 117.782 135.779L122.976 135.247C122.976 135.247 123.594 145.058 132.533 146.648C141.465 148.235 141.814 134.583 141.814 134.583L147.004 134.919C147.004 134.995 147.004 135.074 147.009 135.146C147.068 139.051 148.71 142.19 150.109 144.157C150.109 144.162 150.114 144.162 150.114 144.162C151.158 145.63 152.061 146.45 152.061 146.45C152.251 146.866 152.437 147.291 152.617 147.727C153.65 150.216 154.522 153.002 155.255 155.841C155.389 156.361 155.518 156.883 155.643 157.403C157.267 164.174 156.199 170.276 157.418 177.099" fill="#DBD9D8"/>
<path d="M132.083 194.938C125.497 194.938 118.971 193.714 114.103 190.434C108.499 186.658 109.218 179.61 109.793 173.946C109.896 172.938 109.992 171.984 110.051 171.081C110.229 168.431 110.6 165.422 111.156 162.135L111.3 161.268C111.774 158.575 112.368 155.705 113.068 152.731C113.71 150 114.208 148.211 114.213 148.194L114.287 147.925L114.498 147.748C114.924 147.389 115.325 147.008 115.691 146.615V146.581L115.936 146.337C118.293 143.591 118.329 140.748 117.943 138.843C117.627 137.288 117.014 136.246 117.009 136.234L116.29 135.024L123.811 134.253L123.87 135.185C123.894 135.556 124.568 144.313 132.687 145.76C134.474 146.076 135.938 145.745 137.167 144.744C140.677 141.881 140.912 134.626 140.914 134.555L140.938 133.623L147.898 134.071V134.912C147.898 134.964 147.898 135.019 147.9 135.07V135.125C147.958 138.704 149.431 141.601 150.713 143.45L150.845 143.635C151.813 144.993 152.658 145.769 152.666 145.779L152.802 145.903L152.879 146.074C153.063 146.483 153.26 146.922 153.447 147.382C154.414 149.713 155.315 152.482 156.12 155.609C156.257 156.133 156.386 156.661 156.513 157.188C157.414 160.942 157.507 164.528 157.599 167.997C157.673 170.884 157.752 173.87 158.3 176.934L158.308 176.972C158.852 180.005 159.304 184.437 156.94 187.77C154.982 190.53 151.599 191.773 148.873 192.55C144.01 193.934 138.022 194.931 132.081 194.931M115.871 148.932C115.713 149.516 115.308 151.042 114.817 153.136C114.124 156.076 113.537 158.91 113.073 161.562C113.029 161.816 112.986 162.077 112.943 162.336L112.929 162.425C112.383 165.654 112.018 168.604 111.846 171.193C111.784 172.125 111.685 173.096 111.58 174.121C111.024 179.579 110.394 185.765 115.107 188.937C123.854 194.83 138.499 193.635 148.384 190.822C150.828 190.128 153.844 189.033 155.478 186.73C157.452 183.949 157.031 180.003 156.542 177.276L156.537 177.248C155.967 174.049 155.886 170.995 155.809 168.041C155.715 164.509 155.629 161.174 154.771 157.602C154.649 157.085 154.52 156.572 154.388 156.057C153.602 153.012 152.728 150.321 151.791 148.062C151.635 147.681 151.475 147.317 151.319 146.97C151.044 146.701 150.402 146.042 149.661 145.051H149.22L149.216 144.432C147.869 142.475 146.338 139.476 146.135 135.752L142.656 135.527C142.467 137.76 141.662 143.39 138.31 146.129C136.674 147.463 134.678 147.933 132.378 147.525C124.546 146.129 122.639 138.829 122.203 136.222L119.134 136.536C119.338 137.053 119.553 137.715 119.709 138.481C120.164 140.726 120.138 144.051 117.493 147.279V147.295L117.268 147.549C116.844 148.031 116.376 148.493 115.876 148.932" fill="#164B5F"/>
<path d="M160.172 165.568C159.697 166.143 159.341 166.409 159.341 166.409C159.324 166.421 157.951 167.442 157.793 167.521C157.786 167.523 157.774 167.525 157.764 167.533C157.599 167.609 157.436 167.672 157.263 167.729C157.227 167.743 157.191 167.753 157.158 167.763C156.99 167.818 156.823 167.861 156.65 167.89C156.628 167.899 156.602 167.894 156.576 167.902C156.415 167.926 156.257 167.945 156.104 167.954C156.068 167.957 156.044 167.959 156.015 167.959C155.845 167.966 155.675 167.959 155.5 167.949L155.289 167.926C155.143 167.904 154.999 167.885 154.851 167.851C153.38 167.521 152.376 166.965 151.707 166.064C150.649 164.631 150.44 162.339 150.531 158.685C150.536 158.505 150.536 158.316 150.543 158.131C150.543 157.954 150.555 157.777 150.545 157.597C150.531 156.752 150.44 155.851 150.28 154.924C150.203 154.471 150.112 154.011 150.004 153.551C149.935 153.211 149.851 152.875 149.76 152.533C149.673 152.176 149.575 151.819 149.475 151.459C149.405 151.229 149.338 150.999 149.266 150.762C149.127 150.307 148.981 149.844 148.825 149.399C148.679 148.946 148.519 148.505 148.365 148.072C147.021 144.394 145.562 141.497 145.562 141.497C145.493 141.339 145.421 141.191 145.361 141.042C144.419 138.879 144.163 137.645 144.546 136.816C144.59 136.723 144.642 136.62 144.709 136.541C144.752 136.478 144.817 136.416 144.899 136.347C145.198 136.076 145.694 135.769 145.694 135.769C147.323 134.943 149.139 135.491 153.087 138.826C156.604 141.802 160.244 145.386 161.902 152.291C162.048 152.897 162.201 153.558 162.328 154.229C162.35 154.32 162.371 154.406 162.383 154.492C162.436 154.749 162.477 155.003 162.517 155.261C163.342 160.791 161.322 164.19 160.174 165.578" fill="#FCCD9B"/>
<path d="M155.866 168.855C155.722 168.855 155.583 168.848 155.452 168.841L155.123 168.805C154.977 168.783 154.826 168.762 154.659 168.723C152.948 168.338 151.781 167.662 150.988 166.596C149.735 164.9 149.544 162.401 149.635 158.661L149.64 158.472C149.64 158.347 149.644 158.223 149.647 158.098V157.947C149.651 157.842 149.654 157.736 149.649 157.631C149.635 156.811 149.548 155.958 149.395 155.07C149.318 154.614 149.23 154.171 149.132 153.747L149.127 153.721C149.069 153.436 148.997 153.136 148.894 152.753C148.818 152.43 148.729 152.101 148.612 151.694C148.547 151.474 148.478 151.246 148.408 151.011C148.245 150.479 148.109 150.058 147.979 149.684C147.862 149.315 147.735 148.965 147.615 148.627L147.522 148.361C146.216 144.789 144.778 141.922 144.764 141.893L144.742 141.845C144.716 141.785 144.69 141.727 144.663 141.67C144.618 141.569 144.572 141.469 144.532 141.368C143.638 139.317 143.156 137.681 143.734 136.428C143.796 136.299 143.878 136.136 144 135.982C144.1 135.848 144.218 135.738 144.314 135.657C144.649 135.352 145.164 135.031 145.222 134.995L145.289 134.957C147.421 133.874 149.613 134.705 153.667 138.127C157.165 141.085 161.041 144.847 162.773 152.068C162.922 152.679 163.075 153.34 163.207 154.03L163.214 154.063C163.231 154.138 163.252 154.229 163.267 154.332C163.322 154.607 163.365 154.868 163.401 155.11C164.307 161.193 161.928 164.847 160.864 166.136C160.334 166.776 159.922 167.089 159.877 167.123L159.814 167.168C158.724 167.973 158.406 168.194 158.274 168.273L158.26 168.285L158.214 168.306C158.214 168.306 158.197 168.316 158.19 168.318L158.104 168.357C157.941 168.431 157.768 168.498 157.565 168.565C157.517 168.582 157.469 168.599 157.421 168.611C157.234 168.671 157.04 168.721 156.841 168.757C156.791 168.769 156.745 168.776 156.707 168.778C156.501 168.81 156.324 168.829 156.158 168.838C156.123 168.841 156.089 168.843 156.046 168.846C155.984 168.848 155.924 168.85 155.864 168.85M158.044 168.376H158.037C158.037 168.376 158.042 168.376 158.044 168.376ZM155.574 167.044C155.715 167.051 155.849 167.058 155.972 167.051H156.029C156.156 167.039 156.278 167.027 156.42 167.006C156.446 167.001 156.472 166.996 156.496 166.994H156.501C156.626 166.972 156.75 166.941 156.88 166.898L156.985 166.867C157.098 166.831 157.191 166.795 157.277 166.759L157.323 166.718L157.414 166.689C157.531 166.61 157.86 166.38 158.746 165.724C158.77 165.707 158.789 165.693 158.801 165.683C158.801 165.683 159.091 165.458 159.477 164.991C160.389 163.889 162.424 160.743 161.623 155.379C161.59 155.154 161.549 154.907 161.499 154.655L161.487 154.586C161.482 154.55 161.472 154.514 161.463 154.476L161.441 154.377C161.319 153.721 161.168 153.079 161.024 152.485C159.417 145.788 155.933 142.396 152.502 139.495C148.329 135.97 147.052 136.081 146.13 136.536C145.988 136.627 145.674 136.835 145.495 136.998C145.464 137.025 145.444 137.041 145.43 137.056L145.394 137.101C145.394 137.101 145.387 137.116 145.356 137.18C145.114 137.707 145.375 138.817 146.18 140.669C146.221 140.767 146.257 140.843 146.293 140.922C146.319 140.982 146.345 141.042 146.374 141.102C146.525 141.404 147.907 144.195 149.206 147.748L149.302 148.016C149.426 148.369 149.558 148.733 149.678 149.107C149.81 149.483 149.953 149.926 150.123 150.482C150.195 150.721 150.265 150.954 150.334 151.184C150.461 151.625 150.555 151.979 150.634 152.305C150.737 152.691 150.818 153.026 150.883 153.34C150.991 153.797 151.084 154.274 151.166 154.758C151.333 155.731 151.429 156.677 151.443 157.564C151.448 157.686 151.446 157.832 151.443 157.976V158.124C151.436 158.258 151.434 158.373 151.434 158.488L151.429 158.69C151.348 161.96 151.489 164.241 152.431 165.515C152.958 166.225 153.765 166.67 155.049 166.96C155.159 166.984 155.267 167.001 155.38 167.015L155.574 167.037V167.044ZM157.529 166.656C157.529 166.656 157.514 166.661 157.507 166.663L157.529 166.656Z" fill="#164B5F"/>
<path d="M162.176 153.558C162.404 154.476 162.588 155.441 162.742 156.464C163.566 161.994 161.743 165.161 160.595 166.546C159.182 167.408 157.569 168.204 155.71 168.901C154.766 169.26 153.755 169.591 152.675 169.895C144.742 172.123 140.952 168.635 140.952 168.637C140.935 168.623 139.687 167.468 139.586 167.329C139.579 167.32 139.574 167.315 139.567 167.305C139.464 167.161 139.378 167.011 139.292 166.86C139.272 166.828 139.256 166.793 139.241 166.764C139.165 166.615 139.098 166.457 139.038 166.301C139.03 166.28 139.026 166.253 139.016 166.232C138.968 166.086 138.925 165.94 138.896 165.791C138.887 165.76 138.882 165.736 138.877 165.707C138.846 165.547 138.827 165.381 138.815 165.218C138.815 165.183 138.81 165.144 138.81 165.111C138.805 164.941 138.803 164.77 138.822 164.593C138.954 163.148 139.383 162.118 140.219 161.359C141.611 160.091 144.126 159.572 148.252 159.114C149.112 159.018 150.027 158.831 150.969 158.57C151.158 158.517 151.35 158.462 151.539 158.405C151.994 158.268 152.456 158.117 152.919 157.952C153.259 157.832 154.984 157.485 155.327 157.353" fill="#FCCD9B"/>
<path d="M147.644 171.536C143.984 171.536 141.717 170.288 140.8 169.651L140.752 169.667L140.349 169.303C140.337 169.291 139.144 168.206 138.883 167.887L138.837 167.83C138.708 167.65 138.605 167.471 138.514 167.312C138.485 167.262 138.457 167.207 138.433 167.157C138.349 166.994 138.27 166.812 138.198 166.62L138.162 166.51C138.119 166.376 138.066 166.201 138.025 166.009C138.013 165.964 138.004 165.92 137.994 165.873C137.958 165.688 137.932 165.494 137.92 165.281V165.247V165.214C137.917 165.18 137.915 165.151 137.915 165.12C137.91 164.96 137.908 164.744 137.929 164.509C138.085 162.813 138.622 161.601 139.616 160.695C141.214 159.241 143.955 158.688 148.155 158.223C148.936 158.136 149.803 157.964 150.73 157.705L150.855 157.669C150.996 157.629 151.137 157.59 151.276 157.547C151.729 157.411 152.18 157.264 152.618 157.109C152.819 157.039 153.205 156.948 153.821 156.807C154.235 156.711 154.861 156.57 155.002 156.517L155.649 158.192C155.431 158.278 155.026 158.374 154.218 158.558C153.866 158.64 153.332 158.762 153.215 158.803C152.75 158.968 152.273 159.124 151.794 159.267C151.645 159.313 151.492 159.356 151.339 159.399L151.212 159.435C150.184 159.72 149.223 159.912 148.349 160.008C144.616 160.422 142.053 160.904 140.821 162.025C140.169 162.619 139.827 163.436 139.714 164.677C139.7 164.816 139.702 164.953 139.707 165.084C139.707 165.123 139.709 165.156 139.712 165.183C139.721 165.312 139.736 165.425 139.757 165.53L139.777 165.616C139.793 165.702 139.82 165.796 139.86 165.928C139.875 165.966 139.884 165.997 139.892 166.023C139.939 166.146 139.987 166.256 140.038 166.354L140.074 166.424C140.143 166.546 140.21 166.663 140.28 166.761L140.287 166.769C140.438 166.931 141.272 167.713 141.547 167.964C141.722 168.115 145.253 171.045 152.431 169.028C153.471 168.735 154.468 168.41 155.39 168.06C157.057 167.435 158.605 166.694 159.995 165.858C161.054 164.524 162.601 161.625 161.851 156.596C161.698 155.573 161.518 154.648 161.303 153.771L163.047 153.34C163.277 154.272 163.469 155.25 163.629 156.33C164.504 162.197 162.537 165.607 161.286 167.118L161.19 167.233L161.063 167.312C159.542 168.242 157.846 169.059 156.025 169.742C155.057 170.111 154.01 170.453 152.918 170.758C150.917 171.321 149.161 171.534 147.644 171.534M140.311 166.797L140.316 166.805C140.316 166.805 140.313 166.8 140.311 166.797Z" fill="#164B5F"/>
<path d="M103.905 165.568C104.379 166.143 104.736 166.409 104.736 166.409C104.753 166.421 106.125 167.442 106.284 167.521C106.291 167.523 106.303 167.526 106.312 167.533C106.478 167.61 106.641 167.672 106.813 167.729C106.847 167.744 106.885 167.753 106.918 167.763C107.086 167.818 107.251 167.861 107.426 167.89C107.448 167.899 107.474 167.895 107.501 167.902C107.661 167.926 107.817 167.945 107.973 167.955C108.009 167.957 108.033 167.959 108.061 167.959C108.231 167.967 108.401 167.959 108.576 167.95L108.787 167.926C108.936 167.904 109.077 167.885 109.226 167.852C110.697 167.521 111.701 166.965 112.369 166.064C113.428 164.632 113.636 162.339 113.545 158.685C113.54 158.505 113.54 158.316 113.533 158.132C113.533 157.954 113.521 157.777 113.531 157.597C113.545 156.752 113.636 155.851 113.797 154.924C113.873 154.471 113.962 154.011 114.072 153.551C114.142 153.211 114.226 152.875 114.317 152.533C114.403 152.176 114.501 151.819 114.604 151.459C114.674 151.229 114.741 150.999 114.813 150.762C114.952 150.307 115.098 149.845 115.253 149.399C115.4 148.946 115.56 148.505 115.713 148.072C117.058 144.394 118.517 141.498 118.517 141.498C118.586 141.34 118.658 141.191 118.718 141.043C119.659 138.879 119.916 137.645 119.532 136.816C119.489 136.723 119.437 136.62 119.369 136.541C119.326 136.479 119.262 136.416 119.18 136.347C118.881 136.076 118.385 135.769 118.385 135.769C116.756 134.943 114.94 135.491 110.991 138.826C107.474 141.802 103.835 145.386 102.177 152.291C102.031 152.897 101.878 153.558 101.751 154.229C101.729 154.32 101.708 154.406 101.696 154.493C101.643 154.749 101.602 155.003 101.561 155.262C100.737 160.791 102.757 164.191 103.905 165.578" fill="#FCCD9B"/>
<path d="M108.209 168.855C108.149 168.855 108.089 168.855 108.027 168.85C107.986 168.85 107.947 168.848 107.895 168.843C107.751 168.833 107.571 168.814 107.365 168.786H107.363C107.325 168.781 107.279 168.776 107.229 168.764C107.037 168.728 106.848 168.683 106.654 168.618C106.601 168.603 106.553 168.589 106.508 168.572C106.292 168.5 106.11 168.429 105.935 168.347C105.925 168.342 105.916 168.34 105.906 168.335L105.88 168.323C105.88 168.323 105.863 168.316 105.856 168.311L105.798 168.278C105.667 168.199 105.348 167.981 104.258 167.173L104.205 167.135C104.15 167.094 103.738 166.78 103.211 166.141C102.145 164.852 99.7682 161.198 100.674 155.12C100.712 154.871 100.755 154.607 100.81 154.336C100.825 154.233 100.846 154.142 100.865 154.068L100.873 154.035C101.002 153.345 101.158 152.683 101.306 152.072C103.038 144.852 106.915 141.09 110.413 138.131C114.466 134.708 116.659 133.879 118.793 134.959L118.86 134.998C118.918 135.034 119.433 135.357 119.783 135.671C119.871 135.747 119.986 135.853 120.085 135.987C120.207 136.14 120.291 136.303 120.351 136.43C120.93 137.686 120.446 139.324 119.546 141.394C119.514 141.473 119.469 141.574 119.421 141.677C119.395 141.735 119.368 141.792 119.344 141.85L119.323 141.895C119.308 141.924 117.871 144.792 116.56 148.373L116.467 148.637C116.347 148.975 116.223 149.322 116.11 149.667C115.973 150.06 115.837 150.484 115.674 151.016C115.602 151.248 115.535 151.478 115.468 151.706C115.35 152.113 115.267 152.432 115.195 152.731C115.087 153.139 115.015 153.436 114.955 153.721L114.95 153.747C114.85 154.171 114.764 154.614 114.687 155.062C114.531 155.956 114.447 156.809 114.433 157.604C114.428 157.734 114.43 157.839 114.433 157.945V158.115C114.44 158.218 114.442 158.342 114.442 158.467V158.659C114.538 162.398 114.347 164.895 113.094 166.591C112.301 167.66 111.134 168.335 109.423 168.721C109.253 168.759 109.102 168.781 108.959 168.802L108.63 168.838C108.498 168.845 108.36 168.853 108.216 168.853M107.66 167.01C107.804 167.032 107.923 167.044 108.029 167.051L108.084 167.056C108.23 167.063 108.367 167.056 108.508 167.049L108.702 167.027C108.812 167.01 108.923 166.996 109.033 166.972C110.315 166.682 111.124 166.236 111.651 165.525C112.593 164.253 112.732 161.972 112.65 158.704L112.646 158.5C112.646 158.388 112.641 158.273 112.638 158.158V157.988C112.631 157.844 112.629 157.698 112.636 157.552C112.65 156.689 112.746 155.743 112.914 154.763C112.993 154.284 113.089 153.807 113.197 153.352C113.261 153.033 113.34 152.707 113.451 152.293C113.523 151.989 113.614 151.646 113.741 151.203C113.812 150.963 113.882 150.731 113.954 150.494C114.124 149.935 114.268 149.492 114.407 149.094C114.519 148.742 114.649 148.381 114.773 148.031L114.869 147.765C116.17 144.205 117.555 141.411 117.706 141.109C117.732 141.049 117.758 140.99 117.785 140.932C117.821 140.853 117.857 140.776 117.888 140.697C118.702 138.824 118.963 137.714 118.719 137.183C118.69 137.123 118.678 137.101 118.676 137.096L118.645 137.058C118.63 137.044 118.614 137.029 118.594 137.012C118.403 136.84 118.084 136.627 117.948 136.54C117.025 136.085 115.748 135.975 111.575 139.499C108.144 142.401 104.66 145.793 103.055 152.489C102.911 153.086 102.761 153.726 102.638 154.384L102.617 154.48C102.607 154.519 102.598 154.552 102.593 154.59L102.581 154.66C102.531 154.907 102.49 155.156 102.454 155.388C101.656 160.748 103.69 163.891 104.601 164.995C104.989 165.465 105.279 165.69 105.283 165.693C105.295 165.702 105.314 165.714 105.334 165.731C106.306 166.45 106.608 166.658 106.694 166.716C106.704 166.72 106.716 166.725 106.726 166.732C106.833 166.78 106.948 166.826 107.097 166.874L107.178 166.898C107.332 166.948 107.454 166.979 107.581 167.001H107.586C107.61 167.003 107.634 167.008 107.66 167.013" fill="#164B5F"/>
<path d="M101.898 153.558C101.67 154.476 101.486 155.441 101.332 156.464C100.508 161.994 102.331 165.161 103.479 166.546C104.893 167.408 106.505 168.204 108.364 168.901C109.308 169.26 110.319 169.591 111.4 169.895C119.332 172.123 123.122 168.635 123.122 168.637C123.139 168.623 124.387 167.468 124.488 167.329C124.495 167.32 124.5 167.315 124.507 167.305C124.61 167.161 124.696 167.011 124.783 166.86C124.802 166.828 124.818 166.793 124.833 166.764C124.91 166.615 124.977 166.457 125.036 166.301C125.044 166.28 125.048 166.253 125.058 166.232C125.106 166.086 125.149 165.94 125.178 165.791C125.187 165.76 125.192 165.736 125.197 165.707C125.231 165.547 125.247 165.381 125.259 165.218C125.259 165.183 125.264 165.144 125.264 165.111C125.269 164.941 125.271 164.77 125.255 164.593C125.123 163.148 124.694 162.118 123.858 161.359C122.466 160.091 119.95 159.572 115.825 159.114C114.965 159.018 114.049 158.831 113.108 158.57C112.919 158.517 112.727 158.462 112.538 158.405C112.085 158.268 111.62 158.117 111.158 157.952C110.817 157.832 109.092 157.485 108.75 157.353" fill="#FCCD9B"/>
<path d="M116.429 171.536C114.912 171.536 113.156 171.32 111.156 170.76C110.063 170.453 109.016 170.111 108.044 169.742C106.228 169.061 104.531 168.244 103.01 167.315L102.883 167.236L102.787 167.121C101.537 165.611 99.5722 162.202 100.444 156.332C100.605 155.252 100.796 154.274 101.026 153.342L102.768 153.774C102.553 154.65 102.373 155.575 102.22 156.598C101.472 161.627 103.017 164.526 104.076 165.86C105.468 166.699 107.014 167.437 108.676 168.06C109.603 168.412 110.598 168.738 111.64 169.03C118.83 171.05 122.361 168.108 122.526 167.964C122.795 167.719 123.633 166.934 123.784 166.768L123.791 166.759C123.861 166.658 123.928 166.541 124 166.416L124.033 166.351C124.084 166.253 124.134 166.141 124.182 166.021C124.189 165.995 124.199 165.963 124.213 165.925C124.244 165.829 124.275 165.719 124.297 165.614L124.316 165.527C124.338 165.424 124.352 165.309 124.362 165.18C124.362 165.154 124.362 165.127 124.364 165.103C124.369 164.95 124.371 164.811 124.357 164.677C124.242 163.431 123.901 162.612 123.25 162.02C122.018 160.899 119.455 160.417 115.722 160.003C114.848 159.907 113.885 159.715 112.866 159.432L112.732 159.394C112.579 159.351 112.423 159.308 112.272 159.26C111.8 159.119 111.321 158.96 110.854 158.795C110.739 158.754 110.205 158.632 109.853 158.553C109.045 158.369 108.643 158.273 108.425 158.187L109.074 156.512C109.213 156.562 109.841 156.706 110.255 156.802C110.871 156.943 111.259 157.032 111.455 157.101C111.896 157.257 112.347 157.406 112.795 157.54C112.938 157.585 113.082 157.624 113.223 157.664L113.353 157.7C114.275 157.954 115.142 158.129 115.921 158.215C120.121 158.68 122.862 159.236 124.46 160.69C125.456 161.596 125.991 162.808 126.146 164.507C126.168 164.737 126.166 164.952 126.161 165.132C126.161 165.144 126.161 165.173 126.158 165.204V165.237L126.156 165.273C126.142 165.487 126.118 165.681 126.079 165.868C126.072 165.915 126.062 165.959 126.048 166.004C126.007 166.193 125.955 166.368 125.912 166.502L125.876 166.613C125.804 166.804 125.722 166.986 125.638 167.149C125.614 167.2 125.588 167.255 125.559 167.303C125.471 167.458 125.368 167.638 125.236 167.82L125.2 167.866C124.96 168.167 123.739 169.282 123.724 169.291L123.329 169.648L123.281 169.631C122.366 170.266 120.097 171.522 116.429 171.522M123.763 166.785C123.763 166.785 123.758 166.79 123.758 166.792L123.763 166.785Z" fill="#164B5F"/>
<path d="M122.463 133.587C122.226 133.671 121.965 133.551 121.884 133.318L121.63 132.604C121.546 132.372 121.673 132.113 121.91 132.029C122.147 131.946 122.408 132.065 122.49 132.298L122.744 133.012C122.828 133.244 122.701 133.503 122.463 133.587Z" fill="#F6B12F"/>
<path d="M123.13 135.458C122.892 135.541 122.631 135.422 122.55 135.189L122.296 134.475C122.212 134.243 122.339 133.984 122.576 133.9C122.813 133.816 123.075 133.936 123.158 134.169L123.412 134.883C123.496 135.115 123.369 135.374 123.132 135.458" fill="#F6B12F"/>
<path d="M123.795 137.329C123.558 137.413 123.296 137.293 123.215 137.061L122.961 136.347C122.877 136.114 123.004 135.855 123.241 135.772C123.479 135.688 123.74 135.808 123.821 136.04L124.075 136.754C124.159 136.986 124.032 137.245 123.795 137.329Z" fill="#F6B12F"/>
<path d="M124.464 139.2C124.227 139.284 123.966 139.164 123.884 138.932L123.63 138.218C123.546 137.985 123.673 137.727 123.91 137.643C124.148 137.559 124.409 137.679 124.493 137.911L124.747 138.625C124.83 138.857 124.703 139.116 124.466 139.2" fill="#F6B12F"/>
<path d="M125.129 141.071C124.892 141.155 124.63 141.035 124.549 140.803L124.295 140.089C124.211 139.856 124.338 139.598 124.575 139.514C124.813 139.43 125.074 139.55 125.155 139.782L125.409 140.496C125.493 140.728 125.366 140.987 125.129 141.071Z" fill="#F6B12F"/>
<path d="M125.794 142.94C125.557 143.024 125.295 142.904 125.214 142.672L124.96 141.958C124.876 141.725 125.003 141.467 125.24 141.383C125.478 141.299 125.739 141.419 125.822 141.651L126.076 142.365C126.16 142.597 126.033 142.856 125.796 142.94" fill="#F6B12F"/>
<path d="M126.46 144.811C126.223 144.895 125.961 144.775 125.88 144.543L125.626 143.829C125.542 143.596 125.669 143.338 125.906 143.254C126.144 143.17 126.405 143.29 126.486 143.522L126.74 144.236C126.824 144.468 126.697 144.727 126.46 144.811Z" fill="#F6B12F"/>
<path d="M127.126 146.682C126.889 146.766 126.627 146.646 126.546 146.414L126.292 145.7C126.208 145.467 126.335 145.209 126.572 145.125C126.81 145.041 127.071 145.161 127.152 145.393L127.406 146.107C127.49 146.339 127.363 146.598 127.126 146.682Z" fill="#F6B12F"/>
<path d="M127.793 148.553C127.556 148.637 127.294 148.517 127.213 148.285L126.959 147.571C126.875 147.339 127.002 147.08 127.239 146.996C127.477 146.912 127.738 147.032 127.819 147.264L128.073 147.978C128.157 148.211 128.03 148.469 127.793 148.553Z" fill="#F6B12F"/>
<path d="M128.459 150.424C128.222 150.508 127.961 150.388 127.879 150.156L127.625 149.442C127.541 149.21 127.668 148.951 127.905 148.867C128.143 148.783 128.404 148.903 128.485 149.135L128.739 149.849C128.823 150.082 128.696 150.34 128.459 150.424Z" fill="#F6B12F"/>
<path d="M129.124 152.293C128.887 152.377 128.626 152.257 128.544 152.025L128.29 151.311C128.206 151.078 128.333 150.82 128.571 150.736C128.808 150.652 129.069 150.772 129.15 151.004L129.404 151.718C129.488 151.95 129.361 152.209 129.124 152.293Z" fill="#F6B12F"/>
<path d="M129.789 154.164C129.551 154.248 129.29 154.128 129.209 153.896L128.955 153.182C128.871 152.949 128.998 152.691 129.235 152.607C129.472 152.523 129.734 152.643 129.815 152.875L130.069 153.589C130.153 153.821 130.026 154.08 129.789 154.164Z" fill="#F6B12F"/>
<path d="M130.457 156.035C130.22 156.119 129.959 156 129.877 155.767L129.623 155.053C129.539 154.821 129.666 154.562 129.903 154.478C130.141 154.394 130.402 154.514 130.483 154.746L130.737 155.46C130.821 155.693 130.694 155.952 130.457 156.035Z" fill="#F6B12F"/>
<path d="M131.123 157.906C130.886 157.99 130.625 157.87 130.543 157.638L130.289 156.924C130.205 156.692 130.332 156.433 130.57 156.349C130.807 156.265 131.068 156.385 131.149 156.617L131.403 157.331C131.487 157.564 131.36 157.822 131.123 157.906Z" fill="#F6B12F"/>
<path d="M131.789 159.777C131.552 159.861 131.29 159.741 131.209 159.509L130.955 158.795C130.871 158.563 130.998 158.304 131.235 158.22C131.472 158.136 131.734 158.256 131.815 158.488L132.069 159.202C132.153 159.435 132.026 159.694 131.789 159.777Z" fill="#F6B12F"/>
<path d="M132.457 161.646C132.22 161.73 131.959 161.61 131.877 161.378L131.623 160.664C131.54 160.432 131.667 160.173 131.904 160.089C132.141 160.005 132.402 160.125 132.484 160.357L132.737 161.071C132.821 161.304 132.694 161.562 132.457 161.646Z" fill="#F6B12F"/>
<path d="M142.433 133.587C142.196 133.503 142.069 133.244 142.153 133.012L142.407 132.298C142.491 132.065 142.749 131.946 142.987 132.029C143.224 132.113 143.351 132.372 143.267 132.604L143.013 133.318C142.929 133.551 142.67 133.673 142.433 133.587Z" fill="#F6B12F"/>
<path d="M141.766 135.458C141.529 135.374 141.402 135.115 141.486 134.883L141.74 134.169C141.824 133.936 142.082 133.816 142.32 133.9C142.557 133.984 142.684 134.243 142.6 134.475L142.346 135.189C142.262 135.422 142.003 135.544 141.766 135.458Z" fill="#F6B12F"/>
<path d="M141.101 137.329C140.864 137.245 140.737 136.986 140.821 136.754L141.075 136.04C141.159 135.808 141.417 135.685 141.655 135.772C141.892 135.855 142.019 136.114 141.935 136.347L141.681 137.061C141.597 137.293 141.338 137.415 141.101 137.329Z" fill="#F6B12F"/>
<path d="M140.435 139.2C140.198 139.116 140.071 138.857 140.155 138.625L140.409 137.911C140.493 137.679 140.751 137.559 140.989 137.643C141.226 137.727 141.353 137.985 141.269 138.218L141.015 138.932C140.931 139.164 140.672 139.286 140.435 139.2Z" fill="#F6B12F"/>
<path d="M139.769 141.071C139.532 140.987 139.405 140.728 139.489 140.496L139.743 139.782C139.827 139.55 140.085 139.43 140.323 139.514C140.56 139.598 140.687 139.856 140.603 140.089L140.349 140.803C140.265 141.035 140.006 141.157 139.769 141.071Z" fill="#F6B12F"/>
<path d="M139.101 142.94C138.864 142.856 138.737 142.597 138.821 142.365L139.075 141.651C139.158 141.419 139.417 141.296 139.654 141.383C139.892 141.467 140.019 141.725 139.935 141.958L139.681 142.672C139.597 142.904 139.338 143.026 139.101 142.94Z" fill="#F6B12F"/>
<path d="M138.436 144.811C138.199 144.727 138.072 144.468 138.156 144.236L138.409 143.522C138.493 143.29 138.752 143.17 138.989 143.254C139.226 143.338 139.353 143.596 139.27 143.829L139.016 144.543C138.932 144.775 138.673 144.897 138.436 144.811Z" fill="#F6B12F"/>
<path d="M137.771 146.682C137.534 146.598 137.407 146.339 137.491 146.107L137.745 145.393C137.829 145.161 138.087 145.038 138.325 145.125C138.562 145.208 138.689 145.467 138.605 145.7L138.351 146.414C138.267 146.646 138.008 146.768 137.771 146.682Z" fill="#F6B12F"/>
<path d="M137.105 148.553C136.868 148.469 136.741 148.211 136.825 147.978L137.079 147.264C137.163 147.032 137.421 146.912 137.658 146.996C137.896 147.08 138.023 147.339 137.939 147.571L137.685 148.285C137.601 148.517 137.342 148.64 137.105 148.553Z" fill="#F6B12F"/>
<path d="M136.44 150.424C136.203 150.34 136.076 150.082 136.16 149.849L136.414 149.135C136.497 148.903 136.756 148.783 136.993 148.867C137.231 148.951 137.357 149.21 137.274 149.442L137.02 150.156C136.936 150.388 136.677 150.511 136.44 150.424Z" fill="#F6B12F"/>
<path d="M135.772 152.293C135.535 152.209 135.408 151.95 135.492 151.718L135.746 151.004C135.83 150.772 136.088 150.649 136.326 150.736C136.563 150.82 136.69 151.078 136.606 151.311L136.352 152.025C136.268 152.257 136.009 152.379 135.772 152.293Z" fill="#F6B12F"/>
<path d="M135.106 154.164C134.869 154.08 134.742 153.821 134.826 153.589L135.08 152.875C135.163 152.643 135.422 152.523 135.659 152.607C135.897 152.691 136.024 152.949 135.94 153.182L135.686 153.896C135.602 154.128 135.343 154.25 135.106 154.164Z" fill="#F6B12F"/>
<path d="M134.441 156.035C134.204 155.952 134.077 155.693 134.161 155.46L134.415 154.746C134.498 154.514 134.757 154.394 134.994 154.478C135.231 154.562 135.358 154.821 135.275 155.053L135.021 155.767C134.937 156 134.678 156.122 134.441 156.035Z" fill="#F6B12F"/>
<path d="M133.772 157.907C133.535 157.823 133.408 157.564 133.491 157.332L133.745 156.618C133.829 156.385 134.088 156.263 134.325 156.349C134.562 156.433 134.689 156.692 134.606 156.924L134.352 157.638C134.268 157.871 134.009 157.993 133.772 157.907Z" fill="#F6B12F"/>
<path d="M133.107 159.777C132.87 159.694 132.743 159.435 132.827 159.202L133.08 158.488C133.164 158.256 133.423 158.136 133.66 158.22C133.897 158.304 134.024 158.563 133.941 158.795L133.687 159.509C133.603 159.741 133.344 159.864 133.107 159.777Z" fill="#F6B12F"/>
<path d="M132.441 161.646C132.204 161.562 132.077 161.304 132.161 161.071L132.415 160.357C132.498 160.125 132.757 160.005 132.994 160.089C133.232 160.173 133.359 160.432 133.275 160.664L133.021 161.378C132.937 161.61 132.678 161.733 132.441 161.646Z" fill="#F6B12F"/>
<path d="M106.674 133.728C106.863 133.69 108.669 130.108 109.735 127.964C110.217 126.998 111.199 126.392 112.277 126.392C113.355 126.392 114.407 125.762 114.877 124.773L116.221 121.955C116.676 120.999 117.625 120.376 118.684 120.338C127.342 118.117 135.96 117.674 144.53 119.401C146.262 119.339 147.819 120.446 148.332 122.101L148.646 123.119C148.895 123.927 149.405 124.629 150.095 125.118L151.71 126.258C152.421 126.761 152.941 127.492 153.181 128.33L155.43 136.174L132.177 154.701L106.671 133.728H106.674Z" fill="#C6C5C4"/>
<path d="M132.169 155.858L104.653 133.232L106.155 132.921C106.404 132.504 107.094 131.258 108.929 127.566C109.564 126.289 110.846 125.496 112.276 125.496C113.055 125.496 113.74 125.072 114.066 124.389L115.41 121.572C115.997 120.34 117.193 119.535 118.546 119.449C127.521 117.161 136.287 116.842 144.608 118.505C144.627 118.505 144.648 118.505 144.668 118.505C146.73 118.505 148.575 119.856 149.188 121.84L149.502 122.858C149.692 123.474 150.087 124.015 150.611 124.389L152.226 125.53C153.101 126.15 153.748 127.058 154.042 128.088L156.457 136.507L132.166 155.86L132.169 155.858ZM107.868 133.551L132.185 153.548L154.402 135.848L152.317 128.582C152.133 127.942 151.733 127.379 151.191 126.993L149.577 125.851C148.728 125.252 148.093 124.375 147.789 123.385L147.475 122.367C147.085 121.102 145.887 120.256 144.564 120.3L144.459 120.304L144.356 120.283C136.249 118.646 127.686 118.96 118.91 121.21L118.817 121.234L118.721 121.239C117.995 121.265 117.351 121.689 117.037 122.343L115.693 125.161C115.065 126.474 113.759 127.291 112.281 127.291C111.538 127.291 110.872 127.703 110.542 128.364C109.135 131.193 108.354 132.717 107.87 133.551" fill="#164B5F"/>
<path d="M144.221 133.06C138.619 138.596 134.947 145.556 132.917 153.747C132.857 153.989 132.515 153.985 132.455 153.747C130.224 144.907 126.307 137.284 120.167 131.275C120.119 131.227 120.093 131.162 120.095 131.095L120.188 129.09L120.749 117.88C120.756 117.753 120.859 117.652 120.986 117.652H143.694C143.823 117.652 143.928 117.755 143.931 117.885L144.192 129.061L144.288 132.887C144.288 132.952 144.264 133.014 144.218 133.06" fill="#FCCD9B"/>
<path d="M132.687 154.823C132.164 154.823 131.712 154.471 131.582 153.963C129.268 144.794 125.329 137.58 119.536 131.912C119.306 131.684 119.182 131.37 119.196 131.049L119.289 129.044L119.852 117.829C119.883 117.223 120.382 116.749 120.988 116.749H143.695C144.306 116.749 144.817 117.247 144.831 117.858L145.092 129.034L145.188 132.861C145.195 133.172 145.073 133.476 144.853 133.694C139.543 138.941 135.82 145.76 133.789 153.958C133.664 154.463 133.211 154.818 132.691 154.818H132.689L132.687 154.823ZM121.005 130.838C126.343 136.14 130.264 142.973 132.682 151.176C134.867 143.793 138.461 137.561 143.384 132.621L143.295 129.078L143.051 118.543H121.613L121.084 129.128L121.005 130.836V130.838Z" fill="#164B5F"/>
<path d="M146.257 133.019C145.4 132.042 144.453 131.251 143.438 130.671C132.659 129.861 124.039 128.374 121.447 127.897C121.19 128.723 120.699 130.278 119.851 132.873L118.145 132.315C119.515 128.12 119.959 126.625 119.961 126.61L120.194 125.822L120.999 125.983C121.097 126.002 130.898 127.94 143.768 128.893L143.962 128.908L144.132 129.001C145.395 129.691 146.564 130.645 147.606 131.835L146.255 133.019H146.257Z" fill="#164B5F"/>
<path d="M171.808 112.758C170.045 113.577 168.449 113.558 167.404 113.388C167.378 113.385 167.354 113.38 167.333 113.373C167.263 113.368 167.196 113.352 167.131 113.337C167.028 113.318 166.928 113.301 166.839 113.277C166.393 113.167 166.139 113.057 166.139 113.057C166.139 113.057 165.682 114.197 165.416 114.775C163.727 118.4 161.422 121.759 158.511 124.59C157.079 126.002 155.493 127.279 153.765 128.4C151.714 129.732 149.474 130.867 147.105 131.807C138.581 135.197 128.384 136.021 119.27 134.066C116.582 133.488 113.992 132.669 111.561 131.601C108.487 130.256 105.679 128.234 103.29 126.114C98.2688 121.665 95.0777 116.79 95.0777 116.79C95.0777 116.79 94.1792 117.307 92.7513 117.465C92.6651 117.477 92.5812 117.484 92.4878 117.489C92.1668 117.513 91.8218 117.518 91.4576 117.494C91.4145 117.494 91.3761 117.489 91.333 117.482C91.1701 117.475 91.0024 117.456 90.8275 117.427C90.3795 117.362 89.9051 117.254 89.4164 117.084C86.1773 115.975 84.1912 110.728 85.7916 106.617C86.2515 105.436 86.9391 104.811 87.6866 104.511C88.0053 104.384 88.3335 104.317 88.6617 104.293H88.688C90.2453 104.195 91.7451 105.074 91.7451 105.074C91.7451 105.074 93.7935 84.5734 99.1841 77.6208C107.176 67.314 120.864 63.3897 134.22 64.6691C146.896 65.8813 158.578 71.3629 163.945 82.3309C165.787 86.0995 168.035 93.3252 168.114 101.066C168.114 101.066 168.792 100.565 169.726 100.237C169.788 100.216 169.858 100.196 169.92 100.175C171.262 99.758 173.051 99.7675 174.211 101.976C176.271 105.894 174.896 111.315 171.808 112.758Z" fill="#FCCD9B"/>
<path d="M129.328 136.006C125.864 136.006 122.409 135.654 119.081 134.94C116.293 134.341 113.643 133.493 111.199 132.42C108.382 131.188 105.519 129.291 102.694 126.783C98.6476 123.196 95.8014 119.387 94.7593 117.909C94.2993 118.079 93.65 118.266 92.8522 118.354C92.7708 118.366 92.6677 118.373 92.5575 118.383C92.1694 118.412 91.7813 118.414 91.4003 118.388C91.3548 118.388 91.3045 118.383 91.247 118.376C91.065 118.366 90.8757 118.345 90.684 118.313C90.1665 118.239 89.6346 118.11 89.1219 117.933C87.5407 117.391 86.1775 116.037 85.2911 114.126C84.1387 111.641 84.0141 108.713 84.9557 106.291C85.4588 104.993 86.2662 104.114 87.3539 103.678C87.7372 103.524 88.154 103.431 88.5973 103.397H88.6236C89.4981 103.34 90.3414 103.539 90.9883 103.761C91.5273 99.1758 93.7003 83.2293 98.4752 77.0697C106.036 67.3212 119.429 62.35 134.307 63.7755C141.02 64.4175 147.227 66.2431 152.263 69.0582C157.915 72.2159 162.117 76.5499 164.753 81.9356C166.547 85.6012 168.646 92.2879 168.972 99.5687C169.115 99.5064 169.269 99.4465 169.429 99.389L169.645 99.3195C171.938 98.608 173.888 99.4249 175.007 101.557C176.226 103.876 176.432 106.811 175.555 109.411C174.889 111.39 173.694 112.865 172.187 113.567C170.217 114.483 168.435 114.459 167.28 114.274C167.247 114.269 167.208 114.265 167.165 114.255C167.079 114.243 167.007 114.226 166.947 114.214C166.858 114.197 166.76 114.181 166.657 114.154C166.516 114.495 166.355 114.875 166.231 115.146C164.432 119.006 162.045 122.398 159.137 125.23C157.656 126.687 156.01 128.007 154.252 129.15C152.194 130.487 149.901 131.66 147.433 132.638C141.837 134.864 135.567 136.006 129.326 136.006M95.363 115.597L95.8278 116.294C95.8589 116.342 99.0214 121.129 103.885 125.439C106.571 127.822 109.273 129.617 111.918 130.774C114.251 131.799 116.786 132.609 119.455 133.184C128.432 135.11 138.389 134.303 146.77 130.968C149.127 130.034 151.315 128.917 153.272 127.645C154.93 126.569 156.48 125.324 157.879 123.948C160.637 121.265 162.896 118.05 164.599 114.392C164.851 113.845 165.299 112.729 165.304 112.719L165.649 111.859L166.497 112.231C166.497 112.231 166.7 112.314 167.053 112.403C167.136 112.427 167.206 112.437 167.28 112.451L167.335 112.463C167.357 112.468 167.378 112.475 167.402 112.477L167.539 112.487L167.589 112.508C168.497 112.65 169.884 112.659 171.425 111.943C172.465 111.457 173.349 110.326 173.849 108.84C174.561 106.73 174.393 104.26 173.411 102.393C172.683 101.006 171.657 100.575 170.181 101.033L169.999 101.09C169.235 101.358 168.648 101.785 168.643 101.79L167.235 102.82L167.215 101.076C167.139 93.5265 164.971 86.4709 163.138 82.7262C156.71 69.5924 142.208 66.3366 134.134 65.5651C119.874 64.1995 107.076 68.912 99.8934 78.1718C94.7233 84.8417 92.6581 104.962 92.639 105.165L92.5 106.56L91.2925 105.85C91.2925 105.85 89.9988 105.115 88.7458 105.189H88.7315C88.4703 105.211 88.2331 105.264 88.0198 105.347C87.4065 105.594 86.9514 106.116 86.6303 106.945C85.8733 108.891 85.9835 111.354 86.9202 113.373C87.5886 114.816 88.6068 115.86 89.7089 116.239C90.1186 116.38 90.5354 116.483 90.9571 116.543C91.1152 116.569 91.2518 116.584 91.3812 116.591L91.5033 116.603C91.8172 116.624 92.1215 116.622 92.4258 116.598C92.5 116.593 92.5671 116.588 92.6366 116.579C93.8608 116.442 94.6323 116.016 94.6395 116.011L95.3702 115.601L95.363 115.597Z" fill="#164B5F"/>
<path d="M131.082 113.199C131.082 113.199 131.073 113.199 131.068 113.199C130.538 113.177 128.785 113.045 128.423 112.185C128.315 111.934 128.284 111.524 128.744 111.014C129.772 109.868 128.641 108.565 128.591 108.512C128.449 108.354 128.464 108.11 128.624 107.968C128.782 107.827 129.027 107.842 129.168 108.002C129.738 108.644 130.505 110.211 129.319 111.529C129.18 111.684 129.108 111.823 129.134 111.888C129.249 112.159 130.268 112.398 131.101 112.432C131.315 112.441 131.48 112.619 131.47 112.832C131.463 113.038 131.291 113.201 131.087 113.201" fill="#164B5F"/>
<path d="M125.12 121.32C133.932 134.741 139.26 120.577 139.26 120.577L125.12 121.32Z" fill="#164B5F"/>
<path d="M132.475 127.995C129.789 127.995 127.068 125.918 124.37 121.811C124.193 121.543 124.174 121.2 124.32 120.913C124.466 120.625 124.753 120.438 125.074 120.422L139.214 119.679C139.516 119.662 139.806 119.801 139.986 120.045C140.166 120.29 140.209 120.608 140.101 120.891C140 121.159 137.58 127.458 133.052 127.961C132.861 127.983 132.669 127.992 132.477 127.992M126.785 122.127C128.92 124.986 131.002 126.382 132.851 126.176C135.228 125.915 136.972 123.21 137.827 121.548L126.785 122.127Z" fill="#164B5F"/>
<path d="M128.322 126.054C128.322 126.054 134.189 130.566 136.631 124.938C136.631 124.938 132.817 121.397 128.322 126.054Z" fill="#EF5D86"/>
<path d="M115.685 99.0297C117.805 98.8955 121.025 100.256 122.165 103.891C123.552 108.311 121.557 112.803 116.578 112.882C111.236 112.968 109.103 109.248 109.446 105.659C109.813 101.814 111.971 99.2645 115.687 99.0321" fill="white"/>
<path d="M122.298 104.676C121.074 101.119 117.519 99.0845 114.526 100.005C113.314 100.376 112.042 101.274 111.302 102.499C110.475 103.864 110.456 105.577 109.684 106.933C109.562 107.149 109.217 107.295 109.073 107.007C108.158 105.175 109.241 102.652 110.262 101.231C111.326 99.7506 112.995 98.7036 114.605 98.3802C116.247 98.0496 118.113 98.3874 119.598 99.396C121.385 100.611 121.984 102.295 122.43 104.604C122.456 104.736 122.349 104.822 122.298 104.674" fill="#164B5F"/>
<path d="M121.987 106.763C121.781 103.567 119.474 101.104 116.834 101.26C114.194 101.416 112.22 104.133 112.423 107.329C112.629 110.525 114.936 112.988 117.579 112.832C120.219 112.676 122.193 109.962 121.987 106.766" fill="#164B5F"/>
<path d="M121.144 106.284C121.079 105.263 120.341 104.475 119.496 104.525C118.652 104.576 118.02 105.443 118.087 106.466C118.151 107.487 118.889 108.275 119.735 108.225C120.578 108.174 121.211 107.307 121.144 106.286" fill="white"/>
<path d="M144.268 97.0627C142.171 97.3957 139.361 99.4249 139.122 103.213C138.829 107.82 141.843 111.754 146.709 110.743C151.932 109.657 153.118 105.57 151.927 102.149C150.65 98.4858 147.94 96.4781 144.268 97.0627Z" fill="white"/>
<path d="M139.177 104.005C139.517 100.273 142.493 97.5152 145.626 97.7548C146.896 97.8531 148.348 98.4496 149.361 99.475C150.492 100.625 150.921 102.285 151.994 103.44C152.164 103.622 152.536 103.689 152.608 103.378C153.06 101.394 151.405 99.1756 150.07 98.016C148.681 96.8085 146.805 96.1544 145.161 96.1928C143.484 96.2311 141.75 96.969 140.545 98.2747C139.095 99.8464 138.916 101.619 139.033 103.965C139.04 104.097 139.165 104.159 139.179 104.003" fill="#164B5F"/>
<path d="M139.979 105.968C139.416 102.813 141.074 99.909 143.68 99.4826C146.289 99.0561 148.86 101.267 149.423 104.425C149.986 107.58 148.328 110.484 145.721 110.911C143.115 111.337 140.544 109.126 139.979 105.968Z" fill="#164B5F"/>
<path d="M140.687 105.319C140.507 104.31 141.037 103.38 141.871 103.244C142.704 103.107 143.526 103.814 143.706 104.825C143.886 105.834 143.356 106.761 142.522 106.898C141.689 107.034 140.867 106.327 140.687 105.319Z" fill="white"/>
<path d="M130.234 26.9855C123.349 26.849 115.438 29.803 114.522 31.952C108.923 45.081 100.485 41.8299 92.9124 64.9973C90.2411 73.167 89.8745 83.4953 90.7921 89.4464C91.1466 91.7464 90.6507 94.6334 92.9267 94.1494C103.336 91.9333 116.784 90.4599 130.234 90.1269C143.684 90.4623 157.132 91.9357 167.542 94.1494C169.815 94.6334 169.322 91.7464 169.676 89.4464C170.594 83.4953 170.227 73.1646 167.556 64.9973C159.983 41.8299 151.545 45.0786 145.946 31.952C145.028 29.803 137.12 26.849 130.234 26.9855Z" fill="#3498CB"/>
<path d="M92.4564 95.1029C91.9677 95.1029 91.5436 94.9687 91.189 94.7004C90.2355 93.9792 90.1445 92.5969 90.0487 91.1307C90.0151 90.6108 89.9792 90.0717 89.9049 89.5854C88.9538 83.4138 89.3874 72.889 92.0587 64.7193C96.5844 50.8716 101.484 46.2501 105.806 42.1725C108.844 39.3071 111.465 36.8322 113.698 31.5998C114.874 28.8422 123.528 25.9625 130.236 26.0871C136.954 25.9601 145.598 28.8398 146.774 31.5998C149.007 36.8322 151.628 39.3071 154.663 42.1725C158.985 46.2501 163.885 50.874 168.41 64.7193C171.082 72.889 171.515 83.4138 170.564 89.5854C170.49 90.0717 170.454 90.6108 170.418 91.1307C170.322 92.5945 170.231 93.9769 169.278 94.698C168.772 95.0813 168.125 95.1915 167.354 95.0286C156.947 92.8125 143.42 91.3535 130.233 91.0252C117.047 91.3559 103.52 92.8125 93.1129 95.0286C92.8829 95.0789 92.6649 95.1029 92.4564 95.1029ZM130.233 89.2284H130.255C143.554 89.559 157.21 91.0324 167.728 93.2725C167.948 93.318 168.128 93.318 168.192 93.2677C168.492 93.0401 168.573 91.8206 168.626 91.0132C168.662 90.455 168.7 89.8752 168.789 89.3122C169.707 83.3491 169.287 73.1813 166.702 65.2776C162.318 51.8635 157.596 47.4097 153.43 43.4782C150.38 40.6008 147.498 37.8816 145.119 32.3042C144.462 30.7637 137.16 27.7521 130.25 27.8839H130.231H130.212C123.293 27.7402 116 30.7637 115.343 32.3042C112.964 37.8816 110.082 40.6008 107.032 43.4782C102.866 47.4097 98.1441 51.8659 93.7598 65.2776C91.1771 73.1789 90.7554 83.3491 91.673 89.3122C91.7592 89.8776 91.7976 90.455 91.8335 91.0132C91.8863 91.8206 91.9677 93.0425 92.2671 93.2677C92.3342 93.318 92.5116 93.3204 92.732 93.2725C103.247 91.0324 116.906 89.559 130.205 89.2284H130.226H130.233Z" fill="#164B5F"/>
<path d="M92.6668 71.5235C90.6471 72.1201 89.1929 73.9745 89.1522 76.0804C89.0539 81.1547 90.2662 86.0253 90.7933 89.4489C91.1478 91.7465 90.6519 94.6358 92.9279 94.1519C103.338 91.9358 116.785 90.4624 130.235 90.1293C143.685 90.4624 157.133 91.9358 167.543 94.1519C169.816 94.6358 169.323 91.7489 169.677 89.4489C170.195 86.0828 171.34 81.4422 171.271 76.5092C171.239 74.2907 169.649 72.3669 167.495 71.8398C142.88 65.8263 116.138 64.6021 92.6668 71.5235Z" fill="#2D89B7"/>
<path d="M92.4572 95.1029C91.9684 95.1029 91.5444 94.9687 91.1898 94.7004C90.2362 93.9792 90.1453 92.5969 90.0494 91.133C90.0159 90.6131 89.9799 90.0741 89.9057 89.5877C89.7835 88.7875 89.6182 87.8939 89.4457 86.95C88.8803 83.8666 88.1783 80.0261 88.2549 76.0659C88.3028 73.5934 90.0135 71.3725 92.4141 70.6657C103.744 67.3236 116.274 65.7352 129.666 65.9364C142.002 66.1233 154.801 67.8171 167.707 70.97C170.297 71.6025 172.132 73.8761 172.168 76.4971C172.221 80.3495 171.55 84.0463 171.011 87.0171C170.843 87.9346 170.685 88.8019 170.565 89.5877C170.491 90.0741 170.455 90.6131 170.419 91.133C170.323 92.5969 170.232 93.9792 169.279 94.7004C168.773 95.0837 168.126 95.1939 167.355 95.031C156.947 92.8149 143.418 91.3558 130.234 91.0276C117.05 91.3558 103.521 92.8149 93.1136 95.031C92.8836 95.0813 92.6656 95.1053 92.4572 95.1053M130.234 89.2308H130.256C143.552 89.5614 157.211 91.0348 167.728 93.2749C167.949 93.3204 168.129 93.3204 168.193 93.2701C168.493 93.0425 168.574 91.823 168.627 91.0156C168.663 90.4574 168.701 89.88 168.79 89.3146C168.914 88.5048 169.075 87.6256 169.243 86.696C169.77 83.8019 170.424 80.201 170.373 76.5234C170.349 74.7482 169.049 73.1478 167.28 72.7141C148.452 68.1142 120.265 64.3216 92.9196 72.3859C91.2617 72.8746 90.0806 74.4008 90.0494 76.0994C89.9752 79.8799 90.6603 83.6198 91.2114 86.6241C91.3863 87.5825 91.5516 88.4881 91.6785 89.3122C91.7648 89.8776 91.8031 90.455 91.8391 91.0132C91.8918 91.8206 91.9732 93.0401 92.2727 93.2677C92.3398 93.318 92.5171 93.3204 92.7375 93.2725C103.255 91.0324 116.914 89.559 130.21 89.2284H130.232L130.234 89.2308Z" fill="#164B5F"/>
<path d="M136.769 80.5102H123.645C122.715 80.5102 121.961 79.7555 121.961 78.826V71.2409C121.961 70.3113 122.715 69.5566 123.645 69.5566H136.769C137.699 69.5566 138.453 70.3113 138.453 71.2409V78.826C138.453 79.7555 137.699 80.5102 136.769 80.5102Z" fill="white"/>
<path d="M136.25 162.59C136.25 164.674 134.561 166.366 132.474 166.366C130.387 166.366 128.698 164.677 128.698 162.59C128.698 160.503 130.387 158.814 132.474 158.814C134.561 158.814 136.25 160.503 136.25 162.59Z" fill="#F6B12F"/>
</g>
</g>
</svg>
