<svg width="547" height="63" viewBox="0 0 547 63" fill="none" xmlns="http://www.w3.org/2000/svg">
<g clip-path="url(#clip0_195_7728)">
<path d="M142.983 17.4036C142.614 19.5204 142.426 20.8509 142.137 22.1546C141.76 23.8615 141.041 25.3869 139.153 25.8372C137.164 26.3076 135.686 25.3466 134.51 23.848C131.828 20.4208 129.167 16.9802 126.036 12.9415C125.787 16.2544 125.599 18.9693 125.377 21.6842C125.27 23.0148 125.202 24.3722 124.92 25.6692C124.651 26.9191 123.979 27.9607 122.434 27.88C120.996 27.8061 120.176 26.9124 119.867 25.6288C119.584 24.4394 119.329 23.1895 119.396 21.9799C119.665 16.8391 120.028 11.705 120.411 6.57092C120.539 4.84388 120.996 3.17732 122.844 2.51204C124.759 1.81988 126.002 3.21092 127.225 4.29956C129.174 6.01988 130.451 8.29124 131.929 10.3946C133.327 12.3904 134.751 14.3661 136.458 16.7652C137.722 13.6941 137.023 10.8583 137.762 8.26436C138.038 7.3034 138.017 6.25508 138.313 5.30756C138.703 4.05764 139.019 2.54564 140.88 2.82116C142.621 3.07652 143.219 4.36004 143.373 5.9258C143.414 6.36932 143.333 6.82628 143.387 7.2698C143.461 7.85444 143.037 8.73476 144.018 8.87588C144.872 9.00356 145.067 8.19716 145.349 7.61924C146.202 5.87204 147.412 4.43396 149.025 3.3386C153.063 0.603556 158.487 1.61156 160.751 5.52932C161.672 7.12196 161.994 8.85572 160.395 10.0586C158.943 11.154 157.801 10.072 156.679 8.9498C154.629 6.89348 152.781 7.09508 151.202 9.60164C149.099 12.9482 148.89 16.5568 150.496 20.1789C151.115 21.5767 152.21 22.5511 153.87 22.5578C156.101 22.5578 157.169 21.0525 158.171 19.3725C156.914 18.1024 155.254 18.7946 153.991 18.1159C153.117 17.6522 152.049 17.3834 152.096 16.0797C152.136 15.0112 152.902 14.5207 153.742 14.178C156.43 13.0826 159.185 12.9616 161.914 13.936C163.406 14.4669 164.481 15.7236 164.131 17.3095C163.184 21.6439 161.638 25.7229 157.19 27.7322C153.433 29.4256 149.025 28.2698 146.364 24.8426C144.811 22.8468 143.608 20.6292 142.99 17.4103L142.983 17.4036Z" fill="#233C25"/>
<path d="M227.937 18.1361C226.929 20.9384 227.837 23.2501 226.997 25.3534C226.54 26.5025 226.284 27.8062 224.678 27.7995C223.119 27.7995 222.488 26.5966 222.299 25.3937C221.191 18.5057 221.399 11.5909 222.393 4.7163C222.763 2.15598 225.075 1.58478 227.165 1.18158C230.773 0.489419 233.831 1.7259 236.096 4.53486C238.219 7.17582 238.481 10.5425 236.425 12.9349C233.69 16.1134 234.321 18.2101 237.433 20.5352C238.716 17.0005 240.41 17.6657 242.399 20.1925C243.225 21.2475 244.63 21.6709 245.987 21.7918C247.768 21.9531 250.14 22.2824 250.685 20.347C251.175 18.5797 248.682 18.4318 247.432 17.7598C245.759 16.8661 243.965 16.1605 242.574 14.8501C240.269 12.6728 239.435 10.0049 240.423 6.92046C241.344 4.05774 243.111 1.90734 246.236 1.6251C249.354 1.34286 251.827 2.88846 253.742 5.26734C254.656 6.3963 254.898 7.75374 253.924 8.95662C252.835 10.3006 251.74 9.37326 250.691 8.72142C250.127 8.37198 249.556 7.98894 248.931 7.76046C247.983 7.41774 246.895 7.06158 246.29 8.26446C245.772 9.29934 246.122 10.3141 247.089 10.8853C249.011 12.0209 251.007 13.0357 252.976 14.0773C255.389 15.3541 257.217 17.0744 257.176 20.0245C257.129 23.1157 255.442 25.2526 252.842 26.7041C248.964 28.8747 243.474 28.243 239.711 25.051C238.743 24.2312 238.401 23.9825 237.5 25.1518C236.465 26.4891 235.229 25.3937 234.248 24.7688C231.761 23.203 230.001 20.8779 227.944 18.116L227.937 18.1361ZM227.534 13.1163C229.449 12.236 230.558 11.3691 231.331 10.1326C231.842 9.31278 231.828 8.43918 231.197 7.67982C230.525 6.8667 229.544 6.38286 228.569 6.55758C227.36 6.77934 227.884 7.98894 227.783 8.76846C227.622 10.0453 227.628 11.3355 227.534 13.1096V13.1163Z" fill="#233C25"/>
<path d="M202.583 7.06816C201.555 7.41088 200.668 8.0224 199.888 7.91488C195.325 7.27648 195.453 10.3341 195.258 13.385C195.043 16.7248 195.493 20.1117 194.6 23.4112C194.217 24.8358 193.928 26.489 192.019 26.3546C190.279 26.2336 189.808 24.7821 189.533 23.2432C188.78 18.9962 189.237 14.7626 189.6 10.529C189.734 8.99008 189.667 8.01568 187.631 8.11648C185.736 8.21056 183.827 7.47808 183.868 5.22016C183.908 3.06976 185.675 2.21632 187.644 2.22976C192.61 2.25664 197.711 1.12096 202.415 3.74848C202.664 3.8896 203.134 4.05088 203.262 3.93664C207.341 0.401918 212.145 2.66656 216.601 2.344C217.878 2.24992 219.86 2.62624 219.853 4.48768C219.853 6.05344 218.106 6.42976 216.849 6.6784C215.109 7.02112 213.268 7.28992 211.521 7.10176C207.394 6.65824 208.987 9.64864 208.665 11.5168C208.275 13.7882 209.074 14.6214 211.494 14.4198C213.664 14.2384 216.85 14.2384 216.97 16.8659C217.118 19.984 213.825 19.527 211.561 19.8429C210.633 19.9706 208.974 19.0432 208.9 20.8374C208.826 22.7392 210.519 22.2218 211.655 22.2957C213.328 22.4032 215.022 22.3427 216.668 22.5846C217.441 22.6989 218.503 22.8467 218.644 24.0429C218.765 25.0845 218.281 25.8371 217.414 26.2202C214.108 27.6918 210.674 28.6797 207.018 28.1219C204.451 27.7322 203.201 26.0118 203.06 23.4515C202.912 20.7702 202.67 18.0957 202.59 15.4077C202.509 12.7331 202.569 10.0518 202.569 7.06816H202.583Z" fill="#233C25"/>
<path d="M47.5596 17.3431C49.5286 19.2919 51.5715 21.2004 53.07 23.5658C53.7219 24.594 54.3536 25.7901 53.2246 26.9057C52.1561 27.9674 50.8928 27.5709 49.831 26.9527C47.4924 25.602 45.5974 23.7069 43.83 21.6842C43.3596 21.1466 43.2992 20.0445 42.2508 20.2327C41.2227 20.4141 41.4444 21.3617 41.2361 22.0874C40.6851 24.0026 40.9136 26.9729 37.9702 26.6301C34.7715 26.2605 35.1948 23.25 35.3561 20.9988C35.6451 16.8861 36.0953 12.7802 36.7337 8.7079C37.0563 6.65158 36.8883 4.13158 39.8988 3.47302C43.5747 2.6599 47.2438 1.76614 49.9049 5.45542C51.8201 8.11654 52.0083 11.0599 50.2745 13.9226C49.5353 15.1457 48.5004 16.1805 47.5731 17.3431H47.5596ZM42.2576 13.1028C44.1593 12.0679 45.584 11.3085 45.2748 9.2455C45.1606 8.46598 44.5222 8.00902 43.8636 8.24422C41.431 9.1111 42.99 11.2077 42.2576 13.1028Z" fill="#233C25"/>
<path d="M172.437 27.9476C170.596 27.914 167.451 27.0538 165.812 23.5191C165.18 22.1684 164.884 20.6564 166.134 19.5005C167.518 18.2305 168.392 19.8567 169.225 20.4548C171.093 21.7921 173.123 22.0205 175.267 21.8861C175.892 21.8458 176.678 21.866 176.947 21.073C177.242 20.1994 176.752 19.5677 176.14 19.0436C174.823 17.9281 173.163 17.5921 171.591 17.0209C167.949 15.7037 166.127 13.3517 166.242 10.2068C166.369 6.79974 169.178 3.40614 172.888 2.1831C176.154 1.1079 179.661 2.1159 181.59 4.71654C182.565 6.03366 183.237 7.5591 182.007 8.96358C180.804 10.3345 179.567 9.2727 178.465 8.52006C177.195 7.65318 175.845 7.14246 174.4 7.90182C173.439 8.40582 172.323 8.96358 172.296 10.2807C172.263 11.6919 173.64 11.5777 174.447 12.001C175.522 12.5655 176.752 12.8209 177.84 13.3652C181.886 15.3812 183.875 18.9495 183.021 22.4977C182.168 26.0593 178.801 28.1425 172.444 27.9476H172.437Z" fill="#233C25"/>
<path d="M97.0053 16.2346C96.293 18.9495 95.4463 21.6173 93.4773 23.7341C91.2395 26.1399 88.4574 27.1546 85.2722 26.2676C82.1138 25.3872 80.6824 22.874 80.1986 19.8096C79.5602 15.7642 79.7013 11.7389 81.4821 7.98917C83.0747 4.62917 85.4267 1.60517 89.4587 1.75301C93.4101 1.89413 95.7218 4.76357 97.0389 8.36549C97.0254 10.993 97.012 13.6138 97.0053 16.2413V16.2346ZM86.1928 15.8314C86.1928 16.3824 86.139 16.9469 86.2062 17.4912C86.3339 18.5396 86.0114 19.9575 87.3822 20.3002C88.827 20.6564 89.5663 19.4064 90.1173 18.3312C91.4613 15.697 91.7973 12.8612 91.515 9.93125C91.421 8.95685 90.9976 8.19749 90.0434 7.93541C89.1496 7.68677 88.6255 8.39237 88.1215 8.97029C86.4146 10.946 86.1592 13.3584 86.1928 15.8314Z" fill="#233C25"/>
<path d="M98.3089 8.36526C98.7054 6.0939 98.6651 3.01614 101.823 3.2379C105.096 3.46638 104.451 6.51054 104.424 8.8155C104.391 11.8328 103.974 14.8635 104.532 17.8606C104.767 19.1441 105.076 20.7569 106.655 20.9585C108.362 21.1803 109.175 19.7422 109.746 18.3781C110.842 15.7505 110.862 12.9214 111.023 10.1393C111.111 8.67438 111.231 7.22958 111.917 5.91246C112.448 4.89774 113.106 3.99726 114.484 4.15182C115.794 4.30638 116.359 5.20686 116.775 6.30894C118.496 10.9054 115.586 21.8993 111.809 25.0309C107.845 28.3169 102.711 27.4904 99.9889 23.1022C98.7188 21.0593 98.2417 18.7745 98.0939 16.4024C98.1678 13.7278 98.2417 11.0465 98.3156 8.37198L98.3089 8.36526Z" fill="#233C25"/>
<path d="M32.6076 14.2455C32.5202 15.7642 32.5404 16.5504 32.4194 17.3232C31.5928 22.6656 27.2853 26.449 22.6418 25.9316C18.5023 25.4746 15.532 21.2679 15.8076 15.9053C16.0159 11.7658 17.2725 7.97572 20.7199 5.3146C24.221 2.61316 28.5487 3.71524 30.4437 7.70692C31.5391 10.0119 32.9167 12.2429 32.6076 14.2388V14.2455ZM27.1576 14.2589C27.1173 13.3719 27.0837 12.4781 27.0367 11.5911C26.9964 10.825 27.1039 9.9514 26.1362 9.65572C25.3365 9.4138 24.6444 9.68932 24.006 10.2605C22.1378 11.9271 21.2709 16.7319 22.3797 19.0032C23.0181 20.3204 23.8044 20.5152 25.0274 19.8096C27.2584 18.5194 27.2316 16.4093 27.1576 14.2589Z" fill="#233C25"/>
<path d="M71.3012 10.1796C72.5243 7.73356 73.035 5.40172 74.4798 3.53356C75.4542 2.2702 76.6974 1.4974 78.2497 2.29708C79.6811 3.043 79.6945 4.36012 79.1972 5.77804C76.8452 12.5182 74.5403 19.2785 72.1748 26.012C71.7716 27.1678 71.2072 28.4513 69.628 28.1153C68.0756 27.786 67.444 26.4488 67.5784 25.051C67.8068 22.7259 68.116 20.3604 68.8283 18.1496C69.3323 16.5771 68.9627 15.7371 67.9009 14.6686C66.0932 12.8475 64.4401 10.8651 62.7736 8.90956C61.5102 7.43116 60.6971 5.69068 62.4779 4.19212C64.3057 2.64652 65.8312 4.02412 67.0945 5.35468C68.4654 6.8062 69.7288 8.35852 71.3012 10.1662V10.1796Z" fill="#233C25"/>
<path d="M0.935847 15.6364C0.935847 13.1836 0.868647 10.7308 0.956007 8.27796C1.04337 5.72436 2.07825 4.17876 5.02161 4.10484C7.24593 4.04436 9.46353 3.70164 11.6475 4.29972C12.5816 4.55508 13.6501 4.8306 13.771 6.10068C13.8987 7.46484 13.0722 8.13684 11.9029 8.46612C10.8344 8.7618 9.75921 9.10452 8.66385 9.20532C6.90321 9.35988 6.97041 10.509 6.90993 11.7925C6.84273 13.197 7.54161 13.5196 8.73105 13.4994C9.28209 13.4927 9.88017 13.5061 10.3842 13.6943C11.5131 14.1109 12.9646 14.4872 12.9176 15.9589C12.8706 17.3231 11.5803 18.2908 10.411 18.2504C6.79569 18.1228 6.15729 20.1925 6.29841 23.109C6.32529 23.66 6.25809 24.238 6.09681 24.7621C5.68017 26.0994 5.60625 27.8802 3.61041 27.7794C1.77585 27.6853 1.29201 26.0524 1.13745 24.6613C0.808167 21.6776 0.767847 18.6604 0.606567 15.6632C0.720807 15.6632 0.835047 15.6632 0.942567 15.6565L0.935847 15.6364Z" fill="#233C25"/>
<path d="M268.224 24.8093C267.445 27.3158 266.295 29.5469 263.722 30.7229C262.983 31.0589 262.27 31.3344 261.518 30.8169C260.597 30.1853 260.704 29.2243 260.96 28.3843C261.618 26.2608 262.337 24.1574 263.151 22.0944C263.655 20.8109 264.837 20.6563 265.973 21.0461C267.7 21.6441 268.184 23.1024 268.217 24.8093H268.224Z" fill="#233C25"/>
</g>
<path d="M362.197 13.2435C361.39 16.4019 360.967 18.6935 360.228 20.8707C358.574 25.7091 355.369 28.209 351.579 27.8461C347.534 27.4563 343.636 23.5991 343.112 19.0832C342.567 14.4397 343.293 9.91714 345.524 5.7709C347.258 2.55202 349.818 0.126101 353.709 0.341141C357.714 0.556181 359.744 3.2845 360.644 6.98722C360.718 7.29634 360.947 7.56514 361.142 7.92802C363.01 7.59874 362.479 5.87842 362.929 4.82338C363.554 3.35842 364.36 2.1757 366.074 2.3773C367.935 2.59234 368.634 3.90274 368.668 5.7037C368.735 9.27202 368.366 12.8605 369.172 16.3952C369.421 17.4906 369.528 18.9018 370.812 19.0295C372.236 19.1639 372.794 17.8199 373.204 16.6304C374.131 13.9626 374.044 11.12 374.575 8.38498C374.823 7.0813 375.153 5.78434 375.576 4.5277C375.919 3.50626 376.725 2.83426 377.847 2.97538C378.929 3.10978 379.803 3.86914 379.897 4.91746C380.488 11.241 380.462 17.5779 376.214 22.7859C372.794 26.9792 366.867 25.9779 364.233 21.1328C363.063 18.9757 362.835 16.5498 362.203 13.2704L362.197 13.2435ZM355.759 11.8189C355.759 10.8176 355.833 9.80962 355.739 8.81506C355.638 7.7533 355.06 6.8797 354.018 6.57058C353.051 6.28162 352.352 6.95362 351.72 7.61218C349.603 9.81634 348.414 16.6573 349.724 19.3319C350.262 20.4272 350.873 21.6368 352.325 21.5696C353.635 21.5159 354.099 20.3667 354.522 19.3251C355.497 16.9194 355.853 14.3994 355.759 11.8189Z" fill="#233C25"/>
<path d="M489.07 18.6396C488.876 21.3007 488.916 23.3234 488.156 25.158C487.269 27.2949 484.978 27.8057 483.741 25.9039C482.928 24.654 482.794 24.869 481.719 25.4402C478.11 27.3621 474.172 27.3823 470.268 26.6901C467.62 26.2197 466.196 24.2978 466.175 21.6636C466.142 15.8373 466.572 10.038 467.956 4.35957C468.467 2.26965 469.757 1.20117 472.096 1.32885C474.649 1.46997 477.243 1.00629 479.75 1.87317C480.798 2.23605 482.102 2.57205 482.068 3.90933C482.041 5.17941 480.812 5.70357 479.743 5.99253C478.46 6.34197 477.095 6.74517 475.805 6.63765C472.459 6.36213 473.11 8.86197 472.855 10.6562C472.506 13.109 474.441 12.0943 475.556 12.2892C476.329 12.4236 477.109 12.4908 477.875 12.6588C478.816 12.8671 479.562 13.4114 479.649 14.406C479.73 15.4073 479.051 16.133 478.184 16.4556C476.833 16.9663 475.429 17.3225 474.038 17.7122C473.057 17.9877 472.102 18.1289 472.163 19.5669C472.23 21.1932 473.399 20.9109 474.313 20.9513C477.095 21.0655 479.877 21.0588 483.392 22.3289C483.392 17.0537 483.298 12.1682 483.419 7.28949C483.526 2.80725 484.292 2.33685 488.701 2.16213C492.175 2.02101 495.28 2.62581 497.108 5.76405C499.043 9.07701 498.136 12.2556 495.676 14.9906C494.782 15.9852 495.286 16.4623 496.005 17.1343C497.316 18.3506 498.64 19.5669 499.802 20.9177C500.662 21.9189 501.543 23.0748 500.441 24.5061C499.305 25.9845 498.001 25.2386 496.845 24.6607C494.084 23.2764 491.745 21.2604 489.064 18.6329L489.07 18.6396ZM489.285 12.8873C491.154 11.1871 492.773 10.2665 492.02 8.23701C491.732 7.45749 490.529 7.03413 490.078 7.41717C488.506 8.76789 489.642 10.5621 489.292 12.8873H489.285Z" fill="#233C25"/>
<path d="M281.241 11.98C281.241 9.52051 281.187 7.06099 281.254 4.60819C281.335 1.69843 282.424 0.193151 285.811 0.468671C291.933 0.965951 295.588 3.22387 296.872 7.77331C297.658 10.5554 295.797 12.652 295.427 15.004C295.118 16.9528 297.718 19.0091 296.905 21.7576C295.299 27.1807 289.439 29.8888 284.359 27.3957C283.15 26.8044 282.605 25.8904 282.222 24.6136C280.972 20.4607 281.113 16.2271 281.241 11.98ZM287.403 13.0015C289.332 12.0203 291.267 11.4021 291.126 9.33907C290.998 7.47091 289.547 6.32851 287.403 6.14707V13.0015ZM289.05 19.6274C287.988 19.5602 286.893 19.95 286.765 21.7039C286.698 22.5976 287 22.9269 287.847 22.7522C289.298 22.4565 290.71 21.8853 291.019 20.3263C291.166 19.5736 290.118 19.6072 289.05 19.6274Z" fill="#233C25"/>
<path d="M429.061 18.7944C427.515 19.0296 427.75 20.5483 427.253 21.4623C424.807 25.9579 420.426 28.6728 416.488 27.9471C412.207 27.1541 408.746 23.1691 408.135 18.1627C407.449 12.5717 408.309 7.40402 412.859 3.5333C416.306 0.603382 420.997 0.771382 423.759 3.79538C424.955 5.10578 425.775 6.60434 424.531 8.29106C423.288 9.97106 421.924 8.92946 420.715 8.17682C418.053 6.53042 416.481 8.04914 415.258 10.1055C413.941 12.3163 414.001 14.8296 414.31 17.2959C414.572 19.4059 415.426 21.4354 417.617 21.8856C419.888 22.3493 421.077 20.4811 422.179 18.9624C421.985 18.5928 421.951 18.4517 421.884 18.4248C420.056 17.8335 417.274 17.8671 417.475 15.3135C417.684 12.5919 420.439 12.7666 422.536 12.6658C427.71 12.4306 428.49 13.2101 428.98 18.9019L429.081 18.7944H429.061Z" fill="#233C25"/>
<path d="M389.399 14.4937C388.526 17.437 389.191 20.0847 388.304 22.5442C387.874 23.7337 387.632 24.9433 386.006 24.9365C384.373 24.9298 383.62 23.9084 383.27 22.4972C383.055 21.637 382.827 20.7365 382.854 19.8629C383.015 15.1791 383.17 10.4885 383.519 5.81141C383.64 4.18517 384.077 2.37077 386.147 1.98773C387.887 1.66517 388.593 2.96213 389.48 4.19861C392.255 8.07605 395.192 11.8325 398.249 15.878C399.58 13.9493 399.479 11.8997 399.99 10.0652C400.467 8.34485 400.83 6.59765 401.75 5.04533C402.281 4.15157 403.061 3.36533 404.129 3.53333C405.292 3.71477 406.233 4.54133 406.246 5.79797C406.307 11.4495 405.42 16.9532 402.275 21.7445C400.574 24.3317 397.524 24.1839 395.104 21.5967C393.149 19.5068 391.496 17.1346 389.386 14.4937H389.399Z" fill="#233C25"/>
<path d="M428.953 18.902C430.29 17.6924 431.567 18.0755 432.844 19.0297C433.738 19.695 434.605 20.4275 435.592 20.918C437.481 21.8656 439.409 21.1465 440.337 19.6748C441.237 18.2502 439.376 17.39 438.334 16.6912C436.58 15.5084 434.598 14.6617 432.878 13.432C429.76 11.2076 428.846 8.01564 430.21 4.93788C431.581 1.84668 434.766 0.126358 438.139 0.663958C441.425 1.1814 444.624 4.239 445.007 7.18908C445.148 8.27772 444.88 9.29916 443.999 9.84348C442.944 10.4953 441.869 10.1728 440.989 9.23868C440.223 8.42556 439.47 7.57212 438.569 6.94044C437.81 6.40284 436.681 6.31548 436.11 7.095C435.351 8.1366 436.459 8.68764 437.152 9.1446C439.02 10.3676 441.036 11.3756 442.823 12.6995C446.224 15.206 447.554 18.3577 446.465 21.3481C445.027 25.3196 441.614 26.7376 437.837 27.3491C434.638 27.8665 431.419 25.958 429.786 23.0012C429.047 21.6572 428.926 20.2528 429.054 18.7878L428.946 18.902H428.953Z" fill="#233C25"/>
<path d="M510.305 27.1542C507.611 27.1273 505.662 25.7698 504.17 23.653C503.484 22.6786 503.256 21.5967 504.069 20.5686C504.875 19.5471 505.843 19.9369 506.784 20.3804C506.885 20.4274 506.979 20.4946 507.086 20.5215C508.451 20.9045 510.312 21.8789 511.018 20.3468C511.784 18.6869 509.573 18.2569 508.531 17.4169C508.101 17.0741 507.597 16.8188 507.12 16.5231C504.103 14.6482 502.389 12.0342 503.068 8.40535C503.673 5.16631 505.682 2.99575 508.955 2.26999C512.462 1.48375 515.305 2.86807 517.644 5.38807C518.88 6.72535 519.371 8.39191 518.094 9.91063C516.642 11.6309 515.352 10.3541 514.068 9.40663C513.363 8.88919 512.563 8.44567 511.737 8.16343C510.695 7.80727 509.7 8.05591 509.217 9.17143C508.753 10.2399 509.539 10.8245 510.272 11.3554C511.979 12.6053 513.847 13.6671 515.379 15.0985C517.576 17.1481 518.504 19.7151 517.207 22.6854C515.896 25.6758 513.423 26.9257 510.299 27.1407L510.305 27.1542Z" fill="#233C25"/>
<path d="M308.88 8.74141C309.774 6.58429 310.52 4.61533 311.407 2.71357C312.119 1.18813 313.295 0.0390063 315.11 0.690846C316.938 1.34269 317.146 2.88829 316.615 4.58173C314.612 10.9657 313.067 17.4976 310.433 23.6732C309.949 24.8089 309.707 26.5494 307.859 26.1798C305.991 25.8035 306.091 24.1504 306.058 22.6921C306.058 22.5779 306.024 22.4569 306.058 22.3561C308.074 16.5837 304.465 13.1766 300.89 9.62845C299.156 7.90813 296.361 5.72413 299.183 3.22429C301.717 0.979807 303.531 3.87613 305.305 5.44861C306.468 6.47677 307.59 7.55197 308.88 8.74813V8.74141Z" fill="#233C25"/>
<path d="M334.907 9.04385C336.231 6.53729 337.266 4.33313 338.522 2.26337C339.309 0.959692 340.579 0.0256121 342.191 0.872332C343.717 1.67201 343.925 3.05633 343.327 4.61537C340.727 11.3555 338.529 18.257 335.404 24.7888C335.075 25.4743 334.759 26.2202 333.738 26.1664C332.622 26.1059 332.132 25.2727 331.917 24.4595C331.399 22.504 331.083 20.3738 331.836 18.5191C332.763 16.241 331.964 14.8567 330.492 13.2439C328.852 11.4429 327.468 9.37985 326.131 7.33025C325.15 5.82497 325.418 4.29281 326.883 3.18401C328.355 2.06177 329.726 2.76737 330.754 3.87617C332.185 5.42849 333.415 7.16225 334.907 9.04385Z" fill="#233C25"/>
<path d="M453.885 14.2853C453.885 13.5058 453.797 12.7128 453.898 11.9467C454.342 8.63376 454.194 5.98609 449.584 6.61777C448.079 6.82609 446.661 5.82481 446.64 4.08433C446.62 2.43121 447.756 1.37616 449.396 1.28208C453.737 1.02 458.078 0.751204 462.426 0.764644C463.992 0.764644 465.981 1.16784 466.095 3.39216C466.216 5.69712 464.415 6.07345 462.681 6.11377C460.289 6.17425 459.973 7.41744 459.946 9.54097C459.899 14.2046 460.578 18.9086 459.429 23.5387C459.072 24.9768 458.837 26.6904 457.03 26.6501C455.114 26.6098 454.792 24.9029 454.476 23.2834C453.891 20.2997 453.898 17.2958 453.885 14.2853Z" fill="#233C25"/>
<path d="M523.262 24.8961C521.79 24.7752 520.5 24.1032 520.486 22.356C520.48 20.6155 521.427 19.3857 523.336 19.3521C525.143 19.3253 526.42 20.2325 526.42 22.0872C526.42 23.9016 525.278 24.8894 523.255 24.8961H523.262Z" fill="#233C25"/>
<defs>
<clipPath id="clip0_195_7728">
<rect width="267.624" height="61.1789" fill="white" transform="translate(0.599976 1)"/>
</clipPath>
</defs>
</svg>
