<svg width="230" height="229" viewBox="0 0 230 229" fill="none" xmlns="http://www.w3.org/2000/svg">
<mask id="mask0_195_8754" style="mask-type:luminance" maskUnits="userSpaceOnUse" x="0" y="0" width="230" height="229">
<path d="M229.114 0H0.499268V228.614H229.114V0Z" fill="white"/>
</mask>
<g mask="url(#mask0_195_8754)">
<mask id="mask1_195_8754" style="mask-type:luminance" maskUnits="userSpaceOnUse" x="0" y="0" width="230" height="229">
<path d="M229.114 0.000732422H0.499268V228.615H229.114V0.000732422Z" fill="white"/>
</mask>
<g mask="url(#mask1_195_8754)">
<mask id="mask2_195_8754" style="mask-type:luminance" maskUnits="userSpaceOnUse" x="0" y="0" width="230" height="229">
<path d="M229.114 0.000915527H0.499268V228.615H229.114V0.000915527Z" fill="white"/>
</mask>
<g mask="url(#mask2_195_8754)">
<path d="M97.0097 152.848C97.0097 152.848 90.7842 168.853 87.0459 174.04C83.3076 179.226 77.2198 179.31 74.8617 174.044C72.5036 168.777 78.947 147.027 82.027 145.791C88.9616 143.007 97.0097 152.848 97.0097 152.848Z" fill="#FCCD9B"/>
<path d="M97.0097 152.848C97.0097 152.848 90.7842 168.853 87.0459 174.04C83.3076 179.226 77.2198 179.31 74.8617 174.044C72.5036 168.777 78.947 147.027 82.027 145.791C88.9616 143.007 97.0097 152.848 97.0097 152.848Z" stroke="#164B5F" stroke-width="2.1549" stroke-miterlimit="10"/>
<path d="M62.7897 181.531C62.1292 180.348 62.9759 179.048 64.0957 178.002C66.2887 175.959 69.5042 174.425 72.6582 172.926C73.2065 172.666 73.7696 172.401 74.43 172.274C75.0905 172.147 75.7974 172.166 76.4895 172.187C80.539 172.312 84.5906 172.437 88.6401 172.562C88.9385 175.888 89.4571 179.205 90.1958 182.505C85.4965 183.457 80.6111 184.069 75.679 184.323C72.1291 184.505 68.3314 184.469 65.3129 183.309C64.2037 182.884 63.211 182.287 62.7876 181.529" fill="#FDEFF1"/>
<path d="M62.7897 181.531C62.1292 180.348 62.9759 179.048 64.0957 178.002C66.2887 175.959 69.5042 174.425 72.6582 172.926C73.2065 172.666 73.7696 172.401 74.43 172.274C75.0905 172.147 75.7974 172.166 76.4895 172.187C80.539 172.312 84.5906 172.437 88.6401 172.562C88.9385 175.888 89.4571 179.205 90.1958 182.505C85.4965 183.457 80.6111 184.069 75.679 184.323C72.1291 184.505 68.3314 184.469 65.3129 183.309C64.2037 182.884 63.211 182.287 62.7876 181.529L62.7897 181.531Z" stroke="#164B5F" stroke-width="1.29336" stroke-miterlimit="10"/>
<path d="M77.4296 176.791C75.8737 175.123 73.1601 174.283 70.2473 174.09C71.0433 173.695 71.8519 173.309 72.6562 172.928C73.2045 172.668 73.7676 172.403 74.428 172.276C75.0885 172.149 75.7954 172.168 76.4876 172.19C80.537 172.314 84.5886 172.439 88.6381 172.564C88.9365 175.89 89.4551 179.207 90.1938 182.507C86.2206 183.311 82.1141 183.87 77.9588 184.179C79.866 182.077 79.7538 179.353 77.4296 176.791Z" fill="#FDEFF1"/>
<path d="M77.4296 176.791C75.8737 175.123 73.1601 174.283 70.2473 174.09C71.0433 173.695 71.8519 173.309 72.6562 172.928C73.2045 172.668 73.7676 172.403 74.428 172.276C75.0885 172.149 75.7954 172.168 76.4876 172.19C80.537 172.314 84.5886 172.439 88.6381 172.564C88.9365 175.89 89.4551 179.207 90.1938 182.507C86.2206 183.311 82.1141 183.87 77.9588 184.179C79.866 182.077 79.7538 179.353 77.4296 176.791Z" stroke="#164B5F" stroke-width="1.29336" stroke-miterlimit="10"/>
<path d="M62.5556 180.064C66.3574 180.411 69.7483 180.608 73.5861 180.725C79.0665 180.892 84.7439 180.803 89.7544 179.433C90.3132 180.407 90.5799 181.444 90.5397 182.475C83.821 184.105 76.4693 185.299 69.4013 184.374C67.5829 184.137 65.7689 183.745 64.3443 183.013C62.9197 182.28 62.3757 181.194 62.5556 180.062" fill="#FDEFF1"/>
<path d="M62.5556 180.064C66.3574 180.411 69.7483 180.608 73.5861 180.725C79.0665 180.892 84.7439 180.803 89.7544 179.433C90.3132 180.407 90.5799 181.444 90.5397 182.475C83.821 184.105 76.4693 185.299 69.4013 184.374C67.5829 184.137 65.7689 183.745 64.3443 183.013C62.9197 182.28 62.3757 181.194 62.5556 180.062V180.064Z" stroke="#164B5F" stroke-width="1.29336" stroke-miterlimit="10"/>
<path d="M76.4097 178.642C76.6066 178.709 76.8521 178.72 77.0723 178.659C77.4364 178.555 77.5993 178.292 77.4342 178.068C77.3644 177.975 75.6751 175.78 69.9153 175.276C69.5152 175.242 69.1447 175.411 69.0876 175.657C69.0304 175.9 69.31 176.127 69.7079 176.163C74.6295 176.595 76.0456 178.366 76.1028 178.441C76.1705 178.529 76.2785 178.597 76.4097 178.642Z" fill="#2C2D30"/>
<path d="M73.8874 180.007C74.0843 180.075 74.33 180.085 74.5501 180.022C74.9142 179.918 75.0749 179.656 74.9098 179.431C74.84 179.338 73.1509 177.143 67.3911 176.639C66.991 176.605 66.6205 176.775 66.5634 177.018C66.5062 177.264 66.7856 177.49 67.1835 177.524C72.1051 177.956 73.5212 179.728 73.5784 179.804C73.6461 179.891 73.7562 179.96 73.8853 180.005" fill="#2C2D30"/>
<path d="M127.172 161.394C127.172 161.394 136.577 175.765 138.607 181.798C140.637 187.83 137.112 192.748 131.416 191.543C125.72 190.339 111.747 172.42 112.555 169.232C114.376 162.054 127.17 161.396 127.17 161.396" fill="#FCCD9B"/>
<path d="M127.172 161.394C127.172 161.394 136.577 175.765 138.607 181.798C140.637 187.83 137.112 192.748 131.416 191.543C125.72 190.339 111.747 172.42 112.555 169.232C114.376 162.054 127.17 161.396 127.17 161.396L127.172 161.394Z" stroke="#164B5F" stroke-width="2.1549" stroke-miterlimit="10"/>
<path d="M117.533 199.143C116.542 198.22 116.945 196.723 117.69 195.383C119.148 192.765 121.733 190.316 124.275 187.919C124.715 187.505 125.171 187.079 125.761 186.755C126.35 186.431 127.031 186.232 127.694 186.04C131.587 184.911 135.479 183.785 139.37 182.657C140.678 185.729 142.192 188.726 143.911 191.639C139.732 193.99 135.274 196.075 130.657 197.837C127.336 199.103 123.71 200.237 120.484 200.061C119.299 199.996 118.168 199.735 117.533 199.143Z" fill="#FDEFF1"/>
<path d="M117.533 199.143C116.542 198.22 116.945 196.723 117.69 195.383C119.148 192.765 121.733 190.316 124.275 187.919C124.715 187.505 125.171 187.079 125.761 186.755C126.35 186.431 127.031 186.232 127.694 186.04C131.587 184.911 135.479 183.785 139.37 182.657C140.678 185.729 142.192 188.726 143.911 191.639C139.732 193.99 135.274 196.075 130.657 197.837C127.336 199.103 123.71 200.237 120.484 200.061C119.299 199.996 118.168 199.735 117.533 199.143Z" stroke="#164B5F" stroke-width="1.29336" stroke-miterlimit="10"/>
<path d="M130.004 190.127C128.01 189.018 125.17 189.054 122.34 189.767C122.975 189.147 123.626 188.531 124.274 187.919C124.715 187.505 125.17 187.079 125.76 186.755C126.349 186.431 127.028 186.232 127.693 186.04C131.586 184.914 135.479 183.785 139.369 182.657C140.677 185.729 142.191 188.726 143.91 191.639C140.377 193.628 136.643 195.424 132.782 196.994C133.948 194.407 133.004 191.848 130.004 190.127Z" fill="#FDEFF1"/>
<path d="M130.004 190.127C128.01 189.018 125.17 189.054 122.34 189.767C122.975 189.147 123.626 188.531 124.274 187.919C124.715 187.505 125.17 187.079 125.76 186.755C126.349 186.431 127.028 186.232 127.693 186.04C131.586 184.914 135.479 183.785 139.369 182.657C140.677 185.729 142.191 188.726 143.91 191.639C140.377 193.628 136.643 195.424 132.782 196.994C133.948 194.407 133.004 191.848 130.004 190.127Z" stroke="#164B5F" stroke-width="1.29336" stroke-miterlimit="10"/>
<path d="M116.86 197.818C120.583 196.977 123.871 196.122 127.558 195.051C132.825 193.525 138.199 191.692 142.545 188.847C143.377 189.602 143.951 190.506 144.228 191.499C138.335 195.117 131.709 198.516 124.7 199.812C122.897 200.146 121.051 200.332 119.47 200.074C117.889 199.816 117.038 198.95 116.86 197.816" fill="#FDEFF1"/>
<path d="M116.86 197.818C120.583 196.977 123.871 196.122 127.558 195.051C132.825 193.525 138.199 191.692 142.545 188.847C143.377 189.602 143.951 190.506 144.228 191.499C138.335 195.117 131.709 198.516 124.7 199.812C122.897 200.146 121.051 200.332 119.47 200.074C117.889 199.816 117.038 198.95 116.86 197.816V197.818Z" stroke="#164B5F" stroke-width="1.29336" stroke-miterlimit="10"/>
<path d="M129.605 192.202C129.814 192.206 130.049 192.14 130.24 192.013C130.555 191.804 130.629 191.503 130.4 191.34C130.305 191.272 128.023 189.704 122.386 190.997C121.994 191.088 121.694 191.364 121.717 191.613C121.739 191.863 122.073 191.992 122.462 191.905C127.278 190.8 129.17 192.051 129.249 192.104C129.34 192.168 129.465 192.2 129.602 192.202" fill="#2C2D30"/>
<path d="M127.624 194.278C127.833 194.281 128.068 194.217 128.259 194.09C128.574 193.878 128.646 193.58 128.42 193.417C128.324 193.349 126.043 191.783 120.408 193.074C120.016 193.163 119.716 193.44 119.737 193.69C119.758 193.94 120.094 194.071 120.484 193.98C125.3 192.877 127.192 194.126 127.27 194.181C127.361 194.245 127.488 194.276 127.624 194.278Z" fill="#2C2D30"/>
<path d="M88.0606 164.859C88.0606 164.859 106.25 158.591 111.068 160.27C115.922 161.961 126.264 147.925 126.264 147.925C126.264 147.925 118.729 141.881 107.63 139.9C100.439 138.617 90.5117 141.932 82.3324 144.58C82.3324 144.58 79.7119 156.244 88.0606 164.857" fill="#8C6339"/>
<path d="M88.0606 164.859C88.0606 164.859 106.25 158.591 111.068 160.27C115.922 161.961 126.264 147.925 126.264 147.925C126.264 147.925 118.729 141.881 107.63 139.9C100.439 138.617 90.5117 141.932 82.3324 144.58C82.3324 144.58 79.7119 156.244 88.0606 164.857V164.859Z" stroke="#164B5F" stroke-width="2.1549" stroke-miterlimit="10"/>
<path d="M133.566 168.837C133.566 168.837 123.344 153.974 123.407 149.155C123.471 144.299 107.265 140.982 107.265 140.982C107.265 140.982 104.047 147.427 105.654 157.776C106.693 164.48 112.794 174.171 117.781 180.161C117.781 180.161 128.177 179.461 133.566 168.837Z" fill="#8C6339"/>
<path d="M133.566 168.837C133.566 168.837 123.344 153.974 123.407 149.155C123.471 144.299 107.265 140.982 107.265 140.982C107.265 140.982 104.047 147.427 105.654 157.776C106.693 164.48 112.794 174.171 117.781 180.161C117.781 180.161 128.177 179.461 133.566 168.837Z" stroke="#164B5F" stroke-width="2.1549" stroke-miterlimit="10"/>
<path d="M112.706 110.47C112.706 110.47 112.706 110.47 112.708 110.47C112.703 110.451 112.701 110.434 112.697 110.415C112.608 109.943 112.466 109.56 112.236 109.255C112.168 109.164 112.087 109.081 112.003 109.005C111.234 108.315 109.763 108.195 106.912 108.495C106.912 108.495 103.493 108.993 99.3274 109.122C98.8363 109.137 98.3366 109.147 97.8307 109.151C97.3248 109.156 96.8125 109.151 96.2981 109.143C96.042 109.136 95.7839 109.13 95.5256 109.122C95.1298 109.107 94.7338 109.086 94.3401 109.06C93.9654 109.037 93.595 109.009 93.2267 108.974C92.7229 108.925 92.2276 108.868 91.7429 108.796C90.5299 108.62 89.3889 108.368 88.3855 108.019C84.3763 106.62 81.8192 106.002 79.9374 106.607C78.8091 106.971 77.9243 107.775 77.1157 109.117C77.0183 109.278 76.938 109.443 76.8618 109.613C76.847 109.649 76.8299 109.683 76.8151 109.719C76.7474 109.882 76.6881 110.051 76.6394 110.22C76.6309 110.25 76.6247 110.28 76.6162 110.309C76.576 110.468 76.5421 110.629 76.5189 110.79C76.5146 110.817 76.5082 110.843 76.506 110.87C76.4849 111.046 76.4745 111.226 76.4724 111.406C76.4724 111.444 76.4724 111.484 76.4724 111.524C76.4766 111.708 76.4871 111.893 76.5125 112.077C76.5125 112.085 76.5168 112.096 76.5168 112.106C76.5422 112.286 77.1433 113.965 77.1539 113.982C77.1539 113.982 78.9806 119.047 87.3292 120.43C96.6749 121.977 102.543 119.566 107.242 116.742C111.895 113.944 113.029 112.341 112.703 110.474" fill="#FCCD9B"/>
<path d="M112.706 110.47C112.706 110.47 112.706 110.47 112.708 110.47C112.703 110.451 112.701 110.434 112.697 110.415C112.608 109.943 112.466 109.56 112.236 109.255C112.168 109.164 112.087 109.081 112.003 109.005C111.234 108.315 109.763 108.195 106.912 108.495C106.912 108.495 103.493 108.993 99.3274 109.122C98.8363 109.137 98.3366 109.147 97.8307 109.151C97.3248 109.156 96.8125 109.151 96.2981 109.143C96.042 109.136 95.7839 109.13 95.5256 109.122C95.1298 109.107 94.7338 109.086 94.3401 109.06C93.9654 109.037 93.595 109.009 93.2267 108.974C92.7229 108.925 92.2276 108.868 91.7429 108.796C90.5299 108.62 89.3889 108.368 88.3855 108.019C84.3763 106.62 81.8192 106.002 79.9374 106.607C78.8091 106.971 77.9243 107.775 77.1157 109.117C77.0183 109.278 76.938 109.443 76.8618 109.613C76.847 109.649 76.8299 109.683 76.8151 109.719C76.7474 109.882 76.6881 110.051 76.6394 110.22C76.6309 110.25 76.6247 110.28 76.6162 110.309C76.576 110.468 76.5421 110.629 76.5189 110.79C76.5146 110.817 76.5082 110.843 76.506 110.87C76.4849 111.046 76.4745 111.226 76.4724 111.406C76.4724 111.444 76.4724 111.484 76.4724 111.524C76.4766 111.708 76.4871 111.893 76.5125 112.077C76.5125 112.085 76.5168 112.096 76.5168 112.106C76.5422 112.286 77.1433 113.965 77.1539 113.982C77.1539 113.982 78.9806 119.047 87.3292 120.43C96.6749 121.977 102.543 119.566 107.242 116.742C111.895 113.944 113.029 112.341 112.703 110.474" stroke="#164B5F" stroke-width="2.1549" stroke-miterlimit="10"/>
<path d="M98.1085 137.112C98.9531 132.11 104.482 108.404 108.915 101.571C111.81 97.1045 124.228 98.5736 127.943 105.248C132.513 113.444 125.775 151.714 125.775 151.714C119.744 155.662 112.183 151.208 108.231 148.306C104.236 145.37 97.4585 140.95 98.1062 137.112" fill="#662F90"/>
<path d="M98.1085 137.112C98.9531 132.11 104.482 108.404 108.915 101.571C111.81 97.1045 124.228 98.5736 127.943 105.248C132.513 113.444 125.775 151.714 125.775 151.714C119.744 155.662 112.183 151.208 108.231 148.306C104.236 145.37 97.4585 140.95 98.1062 137.112H98.1085Z" stroke="#164B5F" stroke-width="2.1549" stroke-miterlimit="10"/>
<path d="M125.574 107.373C125.847 107.318 126.014 106.929 125.916 106.503C125.823 106.08 125.523 105.79 125.25 105.851C124.972 105.911 124.837 106.296 124.922 106.713C125.006 107.13 125.298 107.428 125.574 107.373Z" fill="#FDB714"/>
<path d="M124.774 109.458C125.051 109.414 125.22 109.026 125.148 108.601C125.081 108.177 124.782 107.875 124.509 107.926C124.238 107.978 124.069 108.349 124.143 108.772C124.215 109.194 124.497 109.505 124.774 109.458Z" fill="#FDB714"/>
<path d="M123.893 111.511C124.171 111.477 124.353 111.094 124.296 110.667C124.241 110.237 123.965 109.928 123.686 109.966C123.406 110.004 123.231 110.372 123.288 110.796C123.347 111.221 123.616 111.543 123.893 111.509" fill="#FDB714"/>
<path d="M122.906 113.52C123.194 113.506 123.402 113.133 123.357 112.697C123.319 112.263 123.057 111.941 122.777 111.967C122.498 111.992 122.309 112.352 122.35 112.779C122.379 113.201 122.623 113.535 122.904 113.518" fill="#FDB714"/>
<path d="M121.791 115.47C122.07 115.472 122.314 115.114 122.312 114.682C122.295 114.242 122.051 113.906 121.772 113.914C121.497 113.925 121.291 114.272 121.287 114.689C121.287 115.11 121.509 115.468 121.791 115.47Z" fill="#FDB714"/>
<path d="M120.504 117.331C120.779 117.36 121.048 117.015 121.088 116.581C121.129 116.145 120.919 115.796 120.635 115.777C120.352 115.758 120.108 116.067 120.077 116.49C120.045 116.913 120.227 117.299 120.504 117.331Z" fill="#FDB714"/>
<path d="M118.989 119.011C119.26 119.075 119.586 118.783 119.671 118.353C119.751 117.917 119.582 117.54 119.307 117.489C119.032 117.438 118.771 117.735 118.672 118.139C118.581 118.548 118.714 118.948 118.987 119.013" fill="#FDB714"/>
<path d="M117.306 120.518C117.44 120.567 117.594 120.527 117.732 120.425C117.865 120.315 117.982 120.142 118.05 119.932C118.183 119.515 118.058 119.124 117.789 119.041C117.52 118.958 117.213 119.21 117.089 119.621C116.951 120.017 117.038 120.421 117.304 120.518" fill="#FDB714"/>
<path d="M115.484 121.846C115.736 121.964 116.1 121.729 116.28 121.333C116.462 120.942 116.371 120.527 116.115 120.421C115.859 120.315 115.518 120.525 115.351 120.916C115.181 121.306 115.232 121.727 115.486 121.844" fill="#FDB714"/>
<path d="M113.542 122.987C113.783 123.126 114.17 122.94 114.382 122.559C114.59 122.169 114.543 121.757 114.297 121.628C114.052 121.496 113.705 121.697 113.493 122.057C113.283 122.424 113.298 122.845 113.542 122.987Z" fill="#FDB714"/>
<path d="M111.518 123.965C111.751 124.132 112.149 123.969 112.386 123.601C112.627 123.236 112.619 122.824 112.382 122.671C112.145 122.519 111.778 122.68 111.546 123.04C111.306 123.387 111.285 123.802 111.518 123.965Z" fill="#FDB714"/>
<path d="M109.433 124.795C109.651 124.97 110.055 124.833 110.324 124.492C110.593 124.155 110.612 123.732 110.389 123.567C110.167 123.402 109.782 123.524 109.522 123.863C109.261 124.2 109.215 124.619 109.433 124.795Z" fill="#FDB714"/>
<path d="M107.297 125.476C107.502 125.662 107.919 125.567 108.205 125.237C108.491 124.906 108.54 124.494 108.328 124.312C108.114 124.128 107.731 124.25 107.445 124.559C107.162 124.875 107.09 125.288 107.297 125.476Z" fill="#FDB714"/>
<path d="M105.129 126.039C105.326 126.246 105.743 126.155 106.048 125.846C106.353 125.537 106.427 125.131 106.226 124.934C106.025 124.737 105.629 124.824 105.328 125.131C105.028 125.436 104.933 125.834 105.129 126.039Z" fill="#FDB714"/>
<path d="M102.938 126.488C103.124 126.697 103.543 126.632 103.865 126.344C104.187 126.056 104.28 125.641 104.089 125.44C103.901 125.241 103.497 125.3 103.181 125.586C102.866 125.874 102.754 126.276 102.938 126.486" fill="#FDB714"/>
<path d="M101.694 123.374C101.415 123.389 101.195 123.789 101.267 124.231C101.341 124.676 101.662 124.936 101.931 124.879C102.198 124.822 102.325 124.502 102.27 124.102C102.211 123.702 101.978 123.359 101.694 123.376" fill="#FDB714"/>
<path d="M101.19 125.501C100.911 125.516 100.691 125.916 100.763 126.359C100.837 126.803 101.158 127.064 101.427 127.006C101.694 126.949 101.821 126.63 101.766 126.23C101.707 125.83 101.474 125.487 101.19 125.504" fill="#EC9E21"/>
<path d="M102.91 121.511C102.631 121.482 102.37 121.814 102.349 122.246C102.324 122.678 102.557 123.025 102.832 123.035C103.109 123.048 103.329 122.739 103.357 122.324C103.38 121.909 103.189 121.541 102.91 121.511Z" fill="#FDB714"/>
<path d="M104.219 119.788C103.944 119.758 103.694 120.067 103.654 120.487C103.612 120.908 103.804 121.276 104.082 121.31C104.357 121.344 104.617 121.031 104.659 120.607C104.7 120.18 104.499 119.82 104.221 119.79" fill="#FDB714"/>
<path d="M105.363 118.004C105.081 118.004 104.87 118.325 104.874 118.745C104.88 119.164 105.096 119.53 105.371 119.543C105.647 119.555 105.879 119.198 105.879 118.768C105.879 118.338 105.642 118.006 105.361 118.004" fill="#FDB714"/>
<path d="M106.343 116.114C106.063 116.139 105.879 116.484 105.923 116.903C105.968 117.32 106.222 117.659 106.497 117.642C106.772 117.625 106.969 117.254 106.929 116.829C106.889 116.404 106.622 116.09 106.343 116.114Z" fill="#FDB714"/>
<path d="M107.194 114.147C106.917 114.187 106.751 114.549 106.821 114.966C106.891 115.381 107.166 115.698 107.442 115.662C107.717 115.626 107.888 115.25 107.82 114.83C107.753 114.409 107.469 114.109 107.194 114.149" fill="#FDB714"/>
<path d="M107.974 112.138C107.698 112.187 107.544 112.557 107.627 112.972C107.709 113.387 107.997 113.687 108.272 113.641C108.545 113.594 108.704 113.218 108.622 112.801C108.539 112.384 108.249 112.089 107.974 112.136" fill="#FDB714"/>
<path d="M108.737 110.11C108.462 110.157 108.306 110.536 108.388 110.951C108.471 111.365 108.761 111.66 109.038 111.611C109.313 111.562 109.468 111.19 109.385 110.775C109.303 110.362 109.013 110.061 108.737 110.11Z" fill="#FDB714"/>
<path d="M109.54 108.087C109.265 108.127 109.096 108.504 109.168 108.921C109.24 109.338 109.523 109.634 109.801 109.59C110.078 109.545 110.241 109.181 110.169 108.768C110.095 108.355 109.816 108.046 109.54 108.087Z" fill="#FDB714"/>
<path d="M110.433 106.088C110.156 106.112 109.963 106.484 110.012 106.905C110.058 107.327 110.334 107.631 110.611 107.6C110.893 107.568 111.073 107.219 111.022 106.806C110.971 106.391 110.71 106.063 110.433 106.088Z" fill="#FDB714"/>
<path d="M111.486 104.153C111.209 104.153 110.98 104.511 110.989 104.935C110.993 105.358 111.251 105.682 111.529 105.669C111.812 105.661 112.022 105.335 112.007 104.92C111.992 104.505 111.764 104.151 111.486 104.151" fill="#FDB714"/>
<path d="M96.1669 128.55C96.1669 128.55 97.1788 131.047 98.957 131.695C98.957 131.695 104.19 127.519 102.149 125.347C100.109 123.175 96.1669 128.552 96.1669 128.552M100.551 126.079C100.94 125.974 101.328 126.16 101.417 126.494C101.508 126.829 101.264 127.184 100.875 127.288C100.485 127.394 100.098 127.208 100.009 126.873C99.9179 126.539 100.161 126.183 100.549 126.079" fill="#FDB714"/>
<g style="mix-blend-mode:screen" opacity="0.55">
<mask id="mask3_195_8754" style="mask-type:luminance" maskUnits="userSpaceOnUse" x="96" y="127" width="6" height="2">
<path d="M101.975 127.319H96.8947V128.966H101.975V127.319Z" fill="white"/>
</mask>
<g mask="url(#mask3_195_8754)">
<path d="M97.1889 127.319C98.768 127.768 100.368 128.105 101.975 128.407C101.861 128.596 101.732 128.782 101.598 128.966C99.9492 128.651 98.5204 128.319 96.8947 127.654C96.9879 127.546 97.0832 127.436 97.1911 127.319" fill="#FDB714"/>
</g>
</g>
<g style="mix-blend-mode:screen" opacity="0.55">
<mask id="mask4_195_8754" style="mask-type:luminance" maskUnits="userSpaceOnUse" x="96" y="129" width="5" height="2">
<path d="M100.689 129.297H96.5361V130.592H100.689V129.297Z" fill="white"/>
</mask>
<g mask="url(#mask4_195_8754)">
<path d="M96.5361 129.297C97.9671 129.559 99.252 129.796 100.689 130.059C100.514 130.249 100.34 130.425 100.173 130.59C99.1548 130.404 98.0434 130.199 96.9829 130.004C96.8072 129.754 96.6568 129.509 96.5361 129.295" fill="#FDB714"/>
</g>
</g>
<path d="M131.069 136.634C130.494 137.146 130.093 137.36 130.093 137.36C130.077 137.368 128.533 138.183 128.362 138.236C128.356 138.236 128.343 138.236 128.332 138.244C128.157 138.295 127.983 138.329 127.801 138.357C127.765 138.365 127.725 138.367 127.691 138.371C127.517 138.399 127.344 138.412 127.166 138.412C127.143 138.416 127.117 138.407 127.092 138.412C126.931 138.407 126.772 138.399 126.618 138.38C126.582 138.376 126.558 138.376 126.529 138.369C126.359 138.346 126.192 138.308 126.023 138.266L125.82 138.204C125.678 138.156 125.542 138.109 125.403 138.048C124.014 137.438 123.127 136.676 122.636 135.617C121.859 133.935 122.081 131.509 122.85 127.72C122.888 127.531 122.924 127.337 122.964 127.144C122.998 126.962 123.04 126.776 123.066 126.587C123.207 125.704 123.286 124.748 123.301 123.753C123.311 123.266 123.307 122.773 123.286 122.273C123.282 121.905 123.261 121.541 123.235 121.168C123.218 120.779 123.186 120.391 123.152 119.998C123.127 119.746 123.104 119.494 123.076 119.236C123.023 118.736 122.966 118.228 122.896 117.737C122.837 117.239 122.759 116.75 122.689 116.272C122.048 112.199 121.15 108.92 121.15 108.92C121.112 108.743 121.067 108.575 121.036 108.408C120.511 105.986 120.487 104.655 121.019 103.859C121.08 103.77 121.15 103.673 121.233 103.601C121.286 103.544 121.364 103.491 121.455 103.432C121.802 103.205 122.346 102.974 122.346 102.974C124.105 102.407 125.794 103.307 129.067 107.494C131.98 111.228 134.901 115.62 135.25 123.111C135.282 123.77 135.311 124.485 135.309 125.207C135.314 125.304 135.32 125.4 135.314 125.491C135.318 125.768 135.311 126.039 135.303 126.314C135.087 132.222 132.462 135.397 131.076 136.636" fill="#FDCB9B"/>
<path d="M131.069 136.634C130.494 137.146 130.093 137.36 130.093 137.36C130.077 137.368 128.533 138.183 128.362 138.236C128.356 138.236 128.343 138.236 128.332 138.244C128.157 138.295 127.983 138.329 127.801 138.357C127.765 138.365 127.725 138.367 127.691 138.371C127.517 138.399 127.344 138.412 127.166 138.412C127.143 138.416 127.117 138.407 127.092 138.412C126.931 138.407 126.772 138.399 126.618 138.38C126.582 138.376 126.558 138.376 126.529 138.369C126.359 138.346 126.192 138.308 126.023 138.266L125.82 138.204C125.678 138.156 125.542 138.109 125.403 138.048C124.014 137.438 123.127 136.676 122.636 135.617C121.859 133.935 122.081 131.509 122.85 127.72C122.888 127.531 122.924 127.337 122.964 127.144C122.998 126.962 123.04 126.776 123.066 126.587C123.207 125.704 123.286 124.748 123.301 123.753C123.311 123.266 123.307 122.773 123.286 122.273C123.282 121.905 123.261 121.541 123.235 121.168C123.218 120.779 123.186 120.391 123.152 119.998C123.127 119.746 123.104 119.494 123.076 119.236C123.023 118.736 122.966 118.228 122.896 117.737C122.837 117.239 122.759 116.75 122.689 116.272C122.048 112.199 121.15 108.92 121.15 108.92C121.112 108.743 121.067 108.575 121.036 108.408C120.511 105.986 120.487 104.655 121.019 103.859C121.08 103.77 121.15 103.673 121.233 103.601C121.286 103.544 121.364 103.491 121.455 103.432C121.802 103.205 122.346 102.974 122.346 102.974C124.105 102.407 125.794 103.307 129.067 107.494C131.98 111.228 134.901 115.62 135.25 123.111C135.282 123.77 135.311 124.485 135.309 125.207C135.314 125.304 135.32 125.4 135.314 125.491C135.318 125.768 135.311 126.039 135.303 126.314C135.087 132.222 132.462 135.397 131.076 136.636" stroke="#164B5F" stroke-width="2.1549" stroke-miterlimit="10"/>
<path d="M135.279 124.487C135.332 125.482 135.337 126.522 135.296 127.616C135.081 133.524 132.695 136.494 131.306 137.73C129.753 138.374 128.017 138.909 126.052 139.299C125.055 139.502 123.997 139.665 122.875 139.783C114.641 140.668 110.521 134.908 110.449 134.745C110.443 134.735 110.441 134.728 110.435 134.718C110.358 134.549 110.303 134.377 110.246 134.206C110.234 134.17 110.223 134.129 110.217 134.096C110.168 133.926 110.132 133.75 110.102 133.577C110.102 133.554 110.1 133.526 110.094 133.501C110.075 133.34 110.06 133.181 110.058 133.02C110.054 132.986 110.054 132.959 110.054 132.927C110.054 132.753 110.064 132.58 110.083 132.408C110.09 132.37 110.094 132.33 110.1 132.294C110.128 132.116 110.157 131.938 110.208 131.756C110.606 130.277 111.22 129.28 112.187 128.638C113.796 127.572 116.372 127.483 120.525 127.751C121.391 127.809 122.329 127.777 123.305 127.677C123.5 127.654 123.701 127.635 123.898 127.61C124.37 127.55 124.856 127.476 125.341 127.387C125.697 127.324 127.464 127.275 127.824 127.199" fill="#FDCB9B"/>
<path d="M136.355 124.43C136.406 125.046 136.438 125.662 136.448 126.276C136.455 126.583 136.457 126.89 136.457 127.197L136.453 127.656L136.436 128.126C136.389 129.379 136.243 130.641 135.953 131.89C135.667 133.139 135.22 134.366 134.611 135.533C133.993 136.695 133.205 137.787 132.187 138.721L132.033 138.863L131.815 138.956C129.979 139.733 128.053 140.287 126.131 140.67C125.162 140.865 124.188 141.017 123.212 141.13C122.213 141.238 121.165 141.28 120.136 141.21C119.103 141.142 118.07 140.975 117.065 140.698C116.061 140.416 115.083 140.037 114.158 139.557C113.233 139.078 112.361 138.498 111.563 137.832C111.163 137.499 110.778 137.146 110.414 136.767C110.23 136.579 110.054 136.382 109.878 136.176C109.791 136.075 109.705 135.967 109.618 135.857C109.573 135.797 109.533 135.747 109.485 135.679L109.41 135.575L109.368 135.512C109.368 135.512 109.334 135.461 109.311 135.419C109.286 135.374 109.262 135.33 109.243 135.285L109.29 135.38L109.279 135.361L109.235 135.277L109.228 135.26L109.101 134.913L109.038 134.739C109.017 134.678 108.998 134.635 108.972 134.54L108.941 134.419L108.921 134.331L108.883 134.153L108.809 133.797L108.797 133.695C108.799 133.736 108.807 133.776 108.82 133.816L108.79 133.659C108.773 133.452 108.761 133.242 108.748 133.035L108.756 133.164C108.75 133.096 108.748 133.029 108.746 132.961C108.746 132.9 108.748 132.878 108.75 132.836L108.763 132.612L108.78 132.387L108.788 132.275L108.792 132.22L108.799 132.178C108.839 131.939 108.902 131.64 108.962 131.388C109.093 130.922 109.26 130.44 109.48 129.964C109.707 129.487 109.99 129.009 110.363 128.575C110.731 128.141 111.186 127.756 111.673 127.474C112.158 127.188 112.67 126.981 113.168 126.841C113.665 126.704 114.158 126.608 114.637 126.551C115.596 126.433 116.514 126.426 117.418 126.441C118.322 126.46 119.209 126.513 120.09 126.579L120.733 126.627C120.93 126.642 121.131 126.651 121.332 126.655C121.734 126.663 122.143 126.655 122.551 126.632C122.755 126.621 122.966 126.606 123.163 126.589L123.788 126.526L125.035 126.354C125.102 126.346 125.337 126.31 125.449 126.312C125.574 126.308 125.691 126.312 125.803 126.325C126.029 126.344 126.252 126.39 126.474 126.458C126.923 126.596 127.346 126.82 127.824 127.212C127.784 127.284 127.731 127.339 127.683 127.4L127.528 127.555C127.424 127.654 127.319 127.735 127.213 127.811C127.001 127.963 126.785 128.073 126.573 128.171C126.36 128.262 126.148 128.331 125.94 128.38C125.837 128.406 125.737 128.425 125.644 128.442L125.411 128.484L124.076 128.708L123.403 128.797C123.165 128.825 122.945 128.846 122.712 128.867C122.253 128.905 121.792 128.928 121.322 128.933C121.087 128.933 120.852 128.933 120.615 128.922L119.956 128.892C119.099 128.854 118.246 128.829 117.408 128.835C116.572 128.844 115.744 128.88 114.978 128.998C114.211 129.117 113.509 129.318 112.998 129.65C112.478 129.966 112.118 130.421 111.83 131.052C111.69 131.367 111.574 131.712 111.474 132.085C111.453 132.171 111.447 132.245 111.43 132.326L111.406 132.444C111.398 132.48 111.39 132.523 111.385 132.578L111.381 132.616V132.641V132.692V132.794L111.373 132.895V132.933C111.373 132.921 111.371 132.906 111.366 132.893L111.351 132.828L111.375 133.022C111.388 133.135 111.398 133.247 111.404 133.359L111.375 133.202C111.394 133.291 111.409 133.382 111.417 133.473L111.404 133.372L111.459 133.598L111.485 133.712L111.498 133.77L111.504 133.791C111.504 133.791 111.521 133.842 111.534 133.873L111.574 133.979L111.652 134.193L111.601 134.091L111.62 134.125L111.667 134.223C111.654 134.191 111.637 134.159 111.62 134.127C111.603 134.098 111.576 134.055 111.587 134.07L111.593 134.079L111.622 134.119L111.705 134.225C111.766 134.299 111.83 134.375 111.898 134.453C112.033 134.606 112.175 134.76 112.325 134.908C112.622 135.207 112.941 135.491 113.274 135.757C113.938 136.293 114.66 136.756 115.416 137.15C116.171 137.542 116.972 137.849 117.791 138.077C118.612 138.302 119.459 138.437 120.316 138.49C121.178 138.545 122.029 138.511 122.911 138.414C123.82 138.316 124.719 138.187 125.608 138.018C127.403 137.681 129.139 137.192 130.805 136.519L130.43 136.754C131.188 136.094 131.842 135.247 132.363 134.32C132.881 133.386 133.275 132.368 133.565 131.306C133.853 130.243 134.024 129.132 134.109 128.008L134.145 127.586L134.168 127.152C134.183 126.862 134.194 126.575 134.202 126.287C134.217 125.709 134.219 125.133 134.209 124.561L136.359 124.447L136.355 124.43Z" fill="#164B5F"/>
<path d="M149.965 110.506C149.965 110.506 150.479 110.309 151.334 109.869C151.364 109.856 151.4 109.837 151.429 109.82C151.482 109.793 151.535 109.765 151.59 109.736C151.69 109.683 151.796 109.628 151.904 109.568C151.963 109.537 152.02 109.505 152.081 109.469C152.206 109.401 152.335 109.325 152.467 109.249C152.518 109.219 152.564 109.194 152.615 109.162C152.799 109.052 152.992 108.938 153.191 108.813C153.231 108.787 153.275 108.758 153.316 108.732C153.476 108.633 153.639 108.527 153.807 108.417C153.881 108.368 153.955 108.317 154.029 108.269C154.173 108.173 154.317 108.074 154.467 107.97C154.55 107.913 154.634 107.854 154.719 107.794C154.871 107.687 155.026 107.576 155.183 107.46C155.263 107.401 155.343 107.341 155.426 107.28C155.619 107.136 155.815 106.984 156.014 106.827C156.061 106.789 156.108 106.757 156.154 106.719C156.4 106.524 156.65 106.319 156.901 106.107C156.971 106.048 157.043 105.985 157.113 105.925C157.297 105.767 157.484 105.606 157.672 105.438C157.763 105.356 157.856 105.271 157.949 105.187C158.121 105.03 158.292 104.869 158.466 104.704C158.563 104.613 158.658 104.52 158.756 104.425C158.938 104.247 159.12 104.063 159.304 103.878C159.389 103.792 159.473 103.709 159.558 103.62C159.825 103.343 160.091 103.057 160.36 102.759C160.367 102.752 160.371 102.746 160.375 102.742C160.635 102.452 160.896 102.149 161.158 101.84C161.243 101.738 161.328 101.632 161.412 101.531C161.594 101.309 161.778 101.082 161.96 100.849C162.058 100.726 162.153 100.599 162.248 100.475C162.422 100.246 162.596 100.015 162.767 99.7781C162.862 99.649 162.956 99.5199 163.049 99.3865C163.237 99.1177 163.425 98.8425 163.612 98.5631C163.684 98.4573 163.754 98.3535 163.826 98.2456C164.08 97.8561 164.331 97.456 164.579 97.0432C164.628 96.9628 164.674 96.8781 164.721 96.7977C164.92 96.4611 165.115 96.1203 165.307 95.7689C165.39 95.6208 165.468 95.4683 165.549 95.3159C165.707 95.0196 165.864 94.7169 166.016 94.4099C166.101 94.2406 166.184 94.0713 166.268 93.8998C166.421 93.5865 166.569 93.2669 166.715 92.943C166.789 92.7758 166.865 92.6128 166.939 92.4434C167.113 92.0434 167.282 91.6327 167.449 91.2178C167.487 91.1204 167.53 91.0252 167.57 90.9257C167.771 90.4092 167.966 89.8779 168.154 89.3339C168.205 89.1857 168.254 89.0312 168.302 88.883C168.436 88.4808 168.567 88.0744 168.694 87.6595C168.756 87.4563 168.815 87.2509 168.874 87.0456C168.984 86.6646 169.09 86.2772 169.192 85.8835C169.247 85.6654 169.304 85.4474 169.357 85.2273C169.46 84.8103 169.556 84.3848 169.649 83.953C169.691 83.754 169.738 83.5592 169.778 83.356C169.907 82.7231 170.03 82.0775 170.14 81.417C170.731 77.8375 170.946 74.5078 170.862 71.4363C170.794 68.9787 170.534 66.6862 170.123 64.5588C169.918 63.4962 169.674 62.4738 169.397 61.4958C167.598 55.1348 164.406 50.5604 161.18 47.8848C160.682 47.4741 160.187 47.1079 159.693 46.7862C159.446 46.6253 159.202 46.475 158.957 46.3374C157.738 45.6473 156.561 45.243 155.504 45.1287C155.504 45.1287 153.4 41.9832 149.423 38.664C149.275 38.5412 149.126 38.4185 148.974 38.2957C148.417 37.8448 147.825 37.3961 147.2 36.9494C146.929 36.7568 146.652 36.5642 146.368 36.3736C145.695 35.9228 144.986 35.4803 144.243 35.057C144.046 34.9448 143.845 34.8326 143.644 34.7225C143.064 34.4071 142.463 34.1044 141.842 33.8187C141.571 33.6938 141.298 33.571 141.021 33.4525C140.621 33.281 140.212 33.1159 139.798 32.9571C139.084 32.6862 138.35 32.4364 137.59 32.2141C137.344 32.1422 137.097 32.0723 136.847 32.0067C134.844 31.4775 132.696 31.1346 130.401 31.0584C128.109 30.9821 125.672 31.1705 123.098 31.6997C122.683 31.7844 122.266 31.8797 121.849 31.977C121.737 32.0046 121.627 32.03 121.515 32.0575C121.151 32.1464 120.785 32.2395 120.418 32.339C120.359 32.3538 120.3 32.3687 120.243 32.3856C119.826 32.4999 119.409 32.6206 118.992 32.7476C118.884 32.7793 118.778 32.8132 118.672 32.847C118.323 32.955 117.976 33.0672 117.626 33.1836C117.54 33.2133 117.453 33.2408 117.366 33.2704C116.949 33.4122 116.532 33.5625 116.113 33.7171C116.018 33.753 115.922 33.789 115.827 33.8271C115.482 33.9584 115.137 34.0938 114.792 34.2336C114.69 34.2759 114.586 34.3161 114.485 34.3584C114.068 34.5299 113.649 34.7077 113.232 34.894C113.16 34.9279 113.086 34.9617 113.012 34.9935C112.656 35.1544 112.3 35.3195 111.947 35.4888C111.839 35.5396 111.729 35.5925 111.621 35.6455C111.204 35.8487 110.787 36.0561 110.372 36.272C110.338 36.2911 110.304 36.308 110.27 36.3271C109.885 36.5282 109.504 36.7377 109.121 36.9494C109.011 37.0108 108.903 37.0701 108.795 37.1336C108.41 37.3516 108.027 37.5739 107.643 37.8046C107.614 37.8236 107.584 37.8406 107.555 37.8575C107.146 38.1031 106.742 38.3592 106.337 38.6196C106.234 38.6873 106.13 38.755 106.026 38.8228C105.683 39.0472 105.34 39.2758 105 39.5129C104.932 39.5594 104.862 39.6039 104.796 39.6526C104.401 39.9277 104.009 40.2114 103.617 40.4993C103.524 40.5691 103.431 40.6411 103.336 40.711C103.014 40.9523 102.694 41.1978 102.375 41.4497C102.288 41.5175 102.203 41.5852 102.116 41.6529C101.733 41.9578 101.354 42.271 100.978 42.5907C100.954 42.6097 100.931 42.6288 100.908 42.6478C100.912 42.6457 100.916 42.6415 100.921 42.6394C88.9458 52.8254 80.4088 69.7894 83.8549 94.2279L145.327 111.217C145.327 111.217 147.314 111.863 149.965 110.521" fill="#633B18"/>
<path d="M149.965 110.506C149.965 110.506 150.479 110.309 151.334 109.869C151.364 109.856 151.4 109.837 151.429 109.82C151.482 109.793 151.535 109.765 151.59 109.736C151.69 109.683 151.796 109.628 151.904 109.568C151.963 109.537 152.02 109.505 152.081 109.469C152.206 109.401 152.335 109.325 152.467 109.249C152.518 109.219 152.564 109.194 152.615 109.162C152.799 109.052 152.992 108.938 153.191 108.813C153.231 108.787 153.275 108.758 153.316 108.732C153.476 108.633 153.639 108.527 153.807 108.417C153.881 108.368 153.955 108.317 154.029 108.269C154.173 108.173 154.317 108.074 154.467 107.97C154.55 107.913 154.634 107.854 154.719 107.794C154.871 107.687 155.026 107.576 155.183 107.46C155.263 107.401 155.343 107.341 155.426 107.28C155.619 107.136 155.815 106.984 156.014 106.827C156.061 106.789 156.108 106.757 156.154 106.719C156.4 106.524 156.65 106.319 156.901 106.107C156.971 106.048 157.043 105.985 157.113 105.925C157.297 105.767 157.484 105.606 157.672 105.438C157.763 105.356 157.856 105.271 157.949 105.187C158.121 105.03 158.292 104.869 158.466 104.704C158.563 104.613 158.658 104.52 158.756 104.425C158.938 104.247 159.12 104.063 159.304 103.878C159.389 103.792 159.473 103.709 159.558 103.62C159.825 103.343 160.091 103.057 160.36 102.759C160.367 102.752 160.371 102.746 160.375 102.742C160.635 102.452 160.896 102.149 161.158 101.84C161.243 101.738 161.328 101.632 161.412 101.531C161.594 101.309 161.778 101.082 161.96 100.849C162.058 100.726 162.153 100.599 162.248 100.475C162.422 100.246 162.596 100.015 162.767 99.7781C162.862 99.649 162.956 99.5199 163.049 99.3865C163.237 99.1177 163.425 98.8425 163.612 98.5631C163.684 98.4573 163.754 98.3535 163.826 98.2456C164.08 97.8561 164.331 97.456 164.579 97.0432C164.628 96.9628 164.674 96.8781 164.721 96.7977C164.92 96.4611 165.115 96.1203 165.307 95.7689C165.39 95.6208 165.468 95.4683 165.549 95.3159C165.707 95.0196 165.864 94.7169 166.016 94.4099C166.101 94.2406 166.184 94.0713 166.268 93.8998C166.421 93.5865 166.569 93.2669 166.715 92.943C166.789 92.7758 166.865 92.6128 166.939 92.4434C167.113 92.0434 167.282 91.6327 167.449 91.2178C167.487 91.1204 167.53 91.0252 167.57 90.9257C167.771 90.4092 167.966 89.8779 168.154 89.3339C168.205 89.1857 168.254 89.0312 168.302 88.883C168.436 88.4808 168.567 88.0744 168.694 87.6595C168.756 87.4563 168.815 87.2509 168.874 87.0456C168.984 86.6646 169.09 86.2772 169.192 85.8835C169.247 85.6654 169.304 85.4474 169.357 85.2273C169.46 84.8103 169.556 84.3848 169.649 83.953C169.691 83.754 169.738 83.5592 169.778 83.356C169.907 82.7231 170.03 82.0775 170.14 81.417C170.731 77.8375 170.946 74.5078 170.862 71.4363C170.794 68.9787 170.534 66.6862 170.123 64.5588C169.918 63.4962 169.674 62.4738 169.397 61.4958C167.598 55.1348 164.406 50.5604 161.18 47.8848C160.682 47.4741 160.187 47.1079 159.693 46.7862C159.446 46.6253 159.202 46.475 158.957 46.3374C157.738 45.6473 156.561 45.243 155.504 45.1287C155.504 45.1287 153.4 41.9832 149.423 38.664C149.275 38.5412 149.126 38.4185 148.974 38.2957C148.417 37.8448 147.825 37.3961 147.2 36.9494C146.929 36.7568 146.652 36.5642 146.368 36.3736C145.695 35.9228 144.986 35.4803 144.243 35.057C144.046 34.9448 143.845 34.8326 143.644 34.7225C143.064 34.4071 142.463 34.1044 141.842 33.8187C141.571 33.6938 141.298 33.571 141.021 33.4525C140.621 33.281 140.212 33.1159 139.798 32.9571C139.084 32.6862 138.35 32.4364 137.59 32.2141C137.344 32.1422 137.097 32.0723 136.847 32.0067C134.844 31.4775 132.696 31.1346 130.401 31.0584C128.109 30.9821 125.672 31.1705 123.098 31.6997C122.683 31.7844 122.266 31.8797 121.849 31.977C121.737 32.0046 121.627 32.03 121.515 32.0575C121.151 32.1464 120.785 32.2395 120.418 32.339C120.359 32.3538 120.3 32.3687 120.243 32.3856C119.826 32.4999 119.409 32.6206 118.992 32.7476C118.884 32.7793 118.778 32.8132 118.672 32.847C118.323 32.955 117.976 33.0672 117.626 33.1836C117.54 33.2133 117.453 33.2408 117.366 33.2704C116.949 33.4122 116.532 33.5625 116.113 33.7171C116.018 33.753 115.922 33.789 115.827 33.8271C115.482 33.9584 115.137 34.0938 114.792 34.2336C114.69 34.2759 114.586 34.3161 114.485 34.3584C114.068 34.5299 113.649 34.7077 113.232 34.894C113.16 34.9279 113.086 34.9617 113.012 34.9935C112.656 35.1544 112.3 35.3195 111.947 35.4888C111.839 35.5396 111.729 35.5925 111.621 35.6455C111.204 35.8487 110.787 36.0561 110.372 36.272C110.338 36.2911 110.304 36.308 110.27 36.3271C109.885 36.5282 109.504 36.7377 109.121 36.9494C109.011 37.0108 108.903 37.0701 108.795 37.1336C108.41 37.3516 108.027 37.5739 107.643 37.8046C107.614 37.8236 107.584 37.8406 107.555 37.8575C107.146 38.1031 106.742 38.3592 106.337 38.6196C106.234 38.6873 106.13 38.755 106.026 38.8228C105.683 39.0472 105.34 39.2758 105 39.5129C104.932 39.5594 104.862 39.6039 104.796 39.6526C104.401 39.9277 104.009 40.2114 103.617 40.4993C103.524 40.5691 103.431 40.6411 103.336 40.711C103.014 40.9523 102.694 41.1978 102.375 41.4497C102.288 41.5175 102.203 41.5852 102.116 41.6529C101.733 41.9578 101.354 42.271 100.978 42.5907C100.954 42.6097 100.931 42.6288 100.908 42.6478C100.912 42.6457 100.916 42.6415 100.921 42.6394C88.9458 52.8254 80.4088 69.7894 83.8549 94.2279L145.327 111.217C145.327 111.217 147.314 111.863 149.965 110.521" stroke="#164B5F" stroke-width="2.1549" stroke-miterlimit="10"/>
<path d="M81.9441 84.2216C83.2544 85.1975 84.5731 85.5087 85.5447 85.5764C86.4655 85.6462 87.0773 85.496 87.0773 85.496C87.0773 85.496 88.3791 90.4831 91.296 95.7519C92.8455 98.5587 94.8607 101.448 97.3839 103.703C107.238 112.502 123.34 116.077 135.901 112.297C141.562 110.595 146.449 107.21 150.293 102.896C150.704 102.437 151.447 101.507 151.447 101.507C151.447 101.507 153.403 103.266 156.574 102.784C159.751 102.297 162.573 97.6654 161.898 93.4805C161.216 89.2956 156.737 90.9658 156.737 90.9658C158.951 83.7962 159.085 76.5038 158.553 72.5221C157.012 60.9136 148.223 52.6517 137.294 48.0625C125.779 43.2235 112.439 43.0986 102.278 50.4333C95.4301 55.3824 87.5641 73.7625 87.5641 73.7625C87.5641 73.7625 84.4418 70.2021 81.8064 73.5614C79.1667 76.9229 79.3891 82.3102 81.942 84.2216" fill="#FCCD9B"/>
<path d="M81.9441 84.2216C83.2544 85.1975 84.5731 85.5087 85.5447 85.5764C86.4655 85.6462 87.0773 85.496 87.0773 85.496C87.0773 85.496 88.3791 90.4831 91.296 95.7519C92.8455 98.5587 94.8607 101.448 97.3839 103.703C107.238 112.502 123.34 116.077 135.901 112.297C141.562 110.595 146.449 107.21 150.293 102.896C150.704 102.437 151.447 101.507 151.447 101.507C151.447 101.507 153.403 103.266 156.574 102.784C159.751 102.297 162.573 97.6654 161.898 93.4805C161.216 89.2956 156.737 90.9658 156.737 90.9658C158.951 83.7962 159.085 76.5038 158.553 72.5221C157.012 60.9136 148.223 52.6517 137.294 48.0625C125.779 43.2235 112.439 43.0986 102.278 50.4333C95.4301 55.3824 87.5641 73.7625 87.5641 73.7625C87.5641 73.7625 84.4418 70.2021 81.8064 73.5614C79.1667 76.9229 79.3891 82.3102 81.942 84.2216" stroke="#164B5F" stroke-width="2.1549" stroke-miterlimit="10"/>
<path d="M134.393 77.3292C133.648 76.673 132.979 76.1184 132.293 75.6802C131.611 75.2421 130.932 74.9351 130.221 74.7658C129.512 74.5901 128.749 74.535 127.915 74.5753C127.077 74.6007 126.192 74.7319 125.185 74.7996C125.792 73.9953 126.62 73.4131 127.577 73.0427C128.529 72.6744 129.653 72.5579 130.722 72.8289C131.795 73.085 132.746 73.7328 133.385 74.5435C133.705 74.9499 133.957 75.3966 134.132 75.8644C134.304 76.3343 134.416 76.8254 134.395 77.3313" fill="#164B5F"/>
<path d="M111.149 84.7934C111.149 84.7934 111.943 86.6625 110.396 87.6214C108.848 88.5803 111.769 89.6091 111.769 89.6091" stroke="#164B5F" stroke-width="0.825552" stroke-linecap="round" stroke-linejoin="round"/>
<path d="M108.455 70.8436C107.71 70.1874 107.041 69.6349 106.355 69.1946C105.671 68.7564 104.994 68.4495 104.282 68.2801C103.573 68.1044 102.811 68.0494 101.977 68.0896C101.139 68.115 100.254 68.2462 99.2466 68.314C99.8541 67.5096 100.682 66.9296 101.638 66.557C102.591 66.1887 103.715 66.0723 104.784 66.3432C105.857 66.5994 106.81 67.2471 107.447 68.0579C107.767 68.4643 108.018 68.9109 108.194 69.3787C108.366 69.8487 108.48 70.3398 108.457 70.8457" fill="#164B5F"/>
<path d="M103.955 95.8365C107.844 110.65 116.764 99.0223 116.764 99.0223L103.955 95.8365Z" fill="#164B5F"/>
<path d="M103.955 95.8365C107.844 110.65 116.764 99.0223 116.764 99.0223L103.955 95.8365Z" stroke="#164B5F" stroke-width="1.72308" stroke-miterlimit="10"/>
<path d="M105.406 101.088C105.406 101.088 109.301 106.863 113.132 102.331C113.132 102.331 110.78 98.0148 105.406 101.088Z" fill="#EF5D86"/>
<path d="M123.619 96.9901C124.54 93.4445 128.181 91.2896 131.754 92.1765C135.327 93.0656 137.476 96.6599 136.555 100.208C135.634 103.753 131.993 105.908 128.42 105.021C124.847 104.132 122.698 100.538 123.619 96.9901Z" fill="#F7A199"/>
<path d="M85.9739 84.6303C86.8947 84.6663 87.5022 84.497 87.5022 84.497C87.5022 84.497 88.9798 89.4355 92.0831 94.5962C94.9979 94.4184 97.5675 92.344 98.228 89.3699C99.0218 85.7967 96.7442 82.2786 93.1456 81.5165C90.2625 80.9069 87.4049 82.2447 85.9739 84.6303Z" fill="#F7A199"/>
<path d="M162.13 78.9127C162.841 75.3692 166.45 76.6012 166.232 71.8765C165.351 52.7597 152.202 49.7602 150.964 49.521C150.9 49.5083 150.847 49.4807 150.803 49.4342C149.808 48.3948 137.844 36.1576 126.087 36.1999C113.81 36.2444 100.882 41.6528 91.3271 56.5805C81.7718 71.5082 83.825 90.0619 83.825 90.0619L84.8814 90.0471C84.6527 87.0455 84.7967 84.0925 85.1883 81.2899C86.4902 77.3399 90.0865 72.6957 90.095 72.6766C90.095 72.6766 92.4554 67.5307 98.4861 60.0944C104.517 52.6559 107.245 53.5111 107.245 53.5111C102.254 57.8866 102.138 61.881 102.138 61.881C104.453 63.1764 118.879 65.1493 119.999 60.4267C121.119 55.7041 126.606 54.5272 126.606 54.5272C124.59 56.3159 122.958 67.1243 122.958 67.1243C125.738 62.2048 134.315 58.2655 134.315 58.2655C131.059 60.2023 129.298 68.551 129.298 68.551C129.298 68.551 134.048 70.7884 138.303 72.4882C142.56 74.188 148.851 61.809 148.851 61.809C149.772 64.1925 147.505 72.6809 147.505 72.6809L145.041 77.268C147.528 75.9132 156.127 85.3965 156.127 85.3986C156.124 85.4007 150.136 94.1346 152.308 96.787C152.865 97.4665 152.265 100.902 151.656 103.476C155.773 96.2705 160.377 86.6475 160.377 86.6475C160.377 86.6475 162.589 80.9957 162.13 78.9148" fill="#633B18"/>
<path d="M87.8877 63.1785C87.8877 63.1785 85.5252 66.2775 83.9588 79.262C82.3924 92.2485 85.663 90.6017 85.663 90.6017C85.663 90.6017 83.6604 87.2846 85.0469 82.3821C86.4335 77.4796 90.432 71.9929 96.6046 62.4885C102.777 52.984 108.92 53.1089 108.92 53.1089C103.943 54.379 102.32 60.7929 102.134 61.8809C101.947 62.969 110.535 64.1269 115.29 63.2018C120.044 62.2747 119.735 61.0744 120.664 58.7057C121.591 56.337 126.602 54.5272 126.602 54.5272C124.023 58.3184 122.955 67.1221 122.955 67.1221C124.5 63.6633 134.311 58.2633 134.311 58.2633C130.245 61.1337 129.294 68.551 129.294 68.551C129.294 68.551 133.399 71.2457 138.299 72.4882C143.2 73.7308 148.845 61.8068 148.845 61.8068C149.186 65.7631 148.011 70.5767 147.537 71.887C147.061 73.1973 145.039 77.2658 145.039 77.2658C148.39 76.9822 156.125 85.3965 156.125 85.3965C151.921 90.716 151.155 95.0829 152.306 96.7848C153.46 98.4846 151.997 102.871 151.997 102.871C151.997 102.871 157.901 94.251 158.83 89.8142" stroke="#164B5F" stroke-width="1.29336" stroke-linecap="round" stroke-linejoin="round"/>
<path d="M101.295 72.4585C99.3729 71.9801 96.1702 72.7401 94.4662 76.0084C92.3918 79.9859 93.4098 84.5899 97.9651 85.4896C102.853 86.4591 105.484 83.2712 105.821 79.7975C106.181 76.0783 104.663 73.2947 101.295 72.4564" fill="white"/>
<path d="M94.2 76.7324C95.9675 73.5488 99.5997 72.2046 102.18 73.5763C103.224 74.1309 104.229 75.1978 104.689 76.4827C105.199 77.92 104.907 79.552 105.368 80.9724C105.442 81.1968 105.732 81.3936 105.914 81.1439C107.087 79.552 106.551 76.9716 105.87 75.4518C105.161 73.8663 103.819 72.592 102.4 72.0183C100.952 71.432 99.1786 71.4447 97.6333 72.158C95.7727 73.0175 94.9196 74.5204 94.0898 76.6457C94.0432 76.7663 94.1259 76.8658 94.2 76.7324Z" fill="#164B5F"/>
<path d="M94.11 78.7687C94.8784 75.7628 97.442 73.8006 99.8382 74.3869C102.234 74.9733 103.553 77.886 102.785 80.8918C102.016 83.8977 99.4528 85.86 97.0566 85.2736C94.6604 84.6873 93.3416 81.7745 94.11 78.7687Z" fill="#164B5F"/>
<path d="M94.9712 78.4556C95.2168 77.4946 96.0358 76.8659 96.8021 77.0543C97.5684 77.2427 97.9897 78.172 97.7441 79.133C97.4986 80.094 96.6795 80.7206 95.9132 80.5343C95.147 80.3459 94.7257 79.4166 94.9712 78.4556Z" fill="white"/>
<path d="M128.156 78.6674C126.192 78.4028 123.091 79.5078 121.761 82.9391C120.142 87.1155 121.664 91.5756 126.296 91.9736C131.266 92.4012 133.527 88.9487 133.476 85.4623C133.421 81.7283 131.6 79.131 128.156 78.6674Z" fill="white"/>
<path d="M121.575 83.6883C122.978 80.3332 126.443 78.5996 129.161 79.6791C130.262 80.1173 131.382 81.0656 131.979 82.2913C132.648 83.6629 132.538 85.3162 133.154 86.6751C133.251 86.8911 133.562 87.054 133.717 86.7873C134.705 85.077 133.884 82.5749 133.039 81.1376C132.159 79.641 130.681 78.5233 129.206 78.1085C127.701 77.6851 125.94 77.8904 124.481 78.7689C122.726 79.8252 122.045 81.4128 121.456 83.6121C121.422 83.737 121.515 83.8259 121.575 83.6862" fill="#164B5F"/>
<path d="M121.71 85.7226C122.139 82.6532 124.47 80.4242 126.919 80.7439C129.366 81.0635 131.004 83.8111 130.575 86.8805C130.145 89.9498 127.814 92.1788 125.365 91.8592C122.918 91.5396 121.28 88.792 121.71 85.7226Z" fill="#164B5F"/>
<path d="M122.533 85.3162C122.67 84.334 123.416 83.6227 124.199 83.7243C124.982 83.8259 125.505 84.7065 125.367 85.6866C125.23 86.6688 124.485 87.38 123.704 87.2784C122.92 87.1768 122.397 86.2984 122.535 85.3162" fill="white"/>
<path d="M89.4309 69.4359L90.6247 69.5989L91.5901 63.0263L90.3961 62.8611L89.4309 69.4359Z" fill="#9E2063"/>
<path d="M89.4309 69.4359L90.6247 69.5989L91.5901 63.0263L90.3961 62.8611L89.4309 69.4359Z" stroke="#164B5F" stroke-width="1.29336" stroke-miterlimit="10"/>
<path d="M144.033 30.7005C143.622 31.5621 143.988 32.5993 144.852 33.0205L149.67 35.3723C150.534 35.7935 151.565 35.4379 151.975 34.5764C152.386 33.7148 152.02 32.6776 151.156 32.2564L146.338 29.9046C145.475 29.4834 144.444 29.839 144.033 30.7005Z" fill="#9E2063"/>
<path d="M144.033 30.7005C143.622 31.5621 143.988 32.5993 144.852 33.0205L149.67 35.3723C150.534 35.7935 151.565 35.4379 151.975 34.5764C152.386 33.7148 152.02 32.6776 151.156 32.2564L146.338 29.9046C145.475 29.4834 144.444 29.839 144.033 30.7005Z" stroke="#164B5F" stroke-width="1.29336" stroke-miterlimit="10"/>
<path d="M94.2255 45.6261L88.5145 57.5966L165.695 95.2757L168.557 89.2788L161.019 85.5977C159.254 84.7361 158.081 83.1379 157.708 81.3429C157.484 80.3014 157.533 79.1922 157.903 78.1338C157.969 77.9137 158.056 77.702 158.159 77.4861C158.252 77.2913 158.35 77.1135 158.477 76.9336C159.038 76.0086 159.781 75.3185 160.663 74.8443C162.336 73.915 164.387 73.8113 166.218 74.7046L173.366 78.1952C177.257 65.0012 172.882 50.6895 162.528 41.799C160.668 40.1838 158.608 38.7656 156.368 37.5527C155.924 37.3092 155.475 37.0764 155.02 36.8541L140.376 29.7057C139.855 29.4517 139.33 29.2082 138.808 28.9923C138.456 28.8336 138.094 28.6981 137.743 28.5647C137.326 28.4017 136.904 28.2493 136.49 28.1117C120.125 22.3879 101.84 29.6718 94.2299 45.6198" fill="#EE2C2F"/>
<path d="M94.2255 45.6261L88.5145 57.5966L165.695 95.2757L168.557 89.2788L161.019 85.5977C159.254 84.7361 158.081 83.1379 157.708 81.3429C157.484 80.3014 157.533 79.1922 157.903 78.1338C157.969 77.9137 158.056 77.702 158.159 77.4861C158.252 77.2913 158.35 77.1135 158.477 76.9336C159.038 76.0086 159.781 75.3185 160.663 74.8443C162.336 73.915 164.387 73.8113 166.218 74.7046L173.366 78.1952C177.257 65.0012 172.882 50.6895 162.528 41.799C160.668 40.1838 158.608 38.7656 156.368 37.5527C155.924 37.3092 155.475 37.0764 155.02 36.8541L140.376 29.7057C139.855 29.4517 139.33 29.2082 138.808 28.9923C138.456 28.8336 138.094 28.6981 137.743 28.5647C137.326 28.4017 136.904 28.2493 136.49 28.1117C120.125 22.3879 101.84 29.6718 94.2299 45.6198L94.2255 45.6261Z" stroke="#164B5F" stroke-width="1.29336" stroke-miterlimit="10"/>
<path d="M94.2255 45.626L88.5145 57.5965L145.886 85.606L151.597 73.6355C159.402 57.2769 153.183 37.7092 137.739 28.571C121.058 22.0258 102.03 29.2695 94.2255 45.6282" fill="#F2F2F3"/>
<path d="M94.2255 45.626L88.5145 57.5965L145.886 85.606L151.597 73.6355C159.402 57.2769 153.183 37.7092 137.739 28.571C121.058 22.0258 102.03 29.2695 94.2255 45.6282V45.626Z" stroke="#164B5F" stroke-width="1.29336" stroke-miterlimit="10"/>
<path d="M56.3368 38.0712L139.374 78.61L137.882 81.7323L54.8466 41.1956L56.3368 38.0712Z" fill="#EE2C2F"/>
<path d="M56.3368 38.0712L139.374 78.61L137.882 81.7323L54.8466 41.1956L56.3368 38.0712Z" stroke="#164B5F" stroke-width="1.29336" stroke-miterlimit="10"/>
<path d="M158.1 91.6031L165.683 95.3053L168.663 89.0565L161.083 85.3564L158.1 91.6031Z" fill="#C6C5C4"/>
<path d="M158.1 91.6031L165.683 95.3053L168.663 89.0565L161.083 85.3564L158.1 91.6031Z" stroke="#164B5F" stroke-width="1.29336" stroke-miterlimit="10"/>
</g>
</g>
</g>
</svg>
