<svg width="81" height="81" viewBox="0 0 81 81" fill="none" xmlns="http://www.w3.org/2000/svg">
<g clip-path="url(#clip0_195_8874)">
<path d="M24.7258 80.7688H24.5672C22.1466 75.758 19.7336 70.7415 17.2888 65.7419C17.1115 65.3798 16.7495 65.0252 16.3856 64.8536C12.3022 62.9257 8.20209 61.0352 4.10569 59.1335C2.99155 58.6166 1.88113 58.0922 0.735264 57.5566C0.837907 57.2561 0.920021 57.0116 1.00587 56.769C2.79186 51.6387 4.58905 46.5103 6.34518 41.3707C6.49075 40.9451 6.49821 40.3778 6.34705 39.9579C4.51813 34.8705 2.64629 29.7981 0.789385 24.7201C0.684875 24.4327 0.602761 24.1359 0.501984 23.8168C0.787518 23.675 1.01893 23.5555 1.25221 23.4436C6.12123 21.0884 10.9865 18.7257 15.8649 16.391C16.4247 16.1223 16.7607 15.7565 17.0163 15.2004C19.198 10.4527 21.4076 5.71987 23.6098 0.981485C23.718 0.750071 23.8412 0.526122 23.9681 0.276046C24.2685 0.369358 24.5186 0.438409 24.7612 0.52239C29.7422 2.25799 34.7214 4.00479 39.7117 5.71427C40.1129 5.85237 40.6448 5.8561 41.0423 5.71614C43.8155 4.74196 46.5682 3.71179 49.3303 2.70216C51.7881 1.8045 54.2478 0.910568 56.7393 0.00170898C56.883 0.285377 57.0024 0.514925 57.1162 0.748205C59.4042 5.47539 61.6792 10.2082 63.9971 14.9186C64.2042 15.3403 64.6335 15.7528 65.0608 15.9562C69.9746 18.2778 74.9071 20.5565 79.8358 22.8482C80.0896 22.9658 80.336 23.0983 80.5917 23.2271C78.69 28.6784 76.8051 34.0531 74.9575 39.4391C74.8194 39.8422 74.8213 40.3797 74.965 40.7791C76.7957 45.8664 78.6657 50.9389 80.5226 56.0169C80.629 56.3062 80.7167 56.6048 80.825 56.9388C80.5357 57.0881 80.2856 57.2225 80.0281 57.3457C75.1814 59.6878 70.3385 62.0355 65.4845 64.359C64.9302 64.624 64.5756 64.9693 64.3162 65.5329C62.1364 70.2806 59.9268 75.0152 57.7246 79.7517C57.6071 80.0037 57.4727 80.2463 57.342 80.5038C52.0289 78.6525 46.8034 76.8217 41.5667 75.0246C41.1879 74.8939 40.6859 74.8958 40.307 75.0302C37.5842 75.9875 34.8744 76.986 32.1665 77.9863C29.6825 78.9045 27.206 79.8395 24.7258 80.767V80.7688Z" fill="#FFA322"/>
<path d="M17.0235 33.8491C17.468 33.7933 17.7941 33.6502 18.0016 33.4199C18.2185 33.1777 18.3003 32.8449 18.2471 32.4215C18.1966 32.0193 18.0311 31.7284 17.7505 31.5486C17.4791 31.3569 17.1053 31.291 16.6291 31.3508C16.4597 31.3721 16.3175 31.3953 16.2024 31.4205C16.0966 31.4338 15.9868 31.4584 15.873 31.4942L16.1821 33.9548L17.0235 33.8491ZM16.8381 39.0488C16.7256 39.0952 16.5444 39.1502 16.2944 39.2138C16.055 39.2762 15.8135 39.3226 15.5701 39.3532C15.3267 39.3838 15.1071 39.3899 14.9113 39.3714C14.7274 39.3623 14.5659 39.3181 14.427 39.2388C14.288 39.1595 14.1761 39.0391 14.0913 38.8778C14.0066 38.7164 13.9469 38.4982 13.9123 38.223L12.9732 30.7457C12.9452 30.5235 12.9822 30.3468 13.084 30.2158C13.195 30.0728 13.3517 29.951 13.5541 29.8504C13.898 29.6782 14.2941 29.537 14.7426 29.4269C15.2003 29.3049 15.662 29.2147 16.1276 29.1562C17.5882 28.9728 18.7439 29.1447 19.595 29.6721C20.446 30.1995 20.9387 30.9976 21.0729 32.0666C21.1381 32.5852 21.1125 33.0668 20.9964 33.5114C20.8895 33.9441 20.6913 34.3345 20.4017 34.6826C20.1214 35.0188 19.7432 35.3029 19.2671 35.5347C18.8002 35.7546 18.2439 35.9051 17.5983 35.9862L16.4712 36.1277L16.8381 39.0488ZM30.3541 33.4971C30.4365 34.1532 30.4097 34.7532 30.2738 35.2971C30.1365 35.8304 29.9046 36.2949 29.578 36.6907C29.262 37.0851 28.8614 37.4042 28.3759 37.6479C27.8905 37.8917 27.3356 38.0527 26.7112 38.1312C26.0868 38.2096 25.5086 38.1855 24.9766 38.0588C24.4447 37.9321 23.9716 37.7174 23.5573 37.4147C23.1523 37.1 22.8173 36.7013 22.5524 36.2186C22.2875 35.7358 22.1152 35.1769 22.0354 34.5419C21.957 33.9175 21.9864 33.3387 22.1237 32.8054C22.261 32.2721 22.4876 31.8083 22.8036 31.4138C23.1288 31.0074 23.5334 30.6771 24.0175 30.4228C24.5016 30.1685 25.0558 30.0021 25.6803 29.9237C26.3047 29.8452 26.8835 29.8747 27.4168 30.0119C27.9487 30.1386 28.4172 30.3593 28.8223 30.6739C29.2366 30.9767 29.5762 31.3694 29.8411 31.8522C30.106 32.3349 30.2769 32.8832 30.3541 33.4971ZM24.7977 34.195C24.8788 34.8406 25.063 35.3227 25.3503 35.6414C25.6468 35.9481 26.0174 36.0736 26.4619 36.0178C26.9064 35.9619 27.2231 35.7448 27.4121 35.3663C27.6116 34.9864 27.6715 34.479 27.5918 33.844C27.512 33.209 27.3291 32.7375 27.0432 32.4294C26.7559 32.1107 26.39 31.9792 25.9455 32.0351C25.501 32.0909 25.1789 32.3087 24.9794 32.6886C24.7785 33.0578 24.718 33.56 24.7977 34.195ZM34.6964 28.7912C35.3314 28.7114 35.9295 28.7223 36.4905 28.8238C37.0608 28.9135 37.563 29.103 37.9971 29.3925C38.4312 29.682 38.792 30.0721 39.0794 30.5628C39.3654 31.0429 39.553 31.6374 39.6421 32.3465C39.7272 33.0239 39.7064 33.6285 39.5797 34.1605C39.453 34.6924 39.2369 35.1549 38.9315 35.5481C38.6248 35.9306 38.2334 36.2378 37.7572 36.4696C37.2917 36.7001 36.7572 36.8532 36.154 36.929C35.6989 36.9861 35.2669 36.9705 34.858 36.8821L35.1891 39.5174C35.0872 39.5625 34.9219 39.6155 34.693 39.6765C34.4655 39.7481 34.23 39.7991 33.9866 39.8297C33.7538 39.859 33.5401 39.8697 33.3456 39.8618C33.1617 39.8527 33.0003 39.8085 32.8613 39.7292C32.7223 39.6499 32.6105 39.5295 32.5257 39.3682C32.4422 39.2174 32.3839 39.0097 32.3507 38.7451L31.3935 31.125C31.3576 30.8393 31.3866 30.5991 31.4804 30.4046C31.5848 30.2087 31.7336 30.0234 31.9266 29.8486C32.2281 29.5957 32.6143 29.3752 33.0852 29.1871C33.5561 28.9989 34.0932 28.867 34.6964 28.7912ZM35.4899 34.8515C36.58 34.7146 37.0433 33.9953 36.8798 32.6935C36.7947 32.0162 36.594 31.5307 36.2776 31.2372C35.9718 30.9423 35.5649 30.8268 35.0569 30.8906C34.8558 30.9159 34.6792 30.9649 34.5271 31.0378C34.3737 31.1001 34.2427 31.1703 34.1343 31.2484L34.573 34.741C34.7079 34.7885 34.8522 34.8241 35.0057 34.8479C35.1592 34.8716 35.3206 34.8728 35.4899 34.8515ZM40.4865 28.4187C40.5884 28.3736 40.7484 28.3213 40.9667 28.2616C41.1955 28.2006 41.4317 28.1548 41.6751 28.1243C41.9079 28.095 42.1163 28.085 42.3002 28.0941C42.4947 28.1019 42.6614 28.1455 42.8004 28.2248C42.9394 28.3041 43.0512 28.4244 43.136 28.5858C43.23 28.7352 43.2937 28.9422 43.3269 29.2068L43.7556 32.62C43.8101 33.0539 43.9552 33.3529 44.1908 33.5168C44.425 33.6701 44.7433 33.7215 45.1454 33.671C45.3888 33.6404 45.582 33.5947 45.7248 33.5337C45.8783 33.4714 45.9947 33.4138 46.074 33.3609L45.3761 27.8045C45.4779 27.7595 45.638 27.7071 45.8563 27.6474C46.0851 27.5864 46.3213 27.5407 46.5647 27.5101C46.7975 27.4808 47.0059 27.4708 47.1898 27.4799C47.3843 27.4878 47.551 27.5313 47.69 27.6106C47.8289 27.6899 47.9408 27.8103 48.0256 27.9716C48.1196 28.1211 48.1832 28.3281 48.2165 28.5927L48.8227 33.4187C48.8891 33.9479 48.7167 34.3727 48.3054 34.6931C47.9643 34.9725 47.5417 35.203 47.0377 35.3845C46.5457 35.5753 45.998 35.7086 45.3948 35.7844C44.8232 35.8562 44.2861 35.8592 43.7833 35.7933C43.2911 35.7261 42.8537 35.5822 42.4713 35.3615C42.0888 35.1407 41.7763 34.836 41.534 34.4471C41.2903 34.0477 41.1313 33.5517 41.0568 32.959L40.4865 28.4187ZM53.426 34.5015C53.3122 34.5373 53.1409 34.5857 52.9121 34.6467C52.6951 34.7169 52.4702 34.7667 52.2374 34.7959C52.0046 34.8252 51.7909 34.8359 51.5964 34.828C51.4125 34.8189 51.2511 34.7747 51.1121 34.6954C50.9731 34.6161 50.8566 34.5017 50.7626 34.3523C50.6779 34.1909 50.6188 33.9779 50.5856 33.7133L49.4291 24.5057C49.5428 24.4699 49.7088 24.4222 49.9271 24.3625C50.1546 24.2909 50.3848 24.2405 50.6176 24.2113C50.8505 24.182 51.0589 24.172 51.2428 24.1811C51.4373 24.1889 51.604 24.2325 51.7429 24.3118C51.8819 24.3911 51.9938 24.5114 52.0786 24.6728C52.1726 24.8222 52.2362 25.0292 52.2694 25.2938L53.426 34.5015ZM58.2177 32.1742C58.3976 32.1516 58.5914 32.1111 58.7991 32.0528C59.016 31.9825 59.1734 31.909 59.2713 31.8322L59.1117 30.5622L57.9807 30.801C57.687 30.8594 57.4516 30.9535 57.2744 31.0832C57.0971 31.213 57.0218 31.3837 57.0484 31.5954C57.075 31.807 57.1763 31.9717 57.3524 32.0893C57.5376 32.1951 57.8261 32.2234 58.2177 32.1742ZM57.307 25.9511C57.8785 25.8794 58.4044 25.8724 58.8847 25.9304C59.3756 25.987 59.8004 26.1164 60.159 26.3186C60.527 26.5089 60.8241 26.7779 61.0506 27.1257C61.2757 27.463 61.4195 27.8803 61.482 28.3777L61.9286 31.9338C61.9632 32.209 61.9124 32.4465 61.7763 32.6463C61.6494 32.8343 61.4881 33.0051 61.2923 33.1587C60.6563 33.6578 59.7138 33.9858 58.4649 34.1427C57.904 34.2132 57.3894 34.224 56.921 34.1754C56.4632 34.1254 56.0569 34.0151 55.7023 33.8447C55.3582 33.6729 55.0755 33.4343 54.8544 33.1288C54.6439 32.8219 54.5113 32.4516 54.4568 32.0176C54.3651 31.2874 54.5116 30.6992 54.8964 30.2531C55.2811 29.807 55.9226 29.4792 56.8208 29.2696L58.8725 28.7861L58.8586 28.675C58.82 28.3681 58.6552 28.1684 58.3641 28.076C58.0822 27.9716 57.6873 27.9513 57.1792 28.0152C56.7771 28.0657 56.3908 28.1572 56.0204 28.2897C55.6501 28.4222 55.3194 28.5713 55.0284 28.7368C54.8789 28.6589 54.7445 28.5306 54.6253 28.3521C54.5048 28.1629 54.4313 27.9626 54.4047 27.7509C54.3701 27.4757 54.4064 27.2508 54.5134 27.0761C54.6297 26.8895 54.8182 26.7207 55.0787 26.5697C55.371 26.4147 55.7202 26.2848 56.1263 26.1801C56.543 26.074 56.9366 25.9977 57.307 25.9511ZM66.463 32.8639C66.3612 32.909 66.1958 32.962 65.967 33.023C65.7487 33.0827 65.5179 33.1278 65.2745 33.1584C65.0416 33.1876 64.828 33.1983 64.6335 33.1905C64.4496 33.1814 64.2881 33.1371 64.1492 33.0578C64.0102 32.9785 63.8937 32.8642 63.7997 32.7147C63.7149 32.5533 63.6559 32.3404 63.6227 32.0758L63.0245 27.3132C62.9939 27.0698 63.0103 26.8581 63.0737 26.6781C63.1463 26.4862 63.2587 26.3109 63.4108 26.152C63.5628 25.9932 63.7539 25.8455 63.984 25.7091C64.2234 25.5608 64.4807 25.4263 64.7558 25.3058C65.0309 25.1852 65.3193 25.0845 65.6209 25.0036C65.9211 24.9122 66.2247 24.8471 66.5317 24.8086C67.0397 24.7448 67.4545 24.7948 67.7761 24.9587C68.0963 25.112 68.2844 25.4108 68.3402 25.8554C68.3588 26.0035 68.3563 26.1544 68.3325 26.3078C68.3075 26.4507 68.2705 26.5844 68.2217 26.7088C67.9994 26.7367 67.7732 26.7759 67.543 26.8263C67.3128 26.8767 67.0893 26.937 66.8723 27.0073C66.6554 27.0775 66.4497 27.1517 66.2553 27.2299C66.0701 27.2962 65.9127 27.3697 65.7831 27.4505L66.463 32.8639ZM21.9082 49.6919C21.6436 49.7251 21.3949 49.7994 21.1621 49.9146C20.9399 50.0285 20.7495 50.1815 20.5908 50.3734C20.4414 50.5534 20.3291 50.7718 20.2538 51.0285C20.1786 51.2852 20.1615 51.5776 20.2028 51.9057C20.2852 52.5619 20.5322 53.0307 20.9438 53.3123C21.3661 53.5925 21.847 53.6988 22.3868 53.631C22.7043 53.5911 22.9748 53.5195 23.1984 53.4161C23.4219 53.3128 23.6183 53.2075 23.7876 53.1002C24.0179 53.2218 24.1972 53.3659 24.3257 53.5326C24.4528 53.6886 24.5316 53.8883 24.5622 54.1318C24.6167 54.5657 24.4528 54.9303 24.0707 55.2255C23.6871 55.5102 23.1303 55.6984 22.4 55.7902C21.7332 55.8739 21.118 55.8544 20.5543 55.7317C19.9893 55.5984 19.4891 55.3817 19.0536 55.0817C18.6274 54.7697 18.2772 54.3783 18.0031 53.9074C17.7289 53.4366 17.554 52.8996 17.4782 52.2963C17.3905 51.5978 17.4251 50.9753 17.5823 50.4288C17.7486 49.8704 18.0063 49.3972 18.3554 49.0094C18.7044 48.6215 19.1223 48.311 19.6091 48.0778C20.1064 47.8434 20.6408 47.6902 21.2123 47.6185C21.9743 47.5227 22.579 47.5866 23.0263 47.8099C23.4736 48.0332 23.7246 48.3618 23.7791 48.7958C23.8043 48.9968 23.7806 49.1933 23.708 49.3852C23.634 49.5665 23.5415 49.7286 23.4304 49.8716C23.2399 49.8095 23.0129 49.7574 22.7496 49.7152C22.485 49.6625 22.2045 49.6547 21.9082 49.6919ZM33.6754 54.1159C33.5735 54.1609 33.4082 54.2139 33.1793 54.2749C32.9611 54.3346 32.7302 54.3797 32.4868 54.4103C32.254 54.4395 32.0403 54.4503 31.8458 54.4424C31.6619 54.4333 31.5005 54.3891 31.3615 54.3098C31.2225 54.2305 31.106 54.1161 31.012 53.9666C30.9272 53.8053 30.8682 53.5923 30.835 53.3277L30.3923 49.8034C30.3378 49.3695 30.1888 49.0818 29.9453 48.9404C29.711 48.7871 29.4351 48.7303 29.1176 48.7702C28.9059 48.7968 28.7082 48.8485 28.5243 48.9254C28.3405 49.0022 28.195 49.085 28.0879 49.1737L28.7858 54.73C28.6839 54.7751 28.5186 54.8281 28.2897 54.8891C28.0715 54.9488 27.8406 54.9939 27.5972 55.0245C27.3644 55.0537 27.1507 55.0644 26.9562 55.0566C26.7723 55.0474 26.6109 55.0032 26.4719 54.9239C26.3329 54.8446 26.2165 54.7303 26.1224 54.5808C26.0377 54.4194 25.9787 54.2065 25.9454 53.9419L24.7889 44.7342C24.9026 44.6984 25.0686 44.6507 25.2869 44.591C25.5144 44.5195 25.7446 44.4691 25.9774 44.4398C26.2103 44.4106 26.4187 44.4005 26.6026 44.4097C26.7971 44.4175 26.9638 44.4611 27.1028 44.5404C27.2417 44.6196 27.3536 44.74 27.4384 44.9013C27.5324 45.0508 27.596 45.2578 27.6292 45.5224L27.8247 47.0782C27.9556 47.008 28.1547 46.9238 28.4219 46.8258C28.6983 46.7158 29.0059 46.6395 29.3445 46.597C30.3923 46.4654 31.2405 46.6276 31.889 47.0837C32.5469 47.5278 32.9409 48.2685 33.0712 49.3057L33.6754 54.1159ZM42.8443 49.0618C42.9268 49.7179 42.9 50.318 42.7641 50.8618C42.6268 51.3951 42.3949 51.8596 42.0683 52.2554C41.7523 52.6498 41.3516 52.9689 40.8662 53.2127C40.3808 53.4564 39.8259 53.6175 39.2015 53.6959C38.5771 53.7743 37.9989 53.7502 37.4669 53.6235C36.935 53.4968 36.4619 53.2821 36.0476 52.9794C35.6426 52.6647 35.3076 52.266 35.0427 51.7833C34.7778 51.3005 34.6055 50.7417 34.5257 50.1066C34.4473 49.4822 34.4767 48.9034 34.614 48.3701C34.7513 47.8368 34.9779 47.373 35.2939 46.9785C35.6191 46.5722 36.0237 46.2418 36.5078 45.9875C36.9919 45.7332 37.5461 45.5668 38.1706 45.4884C38.795 45.41 39.3738 45.4394 39.9071 45.5767C40.439 45.7033 40.9075 45.924 41.3126 46.2387C41.7269 46.5414 42.0665 46.9341 42.3313 47.4169C42.5962 47.8996 42.7672 48.4479 42.8443 49.0618ZM37.288 49.7597C37.3691 50.4053 37.5533 50.8874 37.8406 51.2061C38.1371 51.5129 38.5076 51.6383 38.9522 51.5825C39.3967 51.5267 39.7134 51.3095 39.9024 50.931C40.1019 50.5512 40.1618 50.0437 40.0821 49.4087C40.0023 48.7737 39.8194 48.3022 39.5335 47.9941C39.2462 47.6754 38.8803 47.544 38.4358 47.5998C37.9913 47.6556 37.6692 47.8735 37.4697 48.2533C37.2688 48.6225 37.2082 49.1247 37.288 49.7597ZM43.3438 42.9035C43.2932 42.5013 43.383 42.1461 43.613 41.8376C43.8536 41.5279 44.1962 41.3451 44.6407 41.2893C45.0852 41.2335 45.457 41.3265 45.7562 41.5685C46.0659 41.8091 46.246 42.1304 46.2966 42.5326C46.3471 42.9348 46.252 43.2907 46.0114 43.6005C45.7814 43.9089 45.4441 44.091 44.9996 44.1468C44.5551 44.2027 44.178 44.1103 43.8683 43.8697C43.5691 43.6277 43.3943 43.3057 43.3438 42.9035ZM47.4059 52.3912C47.2921 52.427 47.1208 52.4754 46.8919 52.5364C46.675 52.6067 46.4501 52.6564 46.2173 52.6857C45.9844 52.7149 45.7708 52.7256 45.5763 52.7178C45.3924 52.7086 45.2309 52.6644 45.092 52.5851C44.953 52.5058 44.8365 52.3914 44.7425 52.242C44.6577 52.0806 44.5987 51.8677 44.5655 51.6031L43.7539 45.1418C43.8677 45.1061 44.0337 45.0583 44.2519 44.9987C44.4795 44.9271 44.7096 44.8767 44.9425 44.8474C45.1753 44.8182 45.3837 44.8081 45.5676 44.8173C45.7621 44.8251 45.9288 44.8687 46.0678 44.948C46.2068 45.0273 46.3186 45.1476 46.4034 45.309C46.4974 45.4584 46.561 45.6654 46.5943 45.93L47.4059 52.3912ZM52.744 45.8187C52.4794 45.8519 52.2307 45.9262 51.9979 46.0414C51.7757 46.1553 51.5853 46.3083 51.4266 46.5002C51.2772 46.6802 51.1649 46.8986 51.0897 47.1553C51.0144 47.412 50.9974 47.7044 51.0386 48.0325C51.121 48.6887 51.368 49.1576 51.7797 49.4391C52.2019 49.7194 52.6829 49.8256 53.2226 49.7578C53.5401 49.7179 53.8107 49.6463 54.0342 49.543C54.2577 49.4396 54.4541 49.3343 54.6234 49.2271C54.8537 49.3486 55.033 49.4927 55.1615 49.6594C55.2886 49.8154 55.3674 50.0151 55.398 50.2586C55.4525 50.6925 55.2887 51.0571 54.9065 51.3524C54.523 51.637 53.9661 51.8252 53.2358 51.917C52.5691 52.0007 51.9538 51.9812 51.3902 51.8585C50.8251 51.7252 50.3249 51.5086 49.8894 51.2085C49.4632 50.8965 49.1131 50.5051 48.8389 50.0343C48.5648 49.5634 48.3898 49.0264 48.314 48.4231C48.2263 47.7246 48.261 47.1021 48.4181 46.5556C48.5845 45.9972 48.8422 45.524 49.1912 45.1362C49.5403 44.7483 49.9582 44.4378 50.4449 44.2047C50.9422 43.9702 51.4766 43.8171 52.0481 43.7453C52.8102 43.6496 53.4148 43.7134 53.8621 43.9367C54.3095 44.16 54.5604 44.4886 54.6149 44.9226C54.6401 45.1236 54.6164 45.3201 54.5438 45.512C54.4698 45.6933 54.3773 45.8554 54.2662 45.9984C54.0757 45.9363 53.8488 45.8842 53.5854 45.842C53.3208 45.7893 53.0403 45.7815 52.744 45.8187ZM60.7724 50.9864C60.1479 51.0649 59.5552 51.0533 58.9942 50.9518C58.4424 50.8383 57.9435 50.6322 57.4975 50.3335C57.062 50.0334 56.6946 49.6334 56.3953 49.1335C56.1066 48.6322 55.9177 48.0271 55.8286 47.318C55.7409 46.6195 55.7769 46.0075 55.9367 45.4822C56.1057 44.9449 56.3555 44.4943 56.686 44.1303C57.0152 43.7556 57.4087 43.4643 57.8663 43.2564C58.3226 43.0378 58.7995 42.8973 59.2969 42.8348C59.8579 42.7643 60.3765 42.7852 60.8529 42.8973C61.3398 43.0082 61.7659 43.1912 62.1313 43.4463C62.5071 43.7001 62.811 44.0221 63.0427 44.4122C63.2851 44.8011 63.4368 45.2389 63.498 45.7257C63.5432 46.0856 63.4772 46.3734 63.3 46.5891C63.1229 46.8049 62.8577 46.9618 62.5045 47.06L58.6571 48.1399C58.8174 48.4745 59.0888 48.7092 59.4712 48.8439C59.8523 48.968 60.2757 49.0009 60.7414 48.9424C61.1753 48.8879 61.5761 48.7838 61.9438 48.6301C62.3208 48.4645 62.6217 48.2923 62.8465 48.1136C63.0291 48.1981 63.1906 48.3283 63.331 48.5042C63.4713 48.6801 63.5548 48.8739 63.5814 49.0856C63.6412 49.5618 63.4635 49.9443 63.0482 50.2329C62.7321 50.4554 62.3664 50.625 61.951 50.7416C61.5357 50.8583 61.1428 50.9399 60.7724 50.9864ZM59.5442 44.8033C59.2902 44.8352 59.0733 44.9055 58.8934 45.0141C58.7241 45.1213 58.5899 45.2511 58.4908 45.4033C58.3903 45.5449 58.3189 45.7044 58.2767 45.8817C58.2437 46.0471 58.2326 46.2151 58.2433 46.3858L60.9021 45.6003C60.8438 45.3926 60.7008 45.1956 60.4731 45.0091C60.2454 44.8227 59.9358 44.7541 59.5442 44.8033ZM67.1537 40.574C67.1843 40.8174 67.2235 41.1726 67.2714 41.6396C67.318 42.096 67.3593 42.5961 67.3954 43.1399C67.4301 43.673 67.4549 44.2128 67.4697 44.7592C67.4833 45.295 67.4776 45.7634 67.4527 46.1643C67.4144 46.2014 67.3549 46.2411 67.2742 46.2835C67.1935 46.3259 67.1069 46.3636 67.0143 46.3968C66.9217 46.4299 66.8284 46.4577 66.7345 46.4803C66.6406 46.5028 66.5566 46.5187 66.4825 46.528C66.1756 46.5666 65.9103 46.5515 65.6867 46.4829C65.4736 46.4129 65.3233 46.2436 65.2359 45.9751C65.1524 45.7383 65.0582 45.3739 64.9534 44.8818C64.8592 44.3883 64.7596 43.8526 64.6548 43.2745C64.5499 42.6964 64.451 42.1229 64.358 41.554C64.2757 40.9839 64.2092 40.4977 64.1587 40.0955C64.3558 39.9525 64.5826 39.8326 64.8392 39.7359C65.1051 39.6272 65.3703 39.5563 65.6349 39.5231C66.0688 39.4686 66.4148 39.5272 66.6729 39.6991C66.9416 39.8696 67.1018 40.1612 67.1537 40.574ZM65.2376 48.942C65.1831 48.5081 65.2709 48.1369 65.5009 47.8285C65.7402 47.5082 66.098 47.3181 66.5742 47.2583C67.0505 47.1985 67.4388 47.2948 67.7393 47.5474C68.0491 47.788 68.2312 48.1252 68.2857 48.5592C68.3402 48.9931 68.2478 49.3702 68.0085 49.6905C67.7785 49.9989 67.4254 50.183 66.9491 50.2429C66.4728 50.3027 66.0798 50.2123 65.7701 49.9717C65.4696 49.7192 65.2921 49.3759 65.2376 48.942Z" fill="black"/>
</g>
<defs>
<clipPath id="clip0_195_8874">
<rect width="80.323" height="80.769" fill="white" transform="translate(0.5)"/>
</clipPath>
</defs>
</svg>
