<svg width="240" height="229" viewBox="0 0 240 229" fill="none" xmlns="http://www.w3.org/2000/svg">
<mask id="mask0_195_8885" style="mask-type:luminance" maskUnits="userSpaceOnUse" x="-5" y="-19" width="262" height="262">
<path d="M256.774 -19H-4.49976V242.274H256.774V-19Z" fill="white"/>
</mask>
<g mask="url(#mask0_195_8885)">
<mask id="mask1_195_8885" style="mask-type:luminance" maskUnits="userSpaceOnUse" x="-5" y="-19" width="262" height="262">
<path d="M256.773 -19H-4.50088V242.274H256.773V-19Z" fill="white"/>
</mask>
<g mask="url(#mask1_195_8885)">
<mask id="mask2_195_8885" style="mask-type:luminance" maskUnits="userSpaceOnUse" x="-5" y="-19" width="262" height="262">
<path d="M256.771 -18.9999H-4.50294V242.274H256.771V-18.9999Z" fill="white"/>
</mask>
<g mask="url(#mask2_195_8885)">
<path d="M124.84 189.859C124.84 189.859 125.065 201.433 123.255 208.475C121.443 215.52 115.052 218.074 110.395 213.415C105.735 208.753 105.002 194.981 104.833 191.959C113.242 191.081 124.84 189.859 124.84 189.859Z" fill="#FCC596"/>
<path d="M75.1008 150.412C75.1008 150.412 64.1104 154.04 58.0672 158.088C52.0241 162.135 51.7337 169.013 57.6777 171.86C63.6217 174.708 76.8571 170.825 79.7626 169.981C77.7982 161.758 75.1008 150.412 75.1008 150.412Z" fill="#FCC596"/>
<path d="M108.637 213.589C108.521 213.478 108.405 213.364 108.313 213.265C108.245 213.195 108.178 213.122 108.117 213.055C108.033 212.96 107.955 212.868 107.873 212.771C107.842 212.738 107.812 212.699 107.776 212.653C107.689 212.549 107.604 212.438 107.517 212.322L107.486 212.275C107.379 212.138 107.28 211.995 107.171 211.838C107.142 211.794 107.111 211.748 107.082 211.7C107.026 211.62 106.975 211.535 106.922 211.448C106.883 211.392 106.854 211.347 106.835 211.313C106.804 211.262 106.775 211.214 106.746 211.163C106.724 211.129 106.704 211.095 106.685 211.064L106.659 211.02C106.591 210.901 106.525 210.785 106.458 210.664C106.419 210.592 106.38 210.519 106.344 210.447C106.286 210.338 106.23 210.229 106.182 210.132C106.068 209.912 105.964 209.687 105.855 209.452L105.783 209.29C105.761 209.244 105.739 209.196 105.72 209.148L105.713 209.128C105.696 209.092 105.679 209.053 105.662 209.01C105.625 208.93 105.592 208.848 105.56 208.765L105.463 208.521C105.388 208.332 105.316 208.141 105.253 207.979L105.212 207.873C105.108 207.587 105.011 207.299 104.921 207.036C104.876 206.907 104.834 206.779 104.786 206.617L104.764 206.547C104.711 206.392 104.665 206.237 104.609 206.056L104.53 205.773C104.498 205.664 104.467 205.555 104.433 205.434L104.351 205.117C104.324 205.023 104.297 204.921 104.273 204.815L104.266 204.805C104.169 204.432 104.072 204.05 103.99 203.68C102.807 198.588 102.507 193.348 102.393 191.374L102.386 191.243L103.601 189.821L124.805 187.663L126.293 188.981C126.293 188.981 126.298 189.175 126.298 189.562V189.825C126.298 189.903 126.298 189.985 126.298 190.072V190.307C126.298 190.885 126.288 191.62 126.268 192.465C126.268 192.525 126.266 192.588 126.264 192.649V192.755C126.259 192.956 126.252 193.161 126.244 193.386L126.225 194.028C126.152 195.944 126.048 197.654 125.913 199.246C125.896 199.446 125.877 199.65 125.857 199.855L125.85 199.918C125.831 200.17 125.806 200.412 125.78 200.637C125.731 201.099 125.681 201.568 125.623 202.023C125.555 202.575 125.477 203.141 125.381 203.748L125.33 204.079C125.294 204.316 125.257 204.549 125.219 204.749C125.211 204.791 125.204 204.834 125.204 204.834C125.197 204.873 125.192 204.907 125.185 204.941C125.158 205.09 125.132 205.243 125.1 205.395C125.076 205.536 125.047 205.681 125.023 205.794C124.994 205.942 124.965 206.087 124.933 206.23L124.839 206.617C124.853 206.576 124.865 206.537 124.87 206.515L124.827 206.719C124.805 206.811 124.783 206.905 124.756 206.997C124.727 207.127 124.698 207.258 124.672 207.355C124.621 207.568 124.563 207.783 124.507 207.989C123.177 212.822 119.625 216.083 115.462 216.296C115.324 216.303 115.191 216.306 115.012 216.306C114.889 216.306 114.772 216.306 114.656 216.296C114.528 216.289 114.402 216.284 114.262 216.27L113.906 216.231C112.902 216.088 111.94 215.781 111.047 215.316C110.931 215.258 110.815 215.193 110.682 215.118C110.59 215.067 110.498 215.014 110.413 214.956C110.309 214.893 110.203 214.83 110.072 214.745C109.818 214.574 109.576 214.392 109.349 214.211C109.104 214.015 108.887 213.829 108.688 213.642C108.669 213.623 108.649 213.606 108.63 213.587M109.605 211.054L109.511 212.459C109.912 212.077 110.038 211.475 109.823 210.962L109.605 211.054ZM114.528 213.579C114.615 213.587 114.7 213.592 114.809 213.596C114.881 213.601 114.947 213.601 115.029 213.601C115.126 213.601 115.218 213.601 115.317 213.594C118.297 213.442 120.881 210.96 121.897 207.268C121.945 207.091 121.996 206.91 122.047 206.692C122.074 206.59 122.095 206.489 122.122 206.37L122.144 206.283C122.156 206.24 122.166 206.196 122.178 206.153C122.19 206.082 122.204 206.015 122.216 205.974C122.224 205.932 122.236 205.886 122.248 205.838L122.284 205.669C122.311 205.543 122.337 205.417 122.369 205.262C122.393 205.149 122.417 205.032 122.434 204.919L122.446 204.861C122.475 204.725 122.497 204.59 122.521 204.454L122.55 204.292C122.589 204.086 122.62 203.881 122.654 203.663L122.705 203.332C122.79 202.797 122.867 202.25 122.935 201.691C122.99 201.249 123.041 200.804 123.09 200.334C123.116 200.126 123.136 199.925 123.155 199.686L123.165 199.587C123.184 199.403 123.201 199.222 123.215 199.028C123.349 197.468 123.45 195.798 123.52 193.938L123.54 193.275C123.547 193.094 123.552 192.912 123.554 192.733C123.554 192.673 123.557 192.61 123.559 192.549V192.421C123.578 191.681 123.588 191.037 123.59 190.503L105.161 192.378C105.316 194.763 105.674 198.987 106.625 203.075C106.704 203.426 106.794 203.779 106.883 204.123H106.871L106.9 204.174C106.915 204.237 106.927 204.297 106.946 204.355L107.208 205.301C107.244 205.424 107.28 205.545 107.331 205.695C107.348 205.749 107.365 205.802 107.379 205.85C107.406 205.94 107.433 206.027 107.474 206.143C107.563 206.409 107.653 206.67 107.747 206.932C107.754 206.948 107.759 206.963 107.766 206.98C107.837 207.166 107.909 207.35 107.979 207.531L107.984 207.551C107.984 207.551 107.977 207.534 107.975 207.527L107.987 207.563L108.004 207.609C107.999 207.594 107.994 207.58 107.989 207.568L108.062 207.744C108.083 207.8 108.105 207.853 108.122 207.892C108.141 207.933 108.158 207.974 108.178 208.025C108.168 208.001 108.156 207.977 108.146 207.955L108.238 208.16C108.255 208.199 108.272 208.235 108.289 208.274L108.308 208.318C108.398 208.514 108.483 208.7 108.591 208.906C108.64 209.005 108.691 209.102 108.739 209.193L108.785 209.288C108.797 209.312 108.812 209.339 108.826 209.365C108.884 209.474 108.945 209.578 108.988 209.653L109.029 209.723C109.02 209.706 109.008 209.692 108.998 209.677L109.107 209.864C109.085 209.835 109.056 209.798 109.022 209.762L109.143 209.926C109.143 209.926 109.143 209.922 109.141 209.919L109.199 209.997C109.24 210.064 109.279 210.132 109.322 210.195L109.409 210.326C109.482 210.432 109.552 210.538 109.634 210.638V210.672L109.646 210.66L109.685 210.715C109.741 210.788 109.794 210.86 109.852 210.931L109.932 211.027C109.995 211.102 110.055 211.177 110.13 211.259C110.171 211.305 110.212 211.349 110.27 211.41C110.343 211.487 110.42 211.562 110.495 211.634C110.653 211.787 110.829 211.937 111.037 212.104C111.219 212.249 111.405 212.387 111.562 212.493C111.649 212.549 111.736 212.6 111.823 212.653L111.901 212.701C111.932 212.723 111.966 212.74 112.015 212.767C112.102 212.815 112.186 212.863 112.283 212.912C112.905 213.234 113.57 213.449 114.26 213.55L114.526 213.579H114.528ZM109.92 211.013C109.92 211.013 109.915 211.008 109.912 211.005L109.92 211.013ZM109.912 211.003C109.9 210.989 109.888 210.974 109.874 210.959L109.912 211.003ZM109.126 209.888C109.126 209.888 109.116 209.868 109.109 209.859L109.162 209.946C109.155 209.934 109.143 209.912 109.124 209.888" fill="#144B5F"/>
<path d="M123.597 190.295L126.302 190.321V190.251C126.304 190.077 126.307 189.917 126.304 189.777L123.599 189.76C123.597 189.859 123.597 189.966 123.599 190.077V190.295H123.597Z" fill="#144B5F"/>
<path d="M122.451 204.861L123.953 205.19L125.081 205.487C125.1 205.422 125.115 205.354 125.127 205.289L125.199 204.875C125.199 204.863 125.204 204.849 125.207 204.834L122.541 204.379L122.526 204.454C122.502 204.59 122.48 204.725 122.451 204.861Z" fill="#144B5F"/>
<path d="M122.177 206.208L124.848 206.629L124.872 206.53C124.872 206.53 124.869 206.542 124.867 206.547V206.54C124.867 206.54 124.867 206.549 124.865 206.554L122.295 205.717C122.266 205.802 122.245 205.886 122.23 205.959C122.211 206.046 122.191 206.131 122.179 206.208" fill="#144B5F"/>
<path d="M107.549 212.355L107.692 212.237L108.631 212.839L109.027 211.949L109.518 212.462L109.613 211.056L109.642 210.637C109.591 210.572 109.543 210.507 109.497 210.439L109.41 210.313L108.568 210.892L108.239 211.116L107.653 210.502L107.402 211.69L107.179 211.842C107.186 211.857 107.196 211.867 107.203 211.879L107.462 212.244C107.489 212.28 107.518 212.316 107.547 212.353" fill="#144B5F"/>
<path d="M106.939 211.477L106.891 211.4C106.862 211.354 106.84 211.318 106.825 211.293L109.143 209.912H109.148L109.203 209.994C109.245 210.062 109.283 210.13 109.327 210.193L107.135 211.775C107.062 211.678 107 211.584 106.937 211.477" fill="#144B5F"/>
<path d="M106.869 211.359L109.143 209.907L109.107 209.844H109.109C109.121 209.861 109.133 209.883 109.145 209.907H109.148L109.029 209.709C109.032 209.714 109.034 209.718 109.039 209.723L108.998 209.653L106.687 211.037C106.687 211.037 106.687 211.039 106.687 211.042L106.678 211.047L106.784 211.23C106.811 211.274 106.837 211.317 106.866 211.361" fill="#144B5F"/>
<path d="M106.19 209.854L108.16 208.41L108.322 208.354C108.317 208.337 108.31 208.32 108.305 208.303H108.307C108.293 208.265 108.276 208.226 108.259 208.19C108.247 208.161 108.235 208.131 108.22 208.102L108.208 208.107L108.196 208.112L107.357 208.463L105.726 209.143C105.745 209.191 105.767 209.237 105.789 209.285L105.811 209.334L105.825 209.363H105.82L105.837 209.387L105.886 209.486L105.905 209.474L106.19 209.851V209.854Z" fill="#144B5F"/>
<path d="M104.288 204.87C104.276 204.824 104.264 204.778 104.256 204.735L106.477 203.453L106.482 203.458L106.908 204.176C106.922 204.239 106.935 204.299 106.954 204.357L107.036 204.67C107.046 204.703 107.053 204.737 107.063 204.774L104.81 205.34L104.687 205.478L104.808 205.34L104.443 205.432L104.426 205.383C104.431 205.4 104.436 205.417 104.44 205.432L104.29 204.868L104.288 204.87Z" fill="#144B5F"/>
<path d="M122.451 204.861L123.953 205.19L125.081 205.485C125.1 205.419 125.115 205.352 125.127 205.286L125.175 205.015C125.18 204.982 125.187 204.945 125.192 204.911V204.904L122.526 204.452C122.526 204.459 122.526 204.466 122.524 204.473L122.507 204.565C122.49 204.662 122.473 204.761 122.451 204.858" fill="#144B5F"/>
<path d="M122.199 206.329L122.762 206.3L124.848 206.627L124.865 206.554H124.857L124.901 206.186L122.245 205.906C122.245 205.906 122.24 205.92 122.237 205.927H122.232C122.211 206.022 122.189 206.114 122.177 206.201L122.685 206.283L122.199 206.307V206.324V206.329Z" fill="#144B5F"/>
<path d="M107.549 212.35L109.639 210.635C109.589 210.57 109.54 210.505 109.494 210.437L109.407 210.311L107.179 211.842H107.182C107.189 211.857 107.196 211.869 107.203 211.879L107.547 212.348L107.549 212.35Z" fill="#144B5F"/>
<path d="M106.938 211.472C106.882 211.383 106.829 211.284 106.795 211.199L109.209 209.994C109.248 210.062 109.289 210.13 109.332 210.192L107.141 211.775C107.068 211.678 107.005 211.584 106.94 211.472M109.255 210.19L109.299 210.173C109.299 210.173 109.296 210.166 109.294 210.161L109.255 210.19Z" fill="#144B5F"/>
<path d="M106.833 211.286L106.888 211.245L107.994 211.83L108.903 209.89L109.075 209.788L109.027 209.706C109.027 209.706 109.034 209.716 109.036 209.721L108.995 209.651L107.907 210.304L107.837 209.128H107.829L107.899 210.306L106.675 211.042L106.748 211.167H106.755C106.779 211.211 106.806 211.245 106.83 211.281" fill="#144B5F"/>
<path d="M106.472 210.679L108.833 209.36C108.818 209.336 108.804 209.312 108.792 209.285L108.746 209.191C108.697 209.101 108.647 209.005 108.598 208.906L106.16 210.076C106.198 210.159 106.235 210.238 106.273 210.313L106.351 210.459C106.39 210.534 106.431 210.609 106.472 210.681" fill="#144B5F"/>
<path d="M106.19 209.854L108.16 208.41L108.322 208.354C108.317 208.337 108.31 208.32 108.305 208.303H108.307C108.293 208.265 108.276 208.226 108.259 208.19C108.247 208.161 108.235 208.131 108.22 208.102L108.208 208.107L108.196 208.112L107.357 208.463L105.726 209.143C105.745 209.191 105.767 209.237 105.789 209.285L105.811 209.334L105.825 209.363H105.82L105.837 209.387L105.886 209.486L105.905 209.474L106.19 209.851V209.854Z" fill="#144B5F"/>
<path d="M109.861 211.818C108.095 210.05 106.893 206.973 106.071 203.665C112.888 210.889 120.208 205.845 123.506 202.795C123.3 204.239 123.044 205.63 122.722 206.878C120.91 213.923 114.521 216.478 109.861 211.818Z" fill="#231F20"/>
<path d="M105.409 204.212C108.709 207.29 112.081 208.637 115.432 208.218C120.873 207.541 124.202 202.468 124.342 202.253C124.545 201.941 124.456 201.522 124.141 201.319C123.827 201.116 123.408 201.205 123.207 201.52C123.176 201.568 120.07 206.283 115.258 206.878C112.326 207.241 109.324 206.01 106.333 203.225C106.06 202.971 105.632 202.986 105.378 203.259C105.124 203.532 105.138 203.958 105.409 204.215" fill="#144B5F"/>
<path d="M62.9515 157.306C62.862 157.49 62.7726 157.672 62.683 157.846C62.7097 157.802 62.7266 157.761 62.7484 157.713C62.8984 157.417 63.0459 157.11 63.1862 156.789C63.1886 156.784 63.1935 156.789 63.1983 156.784C63.116 156.958 63.0362 157.137 62.954 157.304" fill="#59595B"/>
<path d="M61.748 159.535C61.8278 159.409 61.9004 159.285 61.9778 159.155C61.9415 159.218 61.9077 159.276 61.8738 159.339C61.8327 159.406 61.794 159.472 61.7504 159.535" fill="#59595B"/>
<path d="M54.7846 171.101C54.0467 170.409 53.4346 169.603 52.9677 168.706L52.8081 168.374C52.7549 168.261 52.7089 168.147 52.6581 168.026C52.6097 167.912 52.571 167.803 52.5154 167.649C52.4718 167.518 52.4283 167.392 52.3896 167.264C51.2066 163.263 53.1032 158.831 57.2207 155.971C57.3973 155.848 57.5788 155.724 57.7336 155.625C57.8449 155.548 57.9586 155.475 58.0723 155.405C58.1521 155.349 58.2319 155.299 58.3118 155.248L58.4956 155.136C58.4618 155.158 58.4255 155.185 58.3892 155.216L58.7641 154.972C58.8803 154.902 58.9988 154.829 59.1004 154.771C59.2238 154.696 59.3496 154.621 59.4754 154.551C59.6036 154.474 59.7367 154.399 59.8818 154.316L60.0149 154.241C60.2205 154.123 60.4262 154.011 60.6294 153.903L60.9294 153.741C61.4737 153.445 61.9817 153.184 62.4728 152.942C62.8913 152.732 63.3147 152.529 63.709 152.342C63.934 152.231 64.1566 152.125 64.3574 152.037L64.4372 152.001C64.6259 151.912 64.8122 151.825 64.9912 151.747C66.4621 151.084 68.0418 150.419 69.832 149.71L70.415 149.485C70.6134 149.408 70.8118 149.33 71.0077 149.26L71.1069 149.222C71.165 149.197 71.223 149.176 71.2618 149.161C72.0698 148.856 72.7616 148.602 73.2939 148.416L73.5213 148.336C73.6059 148.307 73.6858 148.278 73.7753 148.244C73.8309 148.225 73.8842 148.205 73.9374 148.189L74.039 148.155C74.3777 148.036 74.5591 147.976 74.5591 147.976L76.2961 148.943C76.2961 148.943 79.1967 160.957 81.3014 169.661L80.3628 171.277L80.2418 171.311C78.3427 171.86 73.2987 173.317 68.1095 173.893C67.7249 173.939 67.3305 173.975 66.9483 174.006H66.9362C66.8322 174.016 66.7281 174.026 66.6265 174.03L65.6274 174.098C65.4653 174.105 65.3033 174.113 65.1387 174.115L65.042 174.12C64.9041 174.125 64.7638 174.13 64.6549 174.13C64.3477 174.134 64.0429 174.137 63.7066 174.134H63.6607C63.4647 174.127 63.2735 174.122 63.08 174.115C63.034 174.115 62.9905 174.115 62.9469 174.11L62.7752 174.101C62.6881 174.096 62.6035 174.093 62.5091 174.086C62.468 174.086 62.4293 174.081 62.3906 174.079H62.3712C62.3204 174.074 62.2671 174.072 62.2163 174.067L62.0422 174.052C61.7833 174.028 61.5365 174.004 61.314 173.972C61.1858 173.955 61.06 173.938 60.9391 173.922C60.8616 173.914 60.7818 173.902 60.6923 173.888C60.5544 173.864 60.4213 173.842 60.2447 173.808C60.206 173.801 60.1649 173.793 60.1262 173.784C60.0681 173.774 60.0125 173.762 59.9544 173.75C59.9181 173.742 59.8649 173.73 59.7996 173.713C59.7028 173.694 59.606 173.672 59.5117 173.648C59.4536 173.636 59.398 173.622 59.3448 173.607C59.173 173.561 59.0036 173.515 58.8343 173.46L58.7811 173.445C58.6359 173.399 58.4884 173.353 58.3795 173.312C58.3287 173.295 58.2827 173.278 58.2368 173.261C58.1206 173.218 58.0045 173.174 57.9005 173.131C57.8086 173.094 57.7215 173.056 57.6465 173.022C57.4989 172.959 57.3562 172.886 57.2086 172.814C56.9473 172.681 56.6764 172.526 56.3837 172.344C56.1418 172.194 55.8902 172.025 55.612 171.819C55.5176 171.747 55.4257 171.672 55.3289 171.589C55.2466 171.527 55.1644 171.459 55.0845 171.389C54.9902 171.306 54.8983 171.224 54.8136 171.144C54.8015 171.135 54.7918 171.123 54.7821 171.115M59.2214 170.748L59.3133 170.779C59.4004 170.813 59.4923 170.84 59.5819 170.869L59.6351 170.885L59.6278 170.905L59.6641 170.89C59.7899 170.934 59.9157 170.968 60.0439 171.002L60.1867 171.035C60.2617 171.057 60.3391 171.072 60.4165 171.086L60.5084 171.115H60.5036L60.6947 171.176C60.6487 171.156 60.6052 171.14 60.5689 171.13L60.7793 171.171C60.7624 171.166 60.7455 171.161 60.7261 171.156L60.7769 171.166C60.8955 171.188 61.0116 171.21 61.1374 171.229L61.3164 171.253C61.4204 171.27 61.5293 171.285 61.6648 171.302C61.8704 171.331 62.076 171.348 62.2913 171.369L62.3373 171.374C62.3784 171.377 62.4196 171.381 62.4607 171.384L62.6784 171.403C62.6567 171.401 62.6325 171.398 62.618 171.396C62.6639 171.396 62.7099 171.401 62.7292 171.403C62.7873 171.408 62.8454 171.41 62.9034 171.413L63.0582 171.423C63.0776 171.423 63.097 171.423 63.1163 171.425H63.1332C63.3292 171.432 63.5227 171.437 63.7332 171.444H63.7574C64.0404 171.447 64.3235 171.444 64.6404 171.439C64.7371 171.439 64.8315 171.437 64.9041 171.432L65.1097 171.425C65.238 171.425 65.3638 171.418 65.4654 171.413L66.4717 171.345C66.537 171.343 66.6024 171.333 66.6701 171.326L66.7137 171.335V171.326C67.0669 171.294 67.4321 171.263 67.7974 171.219C71.9609 170.76 76.0614 169.695 78.3645 169.049C76.7533 162.382 74.7986 154.292 74.0148 151.043C73.5164 151.22 72.9092 151.445 72.1955 151.713L72.0964 151.752C72.0383 151.776 71.9803 151.798 71.9222 151.817C71.7504 151.88 71.5738 151.948 71.3706 152.028L70.8118 152.243C69.0724 152.93 67.5313 153.578 66.0919 154.229C65.9226 154.304 65.7532 154.384 65.5791 154.464L65.4726 154.515C65.2815 154.599 65.0976 154.684 64.8847 154.791C64.4831 154.979 64.0791 155.175 63.6751 155.376C63.1792 155.623 62.6881 155.877 62.2115 156.136L61.9115 156.298C61.7252 156.397 61.5414 156.496 61.36 156.6L61.1906 156.697C61.0769 156.76 60.9656 156.823 60.8544 156.89L60.8036 156.919C60.7044 156.975 60.6003 157.035 60.4818 157.108C60.3753 157.171 60.2713 157.234 60.1697 157.297L60.0004 157.398C59.9665 157.423 59.9302 157.444 59.8988 157.464C59.8407 157.5 59.7827 157.536 59.7246 157.57C59.6883 157.592 59.652 157.616 59.6157 157.64L59.5335 157.694C59.4416 157.752 59.3472 157.81 59.2262 157.892C59.069 157.994 58.9142 158.1 58.7618 158.206C55.6192 160.389 54.1338 163.65 54.983 166.514C55.0096 166.606 55.041 166.693 55.0749 166.795C55.099 166.862 55.1208 166.925 55.162 167.024C55.1934 167.099 55.2225 167.174 55.2515 167.237L55.3725 167.491C55.6966 168.111 56.1152 168.653 56.6377 169.151C56.7079 169.221 56.7877 169.289 56.8699 169.359C56.899 169.383 56.9255 169.41 56.9546 169.432L57.0417 169.499C57.1143 169.562 57.1893 169.623 57.2401 169.661C57.4215 169.794 57.6126 169.925 57.811 170.048C58.0384 170.191 58.2416 170.307 58.4327 170.404C58.5271 170.452 58.6239 170.501 58.7497 170.556C58.8005 170.581 58.8537 170.605 58.9238 170.631C59.0158 170.67 59.1077 170.704 59.1972 170.735L59.2722 170.767C59.2504 170.757 59.2311 170.75 59.2214 170.745M60.5689 171.123C60.5689 171.123 60.5471 171.118 60.535 171.118C60.506 171.11 60.4818 171.106 60.4673 171.101L60.5689 171.123Z" fill="#144B5F"/>
<path d="M74.2196 150.956L74.4204 150.886C74.5293 150.847 74.6333 150.811 74.7252 150.775L73.8108 148.23C73.685 148.273 73.5471 148.321 73.3947 148.377L73.2979 148.413L74.2196 150.956Z" fill="#144B5F"/>
<path d="M59.9414 155.373L59.3971 154.597C59.4552 154.556 59.5205 154.515 59.5519 154.498L59.9729 154.261L61.2865 156.624L61.1946 156.677C61.0808 156.74 60.9696 156.803 60.8583 156.871L59.9414 155.371V155.373ZM60.8559 156.868C60.8559 156.868 60.8583 156.868 60.8607 156.868H60.8559Z" fill="#144B5F"/>
<path d="M58.3613 155.219L58.4895 155.141C58.4895 155.141 58.4822 155.146 58.4774 155.149L58.5016 155.134C58.4871 155.144 58.475 155.151 58.4605 155.163L60.1249 157.292C60.0499 157.355 59.9749 157.406 59.9048 157.447C59.8298 157.495 59.7547 157.541 59.6846 157.58L58.3661 155.219H58.3613ZM58.3928 155.214L58.4145 155.24L58.3976 155.209C58.3976 155.209 58.3928 155.211 58.3928 155.214Z" fill="#144B5F"/>
<path d="M58.7403 173.421C58.7838 173.438 58.825 173.45 58.8685 173.464L59.2387 173.571C59.2749 173.58 59.3112 173.59 59.3475 173.6L59.4177 173.336L60.4337 172.753L59.6765 172.378L59.7854 171.969L60.5015 171.732L59.7854 171.967L60.0491 170.987L59.8797 170.941C59.8096 170.922 59.7394 170.9 59.6693 170.876L59.2991 171.028L59.3136 170.808L59.2967 171.028L58.0097 171.556L58.6629 171.877L57.9323 172.579L58.8056 173.259L58.7451 173.423L58.7403 173.421Z" fill="#144B5F"/>
<path d="M60.1873 171.021C60.2623 171.043 60.3397 171.057 60.4171 171.072L60.5163 171.098H60.5139V171.103H60.5163L59.9816 173.747H59.9768C59.9501 173.742 59.9114 173.735 59.8606 173.721L59.7663 173.701C59.6478 173.677 59.5389 173.65 59.4252 173.614L60.1873 171.021ZM60.4679 171.088H60.4727C60.4727 171.088 60.4703 171.088 60.4679 171.088Z" fill="#144B5F"/>
<path d="M59.9034 173.73C59.9566 173.745 60.0098 173.757 60.063 173.767L60.2275 173.798C60.2275 173.798 60.242 173.8 60.2517 173.803V173.793C60.2517 173.793 60.2638 173.793 60.2687 173.793L60.2807 173.667L60.8057 171.154L60.7549 171.144L60.5178 171.096V171.101C60.5444 171.103 60.571 171.108 60.5952 171.113L60.5178 171.101L59.9082 173.728L59.9034 173.73Z" fill="#144B5F"/>
<path d="M61.5627 173.878L61.9885 174.016V174.033L62.0998 174.052V174.045L62.1651 174.052V174.057L62.2183 174.062C62.2691 174.067 62.3224 174.071 62.3732 174.074L62.4966 172.274L62.9127 171.536L62.499 172.257L62.5595 171.379C62.5183 171.374 62.4796 171.372 62.4458 171.369C62.3998 171.364 62.3562 171.362 62.3127 171.359V171.364C62.2909 171.364 62.2716 171.364 62.2522 171.364V171.558L61.5652 173.883L61.5627 173.878Z" fill="#144B5F"/>
<path d="M66.3054 174.055L66.903 174.006C66.9272 174.006 66.9707 174.001 67.0118 173.996L67.5078 171.483L66.6756 171.306C66.6078 171.314 66.5425 171.323 66.4772 171.326L66.1651 171.352C66.124 171.355 66.0804 171.36 66.0393 171.364L66.2643 173.634L66.153 173.825L66.1603 173.83L66.2643 173.648L66.303 174.052H66.349C66.3344 174.052 66.3199 174.055 66.303 174.055H66.3054Z" fill="#144B5F"/>
<path d="M59.9414 155.373L59.3971 154.599C59.4552 154.558 59.5205 154.517 59.5543 154.5L59.9027 154.304L61.2163 156.668L61.1946 156.68C61.0808 156.743 60.9696 156.806 60.8583 156.873L59.9414 155.373ZM60.8559 156.868C60.8559 156.868 60.8583 156.868 60.8607 156.868H60.8559Z" fill="#144B5F"/>
<path d="M59.5659 157.594L59.4352 157.142L59.6796 157.58C59.6796 157.58 59.6796 157.58 59.682 157.58C59.7594 157.536 59.8441 157.486 59.9263 157.432L58.8039 155.001L58.7893 155.006L58.4604 155.163L58.366 155.219L59.4256 157.118L59.5683 157.594H59.5659Z" fill="#144B5F"/>
<path d="M58.7409 173.416L59.2392 173.568C59.2755 173.578 59.3118 173.587 59.3481 173.597L60.0472 170.984L59.8779 170.938C59.8077 170.919 59.7376 170.897 59.6674 170.873L58.7409 173.413V173.416Z" fill="#144B5F"/>
<path d="M60.1873 171.021C60.2623 171.043 60.3397 171.057 60.4171 171.072L60.0808 173.747C59.9889 173.742 59.8776 173.725 59.7663 173.701C59.6478 173.677 59.5389 173.65 59.4252 173.614L60.1873 171.021ZM60.2187 171.047V171.086L60.2284 171.047C60.2259 171.047 60.2211 171.047 60.2187 171.047Z" fill="#144B5F"/>
<path d="M59.9877 173.74C60.0289 173.752 60.0724 173.764 60.1135 173.774L60.1184 173.779L60.2248 173.798C60.2248 173.798 60.2394 173.8 60.249 173.803L60.5393 172.409L61.6836 172.075L60.5393 172.404L60.8006 171.156L60.7498 171.146L60.6942 171.137L60.6627 171.27L59.0854 172.828V172.833L60.0071 173.677L59.9877 173.74Z" fill="#144B5F"/>
<path d="M60.6792 173.878C60.7615 173.892 60.8437 173.905 60.926 173.917L61.0445 173.936C61.1679 173.953 61.2501 173.96 61.3348 173.97L61.6445 171.282C61.5308 171.268 61.4219 171.253 61.3179 171.236L61.1388 171.212L60.6768 173.878H60.6792Z" fill="#144B5F"/>
<path d="M61.5627 173.878L61.9885 174.016V174.033L62.0998 174.052V174.045L62.1651 174.052V174.057L62.2183 174.062C62.2691 174.067 62.3224 174.071 62.3732 174.074L62.4966 172.274L62.9127 171.536L62.499 172.257L62.5595 171.379C62.5183 171.374 62.4796 171.372 62.4458 171.369C62.3998 171.364 62.3562 171.362 62.3127 171.359V171.364C62.2909 171.364 62.2716 171.364 62.2522 171.364V171.558L61.5652 173.883L61.5627 173.878Z" fill="#144B5F"/>
<path d="M60.9815 172.141C61.1 172.158 61.221 172.172 61.3492 172.185C61.2742 172.18 61.1992 172.172 61.129 172.165C61.0806 172.155 61.0274 172.151 60.9815 172.141Z" fill="#59595B"/>
<path d="M66.044 172.189C66.1528 172.18 66.269 172.167 66.3827 172.155C66.3005 172.163 66.223 172.17 66.1431 172.182C66.1093 172.182 66.0754 172.184 66.044 172.189Z" fill="#59595B"/>
<path d="M66.6814 172.131C66.6427 172.136 66.5991 172.138 66.5604 172.143C66.4999 172.151 66.4443 172.151 66.3838 172.155C66.4782 172.151 66.5749 172.138 66.6741 172.126L66.6814 172.131Z" fill="#59595B"/>
<path d="M58.4769 171.06C60.7316 172.139 64.0338 172.25 67.4255 171.928C58.3487 167.898 60.676 159.317 62.4589 155.192C61.1646 155.864 59.9381 156.571 58.8664 157.287C52.8233 161.334 52.5329 168.212 58.4769 171.06Z" fill="#231F20"/>
<path d="M63.2249 170.029C64.2845 171.023 65.586 171.923 67.1295 172.731C67.4609 172.905 67.8698 172.777 68.0415 172.446C68.2157 172.114 68.0851 171.705 67.7561 171.534C64.1345 169.639 61.979 167.213 61.3476 164.329C60.3098 159.595 63.7281 155.098 63.762 155.052C63.9894 154.756 63.941 154.338 63.641 154.103C63.3459 153.876 62.9225 153.929 62.6927 154.224C62.5355 154.427 58.8559 159.249 60.0243 164.607C60.4646 166.635 61.5387 168.447 63.2249 170.029Z" fill="#144B5F"/>
<path d="M124.755 188.5L124.944 188.476L124.671 185.577C124.359 178.366 123.321 169.103 122.581 163.12L122.552 157.771L121.843 157.437C121.809 157.193 121.79 157.048 121.79 157.048L109.517 151.636L96.1219 145.332L76.1756 150.262C75.37 155.877 77.3779 162.46 78.752 166.11C78.7593 166.129 78.7666 166.144 78.7714 166.163C78.9262 166.575 79.0737 166.947 79.2068 167.278C79.2068 167.278 79.2068 167.279 79.2068 167.281C79.2745 167.45 79.3399 167.607 79.4003 167.753C79.4003 167.757 79.4052 167.762 79.4052 167.765C79.589 168.205 79.7342 168.529 79.8189 168.718C79.8189 168.72 79.8189 168.723 79.8213 168.725C79.8769 168.846 79.9084 168.916 79.9084 168.916C79.9084 168.916 96.5259 167.591 99.7724 171.077C100.653 172.023 103.655 189.385 103.655 189.385C111.053 193.82 124.763 189.184 124.763 189.184C124.763 188.962 124.758 188.73 124.755 188.5Z" fill="#8E569D"/>
<path d="M77.7854 169.639C77.6935 169.439 77.5411 169.093 77.3451 168.626L77.3258 168.577C77.2895 168.493 77.2532 168.406 77.2169 168.311L77.1347 168.113C76.9944 167.767 76.8419 167.38 76.675 166.94L76.6581 166.896C74.9647 162.394 73.1212 155.799 73.9631 149.945L74.176 148.457L96.3528 142.975L110.44 149.604L123.825 155.507L123.886 155.93L124.776 156.348L124.812 162.974C125.596 169.32 126.588 178.31 126.9 185.422L127.369 190.408L127.004 190.457V190.781L125.48 191.296C124.88 191.499 110.699 196.205 102.51 191.296L101.634 190.771L101.46 189.765C100.194 182.456 98.5833 174.233 97.9543 172.429C96.002 170.953 87.3292 170.564 80.0861 171.139L78.5475 171.26L77.7854 169.639ZM101.406 169.557C101.895 170.082 102.703 170.953 105.667 187.924C110.488 190.108 118.363 188.688 122.512 187.539L122.5 186.545H122.521L122.451 185.788L122.444 185.674C122.139 178.651 121.147 169.681 120.368 163.393L120.329 159.188L119.797 158.939L119.749 158.586L108.616 153.678L95.8859 147.688L78.2402 152.049C77.9959 156.898 79.7136 162.346 80.8361 165.326L80.8554 165.377C80.9763 165.701 81.0949 165.999 81.2014 166.272L81.2715 166.446C81.2908 166.492 81.3078 166.538 81.3271 166.582C86.555 166.26 97.6374 166.015 101.196 169.349C101.269 169.417 101.339 169.489 101.406 169.56" fill="#144B5F"/>
<path d="M122.102 157.036C122.102 157.036 125.034 177.894 125.077 189.175C125.077 189.175 111.368 193.81 103.97 189.375C103.97 189.375 100.965 172.01 100.087 171.067C96.8402 167.578 80.2228 168.907 80.2228 168.907C80.2228 168.907 75.2997 158.526 76.4875 150.252L97.9023 146.365L122.106 157.038L122.102 157.036Z" fill="#231F20"/>
<path d="M99.6719 170.81C101.39 172.417 107.953 173.14 109.25 173.268C109.741 173.317 110.176 172.959 110.227 172.467C110.275 171.976 109.915 171.541 109.426 171.49C106.448 171.195 101.83 170.384 100.891 169.506C99.701 168.391 97.6446 164.104 96.9527 162.546C96.752 162.096 96.2246 161.893 95.7746 162.094C95.3247 162.295 95.1214 162.822 95.3222 163.272C95.5907 163.879 98.0051 169.248 99.6719 170.813" fill="#144B5F"/>
<path d="M93.8593 116.105C97.4228 105.99 113.15 104.002 118.632 113.437C120.289 116.286 120.877 119.615 121.38 122.874C123.279 135.195 124.339 147.644 124.552 160.108C124.576 161.397 114.643 159.205 113.554 158.959C109.258 157.991 105.118 156.29 101.434 153.871C98.18 151.737 93.6464 148.595 93.4674 144.502C93.1989 138.357 93.1335 132.197 92.9666 126.05C92.8819 122.92 92.8045 119.731 93.6633 116.722C93.7238 116.514 93.7891 116.308 93.8617 116.103" fill="white"/>
<path d="M93.8593 116.105C97.4228 105.99 113.15 104.002 118.632 113.437C120.289 116.286 120.877 119.615 121.38 122.874C123.279 135.195 124.339 147.644 124.552 160.108C124.576 161.397 114.643 159.205 113.554 158.959C109.258 157.991 105.118 156.29 101.434 153.871C98.18 151.737 93.6464 148.595 93.4674 144.502C93.1989 138.357 93.1335 132.197 92.9666 126.05C92.8819 122.92 92.8045 119.731 93.6633 116.722C93.7238 116.514 93.7891 116.308 93.8617 116.103L93.8593 116.105Z" stroke="#144B5F" stroke-width="2.0418" stroke-miterlimit="10"/>
<path d="M100.375 125.683L105.898 131.641L109.975 124.113L100.375 125.683Z" fill="#231F20"/>
<path d="M100.375 125.683L105.898 131.641L109.975 124.113L100.375 125.683Z" stroke="#144B5F" stroke-width="0.510451" stroke-miterlimit="10"/>
<path d="M99.8363 125.496L110.476 123.757L105.957 132.101L99.8363 125.496ZM100.918 125.866L105.841 131.179L109.477 124.468L100.918 125.866Z" fill="#231F20"/>
<path d="M99.8363 125.496L110.476 123.757L105.957 132.101L99.8363 125.496ZM100.918 125.866L105.841 131.179L109.477 124.468L100.918 125.866Z" stroke="#144B5F" stroke-width="0.510451" stroke-miterlimit="10"/>
<path d="M118.118 124.916C118.118 124.916 118.118 124.916 118.116 124.916C118.116 124.894 118.111 124.87 118.111 124.848C118.072 124.26 118.121 123.759 118.3 123.329C118.353 123.198 118.423 123.077 118.501 122.959C119.197 121.897 120.9 121.28 124.367 120.716C124.367 120.716 128.564 120.206 133.536 119.018C134.121 118.877 134.717 118.73 135.316 118.57C135.916 118.413 136.524 118.244 137.128 118.065C137.431 117.975 137.733 117.883 138.036 117.791C138.5 117.646 138.962 117.494 139.419 117.336C139.855 117.189 140.286 117.036 140.709 116.877C141.29 116.659 141.86 116.429 142.412 116.19C143.793 115.59 145.066 114.924 146.145 114.189C150.461 111.245 153.296 109.689 155.708 109.801C157.155 109.868 158.451 110.536 159.821 111.864C159.985 112.024 160.133 112.193 160.273 112.367C160.302 112.404 160.331 112.44 160.36 112.476C160.493 112.648 160.614 112.827 160.723 113.013C160.742 113.045 160.759 113.079 160.776 113.11C160.873 113.284 160.962 113.463 161.04 113.647C161.052 113.676 161.066 113.705 161.079 113.737C161.158 113.937 161.226 114.145 161.282 114.358C161.294 114.404 161.306 114.453 161.316 114.499C161.369 114.716 161.412 114.939 161.439 115.166C161.439 115.178 161.439 115.191 161.441 115.203C161.466 115.423 161.272 117.603 161.265 117.627C161.265 117.627 160.662 124.207 151.208 128.528C140.624 133.364 132.938 132.401 126.508 130.569C120.141 128.755 118.302 127.224 118.116 124.911" fill="#FCC596"/>
<path d="M116.762 124.94C116.706 124.115 116.8 123.421 117.047 122.816C117.129 122.615 117.234 122.419 117.369 122.218C118.429 120.602 120.749 119.934 124.15 119.383L124.203 119.376C124.244 119.371 128.391 118.858 133.222 117.704C133.798 117.566 134.381 117.421 134.971 117.264C135.559 117.109 136.154 116.944 136.747 116.77C137.042 116.683 137.339 116.594 137.635 116.502C138.087 116.361 138.537 116.211 138.985 116.059C139.405 115.914 139.824 115.766 140.235 115.614C140.809 115.399 141.363 115.176 141.875 114.951C143.254 114.353 144.435 113.722 145.383 113.074C149.924 109.975 152.926 108.32 155.771 108.453C157.542 108.535 159.132 109.314 160.762 110.896C160.948 111.078 161.135 111.283 161.343 111.542L161.435 111.658C161.604 111.881 161.759 112.106 161.892 112.336C161.911 112.37 161.931 112.406 161.955 112.452C162.078 112.67 162.189 112.897 162.286 113.129C162.303 113.163 162.318 113.197 162.335 113.241C162.431 113.483 162.514 113.736 162.589 114.01L162.632 114.189C162.702 114.484 162.751 114.753 162.787 115.055C162.823 115.37 162.683 117.135 162.61 117.752H162.615C162.589 118.052 161.824 125.167 151.772 129.761C140.588 134.871 132.54 133.697 126.139 131.873C121.929 130.673 118.995 129.469 117.623 127.482L117.038 128.133L116.757 124.94H116.762ZM160.097 115.294C160.078 115.152 160.049 114.992 160 114.791L159.981 114.711C159.935 114.537 159.884 114.382 159.831 114.252L159.797 114.174C159.739 114.039 159.674 113.903 159.596 113.768L159.56 113.7C159.482 113.57 159.39 113.434 159.289 113.301L159.221 113.216C159.098 113.062 158.989 112.941 158.88 112.837C157.731 111.724 156.734 111.204 155.648 111.153C153.582 111.056 150.773 112.67 146.91 115.307C145.821 116.049 144.488 116.765 142.952 117.431C142.396 117.673 141.803 117.912 141.186 118.144C140.751 118.309 140.305 118.464 139.858 118.618C139.389 118.778 138.914 118.935 138.438 119.083C138.128 119.18 137.821 119.272 137.509 119.364C136.892 119.545 136.273 119.717 135.661 119.876C135.051 120.038 134.444 120.189 133.849 120.331C129.015 121.485 124.963 122.001 124.556 122.051C122.698 122.354 120.183 122.852 119.629 123.699C119.592 123.757 119.566 123.803 119.549 123.839C119.469 124.035 119.437 124.306 119.452 124.654L119.464 124.802C119.563 126.021 120.219 127.371 126.881 129.27C132.806 130.959 140.264 132.043 150.647 127.299C159.187 123.396 159.896 117.733 159.92 117.503L159.93 117.397C159.966 117.01 160.085 115.616 160.092 115.292M160.099 115.365L160.094 115.319C160.094 115.336 160.097 115.35 160.099 115.365Z" fill="#144B5F"/>
<path d="M135.317 118.573C135.317 118.573 144.626 121.183 141.285 131.661C141.285 131.661 128.34 134.808 118.276 127.098C118.276 127.098 116.067 123.145 121.658 120.191C127.249 117.237 135.317 118.575 135.317 118.575" fill="white"/>
<path d="M117.095 127.756C116.989 127.565 116.069 125.825 116.725 123.612C117.272 121.766 118.718 120.213 121.026 118.993C126.953 115.861 135.191 117.182 135.536 117.237L135.679 117.269C135.856 117.319 140.041 118.529 142.165 122.472C143.609 125.153 143.747 128.382 142.572 132.069L142.342 132.793L141.604 132.972C141.05 133.107 127.909 136.179 117.453 128.167L117.23 127.998L117.095 127.753V127.756ZM139.799 123.781C138.36 121.084 135.483 120.048 135.012 119.893C134.165 119.77 127.11 118.836 122.289 121.384C118.655 123.304 119.059 125.453 119.357 126.217C127.389 132.18 137.428 130.976 140.218 130.49C140.917 127.865 140.777 125.61 139.799 123.779" fill="#144B5F"/>
<path d="M92.4865 127.299H92.4889C92.4817 127.277 92.4744 127.255 92.4695 127.233C92.2881 126.672 92.0558 126.227 91.7317 125.891C91.6349 125.789 91.5237 125.702 91.4075 125.62C90.3673 124.892 88.5577 124.95 85.1273 125.709C85.1273 125.709 81.0388 126.788 75.9827 127.529C75.3876 127.616 74.7804 127.698 74.1635 127.773C73.5466 127.848 72.9224 127.916 72.2934 127.976C71.9789 128.005 71.6644 128.032 71.3499 128.058C70.8637 128.097 70.3798 128.126 69.896 128.15C69.4387 128.172 68.9815 128.191 68.5267 128.201C67.905 128.213 67.2929 128.211 66.6905 128.194C65.1858 128.148 63.7561 128.003 62.4836 127.717C57.3839 126.58 54.1736 126.186 51.9746 127.183C50.6561 127.78 49.7005 128.881 48.9191 130.623C48.8248 130.831 48.7498 131.044 48.6845 131.259C48.6699 131.305 48.6554 131.348 48.6433 131.394C48.5853 131.602 48.5369 131.815 48.5054 132.028C48.5006 132.064 48.4957 132.101 48.4909 132.137C48.4643 132.335 48.4498 132.534 48.445 132.735C48.445 132.766 48.4425 132.8 48.4425 132.831C48.4425 133.049 48.457 133.267 48.4836 133.485C48.4885 133.533 48.4958 133.579 48.503 133.627C48.5345 133.85 48.578 134.072 48.6361 134.293C48.6385 134.305 48.6434 134.317 48.6458 134.326C48.7038 134.539 49.6933 136.494 49.7054 136.513C49.7054 136.513 52.7028 142.402 63.086 142.915C74.7078 143.488 81.4912 139.745 86.7868 135.662C92.0292 131.619 93.1687 129.515 92.4865 127.296" fill="#FCC596"/>
<path d="M47.1508 131.946C47.1556 131.905 47.1604 131.864 47.1676 131.82C47.2064 131.561 47.2668 131.295 47.3418 131.022L47.3903 130.86C47.4822 130.564 47.5765 130.306 47.683 130.069C48.6144 127.991 49.7997 126.684 51.4134 125.951C54.0067 124.775 57.4081 125.199 62.7739 126.396C63.894 126.645 65.2222 126.795 66.7269 126.839C67.2978 126.856 67.893 126.858 68.4953 126.846C68.9356 126.836 69.3784 126.82 69.8235 126.798C70.2952 126.774 70.7669 126.745 71.2411 126.708C71.5483 126.684 71.8556 126.657 72.1628 126.628C72.7797 126.57 73.3918 126.503 73.9942 126.43C74.599 126.355 75.1965 126.275 75.7819 126.191C80.6978 125.472 84.7378 124.412 84.7789 124.403L84.8321 124.391C88.1973 123.643 90.5995 123.404 92.1793 124.512C92.3801 124.652 92.5518 124.795 92.6994 124.95C93.1542 125.419 93.4977 126.031 93.7518 126.812L94.3711 128.762L94.0058 128.74C93.8292 131.382 91.4463 133.772 87.6119 136.731C82.3428 140.795 75.3005 144.867 63.0182 144.262C51.9794 143.718 48.6361 137.394 48.5006 137.123H48.5055C48.2055 136.566 47.4289 134.996 47.3539 134.723L47.3298 134.638C47.262 134.389 47.2088 134.121 47.1604 133.792L47.1386 133.639C47.1048 133.354 47.0879 133.088 47.0879 132.822C47.0879 132.783 47.0878 132.744 47.0926 132.703C47.0926 132.618 47.0975 132.531 47.1023 132.444C47.112 132.28 47.129 132.113 47.1508 131.941M50.8836 135.846L50.9053 135.884C51.019 136.097 53.7745 141.095 63.1513 141.557C74.5554 142.119 81.08 138.35 85.9595 134.585C91.4439 130.356 91.5527 128.859 91.1947 127.688L91.1511 127.548C91.035 127.214 90.9068 126.977 90.7592 126.824C90.7326 126.795 90.6891 126.761 90.631 126.72C89.8061 126.142 87.2828 126.611 85.4466 127.018C85.0523 127.122 81.0945 128.14 76.1787 128.861C75.5739 128.951 74.9546 129.033 74.3256 129.11C73.6966 129.188 73.0604 129.256 72.4193 129.316C72.0975 129.348 71.7758 129.374 71.454 129.398C70.9557 129.437 70.4597 129.466 69.9613 129.493C69.4896 129.517 69.0203 129.536 68.5534 129.546C67.9051 129.558 67.2639 129.556 66.6495 129.539C64.9754 129.488 63.4731 129.319 62.1861 129.031C57.621 128.012 54.4156 127.555 52.5311 128.409C51.5392 128.859 50.8061 129.711 50.1505 131.169C50.0901 131.307 50.032 131.46 49.9667 131.673L49.9425 131.752C49.8965 131.914 49.8626 132.074 49.8385 132.236L49.8288 132.309C49.8094 132.456 49.7973 132.606 49.7949 132.751V132.826C49.7925 132.979 49.8021 133.141 49.8215 133.318L49.836 133.426C49.8626 133.61 49.8917 133.763 49.928 133.903C50.0586 134.215 50.7481 135.589 50.8811 135.846M49.9425 133.951L49.9473 133.966C49.9473 133.966 49.9449 133.956 49.9425 133.951Z" fill="#144B5F"/>
<path d="M73.1731 126.261C73.1731 126.261 68.417 136.927 71.5474 144.127C71.5474 144.127 89.1253 144.224 91.7719 134.268C94.4186 124.313 86.065 123.832 86.065 123.832C86.065 123.832 77.16 127.529 73.1731 126.263" fill="white"/>
<path d="M71.9391 125.712L72.4326 124.608L73.5841 124.974C76.4654 125.888 83.1981 123.558 85.5496 122.584L85.835 122.465L86.1447 122.482C86.3019 122.492 90.0105 122.738 92.1733 125.724C93.7603 127.915 94.0651 130.908 93.0805 134.617C90.1992 145.457 72.302 145.484 71.5424 145.479L70.6618 145.474L70.311 144.666C69.2708 142.273 69.0191 139.571 69.1715 136.971C69.5078 131.249 71.8012 126.026 71.9416 125.712M90.4677 133.92C91.2322 131.048 91.0726 128.83 89.9984 127.328C88.8711 125.753 86.9575 125.32 86.2584 125.213C84.577 125.886 78.1879 128.295 74.0124 127.807C73.0326 130.39 70.7199 137.462 72.4738 142.748C75.9792 142.598 88.4477 141.526 90.4702 133.917" fill="#144B5F"/>
<path d="M104.791 130.446L101.017 147.402L104.966 150.688L108.606 148.22L107.223 129.195L104.791 130.446Z" fill="#231F20"/>
<path d="M104.791 130.446L101.017 147.402L104.966 150.688L108.606 148.22L107.223 129.195L104.791 130.446Z" stroke="#144B5F" stroke-width="0.510451" stroke-miterlimit="10"/>
<path d="M104.528 130.388L104.554 130.264L107.462 128.769L108.887 148.358L104.949 151.026L100.717 147.504L104.525 130.388H104.528ZM108.326 148.084L106.983 129.623L105.028 130.627L101.32 147.298L104.985 150.349L108.326 148.084Z" fill="#231F20"/>
<path d="M104.528 130.388L104.554 130.264L107.462 128.769L108.887 148.358L104.949 151.026L100.717 147.504L104.525 130.388H104.528ZM108.326 148.084L106.983 129.623L105.028 130.627L101.32 147.298L104.985 150.349L108.326 148.084Z" stroke="#144B5F" stroke-width="0.510451" stroke-miterlimit="10"/>
<path d="M149.186 92.6873C147.306 88.4852 143.111 91.451 143.111 91.451C143.406 83.3298 141.498 75.6489 139.831 71.6161C134.971 59.866 123.506 53.5809 110.839 51.7254C97.4948 49.7731 83.5748 53.2544 75.0544 63.6981C69.3088 70.7403 66.2751 92.1454 66.2751 92.1454C66.2751 92.1454 62.027 89.2569 60.2247 93.4953C58.4224 97.7313 60.1618 103.325 63.3576 104.633C66.5533 105.942 69.0572 104.583 69.0572 104.583C69.0572 104.583 75.5261 116.054 84.8884 120.878C97.6134 127.437 115.38 126.827 127.399 119.458C132.81 116.141 136.952 111.264 139.746 105.703C140.041 105.112 140.557 103.937 140.557 103.937C140.557 103.937 143.085 105.253 146.256 103.886C149.425 102.519 151.066 96.8943 149.186 92.6922" fill="#FCC596"/>
<path d="M59.1669 101.582C58.0396 98.8367 58.0299 95.6409 59.1403 93.0306C59.9411 91.1509 61.1749 90.442 62.07 90.1784C63.2602 89.8276 64.4481 90.0549 65.3553 90.3815C66.1923 85.2069 69.1268 69.0974 74.1418 62.9502C82.2582 52.9976 96.0404 48.3648 111.01 50.5566C125.69 52.7049 136.31 60.0206 140.919 71.1611C142.525 75.0439 144.286 82.0183 144.318 89.5565C145.169 89.2783 146.219 89.1163 147.279 89.4066C148.179 89.6534 149.425 90.338 150.259 92.2033C151.416 94.7918 151.464 97.9875 150.388 100.753C149.597 102.787 148.293 104.28 146.72 104.957C144.417 105.951 142.395 105.719 141.187 105.4C141.054 105.695 140.912 105.998 140.798 106.225C137.762 112.268 133.342 117.191 128.015 120.457C115.708 128 97.3443 128.617 84.3484 121.921C76.2029 117.723 70.2929 108.864 68.551 106.031C67.3632 106.387 65.2948 106.697 62.9094 105.719C62.1474 105.407 61.4458 104.904 60.8289 104.244C60.1636 103.53 59.5976 102.63 59.1669 101.58M70.0799 103.999C70.1428 104.11 76.4957 115.227 85.4249 119.828C97.7363 126.171 115.13 125.593 126.781 118.452C131.736 115.415 135.853 110.821 138.691 105.17C138.969 104.616 139.47 103.472 139.475 103.46L139.98 102.328L141.091 102.882C141.175 102.925 143.208 103.91 145.789 102.797C146.764 102.376 147.639 101.321 148.193 99.8986C149.033 97.7407 149.001 95.1594 148.109 93.1636C147.736 92.329 147.262 91.8451 146.662 91.6782C145.593 91.3806 144.224 92.1064 143.788 92.4088L141.846 93.7829L141.933 91.4048C142.218 83.5182 140.392 76.055 138.742 72.0609C132.969 58.107 118.674 54.0573 110.669 52.8864C96.529 50.818 83.5549 55.1362 75.9683 64.4404C70.4985 71.1465 67.4721 92.0992 67.443 92.3097L67.1769 94.1603L65.6189 93.12C65.1762 92.8249 63.7925 92.1234 62.728 92.4403C62.1305 92.6193 61.6659 93.1129 61.3079 93.9523C60.4515 95.9627 60.4661 98.5439 61.3466 100.687C61.9273 102.098 62.8223 103.138 63.8045 103.542C66.4076 104.609 68.4204 103.586 68.4954 103.544L69.5139 102.99L70.0848 103.999H70.0799Z" fill="#144B5F"/>
<path d="M125.491 83.0634C124.53 82.5771 123.679 82.178 122.842 81.9022C122.01 81.6264 121.216 81.4885 120.428 81.5055C119.639 81.5127 118.831 81.6626 117.974 81.9312C117.108 82.1852 116.225 82.5627 115.195 82.9062C115.601 81.8998 116.3 81.0652 117.193 80.4168C118.081 79.7709 119.218 79.3451 120.408 79.3402C121.596 79.3184 122.769 79.7394 123.66 80.4168C124.107 80.7579 124.494 81.1571 124.809 81.5998C125.118 82.045 125.375 82.5288 125.493 83.0659" fill="#144B5F"/>
<path d="M102.856 101.708C103.473 102.371 104.869 102.545 105.336 102.584C105.621 102.608 105.87 102.398 105.897 102.112C105.921 101.829 105.711 101.575 105.425 101.551C104.499 101.469 103.667 101.169 103.592 100.973C103.592 100.973 103.604 100.888 103.771 100.709C105.072 99.3277 104.356 97.5932 103.797 96.8674C103.618 96.64 103.296 96.5989 103.071 96.7755C102.846 96.9521 102.803 97.2739 102.977 97.5013C103.025 97.5666 104.032 98.9237 103.018 99.9979C102.486 100.564 102.51 101.041 102.624 101.341C102.675 101.476 102.754 101.597 102.856 101.706" fill="#144B5F"/>
<path d="M96.6674 83.2886C95.707 82.8023 94.8555 82.4031 94.0184 82.1273C93.1838 81.8515 92.3927 81.7137 91.6041 81.7306C90.8154 81.7379 90.0074 81.8878 89.151 82.1563C88.2849 82.4104 87.3995 82.7878 86.3713 83.1313C86.7777 82.125 87.4769 81.2903 88.3696 80.642C89.2574 79.996 90.3945 79.5702 91.5847 79.5654C92.7725 79.5436 93.9458 79.9646 94.8361 80.642C95.2837 80.9831 95.6707 81.3822 95.9852 81.8249C96.2949 82.27 96.5513 82.7539 96.6699 83.2909" fill="#144B5F"/>
<path d="M98.9901 110.715C107.191 125.194 113.217 110.587 113.217 110.587L98.9901 110.715Z" fill="#144B5F"/>
<path d="M98.2395 111.141C98.0895 110.875 98.0895 110.548 98.2443 110.284C98.3967 110.021 98.6773 109.856 98.9845 109.854L113.212 109.726C113.502 109.726 113.773 109.866 113.935 110.105C114.097 110.345 114.129 110.65 114.017 110.918C113.904 111.194 111.173 117.69 106.598 117.973C104.759 118.086 102.947 117.189 101.181 115.295C100.184 114.225 99.2047 112.842 98.2419 111.141M100.509 111.564C102.543 114.75 104.595 116.364 106.486 116.248C108.973 116.095 110.909 113.168 111.831 111.463L100.509 111.564Z" fill="#144B5F"/>
<path d="M101.974 115.829C101.974 115.829 107.647 120.83 110.366 115.041C110.366 115.041 106.708 111.15 101.974 115.829Z" fill="#F05D80"/>
<path d="M90.5865 86.9076C92.7202 86.8665 95.8894 88.4389 96.8571 92.3024C98.0352 97.0029 95.8192 101.621 90.8163 101.476C85.4505 101.321 83.4885 97.3222 84.0038 93.5724C84.5554 89.5566 86.844 86.9825 90.5865 86.9099" fill="white"/>
<path d="M96.9559 93.1325C95.8987 89.344 92.4271 87.0482 89.3789 87.8755C88.1452 88.2094 86.8243 89.0948 86.0235 90.3407C85.1284 91.7341 85.0268 93.5292 84.1874 94.9178C84.0543 95.1379 83.7011 95.2758 83.5704 94.9686C82.7382 93.0042 83.9479 90.4084 85.0413 88.9665C86.1808 87.4642 87.9081 86.4409 89.5386 86.1773C91.2031 85.9063 93.0586 86.3466 94.5004 87.4739C96.235 88.8287 96.7551 90.6237 97.0938 93.0671C97.1132 93.205 97.0019 93.2921 96.9559 93.1325Z" fill="#144B5F"/>
<path d="M96.5444 95.3048C96.4912 91.9446 94.2945 89.2544 91.6358 89.2956C88.9771 89.3367 86.8652 92.0969 86.9184 95.4572C86.9716 98.8175 89.1683 101.508 91.827 101.466C94.4832 101.425 96.5952 98.6675 96.542 95.3048" fill="#144B5F"/>
<path d="M95.7184 94.7651C95.7014 93.691 94.9999 92.8298 94.1483 92.8443C93.2992 92.8588 92.6242 93.7393 92.6412 94.8134C92.6581 95.8876 93.3597 96.7465 94.2112 96.7344C95.0604 96.7223 95.7353 95.8393 95.7184 94.7651Z" fill="white"/>
<path d="M119.372 86.1579C117.253 86.4119 114.335 88.4102 113.912 92.3704C113.396 97.1871 116.234 101.455 121.167 100.615C126.46 99.7176 127.846 95.4839 126.816 91.843C125.713 87.9432 123.088 85.7127 119.372 86.1579Z" fill="white"/>
<path d="M113.927 93.2046C114.447 89.3073 117.568 86.5519 120.7 86.9462C121.968 87.1059 123.4 87.7978 124.366 88.9227C125.445 90.1807 125.795 91.9418 126.819 93.2022C126.981 93.4006 127.351 93.4877 127.435 93.166C127.987 91.1048 126.429 88.7026 125.147 87.4252C123.809 86.0947 121.958 85.3229 120.306 85.2866C118.622 85.2503 116.844 85.9422 115.572 87.2582C114.043 88.8404 113.777 90.6911 113.782 93.1563C113.782 93.2966 113.905 93.3643 113.927 93.2022" fill="#144B5F"/>
<path d="M114.64 95.2998C114.226 91.9661 116.028 88.9953 118.665 88.6687C121.305 88.3421 123.777 90.7808 124.191 94.1144C124.604 97.4505 122.802 100.419 120.163 100.745C117.526 101.072 115.051 98.6359 114.637 95.2998" fill="#144B5F"/>
<path d="M115.383 94.6515C115.25 93.5846 115.828 92.6364 116.67 92.5323C117.514 92.4283 118.305 93.2072 118.436 94.2741C118.569 95.3409 117.99 96.2893 117.149 96.3934C116.304 96.4974 115.513 95.7184 115.383 94.654" fill="white"/>
<path d="M138.596 82.6426C138.596 82.6426 138.753 79.6525 147.588 73.6214C156.421 67.5903 152.434 56.537 142.172 61.5206C142.172 61.5206 146.013 52.9227 139.982 48.273C133.951 43.6257 128.74 51.6598 128.74 51.6598C128.74 51.6598 129.548 43.6911 121.976 41.2041C114.402 38.7172 111.721 50.3655 111.721 50.3655C111.721 50.3655 111.051 38.8938 104.986 40.1517C98.9211 41.4097 98.326 51.072 99.2017 53.9121C99.2017 53.9121 95.5511 39.3752 87.3113 41.8911C79.0716 44.4071 86.5904 56.733 86.5904 56.733C86.5904 56.733 80.3175 44.0031 71.7196 47.7916C63.1218 51.5801 73.2655 62.1035 73.2655 62.1035C73.2655 62.1035 66.0394 54.1637 61.813 57.6474C57.5843 61.131 66.5667 68.6039 66.5667 68.6039C66.5667 68.6039 55.3271 65.8436 55.5812 71.9569C55.8352 78.0702 66.1047 77.2671 71.7608 74.8334C71.7608 74.8334 62.0694 80.2354 65.6716 86.1745C69.2738 92.1137 79.8336 79.2242 83.206 75.1115C83.206 75.1115 70.6334 88.4995 84.418 86.7601C98.2002 85.0207 93.5384 74.7899 93.5384 74.7899C93.5384 74.7899 91.5837 88.0664 100.426 86.2133C109.268 84.3602 106.169 74.1803 106.169 74.1803C106.169 74.1803 108.9 87.6043 116.915 85.3617C124.93 83.1215 122.811 74.5383 122.811 74.5383L124.932 83.1216L138.598 82.645L138.596 82.6426Z" fill="#383635"/>
<path d="M65.0402 86.552C64.1451 85.0763 63.908 83.5086 64.3362 81.8902C64.8612 79.904 66.3199 78.1575 67.7763 76.8317C64.1136 77.6156 59.8413 77.7267 57.202 76.0648C55.7287 75.1382 54.9134 73.7279 54.8433 71.9837C54.7852 70.5539 55.2594 69.4169 56.2537 68.6016C58.206 67.0049 61.8009 67.1186 64.2346 67.4331C62.4178 65.5897 59.9357 62.585 59.943 59.9795C59.9454 58.8135 60.4171 57.8361 61.3437 57.0717C63.6637 55.1605 66.6441 56.1427 69.1093 57.6741C68.0279 55.7073 67.2247 53.4235 67.6312 51.3551C67.9989 49.4851 69.2738 48.0553 71.422 47.1094C76.2532 44.9805 80.3803 47.6585 83.2108 50.6777C82.6737 48.6455 82.4657 46.4587 83.1576 44.6418C83.8035 42.946 85.1292 41.7799 87.0985 41.1775C88.9951 40.5993 90.8192 40.7929 92.5199 41.7557C95.1761 43.258 97.0607 46.3813 98.2606 49.0617C98.4759 47.0465 99.0275 44.8402 100.094 43.0306C101.268 41.0445 102.862 39.83 104.836 39.4212C106.246 39.1285 107.516 39.4067 108.615 40.2462C110.565 41.7412 111.54 44.7749 112.019 47.1264C112.911 44.983 114.44 42.2758 116.814 40.9356C118.459 40.0066 120.273 39.8591 122.206 40.4929C127.739 42.3098 129.103 46.8965 129.415 49.6133C130.62 48.2899 132.592 46.5869 135.011 46.1732C136.893 45.8515 138.717 46.3571 140.435 47.6804C145.208 51.3551 144.24 57.3281 143.413 60.1876C148.062 58.5256 151.106 60.2432 152.361 62.4084C154.142 65.4784 153.22 70.6627 148.004 74.2238C140.002 79.6887 139.363 82.5386 139.334 82.6983L139.3 83.3514L124.357 83.8715L123.401 80.0008C122.741 82.4297 121.059 84.9627 117.116 86.0658C115.195 86.6029 113.393 86.3682 111.757 85.3666C109.757 84.1425 108.315 81.9507 107.318 79.8387C107.156 80.9685 106.817 82.1322 106.186 83.1967C105.039 85.1344 103.155 86.3899 100.581 86.9294C98.2993 87.4084 96.4535 86.9996 95.0939 85.7198C94.3972 85.0666 93.8867 84.2223 93.519 83.3006C91.8328 85.536 88.8113 86.944 84.5148 87.4859C80.6997 87.9673 78.4257 87.3794 77.5668 85.6908C77.1314 84.8368 77.1579 83.7966 77.4579 82.7007C74.0662 86.0972 70.6576 88.6253 67.9626 88.4342C67.036 88.3689 66.2498 87.9938 65.6184 87.314C65.4103 87.0915 65.2217 86.8375 65.0475 86.5496M82.6737 74.5963L83.7842 75.5713C83.085 76.4253 82.3593 77.2962 81.6166 78.1623C79.7562 80.6468 78.1499 83.5764 78.8853 85.0183C79.4127 86.0537 81.2972 86.3996 84.3309 86.0174C88.6516 85.4731 91.4941 84.0313 92.7812 81.7355C92.8465 81.6193 92.9045 81.5031 92.9602 81.387C92.3118 78.2203 92.7836 74.8842 92.8126 74.6737L93.1779 72.194L94.2181 74.473C94.2907 74.6327 95.8463 78.1235 94.5012 81.5467C94.7988 82.7563 95.2947 83.874 96.11 84.6409C97.1115 85.5844 98.476 85.8578 100.281 85.4804C102.429 85.0304 103.987 84.0095 104.913 82.4467C106.367 79.996 105.975 76.7664 105.671 75.2447C105.533 74.7173 105.463 74.3786 105.448 74.3157L106.88 73.9528C106.897 74.006 107.001 74.3617 107.117 74.923C107.674 77.0107 109.326 82.1443 112.531 84.1039C113.821 84.8925 115.19 85.0667 116.722 84.6385C123.938 82.6209 122.177 75.0245 122.097 74.7028L123.532 74.3472L125.508 82.3475L138.035 81.9121C138.514 80.642 140.326 77.676 147.177 72.9996C151.655 69.9418 152.533 65.6404 151.086 63.1462C149.961 61.2036 147.114 59.9311 142.498 62.1737L140.679 63.0568L141.501 61.2085C141.649 60.8795 145.024 53.0799 139.535 48.8487C138.16 47.7891 136.726 47.3779 135.267 47.6271C131.909 48.198 129.388 52.0131 129.364 52.0518L127.714 54.5823L128.01 51.5752C128.039 51.2728 128.653 44.1604 121.749 41.896C120.205 41.3904 118.831 41.4944 117.547 42.2202C113.93 44.2571 112.461 50.46 112.447 50.5229L111.288 55.5331L110.988 50.3995C110.879 48.5149 110.081 43.229 107.72 41.417C106.97 40.8413 106.125 40.6622 105.141 40.8654C103.593 41.1871 102.322 42.1669 101.372 43.7781C99.5259 46.9037 99.3976 51.4712 99.8355 53.3896C99.8863 53.571 99.9154 53.6872 99.9251 53.721L98.5025 54.1202C98.4735 54.0283 98.4469 53.9291 98.4227 53.8251C98.0187 52.3833 95.8608 45.3313 91.7965 43.0379C90.4418 42.2735 89.0484 42.1258 87.5364 42.5879C86.005 43.0548 85.0276 43.8967 84.5462 45.1619C83.3366 48.3408 85.5719 53.2323 86.6727 55.3298C87.0501 55.9685 87.2533 56.3749 87.2654 56.3967L85.9711 57.1079C85.9276 57.0378 85.6687 56.6071 85.3155 55.9298C83.5809 53.0195 78.4159 45.6434 72.0293 48.4569C70.3261 49.2069 69.3682 50.2447 69.0948 51.6333C68.3521 55.4048 72.8325 60.5141 73.6768 61.4334C73.7542 61.5157 73.8049 61.5714 73.8267 61.5931L72.7478 62.6044C72.7236 62.5778 72.6389 62.4906 72.5058 62.3455C70.4398 60.1755 65.1999 55.8137 62.2968 58.2063C61.7186 58.6828 61.4356 59.261 61.4332 59.9747C61.4259 62.7326 65.4877 66.7194 67.053 68.0234L69.5109 70.07L66.4046 69.308C64.5467 68.8532 59.2728 68.0427 57.202 69.7386C56.5778 70.249 56.2924 70.9603 56.3311 71.9135C56.3843 73.186 56.9286 74.1318 58.0003 74.8044C60.9953 76.6889 67.3288 75.9269 71.4801 74.1391L72.1333 75.4624C72.08 75.4915 66.77 78.4961 65.7781 82.2604C65.4539 83.4918 65.6305 84.6408 66.3176 85.7755C66.7724 86.5254 67.3312 86.8979 68.0739 86.9511C71.4148 87.1882 76.9765 81.3048 80.4263 77.2865C81.469 75.9003 82.4246 74.8601 82.681 74.5891" fill="#144B5F"/>
<path d="M151.068 55.6904C150.828 47.3127 129.871 45.0217 129.871 45.0217L72.2263 45.7038C72.2263 45.7038 58.0739 47.7675 56.9176 56.3508C55.6402 65.8389 77.1397 71.4127 106.458 70.67C135.776 69.9273 151.336 65.0623 151.068 55.6904Z" fill="#EFB545"/>
<path d="M150.908 54.5316C149.534 62.9262 134.312 67.4235 106.596 68.1275C79.3965 68.817 58.8478 63.843 57.0503 55.5766C57.0261 55.7072 56.9342 56.0968 56.9172 56.2298C55.6399 65.7179 77.2773 71.6426 106.596 70.8999C135.914 70.1572 151.486 64.9123 151.218 55.5403C151.208 55.2331 150.971 54.8219 150.908 54.5316Z" fill="#D19336"/>
<path d="M71.6328 46.9038C69.6829 47.1941 67.6653 48.7882 65.938 49.7051C64.1381 50.6583 62.2946 52.3009 61.9196 54.4323C60.8576 60.4367 68.3886 61.5278 72.6149 62.8318C75.322 63.6664 78.2154 64.0994 80.9951 64.6365C83.6828 65.1566 87.2269 65.5872 89.1937 63.2526C91.654 60.3303 89.1308 58.6586 86.3705 57.6256C83.707 56.6289 80.966 55.8136 78.3509 54.6742C76.1301 53.7089 75.3341 52.0324 75.2398 49.6785C75.1672 47.8787 74.4366 46.2022 72.2327 46.5022L71.6352 46.9038H71.6328Z" fill="#EDC356"/>
<path d="M71.3777 35.9351L70.2721 54.4927C70.2721 54.4927 79.0877 62.2294 103.623 62.3092C130.769 62.3963 136.696 54.3669 136.696 54.3669L134.807 35.2263L71.3777 35.9351Z" fill="#D19336"/>
<path d="M103.058 28.1984C86.7016 28.0798 71.359 31.745 71.3784 35.9326C71.3977 40.1226 84.5848 44.4457 101.94 44.5594C119.295 44.6731 135.688 40.9717 134.807 35.2213C133.982 29.8386 118.616 28.3096 103.055 28.1959" fill="#EFB545"/>
<path d="M79.0334 51.1905C79.0334 51.1905 77.9786 52.9251 78.1891 55.3177C78.3753 57.4248 78.5786 59.5997 78.5786 59.5997C78.5786 59.5997 78.4358 59.8464 81.5808 60.4294C84.7257 61.0125 87.9288 61.3874 87.9288 61.3874C87.9288 61.3874 87.4546 59.8126 87.2442 57.5337C86.9635 54.4759 87.5562 53.2759 87.5562 53.2759C87.5562 53.2759 86.8885 53.1283 84.2346 52.4848C80.4994 51.58 79.0358 51.1882 79.0358 51.1882" fill="#231F20"/>
<path d="M100.272 29.4541C99.0215 28.7961 96.5273 29.1614 95.1291 29.2364C91.7906 29.4154 88.7158 30.0081 85.5176 30.6734C82.7863 31.2419 79.2204 31.7693 76.9149 33.6587C75.0473 35.19 72.4853 37.4254 78.4293 40.1639C81.0711 40.9622 86.0788 41.8623 88.1617 41.0373C92.5187 39.31 81.584 38.0786 82.8468 34.9796C85.895 31.8975 91.2559 31.7959 96.6918 31.4209C98.303 31.3096 102.718 30.7412 100.272 29.4541Z" fill="#EDC356"/>
<path d="M178.738 10.0061C173.379 15.621 164.972 15.8969 157.928 17.0411C150.706 18.2144 146.761 23.6673 144.932 30.3733C143.693 28.5638 144.102 25.864 143.971 23.5294C138.032 28.1429 134.844 35.4875 132.712 42.808C131.466 47.09 127.216 52.1776 127.216 52.1776C128.716 52.5792 133.254 49.5842 134.962 49.1488C137.311 48.5488 139.622 48.2173 141.922 47.8302C145.328 47.2569 152.555 46.9304 154.536 43.6427C153.638 43.0887 152.593 42.7766 151.507 42.733C155.968 40.3864 162.793 38.5599 165.896 34.457C163.963 34.2271 161.329 34.3215 159.931 32.9183C173.205 31.612 173.084 19.2087 178.738 10.0037" fill="#A7AE98"/>
<path d="M178.738 10.0062C178.559 10.1949 178.375 10.3739 178.188 10.5505C177.293 11.8399 176.313 13.0834 175.172 14.1285C171.48 17.5081 167.046 19.5427 163.047 22.4312C160.202 24.4875 157.262 26.3261 154.659 28.7623C151.277 31.929 148.2 35.4659 144.847 38.6399C141.114 42.1719 136.968 45.4016 133.061 48.7836C131.449 50.1795 129.446 50.8737 127.567 51.7398C127.346 52.018 127.216 52.1752 127.216 52.1752C128.716 52.5768 133.254 49.5819 134.962 49.1465C137.311 48.5465 139.622 48.215 141.922 47.828C145.328 47.2546 152.555 46.928 154.536 43.6403C153.638 43.0863 152.593 42.7743 151.507 42.7308C155.968 40.3841 162.793 38.5576 165.896 34.4546C163.963 34.2248 161.329 34.3191 159.931 32.916C173.205 31.6096 173.084 19.2064 178.738 10.0013" fill="#989D8A"/>
<path d="M171.496 16.9421C169.509 18.3355 167.417 19.5572 165.361 20.8418C164.407 21.4369 163.488 22.0611 162.593 22.7142C162.97 21.5821 162.898 20.3217 162.893 19.1193C162.881 16.6905 162.45 18.7177 162.445 19.2282C162.428 20.5104 161.504 22.8884 161.071 24.0908C161.008 24.2625 161.683 23.2319 161.79 23.3166C161.071 23.8658 160.365 24.4367 159.671 25.0343C158.698 25.8689 157.74 26.7205 156.789 27.5793C156.78 27.5817 156.77 27.5841 156.76 27.5865C156.608 27.6277 156.523 27.7292 156.494 27.8478C156.032 28.2639 155.572 28.6824 155.115 29.1033C155.64 27.4341 155.906 25.1818 155.897 23.4352C155.892 22.1675 155.599 20.341 155.568 20.8515C155.275 25.6028 154.823 28.322 153.758 30.3468C152.239 31.7379 150.717 33.1289 149.166 34.4813C148.499 35.0643 147.821 35.6303 147.134 36.1868C148.09 34.2175 148.537 32.0548 148.883 29.9089C149.268 27.5309 148.874 25.9729 148.84 26.4785C148.666 29.1251 146.917 35.1634 145.559 37.4326C143.322 39.1696 141.016 40.8196 138.728 42.4888C139.197 41.6252 139.519 40.6647 139.782 39.7405C140.232 38.1681 140.503 36.494 140.515 34.8562C140.53 32.4805 140.317 31.2323 140.315 31.7427C140.31 33.2499 139.456 37.8706 139.076 39.3245C138.694 40.7857 136.949 43.6234 135.839 44.6951C135.725 44.8039 136.894 43.6984 136.923 43.8121C133.763 46.1587 130.681 48.6021 127.909 51.4277C126.201 53.1695 124.641 55.0541 123.259 57.0669C122.969 57.4878 123.658 57.8798 123.944 57.4637C128.231 51.227 134.204 46.7466 140.247 42.3751C140.269 42.3751 140.288 42.3799 140.312 42.3774C141.664 42.2976 143.019 42.5759 144.294 43.0138C145.593 43.4613 145.279 43.171 146.813 44.1653C147.241 44.4435 148.45 45.97 148.31 45.4789C147.879 43.9863 146.503 43.0863 145.148 42.5033C143.968 41.9928 142.647 41.6591 141.338 41.5865C142.269 40.9139 143.198 40.2438 144.122 39.5664C144.65 39.1794 145.17 38.785 145.685 38.3834C145.809 38.3834 145.934 38.3302 146.019 38.1971C146.048 38.1512 146.077 38.1028 146.106 38.0544C147.146 37.2343 148.165 36.3851 149.169 35.5215C149.256 35.6352 148.446 35.7005 148.622 35.6618C150.678 35.2143 156.816 35.8698 158.812 36.4552C159.303 36.6004 157.859 35.7731 155.904 35.3497C153.944 34.9239 151.994 34.4909 150.013 34.7884C151.414 33.5619 152.79 32.3088 154.162 31.0508C154.244 31.0266 154.322 30.971 154.377 30.8718C154.382 30.8621 154.387 30.8525 154.394 30.8404C154.518 30.7267 154.641 30.6153 154.764 30.5016C155.57 29.7638 156.376 29.0284 157.184 28.2978C160.491 27.439 164.913 27.2672 168.271 27.8599C169.434 28.0655 167.981 27.5236 167.477 27.4414C164.451 26.943 161.376 26.6503 158.388 27.2164C158.93 26.735 159.475 26.2535 160.021 25.7769C161.916 24.1367 163.892 22.6997 166.016 21.3716C167.988 20.1378 169.795 18.6234 171.701 17.2856C174.863 15.0672 174.667 14.7212 171.5 16.9444" fill="#5F6055"/>
<path d="M70.6372 47.3079C70.6372 47.3079 82.5325 55.255 103.093 54.3381C137.044 52.8261 135.864 46.5894 135.864 46.5894L136.701 54.3647C136.701 54.3647 132.757 62.5706 103.628 62.3069C71.4187 62.0142 70.2768 54.4905 70.2768 54.4905L70.6397 47.3079H70.6372Z" fill="#231F20"/>
<path d="M157.997 120.494C164.091 121.568 172.34 118.012 173.247 117.608L238.094 94.5912C238.963 94.2816 239.417 93.3285 239.11 92.4575C238.8 91.589 237.847 91.1342 236.976 91.4414L172.067 114.479C172.023 114.494 171.98 114.513 171.939 114.53C169.205 115.762 161.219 118.57 157.153 116.787C156.047 116.301 155.353 115.537 154.968 114.38C154.024 111.538 155.94 108.652 160.663 105.804C161.454 105.328 161.708 104.302 161.231 103.511C160.755 102.72 159.729 102.466 158.938 102.942C151.163 107.628 150.763 112.322 151.796 115.433C152.481 117.496 153.833 118.982 155.815 119.848C156.497 120.145 157.23 120.356 157.999 120.491" fill="#231F20"/>
</g>
</g>
</g>
</svg>
