<svg width="341" height="326" viewBox="0 0 341 326" fill="none" xmlns="http://www.w3.org/2000/svg">
<mask id="mask0_195_11052" style="mask-type:luminance" maskUnits="userSpaceOnUse" x="0" y="0" width="341" height="341">
<path d="M341 0H0V341H341V0Z" fill="white"/>
</mask>
<g mask="url(#mask0_195_11052)">
<mask id="mask1_195_11052" style="mask-type:luminance" maskUnits="userSpaceOnUse" x="0" y="0" width="341" height="341">
<path d="M341 0H0V341H341V0Z" fill="white"/>
</mask>
<g mask="url(#mask1_195_11052)">
<mask id="mask2_195_11052" style="mask-type:luminance" maskUnits="userSpaceOnUse" x="0" y="0" width="341" height="341">
<path d="M341 0H0V341H341V0Z" fill="white"/>
</mask>
<g mask="url(#mask2_195_11052)">
<g style="mix-blend-mode:multiply">
<mask id="mask3_195_11052" style="mask-type:luminance" maskUnits="userSpaceOnUse" x="107" y="287" width="91" height="18">
<path d="M197.515 287.147H107.295V304.059H197.515V287.147Z" fill="white"/>
</mask>
<g mask="url(#mask3_195_11052)">
<path d="M197.511 295.603C197.511 300.273 177.316 304.059 152.401 304.059C127.486 304.059 107.291 300.273 107.291 295.603C107.291 290.933 127.486 287.147 152.401 287.147C177.316 287.147 197.511 290.933 197.511 295.603Z" fill="#E5E6E7"/>
</g>
</g>
<path d="M162.673 287.517C162.61 287.381 162.55 287.236 162.49 287.087C162.525 287.176 162.56 287.264 162.591 287.346C162.62 287.4 162.645 287.463 162.673 287.517Z" fill="#59595B"/>
<path d="M160.8 281.404C160.772 281.268 160.747 281.123 160.718 280.981C160.74 281.082 160.759 281.18 160.772 281.281C160.784 281.322 160.794 281.363 160.8 281.404Z" fill="#59595B"/>
<path d="M160.645 280.611C160.652 280.659 160.667 280.712 160.674 280.763C160.686 280.839 160.709 280.905 160.721 280.981C160.693 280.864 160.674 280.741 160.652 280.618L160.645 280.611Z" fill="#59595B"/>
<path d="M131.194 263.761C131.194 263.761 146.561 269.908 155.695 266.574" stroke="#144B5F" stroke-width="3.246" stroke-miterlimit="10"/>
<path d="M129.913 264.698C129.913 264.698 130.374 279.307 133.115 288.075C135.852 296.84 144.077 299.654 149.653 293.475C155.229 287.296 155.264 269.876 155.283 266.056C144.62 265.49 129.913 264.698 129.913 264.698Z" fill="#FDCB9B"/>
<path d="M155.354 265.781C155.338 267.994 155.326 274.77 154.161 281.278C154.082 281.742 153.987 282.212 153.892 282.67L153.886 282.676C153.864 282.799 153.842 282.923 153.813 283.039C153.785 283.185 153.757 283.327 153.725 283.462C153.668 283.721 153.602 283.983 153.545 284.242C153.501 284.419 153.46 284.596 153.409 284.776C153.394 284.83 153.381 284.886 153.365 284.946C153.33 285.089 153.292 285.234 153.248 285.376C153.147 285.739 153.046 286.093 152.936 286.449C152.929 286.471 152.92 286.497 152.914 286.519C152.835 286.765 152.753 287.005 152.674 287.242C152.667 287.277 152.651 287.302 152.645 287.33C152.588 287.488 152.538 287.646 152.478 287.794C152.456 287.848 152.443 287.905 152.421 287.952C152.415 287.974 152.405 287.993 152.399 288.015C152.37 288.098 152.333 288.18 152.304 288.262C152.181 288.568 152.064 288.862 151.935 289.149C151.868 289.301 151.805 289.443 151.739 289.578C151.711 289.654 151.676 289.73 151.638 289.803C151.565 289.954 151.493 290.096 151.42 290.238C151.392 290.292 151.363 290.355 151.325 290.409C151.303 290.462 151.275 290.519 151.246 290.567C151.224 290.608 151.212 290.642 151.18 290.677C151.114 290.8 151.051 290.923 150.978 291.04C150.95 291.094 150.921 291.141 150.89 291.192C150.782 291.369 150.672 291.545 150.549 291.719C150.549 291.719 150.555 291.725 150.549 291.725C150.542 291.738 150.533 291.744 150.527 291.76C150.441 291.89 150.353 292.019 150.258 292.142C150.23 292.183 150.208 292.218 150.179 292.253C150.094 292.37 150.006 292.486 149.911 292.6C149.845 292.682 149.781 292.758 149.715 292.834C149.608 292.963 149.491 293.086 149.374 293.209C149.128 293.468 148.869 293.715 148.613 293.939C148.361 294.163 148.099 294.374 147.84 294.573C147.716 294.662 147.593 294.744 147.47 294.826C147.391 294.889 147.303 294.943 147.218 294.996C147.088 295.079 146.959 295.161 146.826 295.236C145.85 295.811 144.827 296.177 143.808 296.376C143.678 296.395 143.555 296.417 143.426 296.436C143.287 296.458 143.151 296.471 143.012 296.484C142.889 296.496 142.772 296.506 142.649 296.512C142.491 296.518 142.339 296.525 142.178 296.525C137.865 296.525 133.691 293.355 131.851 287.804C131.772 287.564 131.693 287.318 131.62 287.075C131.57 286.917 131.525 286.762 131.481 286.604C131.446 286.503 131.415 286.399 131.386 286.298C131.371 286.228 131.348 286.156 131.33 286.08C131.323 286.052 131.314 286.017 131.301 285.985C131.235 285.733 131.165 285.474 131.099 285.205C131.055 285.041 131.014 284.871 130.976 284.706C130.925 284.514 130.881 284.324 130.84 284.132C130.834 284.103 130.824 284.078 130.818 284.043C130.812 284.015 130.802 283.983 130.796 283.949C130.73 283.674 130.673 283.402 130.616 283.121C130.588 282.986 130.559 282.84 130.531 282.705C130.385 282.016 130.25 281.312 130.127 280.602C130.025 280.033 129.931 279.462 129.846 278.894C129.795 278.606 129.751 278.329 129.716 278.041C129.672 277.754 129.631 277.476 129.593 277.195C129.274 274.887 129.044 272.645 128.87 270.7C128.848 270.426 128.826 270.16 128.804 269.901C128.781 269.649 128.759 269.396 128.747 269.15C128.74 269.027 128.725 268.904 128.718 268.781C128.639 267.707 128.583 266.791 128.545 266.075C128.529 265.835 128.523 265.617 128.51 265.427C128.504 265.31 128.504 265.203 128.494 265.099C128.472 264.67 128.466 264.436 128.466 264.436C128.466 264.436 144.054 265.222 155.348 265.787L155.354 265.781Z" stroke="#144B5F" stroke-width="1.875" stroke-linejoin="bevel"/>
<path d="M128.516 265.418C128.532 265.611 128.538 265.829 128.551 266.065C128.535 265.825 128.523 265.608 128.516 265.418Z" stroke="#144B5F" stroke-width="1.875" stroke-linejoin="bevel"/>
<path d="M130.852 284.126C130.896 284.318 130.937 284.508 130.988 284.7C130.981 284.672 130.965 284.637 130.959 284.605C130.915 284.422 130.874 284.23 130.83 284.037C130.836 284.072 130.845 284.097 130.852 284.126Z" stroke="#144B5F" stroke-width="1.875" stroke-linejoin="bevel"/>
<path d="M131.345 286.074C131.367 286.15 131.39 286.226 131.402 286.292C131.386 286.222 131.367 286.162 131.345 286.093C131.339 286.052 131.33 286.017 131.317 285.976C131.333 286.011 131.339 286.046 131.345 286.071V286.074Z" stroke="#144B5F" stroke-width="1.875" stroke-linejoin="bevel"/>
<path d="M150.557 291.716C150.681 291.546 150.788 291.369 150.898 291.189C150.819 291.318 150.74 291.448 150.658 291.577C150.62 291.625 150.592 291.672 150.557 291.722C150.564 291.722 150.557 291.716 150.557 291.716Z" stroke="#144B5F" stroke-width="1.875" stroke-linejoin="bevel"/>
<path d="M151.187 290.677C151.215 290.643 151.231 290.608 151.253 290.567C151.209 290.649 151.168 290.725 151.124 290.807C151.08 290.889 151.039 290.965 150.985 291.04C151.058 290.924 151.124 290.8 151.187 290.677Z" stroke="#144B5F" stroke-width="1.875" stroke-linejoin="bevel"/>
<path d="M151.331 290.412C151.366 290.358 151.397 290.295 151.426 290.242C151.397 290.295 151.369 290.358 151.341 290.412C151.312 290.466 151.284 290.513 151.252 290.57C151.281 290.523 151.309 290.469 151.331 290.412Z" stroke="#144B5F" stroke-width="1.875" stroke-linejoin="bevel"/>
<path d="M152.311 288.258C152.339 288.176 152.377 288.094 152.406 288.012C152.377 288.088 152.349 288.154 152.327 288.23C152.32 288.243 152.32 288.252 152.311 288.258Z" stroke="#144B5F" stroke-width="1.875" stroke-linejoin="bevel"/>
<path d="M153.887 282.68L153.893 282.673C153.887 282.721 153.871 282.774 153.865 282.825C153.83 282.995 153.792 283.172 153.758 283.343C153.742 283.384 153.735 283.425 153.729 283.466C153.758 283.33 153.786 283.185 153.814 283.043C153.843 282.926 153.865 282.803 153.887 282.68Z" stroke="#144B5F" stroke-width="1.875" stroke-linejoin="bevel"/>
<path d="M130.852 284.126C130.897 284.319 130.938 284.508 130.988 284.701C130.982 284.672 130.966 284.637 130.96 284.606C130.925 284.448 130.887 284.29 130.852 284.129V284.126Z" stroke="#144B5F" stroke-width="1.875" stroke-linejoin="bevel"/>
<path d="M131.346 286.074C131.368 286.15 131.39 286.226 131.403 286.292C131.387 286.222 131.368 286.163 131.346 286.093V286.071V286.074Z" stroke="#144B5F" stroke-width="1.875" stroke-linejoin="bevel"/>
<path d="M150.557 291.716C150.681 291.546 150.788 291.369 150.898 291.189C150.819 291.318 150.74 291.448 150.658 291.577C150.62 291.625 150.592 291.666 150.557 291.713V291.716Z" stroke="#144B5F" stroke-width="1.875" stroke-linejoin="bevel"/>
<path d="M150.984 291.041C151.057 290.924 151.123 290.801 151.186 290.677C151.17 290.719 151.142 290.766 151.12 290.807C151.076 290.889 151.031 290.965 150.981 291.041H150.984Z" stroke="#144B5F" stroke-width="1.875" stroke-linejoin="bevel"/>
<path d="M151.331 290.412C151.366 290.358 151.397 290.295 151.426 290.242C151.397 290.295 151.369 290.358 151.341 290.412H151.334H151.331Z" stroke="#144B5F" stroke-width="1.875" stroke-linejoin="bevel"/>
<path d="M151.746 289.579C151.812 289.443 151.875 289.298 151.942 289.149C151.907 289.238 151.869 289.326 151.834 289.408C151.768 289.544 151.711 289.674 151.645 289.806C151.683 289.73 151.717 289.655 151.746 289.582V289.579Z" stroke="#144B5F" stroke-width="1.875" stroke-linejoin="bevel"/>
<path d="M152.311 288.258C152.339 288.176 152.377 288.094 152.406 288.012C152.377 288.088 152.349 288.154 152.327 288.23C152.32 288.243 152.32 288.252 152.311 288.258Z" stroke="#144B5F" stroke-width="1.875" stroke-linejoin="bevel"/>
<path d="M151.173 289.579C151.236 289.443 151.296 289.298 151.356 289.149C151.322 289.238 151.287 289.326 151.255 289.408C151.227 289.462 151.202 289.525 151.173 289.579Z" fill="#59595B"/>
<path d="M153.045 283.466C153.074 283.33 153.099 283.185 153.128 283.043C153.105 283.144 153.087 283.242 153.074 283.343C153.061 283.384 153.052 283.425 153.045 283.466Z" fill="#59595B"/>
<path d="M153.204 282.673C153.198 282.721 153.182 282.774 153.175 282.825C153.163 282.901 153.141 282.967 153.128 283.043C153.156 282.926 153.175 282.803 153.198 282.68L153.204 282.673Z" fill="#59595B"/>
<path d="M148.97 292.224C151.085 289.882 152.402 285.922 153.223 281.698C145.093 291.249 135.532 285.357 131.178 281.723C131.532 283.529 131.945 285.269 132.428 286.822C135.166 295.59 143.391 298.4 148.967 292.221" fill="#424142"/>
<path d="M140.631 292.66C137.752 291.031 136.059 287.043 135.251 284.558C133.644 283.652 132.255 282.619 131.178 281.723C131.532 283.532 131.945 285.269 132.428 286.822C135.052 295.221 142.709 298.154 148.25 292.957C145.92 293.588 142.914 293.951 140.631 292.66Z" fill="#424142"/>
<path d="M130.78 280.596C130.78 280.596 140.932 294.703 153.476 281.751" stroke="#144B5F" stroke-width="1.875" stroke-linecap="round" stroke-linejoin="round"/>
<path d="M188.41 275.695C188.41 275.695 175.512 282.575 166.548 284.571C157.584 286.566 151.045 280.836 153.625 272.923C156.204 265.011 171.287 256.299 174.59 254.38C180.393 263.34 188.41 275.695 188.41 275.695Z" fill="#FDCB9B"/>
<path d="M174.86 252.694C172.95 253.808 167.081 257.199 162.019 261.452C161.656 261.752 161.296 262.068 160.946 262.377V262.387C160.848 262.466 160.753 262.548 160.665 262.63C160.554 262.728 160.444 262.823 160.34 262.917C160.144 263.097 159.951 263.284 159.755 263.464C159.623 263.59 159.49 263.716 159.361 263.849C159.32 263.89 159.282 263.928 159.234 263.972C159.127 264.076 159.023 264.177 158.919 264.288C158.657 264.556 158.398 264.821 158.145 265.093C158.129 265.109 158.11 265.131 158.098 265.147C157.924 265.339 157.757 265.525 157.589 265.715C157.564 265.737 157.548 265.765 157.526 265.784C157.419 265.914 157.308 266.034 157.207 266.16C157.169 266.207 157.132 266.245 157.1 266.29C157.084 266.305 157.072 266.321 157.056 266.34C156.999 266.406 156.945 266.479 156.888 266.545C156.683 266.804 156.488 267.05 156.304 267.306C156.206 267.439 156.115 267.565 156.03 267.691C155.979 267.755 155.932 267.821 155.884 267.89C155.79 268.029 155.701 268.162 155.613 268.298C155.581 268.351 155.54 268.405 155.512 268.465C155.474 268.512 155.442 268.563 155.414 268.613C155.389 268.651 155.367 268.683 155.351 268.724C155.275 268.841 155.202 268.958 155.136 269.081C155.105 269.134 155.076 269.182 155.051 269.232C154.95 269.415 154.852 269.598 154.764 269.788C154.764 269.788 154.754 269.788 154.757 269.788C154.748 269.801 154.748 269.81 154.738 269.823C154.669 269.962 154.599 270.104 154.539 270.246C154.517 270.29 154.498 270.328 154.486 270.369C154.429 270.501 154.372 270.634 154.318 270.776C154.28 270.874 154.246 270.969 154.214 271.06C154.157 271.218 154.107 271.379 154.059 271.543C153.958 271.884 153.873 272.235 153.804 272.566C153.734 272.898 153.681 273.229 153.64 273.555C153.624 273.706 153.614 273.855 153.605 274C153.592 274.101 153.586 274.202 153.583 274.306C153.576 274.461 153.57 274.612 153.57 274.764C153.561 275.897 153.75 276.965 154.085 277.95C154.132 278.073 154.176 278.19 154.224 278.313C154.274 278.442 154.331 278.569 154.388 278.695C154.438 278.809 154.489 278.913 154.546 279.023C154.618 279.165 154.688 279.301 154.767 279.437C156.917 283.175 161.745 285.218 167.475 284.044C167.722 283.993 167.974 283.939 168.224 283.879C168.385 283.845 168.542 283.804 168.7 283.763C168.808 283.744 168.912 283.715 169.013 283.69C169.079 283.668 169.155 283.649 169.231 283.63C169.259 283.624 169.291 283.611 169.329 283.608C169.581 283.538 169.84 283.472 170.105 283.396C170.27 283.352 170.44 283.305 170.598 283.254C170.791 283.204 170.977 283.144 171.163 283.087C171.192 283.081 171.217 283.071 171.251 283.062C171.28 283.055 171.311 283.043 171.346 283.033C171.615 282.954 171.88 282.866 172.151 282.778C172.284 282.733 172.423 282.689 172.556 282.645C173.225 282.427 173.904 282.197 174.583 281.947C175.126 281.751 175.669 281.549 176.202 281.341C176.477 281.243 176.742 281.139 177.008 281.028C177.279 280.924 177.541 280.82 177.803 280.713C179.963 279.838 182.021 278.922 183.796 278.101C184.042 277.985 184.285 277.871 184.522 277.76C184.753 277.653 184.983 277.546 185.201 277.435C185.311 277.378 185.425 277.331 185.536 277.277C186.505 276.813 187.326 276.406 187.967 276.081C188.182 275.973 188.374 275.872 188.548 275.787C188.652 275.736 188.747 275.68 188.838 275.635C189.224 275.44 189.429 275.329 189.429 275.329C189.429 275.329 180.98 262.207 174.857 252.697L174.86 252.694Z" stroke="#144B5F" stroke-width="1.875" stroke-linejoin="bevel"/>
<path d="M188.548 275.784C188.375 275.866 188.182 275.971 187.967 276.078C188.182 275.971 188.378 275.876 188.548 275.784Z" stroke="#144B5F" stroke-width="1.875" stroke-linejoin="bevel"/>
<path d="M171.164 283.081C170.978 283.138 170.788 283.198 170.599 283.248C170.627 283.242 170.662 283.235 170.697 283.226C170.88 283.172 171.066 283.115 171.252 283.055C171.217 283.065 171.192 283.074 171.164 283.081Z" stroke="#144B5F" stroke-width="1.875" stroke-linejoin="bevel"/>
<path d="M169.23 283.624C169.155 283.643 169.079 283.662 169.013 283.684C169.079 283.662 169.142 283.649 169.215 283.636C169.253 283.624 169.287 283.611 169.328 283.605C169.29 283.608 169.259 283.621 169.23 283.627V283.624Z" stroke="#144B5F" stroke-width="1.875" stroke-linejoin="bevel"/>
<path d="M154.764 269.778C154.849 269.586 154.95 269.403 155.051 269.223C154.978 269.355 154.906 269.491 154.833 269.624C154.811 269.68 154.783 269.728 154.761 269.785C154.757 269.778 154.767 269.782 154.767 269.782L154.764 269.778Z" stroke="#144B5F" stroke-width="1.875" stroke-linejoin="bevel"/>
<path d="M155.351 268.715C155.367 268.674 155.389 268.642 155.414 268.604C155.363 268.683 155.322 268.759 155.272 268.835C155.221 268.914 155.18 268.989 155.139 269.072C155.202 268.952 155.278 268.832 155.351 268.715Z" stroke="#144B5F" stroke-width="1.875" stroke-linejoin="bevel"/>
<path d="M155.511 268.459C155.54 268.402 155.581 268.345 155.613 268.292C155.581 268.345 155.54 268.399 155.508 268.453C155.474 268.506 155.448 268.554 155.414 268.607C155.442 268.56 155.474 268.506 155.511 268.459Z" stroke="#144B5F" stroke-width="1.875" stroke-linejoin="bevel"/>
<path d="M156.889 266.539C156.945 266.473 156.999 266.4 157.056 266.334C157.005 266.397 156.961 266.457 156.904 266.511C156.895 266.523 156.889 266.526 156.889 266.536V266.539Z" stroke="#144B5F" stroke-width="1.875" stroke-linejoin="bevel"/>
<path d="M160.94 262.39V262.381C160.905 262.412 160.864 262.45 160.827 262.482C160.697 262.598 160.561 262.718 160.429 262.835C160.4 262.867 160.369 262.895 160.337 262.921C160.441 262.829 160.552 262.731 160.659 262.633C160.744 262.551 160.842 262.469 160.937 262.39H160.94Z" stroke="#144B5F" stroke-width="1.875" stroke-linejoin="bevel"/>
<path d="M171.164 283.081C170.978 283.138 170.788 283.198 170.599 283.248C170.627 283.242 170.662 283.235 170.697 283.226C170.851 283.179 171.006 283.131 171.164 283.081Z" stroke="#144B5F" stroke-width="1.875" stroke-linejoin="bevel"/>
<path d="M169.23 283.624C169.155 283.643 169.079 283.662 169.013 283.684C169.079 283.662 169.142 283.649 169.215 283.637L169.234 283.627L169.23 283.624Z" stroke="#144B5F" stroke-width="1.875" stroke-linejoin="bevel"/>
<path d="M154.763 269.778C154.848 269.586 154.949 269.403 155.05 269.223C154.978 269.355 154.905 269.491 154.833 269.624C154.81 269.68 154.788 269.725 154.766 269.778H154.763Z" stroke="#144B5F" stroke-width="1.875" stroke-linejoin="bevel"/>
<path d="M155.139 269.071C155.202 268.951 155.278 268.831 155.351 268.714C155.322 268.749 155.294 268.797 155.272 268.834C155.221 268.913 155.18 268.989 155.139 269.068V269.071Z" stroke="#144B5F" stroke-width="1.875" stroke-linejoin="bevel"/>
<path d="M155.512 268.46C155.54 268.403 155.582 268.345 155.613 268.292C155.582 268.345 155.54 268.399 155.508 268.453V268.46H155.512Z" stroke="#144B5F" stroke-width="1.875" stroke-linejoin="bevel"/>
<path d="M156.027 267.685C156.113 267.559 156.204 267.432 156.302 267.3C156.242 267.376 156.185 267.451 156.132 267.524C156.046 267.647 155.961 267.764 155.882 267.884C155.93 267.814 155.977 267.745 156.027 267.685Z" stroke="#144B5F" stroke-width="1.875" stroke-linejoin="bevel"/>
<path d="M156.889 266.539C156.945 266.473 156.999 266.4 157.056 266.334C157.005 266.397 156.961 266.457 156.904 266.511C156.895 266.523 156.889 266.526 156.889 266.536V266.539Z" stroke="#144B5F" stroke-width="1.875" stroke-linejoin="bevel"/>
<path d="M155.118 271.408C156.097 268.405 158.872 265.292 162.124 262.476C157.897 274.284 167.767 279.636 173.087 281.6C171.344 282.197 169.63 282.702 168.041 283.056C159.077 285.051 152.538 279.32 155.118 271.408Z" fill="#424142"/>
<path d="M158.894 278.856C161.742 280.542 166.043 280.021 168.6 279.484C170.185 280.425 171.776 281.117 173.087 281.603C171.344 282.2 169.629 282.705 168.041 283.059C159.453 284.969 153.094 279.794 154.84 272.399C155.456 274.732 156.64 277.52 158.894 278.856Z" fill="#424142"/>
<path d="M174.261 281.385C174.261 281.385 156.971 279.614 161.947 262.286" stroke="#144B5F" stroke-width="1.875" stroke-linecap="round" stroke-linejoin="round"/>
<path d="M190.23 277.378C187.723 277.422 169.328 272.98 167.371 256.438L170.733 254.38L163.819 249.868L160.942 259.87C160.942 259.87 159.733 265.503 157.046 266.788C151.814 269.286 127.458 268.837 125.86 264.761C122.289 255.655 130.628 223.803 130.628 223.803C130.628 223.803 168.514 236.572 184.844 223.803C184.844 223.803 186.063 226.74 187.967 228.224C193.909 232.852 206.519 241.864 209.636 254.989C211.275 261.894 193.631 277.318 190.23 277.381" fill="#231F20"/>
<path d="M190.23 277.378C187.723 277.422 169.328 272.98 167.371 256.438L170.733 254.38L163.819 249.868L160.942 259.87C160.942 259.87 159.733 265.503 157.046 266.788C151.814 269.286 127.458 268.837 125.86 264.761C122.289 255.655 130.628 223.803 130.628 223.803C130.628 223.803 168.514 236.572 184.844 223.803C184.844 223.803 186.063 226.74 187.967 228.224C193.909 232.852 206.519 241.864 209.636 254.989C211.275 261.894 193.631 277.318 190.23 277.381V277.378Z" stroke="#144B5F" stroke-width="1.875" stroke-miterlimit="10"/>
<path d="M169.828 253.802C170.605 253.42 171.321 253.155 172.085 252.902C172.84 252.659 173.607 252.46 174.381 252.312C175.151 252.157 175.934 252.072 176.711 252.037C177.488 251.996 178.264 252.056 179.022 252.154C178.258 252.223 177.51 252.324 176.784 252.526C176.057 252.722 175.35 252.956 174.668 253.256C173.986 253.549 173.323 253.884 172.688 254.254C172.063 254.62 171.419 255.043 170.901 255.46L169.831 253.802H169.828Z" fill="#144B5F"/>
<path d="M186.724 224.29C161.25 235.502 135.643 225.815 129.148 222.973C129.764 219.992 130.55 216.961 131.557 213.93C140.101 188.058 142.068 181.021 142.068 181.021C142.068 181.021 159.276 182.735 176.86 184.093C183.314 191.778 184.536 200.129 185.757 217.236C186.127 219.601 186.452 221.96 186.727 224.29" fill="white"/>
<path d="M186.724 224.29C161.25 235.502 135.643 225.815 129.148 222.973C129.764 219.992 130.55 216.961 131.557 213.93C140.101 188.058 142.068 181.021 142.068 181.021C142.068 181.021 159.276 182.735 176.86 184.093C183.314 191.778 184.536 200.129 185.757 217.236C186.127 219.601 186.452 221.96 186.727 224.29H186.724Z" stroke="#144B5F" stroke-width="1.983" stroke-miterlimit="10"/>
<path d="M181.047 191.658C181.047 191.658 181.047 191.658 181.044 191.658C181.044 191.686 181.044 191.715 181.044 191.746C181.066 192.504 181.192 193.139 181.473 193.672C181.558 193.833 181.662 193.982 181.776 194.124C182.799 195.399 185.063 195.977 189.578 196.268C189.578 196.268 195.025 196.4 201.548 197.3C202.315 197.408 203.098 197.524 203.887 197.651C204.677 197.78 205.476 197.919 206.274 198.071C206.675 198.146 207.073 198.225 207.471 198.311C208.087 198.437 208.696 198.576 209.302 198.721C209.877 198.857 210.449 198.999 211.014 199.15C211.787 199.359 212.545 199.58 213.284 199.82C215.131 200.417 216.845 201.111 218.32 201.919C224.221 205.159 228.051 206.798 231.13 206.352C232.977 206.084 234.555 205.067 236.144 203.195C236.333 202.971 236.503 202.734 236.661 202.494C236.696 202.444 236.728 202.393 236.759 202.343C236.908 202.106 237.04 201.859 237.157 201.607C237.176 201.563 237.195 201.518 237.214 201.474C237.318 201.237 237.406 200.997 237.485 200.751C237.498 200.71 237.514 200.672 237.523 200.631C237.602 200.363 237.662 200.088 237.706 199.807C237.716 199.747 237.725 199.684 237.735 199.624C237.776 199.337 237.804 199.049 237.811 198.753C237.811 198.737 237.811 198.721 237.811 198.705C237.814 198.421 237.293 195.649 237.283 195.62C237.283 195.62 235.689 187.256 223.028 182.896C208.854 178.015 199.117 180.209 191.1 183.357C183.162 186.477 180.996 188.671 181.044 191.658" fill="#FDCB9B"/>
<path d="M181.044 191.658C181.047 191.658 181.047 191.658 181.047 191.658H181.044ZM181.044 191.658C181.044 191.686 181.044 191.715 181.044 191.746C181.066 192.504 181.192 193.139 181.473 193.672C181.558 193.833 181.662 193.982 181.776 194.124C182.799 195.399 185.063 195.977 189.578 196.268C189.578 196.268 195.025 196.4 201.548 197.3C202.315 197.408 203.098 197.524 203.887 197.651C204.677 197.78 205.476 197.919 206.274 198.071C206.675 198.146 207.073 198.225 207.471 198.311C208.087 198.437 208.696 198.576 209.302 198.721C209.877 198.857 210.449 198.999 211.014 199.15C211.787 199.359 212.545 199.58 213.284 199.82C215.131 200.417 216.845 201.111 218.32 201.919C224.221 205.159 228.051 206.798 231.13 206.352C232.977 206.084 234.555 205.067 236.144 203.195C236.333 202.971 236.503 202.734 236.661 202.494C236.696 202.444 236.728 202.393 236.759 202.343C236.908 202.106 237.04 201.859 237.157 201.607C237.176 201.563 237.195 201.518 237.214 201.474C237.318 201.237 237.406 200.997 237.485 200.751C237.498 200.71 237.514 200.672 237.523 200.631C237.602 200.363 237.662 200.088 237.706 199.807C237.716 199.747 237.725 199.684 237.735 199.624C237.776 199.337 237.804 199.049 237.811 198.753C237.811 198.737 237.811 198.721 237.811 198.705C237.814 198.421 237.293 195.649 237.283 195.62C237.283 195.62 235.689 187.256 223.028 182.896C208.854 178.015 199.117 180.209 191.1 183.357C183.162 186.477 180.996 188.671 181.044 191.658Z" stroke="#144B5F" stroke-width="3.309" stroke-miterlimit="10"/>
<path d="M214.667 178.227C214.667 178.227 219.81 190.105 211.02 199.148C211.02 199.148 182.486 205.601 179.256 193.227C175.341 178.227 214.67 178.227 214.67 178.227" fill="white"/>
<path d="M214.667 178.227C214.667 178.227 219.81 190.105 211.02 199.148C211.02 199.148 182.486 205.601 179.256 193.227C175.341 178.227 214.67 178.227 214.67 178.227H214.667Z" stroke="#144B5F" stroke-width="1.983" stroke-miterlimit="10"/>
<path d="M223.389 142.974C220.686 137.126 214.867 141.348 214.867 141.348C215.139 129.981 212.338 119.265 209.935 113.651C202.932 97.2924 186.782 88.6979 169.031 86.3235C150.327 83.8229 130.909 88.9347 119.169 103.696C111.254 113.648 107.377 143.649 107.377 143.649C107.377 143.649 101.384 139.684 98.9336 145.642C96.4835 151.6 99.0157 159.395 103.509 161.173C108.002 162.951 111.481 161.003 111.481 161.003C111.481 161.003 120.732 176.941 133.914 183.528C151.833 192.482 176.678 191.323 193.368 180.806C200.883 176.07 206.592 169.177 210.406 161.347C210.81 160.516 211.508 158.859 211.508 158.859C211.508 158.859 215.069 160.655 219.48 158.688C223.891 156.721 226.089 148.824 223.386 142.977" fill="#FDCB9B"/>
<path d="M223.389 142.974C220.686 137.126 214.867 141.348 214.867 141.348C215.139 129.981 212.338 119.265 209.935 113.651C202.932 97.2924 186.782 88.6979 169.031 86.3235C150.327 83.8229 130.909 88.9347 119.169 103.696C111.254 113.648 107.377 143.649 107.377 143.649C107.377 143.649 101.384 139.684 98.9336 145.642C96.4835 151.6 99.0157 159.395 103.509 161.173C108.002 162.951 111.481 161.003 111.481 161.003C111.481 161.003 120.732 176.941 133.914 183.528C151.833 192.482 176.678 191.323 193.368 180.806C200.883 176.07 206.592 169.177 210.406 161.347C210.81 160.516 211.508 158.859 211.508 158.859C211.508 158.859 215.069 160.655 219.48 158.688C223.891 156.721 226.089 148.824 223.386 142.977L223.389 142.974Z" stroke="#144B5F" stroke-width="3.132" stroke-miterlimit="10"/>
<path d="M190.073 129.921C188.721 129.258 187.521 128.712 186.344 128.342C185.172 127.973 184.064 127.793 182.962 127.828C181.86 127.853 180.733 128.077 179.536 128.465C178.33 128.835 177.099 129.381 175.665 129.877C176.218 128.459 177.181 127.281 178.419 126.359C179.65 125.441 181.235 124.825 182.899 124.796C184.563 124.746 186.208 125.314 187.468 126.246C188.099 126.713 188.649 127.266 189.094 127.881C189.536 128.5 189.902 129.173 190.076 129.921" fill="#144B5F"/>
<path d="M159.387 150.062C159.387 150.062 161.306 152.481 159.453 154.495C157.599 156.513 162.263 156.857 162.263 156.857" stroke="#144B5F" stroke-width="1.377" stroke-linecap="round" stroke-linejoin="round"/>
<path d="M149.747 130.736C148.396 130.073 147.196 129.526 146.021 129.157C144.85 128.788 143.742 128.608 142.637 128.642C141.535 128.668 140.407 128.892 139.211 129.28C138.005 129.65 136.773 130.196 135.34 130.691C135.892 129.274 136.855 128.096 138.09 127.174C139.321 126.255 140.906 125.64 142.57 125.611C144.234 125.561 145.882 126.129 147.139 127.06C147.77 127.528 148.32 128.08 148.765 128.696C149.207 129.315 149.573 129.987 149.747 130.736Z" fill="#144B5F"/>
<path d="M153.472 169.067C165.196 189.183 173.373 168.641 173.373 168.641L153.472 169.067Z" fill="#144B5F"/>
<path d="M153.472 169.067C165.196 189.183 173.373 168.641 173.373 168.641L153.472 169.067Z" stroke="#144B5F" stroke-width="2.295" stroke-linecap="round" stroke-linejoin="round"/>
<path d="M157.735 176.171C157.735 176.171 165.758 183.07 169.464 174.92C169.464 174.92 164.28 169.54 157.735 176.171Z" fill="#F05C86"/>
<path d="M141.303 135.901C144.287 135.806 148.749 137.95 150.169 143.34C151.9 149.895 148.878 156.396 141.878 156.279C134.367 156.156 131.553 150.593 132.21 145.339C132.914 139.709 136.071 136.072 141.303 135.901Z" fill="white"/>
<path d="M150.322 144.502C148.778 139.219 143.881 136.068 139.631 137.278C137.91 137.767 136.076 139.027 134.977 140.786C133.749 142.753 133.638 145.266 132.489 147.224C132.306 147.533 131.813 147.732 131.627 147.306C130.43 144.571 132.075 140.921 133.581 138.882C135.15 136.757 137.547 135.298 139.823 134.9C142.147 134.493 144.752 135.077 146.789 136.627C149.239 138.493 149.997 140.994 150.511 144.407C150.54 144.6 150.385 144.723 150.322 144.502Z" fill="#144B5F"/>
<path d="M149.782 147.549C149.649 142.847 146.53 139.122 142.81 139.226C139.091 139.33 136.186 143.226 136.318 147.928C136.451 152.629 139.571 156.355 143.29 156.251C147.006 156.146 149.914 152.25 149.782 147.549Z" fill="#144B5F"/>
<path d="M149.368 148.73C149.327 147.227 148.326 146.037 147.139 146.068C145.948 146.103 145.02 147.347 145.064 148.85C145.105 150.353 146.103 151.543 147.293 151.508C148.484 151.474 149.412 150.23 149.368 148.727" fill="white"/>
<path d="M181.564 134.354C178.602 134.746 174.554 137.594 174.03 143.141C173.392 149.892 177.437 155.809 184.323 154.552C191.715 153.204 193.581 147.259 192.075 142.181C190.461 136.744 186.755 133.666 181.564 134.354Z" fill="white"/>
<path d="M174.068 144.309C174.728 138.847 179.048 134.938 183.436 135.437C185.214 135.639 187.228 136.583 188.599 138.14C190.13 139.879 190.651 142.339 192.103 144.085C192.334 144.36 192.852 144.477 192.969 144.025C193.704 141.133 191.485 137.799 189.666 136.034C187.771 134.196 185.17 133.148 182.855 133.126C180.497 133.104 178.021 134.105 176.266 135.967C174.154 138.206 173.813 140.801 173.863 144.252C173.863 144.448 174.037 144.543 174.065 144.316" fill="#144B5F"/>
<path d="M175.105 147.044C174.467 142.383 176.939 138.2 180.624 137.695C184.309 137.189 187.813 140.562 188.451 145.219C189.089 149.879 186.617 154.063 182.932 154.568C179.247 155.073 175.743 151.704 175.108 147.044" fill="#144B5F"/>
<path d="M175.742 147.527C175.537 146.037 176.329 144.698 177.507 144.537C178.685 144.376 179.806 145.453 180.008 146.943C180.21 148.433 179.42 149.769 178.243 149.93C177.065 150.091 175.944 149.014 175.742 147.527Z" fill="white"/>
<path d="M223.498 105.376C222.273 103.961 220.773 102.929 219.611 101.435C218.228 99.6608 217.136 97.6022 216.005 95.6477C213.631 91.5431 210.745 87.7384 207.445 84.4294C205.103 82.0835 202.583 79.8765 199.381 78.9767C199.078 78.8914 197.023 78.6483 195.201 78.7335C195.157 78.7083 195.116 78.683 195.072 78.6578C194.835 78.241 194.573 77.821 194.285 77.3853C192.167 74.1742 188.233 72.8544 184.835 71.8472C175.407 69.0466 165.493 68.1183 155.724 68.273C149.728 68.3677 144.045 69.4223 138.434 71.061C134.004 72.6113 129.71 74.5752 125.656 77.1327C121.703 79.6271 117.693 82.3835 113.437 84.2558C111.17 85.2536 108.091 86.2924 105.502 85.7556C105.493 85.8724 105.512 85.9892 105.603 86.0934C106.996 87.71 109.361 87.7858 111.517 87.2491C107.823 90.7696 104.928 95.5152 103.481 100.28C103.481 100.861 103.481 101.909 103.447 102.654C103.873 102.692 104.495 102.373 104.782 102.045C105.335 101.413 105.891 100.813 106.462 100.248C106.137 100.728 105.818 101.217 105.512 101.732C104.744 103.023 103.56 104.713 102.957 106.421C102.957 107.314 102.926 108.208 102.907 109.101C103.216 109.13 103.661 108.903 103.804 108.773C104.217 108.394 104.609 108.006 104.997 107.617C103.153 110.172 102.484 113.017 102.399 116.029C102.083 127.168 114.365 154.47 114.365 154.47L118.997 136.031C118.997 135.573 119 135.115 119.006 134.658C119.969 132.1 120.781 129.454 121.715 127.017C122.871 123.998 123.743 120.91 124.586 117.81C128.119 118.921 131.908 119.451 135.15 119.856C143.154 120.853 151.373 121.295 159.431 120.721C169.566 119.998 181.646 116.528 189.77 109.016C190.017 109.218 192.094 119.982 193.114 123.562C194.611 128.813 196.723 134.465 199.407 139.529C199.621 146.498 209.179 161.357 209.179 161.36C209.106 160.656 208.939 160.501 209.353 160.018C217.24 150.808 220.119 135.276 221.19 128.081C221.676 124.822 220.953 120.992 220.65 117.604C220.429 115.132 219.526 113.235 218.398 111.387C218.926 111.814 219.453 112.246 220.031 112.631C220.498 112.947 221.177 112.189 221.24 111.75C221.527 109.783 220.536 107.864 219.402 106.175C220.473 106.5 221.578 106.689 222.648 106.576C223.011 106.538 223.896 105.834 223.501 105.379" fill="#623A16"/>
<g style="mix-blend-mode:multiply" opacity="0.5">
<mask id="mask4_195_11052" style="mask-type:luminance" maskUnits="userSpaceOnUse" x="102" y="93" width="113" height="69">
<path d="M214.969 93.2607H102.395V161.357H214.969V93.2607Z" fill="white"/>
</mask>
<g mask="url(#mask4_195_11052)">
<path d="M213.945 151.041C213.652 151.36 206.623 146.687 206.709 146.334C207.027 144.982 207.226 143.615 207.384 142.242C206.352 144.392 205.114 146.438 203.583 148.316C203.4 148.541 202.917 148.566 202.894 148.174C202.572 142.684 201.237 137.793 198.951 132.87C196.816 128.276 194.657 123.676 193.403 118.7C191.862 112.587 191 106.086 191.401 99.7049C190.716 101.192 189.921 102.616 188.983 103.945C184.405 110.459 177.067 113.62 169.83 115.555C165.094 116.821 160.273 117.393 155.42 117.844C150.819 118.274 146.184 118.583 141.571 118.349C136.084 118.075 130.075 117.44 124.701 115.467C119.971 122.599 117.12 130.66 114.929 139.094C114.838 139.447 114.373 139.428 114.228 139.141C111.686 134.136 110.281 127.089 111.56 121.134C110.221 123.9 109.258 126.811 108.693 129.95C108.63 130.294 108.119 130.524 107.97 130.104C105.927 124.194 106.331 116.787 110.019 111.649C108.1 112.963 106.357 114.753 105.861 117.083C105.741 117.592 105.037 117.317 105.144 116.821C105.886 113.673 106.827 110.475 108.57 107.756C109.161 106.834 109.814 105.985 110.518 105.186C108.687 105.884 106.878 106.661 104.996 107.216C104.686 107.308 104.5 106.964 104.563 106.689C105.324 103.323 107.001 100.172 109.243 97.5927C107.992 98.202 106.774 98.8871 105.602 99.6797C105.283 99.8975 105.012 99.487 105.075 99.1871C105.485 97.2295 105.962 95.1804 106.682 93.2512C105.305 95.4835 104.21 97.8737 103.484 100.27C103.484 100.848 103.483 101.899 103.449 102.645C103.875 102.682 104.497 102.36 104.784 102.035C105.337 101.404 105.893 100.804 106.464 100.239C106.139 100.718 105.82 101.208 105.514 101.722C104.746 103.014 103.562 104.703 102.959 106.411C102.959 107.305 102.928 108.198 102.909 109.092C103.218 109.12 103.663 108.893 103.806 108.764C104.219 108.388 104.614 107.996 104.999 107.608C103.155 110.162 102.486 113.007 102.401 116.019C102.085 127.159 114.367 154.461 114.367 154.461L118.999 136.021C118.999 135.564 119.002 135.106 119.008 134.648C119.971 132.09 120.783 129.445 121.718 127.01C122.873 123.992 123.745 120.904 124.588 117.803C128.121 118.915 131.91 119.445 135.152 119.849C143.156 120.847 151.375 121.289 159.433 120.714C169.568 119.991 181.648 116.521 189.772 109.01C190.019 109.212 192.096 119.976 193.116 123.553C194.613 128.804 196.725 134.459 199.409 139.52C199.623 146.488 209.181 161.347 209.181 161.35C209.108 160.646 208.947 160.495 209.355 160.008C215.726 152.415 212.537 141.777 214.795 136.684C212.657 140.331 216.759 147.998 213.949 151.035" fill="#604023"/>
</g>
</g>
<path d="M223.336 105.701C223.526 105.473 223.623 105.211 223.44 105C222.215 103.585 220.716 102.553 219.554 101.059C218.676 99.9321 217.918 98.6881 217.189 97.4314C216.769 96.7116 216.358 95.9853 215.948 95.2749C213.573 91.1703 210.688 87.3624 207.385 84.0566C205.042 81.7107 202.523 79.5037 199.321 78.6038C199.018 78.5185 196.962 78.2754 195.141 78.3607C195.096 78.3354 195.055 78.3101 195.011 78.2849C194.774 77.8681 194.512 77.4482 194.225 77.0124C192.106 73.8014 188.172 72.4816 184.775 71.4744C175.347 68.6738 165.432 67.7455 155.663 67.9002C153.207 67.9381 150.807 68.1464 148.442 68.4811H148.446C148.436 68.4811 148.424 68.4843 148.414 68.4874C147.609 68.6011 146.807 68.7337 146.011 68.8758C145.926 68.8916 145.838 68.9074 145.752 68.9232C145.039 69.0558 144.325 69.201 143.615 69.3557C143.476 69.3873 143.337 69.4157 143.198 69.4473C142.538 69.5957 141.878 69.7536 141.218 69.9209C141.057 69.962 140.899 69.9999 140.738 70.0409C139.949 70.2462 139.16 70.4608 138.374 70.6913C133.944 72.2416 129.65 74.2056 125.595 76.7631C121.642 79.2574 117.633 82.0138 113.373 83.8861C111.106 84.8839 108.031 85.9227 105.439 85.3859C105.429 85.5027 105.448 85.6196 105.54 85.7238C106.932 87.3404 109.297 87.4161 111.453 86.8793C109.575 88.6696 107.908 90.7787 106.528 93.0426C106.222 93.5478 105.928 94.0562 105.65 94.5771C105.625 94.6213 105.603 94.6687 105.577 94.7129C105.293 95.2465 105.028 95.7896 104.779 96.3327C104.766 96.3611 104.753 96.3864 104.744 96.4148C104.488 96.9768 104.251 97.5451 104.034 98.1166C104.03 98.1261 104.027 98.1387 104.021 98.1482C103.8 98.7323 103.598 99.3195 103.421 99.9068C103.418 100.485 103.421 101.536 103.386 102.281C103.813 102.319 104.435 101.997 104.722 101.672C105.274 101.04 105.83 100.44 106.402 99.8753C106.076 100.355 105.757 100.845 105.451 101.362C104.684 102.651 103.5 104.343 102.897 106.051C102.897 106.945 102.865 107.838 102.846 108.732C103.156 108.76 103.601 108.533 103.743 108.403C104.157 108.028 104.551 107.636 104.937 107.248C103.093 109.802 102.423 112.647 102.338 115.659C102.022 126.802 114.305 154.101 114.305 154.101C114.305 154.101 120.724 129.081 121.655 126.647C122.811 123.628 123.682 120.54 124.525 117.44C128.058 118.551 131.847 119.082 135.09 119.486C143.094 120.484 151.313 120.926 159.37 120.351C169.506 119.628 181.586 116.158 189.71 108.647C189.956 108.849 192.034 119.612 193.053 123.193C194.55 128.443 196.662 134.098 199.346 139.16C202.892 148.18 209.178 161.359 209.178 161.366C209.106 160.662 225.641 130.758 220.589 117.238C219.721 114.911 219.465 112.868 218.338 111.021C218.865 111.447 219.393 111.88 219.967 112.265C220.435 112.581 221.113 111.823 221.177 111.384C221.464 109.417 220.472 107.497 219.339 105.808C220.409 106.13 221.514 106.323 222.585 106.206C222.632 106.2 222.689 106.184 222.749 106.158C222.758 106.155 222.771 106.146 222.781 106.143C222.834 106.117 222.891 106.089 222.948 106.051C222.948 106.051 222.951 106.051 222.951 106.048C223.087 105.96 223.223 105.843 223.33 105.713L223.336 105.701Z" stroke="#144B5F" stroke-width="2.736" stroke-linecap="round" stroke-linejoin="round"/>
<path d="M194.565 79.952C195.011 82.2096 195.181 84.505 195.213 86.7973C195.238 89.0927 195.124 91.3945 194.809 93.6804C194.499 95.9632 194 98.2366 193.224 100.425C192.463 102.606 191.386 104.731 189.851 106.449C190.855 104.384 191.56 102.259 192.093 100.084C192.229 99.5406 192.339 98.9912 192.469 98.4481C192.579 97.8988 192.696 97.3525 192.785 96.8C192.984 95.6981 193.16 94.5898 193.309 93.4784C193.928 89.0233 194.205 84.524 194.562 79.9552" fill="#3B2416"/>
<path d="M89.7938 170.102C89.7843 168.915 89.9454 168.236 89.9454 168.236C89.9517 168.208 90.5768 165.597 90.6842 165.347C90.6905 165.335 90.7 165.322 90.7063 165.309C90.8263 165.054 90.9589 164.814 91.1073 164.577C91.1389 164.526 91.1705 164.476 91.202 164.432C91.3504 164.204 91.5052 163.99 91.682 163.784C91.7041 163.756 91.7325 163.728 91.7609 163.696C91.9283 163.513 92.0987 163.336 92.2787 163.175C92.3134 163.144 92.3419 163.112 92.3766 163.083C92.5755 162.913 92.7902 162.755 93.0081 162.6L93.2891 162.424C93.4848 162.31 93.6775 162.196 93.8827 162.098C95.9918 161.085 97.7568 160.813 99.4713 161.306C102.326 162.114 105.016 165.035 108.887 170.143C109.06 170.371 109.234 170.598 109.423 170.825C110.292 171.871 111.318 172.913 112.448 173.926C112.994 174.422 113.572 174.914 114.16 175.391C114.589 175.748 115.031 176.089 115.482 176.433C115.953 176.796 116.43 177.153 116.913 177.5C117.229 177.724 117.541 177.952 117.863 178.173C118.495 178.615 119.136 179.05 119.773 179.464C120.408 179.887 121.046 180.288 121.668 180.68C126.998 184.001 131.677 186.234 131.677 186.234C135.488 188.242 137.231 189.628 137.629 191.134C137.673 191.301 137.711 191.475 137.714 191.645C137.752 192.217 137.307 193.565 137.307 193.565C136.186 196.183 133.448 197.247 125.33 196.871C118.094 196.536 110.096 195.542 101.132 188.469C99.9323 187.538 98.6124 186.47 97.3937 185.331C90.8168 179.177 89.8096 172.96 89.7875 170.109" fill="#FDCB9B"/>
<path d="M89.7938 170.102C89.7843 168.915 89.9454 168.236 89.9454 168.236C89.9517 168.208 90.5768 165.597 90.6842 165.347C90.6905 165.335 90.7 165.322 90.7063 165.309C90.8263 165.054 90.9589 164.814 91.1073 164.577C91.1389 164.526 91.1705 164.476 91.202 164.432C91.3504 164.204 91.5052 163.99 91.682 163.784C91.7041 163.756 91.7325 163.728 91.7609 163.696C91.9283 163.513 92.0987 163.336 92.2787 163.175C92.3134 163.144 92.3419 163.112 92.3766 163.083C92.5755 162.913 92.7902 162.755 93.0081 162.6L93.2891 162.424C93.4848 162.31 93.6775 162.196 93.8827 162.098C95.9918 161.085 97.7568 160.813 99.4713 161.306C102.326 162.114 105.016 165.035 108.887 170.143C109.06 170.371 109.234 170.598 109.423 170.825C110.292 171.871 111.318 172.913 112.448 173.926C112.994 174.422 113.572 174.914 114.16 175.391C114.589 175.748 115.031 176.089 115.482 176.433C115.953 176.796 116.43 177.153 116.913 177.5C117.229 177.724 117.541 177.952 117.863 178.173C118.495 178.615 119.136 179.05 119.773 179.464C120.408 179.887 121.046 180.288 121.668 180.68C126.998 184.001 131.677 186.234 131.677 186.234C135.488 188.242 137.231 189.628 137.629 191.134C137.673 191.301 137.711 191.475 137.714 191.645C137.752 192.217 137.307 193.565 137.307 193.565C136.186 196.183 133.448 197.247 125.33 196.871C118.094 196.536 110.096 195.542 101.132 188.469C99.9323 187.538 98.6124 186.47 97.3937 185.331C90.8168 179.177 89.8096 172.96 89.7875 170.109L89.7938 170.102Z" stroke="#144B5F" stroke-width="3.153" stroke-miterlimit="10"/>
<path d="M99.5155 187.13C98.3157 186.198 97.1191 185.163 95.9003 184.023C89.3234 177.869 88.3162 172.129 88.2972 169.278C89.1245 166.828 90.2612 164.27 91.7957 161.596C92.5692 160.232 93.4502 158.84 94.4448 157.412C101.735 146.946 109.818 147.665 109.815 147.659C109.85 147.659 112.518 147.905 112.78 147.981C112.799 147.984 112.808 147.988 112.824 147.991C113.096 148.073 113.348 148.177 113.604 148.284C113.658 148.306 113.714 148.335 113.762 148.36C114.005 148.474 114.245 148.606 114.472 148.742C114.501 148.764 114.532 148.79 114.567 148.808C114.772 148.947 114.971 149.089 115.157 149.247C115.198 149.276 115.23 149.304 115.268 149.336C115.47 149.506 115.656 149.696 115.836 149.888C115.874 149.936 115.918 149.98 115.95 150.021C116.13 150.229 116.3 150.444 116.458 150.681C117.759 152.623 118.283 154.331 118.046 156.099C117.652 159.038 115.154 162.123 110.652 166.686C109.714 167.636 108.802 168.757 107.933 169.995C107.76 170.244 107.583 170.497 107.412 170.752C107.005 171.362 106.598 172.003 106.209 172.653C105.922 173.133 104.195 175.236 103.92 175.732" fill="#FDCB9B"/>
<path d="M98.4956 188.44C97.0053 187.272 95.6066 186.063 94.2521 184.734C92.8849 183.404 91.6093 181.955 90.5042 180.364C89.3959 178.772 88.4582 177.036 87.7667 175.183C87.0879 173.323 86.6585 171.349 86.6364 169.294L86.6301 169.01L86.7248 168.748C87.6752 166.105 88.8971 163.576 90.3022 161.189C91.704 158.796 93.2606 156.535 95.0888 154.375C96.9232 152.244 99.086 150.349 101.568 148.929C102.815 148.234 104.122 147.628 105.511 147.23C105.859 147.129 106.209 147.05 106.56 146.958C106.913 146.886 107.27 146.82 107.63 146.763C107.993 146.718 108.353 146.668 108.722 146.652C108.906 146.636 109.092 146.633 109.281 146.633C109.376 146.633 109.471 146.633 109.569 146.633L109.717 146.639H109.755C109.723 146.646 109.572 146.621 109.322 146.734C109.196 146.794 109.029 146.914 108.912 147.1C108.792 147.287 108.751 147.511 108.76 147.672C108.786 148 108.893 148.117 108.95 148.202L109.894 146.649L111.394 146.823L112.145 146.917L112.527 146.971L112.732 147.003L112.849 147.022C112.887 147.028 112.985 147.05 113.051 147.069L112.985 147.053C113.061 147.069 113.099 147.085 113.14 147.1L113.266 147.148L113.515 147.246C113.686 147.315 113.841 147.369 114.024 147.451L114.169 147.52L114.283 147.584L114.507 147.71L114.949 147.959L115.012 148C115.012 148 114.993 147.991 114.984 147.991L115.081 148.048L115.741 148.556L115.672 148.502L115.839 148.638C115.89 148.682 115.912 148.711 115.95 148.746L116.155 148.954C116.288 149.093 116.439 149.235 116.553 149.371C116.774 149.652 117.004 149.964 117.213 150.261C117.588 150.855 117.939 151.483 118.22 152.155C118.798 153.485 119.047 155.076 118.719 156.538C118.422 158.006 117.715 159.275 116.938 160.418C116.152 161.561 115.261 162.597 114.349 163.598C113.433 164.596 112.486 165.556 111.529 166.496C111.046 166.973 110.576 167.418 110.137 167.908C109.695 168.394 109.272 168.899 108.865 169.417C108.454 169.935 108.072 170.472 107.69 171.015L106.591 172.675C106.197 173.282 105.764 173.768 105.347 174.298C104.937 174.813 104.482 175.35 104.144 175.855L103.683 175.596C104.065 174.974 104.466 174.475 104.867 173.926C105.256 173.389 105.691 172.849 106.004 172.319L107.052 170.588C107.415 170.023 107.788 169.455 108.189 168.906C108.587 168.356 109 167.816 109.439 167.295C109.875 166.771 110.358 166.272 110.806 165.792C111.719 164.82 112.616 163.835 113.468 162.824C114.317 161.814 115.135 160.778 115.823 159.686C116.505 158.597 117.068 157.444 117.251 156.266C117.459 155.092 117.228 153.92 116.708 152.815C116.449 152.263 116.127 151.729 115.763 151.208C115.574 150.965 115.397 150.747 115.195 150.51C115.088 150.397 114.987 150.318 114.883 150.217L114.731 150.075C114.709 150.053 114.674 150.021 114.662 150.009C114.652 150.002 114.643 149.996 114.633 149.986L114.617 149.971L114.564 149.933L114.046 149.57L114.144 149.626C114.068 149.582 113.995 149.538 113.923 149.487L113.986 149.529L113.61 149.339L113.424 149.244L113.332 149.197L113.266 149.169C113.165 149.128 113.023 149.083 112.906 149.039L112.72 148.973L112.628 148.938C112.597 148.925 112.562 148.913 112.562 148.916L112.496 148.9C112.496 148.9 112.537 148.913 112.515 148.91L112.445 148.9L112.281 148.881L111.924 148.847L111.192 148.783L109.723 148.673L110.667 147.119C110.702 147.202 110.787 147.318 110.794 147.647C110.794 147.808 110.74 148.032 110.611 148.215C110.484 148.401 110.307 148.521 110.169 148.581C109.897 148.695 109.723 148.67 109.673 148.673H109.648H109.543C109.474 148.673 109.401 148.673 109.326 148.679C109.177 148.685 109.029 148.695 108.877 148.714C108.577 148.739 108.271 148.796 107.968 148.843C107.665 148.903 107.362 148.976 107.059 149.049C106.759 149.14 106.459 149.219 106.162 149.32C104.971 149.712 103.841 150.293 102.764 150.949C100.621 152.298 98.7387 154.069 97.1411 156.083C95.5655 158.098 94.1384 160.346 92.9133 162.651C91.6756 164.952 90.64 167.343 89.8665 169.802L89.9548 169.259C89.9706 170.847 90.3148 172.477 90.8831 174.027C91.4641 175.577 92.2598 177.067 93.2291 178.46C94.1984 179.852 95.3319 181.147 96.5696 182.35C97.8073 183.569 99.165 184.74 100.532 185.813L98.4924 188.434L98.4956 188.44Z" fill="#144B5F"/>
<path d="M118.097 172.628C118.097 172.628 101.138 189.277 103.197 194.256C105.256 199.236 135.153 203.138 137.72 195.014C140.29 186.89 137.72 188.693 137.72 188.693L118.097 172.631V172.628Z" fill="white"/>
<path d="M118.097 172.628C118.097 172.628 101.138 189.277 103.197 194.256C105.256 199.236 135.153 203.138 137.72 195.014C140.29 186.89 137.72 188.693 137.72 188.693L118.097 172.631V172.628Z" stroke="#144B5F" stroke-width="1.983" stroke-miterlimit="10"/>
</g>
</g>
</g>
</svg>
