<svg width="251" height="327" viewBox="0 0 251 327" fill="none" xmlns="http://www.w3.org/2000/svg">
<mask id="mask0_195_9845" style="mask-type:luminance" maskUnits="userSpaceOnUse" x="-76" y="0" width="327" height="327">
<path d="M250.7 0H-76V326.7H250.7V0Z" fill="white"/>
</mask>
<g mask="url(#mask0_195_9845)">
<mask id="mask1_195_9845" style="mask-type:luminance" maskUnits="userSpaceOnUse" x="-77" y="0" width="328" height="327">
<path d="M250.699 0H-76.0008V326.7H250.699V0Z" fill="white"/>
</mask>
<g mask="url(#mask1_195_9845)">
<path d="M112.105 241.74C112.105 241.74 112.516 254.768 114.957 262.585C117.398 270.402 124.734 272.912 129.707 267.401C134.677 261.889 134.711 246.356 134.726 242.95C125.218 242.445 112.102 241.74 112.102 241.74" fill="#FDCB9B"/>
<path d="M134.796 242.705C134.783 244.677 134.768 250.721 133.731 256.526C133.661 256.94 133.577 257.361 133.492 257.769L133.486 257.775C133.468 257.884 133.446 257.993 133.422 258.099C133.395 258.226 133.371 258.356 133.344 258.477C133.292 258.707 133.235 258.94 133.183 259.173C133.144 259.33 133.105 259.49 133.062 259.648C133.05 259.696 133.035 259.745 133.023 259.799C132.99 259.926 132.959 260.056 132.92 260.183C132.829 260.507 132.739 260.821 132.642 261.139C132.636 261.157 132.63 261.181 132.624 261.2C132.554 261.42 132.481 261.632 132.412 261.844C132.406 261.874 132.394 261.898 132.385 261.923C132.333 262.062 132.288 262.204 132.236 262.337C132.218 262.385 132.203 262.434 132.185 262.476C132.179 262.494 132.173 262.512 132.167 262.531C132.14 262.603 132.109 262.676 132.082 262.751C131.973 263.027 131.871 263.287 131.753 263.544C131.695 263.677 131.638 263.807 131.577 263.928C131.553 263.995 131.52 264.061 131.486 264.128C131.423 264.261 131.356 264.391 131.293 264.518C131.265 264.566 131.241 264.621 131.208 264.669C131.19 264.718 131.163 264.766 131.138 264.808C131.12 264.845 131.105 264.875 131.081 264.905C131.023 265.014 130.966 265.126 130.899 265.229C130.875 265.277 130.848 265.32 130.821 265.362C130.724 265.519 130.627 265.68 130.518 265.831C130.518 265.831 130.524 265.837 130.518 265.837C130.512 265.849 130.506 265.855 130.5 265.867C130.421 265.982 130.346 266.1 130.261 266.209C130.237 266.245 130.216 266.276 130.192 266.306C130.113 266.409 130.037 266.512 129.953 266.617C129.895 266.69 129.838 266.757 129.777 266.823C129.68 266.938 129.577 267.05 129.475 267.159C129.254 267.389 129.024 267.61 128.797 267.809C128.57 268.009 128.34 268.199 128.107 268.375C127.999 268.454 127.886 268.526 127.778 268.599C127.708 268.653 127.629 268.702 127.551 268.75C127.436 268.823 127.318 268.895 127.203 268.962C126.332 269.473 125.421 269.803 124.511 269.978C124.396 269.996 124.284 270.014 124.169 270.033C124.045 270.051 123.924 270.063 123.8 270.075C123.691 270.087 123.588 270.093 123.476 270.099C123.334 270.105 123.198 270.111 123.056 270.111C119.211 270.111 115.487 267.286 113.847 262.334C113.778 262.119 113.705 261.901 113.642 261.684C113.596 261.544 113.557 261.402 113.518 261.263C113.484 261.172 113.46 261.082 113.433 260.988C113.421 260.927 113.4 260.861 113.382 260.794C113.376 260.77 113.37 260.74 113.354 260.71C113.297 260.486 113.234 260.253 113.173 260.017C113.134 259.872 113.094 259.717 113.064 259.572C113.019 259.403 112.979 259.23 112.94 259.061C112.934 259.037 112.928 259.013 112.922 258.982C112.916 258.958 112.91 258.928 112.904 258.898C112.846 258.653 112.795 258.411 112.744 258.16C112.719 258.039 112.692 257.911 112.665 257.787C112.535 257.173 112.414 256.544 112.302 255.912C112.211 255.407 112.126 254.896 112.051 254.39C112.005 254.133 111.966 253.885 111.936 253.628C111.896 253.371 111.857 253.123 111.827 252.872C111.542 250.812 111.337 248.815 111.183 247.079C111.161 246.834 111.143 246.598 111.125 246.365C111.107 246.141 111.086 245.914 111.074 245.696C111.067 245.588 111.055 245.476 111.049 245.367C110.98 244.411 110.925 243.594 110.895 242.956C110.883 242.741 110.877 242.547 110.862 242.378C110.856 242.275 110.856 242.175 110.85 242.085C110.831 241.7 110.822 241.495 110.822 241.495C110.822 241.495 124.722 242.197 134.796 242.702V242.705Z" stroke="#144B5F" stroke-width="1.93903" stroke-linejoin="bevel"/>
<path d="M110.859 242.381C110.871 242.55 110.877 242.747 110.892 242.959C110.88 242.747 110.865 242.55 110.859 242.381Z" stroke="#144B5F" stroke-width="1.93903" stroke-linejoin="bevel"/>
<path d="M112.942 259.064C112.982 259.234 113.021 259.406 113.066 259.575C113.06 259.551 113.048 259.521 113.039 259.491C113 259.327 112.96 259.155 112.924 258.985C112.93 259.016 112.936 259.04 112.942 259.064Z" stroke="#144B5F" stroke-width="1.93903" stroke-linejoin="bevel"/>
<path d="M113.385 260.8C113.403 260.867 113.424 260.934 113.436 260.994C113.424 260.934 113.403 260.879 113.385 260.819C113.379 260.782 113.373 260.752 113.358 260.716C113.37 260.746 113.376 260.776 113.385 260.8Z" stroke="#144B5F" stroke-width="1.93903" stroke-linejoin="bevel"/>
<path d="M130.515 265.831C130.624 265.68 130.721 265.519 130.818 265.362C130.748 265.477 130.675 265.595 130.603 265.71C130.57 265.752 130.545 265.795 130.512 265.837C130.518 265.837 130.512 265.831 130.512 265.831H130.515Z" stroke="#144B5F" stroke-width="1.93903" stroke-linejoin="bevel"/>
<path d="M131.078 264.905C131.105 264.875 131.117 264.845 131.136 264.809C131.096 264.881 131.057 264.948 131.021 265.023C130.981 265.096 130.942 265.163 130.9 265.229C130.963 265.126 131.02 265.014 131.081 264.905H131.078Z" stroke="#144B5F" stroke-width="1.93903" stroke-linejoin="bevel"/>
<path d="M131.209 264.669C131.242 264.621 131.266 264.566 131.293 264.518C131.269 264.566 131.242 264.621 131.215 264.669C131.187 264.718 131.163 264.76 131.136 264.808C131.163 264.766 131.187 264.718 131.205 264.669H131.209Z" stroke="#144B5F" stroke-width="1.93903" stroke-linejoin="bevel"/>
<path d="M132.078 262.751C132.106 262.679 132.136 262.606 132.163 262.531C132.136 262.597 132.112 262.658 132.093 262.724C132.087 262.736 132.087 262.742 132.081 262.748L132.078 262.751Z" stroke="#144B5F" stroke-width="1.93903" stroke-linejoin="bevel"/>
<path d="M133.486 257.772L133.492 257.766C133.486 257.809 133.474 257.857 133.465 257.899C133.432 258.051 133.401 258.211 133.368 258.362C133.356 258.399 133.35 258.435 133.341 258.471C133.368 258.35 133.392 258.22 133.419 258.093C133.447 257.99 133.465 257.878 133.483 257.769L133.486 257.772Z" stroke="#144B5F" stroke-width="1.93903" stroke-linejoin="bevel"/>
<path d="M112.943 259.064C112.982 259.233 113.021 259.406 113.067 259.575C113.061 259.551 113.049 259.521 113.039 259.491C113.006 259.351 112.976 259.209 112.943 259.064Z" stroke="#144B5F" stroke-width="1.93903" stroke-linejoin="bevel"/>
<path d="M113.384 260.8C113.402 260.867 113.423 260.934 113.436 260.994C113.423 260.934 113.402 260.879 113.384 260.819V260.8Z" stroke="#144B5F" stroke-width="1.93903" stroke-linejoin="bevel"/>
<path d="M130.515 265.831C130.624 265.68 130.721 265.519 130.818 265.362C130.748 265.477 130.675 265.595 130.603 265.71C130.57 265.752 130.545 265.789 130.512 265.831H130.515Z" stroke="#144B5F" stroke-width="1.93903" stroke-linejoin="bevel"/>
<path d="M130.896 265.229C130.959 265.126 131.02 265.014 131.077 264.905C131.065 264.941 131.038 264.984 131.02 265.02C130.981 265.093 130.941 265.159 130.896 265.226V265.229Z" stroke="#144B5F" stroke-width="1.93903" stroke-linejoin="bevel"/>
<path d="M131.208 264.669C131.241 264.621 131.265 264.566 131.293 264.518C131.268 264.566 131.241 264.621 131.214 264.669H131.208Z" stroke="#144B5F" stroke-width="1.93903" stroke-linejoin="bevel"/>
<path d="M131.573 263.925C131.631 263.804 131.688 263.674 131.749 263.541C131.715 263.62 131.685 263.698 131.652 263.774C131.595 263.895 131.543 264.013 131.486 264.128C131.519 264.061 131.549 263.995 131.576 263.928L131.573 263.925Z" stroke="#144B5F" stroke-width="1.93903" stroke-linejoin="bevel"/>
<path d="M132.078 262.751C132.106 262.679 132.136 262.606 132.163 262.531C132.136 262.597 132.112 262.658 132.093 262.724C132.087 262.736 132.087 262.742 132.081 262.748L132.078 262.751Z" stroke="#144B5F" stroke-width="1.93903" stroke-linejoin="bevel"/>
<path d="M131.068 263.925C131.122 263.804 131.176 263.674 131.231 263.541C131.201 263.62 131.17 263.698 131.14 263.774C131.116 263.822 131.092 263.877 131.068 263.925Z" fill="#59595B"/>
<path d="M132.737 258.474C132.761 258.353 132.785 258.223 132.809 258.096C132.791 258.187 132.773 258.271 132.761 258.365C132.749 258.401 132.743 258.438 132.737 258.474Z" fill="#59595B"/>
<path d="M132.877 257.766C132.871 257.809 132.859 257.857 132.853 257.899C132.841 257.966 132.823 258.026 132.811 258.093C132.835 257.99 132.853 257.881 132.871 257.769L132.877 257.763V257.766Z" fill="#59595B"/>
<path d="M129.099 266.285C130.983 264.194 132.16 260.664 132.892 256.898C125.641 265.413 117.117 260.162 113.233 256.922C113.547 258.535 113.916 260.083 114.349 261.472C116.79 269.288 124.126 271.799 129.099 266.288" fill="#424142"/>
<path d="M121.663 266.675C119.095 265.223 117.585 261.665 116.866 259.451C115.432 258.643 114.191 257.721 113.236 256.922C113.55 258.535 113.919 260.083 114.352 261.472C116.69 268.962 123.521 271.575 128.46 266.941C126.382 267.504 123.702 267.827 121.666 266.675" fill="#424142"/>
<path d="M129.344 262.286C129.344 262.286 124.616 265.408 119.113 262.882C120.323 265.919 122.163 267.032 124.746 266.905C127.329 266.778 128.681 264.382 129.341 262.286" fill="#FFE4C6"/>
<path d="M112.879 255.915C112.879 255.915 121.933 268.493 133.12 256.946" stroke="#144B5F" stroke-width="1.93903" stroke-linecap="round" stroke-linejoin="round"/>
<path d="M107.501 206.695C108.07 206.786 106.721 228.133 106.772 229.861C106.875 233.234 107.09 239.613 110.375 241.519C112.129 242.535 114.277 242.944 116.24 243.334C121.773 244.432 127.717 245.058 133.35 244.514C134.69 244.384 137.385 244.275 138.135 242.862C140.927 237.608 140.062 229.861 139.793 224.162C139.666 221.454 139.466 218.75 139.218 216.051C139.064 214.361 139.385 212.207 138.371 210.855C135.894 207.545 129.602 207.727 125.996 207.5C119.789 207.11 113.708 207.675 107.498 206.695" fill="black"/>
<path d="M107.501 206.695C108.07 206.786 106.721 228.133 106.772 229.861C106.875 233.234 107.09 239.613 110.375 241.519C112.129 242.535 114.277 242.944 116.24 243.334C121.773 244.432 127.717 245.058 133.35 244.514C134.69 244.384 137.385 244.275 138.135 242.862C140.927 237.608 140.062 229.861 139.793 224.162C139.666 221.454 139.466 218.75 139.218 216.051C139.064 214.361 139.385 212.207 138.371 210.855C135.894 207.545 129.602 207.727 125.996 207.5C119.789 207.11 113.708 207.675 107.498 206.695H107.501Z" stroke="#144B5F" stroke-width="1.93903" stroke-miterlimit="10"/>
<path d="M149.47 268.556L111.531 267.089C111.422 263.553 111.162 261.039 111.848 258.882L111.972 255.691L113.44 255.748L136.69 256.647L145.129 260.226C147.891 261.399 149.643 264.155 149.525 267.153L149.47 268.553V268.556Z" fill="#E7E6E8"/>
<path d="M110.968 267.107C110.95 266.499 110.925 265.925 110.904 265.374C110.798 262.736 110.717 260.649 111.288 258.786L111.43 255.107L136.813 256.09L145.347 259.708C148.305 260.964 150.211 263.965 150.084 267.177L150.008 269.14L110.983 267.631L110.968 267.104V267.107ZM148.962 267.135C149.068 264.388 147.44 261.82 144.908 260.746L136.565 257.207L112.51 256.278L112.405 258.982L112.38 259.055C111.845 260.746 111.924 262.77 112.027 265.332C112.042 265.725 112.06 266.13 112.072 266.551L148.925 267.976L148.959 267.138L148.962 267.135Z" fill="#174B5F"/>
<path d="M111.376 267.057L111.259 270.094L149.201 271.559L149.318 268.521L111.376 267.057Z" fill="#2E54A2"/>
<path d="M110.992 266.505L150.056 268.015L149.896 272.177L110.831 270.668L110.992 266.505ZM148.889 269.095L112.075 267.673L111.999 269.588L148.816 271.01L148.889 269.095Z" fill="#174B5F"/>
<path d="M130.103 252.742L136.831 253.002L136.688 256.647L127.683 256.299L127.734 254.929C127.783 253.67 128.842 252.693 130.1 252.742" fill="#E7E6E8"/>
<path d="M127.178 254.905C127.209 254.145 127.529 253.444 128.086 252.929C128.642 252.415 129.369 252.146 130.125 252.176L137.415 252.457L137.23 257.228L127.103 256.838L127.178 254.905ZM136.247 253.54L130.082 253.301C129.625 253.283 129.187 253.444 128.851 253.755C128.515 254.067 128.319 254.49 128.304 254.947L128.273 255.755L136.153 256.06L136.25 253.537L136.247 253.54Z" fill="#174B5F"/>
<path d="M136.259 262.413C137.067 262.764 138.008 262.391 138.358 261.581L140.171 257.394L137.239 256.127L135.427 260.313C135.076 261.124 135.448 262.062 136.259 262.413Z" fill="#2E54A2"/>
<path d="M134.914 260.089L136.949 255.385L140.912 257.101L138.879 261.805C138.404 262.897 137.131 263.402 136.039 262.927C135.764 262.806 135.521 262.636 135.328 262.428C134.753 261.82 134.563 260.903 134.914 260.086M137.536 256.862L135.948 260.531C135.721 261.054 135.963 261.665 136.486 261.892C137.01 262.119 137.618 261.877 137.845 261.354L139.433 257.684L137.536 256.862Z" fill="#174B5F"/>
<path d="M140.418 264.055C141.226 264.406 142.167 264.034 142.518 263.223L144.33 259.037L141.399 257.769L139.586 261.956C139.236 262.767 139.608 263.704 140.418 264.055Z" fill="#2E54A2"/>
<path d="M139.046 263.387C138.834 262.851 138.843 262.264 139.073 261.735L141.109 257.031L145.071 258.746L143.036 263.45C142.806 263.98 142.385 264.388 141.85 264.6C141.315 264.812 140.728 264.802 140.198 264.573C139.926 264.455 139.684 264.282 139.484 264.073C139.3 263.877 139.152 263.644 139.049 263.387M141.696 258.51L140.108 262.18C139.999 262.434 139.993 262.715 140.096 262.972C140.198 263.229 140.392 263.432 140.646 263.541C140.9 263.65 141.181 263.656 141.436 263.553C141.693 263.45 141.895 263.257 142.004 263.003L143.592 259.333L141.693 258.51H141.696Z" fill="#174B5F"/>
<path d="M122.849 262.352C122.782 264.113 121.297 265.489 119.534 265.419C117.77 265.353 116.397 263.868 116.466 262.104C116.533 260.34 118.018 258.967 119.782 259.037C121.545 259.106 122.919 260.589 122.849 262.352Z" fill="#2E54A2"/>
<path d="M116.899 264.781C116.218 264.046 115.864 263.087 115.904 262.086C115.982 260.017 117.731 258.398 119.803 258.477C121.872 258.556 123.491 260.307 123.412 262.376C123.373 263.378 122.946 264.306 122.211 264.987C121.476 265.668 120.517 266.021 119.516 265.982C118.527 265.943 117.607 265.528 116.929 264.808C116.92 264.799 116.914 264.79 116.905 264.781M119.764 259.599C119.062 259.572 118.39 259.82 117.876 260.298C117.362 260.776 117.062 261.423 117.035 262.128C117.008 262.83 117.256 263.502 117.734 264.016C117.74 264.022 117.746 264.028 117.752 264.034C118.227 264.539 118.871 264.83 119.564 264.857C120.266 264.884 120.938 264.636 121.452 264.158C121.969 263.68 122.265 263.03 122.293 262.328C122.32 261.593 122.044 260.918 121.576 260.422C121.119 259.938 120.481 259.627 119.764 259.596" fill="#174B5F"/>
<path d="M107.661 246.604C107.661 246.604 116.637 256.054 123.664 260.268C130.688 264.479 137.833 261.469 137.878 254.049C137.924 246.628 127.611 235.009 125.355 232.456C117.922 238.406 107.661 246.604 107.661 246.604Z" fill="#FDCB9B"/>
<path d="M125.602 230.953C126.906 232.435 130.917 236.954 134.003 241.979C134.226 242.336 134.441 242.705 134.65 243.065V243.074C134.708 243.168 134.768 243.264 134.816 243.358C134.883 243.47 134.946 243.582 135.01 243.691C135.125 243.897 135.237 244.108 135.352 244.317C135.427 244.462 135.506 244.605 135.576 244.753C135.6 244.798 135.621 244.844 135.648 244.892C135.709 245.01 135.769 245.125 135.827 245.246C135.975 245.545 136.117 245.845 136.256 246.144C136.262 246.162 136.274 246.184 136.283 246.202C136.377 246.413 136.465 246.619 136.553 246.825C136.568 246.852 136.574 246.879 136.586 246.9C136.64 247.04 136.701 247.173 136.752 247.309C136.77 247.357 136.792 247.403 136.807 247.448C136.813 247.466 136.822 247.484 136.828 247.502C136.858 247.575 136.882 247.651 136.91 247.723C137.009 248.002 137.106 248.265 137.191 248.534C137.236 248.673 137.279 248.806 137.315 248.936C137.339 249.003 137.36 249.075 137.381 249.145C137.424 249.287 137.46 249.426 137.496 249.566C137.508 249.62 137.527 249.677 137.536 249.735C137.554 249.783 137.566 249.838 137.575 249.886C137.584 249.926 137.596 249.959 137.596 249.998C137.626 250.119 137.657 250.24 137.675 250.358C137.687 250.413 137.696 250.461 137.705 250.509C137.738 250.691 137.772 250.875 137.79 251.06C137.79 251.06 137.799 251.06 137.793 251.063C137.796 251.075 137.793 251.084 137.799 251.099C137.817 251.238 137.838 251.374 137.847 251.514C137.853 251.559 137.859 251.592 137.859 251.635C137.871 251.765 137.881 251.892 137.887 252.025C137.893 252.119 137.893 252.206 137.896 252.294C137.899 252.445 137.896 252.597 137.893 252.745C137.884 253.062 137.856 253.383 137.82 253.683C137.784 253.982 137.738 254.278 137.681 254.566C137.651 254.699 137.617 254.826 137.584 254.953C137.569 255.041 137.542 255.129 137.518 255.216C137.478 255.349 137.442 255.479 137.4 255.606C137.091 256.568 136.628 257.418 136.069 258.157C135.993 258.247 135.923 258.335 135.851 258.426C135.772 258.523 135.687 258.61 135.606 258.701C135.533 258.783 135.461 258.855 135.382 258.934C135.279 259.034 135.182 259.128 135.076 259.221C132.206 261.78 127.544 262.15 123.025 259.542C122.831 259.43 122.632 259.312 122.438 259.194C122.311 259.118 122.19 259.04 122.066 258.961C121.981 258.916 121.903 258.864 121.821 258.813C121.77 258.777 121.712 258.74 121.651 258.701C121.63 258.686 121.606 258.668 121.576 258.656C121.382 258.526 121.18 258.395 120.98 258.256C120.853 258.172 120.723 258.084 120.602 257.996C120.454 257.899 120.312 257.797 120.169 257.697C120.148 257.682 120.127 257.669 120.103 257.651C120.081 257.636 120.057 257.618 120.03 257.6C119.824 257.458 119.625 257.31 119.419 257.158C119.319 257.086 119.213 257.007 119.114 256.931C118.608 256.559 118.1 256.172 117.595 255.77C117.19 255.452 116.787 255.125 116.394 254.802C116.191 254.641 115.995 254.481 115.801 254.312C115.601 254.145 115.408 253.985 115.217 253.822C113.635 252.473 112.153 251.12 110.883 249.925C110.707 249.756 110.535 249.593 110.365 249.432C110.202 249.278 110.036 249.121 109.881 248.967C109.803 248.888 109.721 248.815 109.642 248.737C108.953 248.071 108.372 247.496 107.921 247.04C107.77 246.888 107.634 246.749 107.513 246.628C107.44 246.556 107.374 246.483 107.31 246.42C107.041 246.147 106.899 245.996 106.899 245.996C106.899 245.996 117.74 237.269 125.596 230.944L125.602 230.953Z" stroke="#144B5F" stroke-width="1.93903" stroke-linejoin="bevel"/>
<path d="M107.52 246.637C107.644 246.755 107.777 246.897 107.928 247.049C107.777 246.897 107.638 246.761 107.52 246.637Z" stroke="#144B5F" stroke-width="1.93903" stroke-linejoin="bevel"/>
<path d="M120.175 257.706C120.317 257.808 120.46 257.908 120.608 258.005C120.587 257.99 120.556 257.978 120.532 257.96C120.393 257.863 120.251 257.76 120.109 257.66C120.133 257.678 120.154 257.693 120.175 257.706Z" stroke="#144B5F" stroke-width="1.93903" stroke-linejoin="bevel"/>
<path d="M121.658 258.707C121.718 258.743 121.776 258.78 121.827 258.819C121.776 258.783 121.727 258.755 121.67 258.722C121.64 258.698 121.615 258.68 121.582 258.662C121.612 258.677 121.637 258.695 121.658 258.707Z" stroke="#144B5F" stroke-width="1.93903" stroke-linejoin="bevel"/>
<path d="M137.796 251.063C137.778 250.875 137.745 250.694 137.712 250.512C137.736 250.645 137.76 250.779 137.784 250.915C137.787 250.969 137.797 251.017 137.803 251.069C137.809 251.066 137.799 251.066 137.799 251.066L137.796 251.063Z" stroke="#144B5F" stroke-width="1.93903" stroke-linejoin="bevel"/>
<path d="M137.599 249.998C137.599 249.959 137.586 249.926 137.577 249.886C137.599 249.965 137.614 250.044 137.632 250.122C137.653 250.204 137.668 250.279 137.677 250.358C137.656 250.237 137.626 250.116 137.599 249.998Z" stroke="#144B5F" stroke-width="1.93903" stroke-linejoin="bevel"/>
<path d="M137.54 249.735C137.53 249.677 137.515 249.62 137.5 249.565C137.512 249.62 137.53 249.677 137.543 249.732C137.555 249.786 137.564 249.835 137.579 249.889C137.57 249.841 137.558 249.786 137.54 249.738V249.735Z" stroke="#144B5F" stroke-width="1.93903" stroke-linejoin="bevel"/>
<path d="M136.912 247.723C136.882 247.651 136.858 247.575 136.827 247.503C136.852 247.569 136.873 247.633 136.903 247.696C136.906 247.708 136.909 247.714 136.909 247.723H136.912Z" stroke="#144B5F" stroke-width="1.93903" stroke-linejoin="bevel"/>
<path d="M134.65 243.074V243.065C134.675 243.101 134.699 243.146 134.72 243.183C134.798 243.319 134.877 243.458 134.956 243.594C134.971 243.63 134.989 243.66 135.01 243.694C134.95 243.585 134.883 243.473 134.817 243.361C134.768 243.267 134.708 243.17 134.65 243.077V243.074Z" stroke="#144B5F" stroke-width="1.93903" stroke-linejoin="bevel"/>
<path d="M120.174 257.706C120.316 257.809 120.459 257.908 120.607 258.005C120.586 257.99 120.556 257.978 120.531 257.96C120.413 257.878 120.295 257.793 120.174 257.706Z" stroke="#144B5F" stroke-width="1.93903" stroke-linejoin="bevel"/>
<path d="M121.657 258.707C121.718 258.743 121.775 258.78 121.827 258.819C121.775 258.783 121.727 258.756 121.67 258.722L121.657 258.71V258.707Z" stroke="#144B5F" stroke-width="1.93903" stroke-linejoin="bevel"/>
<path d="M137.796 251.063C137.778 250.875 137.745 250.694 137.712 250.512C137.736 250.645 137.76 250.779 137.784 250.915C137.787 250.969 137.793 251.011 137.796 251.066V251.063Z" stroke="#144B5F" stroke-width="1.93903" stroke-linejoin="bevel"/>
<path d="M137.677 250.361C137.656 250.24 137.626 250.119 137.599 250.001C137.614 250.037 137.623 250.086 137.632 250.125C137.653 250.207 137.668 250.282 137.677 250.361Z" stroke="#144B5F" stroke-width="1.93903" stroke-linejoin="bevel"/>
<path d="M137.54 249.735C137.53 249.677 137.515 249.62 137.5 249.565C137.512 249.62 137.53 249.677 137.543 249.732H137.537L137.54 249.735Z" stroke="#144B5F" stroke-width="1.93903" stroke-linejoin="bevel"/>
<path d="M137.318 248.936C137.281 248.806 137.239 248.673 137.194 248.534C137.224 248.616 137.251 248.694 137.275 248.77C137.312 248.9 137.351 249.021 137.384 249.145C137.363 249.072 137.342 249.003 137.318 248.933V248.936Z" stroke="#144B5F" stroke-width="1.93903" stroke-linejoin="bevel"/>
<path d="M136.912 247.723C136.882 247.651 136.858 247.575 136.827 247.503C136.852 247.569 136.873 247.633 136.903 247.696C136.906 247.708 136.909 247.714 136.909 247.723H136.912Z" stroke="#144B5F" stroke-width="1.93903" stroke-linejoin="bevel"/>
<path d="M137.039 252.345C137.058 249.532 135.584 246.111 133.624 242.814C133.878 253.997 124.02 255.748 118.965 255.912C120.272 256.907 121.579 257.818 122.825 258.565C129.849 262.776 136.994 259.766 137.039 252.345Z" fill="#424142"/>
<path d="M131.748 257.582C128.866 258.208 125.372 256.553 123.36 255.383C121.754 255.734 120.214 255.87 118.968 255.912C120.275 256.907 121.582 257.818 122.828 258.565C129.556 262.6 136.395 260.008 137 253.262C135.823 255.065 134.039 257.089 131.752 257.585" fill="#424142"/>
<path d="M134.412 249.333C134.412 249.333 132.96 254.808 127.173 256.584C130.098 258.045 132.213 257.651 134.055 255.839C135.9 254.024 135.317 251.338 134.412 249.333Z" fill="#FFE4C6"/>
<path d="M118.031 255.398C118.031 255.398 133.159 258.765 133.825 242.702" stroke="#144B5F" stroke-width="1.93903" stroke-linecap="round" stroke-linejoin="round"/>
<path d="M107.409 247.191C107.312 247.064 107.215 246.931 107.127 246.801C106.202 245.436 105.636 243.869 104.956 242.372C103.848 239.94 102.418 237.571 100.657 235.551C99.1567 233.826 97.4688 233.351 95.4753 232.287C93.252 231.101 91.0072 229.897 89.1317 228.218C85.4593 224.93 84.0981 220.156 85.777 215.51C86.3155 214.022 87.3259 211.683 88.6599 210.734C89.9577 209.811 92.193 210.449 93.7176 210.534C95.9985 210.661 98.2764 210.785 100.557 210.909C103.619 211.078 105.981 211.363 108.897 212.249C112.01 213.196 115.089 214.246 118.132 215.392C120.713 216.363 123.871 217.679 125.45 220.063C127.628 223.354 128.871 227.81 130.438 231.434C130.865 232.42 131.297 233.454 131.203 234.525C131.025 236.51 127.61 238.412 126.173 239.516C124.597 240.729 123.166 242.124 121.59 243.337C119.799 244.716 118.063 245.911 116.396 247.406C114.926 248.721 113.141 249.853 111.051 249.559C109.578 249.354 108.322 248.38 107.412 247.191" fill="black"/>
<path d="M107.409 247.191C107.312 247.064 107.215 246.931 107.127 246.801C106.202 245.436 105.636 243.869 104.956 242.372C103.848 239.94 102.418 237.571 100.657 235.551C99.1567 233.826 97.4688 233.351 95.4753 232.287C93.252 231.101 91.0072 229.897 89.1317 228.218C85.4593 224.93 84.0981 220.156 85.777 215.51C86.3155 214.022 87.3259 211.683 88.6599 210.734C89.9577 209.811 92.193 210.449 93.7176 210.534C95.9985 210.661 98.2764 210.785 100.557 210.909C103.619 211.078 105.981 211.363 108.897 212.249C112.01 213.196 115.089 214.246 118.132 215.392C120.713 216.363 123.871 217.679 125.45 220.063C127.628 223.354 128.871 227.81 130.438 231.434C130.865 232.42 131.297 233.454 131.203 234.525C131.025 236.51 127.61 238.412 126.173 239.516C124.597 240.729 123.166 242.124 121.59 243.337C119.799 244.716 118.063 245.911 116.396 247.406C114.926 248.721 113.141 249.853 111.051 249.559C109.578 249.354 108.322 248.38 107.412 247.191H107.409Z" stroke="#144B5F" stroke-width="1.93903" stroke-miterlimit="10"/>
<path d="M137.317 203.044C137.293 203.982 137.251 204.919 137.193 205.854C136.821 211.78 131.083 212.358 125.704 212.987C117.534 213.943 109.158 214.01 100.963 213.181C96.4103 212.721 91.4825 211.789 88.8659 209.118C82.0385 202.152 91.5886 186.258 94.1417 178.856C95.8266 173.977 97.5358 169.043 100.328 164.702C103.12 160.361 107.149 156.604 112.107 155.176C129.235 150.243 134.428 176 136.295 187.801C137.09 192.832 137.454 197.947 137.321 203.041" fill="white"/>
<path d="M137.317 203.044C137.293 203.982 137.251 204.919 137.193 205.854C136.821 211.78 131.083 212.358 125.704 212.987C117.534 213.943 109.158 214.01 100.963 213.181C96.4103 212.721 91.4825 211.789 88.8659 209.118C82.0385 202.152 91.5886 186.258 94.1417 178.856C95.8266 173.977 97.5358 169.043 100.328 164.702C103.12 160.361 107.149 156.604 112.107 155.176C129.235 150.243 134.428 176 136.295 187.801C137.09 192.832 137.454 197.947 137.321 203.041L137.317 203.044Z" stroke="#144B5F" stroke-width="1.93903" stroke-miterlimit="10"/>
<path d="M54.9439 180.595C54.711 181.694 54.7321 182.353 54.7321 182.353C54.7321 182.38 54.8168 184.918 54.8713 185.169C54.8773 185.181 54.8803 185.197 54.8863 185.209C54.9499 185.469 55.0256 185.717 55.1224 185.962C55.1405 186.013 55.1617 186.068 55.1829 186.116C55.2767 186.355 55.3794 186.582 55.5034 186.806C55.5186 186.836 55.5399 186.866 55.5581 186.903C55.6791 187.105 55.803 187.302 55.9392 187.483C55.9664 187.517 55.9846 187.553 56.0118 187.589C56.1631 187.786 56.3325 187.973 56.5049 188.155L56.7318 188.373C56.8891 188.515 57.0494 188.66 57.2218 188.787C58.9824 190.124 60.5673 190.708 62.2462 190.578C65.0413 190.369 68.0876 188.173 72.6402 184.171C72.8459 183.993 73.0487 183.814 73.2665 183.642C74.2708 182.837 75.414 182.066 76.6542 181.34C77.2532 180.986 77.8824 180.638 78.5177 180.308C78.9835 180.057 79.4555 179.824 79.9395 179.591C80.4447 179.343 80.9528 179.101 81.467 178.871C81.7998 178.723 82.1356 178.572 82.4744 178.427C83.1429 178.136 83.8206 177.855 84.4891 177.592C85.1576 177.319 85.823 177.068 86.4734 176.823C92.0394 174.751 96.7979 173.568 96.7979 173.568C100.709 172.428 102.584 171.475 103.238 170.153C103.31 170.005 103.377 169.854 103.413 169.696C103.556 169.173 103.398 167.842 103.398 167.842C102.854 165.204 100.522 163.704 92.929 162.518C86.162 161.459 78.5661 160.869 68.9224 165.728C67.6368 166.366 66.209 167.104 64.8659 167.93C57.6119 172.389 55.5005 177.958 54.9439 180.595Z" fill="#FDCB9B"/>
<path d="M54.9439 180.595C54.711 181.694 54.7321 182.353 54.7321 182.353C54.7321 182.38 54.8168 184.918 54.8713 185.169C54.8773 185.181 54.8803 185.197 54.8863 185.209C54.9499 185.469 55.0256 185.717 55.1224 185.962C55.1405 186.013 55.1617 186.068 55.1829 186.116C55.2767 186.355 55.3794 186.582 55.5034 186.806C55.5186 186.836 55.5399 186.866 55.5581 186.903C55.6791 187.105 55.803 187.302 55.9392 187.483C55.9664 187.517 55.9846 187.553 56.0118 187.589C56.1631 187.786 56.3325 187.973 56.5049 188.155L56.7318 188.373C56.8891 188.515 57.0494 188.66 57.2218 188.787C58.9824 190.124 60.5673 190.708 62.2462 190.578C65.0413 190.369 68.0876 188.173 72.6402 184.171C72.8459 183.993 73.0487 183.814 73.2665 183.642C74.2708 182.837 75.414 182.066 76.6542 181.34C77.2532 180.986 77.8824 180.638 78.5177 180.308C78.9835 180.057 79.4555 179.824 79.9395 179.591C80.4447 179.343 80.9528 179.101 81.467 178.871C81.7998 178.723 82.1356 178.572 82.4744 178.427C83.1429 178.136 83.8206 177.855 84.4891 177.592C85.1576 177.319 85.823 177.068 86.4734 176.823C92.0394 174.751 96.7979 173.568 96.7979 173.568C100.709 172.428 102.584 171.475 103.238 170.153C103.31 170.005 103.377 169.854 103.413 169.696C103.556 169.173 103.398 167.842 103.398 167.842C102.854 165.204 100.522 163.704 92.929 162.518C86.162 161.459 78.5661 160.869 68.9224 165.728C67.6368 166.366 66.209 167.104 64.8659 167.93C57.6119 172.389 55.5005 177.958 54.9439 180.595Z" stroke="#144B5F" stroke-width="2.45025" stroke-miterlimit="10"/>
<path d="M154.351 239.253L126.488 265.044C123.913 262.621 121.95 261.027 120.906 259.019L118.737 256.674L119.818 255.676L136.894 239.87L145.391 236.434C148.174 235.309 151.359 236.023 153.398 238.225L154.351 239.253Z" fill="#E7E6E8"/>
<path d="M126.102 265.453C125.66 265.035 125.237 264.645 124.832 264.273C122.893 262.482 121.356 261.064 120.445 259.345L117.946 256.644L136.59 239.39L145.184 235.914C148.163 234.71 151.633 235.484 153.814 237.844L155.148 239.287L126.486 265.816L126.105 265.456L126.102 265.453ZM152.985 238.606C151.119 236.588 148.151 235.926 145.601 236.954L137.198 240.351L119.532 256.702L121.371 258.689L121.404 258.756C122.221 260.332 123.709 261.705 125.591 263.444C125.878 263.711 126.178 263.986 126.486 264.273L153.554 239.22L152.985 238.603V238.606Z" fill="#174B5F"/>
<path d="M154.265 239.113L126.4 264.907L128.468 267.14L156.332 241.347L154.265 239.113Z" fill="#2E54A2"/>
<path d="M125.694 265.014L154.383 238.458L157.214 241.516L128.522 268.072L125.691 265.014H125.694ZM154.322 240.049L127.285 265.075L128.585 266.481L155.626 241.455L154.325 240.049H154.322Z" fill="#174B5F"/>
<path d="M129.474 241.764L134.417 237.19L136.898 239.867L130.285 245.987L129.353 244.98C128.497 244.057 128.555 242.617 129.477 241.761" fill="#E7E6E8"/>
<path d="M128.935 245.364C128.418 244.807 128.152 244.081 128.182 243.325C128.212 242.566 128.533 241.867 129.093 241.349L134.447 236.395L137.69 239.901L130.251 246.785L128.935 245.364ZM134.383 237.986L129.855 242.178C129.519 242.49 129.323 242.913 129.304 243.37C129.286 243.827 129.447 244.266 129.758 244.601L130.309 245.194L136.095 239.837L134.38 237.986H134.383Z" fill="#174B5F"/>
<path d="M140.667 244.251C141.487 243.927 141.889 242.998 141.565 242.179L139.887 237.938L136.919 239.111L138.598 243.352C138.922 244.172 139.85 244.574 140.67 244.248" fill="#2E54A2"/>
<path d="M138.071 243.561L136.184 238.796L140.198 237.205L142.086 241.97C142.524 243.077 141.98 244.335 140.873 244.771C140.591 244.883 140.301 244.931 140.016 244.922C139.179 244.898 138.395 244.384 138.068 243.558M137.642 239.426L139.115 243.143C139.324 243.673 139.929 243.933 140.458 243.724C140.987 243.515 141.248 242.913 141.039 242.381L139.566 238.663L137.645 239.426H137.642Z" fill="#174B5F"/>
<path d="M144.772 242.472C145.592 242.148 145.994 241.219 145.667 240.4L143.988 236.159L141.018 237.335L142.697 241.576C143.02 242.396 143.949 242.799 144.769 242.472" fill="#2E54A2"/>
<path d="M143.326 242.968C142.797 242.738 142.389 242.317 142.177 241.779L140.289 237.015L144.307 235.423L146.194 240.188C146.406 240.723 146.397 241.31 146.17 241.839C145.94 242.369 145.519 242.777 144.984 242.989C144.706 243.098 144.415 243.149 144.125 243.14C143.856 243.131 143.586 243.074 143.329 242.962M141.753 237.641L143.227 241.359C143.329 241.616 143.523 241.818 143.777 241.927C144.031 242.036 144.313 242.042 144.57 241.939C144.827 241.836 145.03 241.643 145.138 241.389C145.247 241.135 145.253 240.853 145.151 240.596L143.677 236.879L141.753 237.641Z" fill="#174B5F"/>
<path d="M131.142 253.691C132.34 254.986 132.261 257.007 130.967 258.205C129.672 259.403 127.651 259.324 126.453 258.029C125.256 256.735 125.334 254.714 126.626 253.516C127.921 252.318 129.941 252.397 131.139 253.691" fill="#2E54A2"/>
<path d="M128.651 259.614C127.646 259.575 126.721 259.149 126.04 258.41C124.634 256.892 124.724 254.511 126.246 253.102C127.767 251.695 130.148 251.786 131.555 253.307C132.235 254.042 132.589 255.001 132.553 256.003C132.517 257.004 132.087 257.932 131.352 258.613C130.626 259.288 129.682 259.642 128.693 259.611C128.681 259.611 128.669 259.611 128.657 259.611M127.014 253.927C126.497 254.405 126.2 255.056 126.173 255.758C126.146 256.459 126.394 257.131 126.872 257.645C127.35 258.162 127.997 258.459 128.702 258.486C128.711 258.486 128.72 258.486 128.726 258.486C129.419 258.507 130.082 258.259 130.59 257.787C131.104 257.309 131.403 256.662 131.431 255.957C131.458 255.255 131.21 254.584 130.732 254.07C130.233 253.531 129.558 253.247 128.878 253.229C128.212 253.21 127.541 253.44 127.014 253.924" fill="#174B5F"/>
<path d="M125.665 167.679L125.157 166.012C124.997 165.485 125.293 164.929 125.819 164.769L126.518 164.554C127.045 164.393 127.601 164.69 127.761 165.216L128.269 166.883C128.43 167.409 128.133 167.966 127.607 168.126L126.905 168.341C126.382 168.501 125.822 168.205 125.662 167.679M125.986 165.331C125.771 165.398 125.653 165.625 125.717 165.839L126.225 167.506C126.291 167.721 126.518 167.842 126.733 167.775L127.432 167.561C127.646 167.494 127.767 167.267 127.701 167.052L127.193 165.386C127.126 165.171 126.899 165.05 126.685 165.116L125.983 165.331H125.986Z" fill="#FDC451"/>
<path d="M118.24 162.691L118.025 161.989C117.865 161.463 118.161 160.906 118.687 160.746L120.354 160.237C120.881 160.077 121.437 160.374 121.598 160.9L121.812 161.602C121.973 162.125 121.676 162.685 121.15 162.845L119.483 163.353C118.957 163.513 118.4 163.217 118.24 162.691ZM118.86 161.311C118.645 161.378 118.524 161.605 118.591 161.819L118.806 162.521C118.872 162.736 119.099 162.857 119.311 162.79L120.977 162.282C121.192 162.216 121.313 161.989 121.247 161.777L121.032 161.075C120.965 160.861 120.739 160.74 120.524 160.806L118.857 161.314L118.86 161.311Z" fill="#FDC451"/>
<path d="M114.784 163.743L114.569 163.041C114.409 162.518 114.705 161.958 115.231 161.798L116.898 161.29C117.424 161.13 117.981 161.426 118.142 161.952L118.356 162.651C118.517 163.177 118.22 163.734 117.694 163.894L116.027 164.403C115.501 164.563 114.944 164.266 114.784 163.74M115.404 162.361C115.189 162.427 115.068 162.654 115.135 162.869L115.349 163.568C115.416 163.782 115.643 163.903 115.858 163.837L117.524 163.329C117.739 163.262 117.86 163.035 117.794 162.82L117.579 162.122C117.512 161.907 117.285 161.786 117.071 161.849L115.404 162.358V162.361Z" fill="#FDC451"/>
<path d="M111.325 164.802L111.11 164.1C110.95 163.577 111.246 163.017 111.773 162.857L113.439 162.349C113.966 162.188 114.525 162.485 114.682 163.011L114.897 163.713C115.058 164.236 114.761 164.796 114.235 164.956L112.568 165.464C112.042 165.625 111.485 165.328 111.325 164.802ZM111.945 163.422C111.73 163.489 111.609 163.716 111.676 163.931L111.891 164.632C111.957 164.847 112.184 164.968 112.399 164.902L114.065 164.393C114.28 164.327 114.401 164.1 114.335 163.885L114.12 163.186C114.057 162.972 113.826 162.851 113.612 162.917L111.945 163.425V163.422Z" fill="#FDC451"/>
<path d="M124.714 164.46L123.972 162.884C123.86 162.642 123.846 162.373 123.936 162.122C124.027 161.871 124.208 161.671 124.45 161.559L125.113 161.248C125.158 161.229 125.201 161.211 125.249 161.196C125.718 161.054 126.229 161.278 126.441 161.725L127.182 163.301C127.415 163.798 127.2 164.394 126.704 164.626L126.042 164.938C125.999 164.959 125.954 164.974 125.908 164.989C125.44 165.132 124.925 164.905 124.716 164.46M125.364 161.78L124.701 162.091C124.605 162.137 124.529 162.219 124.493 162.321C124.457 162.424 124.46 162.533 124.508 162.63L125.249 164.206C125.343 164.406 125.585 164.496 125.787 164.403L126.45 164.091C126.653 163.997 126.74 163.755 126.647 163.553L125.906 161.973C125.821 161.792 125.612 161.698 125.421 161.759C125.403 161.765 125.385 161.771 125.367 161.78" fill="#FDC451"/>
<path d="M126.731 171.157L126.223 169.491C126.062 168.964 126.359 168.408 126.885 168.247L127.587 168.033C128.113 167.872 128.67 168.169 128.83 168.695L129.338 170.362C129.499 170.885 129.202 171.445 128.676 171.605L127.974 171.817C127.451 171.977 126.891 171.681 126.731 171.154M127.054 168.807C126.84 168.873 126.719 169.1 126.785 169.315L127.293 170.982C127.36 171.197 127.587 171.318 127.799 171.251L128.5 171.036C128.715 170.97 128.836 170.743 128.77 170.528L128.262 168.861C128.195 168.647 127.968 168.526 127.753 168.592L127.052 168.807H127.054Z" fill="#FDC451"/>
<path d="M128.185 175.507L127.456 175.438C127.189 175.414 126.95 175.284 126.781 175.081C126.611 174.875 126.533 174.618 126.557 174.352L126.724 172.616C126.763 172.213 127.038 171.874 127.425 171.756C127.549 171.72 127.679 171.705 127.809 171.717L128.539 171.787C129.086 171.838 129.488 172.325 129.437 172.873L129.274 174.606C129.234 175.008 128.959 175.347 128.572 175.465C128.448 175.504 128.318 175.517 128.188 175.504M127.313 172.67L127.147 174.403C127.138 174.512 127.168 174.618 127.238 174.7C127.307 174.784 127.404 174.836 127.513 174.845L128.242 174.915C128.296 174.921 128.348 174.915 128.399 174.899C128.557 174.851 128.668 174.715 128.684 174.549L128.85 172.815C128.871 172.591 128.708 172.395 128.484 172.374L127.755 172.304C127.701 172.298 127.649 172.304 127.598 172.319C127.44 172.367 127.325 172.504 127.31 172.67" fill="#FDC451"/>
<path d="M126.31 178.778L125.672 178.418C125.439 178.287 125.273 178.076 125.203 177.819C125.13 177.561 125.164 177.292 125.294 177.062L126.15 175.544C126.277 175.32 126.48 175.154 126.725 175.081C126.985 175.002 127.269 175.033 127.505 175.166L128.143 175.526C128.621 175.795 128.791 176.406 128.521 176.884L127.665 178.402C127.541 178.626 127.336 178.79 127.091 178.865C126.83 178.944 126.546 178.914 126.31 178.781M126.664 175.834L125.808 177.353C125.757 177.447 125.741 177.558 125.772 177.661C125.802 177.767 125.868 177.852 125.962 177.906L126.601 178.266C126.788 178.372 127.048 178.303 127.154 178.112L128.01 176.597C128.119 176.4 128.053 176.152 127.856 176.043L127.218 175.683C127.118 175.628 127.006 175.616 126.9 175.65C126.8 175.68 126.715 175.746 126.664 175.837" fill="#FDC451"/>
<path d="M123.44 180.895L122.98 180.326C122.814 180.121 122.735 179.86 122.762 179.594C122.79 179.328 122.92 179.092 123.128 178.926L124.484 177.831C124.583 177.752 124.696 177.691 124.82 177.652C125.21 177.534 125.627 177.661 125.884 177.979L126.344 178.548C126.511 178.753 126.589 179.013 126.562 179.28C126.535 179.546 126.405 179.782 126.196 179.951L124.841 181.046C124.738 181.128 124.626 181.185 124.505 181.225C124.115 181.346 123.697 181.216 123.44 180.898M124.853 178.29L123.498 179.385C123.413 179.455 123.361 179.552 123.349 179.658C123.337 179.767 123.37 179.873 123.437 179.957L123.9 180.526C124.003 180.656 124.175 180.707 124.332 180.659C124.381 180.644 124.429 180.62 124.469 180.586L125.824 179.491C125.908 179.422 125.963 179.325 125.972 179.219C125.984 179.11 125.951 179.007 125.884 178.923L125.425 178.354C125.319 178.224 125.149 178.172 124.992 178.221C124.943 178.236 124.895 178.26 124.856 178.293" fill="#FDC451"/>
<path d="M108.925 172.791L108.417 171.124C108.256 170.598 108.553 170.041 109.079 169.881L109.778 169.666C110.304 169.506 110.861 169.802 111.021 170.329L111.529 171.995C111.69 172.522 111.394 173.078 110.867 173.239L110.165 173.454C109.639 173.614 109.082 173.317 108.922 172.791M109.246 170.444C109.031 170.51 108.91 170.737 108.977 170.952L109.485 172.619C109.551 172.833 109.778 172.954 109.993 172.888L110.692 172.673C110.906 172.61 111.027 172.38 110.961 172.168L110.453 170.501C110.386 170.286 110.159 170.165 109.945 170.232L109.246 170.447V170.444Z" fill="#FDC451"/>
<path d="M109.692 169.929L108.969 170.041C108.428 170.123 107.917 169.751 107.832 169.206L107.566 167.485C107.49 166.998 107.786 166.523 108.258 166.381C108.304 166.366 108.349 166.357 108.398 166.351L109.12 166.239C109.384 166.2 109.647 166.263 109.862 166.42C110.076 166.578 110.216 166.811 110.258 167.074L110.524 168.795C110.6 169.282 110.3 169.757 109.831 169.899C109.786 169.911 109.738 169.923 109.692 169.929ZM108.149 167.394L108.416 169.119C108.449 169.34 108.658 169.494 108.878 169.457L109.601 169.346C109.825 169.312 109.973 169.101 109.94 168.883L109.674 167.161C109.656 167.056 109.598 166.959 109.514 166.895C109.426 166.832 109.317 166.805 109.211 166.823L108.488 166.935C108.467 166.935 108.449 166.941 108.431 166.947C108.24 167.004 108.116 167.198 108.149 167.394Z" fill="#FDC451"/>
<path d="M109.146 166.974L108.605 166.484C108.199 166.115 108.166 165.483 108.535 165.077L109.703 163.786C109.824 163.653 109.978 163.553 110.151 163.501C110.483 163.398 110.852 163.483 111.112 163.716L111.654 164.206C111.851 164.385 111.966 164.63 111.981 164.896C111.993 165.162 111.902 165.416 111.724 165.613L110.553 166.904C110.432 167.038 110.278 167.137 110.105 167.189C109.772 167.292 109.403 167.21 109.143 166.974M110.138 164.179L108.968 165.471C108.817 165.637 108.832 165.894 108.998 166.045L109.539 166.535C109.645 166.632 109.794 166.665 109.933 166.623C110.002 166.602 110.066 166.563 110.114 166.508L111.285 165.216C111.358 165.135 111.394 165.032 111.388 164.923C111.382 164.814 111.336 164.714 111.255 164.642L110.713 164.152C110.607 164.055 110.459 164.022 110.323 164.064C110.254 164.085 110.19 164.124 110.141 164.179" fill="#FDC451"/>
<path d="M123.633 162.911L121.942 162.494C121.684 162.43 121.464 162.27 121.328 162.043C121.192 161.816 121.149 161.547 121.213 161.29L121.388 160.579C121.473 160.24 121.733 159.965 122.066 159.865C122.238 159.811 122.42 159.808 122.595 159.853L124.286 160.271C124.818 160.401 125.145 160.942 125.015 161.478L124.84 162.188C124.755 162.527 124.495 162.799 124.162 162.902C123.99 162.954 123.808 162.96 123.633 162.914M121.96 160.721L121.784 161.432C121.76 161.538 121.775 161.647 121.833 161.741C121.887 161.831 121.978 161.898 122.084 161.925L123.775 162.343C123.848 162.361 123.92 162.358 123.99 162.337C124.129 162.294 124.232 162.185 124.265 162.046L124.44 161.335C124.492 161.118 124.362 160.897 124.144 160.842L122.453 160.425C122.38 160.407 122.308 160.41 122.238 160.431C122.099 160.473 121.996 160.582 121.963 160.724" fill="#FDC451"/>
<path d="M109.99 176.27L109.482 174.603C109.322 174.077 109.618 173.517 110.145 173.357L110.843 173.142C111.37 172.982 111.926 173.278 112.087 173.805L112.595 175.471C112.755 175.995 112.459 176.554 111.932 176.715L111.231 176.929C110.704 177.09 110.148 176.793 109.987 176.267M110.311 173.919C110.096 173.986 109.975 174.213 110.042 174.428L110.55 176.094C110.617 176.309 110.844 176.43 111.055 176.364L111.757 176.149C111.972 176.085 112.093 175.858 112.026 175.644L111.518 173.977C111.451 173.762 111.225 173.641 111.01 173.708L110.308 173.919H110.311Z" fill="#FDC451"/>
<path d="M112.417 179.758L111.309 178.412C111.14 178.206 111.061 177.949 111.088 177.682C111.116 177.416 111.243 177.177 111.449 177.008L112.014 176.542C112.117 176.46 112.232 176.397 112.356 176.361C112.743 176.243 113.161 176.367 113.418 176.681L114.525 178.027C114.694 178.233 114.773 178.493 114.746 178.756C114.718 179.023 114.591 179.262 114.389 179.431L113.823 179.894C113.72 179.978 113.608 180.039 113.484 180.078C113.097 180.196 112.68 180.072 112.423 179.758M112.395 176.999L111.83 177.465C111.745 177.534 111.694 177.631 111.685 177.737C111.673 177.846 111.706 177.952 111.775 178.036L112.882 179.383C112.988 179.51 113.158 179.561 113.315 179.513C113.366 179.497 113.412 179.47 113.454 179.437L114.02 178.971C114.105 178.902 114.156 178.805 114.165 178.699C114.177 178.59 114.144 178.484 114.074 178.402L112.97 177.056C112.864 176.926 112.695 176.878 112.537 176.926C112.489 176.941 112.441 176.966 112.398 176.999" fill="#FDC451"/>
<path d="M115.862 182.002L114.304 181.222C113.811 180.974 113.614 180.375 113.859 179.885L114.186 179.231C114.307 178.989 114.528 178.805 114.785 178.726C115.03 178.65 115.293 178.675 115.523 178.787L117.081 179.567C117.32 179.685 117.495 179.891 117.58 180.142C117.665 180.393 117.644 180.665 117.526 180.904L117.196 181.557C117.075 181.799 116.854 181.984 116.597 182.063C116.352 182.138 116.089 182.117 115.862 181.999M114.715 179.491L114.386 180.145C114.286 180.344 114.368 180.589 114.567 180.689L116.125 181.47C116.319 181.567 116.573 181.482 116.67 181.288L116.999 180.635C117.048 180.538 117.057 180.429 117.024 180.326C116.987 180.223 116.918 180.142 116.821 180.09L115.263 179.31C115.169 179.264 115.063 179.255 114.964 179.286C114.855 179.319 114.77 179.392 114.718 179.491" fill="#FDC451"/>
<path d="M119.683 182.619L117.946 182.468C117.399 182.42 116.993 181.936 117.039 181.388L117.102 180.659C117.138 180.251 117.414 179.912 117.804 179.794C117.928 179.758 118.055 179.742 118.182 179.755L119.919 179.906C120.182 179.93 120.424 180.054 120.593 180.257C120.765 180.459 120.847 180.72 120.823 180.983L120.76 181.712C120.723 182.12 120.448 182.459 120.058 182.58C119.937 182.616 119.81 182.631 119.68 182.619M117.689 180.711L117.626 181.44C117.607 181.66 117.771 181.86 117.995 181.881L119.731 182.032C119.782 182.038 119.837 182.032 119.885 182.017C120.046 181.969 120.158 181.83 120.173 181.663L120.236 180.934C120.245 180.828 120.212 180.723 120.142 180.638C120.073 180.553 119.976 180.502 119.867 180.493L118.131 180.341C118.079 180.338 118.028 180.341 117.977 180.357C117.816 180.405 117.704 180.544 117.689 180.711Z" fill="#FDC451"/>
<path d="M115.417 163.604L114.244 163.961C114.114 164 113.974 163.928 113.935 163.798L113.835 163.474C113.796 163.344 113.869 163.205 113.999 163.165L115.172 162.809C115.302 162.769 115.442 162.842 115.481 162.972L115.581 163.296C115.62 163.426 115.548 163.565 115.417 163.604Z" fill="#FDC451"/>
<path d="M121.386 181.633L120.003 181.763C119.913 181.772 119.831 181.703 119.822 181.612L119.777 181.113C119.767 181.022 119.834 180.94 119.928 180.931L121.31 180.801C121.401 180.792 121.483 180.859 121.492 180.952L121.537 181.452C121.546 181.542 121.476 181.624 121.386 181.633Z" fill="#FDC451"/>
<path d="M122.876 181.176L124.095 180.511C124.176 180.465 124.207 180.365 124.161 180.284L123.922 179.845C123.88 179.763 123.777 179.736 123.696 179.779L122.476 180.444C122.395 180.489 122.365 180.589 122.41 180.671L122.649 181.11C122.694 181.191 122.794 181.221 122.876 181.176Z" fill="#FDC451"/>
<path d="M112.229 164.566L110.95 165.102C110.865 165.138 110.768 165.098 110.732 165.011L110.539 164.551C110.502 164.466 110.545 164.369 110.629 164.333L111.909 163.798C111.993 163.761 112.09 163.804 112.127 163.888L112.32 164.348C112.356 164.433 112.314 164.533 112.229 164.566Z" fill="#FDC451"/>
<path d="M109.982 166.233L109.286 167.434C109.241 167.512 109.138 167.539 109.059 167.494L108.627 167.243C108.548 167.198 108.521 167.095 108.566 167.016L109.262 165.815C109.307 165.736 109.41 165.709 109.489 165.755L109.921 166.006C110 166.051 110.027 166.154 109.982 166.233Z" fill="#FDC451"/>
<path d="M118.974 162.518L117.646 162.923C117.558 162.951 117.464 162.899 117.437 162.811L117.292 162.334C117.265 162.246 117.313 162.152 117.404 162.125L118.732 161.719C118.82 161.692 118.913 161.741 118.94 161.831L119.089 162.309C119.116 162.397 119.064 162.491 118.977 162.518" fill="#FDC451"/>
<path d="M110.709 172.543L111.115 173.871C111.142 173.959 111.094 174.052 111.003 174.08L110.525 174.225C110.437 174.252 110.343 174.201 110.316 174.113L109.911 172.785C109.884 172.697 109.935 172.603 110.023 172.576L110.501 172.431C110.589 172.404 110.682 172.452 110.709 172.54" fill="#FDC451"/>
<path d="M109.688 169.064L110.02 170.41C110.042 170.498 109.987 170.589 109.899 170.613L109.412 170.734C109.324 170.755 109.234 170.701 109.21 170.613L108.877 169.264C108.856 169.176 108.91 169.085 108.998 169.061L109.482 168.94C109.573 168.919 109.663 168.973 109.685 169.061" fill="#FDC451"/>
<path d="M125.588 164.291L126.008 165.443C126.057 165.57 126.196 165.637 126.326 165.589L126.647 165.474C126.774 165.425 126.84 165.283 126.795 165.156L126.374 164.003C126.329 163.873 126.187 163.81 126.057 163.858L125.739 163.973C125.612 164.019 125.545 164.161 125.591 164.291" fill="#FDC451"/>
<path d="M111.787 175.883L112.48 177.086C112.525 177.165 112.498 177.268 112.419 177.313L111.987 177.564C111.908 177.61 111.805 177.583 111.76 177.504L111.067 176.303C111.022 176.224 111.049 176.122 111.127 176.073L111.56 175.822C111.639 175.777 111.742 175.804 111.787 175.883Z" fill="#FDC451"/>
<path d="M113.947 178.826L114.948 179.537C115.06 179.615 115.087 179.77 115.006 179.882L114.812 180.157C114.734 180.269 114.579 180.296 114.467 180.217L113.469 179.506C113.357 179.428 113.33 179.273 113.408 179.162L113.605 178.883C113.687 178.771 113.841 178.747 113.95 178.826" fill="#FDC451"/>
<path d="M116.8 180.405L117.977 180.753C118.107 180.792 118.182 180.928 118.143 181.061L118.046 181.388C118.007 181.518 117.871 181.594 117.738 181.554L116.561 181.206C116.431 181.167 116.355 181.031 116.394 180.898L116.491 180.574C116.531 180.444 116.667 180.369 116.8 180.408" fill="#FDC451"/>
<path d="M121.015 161.892L122.219 161.653C122.352 161.626 122.44 161.496 122.413 161.363L122.349 161.03C122.322 160.897 122.192 160.809 122.059 160.836L120.855 161.075C120.722 161.102 120.634 161.233 120.662 161.366L120.728 161.698C120.755 161.831 120.885 161.919 121.018 161.892" fill="#FDC451"/>
<path d="M123.733 162.031L124.979 162.639C125.061 162.678 125.161 162.645 125.203 162.563L125.421 162.116C125.46 162.034 125.427 161.934 125.345 161.895L124.099 161.287C124.018 161.247 123.918 161.281 123.875 161.362L123.657 161.81C123.618 161.892 123.651 161.992 123.733 162.034" fill="#FDC451"/>
<path d="M126.655 167.676L127.06 169.004C127.087 169.091 127.181 169.14 127.269 169.115L127.747 168.97C127.835 168.943 127.883 168.849 127.859 168.762L127.454 167.434C127.426 167.346 127.332 167.294 127.245 167.322L126.767 167.467C126.679 167.494 126.628 167.588 126.655 167.676Z" fill="#FDC451"/>
<path d="M127.629 171.045L127.728 172.431C127.735 172.522 127.816 172.591 127.907 172.585L128.406 172.549C128.497 172.543 128.566 172.461 128.56 172.37L128.46 170.985C128.454 170.894 128.376 170.825 128.282 170.831L127.783 170.864C127.692 170.87 127.623 170.952 127.629 171.042" fill="#FDC451"/>
<path d="M127.51 174.618L127.02 175.916C126.987 176 127.032 176.097 127.117 176.131L127.586 176.306C127.673 176.339 127.767 176.294 127.8 176.209L128.29 174.911C128.324 174.827 128.278 174.73 128.194 174.697L127.725 174.521C127.64 174.488 127.543 174.533 127.51 174.618Z" fill="#FDC451"/>
<path d="M125.995 177.598L125.212 178.542C125.124 178.647 125.139 178.802 125.245 178.889L125.505 179.107C125.611 179.195 125.765 179.18 125.853 179.074L126.636 178.13C126.724 178.024 126.709 177.87 126.603 177.782L126.343 177.567C126.237 177.48 126.08 177.495 125.995 177.601" fill="#FDC451"/>
<path d="M121.016 182.459L120.66 181.291C120.436 180.556 120.85 179.773 121.588 179.549C122.323 179.325 123.107 179.739 123.331 180.478L123.687 181.645C123.911 182.38 123.497 183.164 122.762 183.388C122.027 183.611 121.243 183.197 121.019 182.462M121.292 181.104L121.649 182.271C121.767 182.662 122.181 182.882 122.571 182.761C122.961 182.643 123.182 182.226 123.061 181.839L122.707 180.671C122.589 180.281 122.172 180.06 121.782 180.178C121.392 180.296 121.171 180.713 121.292 181.104Z" fill="#FDC451"/>
<path d="M126.344 192.974L124.728 193.467L124.274 191.979C123.521 192.078 122.901 191.988 122.42 191.709C121.939 191.428 121.6 190.965 121.401 190.318C121.295 189.973 121.262 189.655 121.295 189.368C121.331 189.081 121.425 188.814 121.582 188.572C121.74 188.327 121.954 188.097 122.23 187.877C122.505 187.659 122.832 187.447 123.207 187.238C123.706 186.957 124.051 186.7 124.241 186.473C124.432 186.243 124.483 185.983 124.393 185.687C124.308 185.414 124.126 185.239 123.842 185.163C123.558 185.088 123.186 185.121 122.729 185.26C122.411 185.357 122.063 185.496 121.679 185.678C121.295 185.859 120.944 186.053 120.623 186.261L120.182 184.815C120.551 184.619 120.878 184.452 121.153 184.316C121.431 184.183 121.691 184.071 121.933 183.98L121.495 182.544L123.11 182.051L123.573 183.569C124.253 183.509 124.831 183.611 125.3 183.884C125.772 184.156 126.096 184.576 126.268 185.145C126.383 185.517 126.428 185.859 126.407 186.165C126.386 186.47 126.298 186.754 126.141 187.015C125.984 187.275 125.766 187.517 125.488 187.747C125.206 187.973 124.861 188.197 124.45 188.415C124.014 188.648 123.694 188.875 123.485 189.09C123.279 189.307 123.222 189.574 123.319 189.891C123.403 190.167 123.579 190.336 123.851 190.406C124.12 190.472 124.508 190.43 125.007 190.279C125.379 190.164 125.784 190.006 126.217 189.804C126.652 189.601 127.103 189.365 127.575 189.09L128.02 190.545C127.699 190.732 127.357 190.914 126.985 191.086C126.616 191.256 126.253 191.41 125.899 191.537L126.338 192.971L126.344 192.974Z" fill="#AFC4E5"/>
<path d="M54.3128 118.789C54.3128 118.789 45.6431 113.785 37.2759 121.463C36.4924 122.183 35.8059 122.963 35.2039 123.792C34.4053 124.896 33.7579 126.088 33.2406 127.34C33.1105 127.652 32.9895 127.97 32.8776 128.287C32.6507 128.926 32.457 129.576 32.2876 130.235C32.2029 130.565 32.1274 130.898 32.0578 131.231C31.2834 134.906 31.3046 138.799 31.6011 142.311C31.6283 142.632 31.6586 142.946 31.6888 143.261C31.7191 143.573 31.7524 143.881 31.7887 144.187C31.8583 144.798 31.9337 145.391 32.0123 145.965C32.0516 146.253 32.0911 146.534 32.1334 146.812C32.3361 148.195 32.5478 149.444 32.7172 150.503C32.7867 150.926 32.8352 151.332 32.8655 151.722C33.0228 153.673 32.7263 155.213 32.1334 156.344C31.7765 157.022 31.3106 157.557 30.7722 157.941C30.0552 158.456 29.2053 158.713 28.2978 158.713C27.838 158.713 27.3661 158.649 26.8881 158.519C26.6491 158.456 26.4131 158.374 26.1741 158.277C25.6962 158.084 25.2757 157.823 24.9006 157.509C22.287 155.313 23.2853 148.446 23.2853 148.446C23.2853 148.446 15.1541 153.274 19.0019 161.91C25.0095 175.396 58.46 178.127 69.592 150.766L54.3128 118.786V118.789Z" fill="#623A16"/>
<path d="M54.3128 118.789C54.3128 118.789 45.6431 113.785 37.2759 121.463C36.4924 122.183 35.8059 122.963 35.2039 123.792C34.4053 124.896 33.7579 126.088 33.2406 127.34C33.1105 127.652 32.9895 127.97 32.8776 128.287C32.6507 128.926 32.457 129.576 32.2876 130.235C32.2029 130.565 32.1274 130.898 32.0578 131.231C31.2834 134.906 31.3046 138.799 31.6011 142.311C31.6283 142.632 31.6586 142.946 31.6888 143.261C31.7191 143.573 31.7524 143.881 31.7887 144.187C31.8583 144.798 31.9337 145.391 32.0123 145.965C32.0516 146.253 32.0911 146.534 32.1334 146.812C32.3361 148.195 32.5478 149.444 32.7172 150.503C32.7867 150.926 32.8352 151.332 32.8655 151.722C33.0228 153.673 32.7263 155.213 32.1334 156.344C31.7765 157.022 31.3106 157.557 30.7722 157.941C30.0552 158.456 29.2053 158.713 28.2978 158.713C27.838 158.713 27.3661 158.649 26.8881 158.519C26.6491 158.456 26.4131 158.374 26.1741 158.277C25.6962 158.084 25.2757 157.823 24.9006 157.509C22.287 155.313 23.2853 148.446 23.2853 148.446C23.2853 148.446 15.1541 153.274 19.0019 161.91C25.0095 175.396 58.46 178.127 69.592 150.766L54.3128 118.786V118.789Z" stroke="#144B5F" stroke-width="1.81198" stroke-miterlimit="10"/>
<path d="M64.4749 150.454C64.4749 150.454 63.9698 150.01 63.1772 149.135C63.15 149.108 63.1167 149.072 63.0895 149.039C63.0411 148.984 62.9926 148.93 62.9412 148.872C62.8504 148.769 62.7539 148.658 62.654 148.546C62.5996 148.482 62.5482 148.422 62.4907 148.355C62.3787 148.222 62.2607 148.083 62.1427 147.938C62.0973 147.883 62.0551 147.832 62.0097 147.774C61.8434 147.568 61.6738 147.354 61.4984 147.127C61.4621 147.078 61.4257 147.027 61.3894 146.982C61.2502 146.797 61.108 146.607 60.9628 146.407C60.8993 146.319 60.8358 146.228 60.7723 146.141C60.6482 145.968 60.5244 145.793 60.3974 145.608C60.3278 145.505 60.2552 145.403 60.1856 145.297C60.0585 145.109 59.9284 144.913 59.7983 144.713C59.7318 144.61 59.6622 144.507 59.5957 144.401C59.4353 144.15 59.2751 143.893 59.1147 143.627C59.0754 143.563 59.0391 143.506 58.9998 143.442C58.8032 143.113 58.6035 142.771 58.4069 142.417C58.3525 142.32 58.298 142.214 58.2436 142.114C58.0984 141.854 57.9562 141.588 57.814 141.313C57.7445 141.177 57.6748 141.041 57.6052 140.901C57.4751 140.647 57.3482 140.387 57.2211 140.124C57.1485 139.976 57.0789 139.828 57.0093 139.676C56.8762 139.395 56.7462 139.105 56.6191 138.811C56.5586 138.675 56.4979 138.542 56.4374 138.403C56.2499 137.967 56.0685 137.522 55.89 137.066C55.887 137.057 55.8839 137.048 55.8809 137.038C55.7084 136.591 55.5391 136.131 55.3728 135.662C55.3183 135.508 55.2667 135.351 55.2153 135.196C55.1004 134.86 54.9916 134.522 54.8827 134.174C54.8252 133.989 54.7709 133.805 54.7134 133.617C54.6136 133.278 54.5168 132.937 54.423 132.589C54.3716 132.398 54.3199 132.208 54.2685 132.014C54.1687 131.624 54.0721 131.224 53.9814 130.822C53.9451 130.668 53.9086 130.52 53.8753 130.362C53.7513 129.803 53.6394 129.231 53.5335 128.65C53.5124 128.538 53.4971 128.42 53.4759 128.305C53.3943 127.83 53.3186 127.352 53.2491 126.862C53.2188 126.657 53.1948 126.445 53.1675 126.236C53.1161 125.825 53.0676 125.41 53.0222 124.987C52.998 124.754 52.9769 124.524 52.9557 124.288C52.9194 123.862 52.8863 123.426 52.8591 122.99C52.844 122.766 52.8286 122.543 52.8195 122.316C52.7923 121.777 52.7772 121.233 52.7681 120.679C52.7681 120.549 52.7593 120.422 52.7593 120.289C52.7532 119.602 52.7591 118.907 52.7802 118.199C52.7863 118.005 52.7984 117.809 52.8045 117.612C52.8256 117.089 52.853 116.562 52.8893 116.03C52.9074 115.77 52.9286 115.503 52.9498 115.24C52.9891 114.75 53.0375 114.257 53.0919 113.758C53.1222 113.483 53.1523 113.204 53.1855 112.926C53.2491 112.4 53.3248 111.864 53.4065 111.326C53.4428 111.078 53.4761 110.83 53.5185 110.579C53.6455 109.789 53.7877 108.991 53.948 108.177C54.8283 103.779 56.0354 99.831 57.4722 96.3068C58.6217 93.4875 59.9223 90.9405 61.3229 88.6536C62.0247 87.5102 62.7506 86.4302 63.4948 85.4138C68.3408 78.8072 74.0128 74.8656 78.8921 73.1353C79.6423 72.8691 80.3745 72.6544 81.0823 72.494C81.4362 72.4124 81.7839 72.3428 82.1227 72.2883C83.8258 72.007 85.3564 72.0373 86.6239 72.3549C86.6239 72.3549 90.4205 69.6021 96.4463 67.4483C96.6702 67.3697 96.8968 67.288 97.1237 67.2124C97.9616 66.9281 98.839 66.6558 99.7525 66.4077C100.149 66.2988 100.551 66.196 100.96 66.0931C101.934 65.8572 102.941 65.6454 103.982 65.47C104.257 65.4246 104.538 65.3792 104.816 65.3399C105.621 65.2219 106.444 65.1251 107.285 65.0556C107.651 65.0253 108.02 64.9981 108.392 64.9799C108.927 64.9497 109.469 64.9315 110.02 64.9255C110.957 64.9134 111.913 64.9376 112.884 65.0041C113.199 65.0253 113.513 65.0495 113.831 65.0798C116.366 65.3157 118.992 65.833 121.666 66.7193C124.34 67.6026 127.062 68.858 129.791 70.5641C130.229 70.8394 130.668 71.1237 131.107 71.4171C131.225 71.4958 131.339 71.5744 131.457 71.6531C131.839 71.9102 132.22 72.1734 132.598 72.4456C132.659 72.488 132.722 72.5303 132.783 72.5757C133.212 72.8843 133.638 73.2019 134.065 73.5256C134.174 73.6072 134.283 73.6919 134.392 73.7766C134.746 74.0489 135.097 74.3272 135.448 74.6115C135.535 74.6841 135.623 74.7507 135.711 74.8233C136.128 75.1651 136.546 75.516 136.957 75.873C137.051 75.9547 137.145 76.0393 137.238 76.121C137.58 76.4205 137.916 76.723 138.252 77.0315C138.351 77.1223 138.451 77.213 138.551 77.3068C138.956 77.6849 139.362 78.0661 139.758 78.4593C139.828 78.5289 139.897 78.5985 139.967 78.6681C140.306 79.0038 140.645 79.3456 140.977 79.6935C141.08 79.7994 141.183 79.9053 141.283 80.0142C141.673 80.4256 142.063 80.843 142.447 81.2696C142.481 81.3059 142.511 81.3422 142.541 81.3754C142.895 81.7717 143.246 82.1771 143.591 82.5854C143.691 82.7004 143.788 82.8184 143.887 82.9363C144.235 83.3538 144.58 83.7742 144.919 84.2008C144.946 84.234 144.973 84.2673 144.998 84.3006C145.361 84.7604 145.714 85.2263 146.065 85.6982C146.156 85.8192 146.247 85.9432 146.335 86.0672C146.631 86.4726 146.925 86.8839 147.215 87.3014C147.272 87.3831 147.333 87.4648 147.387 87.5495C147.723 88.0365 148.05 88.5296 148.374 89.0317C148.452 89.1527 148.528 89.2737 148.603 89.3947C148.87 89.8122 149.13 90.2326 149.387 90.6591C149.456 90.7741 149.526 90.889 149.595 91.004C149.904 91.5213 150.203 92.0446 150.497 92.574C150.515 92.6073 150.533 92.6375 150.551 92.6677C150.548 92.6617 150.542 92.6587 150.539 92.6526C159.877 109.541 162.304 132.822 147.672 159.672L69.4966 153.246C69.4966 153.246 66.9252 153.15 64.4628 150.469" fill="#623A16"/>
<path d="M64.4749 150.454C64.4749 150.454 63.9698 150.01 63.1772 149.135C63.15 149.108 63.1167 149.072 63.0895 149.039C63.0411 148.984 62.9926 148.93 62.9412 148.872C62.8504 148.769 62.7539 148.658 62.654 148.546C62.5996 148.482 62.5482 148.422 62.4907 148.355C62.3788 148.222 62.2607 148.083 62.1427 147.938C62.0973 147.883 62.0551 147.832 62.0097 147.774C61.8434 147.568 61.6738 147.354 61.4984 147.127C61.4621 147.078 61.4257 147.027 61.3894 146.982C61.2502 146.797 61.108 146.607 60.9628 146.407C60.8993 146.319 60.8358 146.228 60.7723 146.141C60.6482 145.968 60.5244 145.793 60.3974 145.608C60.3278 145.505 60.2552 145.403 60.1856 145.297C60.0585 145.109 59.9284 144.913 59.7983 144.713C59.7318 144.61 59.6622 144.507 59.5957 144.401C59.4353 144.15 59.2751 143.893 59.1147 143.627C59.0754 143.563 59.0391 143.506 58.9998 143.442C58.8032 143.113 58.6035 142.771 58.4069 142.417C58.3525 142.32 58.298 142.214 58.2436 142.114C58.0984 141.854 57.9562 141.588 57.814 141.313C57.7445 141.177 57.6748 141.041 57.6052 140.901C57.4751 140.647 57.3482 140.387 57.2211 140.124C57.1485 139.976 57.0789 139.828 57.0093 139.676C56.8762 139.395 56.7462 139.105 56.6191 138.811C56.5586 138.675 56.4979 138.542 56.4374 138.403C56.2499 137.967 56.0685 137.522 55.89 137.066C55.887 137.057 55.8839 137.048 55.8809 137.038C55.7084 136.591 55.5391 136.131 55.3728 135.662C55.3183 135.508 55.2667 135.351 55.2153 135.196C55.1004 134.86 54.9916 134.522 54.8827 134.174C54.8252 133.989 54.7709 133.805 54.7134 133.617C54.6136 133.278 54.5168 132.937 54.423 132.589C54.3716 132.398 54.3199 132.208 54.2685 132.014C54.1687 131.624 54.0721 131.224 53.9814 130.822C53.9451 130.668 53.9086 130.52 53.8753 130.362C53.7513 129.803 53.6394 129.231 53.5335 128.65C53.5124 128.538 53.4971 128.42 53.4759 128.305C53.3943 127.83 53.3186 127.352 53.2491 126.862C53.2188 126.657 53.1948 126.445 53.1675 126.236C53.1161 125.825 53.0676 125.41 53.0222 124.987C52.998 124.754 52.9769 124.524 52.9557 124.288C52.9194 123.862 52.8863 123.426 52.8591 122.99C52.844 122.766 52.8286 122.543 52.8195 122.316C52.7923 121.777 52.7772 121.233 52.7681 120.679C52.7681 120.549 52.7593 120.422 52.7593 120.289C52.7532 119.602 52.7591 118.907 52.7802 118.199C52.7863 118.005 52.7984 117.809 52.8045 117.612C52.8256 117.089 52.853 116.562 52.8893 116.03C52.9074 115.77 52.9286 115.503 52.9498 115.24C52.9891 114.75 53.0375 114.257 53.0919 113.758C53.1222 113.483 53.1523 113.204 53.1855 112.926C53.2491 112.4 53.3248 111.864 53.4065 111.326C53.4428 111.078 53.4761 110.83 53.5185 110.579C53.6455 109.789 53.7877 108.991 53.948 108.177C54.8283 103.779 56.0354 99.831 57.4722 96.3068C58.6217 93.4875 59.9223 90.9405 61.3229 88.6536C62.0247 87.5102 62.7506 86.4302 63.4948 85.4138C68.3408 78.8072 74.0128 74.8656 78.8921 73.1353C79.6423 72.8691 80.3745 72.6544 81.0823 72.494C81.4362 72.4124 81.7839 72.3428 82.1227 72.2883C83.8258 72.007 85.3564 72.0373 86.6239 72.3549C86.6239 72.3549 90.4205 69.6021 96.4463 67.4483C96.6702 67.3697 96.8968 67.288 97.1237 67.2124C97.9616 66.9281 98.839 66.6558 99.7525 66.4077C100.149 66.2988 100.551 66.196 100.96 66.0931C101.934 65.8572 102.941 65.6454 103.982 65.47C104.257 65.4246 104.538 65.3792 104.816 65.3399C105.621 65.2219 106.444 65.1251 107.285 65.0556C107.651 65.0253 108.02 64.9981 108.392 64.9799C108.927 64.9497 109.469 64.9315 110.02 64.9255C110.957 64.9134 111.913 64.9376 112.884 65.0041C113.199 65.0253 113.513 65.0495 113.831 65.0798C116.366 65.3157 118.992 65.833 121.666 66.7193C124.34 67.6026 127.062 68.858 129.791 70.5641C130.229 70.8394 130.668 71.1237 131.107 71.4171C131.225 71.4958 131.339 71.5744 131.457 71.6531C131.839 71.9102 132.22 72.1734 132.598 72.4456C132.659 72.488 132.722 72.5303 132.783 72.5757C133.212 72.8843 133.638 73.2019 134.065 73.5256C134.174 73.6072 134.283 73.6919 134.392 73.7766C134.746 74.0489 135.097 74.3272 135.448 74.6115C135.535 74.6841 135.623 74.7507 135.711 74.8233C136.128 75.1651 136.546 75.516 136.957 75.873C137.051 75.9547 137.145 76.0393 137.238 76.121C137.58 76.4205 137.916 76.723 138.252 77.0315C138.351 77.1223 138.451 77.213 138.551 77.3068C138.956 77.6849 139.362 78.0661 139.758 78.4593C139.828 78.5289 139.897 78.5985 139.967 78.6681C140.306 79.0038 140.645 79.3456 140.977 79.6935C141.08 79.7994 141.183 79.9053 141.283 80.0142C141.673 80.4256 142.063 80.843 142.447 81.2696C142.481 81.3059 142.511 81.3422 142.541 81.3754C142.895 81.7717 143.246 82.1771 143.591 82.5854C143.691 82.7004 143.788 82.8184 143.887 82.9363C144.235 83.3538 144.58 83.7742 144.919 84.2008C144.946 84.234 144.973 84.2673 144.998 84.3006C145.361 84.7604 145.714 85.2263 146.065 85.6982C146.156 85.8192 146.247 85.9432 146.335 86.0672C146.631 86.4726 146.925 86.884 147.215 87.3014C147.272 87.3831 147.333 87.4648 147.387 87.5495C147.723 88.0365 148.05 88.5296 148.374 89.0317C148.452 89.1527 148.528 89.2737 148.603 89.3947C148.87 89.8122 149.13 90.2326 149.387 90.6591C149.456 90.7741 149.526 90.889 149.595 91.004C149.904 91.5213 150.203 92.0446 150.497 92.574C150.515 92.6073 150.533 92.6375 150.551 92.6677C150.548 92.6617 150.542 92.6587 150.539 92.6526C159.877 109.541 162.304 132.822 147.672 159.672L69.4966 153.246C69.4966 153.246 66.9252 153.15 64.4628 150.469L64.4749 150.454Z" stroke="#144B5F" stroke-width="1.81198" stroke-miterlimit="10"/>
<path d="M58.1679 125.658C60.7754 121.1 65.2039 124.938 65.2039 124.938C65.7847 115.688 68.8158 107.185 71.1632 102.792C78.0058 90.0027 91.724 84.1614 106.311 83.4838C121.678 82.773 137.087 88.2936 145.578 101.107C151.305 109.75 152.336 134.386 152.336 134.386C152.336 134.386 157.485 131.587 159.052 136.6C160.622 141.612 158.014 147.762 154.242 148.89C150.467 150.016 147.777 148.189 147.777 148.189C147.777 148.189 139.141 160.479 127.97 164.902C112.787 170.909 92.689 168.217 79.8781 158.498C74.1095 154.121 69.9591 148.122 67.4151 141.491C67.1459 140.789 66.6952 139.395 66.6952 139.395C66.6952 139.395 63.6762 140.602 60.2307 138.693C56.7852 136.784 55.5603 130.214 58.1679 125.658Z" fill="#FDCB9B"/>
<path d="M58.1679 125.658C60.7754 121.1 65.2039 124.938 65.2039 124.938C65.7847 115.688 68.8158 107.185 71.1632 102.792C78.0058 90.0027 91.724 84.1614 106.311 83.4838C121.678 82.773 137.087 88.2936 145.578 101.107C151.305 109.75 152.336 134.386 152.336 134.386C152.336 134.386 157.485 131.587 159.052 136.6C160.622 141.612 158.014 147.762 154.242 148.89C150.467 150.016 147.777 148.189 147.777 148.189C147.777 148.189 139.141 160.479 127.97 164.902C112.787 170.909 92.689 168.217 79.8781 158.498C74.1095 154.121 69.9591 148.122 67.4151 141.491C67.1459 140.789 66.6952 139.395 66.6952 139.395C66.6952 139.395 63.6762 140.602 60.2307 138.693C56.7852 136.784 55.5603 130.214 58.1679 125.658Z" stroke="#144B5F" stroke-width="1.81198" stroke-miterlimit="10"/>
<path d="M91.3498 117.179C92.4932 116.735 93.5066 116.378 94.4897 116.16C95.4668 115.942 96.3804 115.876 97.2728 115.982C98.1682 116.078 99.0665 116.339 100.01 116.741C100.963 117.125 101.925 117.654 103.054 118.16C102.706 116.971 102.007 115.945 101.066 115.107C100.131 114.275 98.8881 113.661 97.5389 113.522C96.1928 113.362 94.8135 113.71 93.7275 114.378C93.18 114.714 92.696 115.122 92.2907 115.591C91.8883 116.06 91.5434 116.584 91.3498 117.179Z" fill="#144B5F"/>
<path d="M110.641 140.115C110.656 140.115 110.674 140.115 110.692 140.115C111.312 140.124 113.384 140.066 113.911 139.011C114.074 138.684 114.156 138.143 113.617 137.441C112.583 136.101 113.89 134.67 113.947 134.609C114.168 134.37 114.156 133.998 113.92 133.774C113.684 133.551 113.312 133.563 113.088 133.799C112.371 134.558 111.361 136.449 112.683 138.161C112.858 138.388 112.855 138.487 112.855 138.487C112.752 138.693 111.742 138.944 110.71 138.929C110.384 138.926 110.118 139.186 110.112 139.513C110.109 139.821 110.341 140.079 110.644 140.109" fill="#144B5F"/>
<path d="M124.157 118.562C125.301 118.117 126.314 117.76 127.294 117.542C128.271 117.325 129.185 117.258 130.08 117.364C130.976 117.461 131.874 117.721 132.818 118.123C133.771 118.507 134.733 119.037 135.864 119.542C135.516 118.353 134.817 117.328 133.877 116.49C132.942 115.658 131.699 115.044 130.35 114.905C129.003 114.744 127.624 115.092 126.538 115.761C125.991 116.096 125.507 116.505 125.101 116.974C124.699 117.443 124.354 117.966 124.16 118.562" fill="#144B5F"/>
<path d="M119.059 150.055C108.345 165.722 102.903 148.54 102.903 148.54L119.059 150.055Z" fill="#144B5F"/>
<path d="M109.719 157.569C104.546 156.807 102.068 149.163 101.965 148.836C101.865 148.521 101.929 148.176 102.138 147.919C102.343 147.662 102.679 147.523 102.997 147.556L119.153 149.072C119.501 149.105 119.804 149.317 119.952 149.634C120.1 149.949 120.07 150.321 119.873 150.608C116.519 155.515 113.227 157.868 110.088 157.608C109.963 157.599 109.842 157.584 109.721 157.566M104.401 149.665C105.284 151.691 107.202 155.206 110.012 155.618C112.154 155.932 114.64 154.296 117.257 150.869L104.397 149.662L104.401 149.665Z" fill="#144B5F"/>
<path d="M115.175 155.582C115.175 155.582 108.248 160.718 105.713 153.876C105.713 153.876 110.245 149.807 115.175 155.582Z" fill="#F05C86"/>
<path d="M95.1684 144.628C95.6554 140.127 92.4036 136.085 87.9054 135.595C83.4042 135.108 79.3627 138.36 78.8727 142.858C78.3857 147.36 81.6378 151.401 86.1359 151.891C90.6371 152.378 94.6784 149.126 95.1684 144.628Z" fill="#F7A199"/>
<path d="M144.275 147.278C144.762 142.777 141.51 138.736 137.012 138.246C132.511 137.759 128.469 141.01 127.979 145.509C127.492 150.01 130.744 154.051 135.243 154.541C139.744 155.028 143.785 151.776 144.275 147.278Z" fill="#F7A199"/>
<path d="M155.505 112.884C151.019 91.5305 138.501 79.7753 124.386 74.5058C110.874 69.4631 91.7619 78.5563 90.1617 79.3397C90.0891 79.376 90.0165 79.3851 89.9378 79.373C88.4072 79.125 71.9604 77.0165 62.6041 98.7875C60.29 104.169 64.9848 104.275 64.2557 108.682C62.8189 110.9 62.8974 118.386 62.8974 118.386C62.8974 118.386 64.5823 138.472 66.8087 148.068C66.9387 148.558 67.674 148.382 67.5711 147.886C67.0296 145.309 65.8438 148.083 65.2932 144.719C65.384 142.354 66.4487 134.331 67.7646 133.56C71.4218 131.409 68.3425 118.749 68.3395 118.743C68.3395 118.743 82.3783 111.408 84.647 114.033L83.8151 107.675C83.8151 107.675 84.9103 96.8787 87.0126 94.5071C87.0126 94.5071 88.852 111.523 94.4936 111.359C100.135 111.196 106.578 110.624 106.578 110.624C106.578 110.624 108.197 100.203 105.293 96.5762C105.293 96.5762 113.445 104.783 114.498 111.665C114.498 111.665 117.338 98.4517 115.796 95.5235C115.796 95.5235 121.598 99.217 120.826 105.164C120.055 111.111 137.521 114.953 140.752 114.436C140.752 114.436 142.361 109.756 138.525 102.569C138.525 102.569 142.04 102.735 145.737 113.915C149.43 125.093 149.903 132.056 149.903 132.056C149.903 132.084 152.017 138.993 151.79 144.12C151.019 147.532 149.896 151.014 148.323 154.396L149.53 154.862C149.53 154.862 159.991 134.237 155.505 112.884Z" fill="#623A16"/>
<path d="M147.751 155.603C147.947 155.621 148.162 155.609 148.392 155.551C150.567 154.992 152.684 150.581 154.684 142.441C158.544 126.747 157.231 122.007 157.174 121.814C157.077 121.487 156.732 121.302 156.405 121.399C156.079 121.496 155.894 121.838 155.988 122.161C156.006 122.225 157.222 126.941 153.483 142.148C151.526 150.103 149.829 152.889 148.837 153.86C150.047 152.372 151.723 149.616 152.08 145.499C152.536 140.227 151.093 133.765 148.909 123.983C148.443 121.889 147.959 119.726 147.445 117.358C144.447 103.546 137.263 100.914 136.96 100.808C136.67 100.708 136.349 100.838 136.21 101.114C136.071 101.389 136.156 101.725 136.41 101.9C141.274 105.273 140.345 112.953 140.167 114.16C138.815 114.578 130.157 112.79 125.348 109.853C121.294 107.378 121.327 106.289 121.397 104.123C121.409 103.754 121.421 103.334 121.418 102.883C121.382 99.5042 116.4 95.236 116.188 95.0545C115.985 94.882 115.692 94.8579 115.465 95C115.238 95.1392 115.126 95.4084 115.186 95.6685C116.07 99.3621 115.096 105.591 114.421 109.039C112.31 103.866 106.066 96.5428 105.752 96.1768C105.54 95.9287 105.168 95.8894 104.908 96.089C104.647 96.2887 104.587 96.6547 104.771 96.927C107.618 101.126 106.393 108.38 106.048 110.11C104.659 110.391 99.6743 111.287 94.5469 110.751C89.8945 110.267 87.9674 98.8297 87.6196 94.4616C87.5984 94.1833 87.3899 93.9564 87.1177 93.905C86.8424 93.8536 86.5699 93.9957 86.4489 94.2468C84.2678 98.8115 83.5207 105.001 83.4965 106.74C83.4784 108.068 83.7871 111.544 83.9414 113.201C79.3737 112.478 69.2701 117.576 68.051 118.202C67.7848 118.341 67.6548 118.649 67.7455 118.937C70.0748 126.288 69.3032 131.702 67.4005 133.067C66.2994 133.856 65.6671 135.562 65.3102 137.168C64.4844 133.091 63.3441 126.393 63.9037 122.815C63.9582 122.479 63.7252 122.162 63.3894 122.11C63.0537 122.053 62.736 122.289 62.6846 122.624C61.8073 128.218 64.7357 140.381 64.8597 140.895C64.9323 141.195 65.2135 141.394 65.519 141.364C65.8246 141.334 66.0635 141.083 66.0756 140.774C66.1361 139.271 66.6231 135.139 68.1175 134.068C70.3166 132.495 71.5206 127.147 69.0764 119.064C72.8213 117.191 81.6603 113.319 84.3798 114.596C84.5795 114.69 84.8184 114.669 84.9969 114.542C85.1784 114.414 85.2754 114.197 85.2542 113.976C85.2482 113.921 84.7036 108.419 84.7278 106.752C84.7459 105.409 85.2724 100.932 86.6639 96.9693C87.3113 101.637 89.2774 111.441 94.4199 111.976C94.4895 111.982 94.5621 111.991 94.6317 111.997C100.766 112.59 106.465 111.284 106.707 111.226C106.934 111.172 107.113 110.996 107.167 110.769C107.237 110.476 108.489 105.076 107.427 100.227C110.044 103.63 113.707 108.867 113.871 111.701C113.889 112.007 114.137 112.255 114.43 112.279C114.733 112.306 115.014 112.106 115.087 111.813C115.184 111.417 117.231 102.959 116.678 97.2052C118.209 98.7571 120.16 101.135 120.181 102.895C120.187 103.319 120.172 103.709 120.16 104.084C120.075 106.695 120.238 108.186 124.7 110.908C129.392 113.77 138.827 116.102 140.745 115.255C141.189 115.059 141.31 114.735 141.347 114.557C141.704 112.711 141.924 108.437 140.315 104.855C142.384 107.124 144.81 111.039 146.238 117.621C146.752 119.996 147.236 122.161 147.702 124.255C149.862 133.923 151.287 140.311 150.845 145.397C150.331 151.332 146.816 154.202 146.78 154.23C146.646 154.335 146.562 154.496 146.55 154.665C146.538 154.838 146.595 155.004 146.713 155.131C146.883 155.315 147.248 155.561 147.741 155.609" fill="#144B5F"/>
<path d="M130.687 122.645C128.27 122.358 124.498 123.786 122.962 128.063C121.095 133.263 123.089 138.757 128.782 139.156C134.892 139.585 137.566 135.266 137.406 130.952C137.23 126.333 134.925 123.154 130.687 122.645Z" fill="white"/>
<path d="M122.757 128.992C124.384 124.811 128.583 122.597 131.95 123.88C133.314 124.4 134.712 125.553 135.48 127.056C136.339 128.741 136.252 130.789 137.047 132.459C137.174 132.722 137.558 132.918 137.743 132.586C138.907 130.45 137.83 127.368 136.751 125.607C135.628 123.771 133.783 122.419 131.962 121.935C130.105 121.442 127.948 121.729 126.184 122.845C124.061 124.188 123.271 126.167 122.612 128.901C122.575 129.056 122.69 129.167 122.76 128.992" fill="#144B5F"/>
<path d="M124.534 130.229C124.973 126.421 127.771 123.617 130.784 123.961C133.797 124.309 135.881 127.676 135.442 131.485C135.004 135.293 132.206 138.097 129.193 137.752C126.18 137.405 124.095 134.038 124.534 130.229Z" fill="#144B5F"/>
<path d="M130.572 130.187C130.711 128.968 131.607 128.072 132.569 128.184C133.531 128.296 134.199 129.373 134.057 130.589C133.918 131.808 133.022 132.704 132.06 132.592C131.098 132.48 130.43 131.406 130.572 130.187Z" fill="white"/>
<path d="M97.9515 121.351C100.329 121.877 103.415 124.476 103.448 129.019C103.49 134.546 99.7876 139.068 94.2851 137.559C88.3773 135.943 87.2823 130.982 88.8614 126.965C90.5554 122.664 93.783 120.425 97.9515 121.351Z" fill="white"/>
<path d="M103.333 129.963C103.182 125.48 99.9513 122.001 96.3486 122.098C94.8905 122.137 93.1874 122.76 91.9653 123.928C90.598 125.232 90.0021 127.195 88.6983 128.508C88.4926 128.717 88.0631 128.774 88.0026 128.399C87.6094 125.997 89.6481 123.447 91.2483 122.143C92.9151 120.782 95.1052 120.117 96.9837 120.262C98.9015 120.41 100.841 121.396 102.135 123.033C103.693 125.002 103.787 127.132 103.503 129.93C103.487 130.087 103.339 130.154 103.333 129.966" fill="#144B5F"/>
<path d="M102.428 130.846C103.272 127.108 101.563 123.535 98.6046 122.866C95.6461 122.198 92.5637 124.688 91.7197 128.426C90.8727 132.165 92.5848 135.738 95.5432 136.406C98.5017 137.075 101.584 134.588 102.428 130.846Z" fill="#144B5F"/>
<path d="M101.784 129.806C101.902 128.587 101.215 127.522 100.25 127.428C99.2848 127.334 98.4077 128.248 98.2897 129.467C98.1718 130.686 98.8585 131.751 99.8235 131.845C100.788 131.938 101.666 131.025 101.784 129.806Z" fill="white"/>
<path d="M80.7298 58.7816L106.823 54.719C129.054 51.2584 149.881 66.4742 153.342 88.7019L155.611 103.267L49.0154 119.862L46.7467 105.297C43.2861 83.0663 58.5021 62.2392 80.7298 58.7786" fill="#25A8E0"/>
<path d="M48.5281 120.525L46.1717 105.388C44.4746 94.4828 47.1245 83.5717 53.6343 74.66C60.1441 65.7484 69.7332 59.9071 80.6383 58.2101L106.732 54.1475C129.241 50.6445 150.404 66.1053 153.91 88.6143L156.267 103.751L48.5311 120.525H48.5281ZM54.566 75.3437C48.2377 84.0042 45.6633 94.6129 47.3119 105.209L49.49 119.206L154.942 102.789L152.764 88.7958C149.357 66.916 128.784 51.8878 106.904 55.2939L80.8109 59.3565C73.0941 60.5574 66.0579 63.894 60.3558 68.9609C58.2262 70.8545 56.2843 72.9902 54.5631 75.3466" fill="#164C60"/>
<path d="M93.4826 56.7973L106.823 54.7222C129.054 51.2616 149.881 66.4773 153.342 88.7081L155.61 103.273L142.273 105.352L140.004 90.7862C136.543 68.5555 115.717 53.3398 93.4888 56.8004" fill="#00A69C"/>
<path d="M141.787 106.008L139.43 90.871C137.781 80.2714 132.1 70.9513 123.44 64.623C114.779 58.2947 104.171 55.7174 93.5741 57.3691L93.3957 56.2256L106.733 54.1505C129.242 50.6445 150.405 66.1083 153.911 88.6173L156.267 103.754L141.787 106.008ZM124.12 63.6883C133.032 70.1981 138.873 79.7904 140.57 90.6925L142.751 104.686L154.948 102.786L152.77 88.7928C149.364 66.913 128.791 51.8848 106.914 55.2909L103.233 55.8657C110.717 56.4828 117.907 59.1478 124.123 63.6883" fill="#164C60"/>
<path d="M79.7408 100.596L74.8435 101.359L74.1386 96.8454C71.9062 96.8212 70.1485 96.3039 68.8629 95.2875C67.5803 94.2741 66.7848 92.7858 66.4792 90.8226C66.3159 89.7759 66.3462 88.8442 66.567 88.0214C66.7878 87.1986 67.1779 86.4666 67.7315 85.8223C68.2881 85.1779 69.0113 84.5972 69.9036 84.0738C70.796 83.5535 71.8305 83.0695 73.0072 82.6249C74.5711 82.0108 75.6813 81.4118 76.3347 80.828C76.9881 80.2472 77.2452 79.5061 77.106 78.6107C76.976 77.7788 76.5132 77.195 75.7176 76.8592C74.922 76.5234 73.83 76.4629 72.4415 76.6807C71.4826 76.8289 70.4086 77.0921 69.2198 77.4612C68.0309 77.8302 66.9271 78.2507 65.9076 78.7135L65.2238 74.3273C66.3823 73.9068 67.3928 73.5589 68.2579 73.2806C69.1231 73.0023 69.9247 72.7875 70.6628 72.6272L69.9852 68.2742L74.8828 67.512L75.5997 72.1221C77.6053 72.2249 79.2357 72.7694 80.4941 73.7556C81.7525 74.7387 82.5149 76.0969 82.7841 77.8242C82.9596 78.9555 82.9534 79.9628 82.7628 80.8431C82.5723 81.7264 82.1973 82.5099 81.6376 83.1996C81.078 83.8893 80.3429 84.5034 79.4324 85.0509C78.5249 85.5954 77.4268 86.1006 76.1442 86.5634C74.7799 87.0595 73.7483 87.5798 73.0586 88.1243C72.3659 88.6688 72.0968 89.422 72.248 90.381C72.3781 91.2128 72.8226 91.7846 73.5788 92.0901C74.3381 92.3986 75.4757 92.4349 76.9882 92.199C78.1195 92.0235 79.3568 91.7301 80.7059 91.3248C82.052 90.9194 83.4646 90.4142 84.9468 89.8123L85.6336 94.2287C84.6293 94.6462 83.5492 95.0274 82.4027 95.3722C81.2532 95.714 80.1401 96.0014 79.0602 96.2374L79.7378 100.59L79.7408 100.596Z" fill="#DFDDDF"/>
<path d="M74.3592 102.021L73.6422 97.411C71.5156 97.3172 69.7885 96.7576 68.5059 95.7442C67.1114 94.6431 66.2371 93.0157 65.9104 90.9133C65.735 89.794 65.7713 88.7716 66.0103 87.8731C66.2523 86.9747 66.6849 86.158 67.2959 85.4471C67.8918 84.7574 68.6723 84.1282 69.6131 83.5777C70.5297 83.0422 71.6034 82.5401 72.7953 82.0893C74.2836 81.5055 75.3424 80.9368 75.9414 80.4044C75.9414 80.4044 75.9473 80.4014 75.9473 80.3984C76.4555 79.9446 76.6402 79.4062 76.5313 78.7014C76.4315 78.0691 76.1016 77.6517 75.4906 77.3945C74.7979 77.1041 73.8026 77.0557 72.5291 77.2554C71.6034 77.4006 70.5478 77.6547 69.3892 78.0177C68.2306 78.3777 67.1384 78.7921 66.1432 79.2458L65.4505 79.5604L64.5764 73.9491L65.0242 73.7857C66.1918 73.3653 67.2172 73.0113 68.0793 72.733C68.7539 72.5183 69.3982 72.3337 70.0092 72.1855L69.3257 67.7932L75.3665 66.8524L76.1015 71.5775C78.0103 71.7469 79.6045 72.3247 80.8508 73.2987C82.2211 74.3696 83.0652 75.8639 83.3556 77.7333C83.5401 78.9312 83.5341 80.0172 83.3284 80.964C83.1197 81.932 82.7021 82.8063 82.088 83.5625C81.489 84.2976 80.6965 84.9661 79.7315 85.5439C78.7968 86.1066 77.6566 86.6299 76.3437 87.1048C75.0399 87.5797 74.0538 88.0758 73.4186 88.578C72.8952 88.9924 72.7015 89.5369 72.8195 90.2931C72.9163 90.9254 73.228 91.3247 73.7967 91.5576C74.4531 91.8238 75.4967 91.848 76.9003 91.6302C77.9953 91.4608 79.2205 91.1704 80.5394 90.7741C81.8704 90.3718 83.28 89.8696 84.7289 89.2798L85.4066 89.0045L86.2778 94.5917L85.8604 94.7671C84.8409 95.1906 83.7338 95.5839 82.5722 95.9287C81.6011 96.2191 80.645 96.4702 79.7194 96.685L80.4033 101.074L74.3654 102.015L74.3592 102.021ZM78.9392 95.6777C79.9979 95.4478 81.1079 95.1604 82.2363 94.8246C83.2043 94.5372 84.127 94.2166 84.9922 93.8717L84.487 90.6229C83.2407 91.1099 82.0276 91.5334 80.8721 91.8843C79.5017 92.2957 78.2252 92.5982 77.0787 92.7767C75.4422 93.0308 74.2261 92.9854 73.361 92.6315C72.4172 92.2473 71.8363 91.5031 71.6759 90.4746C71.4944 89.313 71.8486 88.345 72.7016 87.6735C73.4458 87.0866 74.5073 86.5452 75.9502 86.0218C77.1935 85.5741 78.2644 85.0811 79.1386 84.5577C79.9886 84.0495 80.6783 83.4687 81.1926 82.8365C81.6917 82.2224 82.0308 81.5116 82.2032 80.722C82.3786 79.9144 82.3816 78.9706 82.2183 77.9118C81.9702 76.3177 81.2925 75.1077 80.143 74.2092C78.9874 73.3048 77.4509 72.7965 75.5754 72.6997L75.1063 72.6755L74.4047 68.1743L70.6476 68.7582L71.3191 73.0809L70.7868 73.1958C70.0638 73.3531 69.2741 73.5649 68.4362 73.8341C67.7011 74.0701 66.8391 74.3665 65.8711 74.7114L66.3642 77.8846C67.2082 77.5307 68.1096 77.204 69.0503 76.9105C70.2634 76.5324 71.3734 76.2632 72.3566 76.1089C73.866 75.873 75.0399 75.9456 75.9443 76.3267C76.9184 76.7381 77.5172 77.4974 77.6775 78.5229C77.8469 79.6058 77.5144 80.5526 76.7218 81.2605C76.7218 81.2605 76.7157 81.2666 76.7127 81.2696C76.0018 81.9018 74.8583 82.5219 73.2127 83.1693C72.0722 83.6019 71.059 84.0737 70.1968 84.5789C69.368 85.0629 68.6872 85.6104 68.173 86.2064C67.6769 86.7841 67.323 87.4466 67.1263 88.1787C66.9267 88.9168 66.9025 89.7789 67.0507 90.7408C67.332 92.5468 68.0613 93.9262 69.2229 94.8397C70.3966 95.7684 72.0541 96.2494 74.1444 96.2705L74.6345 96.2766L75.3243 100.705L79.0813 100.121L78.4098 95.7987L78.9422 95.6837L78.9392 95.6777Z" fill="#164C60"/>
<path d="M10.4019 112.07L94.6694 98.9507C102.114 97.7922 109.09 102.886 110.248 110.334L12.5011 125.55C8.77733 126.13 5.2895 123.58 4.71173 119.857C4.13093 116.136 6.67814 112.648 10.4019 112.067" fill="#383339"/>
<path d="M12.5881 126.121C10.634 126.427 8.67998 125.952 7.08581 124.784C5.49163 123.62 4.44491 121.901 4.13939 119.947C3.83386 117.993 4.30876 116.039 5.47641 114.445C6.64406 112.848 8.35931 111.804 10.3135 111.498L94.581 98.379C98.335 97.7951 102.092 98.7057 105.159 100.947C108.227 103.189 110.238 106.489 110.822 110.243L110.91 110.815L12.5914 126.121H12.5881ZM6.40814 115.125C5.42501 116.471 5.02586 118.12 5.27996 119.769C5.53709 121.417 6.41728 122.866 7.76643 123.849C9.11256 124.833 10.7611 125.235 12.4097 124.978L109.576 109.853C108.931 106.64 107.138 103.827 104.476 101.882C101.656 99.8219 98.2079 98.984 94.7594 99.5224L10.4919 112.642C9.29096 112.829 8.19901 113.347 7.31268 114.136C6.98296 114.43 6.68032 114.762 6.41109 115.128" fill="#164C60"/>
</g>
</g>
</svg>
