<svg width="221" height="221" viewBox="0 0 221 221" fill="none" xmlns="http://www.w3.org/2000/svg">
<mask id="mask0_195_9741" style="mask-type:luminance" maskUnits="userSpaceOnUse" x="0" y="0" width="221" height="221">
<path d="M220.45 0H0V220.45H220.45V0Z" fill="white"/>
</mask>
<g mask="url(#mask0_195_9741)">
<mask id="mask1_195_9741" style="mask-type:luminance" maskUnits="userSpaceOnUse" x="-1" y="0" width="222" height="221">
<path d="M220.449 0H-0.000976562V220.45H220.449V0Z" fill="white"/>
</mask>
<g mask="url(#mask1_195_9741)">
<mask id="mask2_195_9741" style="mask-type:luminance" maskUnits="userSpaceOnUse" x="-1" y="0" width="222" height="221">
<path d="M220.447 0H-0.00213623V220.45H220.447V0Z" fill="white"/>
</mask>
<g mask="url(#mask2_195_9741)">
<path d="M110.492 187.378C110.535 187.282 110.578 187.18 110.623 187.074C110.598 187.137 110.574 187.198 110.551 187.258C110.533 187.296 110.512 187.339 110.494 187.378" fill="#59595B"/>
<path d="M111.812 183.063C111.83 182.967 111.85 182.865 111.869 182.765C111.854 182.837 111.84 182.904 111.83 182.977C111.82 183.006 111.816 183.035 111.812 183.065" fill="#59595B"/>
<path d="M111.925 182.506C111.921 182.538 111.911 182.577 111.907 182.612C111.896 182.665 111.882 182.714 111.872 182.767C111.892 182.685 111.907 182.598 111.921 182.512L111.925 182.508V182.506Z" fill="#59595B"/>
<path d="M120.007 174.265C118.27 174.265 116.576 174.053 115.086 173.508L115.747 171.693C121.769 173.894 132.24 169.76 132.344 169.718L133.06 171.512C132.705 171.653 126.088 174.265 120.005 174.265" fill="#144B5F"/>
<path d="M133.608 171.277C133.608 171.277 133.281 181.585 131.35 187.772C129.417 193.957 123.614 195.943 119.681 191.583C115.748 187.223 115.723 174.933 115.709 172.236C123.233 171.836 133.608 171.279 133.608 171.279" fill="#FDCB9B"/>
<path d="M124.944 194.698C124.822 194.698 124.705 194.694 124.585 194.688C124.456 194.68 124.356 194.676 124.252 194.663C124.115 194.649 124.021 194.639 123.928 194.624L123.65 194.58C122.754 194.406 121.933 194.096 121.178 193.653L120.917 193.494C120.786 193.412 120.698 193.355 120.619 193.292C120.582 193.271 120.486 193.206 120.39 193.136C120.168 192.967 119.964 192.802 119.768 192.628C119.565 192.449 119.363 192.257 119.169 192.055C119.071 191.953 118.98 191.851 118.89 191.742C118.845 191.693 118.788 191.626 118.731 191.55C118.673 191.481 118.602 191.385 118.531 191.291L118.457 191.187C118.404 191.122 118.331 191.014 118.257 190.903L118.235 190.865C118.145 190.736 118.061 190.601 117.98 190.469C117.947 190.416 117.916 190.36 117.884 190.299C117.861 190.273 117.804 190.164 117.747 190.058H117.749L117.71 189.997C117.69 189.96 117.663 189.913 117.639 189.862C117.618 189.826 117.598 189.787 117.579 189.752L117.408 189.407C117.365 189.319 117.335 189.25 117.308 189.181C117.283 189.134 117.232 189.023 117.183 188.907C117.098 188.723 117.016 188.517 116.932 188.305L116.83 188.038C116.824 188.027 116.808 187.978 116.789 187.927L116.636 187.484H116.632L116.461 186.966C116.363 186.643 116.289 186.386 116.214 186.123C116.183 186.021 116.155 185.909 116.126 185.794L116.099 185.686C116.071 185.586 116.042 185.472 116.014 185.357L115.818 184.488C115.787 184.357 115.769 184.255 115.75 184.157L115.744 184.147C115.675 183.814 115.608 183.471 115.548 183.133C114.734 178.577 114.703 173.914 114.693 172.159V172.039L115.61 171.067L134.579 170.112L135.593 171.104C135.593 171.104 135.587 171.275 135.571 171.596L135.534 172.288C135.509 172.796 135.466 173.449 135.411 174.215L135.391 174.457C135.381 174.643 135.364 174.831 135.348 175.017L135.303 175.574C135.15 177.282 134.983 178.797 134.787 180.216C134.768 180.365 134.744 180.52 134.721 180.679L134.699 180.824C134.674 181.022 134.64 181.234 134.601 181.453C134.542 181.838 134.474 182.251 134.403 182.661C134.315 183.167 134.215 183.675 134.111 184.174L134.05 184.472C134.009 184.67 133.966 184.87 133.919 185.072L133.909 185.113C133.899 185.164 133.889 185.204 133.876 185.247C133.856 185.341 133.823 185.488 133.784 185.635C133.766 185.725 133.731 185.86 133.697 185.988L133.489 186.774C133.456 186.886 133.431 186.974 133.399 187.06C133.39 187.103 133.356 187.225 133.317 187.348C133.266 187.519 133.207 187.703 133.148 187.882C131.778 192.02 128.559 194.696 124.946 194.696M119.861 189.828C119.91 189.901 119.959 189.975 120.013 190.044L120.076 190.134C120.129 190.203 120.18 190.273 120.237 190.342L120.358 190.485C120.435 190.577 120.504 190.65 120.572 190.722C120.725 190.885 120.89 191.04 121.049 191.183C121.207 191.322 121.372 191.455 121.535 191.581C121.592 191.622 121.668 191.673 121.745 191.724C121.835 191.791 121.87 191.812 121.905 191.832L122.154 191.985C122.719 192.318 123.334 192.549 123.979 192.675L124.413 192.736C124.53 192.749 124.595 192.753 124.664 192.757C127.541 192.881 130.17 190.724 131.313 187.272C131.368 187.111 131.419 186.946 131.468 186.784C131.502 186.672 131.529 186.574 131.557 186.474L131.619 186.272C131.625 186.239 131.645 186.164 131.668 186.09L131.821 185.513C131.853 185.388 131.88 185.282 131.903 185.18C131.945 185.017 131.974 184.894 132.001 184.772L132.033 184.643C132.078 184.449 132.117 184.263 132.156 184.076L132.219 183.771C132.317 183.302 132.413 182.816 132.496 182.326C132.568 181.928 132.633 181.53 132.692 181.14C132.729 180.932 132.758 180.75 132.78 180.563L132.868 179.963C133.06 178.568 133.225 177.082 133.374 175.417L133.419 174.86C133.433 174.686 133.448 174.517 133.458 174.351L133.48 174.078C133.535 173.329 133.576 172.692 133.601 172.192L133.605 172.102L116.626 172.957C116.651 175.041 116.761 178.977 117.447 182.804C117.502 183.126 117.567 183.449 117.632 183.761H117.626L117.643 183.796C117.653 183.861 117.663 183.922 117.677 183.98L117.873 184.857C117.906 184.99 117.928 185.082 117.957 185.176L117.998 185.337C118.016 185.415 118.039 185.502 118.065 185.59C118.139 185.853 118.208 186.096 118.284 186.339L118.712 187.57C118.794 187.772 118.865 187.952 118.945 188.125L119.078 188.417L118.267 188.974L119.139 188.56L119.447 189.152C119.482 189.217 119.516 189.285 119.555 189.346L119.625 189.464C119.688 189.568 119.749 189.673 119.821 189.771V189.807L119.835 189.795L119.855 189.83L119.861 189.828Z" fill="#144B5F"/>
<path d="M135.532 172.296L133.603 172.188L133.63 171.71L135.559 171.824L135.532 172.296Z" fill="#144B5F"/>
<path d="M133.766 185.684L131.913 185.141C131.913 185.141 131.917 185.125 131.921 185.114L132.001 184.778C132.001 184.778 132.001 184.776 132.001 184.773L132.015 184.71L133.907 185.104L133.899 185.133L133.779 185.635C133.779 185.635 133.779 185.637 133.779 185.639L133.764 185.686L133.766 185.684Z" fill="#144B5F"/>
<path d="M133.497 186.729L131.611 186.308C131.625 186.241 131.646 186.168 131.666 186.094L131.67 186.084C131.676 186.059 131.689 186.017 131.705 185.968H131.707L131.725 185.915L133.526 186.613L133.209 186.541L133.505 186.666L133.524 186.623L133.499 186.715L133.409 186.694L133.497 186.727V186.729Z" fill="#144B5F"/>
<path d="M119.04 191.309L118.368 190.86L118.275 190.932L118.026 190.552C118.007 190.526 117.991 190.497 117.975 190.469L118.224 190.315L118.356 189.654L118.717 190.015L119.038 189.821L119.624 189.464L119.699 189.591C119.738 189.652 119.777 189.713 119.82 189.77L119.799 190.024L119.72 191.02L119.352 190.652L119.038 191.307L119.04 191.309Z" fill="#144B5F"/>
<path d="M117.941 190.405C117.884 190.322 117.835 190.24 117.788 190.148L117.702 189.989L119.398 189.066L119.449 189.154C119.484 189.219 119.519 189.287 119.558 189.348L117.941 190.405Z" fill="#144B5F"/>
<path d="M117.714 190.017C117.689 189.972 117.663 189.925 117.638 189.874L117.589 189.781C117.589 189.781 117.579 189.764 117.577 189.756L119.288 188.86L119.41 189.091L117.716 190.017H117.714Z" fill="#144B5F"/>
<path d="M117.123 188.584L116.827 188.041L118.123 187.576L118.489 187.219L118.135 187.572L118.644 187.388C118.66 187.431 118.674 187.468 118.684 187.501L118.713 187.574C118.717 187.588 118.721 187.603 118.725 187.617L118.587 187.656L117.125 188.584H117.123Z" fill="#144B5F"/>
<path d="M115.86 184.721L115.731 184.09L117.43 183.339L117.644 183.802C117.654 183.861 117.664 183.922 117.679 183.98L117.748 184.312H117.746L117.758 184.361L115.86 184.718V184.721Z" fill="#144B5F"/>
<path d="M133.766 185.684L131.913 185.141C131.913 185.141 131.917 185.125 131.921 185.116L132.001 184.778C132.001 184.778 132.001 184.778 132.001 184.776L133.887 185.196C133.877 185.243 133.867 185.286 133.858 185.331L133.785 185.631C133.785 185.631 133.785 185.637 133.783 185.641L133.769 185.688L133.766 185.684Z" fill="#144B5F"/>
<path d="M133.501 186.717L131.909 186.374H131.631L131.893 186.37L131.613 186.311C131.627 186.243 131.648 186.17 131.668 186.096L133.562 186.376L133.524 186.627H133.526L133.518 186.666H133.515L133.501 186.719V186.717Z" fill="#144B5F"/>
<path d="M118.276 190.93L118.027 190.556C118.011 190.528 117.993 190.499 117.976 190.472L119.628 189.466L119.705 189.593C119.744 189.654 119.783 189.715 119.826 189.772L118.278 190.928L118.276 190.93Z" fill="#144B5F"/>
<path d="M117.941 190.405C117.884 190.321 117.835 190.24 117.788 190.148C117.745 190.07 117.713 190.001 117.69 189.94L119.45 189.154C119.484 189.219 119.519 189.287 119.558 189.348L117.941 190.405Z" fill="#144B5F"/>
<path d="M118.496 190.385H118.489L117.738 189.93L117.695 189.958C117.677 189.93 117.659 189.899 117.64 189.87L117.634 189.866L117.589 189.778C117.589 189.778 117.579 189.762 117.577 189.754L118.489 189.276V188.454L118.493 189.276L119.287 188.86L118.493 190.387L118.496 190.385Z" fill="#144B5F"/>
<path d="M117.414 189.425L117.403 189.403C117.397 189.391 117.393 189.38 117.387 189.368L117.185 188.917C117.185 188.917 117.185 188.911 117.183 188.909L117.173 188.887L118.955 188.141L119.144 188.56L117.416 189.423L117.414 189.425Z" fill="#144B5F"/>
<path d="M117.123 188.584L116.827 188.041L118.123 187.576L118.489 187.219L118.135 187.572L118.644 187.388C118.66 187.431 118.674 187.468 118.684 187.501L118.713 187.574C118.717 187.588 118.721 187.603 118.725 187.617L118.587 187.656L117.125 188.584H117.123Z" fill="#144B5F"/>
<path d="M118.605 188.831C118.562 188.735 118.52 188.633 118.475 188.527C118.499 188.59 118.524 188.652 118.546 188.711C118.564 188.75 118.585 188.793 118.603 188.831" fill="#59595B"/>
<path d="M117.285 184.518C117.266 184.422 117.246 184.32 117.228 184.22C117.242 184.292 117.256 184.359 117.266 184.433C117.277 184.461 117.281 184.49 117.285 184.52" fill="#59595B"/>
<path d="M117.174 183.959C117.178 183.992 117.188 184.03 117.192 184.065C117.202 184.118 117.217 184.167 117.227 184.22C117.206 184.139 117.192 184.051 117.178 183.965L117.174 183.961V183.959Z" fill="#59595B"/>
<path d="M120.163 190.697C118.67 189.044 117.742 186.249 117.16 183.269C122.898 190.009 129.642 185.851 132.716 183.288C132.467 184.563 132.175 185.79 131.832 186.886C129.899 193.073 124.096 195.057 120.163 190.697Z" fill="#424142"/>
<path d="M126.045 191.005C128.078 189.856 129.272 187.041 129.842 185.288C130.977 184.649 131.957 183.92 132.716 183.287C132.467 184.563 132.175 185.79 131.832 186.886C129.981 192.812 124.578 194.882 120.669 191.213C122.312 191.658 124.435 191.914 126.045 191.003" fill="#424142"/>
<path d="M124.657 188.135C121.773 188.135 118.963 186.741 116.289 183.982C115.917 183.598 115.927 182.988 116.311 182.616C116.691 182.247 117.305 182.255 117.677 182.638C120.13 185.172 122.643 186.378 125.16 186.186C129.293 185.892 132.183 181.969 132.214 181.928C132.524 181.497 133.128 181.397 133.561 181.712C133.994 182.024 134.092 182.626 133.78 183.059C133.643 183.251 130.352 187.746 125.313 188.113C125.094 188.129 124.876 188.137 124.657 188.137" fill="#144B5F"/>
<path d="M92.3328 179.036C92.3328 179.036 101.432 183.89 107.758 185.298C114.084 186.706 118.697 182.663 116.876 177.08C115.055 171.497 104.413 165.349 102.082 163.994C97.9869 170.318 92.3307 179.036 92.3307 179.036" fill="#FDCB9B"/>
<path d="M109.331 186.116C108.545 186.116 107.734 186.035 106.912 185.865C106.726 185.829 106.536 185.788 106.35 185.743C106.269 185.727 106.156 185.698 106.044 185.669C105.965 185.653 105.871 185.631 105.777 185.606L104.979 185.394C104.868 185.365 104.736 185.326 104.613 185.288C104.509 185.259 104.374 185.218 104.242 185.177L104.066 185.124C103.901 185.077 103.701 185.012 103.499 184.945L103.213 184.851C102.733 184.696 102.243 184.528 101.756 184.351C101.37 184.212 100.978 184.065 100.594 183.916C100.408 183.849 100.208 183.771 100.006 183.687L99.9185 183.653C99.7572 183.589 99.6001 183.528 99.445 183.465C98.1223 182.928 96.7261 182.32 95.183 181.607L94.6686 181.365C94.4992 181.287 94.3297 181.205 94.1664 181.126L93.9255 181.011C93.252 180.687 92.6641 180.399 92.2069 180.164L91.1618 179.629L90.8026 178.254L101.084 162.283L102.382 161.971L102.48 162.028C103.997 162.912 108.026 165.259 111.58 168.246C111.839 168.46 112.105 168.691 112.358 168.917L112.364 168.927C112.437 168.991 112.511 169.054 112.58 169.119L113.209 169.693C113.323 169.801 113.425 169.899 113.525 170.003C113.678 170.152 113.768 170.238 113.852 170.328C114.023 170.501 114.211 170.693 114.397 170.891L114.805 171.346H114.803L115.105 171.695C115.15 171.746 115.185 171.787 115.215 171.83L115.411 172.071C115.538 172.232 115.662 172.389 115.777 172.551C115.84 172.638 115.913 172.738 115.981 172.834C115.989 172.84 116.04 172.912 116.089 172.985L116.254 173.232C116.301 173.306 116.336 173.357 116.362 173.4C116.399 173.453 116.434 173.51 116.462 173.563L116.481 173.598C116.554 173.714 116.613 173.81 116.665 173.906C116.665 173.906 116.695 173.955 116.724 174.008C116.795 174.139 116.871 174.275 116.936 174.418L116.961 174.463C117.022 174.588 117.077 174.702 117.126 174.818L117.289 175.204C117.322 175.286 117.348 175.365 117.377 175.447C117.418 175.557 117.459 175.692 117.499 175.825C117.579 176.09 117.644 176.364 117.699 176.623C117.755 176.882 117.795 177.141 117.828 177.394C117.842 177.517 117.848 177.615 117.855 177.713C117.865 177.801 117.871 177.905 117.875 178.009C117.881 178.127 117.885 178.25 117.885 178.368C117.893 179.236 117.755 180.099 117.471 180.928L117.363 181.213C117.316 181.33 117.271 181.436 117.222 181.54C117.185 181.624 117.142 181.714 117.093 181.809C117.028 181.938 116.975 182.038 116.916 182.142C115.46 184.671 112.623 186.11 109.335 186.11M106.318 183.745C106.318 183.745 106.371 183.757 106.422 183.767L106.526 183.791C106.61 183.814 106.691 183.834 106.777 183.853C106.973 183.9 107.14 183.934 107.304 183.969C110.749 184.675 113.862 183.581 115.24 181.183C115.285 181.105 115.326 181.028 115.366 180.946C115.405 180.873 115.432 180.815 115.458 180.754C115.499 180.666 115.532 180.593 115.56 180.519L115.654 180.272C115.856 179.683 115.96 179.035 115.954 178.378C115.954 178.278 115.95 178.182 115.946 178.088C115.946 178.043 115.946 178.001 115.938 177.962L115.909 177.619C115.885 177.435 115.852 177.227 115.809 177.019C115.766 176.811 115.713 176.592 115.648 176.378C115.619 176.28 115.591 176.186 115.558 176.094L115.409 175.708L115.742 175.51L115.652 175.47L115.36 175.598C115.311 175.48 115.272 175.406 115.236 175.333V175.28L115.199 175.261C115.148 175.149 115.089 175.043 115.03 174.935L114.962 174.816C114.932 174.759 114.897 174.704 114.862 174.647L114.83 174.584L114.395 173.933C114.342 173.855 114.282 173.773 114.221 173.692C114.111 173.539 114.007 173.406 113.899 173.269L113.392 172.659L112.929 172.142C112.817 172.028 112.639 171.846 112.46 171.665C112.38 171.579 112.319 171.52 112.256 171.461L112.154 171.361C112.062 171.267 111.978 171.187 111.894 171.107L111.28 170.546C111.204 170.475 111.153 170.434 111.102 170.391L111.082 170.358L111.078 170.362C110.839 170.15 110.592 169.936 110.345 169.73C107.363 167.223 104.009 165.168 102.211 164.108L93.0091 178.403L93.0826 178.439C93.5357 178.67 94.1092 178.952 94.7849 179.276L95.034 179.395C95.1809 179.468 95.334 179.54 95.4891 179.613L96.0035 179.854C97.514 180.552 98.8816 181.148 100.184 181.677C100.335 181.74 100.478 181.795 100.625 181.852L100.733 181.895C100.927 181.975 101.098 182.042 101.278 182.107C101.67 182.259 102.048 182.399 102.421 182.536C102.893 182.708 103.36 182.867 103.821 183.018L104.105 183.112C104.293 183.173 104.468 183.23 104.648 183.283L104.748 183.316C104.924 183.369 105.04 183.404 105.158 183.436C105.293 183.477 105.399 183.508 105.503 183.536L106.107 183.698C106.177 183.714 106.252 183.734 106.318 183.757V183.745ZM116.185 175.229V175.237L116.244 175.202L116.185 175.227V175.229Z" fill="#144B5F"/>
<path d="M92.2125 180.169L91.7839 179.952L92.6534 178.227L93.076 178.44L92.2125 180.169Z" fill="#144B5F"/>
<path d="M104.648 185.296C104.648 185.296 104.637 185.294 104.633 185.292L104.135 185.143L104.725 183.304L104.809 183.328C104.923 183.365 105.04 183.4 105.158 183.43L104.65 185.294L104.648 185.296Z" fill="#144B5F"/>
<path d="M105.724 185.59L105.545 185.543L105.933 183.657L105.973 183.667L106.094 183.692C106.096 183.692 106.098 183.692 106.1 183.692C106.173 183.71 106.247 183.728 106.312 183.751L105.724 185.59Z" fill="#144B5F"/>
<path d="M116.337 175.79L115.418 175.366L115.192 175.262C115.163 175.198 115.131 175.137 115.1 175.076L115.022 174.935L115.633 174.598L115.947 174.425L115.806 173.931L116.453 174.145L116.715 174.002C116.737 174.041 116.757 174.082 116.78 174.12L116.966 174.492L116.855 174.537L116.902 175.36L116.2 175.308L116.335 175.79H116.337Z" fill="#144B5F"/>
<path d="M114.955 174.817C114.925 174.759 114.89 174.704 114.855 174.647L114.823 174.584L114.747 174.433L115.337 174.223L116.429 173.514L116.488 173.612C116.582 173.761 116.627 173.843 116.672 173.929L114.955 174.815V174.817Z" fill="#144B5F"/>
<path d="M114.792 174.539L114.983 174.382L114.769 174.5L114.696 174.382L114.681 174.359L114.853 174.274L116.288 173.288L116.4 173.465C116.42 173.498 116.441 173.531 116.457 173.563L114.79 174.539H114.792Z" fill="#144B5F"/>
<path d="M113.871 173.23C113.871 173.23 113.852 173.21 113.842 173.202L113.793 173.143C113.773 173.118 113.755 173.096 113.734 173.071L113.742 173.063L113.736 173.053L113.797 173.016L114.173 172.689L115.191 171.804L115.328 171.977H115.332L115.391 172.061L115.379 172.067L115.504 172.31L113.873 173.23H113.871Z" fill="#144B5F"/>
<path d="M111.52 170.763L111.495 170.738L111.275 170.544C111.199 170.473 111.15 170.432 111.097 170.389L110.785 169.906L112.298 168.871L112.785 169.301H112.783L112.816 169.338L112.328 169.832L111.522 170.765L111.52 170.763Z" fill="#144B5F"/>
<path d="M104.647 185.296C104.647 185.296 104.637 185.294 104.633 185.292L104.217 185.169L104.784 183.322L104.809 183.328C104.923 183.365 105.039 183.4 105.158 183.43L104.649 185.294L104.647 185.296Z" fill="#144B5F"/>
<path d="M105.725 185.59L105.398 185.476L106.078 183.692C106.078 183.692 106.088 183.694 106.094 183.696V183.692C106.172 183.71 106.247 183.728 106.315 183.751L106.247 183.961L106.345 183.79L106.36 183.798L106.227 184.03L105.727 185.59H105.725Z" fill="#144B5F"/>
<path d="M115.192 175.259C115.163 175.196 115.131 175.135 115.1 175.074L115.022 174.935L116.715 174.002C116.737 174.041 116.757 174.082 116.78 174.12L116.917 174.38C116.929 174.406 116.941 174.433 116.953 174.459L115.196 175.259H115.192ZM115.639 175.031L115.384 175.161L116.072 174.859L115.639 175.031Z" fill="#144B5F"/>
<path d="M114.955 174.816C114.925 174.759 114.89 174.704 114.855 174.647L116.398 173.488L116.476 173.598C116.484 173.608 116.49 173.62 116.496 173.63L116.523 173.669C116.58 173.759 116.627 173.843 116.67 173.928L114.953 174.814L114.955 174.816Z" fill="#144B5F"/>
<path d="M114.735 174.445L114.694 174.384L114.659 174.333L115.412 173.849L114.716 173.43V173.426L115.416 173.845L116.286 173.288L116.359 173.408C116.378 173.439 116.392 173.467 116.408 173.496L116.361 173.52L116.376 174.42L114.855 174.367L114.732 174.445H114.735Z" fill="#144B5F"/>
<path d="M114.481 174.063L114.383 173.931C114.33 173.853 114.273 173.771 114.21 173.69L115.743 172.516L116.029 172.91C116.047 172.934 116.065 172.961 116.082 172.985L116.088 172.994L114.479 174.065L114.481 174.063Z" fill="#144B5F"/>
<path d="M113.871 173.23C113.871 173.23 113.852 173.21 113.842 173.202L113.793 173.143C113.773 173.118 113.755 173.096 113.734 173.071L113.742 173.063L113.736 173.053L113.797 173.016L114.173 172.689L115.191 171.804L115.328 171.977H115.332L115.391 172.061L115.379 172.067L115.504 172.31L113.873 173.23H113.871Z" fill="#144B5F"/>
<path d="M115.823 176.011C115.133 173.894 113.174 171.693 110.879 169.707C113.862 178.04 106.899 181.816 103.143 183.202C104.374 183.622 105.583 183.979 106.703 184.229C113.029 185.637 117.642 181.593 115.821 176.011" fill="#424142"/>
<path d="M113.16 181.265C111.151 182.455 108.114 182.085 106.311 181.708C105.193 182.373 104.072 182.861 103.146 183.202C104.374 183.622 105.585 183.979 106.705 184.23C112.764 185.578 117.252 181.926 116.021 176.709C115.589 178.356 114.752 180.322 113.16 181.265Z" fill="#424142"/>
<path d="M102.314 184.016C101.826 184.016 101.406 183.647 101.355 183.151C101.3 182.62 101.685 182.146 102.216 182.091C102.263 182.085 107.107 181.534 109.421 178.097C110.83 176.008 111.048 173.23 110.075 169.842C109.928 169.33 110.224 168.795 110.736 168.646C111.254 168.497 111.783 168.795 111.93 169.307C113.071 173.279 112.763 176.602 111.014 179.189C108.183 183.375 102.647 183.987 102.41 184.012C102.377 184.014 102.345 184.016 102.312 184.016" fill="#144B5F"/>
<path d="M91.0473 180.224C92.817 180.256 105.795 177.121 107.177 165.448L104.805 163.994L109.684 160.81L111.712 167.868C111.712 167.868 112.566 171.843 114.462 172.749C118.154 174.513 135.339 174.194 136.466 171.32C138.985 164.894 133.102 142.419 133.102 142.419C133.102 142.419 106.371 151.429 94.846 142.419C94.846 142.419 93.9866 144.491 92.6415 145.538C88.4489 148.806 79.5492 155.162 77.3529 164.423C76.1955 169.295 88.6469 180.179 91.0453 180.222" fill="#E34F50"/>
<path d="M91.0571 181.189H91.0285C88.8117 181.148 82.5534 175.733 79.3202 171.565C76.9565 168.517 75.9787 166.039 76.4155 164.2C78.5547 155.188 86.7889 148.836 91.2122 145.425L92.0512 144.778C93.1718 143.905 93.9494 142.068 93.9576 142.049L94.4455 140.882L95.4436 141.659C106.423 150.245 132.534 141.594 132.796 141.506L133.777 141.176L134.041 142.178C134.284 143.109 139.972 165.033 137.368 171.675C137.098 172.363 136.419 172.914 135.292 173.359C130.718 175.162 117.615 175.327 114.049 173.622C111.79 172.543 110.869 168.528 110.771 168.072L109.118 162.335L106.613 163.97L108.211 164.947L108.138 165.562C106.66 178.042 92.9819 181.189 91.0591 181.189M91.0693 179.258H91.0836C92.5185 179.258 104.458 176.478 106.135 165.941L103 164.021L110.253 159.287L112.643 167.603C112.953 169.026 113.816 171.371 114.882 171.879C118.576 173.645 134.627 172.937 135.572 170.967C137.445 166.186 134.141 150.487 132.424 143.654C127.513 145.176 106.193 151.153 95.2048 143.866C94.7741 144.627 94.1004 145.629 93.237 146.301L92.392 146.954C88.1586 150.22 80.2754 156.299 78.2934 164.645C78.0301 165.752 78.7873 167.589 80.4244 169.822C83.8863 174.547 89.8323 179.164 91.0672 179.258" fill="#144B5F"/>
<path d="M104.543 164.984C104.212 164.686 103.767 164.368 103.344 164.092C102.912 163.812 102.459 163.559 101.989 163.331C101.05 162.876 100.036 162.549 98.9539 162.422C100.021 162.224 101.156 162.233 102.269 162.406C102.826 162.492 103.381 162.612 103.93 162.767C104.488 162.929 105.004 163.096 105.588 163.361L104.541 164.984H104.543Z" fill="#144B5F"/>
<path d="M93.5234 142.763C111.498 150.675 129.567 143.841 134.149 141.835C133.717 139.732 133.159 137.593 132.449 135.456C126.421 117.2 125.033 112.233 125.033 112.233C125.033 112.233 112.892 113.442 100.484 114.401C95.9299 119.824 95.0686 125.715 94.2051 137.787C93.9459 139.457 93.7152 141.12 93.5213 142.763" fill="#ABC8E9"/>
<path d="M111.833 147.471C105.989 147.471 99.5672 146.481 93.1354 143.649L92.4822 143.362L92.566 142.653C92.7558 141.043 92.9884 139.355 93.2538 137.64C94.1254 125.413 95.0051 119.431 99.7468 113.783L100.006 113.47L100.41 113.44C112.666 112.493 124.817 111.286 124.937 111.274L125.744 111.194L125.962 111.976C125.976 112.025 127.421 117.153 133.365 135.156C134.049 137.218 134.631 139.402 135.094 141.643L135.254 142.41L134.535 142.723C131.228 144.17 122.498 147.473 111.833 147.473M94.5683 142.165C111.031 149.081 127.362 143.621 133.039 141.261C132.62 139.363 132.114 137.516 131.532 135.76C126.819 121.488 124.925 115.279 124.331 113.274C121.461 113.554 111.3 114.53 100.97 115.334C96.8157 120.468 96.0033 126.22 95.1705 137.857C94.9378 139.363 94.7377 140.792 94.5683 142.163" fill="#144B5F"/>
<path d="M97.5272 119.739C97.5272 119.739 97.5272 119.739 97.5293 119.739C97.5293 119.759 97.5293 119.78 97.5293 119.8C97.5129 120.335 97.4231 120.784 97.2251 121.16C97.1659 121.272 97.0924 121.378 97.0108 121.478C96.2882 122.378 94.6919 122.786 91.5056 122.99C91.5056 122.99 87.6621 123.084 83.0592 123.719C82.5182 123.795 81.9651 123.876 81.4079 123.966C80.8506 124.056 80.2872 124.156 79.7239 124.262C79.4422 124.315 79.1605 124.372 78.8788 124.432C78.4461 124.521 78.0133 124.619 77.5867 124.721C77.1805 124.817 76.7764 124.917 76.3783 125.023C75.8333 125.17 75.2985 125.328 74.776 125.495C73.4737 125.916 72.2633 126.405 71.2223 126.977C67.0582 129.261 64.3556 130.42 62.1838 130.106C60.8795 129.918 59.7671 129.2 58.6444 127.877C58.5097 127.718 58.3913 127.553 58.279 127.381C58.2566 127.346 58.2321 127.31 58.2096 127.273C58.1055 127.106 58.0095 126.932 57.9279 126.754C57.9136 126.724 57.9014 126.693 57.8891 126.663C57.8156 126.497 57.7524 126.326 57.6973 126.152C57.6891 126.124 57.6768 126.097 57.6686 126.069C57.6135 125.879 57.5707 125.685 57.5381 125.487C57.532 125.444 57.5258 125.401 57.5196 125.358C57.4911 125.156 57.4707 124.952 57.4666 124.744C57.4666 124.734 57.4666 124.721 57.4666 124.711C57.4646 124.509 57.832 122.554 57.8381 122.533C57.8381 122.533 58.9628 116.632 67.8972 113.556C77.8991 110.111 84.7697 111.66 90.4258 113.883C96.0269 116.083 97.5558 117.632 97.5211 119.741" fill="#FDCB9B"/>
<path d="M62.9008 131.12C62.611 131.12 62.3273 131.1 62.0497 131.059C60.5228 130.839 59.2082 130.026 57.9141 128.502C57.7529 128.314 57.612 128.116 57.4773 127.914L57.3957 127.789C57.2671 127.579 57.1528 127.373 57.0548 127.161L57.0119 127.063C56.9201 126.852 56.8425 126.648 56.7772 126.438L56.7465 126.344C56.6792 126.111 56.6282 125.881 56.5894 125.646L56.5669 125.483C56.5343 125.254 56.5118 125.011 56.5057 124.764C56.5016 124.47 56.7894 122.856 56.9017 122.345H56.8976C56.9507 122.082 58.2775 115.848 67.5915 112.642C78.0771 109.031 85.2008 110.786 90.7876 112.98C95.0517 114.656 97.2603 116.067 98.0952 117.808L98.4993 117.404V119.735C98.4769 120.535 98.34 121.119 98.0808 121.608C97.9951 121.772 97.889 121.927 97.7706 122.076C96.7276 123.374 94.6251 123.754 91.5694 123.952C91.4939 123.954 87.683 124.054 83.1944 124.674C82.6596 124.748 82.1167 124.829 81.5655 124.919C81.0165 125.007 80.4633 125.107 79.9102 125.211C79.6325 125.264 79.3549 125.319 79.0773 125.377C78.6568 125.464 78.2343 125.56 77.8138 125.66C77.4178 125.754 77.0218 125.852 76.634 125.956C76.1053 126.099 75.5869 126.252 75.0806 126.416C73.7661 126.84 72.6271 127.314 71.6943 127.824C67.9385 129.886 65.2053 131.123 62.9049 131.123M58.7816 122.794C58.7163 123.129 58.4611 124.523 58.4428 124.752C58.4468 124.895 58.4632 125.062 58.4856 125.228L58.5 125.332C58.5265 125.491 58.5591 125.648 58.604 125.801C58.6693 126.009 58.7204 126.144 58.7796 126.275C58.8797 126.497 58.9552 126.636 59.0389 126.771L59.0939 126.854C59.1837 126.989 59.2797 127.126 59.3899 127.254C60.3758 128.416 61.2842 129.002 62.3313 129.153C64.2664 129.443 66.9955 128.204 70.7676 126.134C71.8066 125.564 73.0598 125.042 74.4907 124.58C75.0255 124.407 75.5766 124.246 76.1359 124.095C76.5462 123.984 76.9565 123.884 77.3729 123.786C77.8097 123.682 78.2486 123.584 78.6915 123.49C78.9814 123.431 79.2672 123.374 79.5529 123.319C80.1245 123.209 80.6959 123.109 81.2613 123.017C81.8268 122.925 82.3861 122.843 82.9352 122.768C87.5381 122.131 91.3307 122.033 91.4899 122.029C94.2863 121.849 95.7723 121.494 96.2663 120.878C96.305 120.829 96.3459 120.776 96.3765 120.716C96.4847 120.512 96.5479 120.241 96.5663 119.888V119.731C96.5867 118.526 96.103 117.153 90.0835 114.787C84.8274 112.721 78.12 111.068 68.2243 114.477C59.9921 117.312 58.8429 122.509 58.798 122.729L58.7837 122.801L58.7816 122.794Z" fill="#144B5F"/>
<path d="M73.8078 110.261C73.8078 110.261 70.1787 118.643 76.3819 125.023C76.3819 125.023 96.5162 129.579 98.7942 120.847C101.556 110.263 73.8078 110.263 73.8078 110.263" fill="#ABC8E9"/>
<path d="M86.9784 127.173C81.6366 127.173 76.5887 126.058 76.1682 125.964L75.8885 125.901L75.6885 125.695C69.1097 118.93 72.7614 110.243 72.9206 109.876L73.1717 109.294H73.8065C74.6168 109.294 93.7021 109.367 98.701 115.84C99.8889 117.379 100.236 119.145 99.7277 121.09C98.4561 125.958 92.559 127.175 86.9784 127.175M76.8765 124.144C82.4285 125.346 96.2128 126.907 97.858 120.602C98.2111 119.249 97.9866 118.077 97.1721 117.022C93.647 112.456 80.1873 111.317 74.474 111.233C73.8269 113.14 72.2919 119.218 76.8765 124.144Z" fill="#144B5F"/>
<path d="M67.6499 85.3875C69.5564 81.2602 73.6633 84.2403 73.6633 84.2403C73.4714 76.2184 75.4472 68.6598 77.1435 64.6979C82.0852 53.1569 93.4812 47.0905 106.006 45.4167C119.204 43.6511 132.905 47.2599 141.188 57.6741C146.773 64.6958 149.508 85.8651 149.508 85.8651C149.508 85.8651 153.737 83.0666 155.466 87.2695C157.195 91.4723 155.407 96.9733 152.237 98.2286C149.067 99.4819 146.612 98.1082 146.612 98.1082C146.612 98.1082 140.084 109.355 130.784 114.003C118.141 120.321 100.609 119.504 88.8334 112.082C83.5304 108.741 79.5031 103.877 76.8128 98.3511C76.527 97.7653 76.0351 96.5957 76.0351 96.5957C76.0351 96.5957 73.5224 97.8633 70.4096 96.4752C67.2968 95.0852 65.7475 89.5148 67.654 85.3895" fill="#FDCB9B"/>
<path d="M111.726 119.18C103.34 119.18 94.9165 117.059 88.3152 112.899C83.1244 109.629 78.8461 104.744 75.9414 98.7738C75.8169 98.5145 75.6516 98.1471 75.5026 97.8103C74.3636 98.1247 72.3326 98.3941 70.0138 97.3592C68.5176 96.6917 67.2888 95.2404 66.5499 93.2727C65.5395 90.5763 65.6232 87.4798 66.7745 84.9834C67.4277 83.5689 68.387 82.6891 69.6219 82.3666C70.7241 82.0788 71.8366 82.3196 72.6878 82.6483C72.7674 75.1265 74.6106 68.164 76.2579 64.3183C80.9139 53.4428 91.4342 46.3905 105.88 44.4595C120.617 42.4897 134.097 47.207 141.946 57.0741C146.875 63.2692 149.576 79.5947 150.282 84.4139C151.176 84.071 152.413 83.7934 153.628 84.167C154.848 84.5425 155.767 85.4631 156.361 86.9062C157.406 89.4475 157.357 92.5461 156.23 95.1956C155.407 97.1286 154.117 98.5268 152.595 99.1289C150.176 100.086 148.114 99.6882 147.008 99.3167C145.373 101.927 139.396 110.78 131.215 114.867C125.428 117.757 118.592 119.18 111.728 119.18M76.5212 95.269L76.9233 96.2223C76.9233 96.2223 77.4029 97.3613 77.6805 97.9287C80.428 103.575 84.4635 108.186 89.3481 111.266C100.818 118.492 118.062 119.282 130.352 113.14C139.278 108.68 145.714 97.7348 145.777 97.6246L146.255 96.802L147.083 97.2653C147.163 97.3082 149.206 98.388 151.884 97.3307C152.907 96.9265 153.842 95.8712 154.452 94.4382C155.367 92.2868 155.414 89.6802 154.575 87.637C154.209 86.747 153.715 86.2163 153.066 86.0142C151.944 85.6672 150.502 86.3715 150.039 86.6736L148.751 87.5145L148.551 85.9897C148.524 85.7815 145.787 65.0082 140.435 58.2764C133.013 48.946 120.195 44.4983 106.137 46.3762C98.1763 47.4417 83.9409 51.2873 78.0337 65.0817C76.3476 69.0233 74.4432 76.4022 74.631 84.2221L74.6779 86.1734L73.0981 85.0283C72.6531 84.7079 71.2427 83.9465 70.1037 84.2425C69.4485 84.416 68.932 84.9263 68.5299 85.7999C67.6032 87.8044 67.5379 90.4089 68.3605 92.5971C68.9075 94.0565 69.7975 95.1507 70.8018 95.5977C73.4655 96.7857 75.5782 95.7487 75.5986 95.7385L76.5212 95.2731V95.269Z" fill="#144B5F"/>
<path d="M91.1581 76.1775C92.1114 75.7101 92.9565 75.3264 93.7893 75.0631C94.616 74.8018 95.3977 74.6752 96.1774 74.6997C96.9551 74.7181 97.7512 74.8753 98.5942 75.1488C99.4453 75.41 100.313 75.7938 101.325 76.1449C100.936 75.1447 100.256 74.314 99.3841 73.6628C98.5146 73.0158 97.3981 72.581 96.2244 72.5605C95.0507 72.5238 93.8892 72.9259 93.0013 73.5832C92.5543 73.9139 92.1685 74.3037 91.8541 74.7364C91.5439 75.1733 91.2847 75.6468 91.1622 76.1755" fill="#144B5F"/>
<path d="M110.78 96.1508C110.28 96.1508 109.858 95.765 109.819 95.2567C109.778 94.724 110.178 94.2607 110.709 94.2219C111.119 94.1913 111.587 94.0953 111.897 93.9912C110.638 92.4215 111.432 90.5722 112.052 89.7884C112.385 89.37 112.991 89.2985 113.41 89.6312C113.826 89.9619 113.897 90.5661 113.571 90.9825C113.483 91.0988 112.765 92.0888 113.475 92.8624C114.189 93.6401 114.069 94.328 113.934 94.6689C113.475 95.8303 111.626 96.0896 110.854 96.1467C110.829 96.1467 110.805 96.1488 110.78 96.1488" fill="#144B5F"/>
<path d="M119.611 76.7513C120.564 76.2838 121.409 75.9001 122.24 75.6368C123.067 75.3755 123.849 75.249 124.628 75.2735C125.406 75.2918 126.202 75.449 127.045 75.7225C127.896 75.9838 128.766 76.3676 129.776 76.7186C129.386 75.7184 128.707 74.8876 127.835 74.2365C126.965 73.5894 125.849 73.1547 124.675 73.1343C123.502 73.0975 122.338 73.4997 121.452 74.1569C121.005 74.4876 120.619 74.8774 120.305 75.3102C119.993 75.747 119.736 76.2206 119.613 76.7492" fill="#144B5F"/>
<path d="M116.985 103.799C108.712 117.994 102.941 103.499 102.941 103.499L116.985 103.799Z" fill="#144B5F"/>
<path d="M109.756 110.996C109.632 110.996 109.505 110.992 109.38 110.982C104.798 110.641 102.155 104.132 102.044 103.854C101.924 103.554 101.963 103.211 102.148 102.946C102.332 102.68 102.649 102.527 102.963 102.531L117.006 102.832C117.349 102.84 117.662 103.027 117.829 103.325C117.996 103.623 117.992 103.989 117.821 104.285C115.224 108.741 112.514 110.996 109.758 110.996M104.488 104.497C105.498 106.359 107.345 108.896 109.527 109.057C111.305 109.182 113.287 107.7 115.269 104.728L104.488 104.497Z" fill="#144B5F"/>
<path d="M113.978 108.81C113.978 108.81 108.316 113.676 105.703 107.928C105.703 107.928 109.363 104.134 113.978 108.81Z" fill="#F05C86"/>
<path d="M125.57 80.3967C123.463 80.3293 120.317 81.8439 119.313 85.6466C118.093 90.272 120.226 94.8586 125.163 94.7749C130.464 94.6871 132.448 90.7639 131.985 87.055C131.489 83.0829 129.26 80.5151 125.567 80.3967" fill="white"/>
<path d="M119.208 86.4633C120.298 82.736 123.754 80.5111 126.753 81.3664C127.967 81.7114 129.259 82.6013 130.035 83.8424C130.9 85.2304 130.98 87.0021 131.79 88.384C131.919 88.6024 132.266 88.7433 132.399 88.4412C133.244 86.5123 132.082 83.9362 131.021 82.4972C129.914 80.999 128.222 79.9702 126.616 79.6885C124.977 79.4007 123.138 79.8131 121.701 80.9071C119.972 82.2237 119.437 83.9893 119.074 86.3979C119.053 86.5347 119.161 86.6205 119.208 86.4653" fill="#144B5F"/>
<path d="M119.589 88.6148C119.683 85.2978 121.885 82.6687 124.508 82.7422C127.131 82.8157 129.182 85.5652 129.088 88.8821C128.995 92.1991 126.792 94.8281 124.169 94.7547C121.546 94.6812 119.495 91.9317 119.589 88.6148Z" fill="#144B5F"/>
<path d="M119.881 89.4494C119.911 88.388 120.616 87.549 121.454 87.5715C122.293 87.596 122.949 88.4737 122.918 89.5351C122.887 90.5965 122.183 91.4355 121.346 91.411C120.509 91.3865 119.852 90.5088 119.883 89.4494" fill="white"/>
<path d="M97.1628 79.3046C99.2509 79.5822 102.109 81.5887 102.478 85.5037C102.927 90.2658 100.076 94.4421 95.2156 93.5542C90.0003 92.603 88.6837 88.4063 89.7451 84.824C90.882 80.9865 93.5009 78.8167 97.1628 79.3025" fill="white"/>
<path d="M102.451 86.3305C101.983 82.4747 98.9378 79.717 95.8392 80.0702C94.5839 80.213 93.1633 80.8785 92.1958 81.9767C91.1139 83.2034 90.7485 84.9404 89.7218 86.1713C89.5585 86.3652 89.1931 86.4489 89.1114 86.1284C88.593 84.0872 90.1587 81.7337 91.4426 80.4907C92.7796 79.1925 94.6165 78.4535 96.2475 78.4392C97.911 78.4229 99.6584 79.1292 100.897 80.4437C102.389 82.0256 102.628 83.8545 102.594 86.2897C102.594 86.4265 102.469 86.4938 102.451 86.3346" fill="#144B5F"/>
<path d="M101.72 88.2594C102.169 84.973 100.426 82.0195 97.8251 81.6643C95.2246 81.3091 92.7528 83.6871 92.3037 86.9734C91.8546 90.2618 93.5978 93.2134 96.1983 93.5706C98.7988 93.9257 101.271 91.5498 101.72 88.2614" fill="#144B5F"/>
<path d="M101.271 88.5982C101.414 87.547 100.857 86.6019 100.026 86.4896C99.1953 86.3753 98.4054 87.1367 98.2604 88.1879C98.1176 89.2391 98.6748 90.1822 99.5056 90.2965C100.336 90.4108 101.126 89.6515 101.271 88.6002" fill="white"/>
<path d="M67.5734 58.856C68.4389 57.8579 69.4963 57.1292 70.3168 56.0759C71.2925 54.8226 72.062 53.3713 72.8622 51.9915C74.538 49.097 76.5731 46.4088 78.9041 44.0757C80.5575 42.4203 82.3354 40.8629 84.593 40.2281C84.8073 40.1689 86.2565 39.9974 87.5425 40.0586C87.5731 40.0402 87.6037 40.0219 87.6344 40.0055C87.8017 39.7116 87.9854 39.4157 88.1875 39.1074C89.6817 36.8417 92.4577 35.9109 94.8541 35.1985C101.506 33.2226 108.502 32.5674 115.395 32.6756C119.626 32.743 123.635 33.488 127.593 34.6433C130.72 35.7374 133.747 37.1234 136.609 38.9278C139.397 40.6873 142.228 42.6326 145.231 43.9532C146.831 44.6575 149.001 45.3902 150.83 45.0106C150.836 45.0943 150.822 45.1759 150.76 45.2494C149.779 46.3904 148.109 46.4435 146.586 46.0659C149.193 48.55 151.234 51.8976 152.257 55.2594C152.259 55.6677 152.257 56.4086 152.281 56.9332C151.981 56.9597 151.54 56.7332 151.34 56.5025C150.95 56.0555 150.558 55.635 150.154 55.235C150.385 55.5718 150.607 55.9187 150.824 56.2841C151.367 57.1945 152.202 58.3886 152.626 59.5929C152.626 60.2236 152.649 60.8523 152.663 61.483C152.445 61.5035 152.13 61.3443 152.03 61.2524C151.738 60.9871 151.461 60.7115 151.187 60.4359C152.487 62.2383 152.961 64.2468 153.02 66.3697C153.243 74.2303 144.578 93.4952 144.578 93.4952L141.308 80.4846C141.308 80.1621 141.306 79.8375 141.302 79.515C140.622 77.7086 140.048 75.8429 139.391 74.1242C138.575 71.9952 137.962 69.8152 137.366 67.6271C134.874 68.4109 132.2 68.7865 129.912 69.0702C124.264 69.7744 118.467 70.0867 112.78 69.6805C105.628 69.1702 97.1055 66.7228 91.3718 61.4218C91.1983 61.5647 89.7327 69.16 89.0122 71.685C87.9569 75.3897 86.4648 79.3783 84.5726 82.9504C84.4215 87.8656 77.6773 98.3512 77.6773 98.3553C77.7284 97.8573 77.8448 97.749 77.5549 97.4082C71.9906 90.909 69.9575 79.9498 69.2023 74.8713C68.8593 72.5729 69.3697 69.8704 69.584 67.4801C69.7412 65.7349 70.3781 64.3959 71.1721 63.0936C70.8006 63.3936 70.427 63.6998 70.0208 63.9713C69.6902 64.1937 69.2125 63.659 69.1676 63.3487C68.9655 61.9607 69.6657 60.6054 70.4659 59.4133C69.7106 59.6419 68.9308 59.7766 68.1756 59.695C67.9204 59.6664 67.2958 59.1704 67.5734 58.8499" fill="#623A16"/>
<g style="mix-blend-mode:multiply" opacity="0.5">
<mask id="mask3_195_9741" style="mask-type:luminance" maskUnits="userSpaceOnUse" x="73" y="50" width="81" height="49">
<path d="M153.028 50.3096H73.5945V98.3574H153.028V50.3096Z" fill="white"/>
</mask>
<g mask="url(#mask3_195_9741)">
<path d="M74.3157 91.0786C74.5239 91.3031 79.4819 88.0066 79.4227 87.7576C79.1982 86.8043 79.0573 85.8389 78.945 84.8693C79.6737 86.3859 80.5454 87.829 81.6293 89.1558C81.7579 89.315 82.0987 89.3334 82.1151 89.0558C82.3416 85.1816 83.2847 81.7299 84.8972 78.2578C86.4036 75.0164 87.9284 71.7688 88.8123 68.26C89.8982 63.9449 90.5064 59.3604 90.2248 54.8575C90.7085 55.9047 91.2698 56.911 91.9312 57.8499C95.1624 62.4446 100.339 64.6757 105.444 66.0433C108.785 66.9374 112.188 67.3395 115.611 67.6599C118.857 67.9641 122.127 68.1804 125.384 68.0171C129.255 67.8232 133.494 67.3762 137.289 65.9841C140.626 71.0157 142.637 76.7045 144.184 82.6566C144.249 82.9077 144.576 82.8934 144.678 82.6913C146.47 79.158 147.462 74.1857 146.562 69.9869C147.507 71.9403 148.185 73.9938 148.583 76.2065C148.626 76.4473 148.989 76.6127 149.091 76.3146C150.534 72.1445 150.248 66.9169 147.644 63.2938C148.997 64.2205 150.228 65.484 150.577 67.1272C150.661 67.4865 151.159 67.2925 151.083 66.9414C150.559 64.7206 149.895 62.4631 148.666 60.5464C148.25 59.8973 147.789 59.2971 147.293 58.7317C148.585 59.2236 149.86 59.7727 151.189 60.1646C151.406 60.2279 151.538 59.985 151.495 59.7931C150.959 57.4192 149.775 55.1943 148.195 53.3736C149.077 53.8022 149.936 54.288 150.765 54.8473C150.991 55.0004 151.181 54.7106 151.136 54.5003C150.848 53.1205 150.51 51.6732 150.001 50.3118C150.973 51.8876 151.745 53.5736 152.259 55.2637C152.261 55.672 152.259 56.4129 152.283 56.9375C151.983 56.964 151.542 56.7375 151.342 56.5068C150.952 56.0598 150.561 55.6393 150.156 55.2393C150.387 55.5761 150.61 55.923 150.826 56.2864C151.369 57.1967 152.204 58.3908 152.628 59.5951C152.628 60.2259 152.649 60.8546 152.665 61.4853C152.447 61.5057 152.132 61.3465 152.032 61.2547C151.74 60.9893 151.463 60.7137 151.189 60.4382C152.49 62.2406 152.963 64.2491 153.022 66.3719C153.245 74.2326 144.58 93.4974 144.58 93.4974L141.31 80.4868C141.31 80.1643 141.308 79.8398 141.304 79.5173C140.624 77.7108 140.05 75.8451 139.393 74.1264C138.577 71.9975 137.964 69.8175 137.368 67.6293C134.876 68.4131 132.202 68.7887 129.914 69.0724C124.266 69.7766 118.469 70.089 112.782 69.6828C105.63 69.1725 97.1077 66.725 91.3739 61.424C91.2004 61.5669 89.7348 69.1622 89.0143 71.6872C87.959 75.392 86.4669 79.3805 84.5747 82.9526C84.4236 87.8678 77.6796 98.3535 77.6796 98.3555C77.7306 97.8575 77.8449 97.7513 77.5571 97.4084C73.0603 92.0502 75.3097 84.5427 73.7176 80.9502C75.226 83.5242 72.3316 88.9333 74.3157 91.0766" fill="#604023"/>
</g>
</g>
<path d="M77.679 99.3248C77.6627 99.3248 77.6463 99.3248 77.63 99.3248C77.185 99.3023 76.8237 98.9818 76.736 98.5634C76.6564 98.3654 76.3644 97.7551 76.0562 97.1121C73.4659 91.7151 65.5808 75.2957 68.7223 66.8839C68.9325 66.3206 69.0937 65.7695 69.2468 65.2367C69.304 65.0367 69.3611 64.8407 69.4203 64.6468C69.3897 64.6366 69.3591 64.6243 69.3305 64.6121C68.7896 64.3733 68.3365 63.7915 68.2548 63.2322C68.1078 62.2321 68.3282 61.2829 68.6916 60.4297C68.5038 60.4236 68.3038 60.4194 68.114 60.399C67.9854 60.3847 67.8567 60.35 67.7261 60.2949C67.6914 60.2806 67.6485 60.2603 67.6158 60.2419C67.5566 60.2133 67.5077 60.1868 67.4648 60.1582C67.4526 60.1521 67.4424 60.146 67.4322 60.1378C67.2525 60.0215 67.0852 59.8724 66.9485 59.7091C66.9485 59.7091 66.9484 59.7091 66.9464 59.7071C66.4157 59.0662 66.534 58.3701 66.8872 57.9619C67.3138 57.4699 67.7711 57.0494 68.212 56.6433C68.7182 56.1779 69.1958 55.737 69.5979 55.2226C70.196 54.4551 70.7185 53.5917 71.1941 52.7691L72.0698 51.2463C73.8191 48.2274 75.9011 45.4963 78.2628 43.1326C79.9774 41.418 81.9022 39.7339 84.3741 39.0359C84.7048 38.944 85.8948 38.7909 87.1032 38.8174C87.2053 38.6501 87.3135 38.4827 87.4257 38.3112C89.0648 35.8291 91.8796 34.8249 94.623 34.0084C100.84 32.1632 107.664 31.3222 115.455 31.4446C117.144 31.4712 118.84 31.608 120.634 31.859C120.679 31.8631 120.722 31.8712 120.767 31.8835C121.271 31.9508 121.848 32.0448 122.422 32.1489L122.612 32.1835C123.124 32.2795 123.637 32.3815 124.149 32.4938L124.445 32.5571C124.923 32.6653 125.396 32.7796 125.87 32.898L126.215 32.9837C126.78 33.1307 127.346 33.2838 127.909 33.4491C131.385 34.6636 134.398 36.0945 137.17 37.8438C137.668 38.1581 138.168 38.4786 138.672 38.8011C140.932 40.2484 143.267 41.7466 145.667 42.8039C147.755 43.7224 149.441 44.0593 150.683 43.8C150.954 43.7449 151.236 43.8082 151.458 43.9735C151.681 44.1388 151.819 44.394 151.842 44.6696C151.879 45.1187 151.697 45.4309 151.542 45.6126C150.913 46.3433 150.046 46.7863 149.003 46.9292C149.701 47.7722 150.346 48.6805 150.936 49.6481C151.162 50.0196 151.379 50.3951 151.583 50.7768C151.583 50.7768 151.634 50.8748 151.634 50.8769C151.842 51.2708 152.04 51.6709 152.224 52.071C152.44 52.5486 152.616 52.9691 152.775 53.3896C152.948 53.8448 153.097 54.2816 153.228 54.7164C153.254 54.8062 153.269 54.898 153.269 54.9919V55.2308C153.271 55.637 153.271 56.2023 153.293 56.6249C153.31 56.9719 153.142 57.2862 152.873 57.472C153.144 57.9639 153.397 58.4844 153.583 59.0131C153.62 59.1152 153.638 59.2233 153.638 59.3315C153.638 59.8153 153.652 60.297 153.663 60.7787L153.675 61.2013C153.683 61.5258 153.53 61.8156 153.289 61.9973C153.742 63.2179 153.987 64.5713 154.032 66.0838C154.257 74.0751 145.863 92.8358 145.506 93.6318C145.337 94.0054 144.953 94.2381 144.543 94.1972C144.134 94.1625 143.791 93.8727 143.689 93.4747C142.434 88.5799 139.06 75.5754 138.537 74.2078C137.821 72.338 137.253 70.4152 136.743 68.57C134.467 69.1905 132.132 69.513 130.081 69.7682C123.73 70.5622 118.064 70.7643 112.759 70.3826C108.815 70.1029 99.2157 68.8129 91.9715 62.9138C91.8205 63.5935 91.6408 64.4325 91.4735 65.2163C90.9611 67.6086 90.3793 70.3193 89.9915 71.6869C88.8137 75.8183 87.2624 79.7619 85.5009 83.0911C83.2964 88.6942 79.6631 96.4385 78.5976 98.6838H78.5935C78.4567 99.0594 78.0974 99.3207 77.6851 99.3207M71.2206 61.8647C71.4472 61.8647 71.6758 61.9442 71.8575 62.1035C72.2106 62.4137 72.2902 62.9322 72.0453 63.3323C71.6064 64.0508 71.3758 64.8489 71.1084 65.7694C70.9451 66.3369 70.7736 66.9227 70.5389 67.5535C68.6549 72.5973 71.0635 82.1868 77.7014 96.0548C79.2323 92.7786 81.9554 86.8347 83.7251 82.3318C83.7394 82.2971 83.7536 82.2644 83.7699 82.2318C85.4784 79.0087 86.9889 75.1774 88.134 71.1542C88.5075 69.8498 89.1057 67.0554 89.5854 64.8101C90.1732 62.0654 90.5807 60.5998 90.808 60.4133C91.1815 60.1051 91.7245 60.1194 92.0776 60.448C98.9728 66.8268 108.936 68.1699 112.898 68.4537C118.074 68.8231 123.618 68.6251 129.842 67.8474C132.099 67.5657 134.71 67.2003 137.127 66.441C137.378 66.3614 137.649 66.388 137.88 66.5145C138.111 66.639 138.28 66.8554 138.35 67.1085C138.915 69.1926 139.536 71.4031 140.344 73.5137C140.858 74.8569 143.555 85.2098 144.861 90.2598C147.174 84.7832 152.273 72.0053 152.105 66.1328C152.044 63.9262 151.519 62.2117 150.456 60.7359C150.16 60.3276 150.229 59.7601 150.613 59.4356C150.901 59.1907 151.297 59.1437 151.626 59.2866C151.315 58.5579 150.856 57.821 150.444 57.1576C150.303 56.9311 150.168 56.7147 150.046 56.5126C149.839 56.1656 149.625 55.837 149.407 55.5145C149.127 55.1021 149.205 54.5469 149.586 54.2285C149.97 53.9121 150.529 53.9346 150.885 54.2836C150.972 54.3693 151.06 54.4571 151.148 54.5469C151.095 54.3959 151.04 54.2448 150.983 54.0958C150.83 53.6876 150.668 53.3079 150.497 52.9262C150.305 52.5037 150.123 52.1403 149.933 51.7791L150.738 51.23L149.886 51.6872C149.699 51.3382 149.501 50.9911 149.292 50.6523C148.337 49.0847 147.221 47.6865 145.975 46.5005C145.657 46.1984 145.584 45.7188 145.794 45.335C145.859 45.2166 145.945 45.1166 146.047 45.037C145.673 44.9002 145.292 44.7451 144.896 44.5696C142.356 43.453 139.956 41.914 137.635 40.4259C137.137 40.1055 136.641 39.789 136.147 39.4767C133.5 37.807 130.615 36.4374 127.327 35.2882C126.829 35.1433 126.284 34.9943 125.735 34.8514L125.396 34.7657C124.947 34.6534 124.49 34.5432 124.031 34.4391L123.739 34.3758C123.251 34.2696 122.757 34.1696 122.261 34.0778L122.093 34.0472C121.534 33.9472 120.981 33.8553 120.424 33.7757C120.418 33.7757 120.411 33.7736 120.405 33.7736C118.676 33.5287 117.048 33.3981 115.429 33.3736C107.832 33.2531 101.204 34.0655 95.1782 35.8577C92.7737 36.5721 90.3222 37.4315 89.0424 39.3706C88.8525 39.6585 88.6791 39.936 88.5219 40.2136C88.4341 40.3708 88.3014 40.4994 88.1443 40.5872C87.9871 40.6729 87.7013 40.7484 87.5441 40.7566C86.4031 40.6974 85.0845 40.8526 84.8783 40.8975C82.9719 41.4363 81.4001 42.7263 79.6345 44.494C77.3933 46.7393 75.4112 49.3358 73.7456 52.2098L72.8699 53.7345C72.3596 54.6143 71.7963 55.5451 71.1267 56.4044C70.6267 57.0454 70.0673 57.5618 69.5244 58.0598C69.3733 58.1986 69.2264 58.3354 69.0815 58.4722C69.4305 58.4354 69.8122 58.3558 70.2327 58.2293C70.6226 58.1088 71.0451 58.2497 71.288 58.5783C71.5309 58.9069 71.5411 59.3519 71.3145 59.6907C70.7858 60.4807 70.2062 61.4748 70.149 62.4525C70.2694 62.3566 70.3878 62.2627 70.5062 62.1667L70.6145 62.081C70.792 61.9381 71.0063 61.8687 71.2206 61.8687M152.714 60.2643C152.714 60.2643 152.724 60.2746 152.73 60.2786C152.736 60.2725 152.73 60.2684 152.714 60.2643ZM68.4303 58.4803L68.4385 58.4742L68.4283 58.4824L68.4303 58.4803Z" fill="#144B5F"/>
<path d="M87.9872 40.9178C88.5853 44.1552 88.8526 47.2925 89.3037 50.4013C89.5364 51.9485 89.7263 53.5019 90.057 55.0246C90.3836 56.5514 90.7571 58.0537 91.3102 59.6153C90.0814 58.4946 89.2343 56.9943 88.6138 55.4594C87.9831 53.9142 87.6238 52.2914 87.3891 50.6625C87.1564 49.0337 87.1156 47.3905 87.1952 45.7596C87.283 44.1307 87.4911 42.5018 87.9851 40.9178" fill="#3B2416"/>
<path d="M161.916 104.528C161.922 103.691 161.809 103.209 161.809 103.209C161.805 103.191 161.364 101.348 161.287 101.172C161.281 101.164 161.277 101.154 161.271 101.145C161.185 100.964 161.093 100.794 160.987 100.629C160.964 100.592 160.944 100.558 160.919 100.525C160.815 100.366 160.705 100.213 160.581 100.07C160.566 100.049 160.544 100.031 160.526 100.009C160.407 99.8799 160.287 99.7534 160.16 99.6391C160.136 99.6186 160.115 99.5942 160.091 99.5738C159.952 99.4533 159.799 99.341 159.646 99.2329L159.448 99.1084C159.311 99.0267 159.172 98.9471 159.029 98.8777C157.541 98.1633 156.296 97.9714 155.088 98.3184C153.075 98.8899 151.175 100.95 148.444 104.554C148.321 104.716 148.199 104.875 148.064 105.034C147.452 105.771 146.729 106.508 145.929 107.222C145.543 107.571 145.137 107.918 144.72 108.255C144.418 108.508 144.106 108.749 143.788 108.99C143.455 109.245 143.118 109.498 142.777 109.743C142.555 109.902 142.334 110.061 142.108 110.219C141.663 110.531 141.21 110.837 140.761 111.131C140.312 111.429 139.864 111.713 139.424 111.988C135.664 114.332 132.361 115.907 132.361 115.907C129.671 117.326 128.442 118.302 128.162 119.363C128.132 119.482 128.105 119.604 128.101 119.724C128.075 120.129 128.389 121.078 128.389 121.078C129.181 122.925 131.11 123.674 136.837 123.409C141.944 123.174 147.586 122.472 153.912 117.481C154.757 116.824 155.69 116.071 156.549 115.266C161.189 110.925 161.901 106.536 161.916 104.526" fill="#FDCB9B"/>
<path d="M134.805 124.427C130.394 124.427 128.406 123.578 127.499 121.459C127.358 121.043 127.099 120.196 127.134 119.661C127.14 119.473 127.185 119.271 127.224 119.12C127.634 117.573 129.32 116.418 131.908 115.052C131.976 115.019 135.244 113.454 138.91 111.168C139.352 110.89 139.785 110.617 140.22 110.327C140.671 110.033 141.116 109.733 141.551 109.429C141.777 109.272 141.994 109.114 142.21 108.959C142.547 108.718 142.874 108.471 143.196 108.222C143.506 107.988 143.806 107.755 144.098 107.512C144.513 107.177 144.905 106.842 145.278 106.506C146.066 105.799 146.752 105.095 147.317 104.415C147.442 104.266 147.556 104.117 147.67 103.966C150.52 100.207 152.504 98.0429 154.821 97.3876C156.245 96.9794 157.715 97.1774 159.444 98.0061C159.611 98.0857 159.775 98.1796 159.936 98.2755L160.158 98.4143C160.381 98.5674 160.559 98.7001 160.724 98.845L160.812 98.9287C160.952 99.0532 161.095 99.2022 161.236 99.3574L161.359 99.5023C161.463 99.6166 161.597 99.8044 161.726 100.002C161.722 99.9983 161.757 100.043 161.81 100.129C161.92 100.3 162.026 100.492 162.122 100.696L162.147 100.741C162.2 100.858 162.281 101.041 162.745 102.989C162.759 103.052 162.883 103.611 162.877 104.536C162.863 106.391 162.285 111.221 157.205 115.975C156.258 116.859 155.262 117.655 154.5 118.247C147.897 123.458 141.941 124.144 136.876 124.376C136.131 124.411 135.439 124.427 134.801 124.427M156.276 99.1165C155.958 99.1165 155.649 99.1614 155.347 99.2471C153.569 99.7513 151.679 101.874 149.207 105.138C149.075 105.312 148.942 105.483 148.799 105.655C148.175 106.406 147.423 107.175 146.568 107.943C146.172 108.302 145.752 108.661 145.321 109.008C145.021 109.259 144.696 109.508 144.368 109.759C144.029 110.021 143.682 110.282 143.333 110.531C143.11 110.692 142.884 110.855 142.651 111.015C142.2 111.329 141.739 111.643 141.279 111.941C140.84 112.235 140.391 112.517 139.948 112.795C136.164 115.154 132.906 116.716 132.77 116.779C130.424 118.016 129.277 118.894 129.087 119.61C129.061 119.71 129.059 119.747 129.057 119.755C129.057 119.916 129.171 120.394 129.298 120.774C129.714 121.737 130.659 122.733 136.787 122.443C141.767 122.213 147.148 121.582 153.306 116.722C154.041 116.15 154.992 115.391 155.882 114.56C160.414 110.319 160.93 106.124 160.942 104.518C160.946 103.828 160.861 103.425 160.858 103.421C160.707 102.782 160.469 101.819 160.391 101.558V101.554C160.322 101.411 160.248 101.276 160.165 101.145L160.101 101.047C160.022 100.925 159.94 100.809 159.844 100.696L159.777 100.623C159.711 100.551 159.613 100.449 159.511 100.358L159.436 100.284C159.336 100.2 159.213 100.111 159.087 100.023L158.928 99.9248C158.838 99.8718 158.725 99.8044 158.605 99.7472C157.717 99.3206 156.966 99.1145 156.274 99.1145" fill="#144B5F"/>
<path d="M155.056 116.542C155.901 115.885 156.748 115.154 157.608 114.352C162.247 110.01 162.958 105.959 162.972 103.948C162.388 102.219 161.586 100.415 160.504 98.5287C159.959 97.5652 159.337 96.5834 158.637 95.5771C153.493 88.192 147.79 88.7003 147.792 88.6962C147.769 88.6962 145.885 88.8697 145.699 88.9248C145.687 88.9268 145.679 88.9289 145.667 88.933C145.477 88.9901 145.295 89.0657 145.116 89.1391C145.079 89.1534 145.038 89.1738 145.005 89.1922C144.834 89.2718 144.664 89.3657 144.503 89.4637C144.483 89.478 144.46 89.4964 144.436 89.5106C144.291 89.6086 144.15 89.7086 144.019 89.8189C143.991 89.8393 143.966 89.8577 143.942 89.8801C143.799 90.0005 143.666 90.1332 143.542 90.27C143.515 90.3026 143.485 90.3332 143.46 90.3639C143.334 90.5108 143.211 90.6619 143.101 90.8293C142.184 92.1989 141.813 93.4052 141.98 94.6504C142.258 96.7242 144.022 98.9002 147.198 102.121C147.861 102.793 148.502 103.585 149.116 104.456C149.239 104.632 149.363 104.812 149.484 104.991C149.772 105.422 150.059 105.873 150.333 106.332C150.535 106.669 151.754 108.155 151.95 108.504" fill="#FDCB9B"/>
<path d="M154.463 115.781C155.398 114.958 156.384 114.17 157.278 113.321C158.16 112.466 158.968 111.541 159.66 110.547C161.034 108.571 161.981 106.259 162.005 103.944L162.056 104.258C161.499 102.511 160.756 100.817 159.874 99.188C158.911 97.6061 158.007 95.9527 156.856 94.5381C155.714 93.1093 154.369 91.8519 152.834 90.8967C152.065 90.4313 151.256 90.0189 150.403 89.7433C149.979 89.6066 149.546 89.4903 149.109 89.4086C148.891 89.3739 148.672 89.3351 148.456 89.3188C148.346 89.3045 148.24 89.3004 148.133 89.2943L147.976 89.2902H147.899H147.88C147.85 89.2902 147.748 89.3045 147.588 89.2371C147.417 89.1922 147.199 88.8922 147.221 88.6942C147.221 88.5044 147.272 88.435 147.288 88.386L147.837 89.2902L145.857 89.4617H145.843L145.819 89.4719L145.3 89.6576C145.241 89.6801 145.131 89.7434 145.047 89.7842L144.778 89.923L144.814 89.8985L144.674 89.9883L144.731 89.9556L144.357 90.221L144.316 90.2536C143.755 90.6762 143.184 91.5314 142.824 92.301C142.453 93.093 142.289 93.9462 142.445 94.7933C142.749 96.5079 143.971 98.0347 145.149 99.4513C145.755 100.164 146.392 100.856 147.037 101.541C147.697 102.213 148.335 102.956 148.889 103.728C149.46 104.497 149.942 105.316 150.436 106.128C150.922 106.9 151.554 107.608 152.081 108.435L151.812 108.584C151.297 107.835 150.642 107.143 150.093 106.334C149.581 105.55 149.074 104.754 148.495 104.024C147.921 103.279 147.305 102.607 146.619 101.95C145.947 101.282 145.282 100.605 144.641 99.9004C144.002 99.1941 143.377 98.4634 142.828 97.6591C142.287 96.8569 141.795 95.967 141.595 94.9484C141.371 93.9339 141.547 92.8378 141.951 91.9132C142.383 90.9824 142.806 90.1638 143.72 89.3882L143.68 89.4209L144.137 89.0698L144.194 89.0371H144.188L144.224 89.0085L144.533 88.835C144.643 88.7758 144.721 88.7228 144.863 88.6575L145.212 88.5166C145.335 88.4717 145.427 88.4268 145.576 88.3839L145.539 88.3941L147.744 88.1104L148.293 89.0147C148.325 88.9657 148.389 88.8963 148.405 88.7044C148.442 88.5064 148.238 88.2043 148.08 88.1594C147.937 88.092 147.848 88.1063 147.833 88.1043H147.858L147.96 88.1002H148.158C148.289 88.1002 148.419 88.1043 148.546 88.1145C148.803 88.1267 149.054 88.1635 149.307 88.1941C149.807 88.2696 150.299 88.386 150.783 88.5248C151.75 88.8044 152.663 89.231 153.53 89.7189C155.259 90.717 156.77 92.0458 158.048 93.542C159.346 95.0403 160.328 96.7079 161.391 98.3348C162.375 100.015 163.224 101.788 163.883 103.642L163.938 103.797L163.934 103.958C163.896 106.806 162.775 109.439 161.242 111.656C160.47 112.768 159.578 113.781 158.623 114.709C157.66 115.626 156.637 116.44 155.647 117.31L154.461 115.785L154.463 115.781Z" fill="#144B5F"/>
<path d="M141.944 106.31C141.944 106.31 153.909 118.057 152.458 121.57C151.007 125.083 129.909 127.838 128.098 122.105C126.286 116.371 128.098 117.643 128.098 117.643L141.946 106.308L141.944 106.31Z" fill="#ABC8E9"/>
<path d="M137.452 126.373C137.003 126.373 136.57 126.365 136.154 126.346C131.028 126.126 127.926 124.76 127.179 122.397C126.117 119.041 126.058 117.475 126.964 116.81C127.252 116.597 127.581 116.54 127.889 116.567L142.004 105.014L142.622 105.62C145.539 108.482 154.931 118.12 153.353 121.937C152.183 124.766 143.5 126.371 137.454 126.371M128.279 118.745C128.332 119.261 128.509 120.19 129.022 121.811C129.483 123.266 132.18 124.238 136.239 124.413C143.327 124.719 150.979 122.631 151.571 121.198C152.285 119.467 147.203 112.938 141.887 107.606L128.281 118.745H128.279Z" fill="#144B5F"/>
</g>
</g>
</g>
</svg>
