<svg width="37" height="37" viewBox="0 0 37 37" fill="none" xmlns="http://www.w3.org/2000/svg">
<path d="M18.1187 13.04C18.3574 13.04 18.5863 12.9452 18.7551 12.7764C18.9239 12.6076 19.0187 12.3787 19.0187 12.14C19.0187 11.9013 18.9239 11.6724 18.7551 11.5036C18.5863 11.3348 18.3574 11.24 18.1187 11.24C16.6947 11.24 15.3027 11.6623 14.1186 12.4534C12.9346 13.2446 12.0118 14.369 11.4668 15.6847C10.9219 17.0003 10.7793 18.448 11.0571 19.8446C11.3349 21.2413 12.0206 22.5242 13.0276 23.5312C14.0345 24.5381 15.3174 25.2238 16.7141 25.5016C18.1107 25.7795 19.5584 25.6369 20.8741 25.0919C22.1897 24.547 23.3142 23.6241 24.1053 22.4401C24.8965 21.2561 25.3187 19.864 25.3187 18.44C25.3187 18.2013 25.2239 17.9724 25.0551 17.8036C24.8863 17.6348 24.6574 17.54 24.4187 17.54C24.18 17.54 23.9511 17.6348 23.7823 17.8036C23.6136 17.9724 23.5187 18.2013 23.5187 18.44C23.5187 19.508 23.202 20.552 22.6087 21.4401C22.0153 22.3281 21.1719 23.0202 20.1852 23.4289C19.1985 23.8377 18.1127 23.9446 17.0652 23.7362C16.0178 23.5279 15.0556 23.0136 14.3004 22.2584C13.5452 21.5032 13.0309 20.541 12.8225 19.4935C12.6141 18.446 12.7211 17.3602 13.1298 16.3735C13.5385 15.3868 14.2306 14.5434 15.1187 13.9501C16.0067 13.3567 17.0507 13.04 18.1187 13.04Z" fill="black"/>
<path d="M35.2905 13.0945C35.2168 12.8695 35.0574 12.6825 34.8469 12.5741C34.6364 12.4658 34.3916 12.4446 34.1656 12.5153C33.9397 12.5861 33.7506 12.7429 33.6394 12.952C33.5282 13.161 33.5038 13.4055 33.5715 13.6324C34.6609 17.104 34.5544 20.8406 33.2692 24.2446C31.984 27.6485 29.5943 30.5231 26.4824 32.4084C23.3705 34.2938 19.7162 35.081 16.104 34.6441C12.4918 34.2072 9.13054 32.5715 6.55784 29.9986C3.98513 27.4257 2.34966 24.0643 1.91305 20.4521C1.47645 16.8399 2.26392 13.1856 4.14952 10.0738C6.03511 6.96206 8.90987 4.57259 12.3139 3.28765C15.718 2.00271 19.4546 1.89656 22.9261 2.98617C23.0396 3.02422 23.1596 3.03924 23.2789 3.03036C23.3983 3.02149 23.5147 2.98889 23.6213 2.93447C23.7279 2.88006 23.8226 2.80492 23.8998 2.71347C23.9771 2.62201 24.0353 2.51607 24.071 2.40184C24.1068 2.28761 24.1194 2.1674 24.1082 2.04823C24.0969 1.92906 24.062 1.81333 24.0055 1.70782C23.949 1.60231 23.872 1.50914 23.779 1.43375C23.686 1.35837 23.5789 1.30229 23.464 1.26879C19.6086 0.0595969 15.4591 0.178296 11.6791 1.60591C7.89915 3.03352 4.70715 5.68755 2.61368 9.1435C0.52021 12.5995 -0.353777 16.6576 0.131513 20.669C0.616803 24.6803 2.43333 28.413 5.29055 31.27C8.14776 34.127 11.8806 35.9433 15.8919 36.4283C19.9033 36.9133 23.9614 36.0391 27.4172 33.9454C30.873 31.8516 33.5269 28.6595 34.9542 24.8794C36.3816 21.0993 36.5 16.9498 35.2905 13.0945Z" fill="black"/>
<path d="M19.8322 6.86475C19.8343 6.61784 19.7426 6.37935 19.5755 6.19757C19.4084 6.01579 19.1784 5.90431 18.9322 5.88569C18.6633 5.86193 18.3943 5.83997 18.1183 5.83997C15.6263 5.83997 13.1902 6.57894 11.1182 7.96345C9.0461 9.34795 7.43113 11.3158 6.47746 13.6182C5.5238 15.9205 5.27428 18.4539 5.76045 20.8981C6.24663 23.3423 7.44666 25.5874 9.2088 27.3495C10.9709 29.1117 13.216 30.3117 15.6602 30.7979C18.1044 31.284 20.6378 31.0345 22.9402 30.0808C25.2425 29.1272 27.2104 27.5122 28.5949 25.4401C29.9794 23.3681 30.7183 20.932 30.7183 18.44C30.7183 18.1144 30.6984 17.7892 30.6586 17.4661C30.6474 17.341 30.6103 17.2195 30.5497 17.1094C30.489 16.9994 30.4062 16.9031 30.3064 16.8268C30.2066 16.7504 30.092 16.6957 29.9699 16.666C29.8478 16.6362 29.7209 16.6322 29.5971 16.6542C29.4734 16.6761 29.3556 16.7236 29.2512 16.7934C29.1467 16.8633 29.058 16.9542 28.9905 17.0602C28.9231 17.1662 28.8784 17.2851 28.8593 17.4093C28.8402 17.5335 28.8472 17.6603 28.8797 17.7817C28.899 17.9996 28.9183 18.2167 28.9183 18.44C28.9183 20.576 28.2849 22.6641 27.0982 24.4401C25.9115 26.2162 24.2248 27.6004 22.2513 28.4179C20.2779 29.2353 18.1064 29.4492 16.0114 29.0324C13.9164 28.6157 11.992 27.5871 10.4816 26.0767C8.97119 24.5663 7.94259 22.6419 7.52587 20.5469C7.10915 18.4519 7.32302 16.2804 8.14045 14.307C8.95787 12.3335 10.3421 10.6468 12.1182 9.46009C13.8942 8.27337 15.9823 7.63997 18.1183 7.63997C18.3416 7.63997 18.5578 7.66017 18.7758 7.67862L18.9445 7.69356C19.0575 7.69848 19.1703 7.68084 19.2763 7.64167C19.3824 7.60249 19.4796 7.54258 19.5623 7.46541C19.6449 7.38825 19.7113 7.29539 19.7577 7.19225C19.804 7.08912 19.8294 6.97779 19.8322 6.86475Z" fill="black"/>
<path d="M23.5188 8.54001V11.7674L17.4824 17.8037C17.3971 17.8868 17.3292 17.9861 17.2825 18.0958C17.2359 18.2054 17.2115 18.3232 17.2107 18.4424C17.21 18.5615 17.2329 18.6796 17.2781 18.7899C17.3234 18.9001 17.3901 19.0002 17.4743 19.0845C17.5586 19.1687 17.6587 19.2354 17.7689 19.2807C17.8792 19.3259 17.9973 19.3488 18.1164 19.3481C18.2356 19.3473 18.3534 19.3229 18.463 19.2763C18.5727 19.2296 18.672 19.1617 18.7551 19.0764L24.7914 13.04H28.0188C28.137 13.04 28.254 13.0168 28.3632 12.9715C28.4724 12.9263 28.5716 12.86 28.6551 12.7764L34.0551 7.37636C34.181 7.25049 34.2667 7.09013 34.3014 6.91556C34.3361 6.74099 34.3183 6.56005 34.2502 6.39561C34.1821 6.23117 34.0667 6.09062 33.9188 5.99172C33.7708 5.89283 33.5968 5.84003 33.4188 5.84001H30.7188V3.14001C30.7188 2.96202 30.666 2.78804 30.5671 2.64005C30.4682 2.49207 30.3276 2.37673 30.1632 2.30862C29.9987 2.24051 29.8178 2.22268 29.6432 2.2574C29.4687 2.29212 29.3083 2.37782 29.1824 2.50367L23.7824 7.90367C23.6988 7.98721 23.6325 8.08641 23.5873 8.1956C23.542 8.30479 23.5188 8.42182 23.5188 8.54001ZM25.3188 8.91266L28.9188 5.31266V6.74001C28.9187 6.85822 28.9419 6.97529 28.9872 7.08451C29.0324 7.19374 29.0986 7.29298 29.1822 7.37657C29.2658 7.46015 29.3651 7.52644 29.4743 7.57165C29.5835 7.61685 29.7006 7.64008 29.8188 7.64001H31.2461L27.6461 11.24H25.3188V8.91266Z" fill="black"/>
</svg>
