<svg width="38" height="45" viewBox="0 0 38 45" fill="none" xmlns="http://www.w3.org/2000/svg">
<path d="M31.8721 44.605H11.6321C11.3521 44.605 11.1321 44.385 11.1321 44.105V42.695C11.1321 42.685 11.1321 42.675 11.1321 42.655C11.2021 41.685 11.0421 41.025 10.6521 40.735C10.1921 40.385 9.47214 40.605 9.42214 40.625C7.99214 41.165 6.57214 41.155 6.45214 41.155C6.31214 41.155 5.41214 41.125 4.76214 40.415C4.24214 39.845 4.03214 39.025 4.15214 37.965C4.29214 36.725 4.25214 36.195 4.22214 35.995C3.78214 35.825 2.85214 35.395 2.77214 34.675C2.74214 34.385 2.83214 33.965 3.45214 33.595C3.57214 33.525 3.64214 33.465 3.69214 33.425C3.61214 33.375 3.49214 33.325 3.39214 33.295C2.72214 33.235 2.30214 32.975 2.14214 32.535C1.85214 31.745 2.64214 30.765 3.04214 30.345C3.12214 29.785 3.06214 29.365 2.88214 29.155C2.75214 29.005 2.59214 28.995 2.58214 28.995C2.55214 28.995 2.53214 28.995 2.50214 28.995C1.29214 28.835 0.512138 28.395 0.172138 27.695C-0.277862 26.765 0.292138 25.785 0.312138 25.745C0.312138 25.735 0.322138 25.735 0.322138 25.725L3.08214 21.565C3.48214 20.725 3.26214 20.035 3.21214 19.875C2.28214 18.535 3.11214 13.855 4.99214 9.92502C6.69214 6.36502 10.6321 0.39502 17.9621 0.39502H23.3921C27.8021 0.39502 31.4621 2.00502 33.9921 5.05502C36.2621 7.78502 37.5121 11.625 37.5221 15.855C38.3821 21.195 32.8821 28.575 32.6421 28.885C32.6321 28.905 32.6221 28.915 32.6021 28.935C30.6821 30.935 31.7821 40.505 32.3721 44.025C32.3921 44.175 32.3521 44.315 32.2621 44.435C32.1721 44.555 32.0221 44.605 31.8721 44.605ZM12.1321 43.605H31.2921C31.1321 42.505 30.7821 40.015 30.6121 37.365C30.3021 32.535 30.7221 29.475 31.8521 28.275C32.1821 27.835 37.3221 20.775 36.5221 15.995C36.5221 15.965 36.5121 15.935 36.5121 15.915C36.5121 9.22502 33.0721 1.41502 23.3921 1.41502H17.9621C11.1821 1.41502 7.49214 7.02502 5.89214 10.375C4.97214 12.275 4.30214 14.355 3.99214 16.235C3.68214 18.085 3.84214 19.105 4.03214 19.325C4.06214 19.355 4.08214 19.385 4.09214 19.425C4.11214 19.475 4.65214 20.635 3.96214 22.045C3.95214 22.065 3.94214 22.085 3.93214 22.105L1.17214 26.275C1.14214 26.335 0.872138 26.855 1.07214 27.275C1.25214 27.635 1.78214 27.895 2.60214 28.005C2.77214 28.015 3.25214 28.065 3.63214 28.505C4.04214 28.975 4.16214 29.705 3.99214 30.675C3.97214 30.775 3.92214 30.875 3.85214 30.945C3.36214 31.435 3.01214 32.045 3.07214 32.205C3.09214 32.225 3.21214 32.295 3.51214 32.315C3.54214 32.315 3.57214 32.325 3.60214 32.325C3.84214 32.385 4.64214 32.645 4.74214 33.295C4.80214 33.715 4.54214 34.105 3.97214 34.455C3.87214 34.515 3.82214 34.565 3.79214 34.595C3.89214 34.725 4.25214 34.935 4.59214 35.065C4.68214 35.075 4.78214 35.105 4.86214 35.165C5.15214 35.355 5.40214 35.745 5.15214 38.075C5.07214 38.835 5.19214 39.395 5.51214 39.745C5.89214 40.155 6.45214 40.165 6.46214 40.155C6.47214 40.155 6.47214 40.155 6.48214 40.155C6.49214 40.155 7.82214 40.175 9.09214 39.685H9.10214C9.15214 39.665 10.3621 39.245 11.2821 39.945C11.9521 40.455 12.2421 41.395 12.1521 42.715V43.605H12.1321Z" fill="black"/>
<path d="M17.3619 28.875C16.5819 28.875 15.8719 28.505 15.4219 27.885C13.8819 27.875 12.6219 26.635 12.5819 25.095C11.4419 24.945 10.4919 24.115 10.2019 22.985C8.94188 22.405 8.12188 21.125 8.12188 19.725C8.12188 19.045 8.31188 18.385 8.67188 17.825C8.00188 17.285 7.61188 16.475 7.61188 15.605C7.61188 14.695 8.04188 13.855 8.74188 13.325C8.41188 12.855 8.23188 12.285 8.23188 11.695C8.23188 10.505 8.97188 9.45499 10.0519 9.03499C10.0419 8.95499 10.0419 8.86499 10.0419 8.78499C10.0419 7.48499 10.8919 6.37499 12.1219 6.03499C12.4819 4.84499 13.5819 4.01499 14.8519 4.01499C14.9619 4.01499 15.0719 4.02499 15.1819 4.03499C15.5519 3.19499 16.4019 2.61499 17.3619 2.61499C18.6719 2.61499 19.7419 3.68499 19.7419 4.99499V26.515C19.7419 27.805 18.6819 28.875 17.3619 28.875ZM15.7019 26.865C15.8819 26.865 16.0619 26.965 16.1419 27.135C16.3819 27.595 16.8519 27.875 17.3619 27.875C18.1219 27.875 18.7419 27.255 18.7419 26.495V4.97499C18.7419 4.21499 18.1219 3.59499 17.3619 3.59499C16.7119 3.59499 16.1419 4.05499 16.0119 4.69499C15.9819 4.83499 15.9019 4.95499 15.7819 5.02499C15.6619 5.09499 15.5219 5.11499 15.3819 5.07499C15.2119 5.02499 15.0319 4.99499 14.8619 4.99499C13.9619 4.99499 13.1919 5.63499 13.0319 6.52499C12.9919 6.73499 12.8319 6.89499 12.6219 6.93499C11.7119 7.07499 11.0519 7.84499 11.0519 8.76499C11.0519 8.92499 11.0719 9.08499 11.1119 9.23499C11.1419 9.36499 11.1219 9.50499 11.0519 9.62499C10.9819 9.74499 10.8619 9.82499 10.7319 9.85499C9.87188 10.035 9.25188 10.795 9.25188 11.675C9.25188 12.195 9.47188 12.705 9.86188 13.055C9.99188 13.165 10.0519 13.335 10.0219 13.505C9.99188 13.675 9.88188 13.815 9.73188 13.885C9.06188 14.185 8.62188 14.845 8.62188 15.585C8.62188 16.285 9.01188 16.915 9.63188 17.235C9.77188 17.305 9.86188 17.435 9.89188 17.585C9.92188 17.735 9.88188 17.895 9.78188 18.005C9.37188 18.475 9.14188 19.085 9.14188 19.705C9.14188 20.785 9.82188 21.765 10.8319 22.135C11.0019 22.195 11.1219 22.345 11.1519 22.525C11.3019 23.475 12.1419 24.155 13.1019 24.095C13.2519 24.085 13.4019 24.145 13.5019 24.265C13.6019 24.375 13.6519 24.535 13.6219 24.685C13.6019 24.795 13.5919 24.895 13.5919 25.005C13.5919 26.025 14.4219 26.865 15.4519 26.865C15.5219 26.865 15.5819 26.865 15.6519 26.855C15.6619 26.865 15.6819 26.865 15.7019 26.865Z" fill="black"/>
<path d="M14.1222 10.625C13.3022 10.625 12.6422 9.95504 12.6422 9.14504C12.6422 8.33504 13.3122 7.66504 14.1222 7.66504C14.9422 7.66504 15.6022 8.33504 15.6022 9.14504C15.6022 9.95504 14.9422 10.625 14.1222 10.625ZM14.1222 8.65504C13.8522 8.65504 13.6422 8.87504 13.6422 9.13504C13.6422 9.39504 13.8622 9.61504 14.1222 9.61504C14.3822 9.61504 14.6022 9.39504 14.6022 9.13504C14.6022 8.87504 14.3922 8.65504 14.1222 8.65504Z" fill="black"/>
<path d="M11.8324 15.935C11.0124 15.935 10.3524 15.265 10.3524 14.455C10.3524 13.635 11.0224 12.975 11.8324 12.975C12.6524 12.975 13.3124 13.645 13.3124 14.455C13.3124 15.265 12.6524 15.935 11.8324 15.935ZM11.8324 13.965C11.5624 13.965 11.3524 14.185 11.3524 14.445C11.3524 14.705 11.5724 14.925 11.8324 14.925C12.1024 14.925 12.3124 14.705 12.3124 14.445C12.3124 14.185 12.1024 13.965 11.8324 13.965Z" fill="black"/>
<path d="M15.5228 24.925C14.5928 24.925 13.8328 24.165 13.8328 23.235C13.8328 22.305 14.5928 21.545 15.5228 21.545C16.4528 21.545 17.2128 22.305 17.2128 23.235C17.2128 24.165 16.4528 24.925 15.5228 24.925ZM15.5228 22.535C15.1428 22.535 14.8328 22.845 14.8328 23.225C14.8328 23.605 15.1428 23.915 15.5228 23.915C15.9028 23.915 16.2128 23.605 16.2128 23.225C16.2128 22.845 15.9028 22.535 15.5228 22.535Z" fill="black"/>
<path d="M15.5228 24.925C14.5928 24.925 13.8328 24.165 13.8328 23.235C13.8328 22.305 14.5928 21.545 15.5228 21.545C16.4528 21.545 17.2128 22.305 17.2128 23.235C17.2128 24.165 16.4528 24.925 15.5228 24.925ZM15.5228 22.535C15.1428 22.535 14.8328 22.845 14.8328 23.225C14.8328 23.605 15.1428 23.915 15.5228 23.915C15.9028 23.915 16.2128 23.605 16.2128 23.225C16.2128 22.845 15.9028 22.535 15.5228 22.535Z" fill="black"/>
<path d="M12.0518 21.585C11.2318 21.585 10.5718 20.915 10.5718 20.105C10.5718 19.285 11.2418 18.625 12.0518 18.625C12.8718 18.625 13.5318 19.295 13.5318 20.105C13.5418 20.925 12.8718 21.585 12.0518 21.585ZM12.0518 19.615C11.7818 19.615 11.5718 19.835 11.5718 20.095C11.5718 20.355 11.7918 20.575 12.0518 20.575C12.3118 20.575 12.5318 20.355 12.5318 20.095C12.5318 19.835 12.3218 19.615 12.0518 19.615Z" fill="black"/>
<path d="M16.4317 19.255C15.6117 19.255 14.9517 18.585 14.9517 17.775C14.9517 16.955 15.6217 16.295 16.4317 16.295C17.2417 16.295 17.9117 16.965 17.9117 17.775C17.9117 18.595 17.2517 19.255 16.4317 19.255ZM16.4317 17.295C16.1617 17.295 15.9517 17.515 15.9517 17.775C15.9517 18.035 16.1717 18.255 16.4317 18.255C16.6917 18.255 16.9117 18.035 16.9117 17.775C16.9117 17.515 16.7017 17.295 16.4317 17.295Z" fill="black"/>
<path d="M16.962 14.235C16.142 14.235 15.482 13.565 15.482 12.755C15.482 11.935 16.152 11.275 16.962 11.275C17.772 11.275 18.442 11.945 18.442 12.755C18.452 13.575 17.782 14.235 16.962 14.235ZM16.962 12.265C16.692 12.265 16.482 12.485 16.482 12.745C16.482 13.005 16.702 13.225 16.962 13.225C17.222 13.225 17.442 13.005 17.442 12.745C17.442 12.485 17.232 12.265 16.962 12.265Z" fill="black"/>
<path d="M16.2029 7.19496C16.1529 7.19496 16.1129 7.18496 16.0629 7.17496C15.5729 7.03496 15.2129 6.73496 15.0129 6.32496C14.6229 5.50496 15.0129 4.51496 15.0629 4.40496C15.1729 4.15496 15.4629 4.03496 15.7129 4.13496C15.9629 4.24496 16.0829 4.53496 15.9829 4.78496C15.9129 4.95496 15.7429 5.53496 15.9129 5.89496C15.9629 5.99496 16.0529 6.13496 16.3429 6.21496C16.6029 6.29496 16.7629 6.57496 16.6829 6.83496C16.6229 7.05496 16.4229 7.19496 16.2029 7.19496Z" fill="black"/>
<path d="M13.1827 12.685C12.9827 12.685 12.7927 12.565 12.7127 12.365C11.8827 10.215 10.5727 9.87497 10.5127 9.85497C10.2427 9.79497 10.0727 9.52497 10.1327 9.26497C10.1927 8.99497 10.4627 8.82497 10.7327 8.88497C10.8127 8.90497 12.6127 9.32497 13.6427 12.005C13.7427 12.265 13.6127 12.555 13.3527 12.655C13.3027 12.675 13.2327 12.685 13.1827 12.685Z" fill="black"/>
<path d="M12.5727 18.1451C12.3427 18.1451 12.1327 17.9851 12.0827 17.7451C12.0227 17.4751 12.2027 17.2051 12.4727 17.1551C12.8827 17.0751 13.2127 16.8851 13.5127 16.5751C14.2927 15.7551 14.4127 14.4251 14.4127 14.4151C14.4327 14.1451 14.6727 13.9351 14.9527 13.9551C15.2227 13.9751 15.4327 14.2151 15.4127 14.4951C15.4027 14.5651 15.2627 16.1851 14.2327 17.2651C13.8027 17.7151 13.2827 18.0051 12.6827 18.1351C12.6427 18.1451 12.6127 18.1451 12.5727 18.1451Z" fill="black"/>
<path d="M16.0825 20.7051C13.6025 20.7051 13.2825 17.2251 13.2725 17.0751C13.2525 16.7951 13.4525 16.5551 13.7325 16.5351C14.0125 16.5151 14.2525 16.7151 14.2725 16.9951C14.2725 17.0251 14.5225 19.7051 16.0925 19.7051C16.1025 19.7051 16.1125 19.7051 16.1225 19.7051C16.3925 19.7051 16.6225 19.9251 16.6225 20.1951C16.6225 20.4751 16.4025 20.6951 16.1325 20.7051C16.1025 20.7051 16.0925 20.7051 16.0825 20.7051Z" fill="black"/>
<path d="M24.3317 28.875C23.0217 28.875 21.9517 27.805 21.9517 26.495V4.97497C21.9517 3.66497 23.0217 2.59497 24.3317 2.59497C25.2817 2.59497 26.1317 3.16497 26.5117 4.01497C26.6217 4.00497 26.7317 3.99497 26.8417 3.99497C28.1117 3.99497 29.2117 4.82497 29.5717 6.01497C30.7917 6.35497 31.6517 7.46497 31.6517 8.76497C31.6517 8.84497 31.6517 8.93497 31.6417 9.01497C32.7217 9.43497 33.4617 10.495 33.4617 11.675C33.4617 12.255 33.2817 12.825 32.9517 13.305C33.6517 13.835 34.0817 14.675 34.0817 15.585C34.0817 16.465 33.6817 17.275 33.0217 17.805C33.3717 18.375 33.5717 19.035 33.5717 19.705C33.5717 21.105 32.7417 22.385 31.4917 22.965C31.2017 24.095 30.2617 24.925 29.1117 25.075C29.0717 26.615 27.8217 27.855 26.2717 27.865C25.8217 28.495 25.1017 28.875 24.3317 28.875ZM24.3317 3.59497C23.5717 3.59497 22.9517 4.21497 22.9517 4.97497V26.495C22.9517 27.255 23.5717 27.875 24.3317 27.875C24.8417 27.875 25.3117 27.595 25.5517 27.135C25.6517 26.955 25.8417 26.845 26.0517 26.875C26.1217 26.885 26.1817 26.885 26.2517 26.885C27.2717 26.885 28.1117 26.055 28.1117 25.025C28.1117 24.915 28.1017 24.805 28.0817 24.705C28.0517 24.555 28.1017 24.395 28.2017 24.285C28.3017 24.175 28.4517 24.105 28.6017 24.115C29.5717 24.175 30.4117 23.495 30.5517 22.545C30.5817 22.365 30.7017 22.215 30.8717 22.155C31.8817 21.775 32.5617 20.805 32.5617 19.725C32.5617 19.095 32.3317 18.495 31.9217 18.025C31.8217 17.905 31.7817 17.755 31.8117 17.605C31.8417 17.455 31.9417 17.325 32.0717 17.255C32.6917 16.935 33.0817 16.305 33.0817 15.605C33.0817 14.875 32.6517 14.205 31.9717 13.905C31.8217 13.835 31.7117 13.695 31.6817 13.525C31.6517 13.355 31.7117 13.185 31.8417 13.075C32.2317 12.725 32.4517 12.225 32.4517 11.695C32.4517 10.815 31.8317 10.055 30.9717 9.87497C30.8417 9.84497 30.7217 9.76497 30.6517 9.64497C30.5817 9.52497 30.5617 9.38497 30.5917 9.25497C30.6317 9.10497 30.6517 8.94497 30.6517 8.78497C30.6517 7.86497 29.9917 7.09497 29.0817 6.95497C28.8717 6.92497 28.7017 6.75497 28.6717 6.54497C28.5117 5.65497 27.7417 5.01497 26.8417 5.01497C26.6617 5.01497 26.4917 5.04497 26.3217 5.09497C26.1917 5.13497 26.0417 5.11497 25.9217 5.04497C25.8017 4.97497 25.7217 4.85497 25.6917 4.71497C25.5517 4.05497 24.9817 3.59497 24.3317 3.59497Z" fill="black"/>
<path d="M27.5723 10.625C26.7523 10.625 26.0923 9.95504 26.0923 9.14504C26.0923 8.33504 26.7623 7.66504 27.5723 7.66504C28.3923 7.66504 29.0523 8.33504 29.0523 9.14504C29.0523 9.95504 28.3923 10.625 27.5723 10.625ZM27.5723 8.65504C27.3023 8.65504 27.0923 8.87504 27.0923 9.13504C27.0923 9.39504 27.3123 9.61504 27.5723 9.61504C27.8423 9.61504 28.0523 9.39504 28.0523 9.13504C28.0523 8.87504 27.8423 8.65504 27.5723 8.65504Z" fill="black"/>
<path d="M29.8624 15.935C29.0424 15.935 28.3824 15.265 28.3824 14.455C28.3824 13.635 29.0524 12.975 29.8624 12.975C30.6724 12.975 31.3424 13.645 31.3424 14.455C31.3524 15.265 30.6824 15.935 29.8624 15.935ZM29.8624 13.965C29.5924 13.965 29.3824 14.185 29.3824 14.445C29.3824 14.705 29.6024 14.925 29.8624 14.925C30.1224 14.925 30.3424 14.705 30.3424 14.445C30.3424 14.185 30.1324 13.965 29.8624 13.965Z" fill="black"/>
<path d="M26.172 24.925C25.242 24.925 24.482 24.165 24.482 23.235C24.482 22.305 25.242 21.535 26.172 21.535C27.102 21.535 27.862 22.295 27.862 23.225C27.872 24.165 27.112 24.925 26.172 24.925ZM26.172 22.535C25.792 22.535 25.482 22.845 25.482 23.225C25.482 23.605 25.792 23.915 26.172 23.915C26.552 23.915 26.862 23.605 26.862 23.225C26.872 22.845 26.552 22.535 26.172 22.535Z" fill="black"/>
<path d="M26.172 24.925C25.242 24.925 24.482 24.165 24.482 23.235C24.482 22.305 25.242 21.535 26.172 21.535C27.102 21.535 27.862 22.295 27.862 23.225C27.872 24.165 27.112 24.925 26.172 24.925ZM26.172 22.535C25.792 22.535 25.482 22.845 25.482 23.225C25.482 23.605 25.792 23.915 26.172 23.915C26.552 23.915 26.862 23.605 26.862 23.225C26.872 22.845 26.552 22.535 26.172 22.535Z" fill="black"/>
<path d="M29.6417 21.585C28.8217 21.585 28.1617 20.915 28.1617 20.105C28.1617 19.285 28.8317 18.625 29.6417 18.625C30.4517 18.625 31.1217 19.295 31.1217 20.105C31.1217 20.925 30.4617 21.585 29.6417 21.585ZM29.6417 19.615C29.3717 19.615 29.1617 19.835 29.1617 20.095C29.1617 20.355 29.3817 20.575 29.6417 20.575C29.9017 20.575 30.1217 20.355 30.1217 20.095C30.1217 19.835 29.9117 19.615 29.6417 19.615Z" fill="black"/>
<path d="M25.2628 19.255C24.4428 19.255 23.7828 18.585 23.7828 17.775C23.7828 16.955 24.4528 16.295 25.2628 16.295C26.0728 16.295 26.7428 16.965 26.7428 17.775C26.7528 18.595 26.0828 19.255 25.2628 19.255ZM25.2628 17.295C24.9928 17.295 24.7828 17.515 24.7828 17.775C24.7828 18.035 25.0028 18.255 25.2628 18.255C25.5228 18.255 25.7428 18.035 25.7428 17.775C25.7428 17.515 25.5328 17.295 25.2628 17.295Z" fill="black"/>
<path d="M24.7315 14.235C23.9115 14.235 23.2515 13.565 23.2515 12.755C23.2515 11.935 23.9215 11.275 24.7315 11.275C25.5415 11.275 26.2115 11.945 26.2115 12.755C26.2115 13.575 25.5515 14.235 24.7315 14.235ZM24.7315 12.265C24.4615 12.265 24.2515 12.485 24.2515 12.745C24.2515 13.005 24.4715 13.225 24.7315 13.225C24.9915 13.225 25.2115 13.005 25.2115 12.745C25.2115 12.485 24.9915 12.265 24.7315 12.265Z" fill="black"/>
<path d="M25.4923 7.19503C25.2723 7.19503 25.0823 7.05503 25.0123 6.83503C24.9323 6.57503 25.0823 6.29503 25.3523 6.21503C25.6423 6.13503 25.7323 5.98503 25.7823 5.89503C25.9523 5.52503 25.7723 4.93503 25.7123 4.79503C25.6023 4.54503 25.7223 4.24503 25.9823 4.14503C26.2323 4.03503 26.5323 4.15503 26.6323 4.41503C26.6823 4.52503 27.0723 5.51503 26.6823 6.33503C26.4823 6.74503 26.1223 7.04503 25.6323 7.18503C25.5823 7.18503 25.5323 7.19503 25.4923 7.19503Z" fill="black"/>
<path d="M28.5218 12.685C28.4618 12.685 28.4018 12.675 28.3418 12.655C28.0818 12.555 27.9518 12.265 28.0518 12.005C29.0818 9.32497 30.8818 8.89497 30.9618 8.88497C31.2318 8.82497 31.5018 8.99497 31.5618 9.26497C31.6218 9.53497 31.4518 9.79497 31.1818 9.85497C31.1118 9.87497 29.8118 10.225 28.9918 12.365C28.9118 12.565 28.7218 12.685 28.5218 12.685Z" fill="black"/>
<path d="M29.122 18.145C29.092 18.145 29.052 18.145 29.022 18.135C28.422 18.005 27.902 17.715 27.472 17.265C26.442 16.185 26.302 14.565 26.292 14.495C26.272 14.215 26.472 13.975 26.752 13.955C27.032 13.935 27.272 14.135 27.292 14.415C27.292 14.435 27.412 15.755 28.192 16.575C28.482 16.885 28.822 17.075 29.232 17.155C29.502 17.215 29.672 17.475 29.622 17.745C29.562 17.985 29.352 18.145 29.122 18.145Z" fill="black"/>
<path d="M25.6217 20.705C25.6117 20.705 25.5917 20.705 25.5817 20.705C25.3017 20.705 25.0817 20.475 25.0917 20.195C25.0917 19.915 25.3217 19.695 25.6017 19.705C25.6117 19.705 25.6117 19.705 25.6217 19.705C27.1917 19.705 27.4417 17.015 27.4417 16.995C27.4617 16.725 27.7117 16.515 27.9817 16.535C28.2517 16.555 28.4617 16.795 28.4417 17.075C28.4217 17.215 28.1017 20.705 25.6217 20.705Z" fill="black"/>
</svg>
