<svg width="257" height="274" viewBox="0 0 257 274" fill="none" xmlns="http://www.w3.org/2000/svg">
<mask id="mask0_195_10248" style="mask-type:luminance" maskUnits="userSpaceOnUse" x="0" y="0" width="274" height="274">
<path d="M273.236 0H0V273.236H273.236V0Z" fill="white"/>
</mask>
<g mask="url(#mask0_195_10248)">
<mask id="mask1_195_10248" style="mask-type:luminance" maskUnits="userSpaceOnUse" x="-1" y="0" width="275" height="274">
<path d="M273.233 0H-0.00292969V273.236H273.233V0Z" fill="white"/>
</mask>
<g mask="url(#mask1_195_10248)">
<path d="M77.6418 178.53C78.7347 179.855 79.9086 181.108 81.2723 182.228C85.4518 185.672 89.3859 187.104 94.5749 188.629C100.239 190.296 106.496 191.139 112.368 191.496C115.161 191.665 117.825 191.536 120.477 190.78C123.047 190.046 125.233 188.634 127.674 187.721C133.223 185.644 138.662 183.769 143.699 180.488C146.019 178.975 148.827 178.221 150.94 176.387C153.743 173.953 153.171 172.227 153.111 168.799C153.083 167.188 153.472 166.629 154.307 165.369C155.228 163.982 155.694 162.366 156.546 160.906C157.389 159.461 157.892 157.921 158.591 156.473C158.935 155.76 159.539 155.148 159.863 154.454C160.235 153.658 160.546 152.724 160.936 151.902C161.49 150.728 161.783 149.526 162.327 148.314C162.646 147.603 163.026 146.897 163.324 146.181C163.688 145.314 164.025 144.459 164.379 143.598C164.554 143.173 164.728 142.741 164.898 142.293C164.9 142.283 164.903 142.275 164.908 142.265C165.072 141.827 165.229 141.38 165.386 140.922C165.437 140.772 165.485 140.618 165.533 140.466C165.639 140.14 165.745 139.808 165.846 139.469C165.9 139.29 165.953 139.108 166.003 138.926C166.1 138.597 166.188 138.263 166.277 137.924C166.325 137.739 166.373 137.554 166.421 137.365C166.514 136.985 166.603 136.598 166.687 136.206C166.719 136.057 166.752 135.91 166.785 135.761C166.899 135.217 167.003 134.66 167.099 134.093C167.117 133.982 167.132 133.868 167.15 133.757C167.223 133.296 167.294 132.831 167.354 132.358C167.38 132.158 167.402 131.953 167.425 131.751C167.471 131.351 167.514 130.949 167.552 130.539C167.575 130.314 167.59 130.088 167.61 129.861C167.643 129.446 167.668 129.026 167.688 128.603C167.698 128.386 167.711 128.171 167.721 127.948C167.741 127.427 167.749 126.898 167.754 126.362C167.754 126.235 167.759 126.111 167.759 125.985C167.759 125.322 167.744 124.646 167.714 123.963C167.706 123.776 167.691 123.584 167.683 123.397C167.658 122.891 167.628 122.382 167.585 121.866C167.564 121.613 167.539 121.36 167.516 121.104C167.471 120.631 167.42 120.156 167.364 119.673C167.332 119.407 167.301 119.139 167.263 118.87C167.197 118.362 167.119 117.846 167.033 117.327C166.993 117.087 166.96 116.849 166.917 116.606C166.785 115.845 166.641 115.076 166.474 114.291C165.573 110.054 164.361 106.259 162.927 102.881C161.781 100.179 160.493 97.7402 159.109 95.5569C158.419 94.4639 157.703 93.4342 156.969 92.4678C152.197 86.1783 146.657 82.4846 141.903 80.9134C141.172 80.6731 140.458 80.4808 139.773 80.3391C139.429 80.2683 139.09 80.2076 138.761 80.162C137.106 79.9267 135.621 79.9875 134.394 80.3239C134.394 80.3239 130.685 77.7434 124.816 75.7852C124.598 75.7118 124.378 75.641 124.155 75.5701C123.341 75.3121 122.485 75.0692 121.597 74.8466C121.213 74.7504 120.821 74.6568 120.423 74.5683C119.477 74.3608 118.498 74.1761 117.486 74.0294C117.216 73.9889 116.947 73.9535 116.674 73.9206C115.892 73.8245 115.093 73.7486 114.278 73.698C113.924 73.6752 113.567 73.66 113.206 73.6474C112.684 73.6297 112.158 73.6246 111.629 73.6297C110.719 73.6398 109.793 73.6828 108.851 73.7663C108.548 73.7941 108.242 73.8245 107.936 73.8599C105.479 74.1433 102.939 74.6998 100.356 75.6106C97.7728 76.5239 95.1466 77.7965 92.5154 79.5068C92.0929 79.7825 91.6705 80.0684 91.248 80.3594C91.1341 80.4378 91.0228 80.5162 90.9115 80.5947C90.5446 80.8527 90.1777 81.1158 89.8134 81.384C89.7552 81.427 89.6946 81.47 89.6364 81.513C89.224 81.8217 88.8116 82.1379 88.4018 82.4593C88.298 82.5427 88.1943 82.6262 88.0906 82.7097C87.749 82.983 87.4125 83.2587 87.076 83.5395C86.9925 83.6104 86.9065 83.6812 86.823 83.7495C86.4207 84.0911 86.0211 84.4402 85.6239 84.7944C85.5328 84.8754 85.4442 84.9588 85.3531 85.0398C85.0267 85.3358 84.7003 85.6369 84.379 85.9405C84.2829 86.0316 84.1868 86.1201 84.0907 86.2112C83.7011 86.5856 83.314 86.9651 82.932 87.3522C82.8636 87.4205 82.8004 87.4913 82.7321 87.5596C82.4057 87.8936 82.0844 88.2301 81.7631 88.5742C81.6644 88.6779 81.5682 88.7841 81.4696 88.8904C81.0951 89.2977 80.7208 89.7101 80.3539 90.1326C80.3236 90.168 80.2931 90.2035 80.2628 90.2364C79.9238 90.6285 79.5898 91.0257 79.2558 91.428C79.1622 91.5443 79.0662 91.6582 78.9726 91.7746C78.6386 92.1844 78.3072 92.5994 77.9833 93.0219C77.958 93.0547 77.9328 93.0876 77.9075 93.1205C77.5609 93.5709 77.2219 94.0313 76.8854 94.4943C76.7993 94.6157 76.7133 94.7346 76.6273 94.8561C76.3439 95.2558 76.0606 95.6606 75.7848 96.0679C75.7291 96.1489 75.6734 96.2299 75.6178 96.3108C75.299 96.789 74.9854 97.2747 74.6767 97.7655C74.6008 97.8845 74.5299 98.0033 74.4566 98.1222C74.2036 98.5321 73.9556 98.9445 73.7102 99.3619C73.6444 99.4758 73.5787 99.5871 73.5129 99.6984C73.2194 100.204 72.9335 100.718 72.6552 101.237C72.6375 101.267 72.6198 101.297 72.6021 101.33C72.6046 101.325 72.6096 101.32 72.6147 101.315C67.7875 110.309 66.2544 121.18 65.7434 131.237C65.4651 136.712 65.8876 142.108 65.9483 147.558C66.0065 152.863 66.2367 158.366 68.124 163.385C69.599 167.309 71.8229 170.707 74.2441 174.014C75.3725 175.557 76.4629 177.082 77.6494 178.522" fill="#633B18"/>
<path d="M114.435 191.941C113.767 191.941 113.082 191.918 112.343 191.875C105.588 191.465 99.5717 190.496 94.4637 188.994C89.5454 187.546 85.4317 186.15 81.0271 182.522C79.7747 181.49 78.606 180.298 77.346 178.77C76.3265 177.533 75.4005 176.265 74.4214 174.922L73.928 174.246C71.7547 171.279 69.3235 167.684 67.76 163.527C65.8372 158.419 65.6196 152.843 65.5588 147.568C65.5386 145.719 65.4753 143.839 65.4121 142.025C65.2932 138.498 65.1692 134.852 65.3539 131.222C66.0142 118.266 68.2103 108.71 72.2658 101.148L72.319 101.055C72.5846 100.561 72.8729 100.04 73.1765 99.5138L73.3764 99.1748C73.6117 98.77 73.8673 98.35 74.1279 97.9275L74.1709 97.8567C74.229 97.7605 74.2897 97.6618 74.3505 97.5657C74.6996 97.0142 75.0083 96.5335 75.2967 96.1034C75.3296 96.0528 75.365 96.0022 75.4004 95.9516L75.4662 95.858C75.7243 95.4734 76.0025 95.0737 76.3112 94.6386L76.5718 94.2742C76.9235 93.7885 77.2676 93.3204 77.599 92.8903L77.6749 92.7917C77.9633 92.4172 78.2796 92.02 78.6692 91.5368C78.7628 91.4204 78.8589 91.3041 78.9525 91.1877C79.3117 90.7525 79.6432 90.3604 79.967 89.9885L80.0581 89.8822C80.3743 89.5179 80.721 89.1333 81.1789 88.6349C81.2776 88.5287 81.3762 88.4224 81.4749 88.3161C81.7987 87.9721 82.1225 87.6305 82.4514 87.2966L82.6539 87.0891C83.0056 86.7324 83.3875 86.3554 83.8202 85.9405L84.1086 85.6673C84.4325 85.3612 84.7587 85.0576 85.0876 84.759L85.1788 84.6756C85.242 84.6199 85.3027 84.5642 85.3659 84.5086C85.7935 84.1265 86.1882 83.7825 86.5677 83.4612L86.6689 83.3777C86.7195 83.3372 86.7701 83.2942 86.8207 83.2512C87.1622 82.9653 87.5013 82.6895 87.8454 82.4137C87.9491 82.3303 88.0528 82.2468 88.159 82.1633C88.6018 81.8141 89.0091 81.503 89.4013 81.2095C89.4494 81.1715 89.5049 81.1336 89.5581 81.0931L89.5809 81.0754C89.9452 80.8072 90.3121 80.5416 90.6815 80.2835C90.7928 80.2051 90.9066 80.1241 91.0204 80.0457C91.5138 79.7042 91.9211 79.4309 92.2956 79.188C94.8306 77.5385 97.4946 76.2153 100.217 75.2514C102.694 74.3761 105.272 73.7815 107.88 73.4805C108.191 73.445 108.5 73.4121 108.806 73.3869C109.714 73.3059 110.658 73.2603 111.612 73.2502C112.151 73.2477 112.685 73.2502 113.206 73.2679C113.57 73.2806 113.932 73.2958 114.288 73.3185C115.093 73.3666 115.905 73.4425 116.707 73.5437C116.983 73.5766 117.256 73.6145 117.529 73.655C118.498 73.7942 119.495 73.9789 120.492 74.199C120.894 74.2875 121.289 74.3811 121.679 74.4798C122.557 74.6999 123.424 74.9453 124.259 75.2084C124.484 75.2793 124.707 75.3526 124.927 75.426C130.134 77.1615 133.703 79.4183 134.455 79.9141C135.707 79.603 137.2 79.5574 138.806 79.7876C139.148 79.8357 139.497 79.899 139.844 79.9698C140.552 80.1165 141.286 80.3139 142.017 80.5568C147.512 82.3707 152.926 86.5199 157.265 92.2427C158.016 93.2344 158.743 94.2818 159.426 95.3571C160.865 97.6315 162.158 100.113 163.271 102.737C164.769 106.269 165.971 110.132 166.838 114.218C166.995 114.954 167.14 115.716 167.284 116.548C167.309 116.695 167.332 116.842 167.354 116.988L167.4 117.272C167.494 117.848 167.569 118.357 167.63 118.828C167.663 119.073 167.693 119.316 167.724 119.561L167.732 119.635C167.787 120.115 167.84 120.601 167.883 121.077L167.903 121.289C167.921 121.474 167.936 121.659 167.952 121.841C167.99 122.321 168.022 122.827 168.05 123.381L168.06 123.574C168.068 123.7 168.076 123.827 168.081 123.953C168.108 124.639 168.124 125.324 168.126 125.992C168.126 126.061 168.126 126.126 168.124 126.192C168.124 126.253 168.124 126.311 168.124 126.372C168.119 126.974 168.108 127.495 168.093 127.971C168.086 128.12 168.078 128.267 168.07 128.414L168.058 128.629C168.038 129.056 168.01 129.481 167.98 129.899C167.962 130.129 167.941 130.357 167.921 130.584C167.888 130.974 167.845 131.374 167.795 131.804L167.767 132.036C167.752 132.163 167.739 132.289 167.721 132.416C167.661 132.879 167.592 133.342 167.514 133.828C167.506 133.883 167.496 133.936 167.489 133.99C167.481 134.048 167.471 134.106 167.461 134.164C167.36 134.751 167.253 135.315 167.144 135.844C167.124 135.938 167.104 136.026 167.084 136.115L167.043 136.294C166.952 136.714 166.864 137.096 166.775 137.463C166.727 137.653 166.679 137.84 166.631 138.027C166.543 138.366 166.451 138.705 166.358 139.037C166.307 139.219 166.254 139.404 166.198 139.586C166.097 139.925 165.991 140.261 165.882 140.59L165.837 140.729C165.804 140.836 165.768 140.942 165.733 141.048C165.566 141.542 165.409 141.984 165.252 142.404L165.242 142.432C165.088 142.837 164.923 143.257 164.721 143.748C164.579 144.094 164.437 144.441 164.298 144.79C164.091 145.304 163.884 145.817 163.668 146.333C163.491 146.751 163.289 147.168 163.094 147.573C162.947 147.874 162.803 148.173 162.667 148.476C162.414 149.038 162.214 149.615 162.016 150.169C161.796 150.791 161.571 151.436 161.272 152.069C161.08 152.479 160.901 152.929 160.729 153.362C160.562 153.784 160.387 154.219 160.202 154.619C160.025 155.001 159.775 155.353 159.532 155.692C159.302 156.015 159.084 156.319 158.927 156.643C158.664 157.189 158.421 157.764 158.186 158.323C157.799 159.241 157.399 160.19 156.868 161.101C156.496 161.738 156.19 162.429 155.894 163.094C155.524 163.929 155.14 164.794 154.616 165.584L154.576 165.645C153.784 166.836 153.457 167.329 153.483 168.797C153.49 169.295 153.511 169.751 153.528 170.191C153.637 172.774 153.71 174.479 151.18 176.675C149.9 177.786 148.37 178.514 146.89 179.218C145.88 179.698 144.833 180.197 143.899 180.807C139.302 183.802 134.473 185.596 129.362 187.496C128.841 187.688 128.322 187.883 127.799 188.078C126.792 188.455 125.805 188.928 124.851 189.388C123.498 190.038 122.096 190.711 120.57 191.149C118.693 191.685 116.684 191.946 114.428 191.946M72.9286 101.502C68.9237 108.963 66.7555 118.423 66.1003 131.265C65.9181 134.86 66.0396 138.49 66.1585 142.002C66.2217 143.821 66.285 145.703 66.3052 147.563C66.3634 152.77 66.5784 158.27 68.4582 163.261C69.9888 167.332 72.3873 170.874 74.5276 173.801L75.0235 174.477C75.9975 175.81 76.9158 177.07 77.9202 178.289C79.1472 179.779 80.2858 180.938 81.4976 181.938C85.791 185.474 89.8314 186.846 94.6662 188.267C99.7185 189.755 105.677 190.714 112.376 191.119C113.099 191.164 113.77 191.185 114.423 191.185C116.606 191.185 118.546 190.934 120.358 190.418C121.82 190.001 123.192 189.34 124.517 188.705C125.486 188.24 126.488 187.756 127.525 187.369C128.049 187.175 128.57 186.98 129.091 186.787C134.161 184.903 138.951 183.124 143.477 180.174C144.453 179.537 145.523 179.031 146.556 178.537C147.99 177.854 149.473 177.148 150.674 176.106C152.929 174.15 152.87 172.756 152.764 170.226C152.744 169.781 152.726 169.321 152.716 168.812C152.686 167.107 153.103 166.479 153.936 165.227L153.976 165.166C154.464 164.43 154.819 163.633 155.193 162.788C155.497 162.105 155.81 161.397 156.205 160.721C156.711 159.853 157.101 158.927 157.48 158.029C157.718 157.463 157.963 156.878 158.236 156.314C158.421 155.932 158.667 155.588 158.905 155.254C159.137 154.928 159.355 154.619 159.504 154.3C159.681 153.921 159.843 153.513 160.013 153.083C160.19 152.638 160.372 152.178 160.574 151.747C160.855 151.15 161.068 150.553 161.29 149.918C161.49 149.349 161.698 148.76 161.963 148.168C162.102 147.859 162.252 147.55 162.401 147.244C162.593 146.849 162.79 146.442 162.957 146.042C163.172 145.529 163.38 145.018 163.585 144.507C163.727 144.158 163.866 143.808 164.01 143.459C164.21 142.974 164.374 142.561 164.524 142.164C164.524 142.159 164.531 142.144 164.536 142.131C164.688 141.729 164.842 141.291 165.007 140.808C165.04 140.707 165.073 140.605 165.105 140.502L165.151 140.358C165.257 140.031 165.361 139.705 165.459 139.368C165.513 139.191 165.566 139.012 165.616 138.832C165.71 138.506 165.799 138.174 165.887 137.838C165.935 137.653 165.983 137.471 166.029 137.284C166.117 136.927 166.203 136.55 166.292 136.135L166.332 135.95C166.353 135.864 166.373 135.778 166.391 135.69C166.499 135.171 166.603 134.617 166.702 134.04C166.709 133.99 166.717 133.934 166.727 133.881C166.735 133.823 166.745 133.764 166.755 133.706C166.831 133.228 166.899 132.773 166.957 132.32C166.973 132.198 166.988 132.074 167.003 131.95L167.031 131.715C167.079 131.293 167.122 130.901 167.155 130.516C167.175 130.291 167.195 130.068 167.21 129.843C167.241 129.433 167.266 129.016 167.289 128.596L167.301 128.376C167.309 128.231 167.317 128.09 167.322 127.943C167.339 127.477 167.349 126.961 167.354 126.369C167.354 126.306 167.354 126.24 167.357 126.177C167.357 126.116 167.357 126.056 167.357 125.992C167.357 125.337 167.342 124.664 167.311 123.986C167.306 123.865 167.299 123.743 167.291 123.619L167.279 123.422C167.251 122.873 167.218 122.375 167.183 121.901C167.167 121.722 167.152 121.542 167.134 121.36L167.114 121.145C167.069 120.674 167.018 120.196 166.962 119.723L166.955 119.65C166.924 119.409 166.897 119.169 166.864 118.926C166.803 118.463 166.727 117.96 166.636 117.391L166.591 117.102C166.568 116.96 166.545 116.816 166.52 116.675C166.378 115.852 166.234 115.101 166.079 114.375C165.219 110.337 164.033 106.522 162.555 103.033C161.46 100.447 160.185 98.0009 158.768 95.7618C158.097 94.7043 157.384 93.6721 156.645 92.6981C150.915 85.1436 144.861 82.2974 141.764 81.2753C141.061 81.0425 140.357 80.8528 139.674 80.7111C139.343 80.6428 139.011 80.5846 138.685 80.5365C137.111 80.3113 135.659 80.3645 134.473 80.6883L134.303 80.7364L134.156 80.6352C134.121 80.6099 130.417 78.0597 124.674 76.1445C124.456 76.0711 124.239 76.0003 124.019 75.932C123.199 75.6739 122.347 75.4311 121.484 75.216C121.102 75.1199 120.712 75.0288 120.317 74.9402C119.338 74.7252 118.359 74.5456 117.408 74.4064C117.14 74.3659 116.874 74.3305 116.603 74.2976C115.817 74.199 115.02 74.1256 114.23 74.0775C113.879 74.0548 113.524 74.0396 113.168 74.0269C112.657 74.0092 112.133 74.0042 111.607 74.0092C110.673 74.0193 109.747 74.0649 108.859 74.1433C108.558 74.1711 108.255 74.2015 107.954 74.2344C105.401 74.5279 102.878 75.1123 100.457 75.9674C97.7931 76.9111 95.1822 78.2089 92.6978 79.8231C92.3284 80.0634 91.9287 80.3341 91.4405 80.6706C91.3291 80.7465 91.2177 80.8249 91.1064 80.9034C90.7421 81.1589 90.3778 81.4195 90.016 81.6876L89.9882 81.7079C89.9401 81.7433 89.892 81.7762 89.8465 81.8141C89.4518 82.1076 89.0495 82.4163 88.6144 82.7604C88.5107 82.8413 88.407 82.9248 88.3058 83.0083C87.9668 83.279 87.6302 83.5548 87.2963 83.8331C87.2457 83.8761 87.1926 83.9216 87.1369 83.9646L87.0433 84.0431C86.6688 84.3593 86.2793 84.6983 85.8543 85.0778C85.7936 85.1335 85.7353 85.1841 85.6771 85.2372L85.5835 85.3207C85.2597 85.6142 84.9359 85.9127 84.6171 86.2163L84.3312 86.487C83.9037 86.8968 83.5266 87.2687 83.18 87.6204L83.0865 87.7165C83.0511 87.7545 83.0156 87.7899 82.9777 87.8279C82.6564 88.1568 82.3351 88.4933 82.0163 88.8348C81.9177 88.9385 81.8215 89.0423 81.7228 89.1485C81.27 89.6419 80.9284 90.0213 80.6147 90.3806L80.5262 90.4843C80.2048 90.8537 79.8785 91.2408 79.5243 91.6709C79.4307 91.7847 79.3371 91.8986 79.2435 92.0149C78.8564 92.4931 78.5452 92.8878 78.2593 93.2546L78.1859 93.3482C77.857 93.7783 77.5155 94.2388 77.1689 94.7195L76.9108 95.0788C76.6047 95.5089 76.3315 95.901 76.076 96.283L76.0051 96.3842C75.9722 96.4323 75.9393 96.4778 75.909 96.5234C75.6231 96.9509 75.3169 97.424 74.9728 97.9705C74.9121 98.0641 74.8565 98.1577 74.7983 98.2513L74.7528 98.3247C74.4948 98.7421 74.2442 99.1571 74.0115 99.5568L73.8116 99.8933C73.5131 100.409 73.2272 100.923 72.9616 101.419L72.9186 101.495L72.9286 101.502Z" fill="#164C60"/>
<path d="M196.666 127.515C195.74 126.723 195.102 126.4 195.102 126.4C195.074 126.387 192.608 125.142 192.332 125.061C192.322 125.059 192.309 125.056 192.289 125.059C192.008 124.983 191.73 124.927 191.441 124.887C191.388 124.882 191.327 124.866 191.266 124.866C190.988 124.829 190.715 124.811 190.442 124.811C190.404 124.816 190.366 124.818 190.315 124.821C190.065 124.826 189.814 124.844 189.564 124.882C189.518 124.889 189.468 124.892 189.422 124.899C189.154 124.937 188.891 125.003 188.62 125.071L188.299 125.173C188.076 125.254 187.861 125.327 187.646 125.423C185.45 126.415 184.059 127.629 183.312 129.296C182.118 131.955 182.526 135.755 183.818 141.681C183.882 141.974 183.945 142.28 184.018 142.589C184.084 142.87 184.15 143.166 184.195 143.459C184.448 144.838 184.587 146.338 184.633 147.899C184.661 148.661 184.663 149.44 184.656 150.224C184.643 150.799 184.62 151.37 184.595 151.955C184.567 152.57 184.529 153.179 184.484 153.797C184.451 154.194 184.415 154.588 184.388 154.991C184.309 155.78 184.228 156.58 184.127 157.351C184.043 158.133 183.932 158.902 183.831 159.656C182.908 166.059 181.556 171.228 181.556 171.228C181.498 171.506 181.435 171.769 181.387 172.033C180.608 175.845 180.603 177.935 181.463 179.172C181.574 179.316 181.675 179.461 181.807 179.572C181.896 179.648 182.025 179.739 182.171 179.827C182.731 180.182 183.596 180.526 183.596 180.526C186.404 181.383 189.053 179.934 194.148 173.29C198.684 167.365 203.218 160.41 203.6 148.648C203.635 147.634 203.671 146.548 203.653 145.448C203.661 145.271 203.658 145.088 203.656 144.909C203.646 144.479 203.63 144.054 203.61 143.621C203.129 134.356 198.902 129.428 196.663 127.52" fill="#FCCD9C"/>
<path d="M185.009 181.5C184.473 181.5 183.939 181.416 183.372 181.244L183.314 181.224C183.276 181.209 182.375 180.85 181.763 180.46C181.596 180.359 181.437 180.245 181.313 180.139C181.146 179.999 181.022 179.835 180.913 179.693L180.842 179.597C179.853 178.18 179.8 176.015 180.645 171.876C180.673 171.724 180.711 171.552 180.749 171.377C180.771 171.276 180.794 171.175 180.814 171.071L180.822 171.033C180.835 170.983 182.173 165.829 183.079 159.545L183.147 159.049C183.228 158.469 183.309 157.867 183.372 157.27C183.471 156.516 183.547 155.757 183.63 154.915C183.658 154.53 183.691 154.131 183.726 153.733C183.777 153.065 183.812 152.471 183.835 151.922C183.858 151.406 183.883 150.804 183.896 150.209C183.906 149.364 183.898 148.615 183.873 147.927C183.828 146.338 183.686 144.884 183.448 143.596C183.4 143.285 183.334 142.989 183.281 142.761C183.228 142.538 183.18 142.318 183.134 142.103L183.079 141.843C181.786 135.93 181.298 131.93 182.621 128.988C183.435 127.174 184.933 125.82 187.334 124.735C187.557 124.636 187.772 124.558 187.979 124.484L188.432 124.34C188.678 124.277 188.984 124.199 189.3 124.153C189.338 124.145 189.376 124.143 189.414 124.138L189.449 124.133C189.71 124.095 189.985 124.072 190.292 124.064C190.319 124.064 190.342 124.062 190.363 124.059L190.436 124.054C190.732 124.054 191.036 124.075 191.332 124.113C191.385 124.118 191.438 124.123 191.488 124.13L191.542 124.138C191.84 124.178 192.123 124.236 192.407 124.31C192.457 124.315 192.495 124.325 192.511 124.33L192.541 124.338C192.69 124.381 193.024 124.52 195.266 125.641L195.438 125.727C195.468 125.742 196.169 126.101 197.153 126.944C199.149 128.644 203.85 133.671 204.361 143.578C204.384 144.076 204.399 144.491 204.406 144.891C204.409 145.076 204.411 145.263 204.404 145.455C204.422 146.574 204.386 147.659 204.351 148.673C203.959 160.744 199.184 167.944 194.742 173.748C190.461 179.326 187.731 181.502 185.004 181.502M183.84 179.812C184.248 179.934 184.629 179.992 185.004 179.992C187.164 179.992 189.639 177.917 193.543 172.83C198.041 166.955 202.463 160.248 202.84 148.623C202.876 147.618 202.909 146.548 202.894 145.458V145.433V145.407C202.901 145.253 202.899 145.091 202.894 144.916C202.886 144.534 202.873 144.132 202.85 143.651C202.37 134.334 198.018 129.666 196.169 128.092C195.336 127.379 194.755 127.075 194.749 127.073C194.714 127.055 194.658 127.027 194.585 126.992C192.9 126.149 192.343 125.889 192.159 125.81L192.08 125.787C191.838 125.722 191.595 125.671 191.336 125.636C191.309 125.633 191.278 125.628 191.248 125.623L191.152 125.613C190.924 125.582 190.691 125.565 190.461 125.565C190.418 125.57 190.375 125.572 190.32 125.572C190.079 125.577 189.864 125.595 189.667 125.623C189.629 125.628 189.593 125.633 189.553 125.638L189.515 125.643C189.297 125.674 189.077 125.727 188.812 125.795L188.475 125.904C188.285 125.972 188.106 126.035 187.939 126.111C185.9 127.035 184.642 128.143 183.987 129.603C182.838 132.153 183.349 136.051 184.544 141.516L184.602 141.787C184.645 141.992 184.69 142.202 184.738 142.412C184.799 142.667 184.875 143.001 184.926 143.343C185.174 144.684 185.325 146.217 185.371 147.876C185.396 148.585 185.404 149.357 185.394 150.232C185.381 150.852 185.353 151.461 185.33 151.988C185.305 152.552 185.27 153.162 185.217 153.852C185.184 154.252 185.151 154.644 185.121 155.044C185.034 155.919 184.954 156.688 184.857 157.447C184.794 158.052 184.711 158.662 184.63 159.254L184.561 159.755C183.671 165.935 182.368 171.036 182.274 171.398C182.254 171.501 182.231 171.605 182.208 171.706C182.175 171.861 182.14 172.012 182.115 172.164C181.381 175.754 181.366 177.715 182.059 178.724L182.102 178.78C182.165 178.863 182.231 178.949 182.277 178.987C182.307 179.013 182.39 179.084 182.547 179.177C182.955 179.435 183.585 179.711 183.83 179.81" fill="#174B5F"/>
<path d="M203.627 146.482C203.688 144.919 203.67 143.287 203.582 141.572C203.104 132.307 199.248 127.7 197.016 125.792C194.537 124.818 191.769 124.014 188.645 123.447C187.056 123.149 185.376 122.918 183.593 122.754C170.508 121.545 165.706 128.391 165.706 128.383C165.685 128.411 164.104 130.675 163.993 130.933C163.985 130.951 163.98 130.959 163.97 130.976C163.854 131.242 163.77 131.513 163.684 131.786C163.666 131.841 163.649 131.905 163.639 131.958C163.565 132.226 163.51 132.502 163.469 132.773C163.467 132.81 163.464 132.853 163.456 132.891C163.429 133.144 163.408 133.395 163.408 133.645C163.403 133.696 163.403 133.741 163.403 133.79C163.403 134.063 163.426 134.334 163.462 134.604C163.474 134.665 163.479 134.728 163.489 134.781C163.535 135.06 163.588 135.338 163.672 135.621C164.337 137.936 165.334 139.484 166.885 140.469C169.46 142.108 173.548 142.189 180.134 141.675C181.508 141.567 182.995 141.594 184.546 141.731C184.857 141.761 185.174 141.789 185.487 141.825C186.239 141.908 187.01 142.012 187.785 142.141C188.351 142.232 191.157 142.27 191.731 142.381" fill="#FCCD9C"/>
<path d="M201.918 146.414C201.984 144.623 201.961 142.778 201.825 140.992C201.701 139.219 201.435 137.466 200.98 135.778C200.527 134.091 199.884 132.474 199.047 130.989C198.204 129.511 197.147 128.16 195.91 127.093H195.905L196.39 127.381C193.936 126.356 191.368 125.587 188.735 125.033C186.103 124.467 183.386 124.1 180.753 124.004C178.104 123.923 175.457 124.229 172.973 125.021C171.741 125.43 170.532 125.936 169.434 126.614C169.16 126.784 168.897 126.969 168.624 127.143C168.366 127.33 168.108 127.525 167.86 127.723C167.62 127.93 167.372 128.132 167.154 128.353C167.038 128.461 166.934 128.57 166.828 128.681C166.775 128.737 166.724 128.793 166.678 128.846L166.608 128.927L166.59 128.947C166.555 128.985 166.458 129.139 166.19 129.276C166.054 129.344 165.841 129.405 165.611 129.38C165.378 129.36 165.166 129.251 165.042 129.147C164.789 128.924 164.753 128.78 164.71 128.699L166.562 128.988L165.674 130.217L165.239 130.834L165.029 131.138L164.935 131.282L164.897 131.34C164.885 131.361 164.905 131.325 164.902 131.32L164.875 131.383C164.842 131.454 164.786 131.621 164.741 131.735C164.695 131.857 164.637 131.998 164.604 132.105C164.576 132.178 164.541 132.363 164.508 132.492L164.409 132.914L164.419 132.836C164.412 132.924 164.396 133.015 164.381 133.101L164.402 132.985L164.346 133.635L164.338 133.703V133.726C164.338 133.726 164.338 133.752 164.338 133.764L164.343 133.863L164.353 134.078C164.363 134.225 164.359 134.359 164.376 134.518C164.429 134.834 164.485 135.118 164.551 135.429C164.723 136.061 164.928 136.669 165.191 137.24C165.712 138.384 166.484 139.343 167.549 139.96C168.599 140.598 169.879 140.921 171.189 141.109C172.505 141.291 173.864 141.336 175.225 141.336C176.588 141.336 177.96 141.281 179.331 141.21C180.7 141.111 182.142 141.101 183.525 141.215C184.224 141.266 184.917 141.349 185.605 141.438L187.665 141.761C188.292 141.868 189.003 141.883 189.686 141.931C190.384 141.982 191.042 141.997 191.788 142.108L191.685 142.642C191.062 142.574 190.339 142.576 189.661 142.556C188.967 142.533 188.294 142.548 187.556 142.457L185.517 142.219C184.834 142.159 184.156 142.103 183.478 142.083C182.106 142.027 180.785 142.088 179.407 142.24C178.028 142.366 176.647 142.475 175.25 142.533C173.856 142.586 172.449 142.599 171.027 142.46C169.611 142.313 168.141 142.027 166.787 141.283C165.418 140.57 164.331 139.317 163.665 137.982C163.324 137.314 163.061 136.618 162.843 135.93C162.747 135.571 162.653 135.181 162.58 134.819C162.55 134.64 162.537 134.425 162.517 134.23L162.491 133.929C162.486 133.875 162.481 133.838 162.481 133.769L162.486 133.547L162.481 133.638L162.519 132.78L162.539 132.666C162.539 132.666 162.527 132.686 162.527 132.697L162.537 132.618L162.633 132.102C162.671 131.92 162.684 131.788 162.749 131.553C162.805 131.353 162.866 131.196 162.924 131.017C162.992 130.832 163.025 130.69 163.124 130.47L163.094 130.533C163.124 130.47 163.169 130.379 163.19 130.344L163.25 130.24L163.362 130.058L163.574 129.721L163.999 129.066L164.859 127.768L166.711 128.057C166.681 127.958 166.658 127.796 166.418 127.556C166.296 127.442 166.094 127.325 165.866 127.295C165.641 127.262 165.436 127.315 165.305 127.373C165.049 127.495 164.966 127.632 164.943 127.652L164.966 127.621L165.062 127.503C165.125 127.419 165.188 127.346 165.252 127.275C165.378 127.126 165.507 126.981 165.639 126.847C165.899 126.566 166.178 126.316 166.453 126.06C166.737 125.815 167.025 125.58 167.319 125.347C167.622 125.132 167.918 124.907 168.227 124.702C169.461 123.872 170.807 123.242 172.184 122.723C174.951 121.714 177.881 121.266 180.775 121.238C183.69 121.231 186.506 121.507 189.322 121.992C192.138 122.47 194.938 123.184 197.65 124.193L197.916 124.292L198.136 124.484H198.141C199.743 125.868 201.013 127.52 202.025 129.289C203.024 131.065 203.77 132.955 204.289 134.885C204.808 136.815 205.101 138.781 205.24 140.739C205.387 142.687 205.41 144.592 205.341 146.543L201.923 146.409L201.918 146.414Z" fill="#174B5F"/>
<path d="M165.143 105.707L166.393 143.745C169.935 143.874 172.455 144.15 174.62 143.474L177.821 143.371L177.77 141.898C175.225 137.65 175.093 132.884 177.3 127.614L177.125 122.306L172.27 110.339C171.099 107.453 168.252 105.603 165.141 105.707" fill="#E7E6E8"/>
<path d="M171.036 144.165C170.145 144.165 169.161 144.119 168.121 144.071C167.57 144.046 166.993 144.021 166.385 143.998L166.15 143.99L166.143 143.755L164.883 105.464L165.136 105.457C165.222 105.454 165.305 105.452 165.391 105.452C168.533 105.452 171.327 107.334 172.508 110.246L177.381 122.253L177.558 127.662L177.535 127.713C175.359 132.907 175.511 137.635 177.988 141.769L178.021 141.825L178.079 143.616L174.659 143.727C173.672 144.031 172.551 144.165 171.031 144.165M166.634 143.502C167.157 143.522 167.658 143.545 168.139 143.568C169.173 143.616 170.153 143.659 171.031 143.659C172.513 143.659 173.596 143.528 174.54 143.234L174.605 143.221L177.553 143.125L177.515 141.972C174.99 137.719 174.831 132.874 177.042 127.566L176.872 122.357L172.032 110.433C170.932 107.718 168.328 105.96 165.399 105.955L166.631 143.5L166.634 143.502Z" fill="#164C60"/>
<path d="M166.391 143.745L165.141 105.707C167.531 105.629 169.765 106.704 171.202 108.513C171.635 109.057 171.997 109.669 172.268 110.337L177.125 122.304L177.3 127.611C176.915 128.537 176.596 129.441 176.356 130.334C176.328 130.435 176.3 130.534 176.278 130.632C176.068 131.454 175.918 132.262 175.835 133.056C175.526 135.9 176.012 138.574 177.31 141.076C177.449 141.352 177.606 141.625 177.768 141.898L177.816 143.368L174.615 143.474C174.6 143.477 174.588 143.484 174.572 143.484C174.332 143.56 174.087 143.621 173.836 143.672C171.843 144.087 169.513 143.856 166.388 143.743" fill="#E7E6E8"/>
<path d="M171.033 144.165C170.14 144.165 169.156 144.119 168.113 144.071C167.564 144.046 166.988 144.021 166.383 143.998L166.148 143.988L166.14 143.753L164.883 105.462L165.136 105.454C167.59 105.368 169.884 106.441 171.405 108.356C171.863 108.933 172.232 109.568 172.508 110.243L177.381 122.25L177.558 127.66L177.538 127.71C177.138 128.672 176.834 129.552 176.607 130.399L176.586 130.47C176.566 130.546 176.546 130.62 176.528 130.693C176.321 131.505 176.174 132.31 176.091 133.084C175.787 135.874 176.275 138.523 177.54 140.96C177.689 141.256 177.859 141.549 177.99 141.769L178.023 141.825L178.082 143.613L174.664 143.725C174.664 143.725 174.646 143.73 174.633 143.732C174.39 143.806 174.142 143.872 173.892 143.922C173.095 144.087 172.187 144.165 171.033 144.165ZM166.636 143.502C167.157 143.522 167.655 143.545 168.136 143.568C169.173 143.616 170.153 143.662 171.033 143.662C172.149 143.662 173.027 143.588 173.788 143.429C174.029 143.381 174.266 143.317 174.502 143.247L174.611 143.224L177.558 143.128L177.52 141.974C177.391 141.754 177.232 141.478 177.087 141.192C175.777 138.667 175.271 135.922 175.585 133.031C175.671 132.231 175.82 131.404 176.035 130.571C176.053 130.498 176.075 130.42 176.095 130.341L176.113 130.27C176.341 129.415 176.647 128.53 177.044 127.568L176.875 122.359L172.035 110.436C171.779 109.803 171.435 109.211 171.005 108.672C169.639 106.952 167.597 105.963 165.401 105.957L166.636 143.502Z" fill="#164C60"/>
<path d="M177.127 122.306L175.073 122.374C174.04 122.407 173.099 121.787 172.728 120.824L170.658 115.475C169.775 113.193 169.975 110.633 171.204 108.515C171.637 109.059 171.999 109.671 172.27 110.339L177.127 122.306Z" fill="#3F3F41"/>
<path d="M174.991 122.628C173.893 122.628 172.888 121.939 172.491 120.915L170.421 115.566C169.506 113.201 169.71 110.582 170.983 108.386L171.168 108.065L171.398 108.356C171.856 108.933 172.225 109.568 172.501 110.243L177.493 122.544L175.077 122.622C175.046 122.622 175.016 122.622 174.988 122.622M171.234 108.973C170.204 110.962 170.077 113.274 170.892 115.379L172.962 120.728C173.283 121.56 174.1 122.116 174.991 122.116H175.061L176.752 122.061L172.031 110.431C171.823 109.917 171.555 109.429 171.234 108.976" fill="#164C60"/>
<path d="M180.922 126.46L180.781 122.185L177.125 122.304L177.3 127.611L179.923 127.525C180.495 127.508 180.94 127.03 180.922 126.458" fill="#F0602D"/>
<path d="M177.056 127.875L176.864 122.061L181.026 121.924L181.132 125.203C181.178 126.599 180.08 127.776 178.68 127.821L177.054 127.875H177.056ZM177.388 122.549L177.545 127.351L178.668 127.315C179.786 127.277 180.667 126.339 180.631 125.218L180.54 122.445L177.39 122.549H177.388Z" fill="#164C60"/>
<path d="M171.887 114.906C171.752 114.59 171.899 114.223 172.215 114.089L173.852 113.393L174.341 114.539L172.704 115.235C172.388 115.369 172.021 115.222 171.887 114.906Z" fill="#F0602D"/>
<path d="M172.46 115.538C172.108 115.538 171.792 115.328 171.655 115.005C171.466 114.559 171.673 114.046 172.118 113.856L173.988 113.059L174.674 114.671L172.804 115.468C172.695 115.513 172.579 115.538 172.46 115.538ZM173.72 113.724L172.316 114.322C172.128 114.402 172.04 114.62 172.121 114.807C172.199 114.989 172.422 115.081 172.606 115.002L174.011 114.405L173.72 113.724Z" fill="#164C60"/>
<path d="M172.489 116.422C172.355 116.105 172.502 115.739 172.818 115.604L174.455 114.909L174.943 116.055L173.307 116.75C172.99 116.885 172.623 116.738 172.489 116.422Z" fill="#F0602D"/>
<path d="M173.063 117.054C172.711 117.054 172.395 116.844 172.255 116.523C172.068 116.077 172.276 115.564 172.718 115.374L174.588 114.577L175.274 116.189L173.404 116.983C173.295 117.029 173.179 117.054 173.06 117.054M174.32 115.24L172.916 115.837C172.729 115.918 172.64 116.136 172.721 116.323C172.799 116.505 173.022 116.596 173.207 116.518L174.611 115.921L174.322 115.24H174.32Z" fill="#164C60"/>
<path d="M171.285 113.391C171.151 113.074 171.298 112.707 171.614 112.573L173.251 111.875L173.739 113.021L172.102 113.717C171.786 113.851 171.419 113.704 171.285 113.388" fill="#F0602D"/>
<path d="M171.856 114.023C171.504 114.023 171.188 113.813 171.052 113.492C170.96 113.277 170.958 113.039 171.046 112.821C171.132 112.604 171.3 112.434 171.515 112.343L173.384 111.546L174.07 113.158L172.2 113.955C172.091 114 171.975 114.026 171.856 114.026M173.116 112.212L171.712 112.809C171.621 112.847 171.553 112.92 171.515 113.011C171.477 113.102 171.479 113.203 171.515 113.294C171.593 113.477 171.816 113.568 172 113.489L173.404 112.892L173.113 112.212H173.116Z" fill="#164C60"/>
<path d="M173.091 117.937C172.957 117.62 173.104 117.254 173.42 117.12L175.057 116.424L175.545 117.57L173.908 118.268C173.592 118.402 173.225 118.256 173.091 117.939" fill="#F0602D"/>
<path d="M173.663 118.569C173.311 118.569 172.995 118.359 172.858 118.036C172.767 117.821 172.765 117.583 172.851 117.365C172.939 117.148 173.106 116.978 173.321 116.887L175.191 116.09L175.877 117.702L174.007 118.499C173.898 118.544 173.782 118.569 173.665 118.569M174.925 116.755L173.521 117.353C173.43 117.39 173.359 117.461 173.324 117.555C173.289 117.646 173.288 117.747 173.326 117.838C173.402 118.02 173.625 118.114 173.812 118.033L175.216 117.436L174.928 116.755H174.925Z" fill="#164C60"/>
<path d="M173.692 119.452C173.558 119.136 173.705 118.769 174.021 118.635L175.658 117.937L176.146 119.083L174.51 119.781C174.193 119.915 173.826 119.769 173.692 119.452Z" fill="#F0602D"/>
<path d="M174.268 120.082C173.917 120.082 173.6 119.872 173.464 119.551C173.274 119.106 173.482 118.592 173.927 118.402L175.796 117.605L176.482 119.217L174.612 120.014C174.504 120.059 174.387 120.085 174.268 120.085M175.528 118.271L174.124 118.868C173.937 118.949 173.848 119.166 173.929 119.354C174.008 119.536 174.228 119.627 174.415 119.548L175.819 118.951L175.528 118.271Z" fill="#164C60"/>
<path d="M174.295 120.968C174.161 120.652 174.308 120.285 174.624 120.151L176.261 119.455L176.749 120.601L175.112 121.299C174.796 121.433 174.429 121.287 174.295 120.97" fill="#F0602D"/>
<path d="M174.87 121.598C174.518 121.598 174.202 121.388 174.065 121.064C173.974 120.849 173.971 120.611 174.06 120.394C174.146 120.176 174.313 120.006 174.528 119.915L176.398 119.118L177.083 120.73L175.214 121.527C175.105 121.572 174.988 121.598 174.87 121.598ZM176.13 119.784L174.725 120.381C174.634 120.419 174.563 120.49 174.525 120.583C174.49 120.674 174.49 120.776 174.528 120.867C174.607 121.049 174.829 121.14 175.014 121.061L176.418 120.464L176.13 119.784Z" fill="#164C60"/>
<path d="M174.576 143.485C174.159 143.426 173.742 143.353 173.329 143.257C170.486 142.589 168.027 141.051 166.233 138.915C164.91 137.344 163.951 135.447 163.47 133.345C163.435 133.193 163.402 133.049 163.371 132.899L163.399 132.879C164.204 132.216 165.069 131.654 165.98 131.204C168.692 129.861 171.791 129.489 174.822 130.2C175.318 130.319 175.804 130.46 176.282 130.635C176.304 130.536 176.332 130.438 176.36 130.336C175.882 130.164 175.391 130.02 174.893 129.904C171.837 129.185 168.715 129.542 165.97 130.87C164.996 131.338 164.07 131.93 163.209 132.641C163.192 132.656 163.174 132.669 163.156 132.684L163.04 132.773L163.057 132.864C163.09 133.048 163.131 133.228 163.174 133.413C163.698 135.697 164.768 137.737 166.25 139.401C168.059 141.433 170.483 142.903 173.261 143.553C173.456 143.598 173.645 143.639 173.84 143.674C174.088 143.624 174.336 143.561 174.576 143.487" fill="#F0602D"/>
<path d="M173.842 143.932L173.794 143.925C173.592 143.887 173.399 143.849 173.2 143.801C170.412 143.148 167.942 141.686 166.057 139.571C164.527 137.85 163.444 135.74 162.923 133.471C162.88 133.281 162.839 133.099 162.804 132.912L162.756 132.671L163.044 132.446C163.909 131.733 164.856 131.126 165.855 130.642C167.715 129.744 169.703 129.289 171.768 129.289C172.83 129.289 173.9 129.413 174.945 129.661C175.438 129.775 175.942 129.924 176.44 130.101L176.661 130.179L176.582 130.475C176.562 130.551 176.542 130.625 176.524 130.698L176.458 130.974L176.193 130.878C175.745 130.713 175.264 130.572 174.763 130.453C173.781 130.222 172.777 130.106 171.78 130.106C169.792 130.106 167.879 130.554 166.093 131.439C165.233 131.864 164.413 132.393 163.651 133.008C163.672 133.104 163.694 133.198 163.717 133.296C164.178 135.313 165.116 137.203 166.429 138.761C168.226 140.899 170.632 142.371 173.389 143.019C173.776 143.11 174.189 143.186 174.611 143.244L175.742 143.398L174.652 143.737C174.404 143.813 174.148 143.882 173.893 143.932L173.845 143.942L173.842 143.932Z" fill="#164C60"/>
<path d="M172.741 141.21C169.318 140.411 166.826 137.734 166.088 134.521C166.06 134.4 166.034 134.281 166.012 134.159C166.032 134.141 166.052 134.124 166.075 134.109C168.144 132.401 170.965 131.639 173.786 132.302C174.515 132.474 175.201 132.727 175.838 133.059C175.529 135.902 176.015 138.577 177.313 141.079C175.876 141.509 174.31 141.577 172.741 141.21Z" fill="#F0602D"/>
<path d="M174.783 141.698C174.08 141.698 173.374 141.617 172.683 141.455C169.253 140.653 166.629 138.017 165.839 134.577C165.812 134.453 165.784 134.331 165.761 134.205L165.733 134.053L165.918 133.906C167.555 132.558 169.624 131.809 171.742 131.809C172.443 131.809 173.149 131.89 173.839 132.052C174.581 132.226 175.289 132.487 175.949 132.831L176.104 132.912L176.086 133.084C175.782 135.872 176.271 138.521 177.536 140.96L177.675 141.23L177.381 141.319C176.536 141.572 175.661 141.698 174.781 141.698M166.285 134.258C166.3 134.326 166.313 134.392 166.33 134.46C167.077 137.711 169.556 140.203 172.797 140.962C174.168 141.283 175.598 141.266 176.946 140.914C175.765 138.516 175.299 135.922 175.565 133.203C174.985 132.917 174.368 132.697 173.726 132.545C173.075 132.391 172.407 132.315 171.745 132.315C169.766 132.315 167.831 133.003 166.287 134.258" fill="#164C60"/>
<path d="M165.13 105.789L162.083 105.889L163.332 143.926L166.379 143.826L165.13 105.789Z" fill="#3F3F41"/>
<path d="M163.101 144.107L163.093 143.854L161.836 105.563L165.388 105.446L165.395 105.699L166.653 143.99L163.101 144.107ZM162.357 106.051L163.592 143.583L166.134 143.5L164.9 105.968L162.357 106.051Z" fill="#164C60"/>
<path d="M183.375 154.409C183.375 154.409 166.177 170.866 160.171 172.025C154.119 173.194 152.047 194.086 152.047 194.086C152.047 194.086 163.538 195.835 176.216 191.192C184.428 188.184 192.65 178.727 199.474 171.021C199.474 171.021 197.283 158.346 183.375 154.411" fill="#29ABE2"/>
<path d="M157.59 195.043C154.162 195.043 152.044 194.726 151.953 194.714L151.361 194.623L151.419 194.025C151.424 193.975 151.956 188.7 153.226 183.352C154.979 175.964 157.276 171.944 160.052 171.408C165.807 170.294 182.768 154.118 182.94 153.956L183.201 153.705L183.55 153.804C190.927 155.891 195.033 160.425 197.176 163.858C199.501 167.582 200.073 170.78 200.096 170.914L200.149 171.213L199.425 172.032C192.815 179.503 184.59 188.801 176.436 191.786C169.089 194.478 162.131 195.043 157.592 195.043M152.745 193.537C153.593 193.631 155.303 193.778 157.592 193.778C162.03 193.778 168.828 193.226 176.003 190.597C183.856 187.721 191.965 178.557 198.482 171.193L198.793 170.841C198.36 168.981 195.454 158.669 183.553 155.12C181.273 157.28 166.07 171.532 160.294 172.65C155.867 173.505 153.415 187.468 152.745 193.54" fill="#174B5F"/>
<path d="M127.619 155.59C127.597 155.593 127.574 155.6 127.549 155.606C126.952 155.778 126.471 156.008 126.104 156.342C125.995 156.44 125.897 156.554 125.808 156.673C125.001 157.748 125.001 159.666 125.686 163.319C125.686 163.319 126.688 167.684 127.296 173.057C127.366 173.69 127.432 174.335 127.491 174.99C127.549 175.645 127.599 176.308 127.64 176.976C127.66 177.31 127.678 177.644 127.693 177.978C127.718 178.492 127.731 179.008 127.741 179.519C127.748 180.005 127.754 180.488 127.748 180.968C127.741 181.626 127.718 182.274 127.678 182.909C127.579 184.5 127.374 186.006 127.03 187.344C125.651 192.697 125.125 196.08 126.104 198.443C126.691 199.86 127.822 200.907 129.636 201.793C129.853 201.899 130.076 201.985 130.299 202.063C130.347 202.078 130.392 202.094 130.44 202.109C130.66 202.18 130.881 202.235 131.106 202.278C131.144 202.286 131.182 202.288 131.219 202.296C131.429 202.329 131.64 202.354 131.85 202.364C131.885 202.364 131.918 202.372 131.953 202.372C132.184 202.38 132.414 202.372 132.647 202.352C132.697 202.347 132.748 202.342 132.798 202.336C133.034 202.309 133.271 202.273 133.507 202.22C133.519 202.218 133.532 202.213 133.545 202.21C133.772 202.154 135.872 201.175 135.893 201.163C135.893 201.163 142.225 198.195 143.123 187.228C144.128 174.955 140.403 167.651 136.267 161.91C132.171 156.225 129.985 154.948 127.614 155.593" fill="#FCCD9C"/>
<path d="M132.134 203.007C132.068 203.007 132.002 203.007 131.939 203.005C131.909 203.005 131.876 203.002 131.843 202.999H131.818C131.6 202.987 131.365 202.961 131.125 202.924L131.008 202.906C130.755 202.858 130.507 202.795 130.257 202.716C130.219 202.703 130.179 202.691 130.138 202.676L130.105 202.663C129.816 202.564 129.584 202.468 129.366 202.362C127.388 201.395 126.166 200.229 125.526 198.686C124.461 196.118 125.048 192.525 126.424 187.187C126.74 185.96 126.953 184.508 127.054 182.871C127.092 182.266 127.115 181.624 127.125 180.961C127.13 180.551 127.127 180.108 127.117 179.529C127.107 178.945 127.092 178.461 127.072 178.006C127.054 177.674 127.039 177.343 127.019 177.012C126.978 176.374 126.928 175.714 126.869 175.046C126.811 174.411 126.748 173.766 126.674 173.128C126.077 167.851 125.085 163.504 125.075 163.461C124.321 159.456 124.385 157.521 125.306 156.294C125.432 156.127 125.556 155.988 125.685 155.871C126.108 155.487 126.647 155.208 127.378 154.998L127.469 154.973L128.256 154.778V154.829C130.753 154.571 133.075 156.385 136.789 161.538C140.822 167.135 144.804 174.568 143.764 187.278C142.853 198.405 136.45 201.6 136.177 201.729C135.754 201.942 133.966 202.759 133.705 202.822L133.672 202.832C133.427 202.891 133.179 202.931 132.883 202.964C132.83 202.969 132.774 202.977 132.721 202.982C132.516 202.999 132.324 203.01 132.142 203.01M127.613 156.251C127.142 156.397 126.793 156.577 126.535 156.81C126.464 156.873 126.396 156.952 126.32 157.055C125.66 157.933 125.66 159.717 126.315 163.206C126.32 163.226 127.327 167.641 127.932 172.989C128.005 173.637 128.071 174.294 128.129 174.937C128.19 175.615 128.24 176.288 128.281 176.938C128.301 177.277 128.319 177.614 128.334 177.95C128.357 178.418 128.369 178.912 128.382 179.511C128.392 180.103 128.395 180.556 128.39 180.979C128.38 181.664 128.357 182.33 128.316 182.955C128.21 184.67 127.985 186.203 127.648 187.506C126.34 192.586 125.766 195.964 126.695 198.203C127.216 199.46 128.21 200.394 129.92 201.226C130.09 201.309 130.28 201.385 130.515 201.466L130.639 201.507C130.846 201.573 131.039 201.623 131.231 201.659L131.337 201.674C131.522 201.704 131.712 201.724 131.891 201.732L131.982 201.74C132.19 201.747 132.382 201.74 132.602 201.722L132.736 201.707C132.982 201.679 133.184 201.646 133.371 201.6C133.374 201.6 133.381 201.598 133.389 201.595C133.627 201.517 135.031 200.872 135.486 200.657L135.628 200.588C135.873 200.469 141.649 197.585 142.502 187.174C143.506 174.871 139.658 167.684 135.762 162.277C132.584 157.867 130.54 156.069 128.704 156.069C128.41 156.069 128.111 156.112 127.79 156.198L127.611 156.246L127.613 156.251Z" fill="#174B5F"/>
<path d="M203.108 130.232C202.182 129.441 201.541 129.117 201.541 129.117C201.514 129.104 199.047 127.859 198.774 127.778C198.764 127.776 198.751 127.773 198.731 127.776C198.45 127.7 198.172 127.644 197.883 127.604C197.827 127.599 197.769 127.584 197.709 127.584C197.43 127.546 197.157 127.528 196.884 127.528C196.846 127.53 196.808 127.536 196.757 127.536C196.507 127.541 196.256 127.558 196.006 127.596C195.96 127.604 195.91 127.606 195.864 127.614C195.596 127.652 195.333 127.718 195.062 127.786L194.741 127.887C194.518 127.968 194.303 128.042 194.088 128.138C191.892 129.132 190.501 130.344 189.754 132.011C188.56 134.67 188.967 138.47 190.263 144.395C190.326 144.689 190.387 144.995 190.46 145.301C190.526 145.582 190.592 145.878 190.637 146.171C190.89 147.55 191.029 149.05 191.075 150.611C191.103 151.373 191.105 152.152 191.098 152.936C191.085 153.511 191.062 154.082 191.037 154.667C191.009 155.282 190.971 155.891 190.926 156.509C190.893 156.903 190.86 157.301 190.83 157.703C190.751 158.492 190.67 159.292 190.569 160.063C190.485 160.845 190.374 161.614 190.273 162.368C189.35 168.771 187.998 173.94 187.998 173.94C187.943 174.218 187.877 174.482 187.829 174.745C187.05 178.557 187.045 180.647 187.905 181.884C188.016 182.028 188.117 182.175 188.249 182.284C188.338 182.36 188.467 182.451 188.613 182.539C189.173 182.894 190.038 183.24 190.038 183.24C192.849 184.095 195.495 182.646 200.59 176.005C205.126 170.082 209.66 163.125 210.045 151.363C210.08 150.348 210.116 149.263 210.095 148.16C210.106 147.983 210.103 147.801 210.098 147.621C210.09 147.191 210.075 146.766 210.055 146.333C209.574 137.068 205.347 132.14 203.108 130.232Z" fill="#FCCD9C"/>
<path d="M191.45 184.219C190.913 184.219 190.38 184.136 189.816 183.964L189.757 183.944C189.719 183.929 188.819 183.569 188.206 183.18C188.042 183.081 187.88 182.967 187.753 182.858C187.589 182.722 187.465 182.56 187.356 182.416L187.283 182.319C186.294 180.903 186.238 178.737 187.086 174.595C187.113 174.441 187.151 174.269 187.189 174.092C187.212 173.993 187.232 173.892 187.255 173.788L187.263 173.75C187.275 173.7 188.614 168.546 189.52 162.262L189.585 161.784C189.666 161.197 189.75 160.592 189.813 159.987C189.914 159.191 189.998 158.363 190.071 157.632C190.099 157.248 190.132 156.85 190.165 156.451C190.213 155.795 190.251 155.201 190.273 154.639C190.301 154.004 190.324 153.47 190.334 152.926C190.344 152.094 190.337 151.345 190.311 150.644C190.266 149.058 190.122 147.601 189.886 146.313C189.838 146.004 189.775 145.721 189.717 145.478C189.666 145.261 189.621 145.045 189.573 144.833L189.514 144.557C188.224 138.645 187.733 134.645 189.057 131.702C189.871 129.888 191.366 128.537 193.767 127.45C193.998 127.348 194.215 127.27 194.428 127.194L194.865 127.055C195.169 126.979 195.442 126.911 195.736 126.868C195.774 126.863 195.812 126.858 195.852 126.853L195.885 126.847C196.146 126.81 196.419 126.787 196.727 126.779C196.753 126.779 196.773 126.779 196.793 126.774L196.871 126.769C197.17 126.769 197.471 126.789 197.767 126.827C197.82 126.832 197.873 126.837 197.924 126.845L197.977 126.853C198.273 126.893 198.557 126.949 198.84 127.025C198.88 127.03 198.916 127.037 198.941 127.045L198.974 127.052C199.123 127.095 199.457 127.235 201.699 128.355L201.871 128.441C201.901 128.457 202.604 128.816 203.586 129.658C205.582 131.358 210.283 136.385 210.794 146.293C210.817 146.791 210.832 147.206 210.839 147.606C210.842 147.791 210.844 147.978 210.839 148.17C210.857 149.293 210.822 150.376 210.786 151.386C210.394 163.456 205.62 170.659 201.178 176.46C196.897 182.041 194.164 184.214 191.44 184.214M190.276 182.522C190.683 182.643 191.065 182.701 191.44 182.701C193.6 182.701 196.075 180.627 199.978 175.539C204.474 169.667 208.899 162.96 209.276 151.332C209.311 150.331 209.344 149.263 209.327 148.167V148.142V148.117C209.334 147.963 209.332 147.801 209.329 147.626C209.322 147.244 209.309 146.842 209.286 146.361C208.803 137.043 204.454 132.375 202.604 130.799C201.772 130.086 201.193 129.785 201.185 129.782C201.15 129.764 201.094 129.737 201.021 129.701C199.333 128.856 198.779 128.598 198.595 128.52L198.519 128.5C198.273 128.434 198.03 128.383 197.775 128.348C197.747 128.345 197.719 128.34 197.689 128.335L197.593 128.325C197.365 128.295 197.135 128.277 196.904 128.277C196.861 128.279 196.816 128.284 196.76 128.284C196.515 128.29 196.3 128.307 196.1 128.338C196.082 128.34 196.039 128.348 195.996 128.35L195.958 128.355C195.741 128.386 195.521 128.441 195.255 128.507L194.931 128.611C194.736 128.682 194.552 128.747 194.38 128.823C192.34 129.744 191.083 130.855 190.43 132.315C189.284 134.867 189.793 138.766 190.987 144.231L191.048 144.514C191.091 144.714 191.134 144.919 191.184 145.124C191.248 145.397 191.321 145.718 191.372 146.057C191.619 147.398 191.771 148.932 191.819 150.591C191.845 151.312 191.852 152.084 191.842 152.947C191.829 153.511 191.809 154.055 191.779 154.7C191.753 155.274 191.718 155.886 191.665 156.564C191.632 156.964 191.599 157.356 191.569 157.756C191.493 158.518 191.407 159.358 191.303 160.16C191.24 160.769 191.154 161.387 191.073 161.984L191.007 162.467C190.117 168.648 188.814 173.748 188.72 174.107C188.7 174.211 188.677 174.312 188.654 174.413C188.619 174.568 188.586 174.722 188.558 174.874C187.824 178.466 187.809 180.425 188.502 181.437L188.548 181.495C188.611 181.578 188.677 181.662 188.72 181.697C188.753 181.725 188.836 181.793 188.991 181.887C189.398 182.145 190.028 182.421 190.276 182.519" fill="#174B5F"/>
<path d="M210.065 149.2C210.126 147.639 210.108 146.004 210.02 144.289C209.539 135.024 205.686 130.417 203.454 128.507C200.975 127.533 198.207 126.729 195.083 126.162C193.494 125.863 191.811 125.633 190.03 125.469C176.945 124.259 172.143 131.103 172.141 131.098C172.121 131.126 170.54 133.39 170.428 133.648C170.418 133.666 170.416 133.673 170.406 133.691C170.289 133.957 170.203 134.23 170.117 134.501C170.099 134.556 170.084 134.619 170.072 134.673C169.998 134.941 169.943 135.217 169.902 135.49C169.9 135.525 169.897 135.568 169.889 135.609C169.862 135.862 169.841 136.112 169.844 136.363C169.839 136.416 169.836 136.459 169.839 136.507C169.839 136.78 169.861 137.051 169.897 137.321C169.909 137.382 169.915 137.445 169.925 137.499C169.97 137.777 170.023 138.055 170.107 138.339C170.775 140.653 171.772 142.202 173.32 143.186C175.895 144.828 179.986 144.906 186.569 144.393C187.941 144.284 189.431 144.312 190.982 144.451C191.293 144.481 191.612 144.509 191.923 144.545C192.674 144.628 193.448 144.734 194.22 144.861C194.787 144.952 197.592 144.99 198.167 145.101" fill="#FCCD9C"/>
<path d="M208.358 149.134C208.424 147.343 208.401 145.498 208.262 143.712C208.135 141.939 207.872 140.186 207.417 138.498C206.964 136.811 206.321 135.196 205.484 133.709C204.641 132.231 203.586 130.88 202.347 129.813H202.341L202.827 130.101C200.376 129.076 197.805 128.307 195.169 127.751C192.538 127.184 189.821 126.817 187.187 126.721C184.541 126.64 181.892 126.946 179.407 127.741C178.175 128.15 176.966 128.654 175.868 129.334C175.592 129.504 175.329 129.689 175.058 129.863C174.8 130.05 174.542 130.245 174.294 130.443C174.054 130.65 173.806 130.852 173.589 131.073C173.472 131.179 173.366 131.29 173.262 131.401C173.209 131.457 173.158 131.513 173.113 131.568L173.042 131.649L173.024 131.67C172.989 131.708 172.893 131.862 172.622 132.001C172.485 132.069 172.273 132.13 172.04 132.105C171.807 132.085 171.595 131.976 171.471 131.869C171.215 131.647 171.182 131.503 171.137 131.422L172.986 131.71L172.098 132.94L171.661 133.56L171.451 133.863L171.357 134.005L171.319 134.063C171.306 134.083 171.327 134.048 171.324 134.043L171.296 134.106C171.263 134.177 171.208 134.344 171.162 134.458C171.119 134.582 171.058 134.721 171.023 134.83C170.998 134.903 170.96 135.09 170.929 135.217L170.831 135.639L170.838 135.561C170.831 135.649 170.816 135.74 170.8 135.826L170.821 135.713L170.765 136.363L170.76 136.431V136.454C170.76 136.454 170.76 136.479 170.76 136.489L170.765 136.588L170.775 136.803C170.785 136.95 170.78 137.084 170.798 137.243C170.851 137.559 170.907 137.843 170.972 138.154C171.144 138.786 171.349 139.394 171.613 139.965C172.134 141.111 172.905 142.07 173.971 142.685C175.02 143.323 176.301 143.646 177.611 143.834C178.927 144.016 180.285 144.061 181.646 144.061C183.01 144.061 184.381 144.006 185.753 143.935C187.121 143.836 188.563 143.826 189.947 143.94C190.645 143.991 191.339 144.074 192.029 144.163L194.089 144.486C194.716 144.593 195.427 144.608 196.108 144.658C196.806 144.709 197.466 144.724 198.21 144.836L198.106 145.369C197.484 145.301 196.76 145.304 196.082 145.283C195.387 145.258 194.716 145.278 193.977 145.185L191.938 144.947C191.255 144.886 190.58 144.831 189.899 144.81C188.528 144.755 187.207 144.815 185.828 144.967C184.45 145.094 183.068 145.202 181.674 145.261C180.28 145.314 178.874 145.326 177.449 145.187C176.032 145.04 174.563 144.755 173.209 144.011C171.84 143.297 170.752 142.045 170.09 140.709C169.748 140.041 169.485 139.346 169.267 138.657C169.171 138.298 169.08 137.909 169.004 137.547C168.974 137.367 168.961 137.152 168.941 136.957L168.916 136.656C168.913 136.603 168.905 136.565 168.905 136.497L168.911 136.274V136.365L168.943 135.508L168.964 135.394C168.964 135.394 168.951 135.414 168.951 135.424L168.959 135.346L169.057 134.83C169.095 134.645 169.108 134.513 169.171 134.281C169.227 134.081 169.287 133.924 169.346 133.744C169.414 133.56 169.447 133.418 169.546 133.198L169.515 133.261C169.543 133.198 169.591 133.107 169.611 133.071L169.672 132.968L169.783 132.785L169.996 132.449L170.421 131.796L171.281 130.498L173.133 130.787C173.103 130.688 173.08 130.526 172.84 130.286C172.721 130.172 172.516 130.056 172.29 130.025C172.065 129.992 171.86 130.045 171.729 130.104C171.473 130.225 171.39 130.362 171.367 130.382L171.39 130.352L171.486 130.233C171.549 130.149 171.613 130.076 171.676 130.005C171.802 129.858 171.931 129.711 172.063 129.577C172.323 129.297 172.602 129.046 172.877 128.791C173.161 128.545 173.449 128.31 173.743 128.077C174.046 127.862 174.345 127.637 174.651 127.432C175.886 126.602 177.232 125.972 178.608 125.454C181.376 124.444 184.305 123.996 187.2 123.968C190.114 123.961 192.93 124.237 195.743 124.722C198.559 125.201 201.36 125.917 204.072 126.923L204.338 127.022L204.558 127.214L204.563 127.219C206.164 128.601 207.434 130.25 208.446 132.019C209.448 133.795 210.192 135.685 210.711 137.615C211.229 139.545 211.525 141.511 211.665 143.469C211.811 145.417 211.834 147.323 211.766 149.271L208.348 149.136L208.358 149.134Z" fill="#174B5F"/>
<path d="M191.122 155.436C191.122 155.436 170.682 171.458 164.016 172.432C157.301 173.414 152.884 194.397 152.884 194.397C152.884 194.397 161.83 197.013 176.122 192.748C185.381 189.985 198.714 180.242 206.944 172.7C206.944 172.7 205.867 159.856 191.119 155.436" fill="#29ABE2"/>
<path d="M160.427 195.825C155.567 195.825 152.825 195.04 152.711 195.005L152.149 194.84L152.268 194.269C152.281 194.215 153.404 188.918 155.34 183.567C158.004 176.205 160.893 172.248 163.926 171.805C170.35 170.866 190.529 155.097 190.731 154.938L190.989 154.735L191.303 154.829C199.123 157.174 203.131 161.88 205.114 165.417C207.27 169.255 207.563 172.511 207.576 172.648L207.601 172.956L207.374 173.166C198.868 180.961 185.517 190.605 176.303 193.353C170.81 194.992 165.47 195.822 160.425 195.822M153.632 193.927C154.651 194.147 157.004 194.557 160.425 194.557C165.348 194.557 170.568 193.745 175.944 192.141C184.88 189.474 197.868 180.113 206.281 172.453C206.154 171.585 205.658 168.946 203.986 165.984C201.309 161.248 197.026 157.936 191.252 156.134C188.743 158.088 170.529 172.119 164.108 173.055C159.132 173.783 154.991 187.827 153.635 193.927" fill="#174B5F"/>
<path d="M159.551 166.201C152.682 164.101 121.45 152.511 109.619 152.737C101.888 152.883 107.967 165.984 112.802 173.842C121.961 188.725 159.551 197.687 159.551 197.687C168.978 194.281 169.071 184.569 168.401 179.157C167.723 173.687 164.821 167.81 159.551 166.201Z" fill="#26B473"/>
<path d="M159.589 198.344L159.404 198.301C159.308 198.278 149.844 196.004 139.382 191.936C125.26 186.443 116.137 180.467 112.264 174.175C110.106 170.669 103.27 158.856 105.886 154.065C106.576 152.8 107.829 152.142 109.607 152.107C109.726 152.107 109.845 152.104 109.966 152.104C119.843 152.104 141.753 159.54 153.522 163.534C156.27 164.465 158.443 165.204 159.733 165.599C165.583 167.385 168.396 173.978 169.026 179.081C169.509 182.987 169.287 186.448 168.361 189.365C166.982 193.717 164.09 196.717 159.761 198.281L159.584 198.344H159.589ZM109.969 153.366C109.855 153.366 109.744 153.366 109.632 153.369C108.324 153.394 107.462 153.819 106.996 154.669C105.175 158.004 109.276 166.904 113.341 173.51C121.936 187.475 156.659 196.32 159.513 197.026C167.771 193.932 168.568 185.656 167.774 179.235C167.187 174.509 164.634 168.417 159.366 166.806C158.056 166.406 155.878 165.665 153.118 164.729C141.416 160.756 119.636 153.366 109.966 153.366" fill="#174B5F"/>
<path d="M114.218 160.129C114.195 160.132 114.173 160.139 114.147 160.147C113.548 160.319 113.07 160.549 112.703 160.881C112.591 160.982 112.495 161.093 112.407 161.214C111.599 162.29 111.6 164.207 112.285 167.861C112.285 167.861 113.287 172.222 113.894 177.596C113.968 178.228 114.031 178.874 114.092 179.531C114.15 180.187 114.2 180.85 114.241 181.515C114.261 181.849 114.279 182.183 114.294 182.517C114.317 183.03 114.332 183.546 114.342 184.058C114.35 184.543 114.355 185.026 114.35 185.507C114.339 186.165 114.317 186.813 114.276 187.448C114.178 189.039 113.973 190.544 113.629 191.883C112.25 197.236 111.724 200.621 112.703 202.982C113.292 204.398 114.42 205.446 116.237 206.331C116.455 206.438 116.677 206.524 116.9 206.602C116.948 206.617 116.993 206.635 117.042 206.65C117.259 206.718 117.482 206.777 117.707 206.82C117.745 206.827 117.785 206.832 117.823 206.837C118.031 206.873 118.241 206.896 118.453 206.906C118.489 206.906 118.521 206.913 118.557 206.913C118.787 206.921 119.017 206.913 119.25 206.893C119.301 206.888 119.351 206.883 119.402 206.878C119.637 206.852 119.873 206.815 120.11 206.759C120.123 206.759 120.136 206.751 120.148 206.749C120.376 206.693 122.476 205.717 122.496 205.701C122.496 205.701 128.829 202.734 129.727 191.766C130.731 179.491 127.007 172.187 122.871 166.446C118.775 160.762 116.589 159.484 114.218 160.129Z" fill="#FCCD9C"/>
<path d="M118.733 207.546C118.667 207.546 118.604 207.546 118.538 207.541C118.513 207.541 118.482 207.538 118.452 207.536H118.424C118.186 207.52 117.951 207.495 117.721 207.457L117.691 207.452C117.658 207.447 117.625 207.442 117.594 207.437C117.354 207.391 117.104 207.328 116.853 207.25C116.82 207.24 116.78 207.224 116.739 207.212L116.701 207.199C116.415 207.1 116.183 207.007 115.963 206.898C113.984 205.934 112.765 204.765 112.125 203.225C111.06 200.659 111.647 197.064 113.023 191.726C113.339 190.499 113.552 189.047 113.65 187.41C113.688 186.8 113.711 186.155 113.721 185.497C113.726 184.986 113.721 184.465 113.713 184.068C113.703 183.486 113.688 183.003 113.668 182.545C113.653 182.216 113.635 181.884 113.615 181.553C113.577 180.92 113.526 180.26 113.466 179.585C113.41 178.957 113.344 178.312 113.271 177.664C112.674 172.392 111.682 168.04 111.672 167.997C110.918 163.995 110.981 162.057 111.905 160.83C112.029 160.663 112.153 160.526 112.284 160.407C112.709 160.023 113.245 159.745 113.977 159.535L114.06 159.512L114.855 159.302V159.363C117.349 159.102 119.674 160.919 123.388 166.072C127.421 171.668 131.403 179.101 130.361 191.812C129.452 202.918 123.049 206.132 122.776 206.263C122.336 206.491 120.539 207.3 120.299 207.356C120.291 207.359 120.271 207.364 120.256 207.369C120.021 207.424 119.765 207.467 119.477 207.498C119.421 207.505 119.368 207.51 119.312 207.515C119.107 207.533 118.92 207.541 118.735 207.541M114.222 160.779C113.741 160.926 113.392 161.108 113.132 161.344C113.061 161.407 112.992 161.485 112.917 161.586C112.256 162.467 112.254 164.248 112.911 167.737C112.917 167.757 113.924 172.172 114.528 177.52C114.602 178.175 114.67 178.831 114.725 179.468C114.786 180.154 114.837 180.827 114.877 181.472C114.898 181.808 114.915 182.145 114.93 182.484C114.951 182.955 114.966 183.448 114.978 184.042C114.984 184.45 114.991 184.984 114.984 185.51C114.973 186.19 114.951 186.853 114.91 187.483C114.804 189.201 114.581 190.734 114.245 192.037C112.937 197.117 112.362 200.497 113.291 202.736C113.815 203.994 114.809 204.927 116.517 205.76C116.689 205.843 116.876 205.919 117.109 206L117.154 206.015C117.18 206.023 117.202 206.033 117.228 206.04C117.438 206.106 117.635 206.157 117.827 206.192L117.926 206.207C118.111 206.238 118.3 206.258 118.488 206.268L118.576 206.273C118.789 206.281 118.976 206.273 119.196 206.255C119.239 206.253 119.284 206.248 119.333 206.243C119.57 206.215 119.778 206.182 119.968 206.137L119.998 206.126C120.205 206.058 121.66 205.39 122.098 205.183L122.224 205.122C122.47 205.003 128.246 202.101 129.098 191.706C130.105 179.405 126.257 172.217 122.358 166.808C119.181 162.399 117.137 160.6 115.3 160.6C115.006 160.6 114.708 160.643 114.386 160.729L114.219 160.774L114.222 160.779Z" fill="#174B5F"/>
<path d="M170.615 106.289L171.865 144.327C175.407 144.456 177.927 144.732 180.092 144.056L183.293 143.953L183.245 142.48C180.7 138.232 180.568 133.466 182.777 128.196L182.602 122.888L177.747 110.921C176.576 108.035 173.73 106.185 170.618 106.289" fill="#E7E6E8"/>
<path d="M176.508 144.747C175.617 144.747 174.633 144.701 173.593 144.653C173.042 144.628 172.465 144.603 171.858 144.58L171.622 144.572L171.615 144.337L170.357 106.046L170.61 106.039C170.696 106.036 170.78 106.033 170.866 106.033C174.008 106.033 176.801 107.916 177.983 110.828L182.856 122.835L183.033 128.244L183.01 128.295C180.834 133.489 180.986 138.217 183.463 142.351L183.495 142.407L183.554 144.198L180.136 144.309C179.149 144.613 178.028 144.747 176.508 144.747ZM172.111 144.084C172.634 144.104 173.135 144.127 173.616 144.15C174.651 144.198 175.627 144.244 176.508 144.244C177.993 144.244 179.073 144.112 180.017 143.818L180.085 143.806L183.033 143.71L182.995 142.556C180.472 138.303 180.313 133.458 182.522 128.15L182.352 122.941L177.512 111.017C176.409 108.3 173.808 106.545 170.879 106.539L172.113 144.084H172.111Z" fill="#164C60"/>
<path d="M171.865 144.327L170.615 106.291C173.006 106.213 175.24 107.288 176.677 109.097C177.11 109.641 177.471 110.253 177.742 110.921L182.599 122.888L182.774 128.196C182.39 129.122 182.071 130.025 181.833 130.918C181.805 131.019 181.777 131.118 181.754 131.217C181.545 132.039 181.395 132.846 181.312 133.64C181.003 136.484 181.489 139.158 182.787 141.66C182.928 141.936 183.083 142.209 183.245 142.483L183.293 143.952L180.092 144.056C180.077 144.059 180.065 144.066 180.049 144.066C179.809 144.142 179.564 144.203 179.313 144.256C177.32 144.671 174.989 144.441 171.865 144.327Z" fill="#E7E6E8"/>
<path d="M176.509 144.747C175.615 144.747 174.631 144.701 173.589 144.653C173.04 144.628 172.463 144.603 171.858 144.58L171.623 144.572L171.615 144.337L170.356 106.046L170.609 106.039C173.06 105.947 175.36 107.028 176.878 108.94C177.336 109.517 177.708 110.152 177.978 110.828L182.851 122.835L183.031 128.242L183.008 128.292C182.608 129.253 182.305 130.134 182.077 130.981L182.057 131.052C182.036 131.126 182.016 131.202 181.998 131.275C181.791 132.087 181.644 132.892 181.561 133.666C181.257 136.456 181.745 139.105 183.01 141.542C183.162 141.838 183.329 142.131 183.461 142.351L183.494 142.407L183.552 144.193L180.134 144.304C180.134 144.304 180.116 144.309 180.106 144.312C179.863 144.385 179.615 144.448 179.365 144.499C178.568 144.666 177.659 144.742 176.506 144.742M172.109 144.079C172.63 144.099 173.131 144.122 173.609 144.145C174.647 144.193 175.625 144.238 176.506 144.238C177.624 144.238 178.5 144.165 179.264 144.006C179.504 143.958 179.742 143.894 179.974 143.824L180.083 143.801L183.031 143.705L182.993 142.551C182.864 142.331 182.704 142.053 182.563 141.769C181.252 139.244 180.746 136.497 181.06 133.608C181.143 132.811 181.295 131.981 181.508 131.148C181.525 131.073 181.548 130.997 181.568 130.918L181.586 130.85C181.816 129.995 182.12 129.109 182.52 128.148L182.347 122.941L177.508 111.015C177.252 110.382 176.906 109.79 176.478 109.252C175.109 107.531 173.07 106.542 170.874 106.537L172.106 144.082L172.109 144.079Z" fill="#164C60"/>
<path d="M182.601 122.886L180.547 122.954C179.515 122.987 178.576 122.364 178.201 121.403L176.132 116.055C175.249 113.773 175.449 111.212 176.676 109.092C177.108 109.636 177.47 110.248 177.741 110.919L182.598 122.886H182.601Z" fill="#3F3F41"/>
<path d="M180.468 123.209C179.37 123.209 178.363 122.521 177.968 121.497L175.899 116.148C174.983 113.783 175.188 111.164 176.461 108.968L176.648 108.647L176.878 108.938C177.336 109.515 177.708 110.15 177.981 110.825L182.975 123.128L180.559 123.207C180.529 123.207 180.498 123.207 180.47 123.207M176.716 109.558C175.686 111.546 175.56 113.859 176.375 115.964L178.444 121.312C178.765 122.144 179.58 122.701 180.473 122.701H180.544L182.236 122.645L177.516 111.015C177.308 110.501 177.04 110.013 176.719 109.56" fill="#164C60"/>
<path d="M186.398 127.042L186.259 122.767L182.604 122.886L182.778 128.193L185.402 128.107C185.973 128.09 186.419 127.611 186.401 127.04" fill="#F0602D"/>
<path d="M182.531 128.457L182.339 122.643L186.501 122.506L186.609 125.785C186.655 127.181 185.557 128.358 184.158 128.403L182.531 128.457ZM182.862 123.131L183.019 127.933L184.143 127.897C185.261 127.86 186.141 126.918 186.106 125.8L186.015 123.027L182.865 123.131H182.862Z" fill="#164C60"/>
<path d="M177.362 115.488C177.228 115.172 177.375 114.805 177.691 114.671L179.328 113.975L179.816 115.121L178.179 115.817C177.863 115.951 177.496 115.804 177.362 115.488Z" fill="#F0602D"/>
<path d="M177.937 116.12C177.585 116.12 177.269 115.91 177.132 115.589C176.945 115.144 177.153 114.63 177.595 114.44L179.465 113.644L180.151 115.255L178.281 116.05C178.172 116.095 178.056 116.12 177.937 116.12ZM179.197 114.306L177.793 114.903C177.605 114.984 177.517 115.202 177.598 115.389C177.676 115.571 177.899 115.662 178.084 115.584L179.488 114.987L179.197 114.306Z" fill="#164C60"/>
<path d="M177.963 117.003C177.829 116.687 177.975 116.32 178.292 116.186L179.928 115.49L180.417 116.637L178.78 117.332C178.464 117.466 178.099 117.32 177.963 117.003Z" fill="#F0602D"/>
<path d="M178.538 117.636C178.186 117.636 177.87 117.426 177.733 117.104C177.543 116.659 177.753 116.145 178.196 115.956L180.066 115.159L180.751 116.77L178.882 117.567C178.773 117.613 178.656 117.638 178.538 117.638M179.798 115.824L178.393 116.421C178.206 116.502 178.118 116.72 178.199 116.907C178.277 117.089 178.5 117.18 178.684 117.102L180.088 116.505L179.798 115.824Z" fill="#164C60"/>
<path d="M176.761 113.973C176.626 113.656 176.773 113.29 177.09 113.155L178.726 112.46L179.215 113.606L177.578 114.302C177.262 114.436 176.895 114.289 176.761 113.973Z" fill="#F0602D"/>
<path d="M177.334 114.605C176.982 114.605 176.665 114.395 176.529 114.074C176.438 113.859 176.435 113.621 176.524 113.403C176.61 113.186 176.777 113.016 176.992 112.925L178.862 112.128L179.547 113.74L177.677 114.537C177.569 114.582 177.452 114.608 177.334 114.608M178.593 112.794L177.189 113.391C177.098 113.429 177.027 113.502 176.989 113.593C176.954 113.684 176.954 113.785 176.992 113.876C177.07 114.059 177.293 114.15 177.478 114.071L178.882 113.474L178.591 112.794H178.593Z" fill="#164C60"/>
<path d="M178.568 118.519C178.434 118.203 178.581 117.836 178.897 117.702L180.534 117.006L181.022 118.152L179.385 118.85C179.069 118.984 178.702 118.838 178.568 118.521" fill="#F0602D"/>
<path d="M179.141 119.151C178.789 119.151 178.473 118.941 178.337 118.617C178.246 118.402 178.243 118.165 178.331 117.947C178.417 117.729 178.585 117.56 178.8 117.469L180.669 116.672L181.355 118.283L179.485 119.08C179.376 119.126 179.26 119.151 179.141 119.151ZM180.401 117.337L178.997 117.934C178.906 117.972 178.835 118.046 178.8 118.137C178.762 118.228 178.764 118.329 178.8 118.42C178.878 118.602 179.101 118.696 179.285 118.615L180.689 118.018L180.401 117.337Z" fill="#164C60"/>
<path d="M179.171 120.034C179.037 119.718 179.183 119.351 179.5 119.217L181.137 118.519L181.625 119.665L179.988 120.363C179.672 120.497 179.305 120.35 179.171 120.034Z" fill="#F0602D"/>
<path d="M179.741 120.664C179.389 120.664 179.073 120.454 178.937 120.13C178.747 119.685 178.954 119.172 179.4 118.982L181.269 118.185L181.955 119.794L180.085 120.591C179.976 120.636 179.86 120.662 179.741 120.662M180.999 118.848L179.597 119.445C179.41 119.526 179.321 119.741 179.402 119.931C179.48 120.113 179.701 120.204 179.888 120.125L181.292 119.528L181.001 118.848H180.999Z" fill="#164C60"/>
<path d="M179.774 121.55C179.64 121.233 179.787 120.866 180.103 120.732L181.74 120.037L182.228 121.183L180.592 121.878C180.275 122.013 179.911 121.866 179.774 121.55Z" fill="#F0602D"/>
<path d="M180.344 122.18C179.992 122.18 179.676 121.97 179.54 121.646C179.449 121.431 179.446 121.193 179.535 120.975C179.621 120.758 179.788 120.588 180.003 120.497L181.872 119.7L182.558 121.312L180.688 122.106C180.579 122.154 180.463 122.177 180.344 122.177M181.604 120.363L180.2 120.96C180.109 120.998 180.041 121.071 180.003 121.163C179.965 121.254 179.967 121.355 180.005 121.446C180.083 121.628 180.306 121.719 180.491 121.641L181.895 121.044L181.604 120.363Z" fill="#164C60"/>
<path d="M180.054 144.066C179.637 144.011 179.219 143.935 178.807 143.839C175.963 143.173 173.502 141.632 171.71 139.497C170.387 137.926 169.428 136.029 168.948 133.926C168.912 133.774 168.88 133.628 168.849 133.478L168.877 133.458C169.681 132.793 170.547 132.234 171.457 131.783C174.17 130.44 177.266 130.068 180.3 130.779C180.796 130.898 181.284 131.04 181.759 131.214C181.782 131.115 181.81 131.017 181.838 130.916C181.36 130.744 180.869 130.599 180.371 130.483C177.314 129.764 174.192 130.121 171.447 131.447C170.473 131.917 169.547 132.507 168.687 133.218C168.669 133.233 168.652 133.246 168.634 133.261L168.518 133.349L168.535 133.44C168.568 133.625 168.609 133.805 168.652 133.989C169.175 136.274 170.248 138.313 171.728 139.978C173.54 142.009 175.961 143.479 178.739 144.13C178.934 144.175 179.123 144.216 179.321 144.251C179.569 144.2 179.814 144.137 180.057 144.061" fill="#F0602D"/>
<path d="M179.321 144.512L179.274 144.504C179.071 144.466 178.879 144.428 178.679 144.38C175.891 143.727 173.422 142.265 171.537 140.15C170.009 138.43 168.923 136.32 168.402 134.05C168.359 133.86 168.319 133.678 168.283 133.491L168.235 133.251L168.524 133.028C169.389 132.312 170.335 131.708 171.335 131.224C173.194 130.326 175.182 129.871 177.247 129.871C178.309 129.871 179.38 129.995 180.425 130.243C180.918 130.357 181.421 130.503 181.92 130.683L182.14 130.761L182.059 131.057C182.039 131.133 182.018 131.207 182.001 131.28L181.935 131.553L181.669 131.457C181.222 131.293 180.741 131.151 180.237 131.029C179.256 130.799 178.251 130.683 177.255 130.683C175.266 130.683 173.351 131.131 171.567 132.016C170.707 132.441 169.887 132.97 169.126 133.585C169.146 133.681 169.169 133.774 169.189 133.873C169.649 135.89 170.588 137.779 171.899 139.338C173.695 141.478 176.101 142.948 178.858 143.596C179.246 143.687 179.658 143.763 180.083 143.821L181.214 143.975L180.123 144.312C179.876 144.388 179.62 144.456 179.364 144.507L179.317 144.517L179.321 144.512Z" fill="#164C60"/>
<path d="M178.219 141.792C174.796 140.99 172.302 138.316 171.565 135.103C171.538 134.981 171.512 134.862 171.489 134.741C171.509 134.726 171.53 134.706 171.553 134.69C173.622 132.983 176.443 132.221 179.261 132.884C179.99 133.056 180.676 133.309 181.313 133.64C181.004 136.484 181.49 139.158 182.788 141.66C181.351 142.088 179.785 142.159 178.219 141.792Z" fill="#F0602D"/>
<path d="M180.261 142.28C179.56 142.28 178.851 142.199 178.161 142.037C174.73 141.235 172.109 138.599 171.317 135.158C171.289 135.034 171.262 134.913 171.239 134.787L171.211 134.635L171.396 134.491C173.03 133.14 175.102 132.393 177.22 132.393C177.92 132.393 178.626 132.474 179.317 132.636C180.058 132.811 180.767 133.071 181.427 133.415L181.581 133.494L181.561 133.666C181.257 136.454 181.746 139.103 183.011 141.542L183.152 141.812L182.859 141.901C182.014 142.154 181.141 142.28 180.258 142.28M171.765 134.84C171.78 134.908 171.793 134.974 171.808 135.042C172.554 138.293 175.031 140.785 178.275 141.544C179.646 141.865 181.075 141.848 182.424 141.496C181.242 139.098 180.777 136.504 181.042 133.785C180.463 133.499 179.846 133.279 179.201 133.127C178.55 132.975 177.882 132.897 177.22 132.897C175.241 132.897 173.306 133.587 171.765 134.84Z" fill="#164C60"/>
<path d="M170.614 106.317L167.567 106.417L168.815 144.455L171.862 144.355L170.614 106.317Z" fill="#3F3F41"/>
<path d="M168.577 144.689L168.569 144.436L167.312 106.145L170.864 106.028L170.871 106.281L172.129 144.572L168.574 144.689H168.577ZM167.833 106.633L169.065 144.165L171.607 144.082L170.373 106.55L167.833 106.633Z" fill="#164C60"/>
<path d="M69.623 155.841C71.5053 156.354 73.1068 156.127 74.2175 155.777C75.2699 155.454 75.8847 155.021 75.8847 155.021C75.8847 155.021 79.5051 160 85.0432 164.587C87.9881 167.033 91.4869 169.368 95.2768 170.773C110.067 176.263 129.53 173.224 141.849 163.55C147.402 159.19 151.361 153.298 153.757 146.826C154.015 146.136 154.435 144.78 154.435 144.78C154.435 144.78 157.377 145.883 160.694 143.965C164.016 142.04 165.134 135.659 162.561 131.303C159.981 126.946 155.73 130.756 155.73 130.756C155.067 121.82 152.039 113.654 149.714 109.456C142.944 97.2215 129.571 91.8605 115.42 91.5189C100.509 91.1546 85.62 96.8268 77.5166 109.411C72.0594 117.896 71.3181 141.764 71.3181 141.764C71.3181 141.764 66.2935 139.166 64.8287 144.046C63.3588 148.934 65.952 154.829 69.623 155.841Z" fill="#FCCD9C"/>
<path d="M111.237 174.125C105.43 174.125 99.9884 173.196 95.06 171.367C91.6547 170.102 88.1481 167.985 84.6416 165.073C80.0725 161.29 76.7608 157.194 75.721 155.848C75.4047 156.01 74.9594 156.21 74.4054 156.382C73.5781 156.643 72.7103 156.774 71.8324 156.774C71.043 156.774 70.2436 156.666 69.4593 156.451C67.8148 155.998 66.3196 154.68 65.2494 152.744C63.7745 150.072 63.3823 146.67 64.2273 143.864C65.0774 141.035 67.0128 140.438 68.4903 140.438C69.3455 140.438 70.1475 140.641 70.7243 140.836C70.9191 136.325 72.0398 116.758 76.9884 109.067C80.8264 103.109 86.2305 98.4789 93.0563 95.3063C99.3003 92.4044 106.569 90.8688 114.075 90.8688C114.528 90.8688 114.986 90.8738 115.441 90.8865C122.89 91.0661 129.865 92.6473 135.618 95.4581C142.057 98.6054 146.988 103.21 150.272 109.148C152.566 113.289 155.448 121.028 156.27 129.585C157.027 129.114 158.152 128.58 159.372 128.58C160.429 128.58 161.935 128.995 163.111 130.979C164.599 133.494 165.019 136.777 164.237 139.768C163.665 141.956 162.522 143.639 161.019 144.512C159.625 145.319 158.13 145.729 156.579 145.729C155.868 145.729 155.276 145.64 154.866 145.549C154.719 146.007 154.514 146.637 154.36 147.047C151.802 153.956 147.615 159.836 142.249 164.045C134.095 170.449 122.793 174.122 111.242 174.122M76.0397 154.151L76.404 154.649C76.4394 154.7 80.0472 159.621 85.4563 164.099C88.854 166.92 92.234 168.966 95.5052 170.181C100.224 171.931 105.666 172.86 111.242 172.86C122.515 172.86 133.533 169.285 141.467 163.051C146.646 158.986 150.694 153.298 153.173 146.606C153.421 145.938 153.836 144.603 153.841 144.59L154.039 143.95L154.666 144.185C154.666 144.185 155.433 144.461 156.579 144.461C157.907 144.461 159.187 144.109 160.386 143.416C161.578 142.725 162.537 141.278 163.015 139.447C163.703 136.815 163.324 133.817 162.026 131.621C161.317 130.425 160.449 129.843 159.374 129.843C157.73 129.843 156.174 131.212 156.159 131.224L155.202 132.074L155.106 130.799C154.456 122.005 151.499 113.97 149.166 109.76C143.091 98.7825 131.104 92.5284 115.411 92.1489C114.966 92.1388 114.52 92.1338 114.078 92.1338C98.6247 92.1338 85.1603 98.7193 78.0561 109.752C72.7533 117.995 71.9665 141.546 71.9589 141.782L71.9285 142.784L71.038 142.323C71.038 142.323 69.8134 141.703 68.4979 141.703C66.9521 141.703 65.9553 142.528 65.4442 144.228C64.6954 146.72 65.047 149.749 66.3626 152.132C67.2658 153.769 68.4878 154.869 69.8009 155.231C70.4764 155.416 71.1646 155.509 71.8401 155.509C72.5889 155.509 73.3276 155.396 74.036 155.173C74.9695 154.887 75.5261 154.505 75.5337 154.502L76.0397 154.151Z" fill="#164C60"/>
<path d="M124.945 125.327C123.83 124.922 122.845 124.598 121.889 124.409C120.938 124.219 120.052 124.173 119.187 124.295C118.322 124.409 117.452 124.679 116.541 125.087C115.62 125.479 114.694 126.013 113.604 126.526C113.93 125.37 114.595 124.361 115.499 123.531C116.397 122.706 117.596 122.086 118.901 121.922C120.207 121.739 121.545 122.046 122.608 122.668C123.142 122.979 123.615 123.366 124.014 123.812C124.409 124.259 124.748 124.755 124.945 125.327Z" fill="#164C60"/>
<path d="M156.475 115.005C155.724 110.754 160.273 110.554 157.973 105.393C148.665 84.5211 132.737 86.9144 131.254 87.1877C131.178 87.2003 131.107 87.1927 131.039 87.1598C129.481 86.4388 110.845 78.0444 97.7928 83.2131C84.1614 88.612 72.1416 100.255 68.0203 121.018C63.899 141.779 74.2642 161.516 74.2642 161.516L75.4306 161.037C73.867 157.799 72.7437 154.454 71.9569 151.168C71.6837 146.209 73.6596 139.477 73.6596 139.452C73.6596 139.452 74.0416 132.699 77.5077 121.805C80.9737 110.906 84.3815 110.668 84.3815 110.668C80.7384 117.707 82.3474 122.202 82.3474 122.202C85.4871 122.635 102.387 118.544 101.575 112.804C100.763 107.066 106.352 103.364 106.352 103.364C104.889 106.231 107.784 118.959 107.784 118.959C108.73 112.277 116.553 104.161 116.553 104.161C113.775 107.734 115.455 117.785 115.455 117.785C115.455 117.785 121.709 118.203 127.183 118.24C132.658 118.276 134.26 101.77 134.26 101.77C136.322 104.02 137.501 114.446 137.501 114.446L136.759 120.619C138.933 118.028 152.627 124.828 152.627 124.828C152.627 124.834 149.771 137.154 153.343 139.156C154.259 139.669 155.089 143.748 155.532 146.877C156.971 137.071 157.897 124.366 157.897 124.366C157.897 124.366 157.895 117.117 156.475 115.002" fill="#633B18"/>
<path d="M93.2725 129.418C92.1568 129.013 91.1727 128.689 90.2189 128.5C89.2676 128.31 88.3822 128.264 87.5144 128.386C86.6491 128.5 85.7788 128.77 84.868 129.178C83.9471 129.57 83.0185 130.104 81.9307 130.617C82.257 129.458 82.9225 128.451 83.8257 127.622C84.7238 126.797 85.923 126.177 87.231 126.013C88.5339 125.83 89.8748 126.134 90.9374 126.759C91.4712 127.073 91.9443 127.46 92.344 127.902C92.7387 128.35 93.0777 128.846 93.2725 129.418Z" fill="#164C60"/>
<path d="M75.7999 161.989C75.6785 161.989 75.5494 161.973 75.4128 161.941C73.3863 161.447 71.3421 157.275 69.3409 149.544C65.4447 134.495 66.6515 129.936 66.7047 129.749C66.7629 129.547 66.9729 129.433 67.1727 129.489C67.3726 129.544 67.4915 129.754 67.4333 129.954C67.4206 129.997 66.2519 134.587 70.0747 149.351C72.6805 159.421 74.788 160.989 75.5723 161.197C75.6836 161.227 75.7848 161.232 75.8683 161.225C74.8436 160.248 72.3845 157.425 71.8988 152.478C71.4029 147.419 72.7311 141.144 74.7399 131.649C75.17 129.618 75.6152 127.513 76.0883 125.211C78.8206 111.9 85.649 109.244 85.9375 109.138C86.1146 109.072 86.3144 109.148 86.4029 109.315C86.4915 109.482 86.4435 109.689 86.2892 109.8C81.2975 113.388 82.5903 121.426 82.7067 122.083C83.5821 122.658 92.4647 120.717 97.345 117.621C101.363 115.07 101.315 113.975 101.221 111.794C101.206 111.42 101.188 111.035 101.188 110.603C101.188 107.43 105.899 103.258 106.099 103.083C106.223 102.975 106.402 102.959 106.544 103.043C106.686 103.126 106.757 103.293 106.721 103.453C105.831 107.369 107.083 114.096 107.763 117.203C109.39 112.214 115.948 104.298 116.259 103.921C116.388 103.767 116.616 103.739 116.778 103.86C116.94 103.979 116.98 104.204 116.869 104.374C114.02 108.697 115.46 116.062 115.771 117.464C116.907 117.676 121.959 118.519 127.138 117.869C132.752 117.163 133.87 101.902 133.883 101.748C133.893 101.578 134.02 101.436 134.187 101.401C134.356 101.368 134.525 101.452 134.601 101.606C136.747 105.942 137.534 111.873 137.577 113.542C137.612 114.901 137.313 118.612 137.189 120.067C141.45 118.989 152.311 124.254 152.794 124.492C152.961 124.573 153.045 124.765 152.992 124.942C150.758 132.279 151.587 137.491 153.558 138.847C154.826 139.717 155.453 141.974 155.757 143.73C156.511 139.975 157.829 132.456 157.184 128.629C157.151 128.421 157.288 128.226 157.495 128.191C157.7 128.158 157.897 128.295 157.933 128.502C158.836 133.853 156.134 145.648 156.02 146.146C155.977 146.331 155.803 146.455 155.618 146.437C155.428 146.419 155.281 146.267 155.271 146.078C155.195 144.595 154.661 140.522 153.128 139.469C151.023 138.022 149.844 132.899 152.172 125.031C148.59 123.316 139.669 119.609 136.927 120.96C136.803 121.021 136.658 121.011 136.544 120.932C136.43 120.854 136.367 120.722 136.38 120.586C136.385 120.533 136.856 115.184 136.815 113.56C136.777 112.098 136.152 107.268 134.503 103.238C134.068 107.212 132.413 117.965 127.232 118.617C121.246 119.369 115.434 118.17 115.376 118.157C115.234 118.127 115.121 118.02 115.085 117.879C115.009 117.58 113.562 111.663 114.969 106.775C112.459 110.061 108.302 115.938 108.161 118.977C108.153 119.164 108.009 119.318 107.822 119.336C107.629 119.354 107.462 119.235 107.417 119.053C107.316 118.658 105.092 109.95 105.782 104.424C104.447 105.75 101.947 108.513 101.947 110.597C101.947 111.015 101.965 111.392 101.98 111.756C102.081 114.074 102.142 115.473 97.7549 118.258C93.2617 121.112 84.2576 123.558 82.436 122.787C82.1147 122.65 82.0084 122.435 81.9755 122.278C81.9603 122.205 80.8294 116.133 83.4985 111.744C81.3253 113.785 78.3855 117.81 76.8347 125.36C76.3616 127.665 75.9163 129.77 75.4862 131.804C73.49 141.23 72.172 147.459 72.6577 152.403C73.2295 158.227 76.741 160.984 76.7765 161.01C76.86 161.075 76.9131 161.171 76.9232 161.275C76.9333 161.379 76.898 161.485 76.8271 161.564C76.6703 161.741 76.3034 161.986 75.7999 161.986" fill="#164C60"/>
<path d="M162.573 97.9047L166.146 113.337L66.4296 137.362L64.6409 129.63L74.3813 127.285C76.6608 126.736 78.4419 125.175 79.34 123.179C79.8688 122.023 80.0991 120.717 79.9397 119.387C79.922 119.113 79.8739 118.843 79.8081 118.564C79.7499 118.314 79.6815 118.081 79.5803 117.841C79.1654 116.616 78.4773 115.622 77.5715 114.84C75.8613 113.325 73.4958 112.675 71.1303 113.246L61.8959 115.47C60.7625 99.0811 69.5566 83.5243 83.9218 75.8282C86.5074 74.4266 89.2752 73.3033 92.1999 72.4659C92.7818 72.2964 93.3661 72.142 93.9531 72.0004L112.872 67.4414C113.545 67.2795 114.221 67.1327 114.886 67.0163C115.336 66.9227 115.794 66.8569 116.237 66.7937C116.763 66.7102 117.295 66.6419 117.813 66.5913C138.372 64.1372 157.815 77.3487 162.573 97.9072" fill="#BD202E"/>
<path d="M66.1446 137.822L64.1839 129.352L74.2886 126.918C76.3935 126.412 78.1064 124.993 78.9919 123.025C79.5105 121.891 79.7078 120.651 79.5611 119.435C79.5434 119.187 79.5054 118.944 79.4371 118.653C79.3764 118.395 79.3132 118.19 79.2297 117.987L79.2195 117.965C78.8375 116.841 78.2 115.888 77.3221 115.129C76.0773 114.028 74.4884 113.423 72.8389 113.423C72.2975 113.423 71.7536 113.489 71.2198 113.618L61.5477 115.948L61.5173 115.5C60.3788 99.0431 69.1022 83.3396 83.7431 75.4967C86.3363 74.09 89.147 72.949 92.0944 72.104C92.6611 71.937 93.2583 71.7802 93.8629 71.6334L112.782 67.0744C113.549 66.8897 114.214 66.7481 114.819 66.6443C115.287 66.5457 115.785 66.4774 116.182 66.4192C116.716 66.3357 117.255 66.2674 117.776 66.2142C119.408 66.0194 121.075 65.9208 122.722 65.9208C131.926 65.9208 140.991 69.0428 148.24 74.7124C155.711 80.5541 160.796 88.5462 162.941 97.8236L166.599 113.623L166.235 113.712L66.1472 137.827L66.1446 137.822ZM65.0921 129.914L66.7114 136.904L165.689 113.057L162.202 97.9906C157.934 79.5522 141.7 66.6747 122.72 66.6747C121.103 66.6747 119.469 66.7708 117.857 66.9657C117.344 67.0163 116.82 67.0845 116.294 67.1655C115.899 67.2212 115.418 67.2895 114.96 67.3856C114.361 67.4919 113.708 67.6285 112.959 67.8081L94.0401 72.3671C93.4455 72.5113 92.8611 72.6656 92.302 72.8301C89.4052 73.6599 86.645 74.7807 84.0998 76.1621C69.8536 83.795 61.3124 99.0001 62.2434 114.997L71.0401 112.879C71.6321 112.735 72.2368 112.664 72.8364 112.664C74.6707 112.664 76.4416 113.337 77.8204 114.559C78.7944 115.402 79.5079 116.462 79.9329 117.712C80.0316 117.944 80.1075 118.192 80.1758 118.483C80.2542 118.815 80.2973 119.096 80.315 119.364C80.4769 120.7 80.2568 122.081 79.6799 123.338C78.7008 125.519 76.7983 127.093 74.4657 127.654L65.0921 129.914Z" fill="#164C60"/>
<path d="M162.574 97.9046L166.147 113.337L92.0238 131.196L88.4514 115.764C83.5711 94.6764 95.8718 73.4626 116.238 66.7911C137.376 63.4617 157.694 76.8174 162.574 97.9046Z" fill="#2D358F"/>
<path d="M91.7401 131.654L88.0818 115.85C85.7086 105.596 87.2949 94.8812 92.5471 85.6848C97.7715 76.539 106.143 69.7005 116.119 66.4317L116.18 66.4166C118.338 66.0776 120.531 65.9055 122.702 65.9055C131.913 65.9055 140.981 69.0275 148.234 74.6997C155.708 80.5439 160.795 88.5386 162.943 97.821L166.602 113.621L166.237 113.709L91.7425 131.657L91.7401 131.654ZM116.326 67.1629C96.1396 73.7939 84.0591 95.0988 88.8205 115.68L92.3067 130.738L165.693 113.056L162.207 97.9905C157.939 79.5471 141.694 66.6645 122.704 66.6645C120.582 66.6645 118.439 66.8315 116.329 67.1629" fill="#164C60"/>
<path d="M208.7 98.8661L101.42 124.715L102.351 128.742L209.634 102.894L208.7 98.8661Z" fill="#FCEE1D"/>
<path d="M208.7 98.8661L101.42 124.715L102.351 128.742L209.634 102.894L208.7 98.8661Z" fill="#BD202E"/>
<path d="M102.068 129.2L100.965 124.434L101.332 124.345L208.984 98.4055L210.087 103.172L209.72 103.261L102.065 129.198L102.068 129.2ZM101.873 124.995L102.635 128.284L209.179 102.613L208.417 99.3239L101.873 124.995Z" fill="#164C60"/>
<path d="M99.1592 159.168C109.937 173.945 114.787 157.131 114.787 157.131L99.1592 159.168Z" fill="#164C60"/>
<path d="M107.402 165.751C104.703 165.751 101.791 163.636 98.7499 159.466C98.6462 159.322 98.6235 159.132 98.6943 158.968C98.7652 158.803 98.917 158.69 99.0941 158.667L114.724 156.63C114.894 156.607 115.063 156.673 115.172 156.802C115.283 156.931 115.321 157.108 115.276 157.273C115.175 157.619 112.766 165.753 107.405 165.753M100.083 159.56C102.727 163.001 105.189 164.744 107.405 164.744C111.144 164.744 113.345 159.681 114.054 157.741L100.086 159.562L100.083 159.56Z" fill="#164C60"/>
<path d="M103.062 164.374C103.062 164.374 109.906 169.1 112.196 162.391C112.196 162.391 107.7 158.616 103.062 164.374Z" fill="#EF5E86"/>
<path d="M104.938 149.083C104.331 149.083 102.709 149.01 102.314 148.259C102.137 147.922 102.218 147.525 102.552 147.08C103.713 145.531 102.241 143.986 102.18 143.922C102.087 143.826 102.089 143.674 102.185 143.581C102.281 143.487 102.433 143.49 102.527 143.586C102.544 143.604 104.353 145.488 102.942 147.373C102.729 147.657 102.663 147.879 102.747 148.036C102.975 148.474 104.28 148.628 105.133 148.598C105.272 148.598 105.378 148.696 105.383 148.83C105.388 148.965 105.282 149.076 105.148 149.081C105.112 149.081 105.041 149.083 104.94 149.083" fill="#164C60"/>
<path d="M121.528 151.884C121.007 147.54 124.118 143.558 128.478 142.989C132.837 142.419 136.794 145.481 137.315 149.825C137.836 154.169 134.727 158.153 130.365 158.72C126.006 159.287 122.049 156.228 121.528 151.881" fill="#F7A29A"/>
<path d="M74.2832 154.538C75.323 154.179 75.9252 153.726 75.9252 153.726C75.9252 153.726 79.7201 158.573 85.4201 162.96C88.5826 161.493 90.5382 158.065 89.974 154.472C89.3011 150.154 85.2355 147.234 80.9016 147.955C77.4305 148.532 74.8347 151.264 74.2832 154.54" fill="#F7A29A"/>
<path d="M86.0206 134.331C83.6753 134.637 80.4445 136.876 79.9765 141.253C79.4022 146.579 82.5393 151.254 87.999 150.272C93.8559 149.22 95.3915 144.532 94.2556 140.522C93.0362 136.229 90.1343 133.797 86.0231 134.331" fill="white"/>
<path d="M79.992 142.174C80.5714 137.865 84.0248 134.787 87.4909 135.186C88.8925 135.348 90.4763 136.097 91.5439 137.327C92.738 138.703 93.1225 140.646 94.256 142.022C94.4356 142.24 94.843 142.333 94.9391 141.974C95.5488 139.692 93.8284 137.058 92.4091 135.664C90.9316 134.21 88.8823 133.38 87.0557 133.36C85.1886 133.339 83.2228 134.124 81.8161 135.591C80.1236 137.357 79.8276 139.401 79.8301 142.123C79.8301 142.278 79.9668 142.354 79.9896 142.174" fill="#164C60"/>
<path d="M80.7777 144.479C80.3223 140.803 82.3185 137.504 85.2381 137.112C88.1577 136.719 90.8926 139.383 91.348 143.059C91.8034 146.738 89.8072 150.035 86.8877 150.427C83.9681 150.819 81.2331 148.155 80.7777 144.479Z" fill="#164C60"/>
<path d="M81.5971 143.755C81.4504 142.579 82.0904 141.524 83.0215 141.4C83.955 141.273 84.8279 142.126 84.9746 143.302C85.1214 144.479 84.4837 145.531 83.5502 145.658C82.6166 145.784 81.7439 144.932 81.5971 143.755Z" fill="white"/>
<path d="M118.591 129.532C116.291 130.093 113.323 132.671 113.341 137.069C113.359 142.419 116.997 146.715 122.32 145.139C128.032 143.449 129.042 138.624 127.466 134.771C125.778 130.642 122.621 128.548 118.591 129.532Z" fill="white"/>
<path d="M113.461 137.984C113.559 133.64 116.656 130.207 120.15 130.222C121.564 130.23 123.221 130.797 124.42 131.9C125.761 133.134 126.358 135.019 127.638 136.261C127.841 136.459 128.258 136.507 128.314 136.14C128.671 133.807 126.665 131.381 125.099 130.154C123.469 128.874 121.336 128.277 119.517 128.456C117.66 128.641 115.791 129.635 114.551 131.25C113.061 133.188 112.993 135.249 113.299 137.954C113.316 138.106 113.458 138.166 113.463 137.987" fill="#164C60"/>
<path d="M114.496 140.185C113.636 136.585 115.258 133.091 118.119 132.381C120.98 131.67 123.999 134.012 124.856 137.613C125.717 141.213 124.095 144.707 121.233 145.417C118.372 146.128 115.356 143.786 114.496 140.185Z" fill="#164C60"/>
<path d="M115.234 139.376C114.958 138.225 115.477 137.109 116.393 136.881C117.309 136.654 118.273 137.405 118.548 138.556C118.824 139.707 118.305 140.823 117.39 141.051C116.474 141.278 115.51 140.529 115.234 139.378" fill="white"/>
<path d="M108.35 67.6513C108.606 68.7594 107.913 69.8776 106.797 70.1458L100.571 71.6461C99.4575 71.9143 98.3445 71.2337 98.0889 70.1231C97.8309 69.0124 98.5265 67.8967 99.6422 67.6285L105.866 66.1282C106.982 65.8601 108.092 66.5406 108.35 67.6513Z" fill="#9E2063"/>
<path d="M100.077 72.0863C98.9414 72.0863 97.9699 71.3147 97.7144 70.2116C97.4108 68.9011 98.2331 67.5779 99.5486 67.2617L105.772 65.7614C105.962 65.7159 106.157 65.6931 106.352 65.6931C107.488 65.6931 108.459 66.4648 108.717 67.5678C109.021 68.8783 108.196 70.2015 106.883 70.5177L100.657 72.018C100.467 72.0636 100.272 72.0863 100.077 72.0863ZM106.352 66.4521C106.218 66.4521 106.084 66.4673 105.952 66.5002L99.7283 68.0004C98.8175 68.2205 98.2458 69.1364 98.4557 70.0421C98.6303 70.8011 99.2982 71.3299 100.08 71.3299C100.214 71.3299 100.348 71.3147 100.48 71.2818L106.706 69.7815C107.617 69.5614 108.188 68.6456 107.978 67.7398C107.804 66.9834 107.133 66.4521 106.354 66.4521" fill="#164C60"/>
<path d="M71.5094 136.14L72.9084 135.801L71.1198 128.072L69.7206 128.409L71.5094 136.14Z" fill="#9E2063"/>
<path d="M71.2236 136.598L69.2629 128.13L71.4008 127.614L73.3615 136.084L71.2236 136.6V136.598ZM70.1711 128.689L71.7878 135.68L72.4507 135.52L70.8315 128.53L70.1711 128.689Z" fill="#164C60"/>
<path d="M76.2338 135.037L66.4377 137.397L64.5732 129.342L74.3692 126.981L76.2338 135.037Z" fill="#C6C5C4"/>
<path d="M66.1521 137.855L64.1154 129.061L74.6476 126.524L76.6843 135.318L66.1521 137.855ZM65.0262 129.623L66.7187 136.937L75.7759 134.754L74.0834 127.437L65.0262 129.62V129.623Z" fill="#164C60"/>
</g>
</g>
</svg>
