<svg width="44" height="27" viewBox="0 0 44 27" fill="none" xmlns="http://www.w3.org/2000/svg">
<path d="M43.15 13.1385C41.0338 5.52555 31.9702 0 21.5995 0C11.2288 0 2.16539 5.52555 0.0488607 13.1385C-0.0170193 13.375 -0.0170193 13.625 0.0488607 13.8618C2.16539 21.4744 11.2288 27 21.5995 27C23.3318 27 25.0552 26.8483 26.7222 26.5496C27.456 26.4182 27.9442 25.7164 27.8127 24.9826C27.6809 24.2487 26.9797 23.76 26.2453 23.892C24.7355 24.1628 23.1722 24.3 21.5995 24.3C12.5898 24.3 4.7474 19.7802 2.7575 13.5C4.7474 7.2198 12.5898 2.7 21.5995 2.7C30.7813 2.7 38.7507 7.39422 40.5489 13.8615C40.7484 14.58 41.4939 15.0001 42.211 14.8006C42.9295 14.6011 43.3498 13.8567 43.15 13.1385Z" fill="black"/>
<path d="M21.5992 5.65698C17.2746 5.65698 13.7563 9.17535 13.7563 13.4999C13.7563 17.8245 17.2746 21.3429 21.5992 21.3429C25.9238 21.3429 29.4422 17.8245 29.4422 13.4999C29.4422 9.17535 25.9238 5.65698 21.5992 5.65698ZM21.5992 18.6429C18.7634 18.6429 16.4563 16.3358 16.4563 13.4999C16.4563 10.6641 18.7634 8.35698 21.5992 8.35698C24.435 8.35698 26.7422 10.6641 26.7422 13.4999C26.7422 16.3358 24.435 18.6429 21.5992 18.6429Z" fill="black"/>
<path d="M38.2097 17.4515L33.7055 22.3701L31.3849 20.1596C30.8449 19.6452 29.9903 19.6663 29.4765 20.206C28.9622 20.746 28.9829 21.6006 29.5229 22.1146L32.8404 25.2747C33.0918 25.5142 33.4253 25.647 33.7714 25.647C33.7868 25.647 33.8019 25.6468 33.8176 25.6462C34.1799 25.6338 34.522 25.4761 34.7672 25.2086L40.2009 19.2745C40.7045 18.7248 40.6669 17.8708 40.1169 17.3672C39.5669 16.8637 38.7132 16.9015 38.2097 17.4515Z" fill="black"/>
</svg>
