<svg width="21" height="21" viewBox="0 0 21 21" fill="none" xmlns="http://www.w3.org/2000/svg">
<path d="M5.514 0.0141602C5.876 0.0961602 6.214 0.22816 6.478 0.50616C6.774 0.81816 6.926 1.19216 6.936 1.62416C6.96 2.51016 7.036 3.38816 7.246 4.25016C7.334 4.61216 7.446 4.96816 7.536 5.33016C7.67 5.87016 7.536 6.34416 7.196 6.78216C6.628 7.51016 6.076 8.25216 5.522 8.99016C5.49 9.03216 5.486 9.12816 5.512 9.17816C6.514 11.0582 7.832 12.6622 9.642 13.8282C10.072 14.1042 10.516 14.3562 10.95 14.6262C11.052 14.6902 11.118 14.6742 11.21 14.6042C11.96 14.0302 12.71 13.4582 13.466 12.8942C13.868 12.5942 14.326 12.5142 14.81 12.6242C15.39 12.7562 15.962 12.9382 16.548 13.0402C17.114 13.1382 17.694 13.2082 18.268 13.2082C19.192 13.2082 19.94 13.6062 20.164 14.6402V18.7282C20.156 18.7382 20.146 18.7502 20.144 18.7602C20.022 19.5782 19.31 20.1802 18.368 20.1442C17.364 20.1082 16.364 20.0382 15.372 19.8662C13.358 19.5182 11.452 18.8582 9.664 17.8742C6.83 16.3142 4.546 14.1682 2.824 11.4322C1.33 9.05616 0.432 6.46816 0.118 3.68016C0.07 3.25816 0.04 2.83416 0 2.41216C0 2.08416 0 1.75616 0 1.43016C0.112 1.17216 0.194 0.89216 0.344 0.65816C0.59 0.27816 0.988 0.11016 1.418 0.0141602H5.514Z" fill="#231F20"/>
</svg>
