<svg width="22" height="17" viewBox="0 0 22 17" fill="none" xmlns="http://www.w3.org/2000/svg">
<path d="M0.00134277 14.9208C0.00134277 11.5973 0.00134277 8.27379 0.00134277 4.95027C0.0330228 4.96323 0.0675811 4.97331 0.0963811 4.99203C3.03542 6.95187 5.97446 8.91171 8.9135 10.873C10.1951 11.7269 11.5228 11.7341 12.7972 10.8845C15.7017 8.95059 18.6047 7.01235 21.5092 5.07699C21.5711 5.03523 21.6345 4.99635 21.7252 4.94019V5.11299C21.7252 8.28099 21.7252 11.4475 21.7223 14.6155C21.7223 14.7898 21.7021 14.9698 21.6589 15.1397C21.4242 16.0714 20.6365 16.6531 19.6141 16.6531C16.7226 16.6546 13.8311 16.6531 10.9381 16.6531C8.04518 16.6531 5.05574 16.6531 2.11382 16.6531C1.53782 16.6531 1.03094 16.4847 0.609023 16.0829C0.272063 15.7647 0.105023 15.3586 0.00134277 14.9194V14.9208Z" fill="#231F20"/>
<path d="M0.0011106 2.10771C0.0356706 1.98675 0.06591 1.86435 0.10623 1.74483C0.38415 0.921148 1.12719 0.391228 2.03007 0.376828C2.44767 0.371068 2.86383 0.376828 3.28143 0.376828C8.71887 0.376828 14.1563 0.376828 19.5937 0.376828C20.2259 0.376828 20.776 0.565468 21.2051 1.04355C22.0158 1.94355 21.8704 3.28851 20.8681 3.96963C19.5477 4.86819 18.2128 5.74515 16.8851 6.63075C15.304 7.68483 13.7229 8.74035 12.1403 9.79443C11.2302 10.4007 10.4944 10.4007 9.58575 9.79443C6.79935 7.93683 4.01727 6.07059 1.22079 4.22739C0.624631 3.83427 0.14511 3.38787 -0.00177002 2.66211C-0.00177002 2.47779 -0.00177002 2.29491 -0.00177002 2.11059L0.0011106 2.10771Z" fill="#231F20"/>
</svg>
