<svg width="43" height="43" viewBox="0 0 43 43" fill="none" xmlns="http://www.w3.org/2000/svg">
<g clip-path="url(#clip0_195_11218)">
<path d="M32.0595 42.3205H11.4184C10.9856 42.2515 10.5497 42.2076 10.1232 42.1104C5.33452 41.0316 2.26124 38.1339 0.947255 33.4017C0.774775 32.7839 0.715191 32.1379 0.602295 31.5044C0.602295 24.624 0.602295 17.7468 0.602295 10.8664C0.627383 10.719 0.643063 10.5685 0.680695 10.4242C0.966071 9.32348 1.10092 8.15375 1.57132 7.13769C3.67558 2.58108 7.29766 0.14441 12.3247 0.0754182C18.5998 -0.0123898 24.8749 0.0503302 31.1501 0.0566022C33.5805 0.0566022 35.8353 0.715162 37.8172 2.12636C41.179 4.52227 42.863 7.8182 42.8724 11.9452C42.8881 18.1074 42.885 24.2728 42.8662 30.435C42.8662 31.2284 42.8223 32.0407 42.6529 32.8121C41.5961 37.5977 38.6827 40.6584 33.9599 41.9724C33.3421 42.1449 32.693 42.2076 32.0595 42.3205ZM21.7703 3.80099C18.7033 3.80099 15.6331 3.80099 12.5661 3.80099C11.6002 3.80099 10.6469 3.90134 9.72806 4.23062C6.38194 5.42857 4.35922 8.30742 4.35295 11.942C4.34354 18.1043 4.331 24.2665 4.36863 30.4288C4.3749 31.3476 4.50661 32.3104 4.79826 33.179C5.9335 36.544 8.85311 38.5635 12.4815 38.5698C18.6437 38.5824 24.8091 38.5918 30.9713 38.5541C31.8902 38.5479 32.8529 38.4193 33.7216 38.1276C37.074 36.9987 39.1061 34.1042 39.1186 30.4915C39.1406 24.2885 39.1343 18.0855 39.1186 11.8793C39.1124 9.11023 37.996 6.8774 35.7412 5.24668C34.308 4.2118 32.6804 3.79471 30.9306 3.79785C27.8761 3.80412 24.8216 3.79785 21.7672 3.79785L21.7703 3.80099Z" fill="#231F20"/>
<path d="M32.634 21.2121C32.6026 27.2144 27.6666 32.1222 21.705 32.0783C15.6902 32.0344 10.7886 27.0952 10.8482 21.14C10.9078 15.1345 15.7937 10.2737 21.7583 10.2925C27.7544 10.3114 32.6685 15.2443 32.6371 21.209L32.634 21.2121ZM21.7458 14.0526C17.8164 14.0463 14.6114 17.245 14.6051 21.1807C14.5989 25.1101 17.7976 28.312 21.7364 28.3214C25.6658 28.3277 28.8708 25.129 28.8771 21.1901C28.8833 17.2607 25.6846 14.0589 21.7458 14.0526Z" fill="#231F20"/>
<path d="M33.1108 12.6069C31.5993 12.6163 30.3386 11.3713 30.3386 9.86605C30.3386 8.37331 31.5648 7.144 33.0701 7.12832C34.5848 7.11264 35.8423 8.35763 35.8392 9.86605C35.8392 11.3556 34.6036 12.5944 33.1077 12.6069H33.1108Z" fill="#231F20"/>
</g>
<defs>
<clipPath id="clip0_195_11218">
<rect width="42.2796" height="42.2921" fill="white" transform="translate(0.602844 0.0283203)"/>
</clipPath>
</defs>
</svg>
